<?xml version="1.0" encoding="UTF-8" standalone="no"?><svg xmlns="http://www.w3.org/2000/svg" viewBox="0 0 161.55 25"><defs><style>.cls-1{fill:#070707;}.cls-2{fill:#090909;}.cls-3{fill:#080808;}.cls-4{fill:#f3991a;}.cls-5{fill:#f39715;}.cls-6{fill:#f49b1c;}.cls-7{fill:#171717;}.cls-8{fill:#141414;}.cls-9{fill:#1b1b1b;}</style></defs><g id="Layer_2" data-name="Layer 2"><g id="Layer_1-2" data-name="Layer 1"><path class="cls-1" d="M5.53,1C7.28,1,7.28,1,7.82,2.64c1,3.19,2.06,6.39,3.11,9.58.14.42.14.64-.38.56h-.33c-.64,0-1.44.26-1.86-.12a3.36,3.36,0,0,1-.64-1.77c-.13-.59-.41-.76-1-.73-1,.05-2,0-3,0-.39,0-.59.11-.64.49A1.86,1.86,0,0,1,3,11c-.19.59-.22,1.38-.62,1.7s-1.28.07-1.94.12c-.44,0-.52-.08-.37-.51C1.05,9.34,2,6.4,3,3.46c.22-.66.45-1.3.63-2A.62.62,0,0,1,4.34,1,11.78,11.78,0,0,0,5.53,1ZM6.9,8.23l-1.53-5L4,7.83c0,.17-.22.4.17.4Z"/><path class="cls-1" d="M75.09,9c-.88,0-1.76,0-2.65,0-.36,0-.46.1-.4.46a2,2,0,0,0,1.55,1.7,1.84,1.84,0,0,0,2.21-.87.42.42,0,0,1,.4-.26c.53,0,1.07,0,1.6,0s.37.19.29.45a3.05,3.05,0,0,1-2,2.13,5.63,5.63,0,0,1-3.84,0c-2.06-.73-3.09-2.83-2.61-5.26a4.26,4.26,0,0,1,4.46-3.46,4,4,0,0,1,4.11,4.7c0,.34-.17.39-.45.39C76.86,9,76,9,75.09,9Zm-1.2-1.5h0c.5,0,1,0,1.52,0s.45-.12.38-.47A1.71,1.71,0,0,0,73.94,5.6a2,2,0,0,0-1.86,1.6c0,.33.13.32.34.32Z"/><path class="cls-1" d="M35,9c-.87,0-1.73,0-2.59,0-.45,0-.51.15-.43.55a1.94,1.94,0,0,0,1.55,1.62c.87.15,1.93,0,2.21-.88.08-.26.27-.25.47-.25.49,0,1,0,1.46,0s.43.13.34.46a3.18,3.18,0,0,1-2.27,2.22,5.9,5.9,0,0,1-2.89.13c-2.39-.49-3.69-2.48-3.35-5.15A4.29,4.29,0,0,1,34,3.93c2.53.07,4.21,1.71,4.1,4.73,0,.38-.22.36-.48.36Zm-1.14-1.5c.51,0,1,0,1.52,0s.4-.13.34-.44A1.73,1.73,0,0,0,33.82,5.6,2,2,0,0,0,32,7.21c0,.33.14.31.34.31Z"/><path class="cls-2" d="M41.7,5.28a3.08,3.08,0,0,1,2-1.28,2.82,2.82,0,0,1,3.62,2.94c0,1.79,0,3.59,0,5.38,0,.38-.12.5-.49.47-.61,0-1.4.24-1.8-.11s-.11-1.17-.12-1.78c0-1.09,0-2.17,0-3.26s-.46-1.7-1.45-1.73a1.65,1.65,0,0,0-1.8,1.77c0,1.53,0,3.05,0,4.58,0,.4-.09.57-.51.53-.62-.06-1.41.24-1.8-.12s-.12-1.17-.12-1.78c0-2.06,0-4.12,0-6.18,0-.45.1-.65.58-.59a5.93,5.93,0,0,0,.73,0C41.59,4.12,41.59,4.12,41.7,5.28Z"/><path class="cls-1" d="M60,11.62a3.13,3.13,0,0,1-3.1,1.32,2.53,2.53,0,0,1-2.42-2.33c-.23-2-.06-4.11-.1-6.16,0-.28.15-.33.38-.33.51,0,1,0,1.53,0s.51.16.5.53c0,1.53,0,3.06,0,4.58,0,1.27.41,1.82,1.39,1.85A1.66,1.66,0,0,0,60,9.28c0-1.52,0-3,0-4.58,0-.47.13-.63.59-.58s1.3-.23,1.68.11.12,1.08.12,1.64c0,2.08,0,4.16,0,6.24,0,.58-.18.75-.71.68a4,4,0,0,0-.6,0C60.07,12.78,60.07,12.78,60,11.62Z"/><path class="cls-3" d="M27.72,7.3c-.22,0-.45,0-.67,0a.44.44,0,0,1-.56-.38,1.46,1.46,0,0,0-1.44-1.07,1.76,1.76,0,0,0-1.81.88,3.65,3.65,0,0,0,0,3.5,1.77,1.77,0,0,0,1.92.89,1.58,1.58,0,0,0,1.5-1.21c.1-.4.3-.48.65-.45s.49,0,.73,0c1,0,1.05,0,.72,1A3.87,3.87,0,0,1,24.68,13a4.15,4.15,0,0,1-4.09-2.8A4.92,4.92,0,0,1,21.92,4.9a5.08,5.08,0,0,1,5.38-.37,3.32,3.32,0,0,1,1.49,2.11c.13.5,0,.76-.54.66A4.69,4.69,0,0,0,27.72,7.3Z"/><path class="cls-3" d="M18.63,7.3c-.22,0-.45,0-.67,0a.46.46,0,0,1-.57-.38A1.44,1.44,0,0,0,16,5.85a1.76,1.76,0,0,0-1.8.89,3.6,3.6,0,0,0,0,3.5,1.77,1.77,0,0,0,1.92.88A1.59,1.59,0,0,0,17.55,9.9c.09-.33.23-.48.59-.44a8.19,8.19,0,0,0,.86,0c.94,0,.95,0,.68.9C19.2,12,18,12.83,15.93,13a4.22,4.22,0,0,1-4.49-3,4.65,4.65,0,0,1,2.11-5.55,5,5,0,0,1,4.42,0A3.18,3.18,0,0,1,19.71,6.7c.13.48,0,.66-.49.6A5.8,5.8,0,0,0,18.63,7.3Z"/><path class="cls-4" d="M87.76.91a1,1,0,0,1,1.33.85c1.13,3.48,2.34,7,3.53,10.42.17.5,0,.62-.48.66A1,1,0,0,1,91,12c-.17-.69-.44-1.35-.66-2a.71.71,0,0,0-.76-.58c-1.22,0-2.44,0-3.65,0a.7.7,0,0,0-.75.59c-.23.76-.5,1.51-.75,2.27a1,1,0,0,1-1.39.52c-.26-.16-.12-.4,0-.59.71-2.12,1.44-4.23,2.17-6.34.46-1.34,1-2.66,1.37-4C86.73,1.17,87,.69,87.76.91Zm.07,1.58h-.18q-.89,2.67-1.78,5.34c-.11.32.06.39.32.39h3.12c.3,0,.4-.16.31-.43s-.23-.71-.35-1.07Z"/><path class="cls-4" d="M110.07,9.44c0,.93,0,1.86,0,2.79,0,.26,0,.61-.35.56s-.89.33-1-.31-.4-.23-.62-.1a3.68,3.68,0,0,1-3.49.31,2.17,2.17,0,0,1-1.46-2.09,2.26,2.26,0,0,1,1.31-2.33,7.31,7.31,0,0,1,3.42-.62c.81,0,.86-.05.79-.88s-.48-1.42-1.27-1.54a1.94,1.94,0,0,0-2.33,1,1.21,1.21,0,0,1-1.39.44c-.17-.11-.13-.27-.11-.42a2.34,2.34,0,0,1,.9-1.56,4.4,4.4,0,0,1,4.28-.42,2.51,2.51,0,0,1,1.35,2.16c0,1,0,2,0,3Zm-1.4.07c-.07-.25.17-.76-.28-.79a5.06,5.06,0,0,0-3.33.54,1.46,1.46,0,0,0,.13,2.36A2.43,2.43,0,0,0,108.67,9.51Z"/><path class="cls-1" d="M49.24,8.43c0-.68,0-1.37,0-2,0-.39-.07-.61-.51-.53s-.7-.1-.62-.61a2.35,2.35,0,0,0,0-.53c-.07-.47.12-.66.58-.58s.55-.14.55-.56c0-1.29,0-1.29,1.31-1.29h.07c1,0,1,0,1,1,0,.83,0,.82.91.85.29,0,.74-.21.83.14a3.54,3.54,0,0,1,0,1.45c0,.24-.39.11-.59.11-1.14,0-1.14,0-1.14,1.15V9.85c0,1,.37,1.29,1.33,1.11.42-.08.58,0,.52.42a.66.66,0,0,0,0,.14C53.5,12.9,53.43,13,52,13a2.46,2.46,0,0,1-2.77-2.72C49.23,9.63,49.24,9,49.24,8.43Z"/><path class="cls-4" d="M145.87,13c-1.77,0-2.94-.69-3.32-2-.08-.28-.35-.75.16-.81s1-.34,1.22.4a2.22,2.22,0,0,0,3.31.87,1.2,1.2,0,0,0-.37-2,13.65,13.65,0,0,0-2.18-.55c-1.5-.4-2.14-1.18-2-2.57A2.58,2.58,0,0,1,145,4a4.39,4.39,0,0,1,2.16.18,2.41,2.41,0,0,1,1.56,1.91c0,.18.07.34-.17.43A1.11,1.11,0,0,1,147.17,6a1.41,1.41,0,0,0-1.37-.76,1.62,1.62,0,0,0-1.64.63,1,1,0,0,0,.4,1.42,5.31,5.31,0,0,0,1.52.44c.35.07.7.14,1,.24,1.52.47,2.07,1.26,1.91,2.73a2.6,2.6,0,0,1-2.56,2.26A5.86,5.86,0,0,1,145.87,13Z"/><path class="cls-5" d="M95.81,5.07A3.7,3.7,0,0,1,98.61,4a2.59,2.59,0,0,1,2.78,2.39,49.65,49.65,0,0,1,.09,6.1c0,.59-.53.3-.83.35s-.59,0-.58-.49c0-1.35,0-2.7,0-4.05,0-.37,0-.75,0-1.12-.06-1-.46-1.61-1.24-1.83a2.49,2.49,0,0,0-2.68.85,2.61,2.61,0,0,0-.43,1.51c0,1.46,0,2.92,0,4.38,0,.57-.16.77-.76.78s-.68-.24-.67-.75c0-2.38,0-4.77,0-7.16,0-.37-.15-.83.53-.82s1,0,.89.75A1,1,0,0,0,95.81,5.07Z"/><path class="cls-4" d="M133.28,8.53a4.37,4.37,0,0,1,2.38-4.2c1-.56,3.63-.57,4.72.67a2.62,2.62,0,0,1,.71,1.25c0,.27.38.59,0,.81a1.07,1.07,0,0,1-1.3-.42,2.12,2.12,0,0,0-2.09-1.46,2.5,2.5,0,0,0-2.35,1.22,3.92,3.92,0,0,0,.59,4.8,2.56,2.56,0,0,0,4-1.07,1,1,0,0,1,1.28-.48c.24.13.13.34.09.53A3.59,3.59,0,0,1,137.85,13,4.15,4.15,0,0,1,133.28,8.53Z"/><path class="cls-1" d="M66.45,5.6A2.86,2.86,0,0,1,68.76,4c.31,0,.47,0,.43.38v.19a4.11,4.11,0,0,1,0,1.45c-.2.49-.85.21-1.28.35a1.86,1.86,0,0,0-1.46,1.9c0,1.3,0,2.61,0,3.91,0,.44-.08.64-.57.6s-1.37.18-1.73-.12S64,11.55,64,11c0-2.08,0-4.16,0-6.23,0-.52.15-.68.63-.61a2.67,2.67,0,0,0,.4,0C66.31,4.13,66.31,4.13,66.45,5.6Z"/><path class="cls-6" d="M125.14,8.4c0-.8,0-1.6,0-2.39,0-.43-.11-.68-.6-.64s-.69-.08-.68-.62.2-.73.71-.68.59-.19.56-.6c0-.2,0-.4,0-.6-.09-.67.24-.83.85-.79s.66.18.66.68c0,1.3,0,1.31,1.3,1.31.46,0,.7.09.7.62s-.19.68-.7.68c-1.43,0-1.31-.21-1.31,1.3,0,1.24,0,2.48,0,3.72,0,1,.35,1.34,1.38,1.26.27,0,.65-.26.72.27s-.11.92-.66,1c-1.89.26-2.92-.63-2.94-2.53,0-.67,0-1.33,0-2Z"/><path class="cls-5" d="M116.9,4.78l.12.27a49.54,49.54,0,0,0,2.19,5.1c.87-2,1.65-3.9,2.33-5.9h0l.46,0c.92,0,.93,0,.59.82-1.38,3.41-2.78,6.82-4.16,10.23a.59.59,0,0,1-.65.43l-.86,0a.17.17,0,0,0,0-.1c.61-1.08,1-2.26,1.49-3.38a.92.92,0,0,0-.07-.76c-.42-.93-.8-1.87-1.23-2.79-.59-1.25-1-2.57-1.73-3.77l-.08-.2c0-.36.09-.54.49-.48s.56,0,.84.06h0A.66.66,0,0,0,116.9,4.78Z"/><path class="cls-5" d="M113.73,6.37c0,1.86,0,3.72,0,5.58,0,.52,0,.85-.71.86s-.69-.41-.69-.89V1.62c0-.24,0-.48,0-.73,0-.86,0-.89.85-.89.45,0,.56.18.56.59C113.72,2.52,113.73,4.44,113.73,6.37Z"/><path class="cls-6" d="M131.63,8.46c0,1.22,0,2.43,0,3.65,0,.53-.15.73-.72.73s-.77-.2-.76-.76c0-2.41,0-4.83,0-7.24,0-.56.13-.79.74-.79s.78.16.77.76c0,1.21,0,2.43,0,3.65Z"/><path class="cls-7" d="M151.32,22.92a2.49,2.49,0,0,1-1.13.49,1.75,1.75,0,0,1-1.72-1,2.2,2.2,0,0,1,.35-2.35,1.83,1.83,0,0,1,2-.41c.22.1.41.42.69,0,.11-.18.55-.16.54.32,0,1.17,0,2.34,0,3.51a1.45,1.45,0,0,1-1.22,1.45,2.05,2.05,0,0,1-2.2-.52c-.14-.15-.39-.41-.13-.6s.47-.06.67.21a1.36,1.36,0,0,0,1.63.3C151.27,24.06,151.44,23.65,151.32,22.92Zm.1-1.47a1.21,1.21,0,0,0-1.18-1.39c-.77,0-1.25.51-1.26,1.38a1.22,1.22,0,0,0,1.17,1.4A1.25,1.25,0,0,0,151.42,21.45Z"/><path class="cls-8" d="M142,20.82c0-.75,0-1.51,0-2.26,0-.35.11-.47.46-.45.53,0,1.06,0,1.59.07A2.42,2.42,0,0,1,146.16,21a2.44,2.44,0,0,1-2.41,2.5c-1.76.1-1.76.1-1.76-1.65Zm.69,0c0,.57,0,1.14,0,1.72,0,.16-.06.34.19.43a2.29,2.29,0,0,0,2.27-.88,2.6,2.6,0,0,0,0-2.59c-.45-.77-1.24-.81-2-.82-.31,0-.42.1-.41.42C142.7,19.67,142.68,20.25,142.68,20.82Z"/><path class="cls-7" d="M108,22c-1.29,0-.94-.21-1.39,1a2.73,2.73,0,0,1-.16.43c-.12.19-.33.14-.49.1s-.1-.24-.06-.36c.53-1.57,1.07-3.14,1.59-4.71.12-.35.36-.32.63-.33a.47.47,0,0,1,.53.37c.51,1.55,1,3.1,1.56,4.65,0,.13.18.32,0,.38s-.4.11-.54-.1a2,2,0,0,1-.15-.37C109.07,22,109.07,22,108,22Zm0-3.21c-.21.6-.35,1-.5,1.46-.44,1.31-.44,1.3,1,1.21.37,0,.39-.14.29-.44C108.53,20.31,108.31,19.63,108,18.76Z"/><path class="cls-9" d="M84.08,18.09a8.26,8.26,0,0,1,1,.08,1.57,1.57,0,0,1,0,3.12l-.25.06c-.38.07-.9-.2-1.11.15s0,.77-.06,1.17v.4c0,.25,0,.47-.35.47s-.33-.26-.33-.49c0-1.4,0-2.79,0-4.18,0-.59.12-.87.75-.76a1.82,1.82,0,0,0,.33,0Zm-.41,1.6c.15.41-.37,1.17.68,1.1s1.42-.34,1.41-1.08-.42-1-1.45-1S83.79,19.28,83.67,19.69Z"/><path class="cls-7" d="M138,21.71c-.31,0-.62,0-.93,0-.59-.06-.56.25-.4.64a1.19,1.19,0,0,0,2,.28c.2-.28.45-.38.65-.23s0,.44-.13.62a2,2,0,0,1-2.26.43,2.11,2.11,0,0,1-1-2.48,1.81,1.81,0,0,1,2-1.45,1.73,1.73,0,0,1,1.59,1.87c0,.26-.13.34-.37.33s-.75,0-1.13,0Zm-.32-.57a1.78,1.78,0,0,0,.4,0c.23-.05.62.17.67-.16a.76.76,0,0,0-.54-.82,1.14,1.14,0,0,0-1.19.13c-.22.18-.46.44-.38.72s.42.09.64.13A2.67,2.67,0,0,0,137.69,21.14Z"/><path class="cls-7" d="M120.86,21.71c-.31,0-.62,0-.93,0-.61-.06-.55.27-.39.65a1.19,1.19,0,0,0,2,.26c.21-.28.45-.37.65-.21s0,.44-.15.61a1.94,1.94,0,0,1-2.31.4,2.12,2.12,0,0,1-1-2.52,1.81,1.81,0,0,1,2-1.38,1.74,1.74,0,0,1,1.58,1.87c0,.27-.13.34-.37.33s-.75,0-1.13,0Zm-.33-.57c.25,0,.49,0,.73,0,.41,0,.45-.14.32-.47a1.11,1.11,0,0,0-1.73-.36c-.2.18-.42.43-.35.68s.42.1.64.14A2.54,2.54,0,0,0,120.53,21.14Z"/><path class="cls-7" d="M159.94,22c0,.4,0,.8,0,1.19s-.41.46-.51.33c-.28-.38-.46-.09-.7,0a1.56,1.56,0,0,1-1.68-.24,1.12,1.12,0,0,1,.3-1.79,3,3,0,0,1,1.36-.27c.2,0,.53.16.55-.25s-.05-.7-.42-.81-.92-.16-1.16.33-.46.42-.68.24,0-.44.14-.63a1.8,1.8,0,0,1,1.94-.49,1.21,1.21,0,0,1,.85,1.28C160,21.23,159.94,21.61,159.94,22Zm-.65.1c0-.14.07-.38-.19-.4a2.06,2.06,0,0,0-1.46.27.63.63,0,0,0,0,1,1.16,1.16,0,0,0,1.14-.06A.87.87,0,0,0,159.29,22.08Z"/><path class="cls-8" d="M89.93,22c0,.35,0,.71,0,1.06s-.26.6-.54.42-.48-.07-.72,0a1.74,1.74,0,0,1-1.17,0,1,1,0,0,1-.77-1,1,1,0,0,1,.6-1.08,2.84,2.84,0,0,1,1.35-.27c.21,0,.53.13.55-.27s0-.7-.43-.81-.91-.13-1.15.36c-.16.32-.42.39-.63.25s0-.44.09-.62A1.69,1.69,0,0,1,89,19.55a1.21,1.21,0,0,1,1,1.26c0,.4,0,.8,0,1.2Zm-1.12-.34c-1,0-1.42.27-1.42.76s.33.64.75.64a1,1,0,0,0,1.11-1C89.29,21.59,89,21.66,88.81,21.67Z"/><path class="cls-9" d="M123,21.53c0-.53,0-1.06,0-1.59s.34-.53.48-.36c.34.41.58.11.86,0a1.37,1.37,0,0,1,2,1.28c0,.77,0,1.54,0,2.32,0,.25-.07.35-.33.35s-.33-.14-.33-.38c0-.7,0-1.41,0-2.11s-.22-.95-.84-1a1,1,0,0,0-1.12,1c0,.66,0,1.33,0,2,0,.22.09.5-.32.5s-.34-.25-.34-.49V21.53Z"/><path class="cls-7" d="M101.35,21.57a2,2,0,1,1-3.91,0,2,2,0,1,1,3.91,0Zm-3.2,0c0,.94.44,1.47,1.22,1.48s1.3-.58,1.29-1.51-.52-1.47-1.29-1.46S98.14,20.63,98.15,21.55Z"/><path class="cls-8" d="M132.75,21.53c0,.55,0,1.1,0,1.65s-.48.42-.56.28c-.19-.37-.32-.18-.52-.07a1.37,1.37,0,0,1-2.16-1.24c0-.71,0-1.42,0-2.12,0-.25-.05-.49.35-.48s.31.29.31.51c0,.64,0,1.28,0,1.92s.23,1,.82,1a1,1,0,0,0,1.1-1c0-.59,0-1.19,0-1.79,0-.24-.24-.68.32-.67s.28.41.3.64C132.78,20.64,132.75,21.08,132.75,21.53Z"/><path class="cls-9" d="M112.48,19.5a1.56,1.56,0,0,1,1.64,1c0,.13.19.32,0,.4a.46.46,0,0,1-.54-.1c-.67-.77-1.13-.9-1.68-.54a1.76,1.76,0,0,0-.48,2.05,1.1,1.1,0,0,0,1,.72,1,1,0,0,0,1.13-.63c.11-.31.31-.39.55-.29s.07.39,0,.56a1.84,1.84,0,0,1-2.57.7,2.11,2.11,0,0,1-.87-2.43A1.86,1.86,0,0,1,112.48,19.5Z"/><path class="cls-7" d="M114.64,21.6a1.94,1.94,0,0,1,2.43-2.05,1.39,1.39,0,0,1,1.06.81c.08.17.26.4,0,.52a.4.4,0,0,1-.61-.2,1,1,0,0,0-1.38-.55,1.45,1.45,0,0,0-.85,1.63c.07.62.31,1.12,1,1.24a1,1,0,0,0,1.3-.64c.11-.27.29-.35.51-.27s.1.38,0,.55a1.73,1.73,0,0,1-2,.93A1.88,1.88,0,0,1,114.64,21.6Z"/><path class="cls-7" d="M103.3,17.66c.19,0,.45-.05.48.29s-.2.26-.42.28c-.56,0-.54.44-.58.85s.2.5.55.47.41,0,.42.28-.24.33-.46.3c-.42-.05-.52.12-.51.52,0,.8,0,1.59,0,2.39,0,.22.09.49-.32.5s-.35-.23-.35-.48V20.68c0-.26.06-.5-.35-.57s-.26-.5-.07-.51c.62-.05.39-.48.42-.77A1.1,1.1,0,0,1,103.3,17.66Z"/><path class="cls-9" d="M127.34,21.54v-.86c0-.26.07-.56-.35-.55-.17,0-.21-.14-.21-.28s0-.3.2-.29c.42,0,.38-.27.36-.53s.07-.36.34-.36.35.13.32.37.07.58.5.51c.2,0,.4,0,.4.29s-.17.33-.39.3c-.41-.06-.54.11-.51.51,0,.58,0,1.15,0,1.73,0,.42.16.68.64.62.19,0,.35-.06.35.23a.33.33,0,0,1-.3.35,1,1,0,0,1-1.34-1C127.33,22.25,127.35,21.9,127.34,21.54Z"/><path class="cls-9" d="M154.75,21.56v-.93c0-.24.05-.51-.34-.5-.22,0-.23-.16-.22-.32s.05-.27.22-.26c.4,0,.34-.25.33-.49s0-.38.3-.39.4.13.36.4c-.08.45.16.52.53.48.2,0,.41,0,.41.28s-.18.33-.39.3c-.5-.07-.58.18-.55.61s0,1,0,1.52.09.81.66.74c.17,0,.31,0,.32.2a.32.32,0,0,1-.27.38,1,1,0,0,1-1.35-.9,10.46,10.46,0,0,1,0-1.12Z"/><path class="cls-7" d="M93.65,21.47v-.93c0-.21,0-.41-.29-.41a.22.22,0,0,1-.24-.24c0-.14,0-.32.16-.32.42,0,.39-.26.37-.52s.09-.39.38-.38.33.16.3.38c-.07.43.12.55.52.5.21,0,.4,0,.4.3s-.2.31-.41.28c-.48-.06-.54.2-.52.59s0,1.06,0,1.59.12.75.64.69c.17,0,.31,0,.33.21s-.06.31-.28.37a1,1,0,0,1-1.33-.85,10.59,10.59,0,0,1,0-1.26Z"/><path class="cls-9" d="M134.43,20a1.9,1.9,0,0,1,.84-.46c.14,0,.34-.12.37.13s.11.44-.2.47c-1.06.1-1.09.85-1.09,1.64,0,.44,0,.88,0,1.33,0,.23,0,.43-.33.43s-.35-.16-.35-.42c0-1,0-2,0-3,0-.21-.14-.51.24-.59S134.37,19.71,134.43,20Z"/><path class="cls-7" d="M90.81,21.53c0-.53,0-1.07,0-1.6,0-.14,0-.34.17-.36s.44-.12.49.17.16.22.32.08a1.09,1.09,0,0,1,.59-.28c.14,0,.34-.11.36.13s.11.44-.19.47c-1,.1-1.1.79-1.07,1.58,0,.49,0,1,0,1.46,0,.26-.09.35-.35.36s-.35-.1-.34-.35C90.82,22.63,90.81,22.08,90.81,21.53Z"/><path class="cls-8" d="M160.86,20.59V18.21c0-.24-.09-.54.36-.53s.32.27.32.5c0,1.63,0,3.26,0,4.89,0,.25,0,.48-.36.47s-.33-.27-.33-.5Z"/><path class="cls-9" d="M147,21.56c0-.55,0-1.1,0-1.65,0-.26.08-.36.34-.36s.35.1.35.35c0,1.11,0,2.21,0,3.32,0,.29-.15.32-.38.32s-.32-.09-.31-.32c0-.55,0-1.1,0-1.66Z"/><path class="cls-9" d="M153,21.53V19.88c0-.21,0-.33.29-.33s.37.05.37.32c0,1.11,0,2.21,0,3.31,0,.24-.07.35-.34.36s-.33-.11-.33-.36C153,22.63,153,22.08,153,21.53Z"/><path class="cls-6" d="M130.86,2.42a1,1,0,0,1-.93-.93.94.94,0,1,1,1.88-.06A1,1,0,0,1,130.86,2.42Zm0-1.63c-.23.09-.65.09-.64.53s.18.77.63.79a.76.76,0,0,0,.74-.64C131.61,1.12,131.34.82,130.84.79Z"/><path class="cls-9" d="M153.32,17.91a.42.42,0,0,1,.42.43.38.38,0,0,1-.4.43.39.39,0,0,1-.44-.45A.41.41,0,0,1,153.32,17.91Z"/><path class="cls-9" d="M147.27,17.92c.26,0,.43.14.45.4a.39.39,0,0,1-.45.45.37.37,0,0,1-.39-.43A.39.39,0,0,1,147.27,17.92Z"/><path class="cls-5" d="M130.84.79c.5,0,.77.33.73.68a.76.76,0,0,1-.74.64c-.45,0-.63-.4-.63-.79S130.61.88,130.84.79Z"/></g></g></svg>