<?xml version="1.0" encoding="UTF-8" standalone="no"?><svg xmlns="http://www.w3.org/2000/svg" viewBox="0 0 34.16 29"><defs><style>.cls-1{fill:#d2d1c3;}.cls-2{fill:#5978ac;}.cls-3{fill:#faf8e6;}.cls-4{fill:#fefefe;}.cls-5{fill:#4a689c;}.cls-6{fill:#262323;}.cls-7{fill:#b2b4aa;}.cls-8{fill:#e3decc;}.cls-9{fill:#5d6a83;}.cls-10{fill:#abada3;}.cls-11{fill:#889ab6;}.cls-12{fill:#9a988e;}</style></defs><g id="Layer_2" data-name="Layer 2"><g id="Layer_1-2" data-name="Layer 1"><path class="cls-1" d="M17.36,19.21l-4.54-.06-.33-.33q0-5.23,0-10.49l3.78-.05c.45,0,1,.13,1.12-.54,2.1-.35,4.27-.33,6.29-1.14a11.3,11.3,0,0,0,7.4-4.89c.85.19.56.89.56,1.39,0,6.83,0,13.65,0,20.48a2.92,2.92,0,0,1-.34,1.64c-2.09-3.68-5.63-4.83-9.47-5.46l-2.39-.39C18.82,18.54,18.1,18.7,17.36,19.21Z"/><path class="cls-2" d="M12,19.16c-2.89,0-5.79.06-8.68.06-1,0-3.24-2.35-3.27-3.49,0-1.47,0-2.94,0-4.41,0-1.12,2.44-3.6,3.56-3.6,2.79,0,5.59,0,8.39,0l.25.21V8.3c-.41.44-.25,1-.25,1.49C12,12.91,12,16,12,19.16Z"/><path class="cls-3" d="M31.31,25.22a2.92,2.92,0,0,0,.34-1.64c0-6.83,0-13.65,0-20.48,0-.5.29-1.2-.56-1.39L31.46.8c2.2-.47,2.2-.46,2.2,1.82V16.41c0,3,0,6.07,0,9.1,0,.36.1.82-.38,1s-.93.22-1.29-.27a3.08,3.08,0,0,0-.5-.45Z"/><path class="cls-1" d="M12.53,20l.29.84a12.6,12.6,0,0,0,.42,2.88c.1,1,.21,2.08.3,3.12s.06,1.73-1.08,2c-1.47.37-2.85,0-3.29-.9-.94-2-1.82-4.07-2.73-6.11l.09-.43a9.29,9.29,0,0,0,3.78-1H5.78c-.47-.72.07-.65.51-.64l5.65,0C12,20.21,12.17,20.4,12.53,20Z"/><path class="cls-4" d="M31.46.8C31.8-.54,32.87.23,33.58.16s.52.75.52,1.18c0,8.41,0,16.81,0,25.21l-.17.29a2.32,2.32,0,0,1-2.4,0l-.07-1.09a3.08,3.08,0,0,1,.5.45c.36.49.84.39,1.29.27s.38-.6.38-1c0-3,0-6.07,0-9.1V2.62C33.66.34,33.66.33,31.46.8Z"/><path class="cls-5" d="M12,19.16c0-3.12,0-6.25,0-9.37,0-.5-.16-1,.25-1.49l.19,0h.07q0,5.25,0,10.49l0,.34Z"/><path class="cls-6" d="M13.24,23.72a12.6,12.6,0,0,1-.42-2.88h.4a2.05,2.05,0,0,1,.16.38c.06.52.23,1,.86.7s.32-.74.13-1.15-.34-.65-.51-1c1,.06,1.26.94,1.42,1.65s-.49,1-1.15,1.13S13.82,23.56,13.24,23.72Z"/><path class="cls-7" d="M5.78,20.39h4.53a9.29,9.29,0,0,1-3.78,1A.54.54,0,0,0,6,20.84Z"/><path class="cls-8" d="M17.38,7.74c-.14.67-.67.53-1.12.54l-3.78.05h-.07c.05-.19.09-.38.14-.58Z"/><path class="cls-9" d="M13.86,19.8c.17.33.35.65.51,1s.53.89-.13,1.15-.8-.18-.86-.7a2.05,2.05,0,0,0-.16-.38C13.3,20.42,12.69,19.57,13.86,19.8Z"/><path class="cls-8" d="M17.36,19.21c.74-.51,1.46-.67,2.09.16Z"/><path class="cls-10" d="M6,20.84a.54.54,0,0,1,.55.57l-.09.43C6.28,21.51,6.13,21.18,6,20.84Z"/><path class="cls-10" d="M12.53,20c-.36.4-.51.21-.59-.21C12.19,19.73,12.46,19.57,12.53,20Z"/><path class="cls-11" d="M12.55,7.76c-.05.2-.09.39-.14.58l-.19,0V8a1,1,0,0,0,0-.24Z"/><path class="cls-5" d="M12.25,7.74a1,1,0,0,1,0,.24L12,7.77Z"/><path class="cls-8" d="M12.46,19.16l0-.34.33.33Z"/><path class="cls-12" d="M34,26.84l.17-.29,0,.29Z"/></g></g></svg>