<?xml version="1.0" encoding="UTF-8" standalone="no"?><svg xmlns="http://www.w3.org/2000/svg" viewBox="0 0 80 17.26"><defs><style>.cls-1{fill:#797979;}.cls-2{fill:#7d7d7d;}.cls-3{fill:#7a7a7a;}.cls-4{fill:#737373;}.cls-5{fill:#757575;}.cls-6{fill:#f05530;}.cls-7{fill:#87ba15;}.cls-8{fill:#0fa4ec;}.cls-9{fill:#fcb913;}</style></defs><g id="Layer_2" data-name="Layer 2"><g id="Layer_1-2" data-name="Layer 1"><path class="cls-1" d="M30.46,7.49c-.63,1.55-1.22,3.13-1.92,4.65-.29.65-.3,1.65-1.3,1.7s-1-1-1.28-1.65A24.21,24.21,0,0,0,23.43,7.3c0,1.71,0,3.42,0,5.13,0,.69.06,1.47-1,1.44s-.78-.79-.78-1.36c0-2.53,0-5.06,0-7.59,0-.61-.26-1.47.84-1.54.95-.06,1.8-.09,2.22,1.08.7,2,1.52,3.94,2.46,6.33.78-1.7,1.37-3,1.95-4.25l1.3.46Z"/><path class="cls-2" d="M70.08,8c.76-1.28,1.84-2.35,2.26-3.88a2.17,2.17,0,0,1,2.17-1.41c.47,0,1-.05,1.13.51s0,.9-.58,1a1.12,1.12,0,0,0-1,1.47c.08.48.51.52.88.54.63,0,1.23,0,1.31-.87s.66-1,1.3-1c.85,0,.7.65.74,1.14.06.74.68.65,1.12.9.77.43.86.92,0,1.48a2.83,2.83,0,0,0,0,4.56c.36.24.61.4.55.84s-.34.61-.78.66c-1.25.13-2.35-.06-2.64-1.52a13.79,13.79,0,0,1-.19-2.49c0-2.29-.25-2.42-2.54-1.55a3,3,0,0,1-1.82-.45c-.6.08-1.29-.41-1.8.26Z"/><path class="cls-1" d="M70.08,8l0,.17c1,2.63.41,4.68-1.67,5.56s-4.2.06-5.31-2.31c-.21-.45-.35-.84-1-.55l0,.07c.86-.28.74-1.09.86-1.71a3.33,3.33,0,0,1,3-3C67.7,6,69.26,6.25,70.08,8Zm-1.3,1.86c-.09-.95-.33-2-1.88-2.07s-1.94,1.12-2,2.43.58,2.27,2,2.24S68.77,11.39,68.78,9.87Z"/><path class="cls-3" d="M48.85,7.64c.94.24,1.26-.72,1.92-1,1.76-.8,3.49-.84,4.82.69a3.84,3.84,0,0,1,.29,5c-1.19,1.9-2.92,1.93-4.62,1.45s-2.5-2.08-2.37-4c0-.73.54-1.48,0-2.21Zm1.9,2.5c.14,1.16.42,2.39,2,2.35,1.46,0,1.89-1.17,1.91-2.37s-.48-2.35-1.92-2.33S50.73,8.64,50.75,10.14Z"/><path class="cls-4" d="M30.44,7l-1.3-.46a21.17,21.17,0,0,0,.79-2.14c.3-1.15,1.18-1,2-1,1,0,1,.78,1,1.47,0,2.59,0,5.17,0,7.76,0,.64,0,1.24-.91,1.22s-1-.46-1-1.17c0-1.75,0-3.5-.07-5.25.49-.35.7-.85.08-1.15C30.52,6.09,30.53,6.68,30.44,7Z"/><path class="cls-1" d="M43,13.73c-1.94.38-3.58.47-4.81-1.12a4,4,0,0,1-.41-4.14,3.89,3.89,0,0,1,4.52-2.21c.67.19,1.15.46,1,1.24-.15,1-.76.44-1.22.35a2,2,0,0,0-2.65,1.77c-.26,1.51.27,2.62,1.92,2.77C42.18,12.47,42.56,12.86,43,13.73Z"/><path class="cls-4" d="M62.23,11l0-.07c.48,2-.92,2.77-2.39,3-.91.16-2.63.75-2.61-1.36a1.78,1.78,0,0,1,.46,0c.91.22,2,1.05,2.59-.27.62-1.48-1.11-1.27-1.72-1.88-.1-.1-.28-.11-.42-.17C56.77,8.58,57,7.31,59,6.46a1.18,1.18,0,0,0,.66,1.11c-.57.82-.27,1.38.56,1.75A3.57,3.57,0,0,1,62.23,11Z"/><path class="cls-5" d="M48.85,7.64l0-.06c-2.62.38-2.73,2.24-2.67,4.32,0,.68.57,1.9-.79,1.94s-.79-1.18-.89-1.88a15.57,15.57,0,0,1,0-2.05c0-3.72,0-3.71,3.48-3.69C49.11,6.22,48.9,7,48.85,7.64Z"/><path class="cls-2" d="M34.43,9.94c0-.84,0-1.68,0-2.52s.26-1.17,1.07-1.13.87.48.86,1.09c0,1.76,0,3.52,0,5.28,0,.65-.09,1.21-1,1.23s-1-.53-1-1.19C34.43,11.78,34.42,10.86,34.43,9.94Z"/><path class="cls-1" d="M71.92,7.92a3,3,0,0,0,1.82.45v2.78H72Z"/><path class="cls-4" d="M36.42,4.31a.94.94,0,0,1-1.1.87c-.55-.06-1-.33-1-1a.92.92,0,0,1,1.08-.88A1,1,0,0,1,36.42,4.31Z"/><path class="cls-2" d="M72,11.14h1.71l0,1.37H72.06Z"/><path class="cls-1" d="M72.06,12.53h1.67c.14.7.24,1.35-.81,1.36S71.93,13.25,72.06,12.53Z"/><path class="cls-1" d="M60.93,6.3c1,.07,1.31.76,1,1.52-.25.52-.74,0-1.06-.26Z"/><path class="cls-4" d="M60.93,6.3l-.1,1.26-.89,0V6.23Z"/><path class="cls-1" d="M60,6.23V7.51l-.13.08-.15,0A1.18,1.18,0,0,1,59,6.46Z"/><path class="cls-6" d="M5.09.16c-.15.23-.3.24-.45,0Z"/><path class="cls-6" d="M1.86.17C1.7.4,1.55.39,1.4.16Z"/><rect class="cls-6" width="8.3" height="8.3"/><rect class="cls-7" x="9.68" width="8.3" height="8.3"/><rect class="cls-8" y="8.96" width="8.3" height="8.3"/><rect class="cls-9" x="9.68" y="8.96" width="8.3" height="8.3"/></g></g></svg>