<?xml version="1.0" encoding="UTF-8" standalone="no"?><svg xmlns="http://www.w3.org/2000/svg" viewBox="0 0 70 56.13"><defs><style>.cls-1{fill:#4fb7d5;}.cls-2{fill:#44adcd;}.cls-3{fill:#5cc0de;}.cls-4{fill:#54bad9;}.cls-5{fill:#63c5e2;}.cls-6{fill:#036dc2;}.cls-7{fill:#71cfeb;}.cls-8{fill:#77d3ef;}.cls-9{fill:#0763b1;}.cls-10{fill:#69c9e6;}.cls-11{fill:#095eaa;}.cls-12{fill:#59bddc;}.cls-13{fill:#0279d3;}.cls-14{fill:#09579d;}.cls-15{fill:#195186;}</style></defs><g id="Layer_2" data-name="Layer 2"><g id="Layer_1-2" data-name="Layer 1"><path class="cls-1" d="M38.64,56q-9.63.15-19.28,0c0-.64.45-.9.9-1.21L34.2,45.21c.47-.33.95-.65,1-1.28l6.43,0c1.93,0,2.1-.17,2.1-2,0-.93,0-1.86,0-2.79a3.29,3.29,0,0,0,2-.89q11.5-7.93,23-15.9a2.71,2.71,0,0,1,1.2-.56v8.79a11.19,11.19,0,0,0-2.78,1.66c-1.5.88-2.69,2.36-4.59,2.52-1.68-1.46-1.76-1.46-3.34.12C58,36,56.84,37.16,55.67,38.33c-1.56,1.56-1.57,1.57-3.16.06-.52-.49-1.12-.88-1.69-.33s-1.8,1.1-1.65,2.36a.92.92,0,0,0,.28.52c1.36,1.27,2.37,2.86,3.84,4-.08.61-.59.83-1,1.12Q45.83,50.56,39.39,55C39,55.27,38.62,55.5,38.64,56Z"/><path class="cls-2" d="M62.53,34.69c1.9-.16,3.09-1.64,4.59-2.52a11.19,11.19,0,0,1,2.78-1.66c0,4.68,0,9.35.06,14,0,2.6,0,5.21,0,7.81a3.46,3.46,0,0,1-3.63,3.73c-9.15,0-18.3,0-27.45,0a1,1,0,0,1-.24,0c0-.53.37-.76.75-1q6.45-4.46,12.88-8.93c.43-.29.94-.51,1-1.12.45.07.74.73,1.36.08,2.53-2.64,5.14-5.21,7.72-7.81C63.48,36.11,63.49,36,62.53,34.69Z"/><path class="cls-3" d="M69.88,9a8.67,8.67,0,0,1,0,2.44,36,36,0,0,0-4.47,2.86c-1.25.78-2.27,2-3.9,2.06a1.93,1.93,0,0,0-1.94.69c-1.38,1.44-2.81,2.83-4.22,4.23s-1.3,1.31-2.64,0c-.47-.46-.9-1-1.67-.73a3.68,3.68,0,0,0-1.9,2.85,3.4,3.4,0,0,1-1.22,1.16C42.23,28.5,36.5,32.42,30.82,36.42c-.86.61-2,1-2.42,2.11H20.09c.1-.6.6-.83,1-1.13C25.76,34.2,30.4,31,35,27.78c.54-.37,1.26-.62,1.43-1.4l5.85,0c.5,0,1,0,1.3-.49.41-.68.14-4.09-.39-4.8a13,13,0,0,0,2.56-1.39q6.79-4.72,13.63-9.42a1.85,1.85,0,0,0,1-1.18Z"/><path class="cls-4" d="M61.53,16.38c1.63-.05,2.65-1.28,3.9-2.06a36,36,0,0,1,4.47-2.86c.11,3.42.1,6.84,0,10.26a2.71,2.71,0,0,0-1.2.56q-11.49,7.95-23,15.9a3.29,3.29,0,0,1-2,.89,2.06,2.06,0,0,0-1.68-.51c-2.68,0-5.37,0-8.05,0,.06-.53.52-.69.88-.94,2.76-1.94,5.49-3.91,8.3-5.77s5.58-4.07,8.59-5.79l1.5,1.42c.54.51,1,.66,1.61,0,2.13-2.22,4.32-4.39,6.51-6.55C64.13,18.21,63.59,18.68,61.53,16.38Z"/><path class="cls-5" d="M36.45,26.38c-.17.78-.89,1-1.43,1.4C30.4,31,25.76,34.2,21.12,37.4c-.43.3-.93.53-1,1.13l-9.85,0c-.68,0-1.42,0-1.47.88A9.32,9.32,0,0,0,9,43.65L2.21,48.28a3.77,3.77,0,0,1-2.13,1C0,46.88,0,44.43.08,42a5.48,5.48,0,0,0,1-.43L21.23,27.64c.47-.33.95-.63,1.06-1.26Z"/><path class="cls-6" d="M9.84.1C11.94.08,14,0,16.15,0L35,.1c0,.4-.08.8-.14,1.19-.39,2.5-1.17,4.93-1.32,7.46H8.13Z"/><path class="cls-7" d="M.08,33.44C0,30.51,0,27.58.08,24.65a3.87,3.87,0,0,0,1.7-.89c6-4.11,12-8.2,17.89-12.38,1-.7,2.27-1.11,2.86-2.33h9.28c-.12.68-.67,1-1.17,1.32-4.08,2.8-8.18,5.57-12.2,8.43-.89.63-2.1,1-2.49,2.19l-3.77,0c-3.78,0-3.46-.38-3.5,3.59,0,1.18.32,1.91,1.65,1.76,0,.48-.42.66-.75.89L1.32,33A2.06,2.06,0,0,1,.08,33.44Z"/><path class="cls-8" d="M22.53,9.05c-.59,1.22-1.87,1.63-2.86,2.33C13.74,15.56,7.76,19.65,1.78,23.76a3.87,3.87,0,0,1-1.7.89C0,19.44,0,14.22.08,9Z"/><path class="cls-9" d="M33.52,8.75c.15-2.53.93-5,1.32-7.46C34.9.9,34.93.5,35,.1,40.68,0,46.37,0,52.07.1c0,.4-.08.8-.14,1.19-.39,2.5-1.18,4.93-1.32,7.48Z"/><path class="cls-10" d="M.08,33.44A2.06,2.06,0,0,0,1.32,33l8.26-5.75c.33-.23.71-.41.75-.89h12c-.11.63-.59.93-1.06,1.26L1.07,41.56a5.48,5.48,0,0,1-1,.43C0,39.14,0,36.29.08,33.44Z"/><path class="cls-4" d="M35.24,43.93c-.09.63-.57,1-1,1.28L20.26,54.83c-.45.31-.91.57-.9,1.21-2.84.09-5.69.1-8.54,0,.08-.89.79-1.27,1.42-1.7,4.08-2.81,8.18-5.59,12.23-8.45.79-.56,1.86-.88,2.22-2Z"/><path class="cls-11" d="M50.61,8.77c.14-2.55.93-5,1.32-7.48C52,.9,52,.5,52.07.1c4-.12,8-.09,12,0,0,.48-.06,1-.14,1.43C63.5,4,62.8,6.32,62.57,8.77Z"/><path class="cls-3" d="M.08,49.32a3.77,3.77,0,0,0,2.13-1L9,43.65a6.61,6.61,0,0,0,2,.25c2.54,0,5.08,0,7.62,0-.09.69-.63,1-1.13,1.35-4.09,2.8-8.2,5.58-12.24,8.45-.89.63-2.1,1-2.5,2.19A3.21,3.21,0,0,1,.05,52.83C0,51.66.06,50.49.08,49.32Z"/><path class="cls-12" d="M2.76,55.91c.4-1.22,1.61-1.56,2.5-2.19,4-2.87,8.15-5.65,12.24-8.45.5-.35,1-.66,1.13-1.35h8.06c-.36,1.07-1.43,1.39-2.22,2-4,2.86-8.15,5.64-12.23,8.45-.63.43-1.34.81-1.42,1.7A52.89,52.89,0,0,1,2.76,55.91Z"/><path class="cls-13" d="M9.84.1,8.13,8.74l-8,0c0-1.7-.07-3.41,0-5.11A3.39,3.39,0,0,1,3.52.08C5.62,0,7.73.09,9.84.1Z"/><path class="cls-14" d="M62.57,8.77c.23-2.45.93-4.81,1.32-7.24C64,1.06,64,.58,64,.1l.24,0c3.49-.25,6,.25,5.7,5.33-.08,1.13-.06,2.27-.09,3.41Z"/><path class="cls-2" d="M62.57,8.77l7.31,0a.24.24,0,0,1,0,.23l-9.51,0H22.53L.08,9V8.77l8.05,0H33.52l17.09,0Z"/><path class="cls-13" d="M26.69,43.93H18.63c-2.54,0-5.08,0-7.62,0a6.61,6.61,0,0,1-2-.25,9.32,9.32,0,0,1-.21-4.2c.05-.87.79-.88,1.47-.88l9.85,0H34c2.68,0,5.37,0,8.05,0a2.06,2.06,0,0,1,1.68.51c0,.93,0,1.86,0,2.79,0,1.88-.17,2-2.1,2l-6.43,0Z"/><path class="cls-15" d="M62.53,34.69c1,1.26.95,1.42-.16,2.55-2.58,2.6-5.19,5.17-7.72,7.81-.62.65-.91,0-1.36-.08-1.47-1.17-2.48-2.76-3.84-4a.92.92,0,0,1-.28-.52c-.15-1.26,1-1.7,1.65-2.36s1.17-.16,1.69.33c1.59,1.51,1.6,1.5,3.16-.06C56.84,37.16,58,36,59.19,34.81,60.77,33.23,60.85,33.23,62.53,34.69Z"/><path class="cls-13" d="M22.29,26.38h-12c-1.33.15-1.66-.58-1.65-1.76,0-4-.28-3.58,3.5-3.59L16,21H33.52l9.69.07c.53.71.8,4.12.39,4.8-.31.5-.8.49-1.3.49l-5.85,0Z"/><path class="cls-5" d="M43.21,21.05,33.52,21c.13-.73.73-1,1.26-1.4,3.84-2.63,7.7-5.23,11.49-7.94,1.08-.78,2.49-1.23,3.11-2.58h11a1.85,1.85,0,0,1-1,1.18Q52.58,15,45.77,19.66A13,13,0,0,1,43.21,21.05Z"/><path class="cls-12" d="M34,38.53H28.4c.4-1.15,1.56-1.5,2.42-2.11,5.68-4,11.41-7.92,17.12-11.86a3.4,3.4,0,0,0,1.22-1.16c1,.75,1.5,2,2.62,2.63-3,1.72-5.71,3.88-8.59,5.79s-5.54,3.83-8.3,5.77C34.53,37.84,34.07,38,34,38.53Z"/><path class="cls-15" d="M51.78,26c-1.12-.64-1.62-1.88-2.62-2.63a3.68,3.68,0,0,1,1.9-2.85c.77-.25,1.2.27,1.67.73,1.34,1.33,1.34,1.33,2.64,0s2.84-2.79,4.22-4.23a1.93,1.93,0,0,1,1.94-.69c2.06,2.3,2.6,1.83-.13,4.51-2.19,2.16-4.38,4.33-6.51,6.55-.64.67-1.07.52-1.61,0Z"/><path class="cls-10" d="M49.38,9.06c-.62,1.35-2,1.8-3.11,2.58-3.79,2.71-7.65,5.31-11.49,7.94-.53.37-1.13.67-1.26,1.4H16c.39-1.22,1.6-1.56,2.49-2.19,4-2.86,8.12-5.63,12.2-8.43.5-.34,1.05-.64,1.17-1.32Z"/></g></g></svg>