<?xml version="1.0" encoding="UTF-8" standalone="no"?><svg xmlns="http://www.w3.org/2000/svg" viewBox="0 0 80 25.24"><defs><style>.cls-1{fill:#4687f3;}.cls-2{fill:#fabd0b;}.cls-3{fill:#e94739;}.cls-4{fill:#e9483a;}.cls-5{fill:#3fac5c;}</style></defs><g id="Layer_2" data-name="Layer 2"><g id="Layer_1-2" data-name="Layer 1"><path class="cls-1" d="M14.56,8.94c1.26,0,2.52,0,3.77,0,.61,0,.89.18.94.8.5,6.11-3.64,9.78-8.34,10-5.39.26-9.7-3-10.74-8A10,10,0,0,1,9.09,0a9.78,9.78,0,0,1,7,2c.61.48.89.87.11,1.41a.46.46,0,0,0-.07.07C15,4.59,15,4.59,13.73,3.79a7,7,0,0,0-9.15,1.6A7.3,7.3,0,0,0,5,14.89a7.11,7.11,0,0,0,9.19.82,5.44,5.44,0,0,0,2-3.06c.18-.68.08-1-.69-.93-1.53,0-3.07,0-4.6,0-.81,0-1-.25-1-1,.07-2.14-.24-1.77,1.75-1.8C12.68,8.92,13.62,8.94,14.56,8.94Z"/><path class="cls-1" d="M58.49,18.34c-2.92,1.85-5.72,1.5-7.76-.89a6.71,6.71,0,0,1,.13-8.74,5.48,5.48,0,0,1,7.53-.8c.24-.68,2.16-1.21,2.76-.76.2.15.18.37.17.58,0,4,.17,8-.1,12a5.52,5.52,0,0,1-4.31,5.29A6.32,6.32,0,0,1,50,22.35c-.47-.74-.37-1.11.47-1.33a5,5,0,0,0,1-.4.59.59,0,0,1,.87.21c1.29,1.73,2.7,2.22,4.3,1.6S58.67,20.51,58.49,18.34Zm.27-5.19c0-2.27-1.74-4.06-3.67-3.82A3.72,3.72,0,0,0,52,13.54a3.38,3.38,0,1,0,6.73-.39Z"/><path class="cls-2" d="M41.52,19.53a6.3,6.3,0,0,1-6.41-6.35,6.43,6.43,0,0,1,12.85,0A6.26,6.26,0,0,1,41.52,19.53ZM38,13.1a3.57,3.57,0,1,0,7.12.16,3.72,3.72,0,0,0-3.49-3.95A3.67,3.67,0,0,0,38,13.1Z"/><path class="cls-3" d="M27.25,19.53a6.23,6.23,0,0,1-6.34-6.38,6.24,6.24,0,0,1,6.45-6.38,6.31,6.31,0,0,1,6.38,6.39A6.31,6.31,0,0,1,27.25,19.53Zm3.61-6.41a3.65,3.65,0,0,0-3.61-3.8,3.71,3.71,0,0,0-3.51,3.92,3.57,3.57,0,1,0,7.12-.12Z"/><path class="cls-4" d="M68.36,13.92c0-5.6,4.69-8.66,8.69-6.47a6.61,6.61,0,0,1,2.82,3.38c.26.59.15.85-.45,1.08-2.3.91-4.57,1.91-6.88,2.8-.92.36-.82.71-.26,1.3a3.37,3.37,0,0,0,4.8,0c.69-.75,1.11-.59,1.79-.11,1.29.93,1.33.92.14,2A6.16,6.16,0,0,1,72.09,19,5.73,5.73,0,0,1,68.36,13.92Zm2.88-1.82c-.15.75.1.76.59.55,1.41-.6,2.83-1.16,4.24-1.75.84-.35.88-.61.12-1.15a2.87,2.87,0,0,0-3-.26A3.29,3.29,0,0,0,71.24,12.1Z"/><path class="cls-5" d="M66.23,10c0,2.86,0,5.73,0,8.59,0,.79-.22,1-1,1-1.86,0-1.86,0-1.86-1.88,0-5.45,0-10.89,0-16.34,0-.92.22-1.2,1.16-1.16,1.7.07,1.71,0,1.71,1.74Z"/></g></g></svg>