<?xml version="1.0" encoding="UTF-8" standalone="no"?><svg xmlns="http://www.w3.org/2000/svg" viewBox="0 0 26.18 29"><defs><style>.cls-1{fill:#f8ac00;}.cls-2{fill:#e37400;}</style></defs><g id="Layer_2" data-name="Layer 2"><g id="Layer_1-2" data-name="Layer 1"><path class="cls-1" d="M26.18,14.42q0,5.43,0,10.84a3.56,3.56,0,0,1-7,1.21A3.56,3.56,0,0,1,19,25.34V3.67A3.72,3.72,0,0,1,22.26,0a3.62,3.62,0,0,1,3.82,2.65,3.32,3.32,0,0,1,.1.77C26.17,7.1,26.18,10.76,26.18,14.42Z"/><path class="cls-2" d="M16.63,20.05c0,1.78,0,3.56,0,5.33a3.65,3.65,0,0,1-2.59,3.46,3.3,3.3,0,0,1-4.11-2,5.91,5.91,0,0,1-.45-2.31c0-3.29,0-6.58,0-9.87A3.73,3.73,0,0,1,12.71,11a3.26,3.26,0,0,1,2.77.95,3.59,3.59,0,0,1,1.15,2.71Z"/><path class="cls-2" d="M0,25.36a3.54,3.54,0,0,1,3.54-3.52A3.57,3.57,0,1,1,0,25.36Z"/></g></g></svg>