<?xml version="1.0" encoding="UTF-8" standalone="no"?><svg xmlns="http://www.w3.org/2000/svg" viewBox="0 0 80 29.63"><defs><style>.cls-1{fill:#1991fc;}.cls-2{fill:#1991fd;}.cls-3{fill:#2693f4;}.cls-4{fill:#1890fd;}</style></defs><g id="Layer_2" data-name="Layer 2"><g id="Layer_1-2" data-name="Layer 1"><path class="cls-1" d="M58.23,17.19s0,.1.06.13a.84.84,0,0,0,.05.17,16.57,16.57,0,0,1,.83,2.3.12.12,0,0,0,.07.09.43.43,0,0,1,0-.07c.26-.88.62-1.71,1-2.56q1-2.36,1.91-4.72c.42-1,.87-2.07,1.24-3.14a4.05,4.05,0,0,1,1.26-1.8,6.26,6.26,0,0,1,3.08-1.32,11.41,11.41,0,0,1,5.68.41c.09,0,.14.06.14.16,0,.89,0,1.77,0,2.65h0a10.23,10.23,0,0,0-2.06-1.3,4.38,4.38,0,0,0-1.63-.47h-.09a4,4,0,0,0-1.47,0h-.09a1,1,0,0,0-.49.11h0l0,0a1.32,1.32,0,0,0-.44.13,2.56,2.56,0,0,0-1.35,1.12h0l0,.05h0a3.2,3.2,0,0,0-.37,2.12A1.73,1.73,0,0,0,66,12.34a6.11,6.11,0,0,0,1.85,1.15h0a14.83,14.83,0,0,0,1.6.79l.08,0c.42.23.86.41,1.3.6h0a16.8,16.8,0,0,1,2,1.2l0,.05a.18.18,0,0,0,.12.09.14.14,0,0,0,.1.08l.53.54h0a.11.11,0,0,0,0,.06A4.21,4.21,0,0,1,74.53,20a4.84,4.84,0,0,1-2.16,3.91,9.42,9.42,0,0,1-1.59.79h0l-.07,0h-.06l-1.51.35H69a13.64,13.64,0,0,1-1.57.08l-1.1,0H66.2a1.56,1.56,0,0,0-.48-.08h-.09c-.27-.06-.54-.11-.8-.19A5.88,5.88,0,0,1,62.74,24a.33.33,0,0,1-.15-.3c0-.93,0-1.85,0-2.78,0,0,0-.1,0-.14.26.23.52.46.8.69a6.61,6.61,0,0,0,1.29.93h0l.1.09a6.73,6.73,0,0,0,3.91,1,4.13,4.13,0,0,0,1.59-.35.08.08,0,0,0,.09,0,1.87,1.87,0,0,0,.73-.4h0l.14-.07a2.55,2.55,0,0,0,1-2,2.51,2.51,0,0,0-1.17-2.21v0a2.52,2.52,0,0,0-.73-.51h0a5,5,0,0,0-1-.55h0c0-.07-.12-.08-.18-.11L68,16.64l-1.78-.79h0a4.24,4.24,0,0,0-.72-.4h0l-.89-.66-.08-.07a4.37,4.37,0,0,1-1-1.43c-.09.05-.09.12-.12.18L61,19.23c-.21.52-.45,1-.63,1.56l0,.09a3,3,0,0,0-.3.71.1.1,0,0,0,0,.1.57.57,0,0,0-.08.13l-.84,2c-.27.68-.58,1.34-.83,2a.12.12,0,0,0,0,.1c-.31.66-.59,1.35-.86,2l0,.09a13,13,0,0,0-.57,1.27c-.08.17-.15.27-.37.26-.67,0-1.33,0-2,0-.31,0-.3,0-.17-.26.23-.46.51-.89.71-1.36h0a13.38,13.38,0,0,0,.9-1.77h0l0-.05,0-.07a3.36,3.36,0,0,0,.35-.68c.37-.8.76-1.59,1.09-2.41l0-.1a.37.37,0,0,0,.12-.26h0a.48.48,0,0,0,.06-.55c-.2-.43-.36-.88-.55-1.31s-.33-.87-.55-1.28c0,0,0,0,0,0a11.31,11.31,0,0,0-.58-1.39s0,0,0,0a3.27,3.27,0,0,0-.28-.67.09.09,0,0,0,0-.09.77.77,0,0,0-.17-.38v0a.05.05,0,0,0,0,0c-.2-.6-.47-1.18-.71-1.76a4,4,0,0,0-.34-.76v0a.05.05,0,0,0,0,0,11.79,11.79,0,0,0-.57-1.38.29.29,0,0,0-.07-.18s0,0,0-.05h0a11.46,11.46,0,0,0-.54-1.3l0-.08a9.87,9.87,0,0,0-.59-1.38.1.1,0,0,0,0-.09,3,3,0,0,0-3-2.22h-.13a2.21,2.21,0,0,0-.85,0,.5.5,0,0,0-.27,0,3.64,3.64,0,0,0-.8.15,2.82,2.82,0,0,0-2.17,3v.22a2.28,2.28,0,0,0,1.5,1.86.08.08,0,0,0,.08.06s.08.08.14.07,0,0,0,0a1.2,1.2,0,0,0,.45.23h0a.43.43,0,0,0,.26.13h0a6.68,6.68,0,0,0,1,.51l0,0s0,0,0,0l.07,0,.12.09c1,.47,2,.9,3,1.46h0l.12.09A6.35,6.35,0,0,1,53.55,17a5.45,5.45,0,0,1,.69,1.25l0,.09a.27.27,0,0,0,0,.09,5.44,5.44,0,0,1-.21,3.24c-.07.2-.16.38-.24.57h0A10.19,10.19,0,0,1,53,23.31h0l-.13.08a6.38,6.38,0,0,1-2.58,1.37c-.45.13-.91.2-1.36.31h-.09a7,7,0,0,0-.8.08l-.58,0a0,0,0,0,0,0,0h-.58l-.17,0a9.78,9.78,0,0,1-2-.31,8.13,8.13,0,0,1-1.78-.73h0V21.41l0-.42c.15.06.21.21.34.25l0,0a5.15,5.15,0,0,0,1,.76h0a5.83,5.83,0,0,0,2,1s.05,0,.09,0l.21.08a6.69,6.69,0,0,0,2.48.18,4.09,4.09,0,0,0,2.24-.89,2.43,2.43,0,0,0,.94-1.81,1.34,1.34,0,0,0,0-.4,1.56,1.56,0,0,0-.18-.79,3.93,3.93,0,0,0-1.82-1.74s0,0,0,0a.21.21,0,0,0-.15-.09l-.09,0a1.11,1.11,0,0,0-.38-.22,19.86,19.86,0,0,0-2.11-.93h0q-.68-.35-1.38-.63h0a2.09,2.09,0,0,0-.49-.26h0s-.08-.06-.13-.09a5.55,5.55,0,0,1-1.86-1.58l-.06,0A10.76,10.76,0,0,1,43,19.07c-.11.34-.25.66-.38,1h0c-.06,0-.07.07-.09.12a10.28,10.28,0,0,1-1.31,2c-.31.37-.67.68-1,1h0a.1.1,0,0,0-.1.08h0l-.05.05h0c-.22.16-.44.32-.67.47a7.76,7.76,0,0,1-4.13,1.38,9.3,9.3,0,0,1-1.9-.13h-.09c-.41-.14-.83-.22-1.22-.39l-1.05-.48,0,0-.06,0h0a.09.09,0,0,0-.08-.05h0L30.79,24h0a9,9,0,0,0-.74-.52h0a.31.31,0,0,0-.18-.14h0l-.85-.8h0a.7.7,0,0,0-.23-.25.32.32,0,0,0-.13-.15.29.29,0,0,0-.14-.17l0-.05a5.44,5.44,0,0,0-.45-.62l0,0s0-.05-.05-.07h0a.12.12,0,0,0-.08-.1h0a1.6,1.6,0,0,0-.28-.49s0,0,0,0a1.9,1.9,0,0,0-.21-.4h0a2.88,2.88,0,0,0-.28-.62.08.08,0,0,0,0-.09.93.93,0,0,0-.14-.36s0,0,0,0a2.18,2.18,0,0,0-.2-.61l-.32-1.71a.15.15,0,0,0,0-.13v-.26A11.29,11.29,0,0,1,26.65,13c.11-.47.3-.91.42-1.38h0c.07,0,.08-.12.11-.19A9.41,9.41,0,0,1,29.65,8l.2-.19H24.3c-.1,0-.2,0-.23.09s0,.17,0,.25V24.21c0,.08,0,.16,0,.23s-.14,0-.21,0c-.7,0-1.41,0-2.11,0-.22,0-.27-.07-.27-.28,0-5.38,0-10.77,0-16.15,0-.29,0-.29-.3-.26A11,11,0,0,0,20,7.8a.86.86,0,0,0-.32,0h-.13l-.39,0V6.25c0-.19.08-.23.25-.23h1.89c.15,0,.21,0,.22-.2a6.68,6.68,0,0,1,.58-2.23A4.92,4.92,0,0,1,25.77.66a8.86,8.86,0,0,1,2.3-.1,8.3,8.3,0,0,1,2.36.37.28.28,0,0,1,.22.32c0,.65,0,1.31,0,2v.14a.76.76,0,0,1,0,.15c0,.06,0,.13,0,.16s-.12,0-.17-.07l-.28-.24A4.37,4.37,0,0,0,27.81,2.3h-.09a5.18,5.18,0,0,0-1.47-.09,2.37,2.37,0,0,0-2.17,2v.09A4.31,4.31,0,0,0,24,5.81c0,.17.08.22.25.22,3.78,0,7.55.06,11.33-.09h.08a2.89,2.89,0,0,0,.58.08h.09a1.28,1.28,0,0,0,.28.07,8.35,8.35,0,0,1,1.82.63,9,9,0,0,1,4,4,3.7,3.7,0,0,0,.33.6V11a4.22,4.22,0,0,1,2-3.72,7.41,7.41,0,0,1,2.83-1c.48-.09,1-.1,1.43-.17h1.2a.92.92,0,0,0,.29,0,20.58,20.58,0,0,1,3.21.58.38.38,0,0,1,.27.22c.45,1.13.91,2.25,1.37,3.38Q56.5,13,57.64,15.78C57.83,16.26,58,16.74,58.23,17.19ZM29,15.19a10.61,10.61,0,0,0,.66,4,7.31,7.31,0,0,0,2.42,3.33,4.64,4.64,0,0,0,5.75,0A7.61,7.61,0,0,0,40.53,18a9.79,9.79,0,0,0,0-4.44A8,8,0,0,0,38,9.08a4.61,4.61,0,0,0-4.09-1.14,5.34,5.34,0,0,0-3.37,2.4A8.89,8.89,0,0,0,29,15.19Z"/><path class="cls-2" d="M8,6.56A.9.9,0,0,1,8,7V7L8,7l0,.31v.41h0a.36.36,0,0,0,0,.35l0,.34.11-.16.1-.12a6.11,6.11,0,0,1,3.5-2,7.86,7.86,0,0,1,3.48,0l.08,0a7.33,7.33,0,0,1,1.34.68c.33.23.61.51.92.76h0a.73.73,0,0,0,.05.09,4.53,4.53,0,0,1,1.17,2.39v.09a1.93,1.93,0,0,0,0,.24V24.2c0,.28,0,.28-.29.28h-2c-.29,0-.29,0-.29-.29V13.47c0-.77,0-1.54,0-2.31a2.75,2.75,0,0,0-.58-1.67h0a1.93,1.93,0,0,0-.7-.72h0c0-.06-.06-.08-.1-.11a4.09,4.09,0,0,0-2-.76A2.94,2.94,0,0,0,11.49,8h-.1s0,0,0,0h0A4.25,4.25,0,0,0,9.48,9h0l-.15.09a3.39,3.39,0,0,0-1.22,1.87.34.34,0,0,0,0,.35v.14a.18.18,0,0,0,0,.22c0,.09,0,.19,0,.28v6c0,1.23,0,2.46,0,3.69-.06.07,0,.15,0,.23,0,.79,0,1.59,0,2.38,0,.19-.05.24-.24.24h-2c-.07,0-.15,0-.21,0V6.3l0-.08.09,0c.68,0,1.36,0,2.05,0l.17,0c0,.06,0,.07.1.07H8C8.05,6.38,7.9,6.47,8,6.56Z"/><path class="cls-3" d="M80,2v.8a2.55,2.55,0,0,1-.67,1.34l0,0a.83.83,0,0,0-.24.21s0,0,0,0l-.67.34-.09,0a1.15,1.15,0,0,0-.36.07h-.61a.45.45,0,0,0-.23,0,.09.09,0,0,0-.1,0,4.37,4.37,0,0,1-1-.57.14.14,0,0,0-.09-.08,2.79,2.79,0,0,1-.7-1.56V2.2A2.9,2.9,0,0,1,75.79.78L75.87.7A2.8,2.8,0,0,1,77,.07a2.72,2.72,0,0,1,1.71.17h0a2.63,2.63,0,0,1,1.15,1.27A2.29,2.29,0,0,1,80,2ZM77.59,4.48a2.06,2.06,0,1,0,0-4.11,2.09,2.09,0,0,0-2.06,2.05A2.06,2.06,0,0,0,77.59,4.48Z"/><path class="cls-4" d="M2.86,24.46H.25c-.19,0-.25,0-.25-.24Q0,12.53,0,.85C0,.69,0,.64.21.64q1.2,0,2.4,0c.17,0,.23.06.22.21s0,.25,0,.38c0,6.68,0,13.36,0,20,0,1.05,0,2.11,0,3.17Z"/><path class="cls-3" d="M76.69,3.54a9.61,9.61,0,0,1,0-1.2,11.42,11.42,0,0,1,0-1.17,3.47,3.47,0,0,1,1.63.13h0s0,.05.09.05h0c0,.12.06.21.09.31s0,.43,0,.65a.33.33,0,0,1,0,.06c-.28.11-.23.29-.12.5s.18.42.28.63,0,.13-.08.14c-.36,0-.39,0-.52-.31l-.1-.27c-.19-.49-.19-.49-.72-.44a.33.33,0,0,0,0,.45,1.62,1.62,0,0,1,0,.44A.69.69,0,0,1,76.69,3.54Zm.82-1.35a2.43,2.43,0,0,0,.27,0,.3.3,0,0,0,.3-.29.3.3,0,0,0-.25-.34,1.54,1.54,0,0,0-.37,0c-.31,0-.31,0-.31.3S77.11,2.19,77.51,2.19Z"/></g></g></svg>