<?xml version="1.0" encoding="UTF-8" standalone="no"?><svg xmlns="http://www.w3.org/2000/svg" viewBox="0 0 212.6 80"><defs><style>.cls-1{fill:#4d4d4d;}.cls-2{fill:#94b8fe;}.cls-3{fill:#969696;}.cls-4{fill:#042060;}.cls-5{fill:#3c3c3c;}.cls-6{fill:#fff;}.cls-7{fill:#fbfbfc;}.cls-8{fill:#f9f9fa;}.cls-9{fill:#06225d;}</style></defs><g id="Layer_2" data-name="Layer 2"><g id="Layer_1-2" data-name="Layer 1"><path class="cls-1" d="M41.05,6.29C43.78,3.13,47.34,2.05,51.33,1a21.81,21.81,0,0,1,14.12.91c16.14,6.07,19.15,27.08,8.39,37.9a5.16,5.16,0,0,0-.64,1L69.34,44a19.47,19.47,0,0,0-2,.72c-7.6,3.59-15.11,3.49-22.52-.52a.35.35,0,0,0-.48-.24c.21-2.22,1.44-.47,1.85-.31,7.29,2.77,14.66,1.3,19.44-4,1.41-.53,1.24-2.36,2.49-3,6.46-9.48,1.74-22.77-9.35-26.4-5-1.65-9.86-.66-14.61,1.19C43,9.79,41.34,8.45,41.05,6.29Z"/><path class="cls-2" d="M69.34,44l3.86-3.21c1.45-.17,2,1,2.62,1.88C85.61,56.23,78.29,76,61.91,79.37c-7.44,1.53-14.76.43-20.77-5a2.55,2.55,0,0,0-1.87-1q-1.59-2.2-3.2-4.4C34.17,64.4,32.3,59.78,33,54.65c.47-3.65.75-7.4,3.77-10.11.19,1.62-.77,3-1,4.5-.88,6.11-.15,11.74,4.82,16.11l3.12,2.65a17,17,0,0,0,19.61-.17,17.71,17.71,0,0,0,7.36-18.56C70.26,47.35,69.18,45.81,69.34,44Z"/><path class="cls-3" d="M36.07,69q1.6,2.19,3.2,4.4c-2.38,4.08-6.6,5.38-10.69,6.08C14.18,82,3.47,73.76.71,61.88A22.67,22.67,0,0,1,4.27,42.81c.79-1.09,1.56-2.19,2.34-3.28a5.78,5.78,0,0,1,3.82-3.13c1.22-.54,2.43-1.1,3.66-1.6,7.39-3,14.56-3,21.38,1.6-1.64.6-2.94-.57-4.42-.84-6.55-1.21-12.29,0-16.84,5.23-.07,1.29-1.69,1.38-1.94,2.52a16.93,16.93,0,0,0,.29,20A17.77,17.77,0,0,0,32.5,69.88C33.66,69.51,34.73,68.69,36.07,69Z"/><path class="cls-4" d="M10.43,36.4a5.78,5.78,0,0,0-3.82,3.13c-3.7-2.81-5.39-6.9-6.1-11.17C-1.58,15.68,4.57,5.8,14.83,1.84,23-1.33,30.9-.45,38.09,4.86c.9.67,1.6,1.72,3,1.43.29,2.16,1.9,3.5,3.13,5.09,2.6,5.59,4.37,11.31,2.4,17.53a1.31,1.31,0,0,0-.35,1.35h0c-1.1-.54-.39-2-1.28-2.62-.13-4.84-1.2-9.31-5.17-12.58l-3.16-2.53c-.26-.77-1-1-1.59-1.33a18,18,0,0,0-19.56,2.33A17.66,17.66,0,0,0,10.12,33C10.49,34.08,11.72,35.16,10.43,36.4Z"/><path class="cls-5" d="M87.49,30.18v1.76C86.4,31.35,86.25,30.76,87.49,30.18Z"/><path class="cls-6" d="M87.43,65.45c0-6.31,4.07-9.54,10-8.11a4.92,4.92,0,0,1,3.1,2.47c.32.58,1.36,1.35.07,2-.8.43-1.33.12-1.76-.65-1.54-2.79-4-2.8-6.44-1.7S88.93,64,89.68,67.15c.63,2.75,2.14,4.45,5.15,4.44a4.28,4.28,0,0,0,4.07-2.38c.4-.75.64-2,1.93-1.21s.26,1.7-.16,2.43c-2.43,4.2-9.27,4.25-11.89.1A8.52,8.52,0,0,1,87.43,65.45Z"/><path class="cls-6" d="M135.23,19.14c-2.28.46-2.45-1.16-3.15-2S131,15,129.87,14.55c-2.42-1-3.15.13-3,2.48.06.74.63,2.21-.9,2.11-1.09-.07-.67-1.33-.7-2.1a36.38,36.38,0,0,1,0-4.67c.15-1.45-.92-3.69.72-4.21a9.27,9.27,0,0,1,7,.33c1.82,1,2.21,3.24.5,4.42-1.9,1.31-1.18,2-.22,3.16A29.1,29.1,0,0,1,135.23,19.14Zm-5.52-6.43c.95-.17,3,.44,2.95-1.73,0-1.94-1.84-1.59-3.12-1.57-1.1,0-2.56-.61-2.62,1.55C126.87,13,128.05,12.8,129.71,12.71Z"/><path class="cls-6" d="M144.21,15.54c0-1.93,0-3.87,0-5.81,0-.65-.33-1.67.81-1.62.85,0,.67.9.67,1.49,0,2.7,0,5.41,0,8.11,0,.62.06,1.31-.75,1.5s-1.15-.37-1.5-.89a46.2,46.2,0,0,0-5.24-6.77c0,2.11,0,4.22,0,6.33,0,.5.09,1.18-.59,1.26-.92.1-.87-.68-.87-1.27,0-2.71,0-5.41,0-8.12,0-.59-.22-1.35.5-1.66s1.31.28,1.73.91c1.49,2.23,3,4.45,4.5,6.67Z"/><path class="cls-6" d="M87.49,30.18H98.8V32c-4.5.22-4.5.22-4.5,4.69,0,2.69,0,5.39,0,8.08,0,.73,0,1.51-1,1.59-1.21.09-1.31-.71-1.31-1.61,0-2.7,0-5.39,0-8.08,0-4.47,0-4.47-4.48-4.72Z"/><path class="cls-6" d="M122.61,12.58c-1.26,2.16-3,1.3-4.42,1.32-1.66,0-1.83.78-1.83,2.11s.32,1.95,1.74,1.86c1.24-.09,2.49,0,3.74,0,.5,0,1.08-.07,1.19.65s-.46.82-1,.82c-2,0-4,0-5.93,0-1.18,0-1.34-.74-1.33-1.65,0-1.46,0-2.91,0-4.37,0-5.51,1.42-6.6,6.93-5.41.54.11,1.1.21,1,.86s-.74.59-1.22.6c-1.25,0-2.5.07-3.75,0-1.43-.07-1.35.84-1.4,1.83-.05,1.14.48,1.42,1.5,1.39C119.32,12.55,120.77,12.58,122.61,12.58Z"/><path class="cls-6" d="M143.14,35.47c-1.39,1.37-2.61.68-3.64,1s-3.15-1.12-3.25,1.51,1.95,1.36,3.11,1.67c1,.27,2.3-.59,3.07.79-.91,1.18-2.14.47-3.2.63-1.29.2-3-.61-3,1.89,0,2.72,1.78,1.87,3.17,2s2.66-.51,4.33,1.09a34.2,34.2,0,0,1-8.32.22c-1-.06-.79-1.07-.8-1.75,0-2.6,0-5.2,0-7.79,0-.87,0-1.76,1.21-1.71C138.09,35.12,140.44,34.66,143.14,35.47Z"/><path class="cls-6" d="M176.49,7.72c3.18,0,5.52,2.47,5.52,5.88s-2.36,5.91-5.54,5.87a5.48,5.48,0,0,1-5.33-5.73C171.09,10.25,173.31,7.76,176.49,7.72Zm3.86,5.91c.06-2.57-1-4.27-3.71-4.48-2.41-.19-3.93,1.71-3.88,4.58,0,2.64,1.6,4.41,3.85,4.37S180.35,16.28,180.35,13.63Z"/><path class="cls-6" d="M108.64,61.91c3.25,0,5.33,2.14,5.38,5.57.07,3.66-2,5.94-5.3,6a5.41,5.41,0,0,1-5.49-5.59C103.13,64.34,105.33,61.92,108.64,61.91Zm3.92,6.22c0-3.22-1.55-4.88-3.9-4.87s-3.92,1.75-3.82,4.67c.1,2.62,1.69,4.31,4,4.15C111.66,71.88,112.49,70,112.56,68.13Z"/><path class="cls-6" d="M123.19,40.4c0-.21-.08-.46,0-.62.87-1.48-2-4.46,1.81-4.73,5.11-.35,7.08.94,7.53,4.74.4,3.43-1.28,6-4.32,6.46-.71.12-1.46,0-2.17.12-2.33.39-3.24-.51-2.89-2.86A20.17,20.17,0,0,0,123.19,40.4Zm1.24.13c1,1.45-1.65,4.6,2.38,4.5,3-.07,4.21-1.42,4.16-4.58s-1.18-4-4.19-4.11C122.91,36.21,125.39,39.18,124.43,40.53Z"/><path class="cls-6" d="M116,65.71c.55-1-1-3.4.85-3.41,1.54,0,.46,2.42.68,3.74s0,2.49.12,3.74c.12,1.66,1.18,2.29,2.76,2.3s2.71-.52,2.81-2.21c.12-2.08.09-4.17.14-6.25,0-.59-.16-1.42.69-1.49,1.14-.08.88.91.9,1.58,0,1.56.05,3.12,0,4.68-.13,3.69-1.35,5-4.47,5.07s-4.29-1.23-4.47-5C116,67.63,116,66.8,116,65.71Z"/><path class="cls-6" d="M110.64,46c-1,.75-1.47-.07-1.94-.76-.64-.95-1.23-1.93-1.89-2.87a3,3,0,0,0-3.37-1c-1.34.31-.6,1.55-.78,2.38s.38,1.87-1.36,3.09c0-4,0-7.52,0-11,0-.9.83-.74,1.42-.74,1.25,0,2.5,0,3.75,0,1.67,0,3.21.21,3.63,2.17s-.52,3.18-2.42,3.79c.93,1.72,2.62,3,2.94,5Zm-5.2-9.69c-1.1.28-2.92-.73-2.87,1.87,0,1.92,1.08,1.92,2.39,1.83,1.49-.11,3.51.28,3.72-1.81S106.88,36.48,105.44,36.3Z"/><path class="cls-6" d="M140.12,67.41c-.07,2,.33,3.63,2.11,4.38a3.18,3.18,0,0,0,4.32-1.36.74.74,0,0,1,1.21-.25c.72.51.18.92,0,1.28-1.15,1.84-2.94,2.2-4.92,2-2.75-.33-3.87-2.24-4.21-4.7-.36-2.67.16-5.12,2.85-6.33a4.83,4.83,0,0,1,5.79.86c.47.48,1.25,1.2.74,1.79s-1.21.09-1.71-.58c-1.13-1.52-2.74-1.49-4.23-.8A3.57,3.57,0,0,0,140.12,67.41Z"/><path class="cls-6" d="M110.64,46v0c2.48-1.76,2.2-4.91,3.63-7.21.77-1.24.38-3.6,2.24-3.66s1.68,2.27,2.34,3.54a49.43,49.43,0,0,1,2.36,5.74c.2.55,1.1,1.35.06,1.82s-1.28-.48-1.43-1.18c-.45-2-1.58-2.62-3.59-2.51-1.48.09-2.36.48-2.64,2C113.26,46.31,112.18,46.63,110.64,46Zm6.08-9.56c-.8,1.83-2,3.21-1.42,4.82.22.59,2.21.61,2.48,0C118.54,39.71,116.93,38.4,116.72,36.43Z"/><path class="cls-6" d="M88.22,11c0-2,0-3.95,0-5.92,0-.88-.29-2,1.24-2,1.29,0,1.07,1,1.07,1.81q0,6.24,0,12.47c0,.81.16,1.81-1.08,1.84-1.48,0-1.22-1.11-1.23-2C88.2,15.2,88.22,13.12,88.22,11Z"/><path class="cls-6" d="M147,19.24c1.36-3.63,2.5-7,3.92-10.3.8-1.86,1.89-.78,2.38.31,1.21,2.71,2.26,5.49,3.34,8.26.23.6.88,1.42-.25,1.75-.85.24-1-.77-1-1.17-.48-2.22-1.92-2.42-3.85-2.4a2.14,2.14,0,0,0-2.41,1.77C148.9,18.25,148.78,19.14,147,19.24ZM154,14.41,152.1,9.5l-1.84,4.91Z"/><path class="cls-6" d="M127.65,65.23c0-1.06-.78-2.55.44-3,1.38-.55,1.71,1.17,2.33,2A28.61,28.61,0,0,0,135,69.64c0-1.87,0-3.75,0-5.62,0-.49-.08-1.15.6-1.22,1-.11.79.74.79,1.29,0,2.59,0,5.19,0,7.78,0,.56.23,1.32-.67,1.48-.72.13-1.11-.31-1.48-.87-1.18-1.83-2.36-3.66-3.63-5.42-.49-.69-.67-1.74-1.79-1.84Z"/><path class="cls-6" d="M204.3,18.68a.7.7,0,0,1-.72.8c-.72.05-.74-.58-.94-1-.6-1.33-.67-3-3-2.77-1.73.19-3.37,0-3.6,2.31-.07.75-.45,1.16-1.23.93-1.19-.36-.22-1.05-.09-1.42,1-2.72,2.1-5.4,3.15-8.1.44-1.13,1.62-2.16,2.21-1C201.77,11.68,202.93,15.23,204.3,18.68Zm-4.84-9c-1.2,1.37-1.41,3-2,4.57a5.66,5.66,0,0,0,3.52,0C200.52,12.75,200,11.31,199.46,9.71Z"/><path class="cls-6" d="M165.89,8.64c-5.79,0-3.37,4.14-3.89,6.71-.26,1.3.9,3.69-.83,3.68s-.45-2.44-.81-3.74a2.14,2.14,0,0,1,0-.62c-.07-2.65,1.14-6.07-3.9-6.07A18.53,18.53,0,0,1,165.89,8.64Z"/><path class="cls-6" d="M108.56,19.22c-1-1.43-.4-3.11-.5-4.67-.15-2.64,1.12-6.08-4-5.9a27.53,27.53,0,0,1,9.06-.52c0,.46-.07.82-.08.82-3.92-.21-3.84,2.32-3.61,5.1.14,1.69,0,3.4,0,5.1Z"/><path class="cls-6" d="M161.94,72.87c-2.36.92-4.49.44-6.55.42-1.09,0-.73-1.08-.74-1.73,0-3,0-6,0-9.07,1.15-.1,1.46.52,1.44,1.48s0,1.67,0,2.5c0,1.66-.42,3.62.3,4.9.87,1.56,3,.37,4.6.72C161.23,72.15,161.41,72.42,161.94,72.87Z"/><path class="cls-6" d="M207.31,12.91a8.54,8.54,0,0,1,0,1.24c-.45,2.77.26,4.4,3.52,3.82.58-.1,1.7-.47,1.77.59s-1.05.53-1.64.71a2.14,2.14,0,0,1-.62,0c-4.43.07-4.43.07-4.43-4.43,0-1.88,0-3.75,0-5.62,0-.49,0-1.12.68-1.16s.7.6.71,1.09C207.32,10.41,207.31,11.66,207.31,12.91Z"/><path class="cls-6" d="M95.5,8.74c2.15,2.35,3.29,5.47,5.72,7.6h1.24v1.91c-.07,0-.21.1-.21.13a1.8,1.8,0,0,0,.12.44c-1.54,1-1.87-.47-2.44-1.25-1.65-2.25-3.22-4.55-4.83-6.83l-1.29-.12c0-.57,0-1.13,0-1.69Z"/><path class="cls-6" d="M184,19.16c0-3.44,0-6.88,0-10.32,0-.7.47-.84,1-.75s1.17.62,1,1c-1.57,3.23-.07,6.8-1,10.08Z"/><path class="cls-6" d="M192.76,16.35c0,1,.68,2.32-.43,2.79s-1.67-.89-2.23-1.71c-1.28-1.86-2.5-3.75-4.1-6.16,3.51.6,3.38,4,5.51,5.07Z"/><path class="cls-6" d="M167.66,19.14c0-3.46,0-6.93,0-10.39a.89.89,0,0,1,.52-.63c.46-.11.79.15.79.67V19.14Z"/><path class="cls-6" d="M152.06,68c0,1.34,0,2.69,0,4,0,.48.13,1.12-.57,1.22s-.8-.49-.81-1q0-4.2,0-8.38c0-.5,0-1.12.76-1.06s.62.69.62,1.17C152.08,65.33,152.06,66.68,152.06,68Z"/><path class="cls-6" d="M93.81,10.63l1.29.12c-.32,2.78.33,5.64-.74,8.41C93.44,16.36,93.73,13.48,93.81,10.63Z"/><path class="cls-6" d="M127.65,65.23h1.18c0,2.69.31,5.41-.59,8.1C127.22,70.69,127.62,67.94,127.65,65.23Z"/><path class="cls-6" d="M192.76,16.35h-1.25c.19-2.73-.36-5.5.67-8.22C193.17,10.8,192.74,13.6,192.76,16.35Z"/><path class="cls-6" d="M102.46,16.35h-1.24c.14-2.73-.35-5.5.66-8.22C102.87,10.81,102.46,13.6,102.46,16.35Z"/><path class="cls-6" d="M95.5,8.74l-1.7.2C94.2,7.43,94.83,7.88,95.5,8.74Z"/><path class="cls-6" d="M98.8,32V30.18C100,30.78,100,31.39,98.8,32Z"/><path class="cls-6" d="M102.37,18.83a1.8,1.8,0,0,1-.12-.44s.14-.08.21-.13A.45.45,0,0,1,102.37,18.83Z"/><path class="cls-7" d="M58.55,50.29c-4.11.09-8,4.1-7.94,8.15s4.09,8,8.15,7.94,8-4.12,7.95-8.15S62.57,50.21,58.55,50.29Z"/><path class="cls-8" d="M51.14,21.56c-.09,4.94,2.69,8,7.36,8,5,.05,7.83-3.06,7.88-8.63,0-4.27-3.21-6.71-9.16-6.89C53.93,13.94,51.22,17.29,51.14,21.56Z"/><path class="cls-3" d="M44.84,44.17c-.42,1.36.47,2.39.91,3.52a23.05,23.05,0,0,1-.09,17.59c-.4,1-.55,2.3-2,2.52l-3.12-2.65c2.4-4,4.72-7.93,4.35-12.88a19.9,19.9,0,0,0-1.28-6c-.42-1.06-.67-1.93.74-2.35A.35.35,0,0,1,44.84,44.17Z"/><path class="cls-2" d="M44.71,35.11a91.66,91.66,0,0,1,9-2.11c5.21-.7,10.32-.41,14.43,3.59-1.25.66-1.08,2.49-2.49,3-4.12-2.63-8.32-4.93-13.51-4.5a28,28,0,0,0-5.41,1.17c-.83.24-1.86,1.38-2.68-.1l.14-.07.64-1Z"/><path class="cls-9" d="M36.1,43.93c-4.58,2-9.16,3.78-14.35,3.23a27.83,27.83,0,0,1-7.76-2c-.85-.34-1.76-.7-1.72-1.89.25-1.14,1.87-1.23,1.94-2.52.5-.06,1-.26,1.47.13,6,4.77,12.46,5.33,19.33,2.2C36.13,42.61,36.25,43,36.1,43.93Z"/><path class="cls-1" d="M35.43,36.38c1.52-1,0-1.77-.27-2.42a24.4,24.4,0,0,1-.92-18.4,4.38,4.38,0,0,1,2.39-3l3.16,2.53c-5.35,7-6,14.44-1.63,22.38C37.3,36.75,35.89,38,35.43,36.38Z"/><path class="cls-9" d="M44.19,36.11l-.14.07c-.33.38-.7.94-1.22.71s-.24-.82,0-1.27a18.65,18.65,0,0,0,2.14-8c.89.65.18,2.08,1.28,2.62,0,1.78-1.31,3.13-1.53,4.84h.12C44.19,35.17,44.22,35.66,44.19,36.11Z"/><path class="cls-9" d="M46.58,28.91c0,.49.15,1-.35,1.35A1.31,1.31,0,0,1,46.58,28.91Z"/><path class="cls-2" d="M36.71,44.57c-.06-.23-.11-.46-.17-.68l.54.42Z"/><path class="cls-2" d="M58.55,50.29c4-.08,8.07,3.86,8.16,7.94s-3.86,8.06-7.95,8.15-8.07-3.83-8.15-7.94S54.44,50.38,58.55,50.29Z"/><path class="cls-1" d="M51.14,21.56c.08-4.27,2.79-7.62,6.08-7.52,6,.18,9.2,2.62,9.16,6.89,0,5.57-2.89,8.68-7.88,8.63C53.83,29.51,51.05,26.5,51.14,21.56Z"/><path class="cls-8" d="M44.19,36.11c0-.45,0-.94.64-1Z"/><path class="cls-3" d="M29.38,58.43a7.82,7.82,0,0,1-7.91,7.89,8,8,0,0,1,.19-16A7.9,7.9,0,0,1,29.38,58.43Z"/><path class="cls-9" d="M21.41,29.55a7.74,7.74,0,0,1-7.77-8,7.86,7.86,0,0,1,8.11-7.69,7.66,7.66,0,0,1,7.69,8A7.58,7.58,0,0,1,21.41,29.55Z"/></g></g></svg>