<?xml version="1.0" encoding="UTF-8" standalone="no"?><svg xmlns="http://www.w3.org/2000/svg" viewBox="0 0 29 29"><defs><style>.cls-1{fill:#febb4e;}.cls-2{fill:#8737c8;}.cls-3{fill:#6d46ca;}.cls-4{fill:#c834ac;}.cls-5{fill:#a833b3;}.cls-6{fill:#5358ca;}.cls-7{fill:#d03994;}.cls-8{fill:#de4081;}.cls-9{fill:#e9466a;}.cls-10{fill:#fe8e45;}.cls-11{fill:#fb5241;}.cls-12{fill:#fe7041;}.cls-13{fill:#f44e50;}.cls-14{fill:#ee4a5e;}.cls-15{fill:#fefdfe;}</style></defs><g id="Layer_2" data-name="Layer 2"><g id="Layer_1-2" data-name="Layer 1"><path class="cls-1" d="M14.73,29H12.21c-1.78,0-3.55,0-5.33,0a8.69,8.69,0,0,1-2.72-.43,6.07,6.07,0,0,1-2.45-1.63l-.05-.06a8,8,0,0,1,1.76-2,7,7,0,0,1,2.2-1.16c.07,0,.15,0,.16-.12l.15.11a5.66,5.66,0,0,0,1.16.76,6.58,6.58,0,0,0,1.29.45,8.5,8.5,0,0,0,.88.15c.25,0,.51.05.76.06l1.08.05h1.44a.23.23,0,0,0,.09.19,6.23,6.23,0,0,1,.69.76,7.86,7.86,0,0,1,1,1.62A5.7,5.7,0,0,1,14.73,29Z"/><path class="cls-2" d="M16.8,0h4.95A9.42,9.42,0,0,1,23.8.19a5.73,5.73,0,0,1,1.54.48c0,.08-.1.11-.17.15-.81.5-1.63,1-2.48,1.4-1.07.56-2.17,1.06-3.27,1.55a.2.2,0,0,0-.13.11c-.6,0-1.2-.07-1.8-.07-2.6,0-5.2-.06-7.79.07,0-.1.1-.11.16-.14a5.77,5.77,0,0,0,1.07-.41l.3-.13a15.76,15.76,0,0,0,2.1-.93c.4-.2.79-.43,1.19-.65a13.36,13.36,0,0,0,2-1.33C16.62.21,16.76.15,16.8,0Z"/><path class="cls-3" d="M16.8,0c0,.14-.18.2-.28.28a13.36,13.36,0,0,1-2,1.33c-.4.22-.79.45-1.19.65a15.76,15.76,0,0,1-2.1.93l-.3.13a5.77,5.77,0,0,1-1.07.41c-.06,0-.15,0-.16.14L9.09,4a6.5,6.5,0,0,0-2.53.86,6.71,6.71,0,0,0-1,.78s0,0-.09,0l-.77.18-2,.56c-.83.23-1.66.46-2.51.65C.13,7,.06,7,0,6.91A10.57,10.57,0,0,1,.2,5.05L.23,5A.5.5,0,0,0,.44,5l1-.29c.82-.24,1.64-.49,2.45-.77,1-.35,2-.74,3-1.16A16.67,16.67,0,0,0,9.56,1.36,8.52,8.52,0,0,0,10.79.42.92.92,0,0,0,11.1,0h5.7Z"/><path class="cls-4" d="M28.7,4.7a2.45,2.45,0,0,1,.17.72A8.54,8.54,0,0,1,29,6.85c0,2.72,0,5.44,0,8.16a.62.62,0,0,1,0,.13c-.08,0-.11-.08-.14-.13-.33-.49-.67-1-1-1.44a28.6,28.6,0,0,0-2.51-2.88.28.28,0,0,0-.14-.1c0-.53-.05-1.06-.13-1.58a6.73,6.73,0,0,0-.9-2.53l.15,0C25.52,6,26.75,5.49,28,5A3.79,3.79,0,0,1,28.7,4.7Z"/><path class="cls-5" d="M28.7,4.7A3.79,3.79,0,0,0,28,5c-1.22.51-2.45,1-3.68,1.46l-.15,0-.07-.09a5.51,5.51,0,0,0-2.81-2.13,8.8,8.8,0,0,0-2-.38.2.2,0,0,1,.13-.11c1.1-.49,2.2-1,3.27-1.55.85-.43,1.67-.9,2.48-1.4.07,0,.14-.07.17-.15a5.14,5.14,0,0,1,1.37.85,6.08,6.08,0,0,1,2,3A.22.22,0,0,1,28.7,4.7Z"/><path class="cls-6" d="M11.1,0a.92.92,0,0,1-.31.41,8.52,8.52,0,0,1-1.23.94A16.67,16.67,0,0,1,6.91,2.74c-1,.42-2,.81-3,1.16-.81.28-1.63.53-2.45.77L.44,5A.5.5,0,0,1,.23,5,4.54,4.54,0,0,1,.62,3.73,6.1,6.1,0,0,1,5.13.19,9.17,9.17,0,0,1,7,0H11.1Z"/><path class="cls-7" d="M25.17,10.59a.28.28,0,0,1,.14.1,28.6,28.6,0,0,1,2.51,2.88c.36.47.7.95,1,1.44,0,.05.06.12.14.13a.41.41,0,0,1,0,.11c0,2.35,0,4.71,0,7.06a4.31,4.31,0,0,1,0,.71c-.1-.05-.11-.16-.14-.24a22.56,22.56,0,0,0-.91-2.28c-.29-.63-.61-1.24-.94-1.84a28,28,0,0,0-1.57-2.43c-.05-.06-.09-.13-.17-.14a1.28,1.28,0,0,1,0-.19c0-1.29,0-2.57,0-3.86C25.19,11.56,25.18,11.08,25.17,10.59Z"/><path class="cls-8" d="M25.21,16.09c.08,0,.12.08.17.14A28,28,0,0,1,27,18.66c.33.6.65,1.21.94,1.84a22.56,22.56,0,0,1,.91,2.28c0,.08,0,.19.14.24a6.7,6.7,0,0,1-.54,2.2,5.34,5.34,0,0,1-.76,1.28c-.07,0-.07-.09-.08-.14s-.09-.41-.14-.61a21.82,21.82,0,0,0-.78-2.58,22.66,22.66,0,0,0-1.39-3.05c-.05-.09-.08-.2-.19-.25,0-.27.06-.54.07-.81,0-.68.07-1.36.07-2C25.19,16.71,25.2,16.4,25.21,16.09Z"/><path class="cls-9" d="M25.06,19.87c.11.05.14.16.19.25a22.66,22.66,0,0,1,1.39,3.05,21.82,21.82,0,0,1,.78,2.58c0,.2.09.41.14.61s0,.12.08.14a5.61,5.61,0,0,1-1.44,1.35,4.51,4.51,0,0,1-.86.48l0-.12c-.1-.58-.2-1.15-.33-1.72a20.28,20.28,0,0,0-1.1-3.3c0-.06,0-.13-.12-.15A6.31,6.31,0,0,0,25.06,19.87Z"/><path class="cls-10" d="M5.78,23.62c0,.09-.09.09-.16.12a7,7,0,0,0-2.2,1.16,8,8,0,0,0-1.76,2,4.57,4.57,0,0,1-.79-1.11,5.75,5.75,0,0,1-.63-1.66c.14,0,.21-.17.3-.27a10.15,10.15,0,0,1,1.31-1.23,10.28,10.28,0,0,1,1.49-1,5,5,0,0,1,.89-.39l.06.14A5.62,5.62,0,0,0,5.78,23.62Z"/><path class="cls-10" d="M14.73,29a5.7,5.7,0,0,0-.43-1.22,7.86,7.86,0,0,0-1-1.62,6.23,6.23,0,0,0-.69-.76.23.23,0,0,1-.09-.19h3.68a2.29,2.29,0,0,0,.29.56,12.24,12.24,0,0,1,.9,2.23,7,7,0,0,1,.22,1Z"/><path class="cls-11" d="M0,20.92c0-.65,0-1.29,0-1.94V17.55a.45.45,0,0,0,.17-.08c.37-.23.74-.45,1.13-.65a15.35,15.35,0,0,1,2-.83,1.89,1.89,0,0,1,.52-.13c0,1,0,1.93.06,2.9l-.34.11a11.94,11.94,0,0,0-3.23,1.9C.2,20.83.13,20.93,0,20.92Z"/><path class="cls-12" d="M0,20.92c.12,0,.19-.09.26-.15a11.94,11.94,0,0,1,3.23-1.9l.34-.11A11.92,11.92,0,0,0,4,20.1a7,7,0,0,0,.26,1.12,5,5,0,0,0-.89.39,10.28,10.28,0,0,0-1.49,1A10.15,10.15,0,0,0,.54,23.81c-.09.1-.16.23-.3.27a9.38,9.38,0,0,1-.19-1.2C0,22.23,0,21.57,0,20.92Z"/><path class="cls-11" d="M22.29,29c-.7,0-1.4,0-2.1,0H19.7l0-.11a12.69,12.69,0,0,0-1.1-3.51.73.73,0,0,1-.05-.2c.22,0,.45,0,.67,0a8.66,8.66,0,0,0,2-.36.37.37,0,0,0,0,.14,16.33,16.33,0,0,1,.83,2.74A9.82,9.82,0,0,1,22.29,29Z"/><path class="cls-13" d="M22.29,29a9.82,9.82,0,0,0-.22-1.32,16.33,16.33,0,0,0-.83-2.74.37.37,0,0,1,0-.14,6.55,6.55,0,0,0,1.66-.86c.07,0,.09.08.11.13l.18.46A19,19,0,0,1,24,27.26c.1.48.18,1,.26,1.45a4,4,0,0,1-.76.16A11.54,11.54,0,0,1,22.29,29Z"/><path class="cls-5" d="M0,10.19V8.09A2,2,0,0,0,.55,8C1.71,7.69,2.86,7.4,4,7.09A2.15,2.15,0,0,1,4.57,7a1.11,1.11,0,0,1-.07.16,7.19,7.19,0,0,0-.39,1.1c-.08.33-.14.67-.2,1l-.11,0L1,10Z"/><path class="cls-12" d="M18.52,25.17a.73.73,0,0,0,.05.2,12.69,12.69,0,0,1,1.1,3.51l0,.11H17.63a7,7,0,0,0-.22-1,12.24,12.24,0,0,0-.9-2.23,2.29,2.29,0,0,1-.29-.56Z"/><path class="cls-13" d="M3.78,15.86a1.89,1.89,0,0,0-.52.13,15.35,15.35,0,0,0-2,.83c-.39.2-.76.42-1.13.65a.45.45,0,0,1-.17.08v-2a.28.28,0,0,0,.13,0,15.13,15.13,0,0,1,1.57-.76A15.45,15.45,0,0,1,3.78,14Z"/><path class="cls-14" d="M24.22,28.71c-.08-.48-.16-1-.26-1.45a19,19,0,0,0-.81-2.76L23,24c0-.05,0-.12-.11-.13a9.24,9.24,0,0,0,.9-.87c.08,0,.1.09.12.15a20.28,20.28,0,0,1,1.1,3.3c.13.57.23,1.14.33,1.72l0,.12a4.68,4.68,0,0,1-1,.36Z"/><path class="cls-2" d="M4.57,7A2.15,2.15,0,0,0,4,7.09c-1.15.31-2.3.6-3.46.89A2,2,0,0,1,0,8.09V6.91c0,.08.12,0,.18,0C1,6.75,1.87,6.52,2.7,6.29l2-.56.77-.18s.08,0,.09,0A6,6,0,0,0,4.57,7Z"/><path class="cls-7" d="M0,12.29V10.94a6.17,6.17,0,0,0,.65-.17c.9-.26,1.8-.46,2.7-.68a1.65,1.65,0,0,1,.5-.1L3.8,11.34l-.38.09c-.8.2-1.61.36-2.4.6A7.26,7.26,0,0,1,0,12.29Z"/><path class="cls-14" d="M3.78,14a15.45,15.45,0,0,0-2.08.71,15.13,15.13,0,0,0-1.57.76.28.28,0,0,1-.13,0V14.13L.58,14l2-.54c.4-.1.8-.21,1.21-.27A8.81,8.81,0,0,1,3.78,14Z"/><path class="cls-8" d="M0,12.29A7.26,7.26,0,0,0,1,12c.79-.24,1.6-.4,2.4-.6l.38-.09v.95H3.62c-1.07.25-2.14.52-3.19.84a1.5,1.5,0,0,1-.43.1Z"/><path class="cls-9" d="M0,13.24a1.5,1.5,0,0,0,.43-.1c1.05-.32,2.12-.59,3.19-.84h.17v.86c-.41.06-.81.17-1.21.27L.58,14,0,14.13Z"/><path class="cls-4" d="M3.85,10a1.65,1.65,0,0,0-.5.1c-.9.22-1.8.42-2.7.68a6.17,6.17,0,0,1-.65.17v-.75L1,10,3.8,9.26l.11,0Z"/><path class="cls-15" d="M3.85,10l.06-.75c.06-.34.12-.68.2-1a7.19,7.19,0,0,1,.39-1.1A1.11,1.11,0,0,0,4.57,7a6,6,0,0,1,1-1.38,6.71,6.71,0,0,1,1-.78A6.5,6.5,0,0,1,9.09,4l.61-.07c2.59-.13,5.19-.08,7.79-.07.6,0,1.2,0,1.8.07a8.8,8.8,0,0,1,2,.38,5.51,5.51,0,0,1,2.81,2.13l.07.09A6.73,6.73,0,0,1,25,9c.08.52.09,1.05.13,1.58s0,1,0,1.45c0,1.29,0,2.57,0,3.86a1.28,1.28,0,0,0,0,.19c0,.31,0,.62,0,.93,0,.68,0,1.36-.07,2,0,.27-.05.54-.07.81A6.31,6.31,0,0,1,23.76,23a9.24,9.24,0,0,1-.9.87,6.55,6.55,0,0,1-1.66.86,8.66,8.66,0,0,1-2,.36c-.22,0-.45,0-.67,0l-2.3,0H11.1L10,25.15c-.25,0-.51,0-.76-.06a8.5,8.5,0,0,1-.88-.15,6.58,6.58,0,0,1-1.29-.45,5.66,5.66,0,0,1-1.16-.76l-.15-.11a5.62,5.62,0,0,1-1.49-2.26l-.06-.14A7,7,0,0,1,4,20.1a11.92,11.92,0,0,1-.13-1.34c0-1,0-1.94-.06-2.9V14a8.81,8.81,0,0,0,0-.89V11.34Zm1.88,2.7v3.05c0,.78,0,1.55,0,2.33a11.42,11.42,0,0,0,.09,1.55,3.82,3.82,0,0,0,.24,1,3.18,3.18,0,0,0,.54,1.05,4,4,0,0,0,2.89,1.48c.65.07,1.31.08,2,.1,1,0,1.92,0,2.87,0h2.4a4.61,4.61,0,0,0,.74,0,17.93,17.93,0,0,0,2.07-.1,4.83,4.83,0,0,0,1.18-.28A3.1,3.1,0,0,0,22,22.13a3.22,3.22,0,0,0,.95-1.5,5.15,5.15,0,0,0,.28-1.35c0-.32,0-.64,0-1s0-.65,0-1c0-.06,0-.11,0-.17v-4c0-.9,0-1.81-.05-2.71a6.22,6.22,0,0,0-.06-.86,4.1,4.1,0,0,0-.94-2.42,4.85,4.85,0,0,0-.75-.68s-.09-.07-.16-.06a4.1,4.1,0,0,0-1.77-.57,19,19,0,0,0-2.39-.11c-1.27,0-2.54,0-3.81,0-1,0-1.93,0-2.9,0A10.87,10.87,0,0,0,9,5.91,3.83,3.83,0,0,0,7,6.93,3.66,3.66,0,0,0,6,8.65a3.87,3.87,0,0,0-.17,1,9.82,9.82,0,0,0-.07,1.21c0,.36,0,.71,0,1.07Z"/><path class="cls-12" d="M17.49,23.25a4.61,4.61,0,0,1-.74,0h-2.4a.24.24,0,0,0-.09-.13,7.55,7.55,0,0,0-.74-.64A9.83,9.83,0,0,0,11,21.1a9.35,9.35,0,0,0-3-.61,9.11,9.11,0,0,0-1.88.14,3.82,3.82,0,0,1-.24-1,11.42,11.42,0,0,1-.09-1.55h.17a8.56,8.56,0,0,1,1.33-.13c.42,0,.84,0,1.25,0s.75.08,1.12.13a4.34,4.34,0,0,0,.79.13c.2.17.37.37.58.54A5.52,5.52,0,0,0,14.3,20c0,.09.1.14.17.19a12.11,12.11,0,0,1,1.47,1.21,11.32,11.32,0,0,1,1,1.08A4.74,4.74,0,0,1,17.49,23.25Z"/><path class="cls-7" d="M23.16,9.58a6.22,6.22,0,0,1,.06.86c.05.9.06,1.81.05,2.71a.15.15,0,0,1-.11-.06c-.25-.25-.51-.48-.77-.72-.47-.43-1-.82-1.46-1.21A21.5,21.5,0,0,0,18.6,9.6a.79.79,0,0,0-.39-.16H17c-.06,0-.12,0-.13.09-.25-.1-.5-.21-.76-.29A5.49,5.49,0,0,0,14,9a5.41,5.41,0,0,0-1.64.41,7.77,7.77,0,0,0-.9.48.14.14,0,0,0-.14,0L10.9,10c-.83.09-1.65.22-2.47.38-.59.11-1.19.19-1.78.33a5.52,5.52,0,0,1-.89.15,9.82,9.82,0,0,1,.07-1.21l.68-.13,1.57-.3c.53-.1,1.07-.17,1.6-.26s1.13-.15,1.69-.23l1-.11c.23,0,.47-.07.71-.08.45,0,.89-.14,1.34-.19.28,0,.56-.09.84-.11L16,8.14l.57-.06c.3-.05.59-.07.88-.11L18,7.91c.18,0,.34,0,.5,0a2.72,2.72,0,0,1,.7,0A1.27,1.27,0,0,0,19,9.19a1.22,1.22,0,0,0,1.09.87,1.21,1.21,0,0,0,1.22-.61,1.31,1.31,0,0,0,.14-1,.27.27,0,0,1,.21.07c.34.23.66.48,1,.72A2.77,2.77,0,0,0,23.16,9.58Z"/><path class="cls-5" d="M6,8.65A3.66,3.66,0,0,1,7,6.93,3.83,3.83,0,0,1,9,5.91a10.87,10.87,0,0,1,1.4-.13c1-.06,1.93,0,2.9,0,1.27,0,2.54,0,3.81,0a19,19,0,0,1,2.39.11,4.1,4.1,0,0,1,1.77.57c0,.07-.07.06-.13.06a2.29,2.29,0,0,0-.37,0c-.38,0-.77,0-1.15,0a5.73,5.73,0,0,0-.74.11l-.57.1c-.21,0-.43,0-.64.1a2.59,2.59,0,0,1-.55.07,7.09,7.09,0,0,0-2.29.28H14.8a.51.51,0,0,0-.34.06l-.21.06c-.25,0-.48.11-.72.17a8,8,0,0,1-.95.2c-.39,0-.77.08-1.15.14L10.17,8c-.54.07-1.08.17-1.62.26-.8.12-1.59.3-2.39.46A.16.16,0,0,1,6,8.65Z"/><path class="cls-4" d="M6,8.65a.16.16,0,0,0,.16,0c.8-.16,1.59-.34,2.39-.46C9.09,8.14,9.63,8,10.17,8l1.26-.17c.38-.06.76-.1,1.15-.14a8,8,0,0,0,.95-.2c.24-.06.47-.13.72-.17l.21-.06a.51.51,0,0,1,.34-.06h.07a7.09,7.09,0,0,1,2.29-.28,2.59,2.59,0,0,0,.55-.07c.21,0,.43-.07.64-.1l.57-.1a5.73,5.73,0,0,1,.74-.11c.38,0,.77,0,1.15,0a2.29,2.29,0,0,1,.37,0c.06,0,.11,0,.13-.06s.11,0,.16.06a4.85,4.85,0,0,1,.75.68,4.1,4.1,0,0,1,.94,2.42,2.77,2.77,0,0,1-.52-.38c-.32-.24-.64-.49-1-.72a.27.27,0,0,0-.21-.07,1.49,1.49,0,0,0-.58-.73A1.3,1.3,0,0,0,19.23,8a2.72,2.72,0,0,0-.7,0c-.16,0-.32,0-.5,0L17.42,8c-.29,0-.58.06-.88.11L16,8.14l-.71.06c-.28,0-.56.08-.84.11-.45,0-.89.15-1.34.19-.24,0-.48.05-.71.08l-1,.11c-.56.08-1.13.14-1.69.23s-1.07.16-1.6.26l-1.57.3-.68.13A3.87,3.87,0,0,1,6,8.65Z"/><path class="cls-8" d="M16.85,9.53c0-.09.07-.09.13-.09h1.23a.79.79,0,0,1,.39.16,21.5,21.5,0,0,1,2.33,1.56c.5.39,1,.78,1.46,1.21.26.24.52.47.77.72a.15.15,0,0,0,.11.06v4c0,.06,0,.11,0,.17s-.1,0-.14-.09a17.93,17.93,0,0,0-1.34-1.55,17.21,17.21,0,0,0-1.38-1.32A.93.93,0,0,0,20,14.1.68.68,0,0,1,20,14a5.48,5.48,0,0,0-1.47-3.23A5.78,5.78,0,0,0,16.85,9.53Z"/><path class="cls-10" d="M6.09,20.63A9.11,9.11,0,0,1,8,20.49a9.35,9.35,0,0,1,3,.61,9.83,9.83,0,0,1,2.51,1.4,7.55,7.55,0,0,1,.74.64.24.24,0,0,1,.09.13c-.95,0-1.91,0-2.87,0-.65,0-1.31,0-2-.1a4,4,0,0,1-2.89-1.48A3.18,3.18,0,0,1,6.09,20.63Z"/><path class="cls-11" d="M17.49,23.25a4.74,4.74,0,0,0-.56-.77,11.32,11.32,0,0,0-1-1.08,12.11,12.11,0,0,0-1.47-1.21c-.07-.05-.15-.1-.17-.19a5.53,5.53,0,0,0,2-.29A6,6,0,0,0,17.74,19a.75.75,0,0,0,.11.13,8.85,8.85,0,0,1,.95,1,14.89,14.89,0,0,1,1.57,2.14,3.86,3.86,0,0,1,.37.66,4.83,4.83,0,0,1-1.18.28A17.93,17.93,0,0,1,17.49,23.25Z"/><path class="cls-9" d="M20,14.1a.93.93,0,0,1,.41.29,17.21,17.21,0,0,1,1.38,1.32,17.93,17.93,0,0,1,1.34,1.55s.07.09.14.09c0,.32,0,.65,0,1s0,.64,0,1a5.15,5.15,0,0,1-.28,1.35,2.63,2.63,0,0,1-.33-.49,20.12,20.12,0,0,0-2.82-3.42.24.24,0,0,0-.17-.09.17.17,0,0,1,0-.07,5.32,5.32,0,0,0,.35-1.3A7.45,7.45,0,0,0,20,14.1Z"/><path class="cls-11" d="M10.42,18.21a4.34,4.34,0,0,1-.79-.13c-.37,0-.74-.1-1.12-.13s-.83,0-1.25,0a8.56,8.56,0,0,0-1.33.13H5.76c0-.78,0-1.55,0-2.33l.27,0c.36,0,.72-.08,1.08-.09a15.44,15.44,0,0,1,2,0l0,.1a5.48,5.48,0,0,0,.54,1.41A7.53,7.53,0,0,0,10.42,18.21Z"/><path class="cls-14" d="M19.58,16.63a.24.24,0,0,1,.17.09,20.12,20.12,0,0,1,2.82,3.42,2.63,2.63,0,0,0,.33.49,3.22,3.22,0,0,1-.95,1.5,2.64,2.64,0,0,0-.25-.47,18,18,0,0,0-2.79-3.59.19.19,0,0,0-.15-.09A6.4,6.4,0,0,0,19.58,16.63Z"/><path class="cls-13" d="M9.12,15.68a15.44,15.44,0,0,0-2,0c-.36,0-.72.06-1.08.09l-.27,0V13.5A8.52,8.52,0,0,1,7,13.39c.49,0,1,0,1.46,0a3,3,0,0,1,.67,0c0,.2-.05.41-.07.61a5.79,5.79,0,0,0,0,1C9,15.27,9.08,15.48,9.12,15.68Z"/><path class="cls-13" d="M18.76,18a.19.19,0,0,1,.15.09,18,18,0,0,1,2.79,3.59,2.64,2.64,0,0,1,.25.47,3.1,3.1,0,0,1-1.21.74,3.86,3.86,0,0,0-.37-.66,14.89,14.89,0,0,0-1.57-2.14,8.85,8.85,0,0,0-.95-1,.75.75,0,0,1-.11-.13A6.69,6.69,0,0,0,18.76,18Z"/><path class="cls-8" d="M5.76,10.82a5.52,5.52,0,0,0,.89-.15c.59-.14,1.19-.22,1.78-.33.82-.16,1.64-.29,2.47-.38l.38-.07a.14.14,0,0,1,.14,0,5.56,5.56,0,0,0-.66.54,7.16,7.16,0,0,0-.69.76,1.93,1.93,0,0,0-.34,0c-.38.07-.76.12-1.13.17-.65.1-1.29.22-1.94.33a5.81,5.81,0,0,1-.93.15C5.72,11.53,5.75,11.18,5.76,10.82Z"/><path class="cls-14" d="M9.09,13.44a3,3,0,0,0-.67,0c-.48,0-1,0-1.46,0a8.52,8.52,0,0,0-1.23.11v-.81h.11c.79-.14,1.57-.33,2.36-.44a4,4,0,0,1,1.29,0A7.79,7.79,0,0,0,9.09,13.44Z"/><path class="cls-9" d="M9.49,12.2a4,4,0,0,0-1.29,0c-.79.11-1.57.3-2.36.44H5.73v-.8a5.81,5.81,0,0,0,.93-.15c.65-.11,1.29-.23,1.94-.33.37-.05.75-.1,1.13-.17a1.93,1.93,0,0,1,.34,0,1.33,1.33,0,0,0-.14.19A7.44,7.44,0,0,0,9.49,12.2Z"/><path class="cls-15" d="M9.49,12.2a7.44,7.44,0,0,1,.44-.78,1.33,1.33,0,0,1,.14-.19,7.16,7.16,0,0,1,.69-.76,5.56,5.56,0,0,1,.66-.54,7.77,7.77,0,0,1,.9-.48A5.41,5.41,0,0,1,14,9a5.49,5.49,0,0,1,2.13.2c.26.08.51.19.76.29a5.78,5.78,0,0,1,1.65,1.2A5.48,5.48,0,0,1,20,14a.68.68,0,0,0,0,.14,7.45,7.45,0,0,1,0,1.16,5.32,5.32,0,0,1-.35,1.3.17.17,0,0,0,0,.07A6.4,6.4,0,0,1,18.76,18a6.69,6.69,0,0,1-1,1,6,6,0,0,1-1.46.76,5.52,5.52,0,0,1-5.28-1c-.21-.17-.38-.37-.58-.54a7.53,7.53,0,0,1-.73-1,5.48,5.48,0,0,1-.54-1.41l0-.1c0-.2-.09-.41-.11-.61a5.79,5.79,0,0,1,0-1c0-.2.05-.41.07-.61A7.79,7.79,0,0,1,9.49,12.2Zm1.63,3.44a.74.74,0,0,0,0,.14,3.51,3.51,0,0,0,3.08,2.28,3.09,3.09,0,0,0,1.64-.28,3.27,3.27,0,0,0,1.38-1A3.2,3.2,0,0,0,18,15.23,3,3,0,0,0,18,14,3.56,3.56,0,0,0,13.69,11a3.35,3.35,0,0,0-2,1.26A3.28,3.28,0,0,0,11,13.81,3.45,3.45,0,0,0,11.12,15.64Z"/><path class="cls-15" d="M19.23,8a1.3,1.3,0,0,1,1.64-.27,1.49,1.49,0,0,1,.58.73,1.31,1.31,0,0,1-.14,1,1.21,1.21,0,0,1-1.22.61A1.22,1.22,0,0,1,19,9.19,1.27,1.27,0,0,1,19.23,8Z"/><path class="cls-9" d="M11.71,12.29a3.35,3.35,0,0,1,2-1.26A3.56,3.56,0,0,1,18,14a3,3,0,0,1,0,1.27,2,2,0,0,1-.27-.17,17.42,17.42,0,0,0-2.39-1.44,16.64,16.64,0,0,0-2.71-1.08Z"/><path class="cls-14" d="M11.71,12.29l.9.25a16.64,16.64,0,0,1,2.71,1.08,17.42,17.42,0,0,1,2.39,1.44,2,2,0,0,0,.27.17,3.2,3.2,0,0,1-.72,1.52.19.19,0,0,0-.09-.12A15.93,15.93,0,0,0,14.4,15a14.91,14.91,0,0,0-2.33-.89A7.59,7.59,0,0,0,11,13.81,3.28,3.28,0,0,1,11.71,12.29Z"/><path class="cls-13" d="M11,13.81a7.59,7.59,0,0,1,1.07.26A14.91,14.91,0,0,1,14.4,15a15.93,15.93,0,0,1,2.77,1.67.19.19,0,0,1,.09.12,3.27,3.27,0,0,1-1.38,1l-.16-.13a14.1,14.1,0,0,0-2.56-1.39,13.48,13.48,0,0,0-1.85-.64c-.07,0-.13,0-.19,0A3.45,3.45,0,0,1,11,13.81Z"/><path class="cls-11" d="M11.12,15.64c.06-.06.12,0,.19,0a13.48,13.48,0,0,1,1.85.64,14.1,14.1,0,0,1,2.56,1.39l.16.13a3.09,3.09,0,0,1-1.64.28,3.51,3.51,0,0,1-3.08-2.28A.74.74,0,0,1,11.12,15.64Z"/></g></g></svg>