<?xml version="1.0" encoding="UTF-8" standalone="no"?><svg xmlns="http://www.w3.org/2000/svg" viewBox="0 0 29.09 29"><defs><style>.cls-1{fill:#43af49;}.cls-2{fill:#43af48;}</style></defs><g id="Layer_2" data-name="Layer 2"><g id="Layer_1-2" data-name="Layer 1"><path class="cls-1" d="M13.57,4.65a12.68,12.68,0,0,1,.87-1c.39-.4.78-.78,1.18-1.17.06-.06.08-.11,0-.17l-1-.92C14.09,1,13.57.57,13,.2c0,0-.07,0-.07-.1L13.82,0c.26,0,.53,0,.79,0a14.69,14.69,0,0,1,5.8,1.23,14.88,14.88,0,0,1,3.07,1.82,14.65,14.65,0,0,1,3.58,4.06,14.9,14.9,0,0,1,1.66,4.15A14.82,14.82,0,0,1,29,13a11.51,11.51,0,0,1,.09,1.55,18,18,0,0,1-.18,2.19A15,15,0,0,1,28,20,14.65,14.65,0,0,1,26,23.4a14.36,14.36,0,0,1-5.61,4.37,15.16,15.16,0,0,1-3.34,1,13.89,13.89,0,0,1-1.58.18c-.45,0-.89,0-1.34,0A13,13,0,0,1,12,28.77a13.56,13.56,0,0,1-3.07-.91,14.21,14.21,0,0,1-2.37-1.27.25.25,0,0,1-.11-.19,20.67,20.67,0,0,1-.23-2.08c0-.37-.06-.74-.07-1.11,0-.14,0-.19.17-.18H7.57a13.62,13.62,0,0,0,1.8-.13.21.21,0,0,1,.15.05,11.09,11.09,0,0,0,2.12.93,11,11,0,0,0,1.78.36A8.28,8.28,0,0,0,15,24.3a10,10,0,0,0,3.27-.73,9.84,9.84,0,0,0,5.93-7.23,10,10,0,0,0,.16-1.24c0-.28,0-.57,0-.86a9.9,9.9,0,0,0-.78-3.64,9.36,9.36,0,0,0-1.27-2.16,9.83,9.83,0,0,0-4-3.08,10.14,10.14,0,0,0-2.41-.66,8.06,8.06,0,0,0-1.39-.1,4.14,4.14,0,0,0-.78.05Z"/><path class="cls-1" d="M5.18,10.34c0,.06,0,.08-.08.1A20.1,20.1,0,0,0,3,11.76c-.07.06-.11,0-.16,0a20,20,0,0,1-1.3-2.52l-.18-.43c-.08-.2-.08-.19.12-.26.44-.15.88-.3,1.33-.43S4,7.77,4.56,7.65c.1,0,.12,0,.13.1a16.65,16.65,0,0,0,.45,2.44C5.16,10.24,5.14,10.3,5.18,10.34Z"/><path class="cls-1" d="M5.63,19.63a5.63,5.63,0,0,0-.08.61c0,.29-.07.59-.09.89s0,.63,0,.95c0,.1,0,.13-.14.12A20.37,20.37,0,0,1,2,21.59c-.1,0-.07-.08,0-.14.14-.47.3-.93.48-1.39s.44-1,.69-1.56c.05-.11.1-.11.19-.06a18.5,18.5,0,0,0,2,1,1.09,1.09,0,0,0,.23.09C5.62,19.52,5.63,19.56,5.63,19.63Z"/><path class="cls-1" d="M4.23,15.21s0,0,0,.08A18.55,18.55,0,0,0,3,17.19c0,.08-.07.1-.17,0C2.2,16.83,1.6,16.41,1,16l-.65-.55s-.06-.07,0-.12c.47-.51,1-1,1.46-1.46.26-.23.51-.46.77-.67.07-.06.1-.05.15,0A19.78,19.78,0,0,0,4.2,15.05S4.26,15.11,4.23,15.21Z"/><path class="cls-1" d="M5.63,5c0-.44,0-.87,0-1.31,0-.15.11-.12.18-.1.39.06.77.12,1.16.2s.9.2,1.34.33c.08,0,.15,0,.11.14-.21.63-.38,1.28-.53,1.93,0,.09-.06.11-.14.11-.51,0-1,.05-1.52.07a3.59,3.59,0,0,0-.46,0c-.11,0-.13,0-.14-.12C5.62,5.84,5.63,5.4,5.63,5Z"/><path class="cls-1" d="M13.58,2.48l-.09.12c-.44.47-.86,1-1.27,1.48-.05,0-.08,0-.13,0-.59-.27-1.18-.52-1.79-.74-.15-.05-.06-.13,0-.18.17-.38.34-.76.53-1.13s.38-.7.56-1c.05-.1.1-.11.19-.05a19.35,19.35,0,0,1,1.64,1.22l.32.27Z"/><path class="cls-1" d="M5.63,26a15,15,0,0,1-3.36-3.7l1.34.28c.42.08.84.15,1.26.19l.37,0c.14,0,.19.07.19.22q0,.86.12,1.71a9.88,9.88,0,0,1,.11,1.08A.25.25,0,0,1,5.63,26Z"/><path class="cls-1" d="M.11,16.18c.39.32.77.62,1.16.91s.75.53,1.14.77c.11.07.13.11.06.23a18.62,18.62,0,0,0-1,2.35l-.1.27A13,13,0,0,1,.11,16.18Z"/><path class="cls-1" d="M.8,9.75A13.69,13.69,0,0,0,1.41,11c.23.41.46.82.72,1.22.06.09.06.13,0,.21A19.48,19.48,0,0,0,.2,14.19l-.13.13-.07,0A14.88,14.88,0,0,1,.8,9.75Z"/><path class="cls-1" d="M8.59,22.24s-.1,0-.14,0H6.25c-.14,0-.23,0-.16-.19a.66.66,0,0,0,0-.2,10.92,10.92,0,0,1,.13-1.61c0-.11,0-.23,0-.34s.06-.12.14-.07a.32.32,0,0,1,.1.1,9.4,9.4,0,0,0,1.2,1.47,6.49,6.49,0,0,0,.78.7A.26.26,0,0,1,8.59,22.24Z"/><path class="cls-2" d="M4.41,4.19c0,.42-.06.78,0,1.14s0,.75.06,1.13c0,.08,0,.13-.1.14a20.09,20.09,0,0,0-2.14.5s0,0-.07,0A14.44,14.44,0,0,1,4.41,4.19Z"/><path class="cls-1" d="M5.82,18.73A18.4,18.4,0,0,1,4,17.9a3.3,3.3,0,0,1-.32-.18c-.05,0-.1,0-.05-.14a16.85,16.85,0,0,1,1.24-1.91,0,0,0,0,1,.06,0,6.15,6.15,0,0,0,.31,1.58A13.69,13.69,0,0,0,5.82,18.73Z"/><path class="cls-1" d="M6.7,2.36A14.51,14.51,0,0,1,9.94.78c-.13.25-.25.46-.35.67L9,2.78c0,.06,0,.11-.14.08A17.6,17.6,0,0,0,6.7,2.36Z"/><path class="cls-2" d="M4.85,14.41a21.83,21.83,0,0,1-1.39-1.76c-.06-.07-.06-.11,0-.18a19.44,19.44,0,0,1,1.83-1.16h0A9.69,9.69,0,0,0,4.85,14.41Z"/><path class="cls-2" d="M6.09,9.56C5.94,9,5.86,8.38,5.76,7.82c0-.19.06-.2.22-.22a11.66,11.66,0,0,1,1.56-.09h.13A10.12,10.12,0,0,0,6.09,9.56Z"/><path class="cls-1" d="M9.27,6.22a6.6,6.6,0,0,1,.21-.85l.21-.71c0-.06,0-.12.13-.08.48.19,1,.38,1.42.61l.08,0A10.75,10.75,0,0,0,9.27,6.22Z"/></g></g></svg>