<?xml version="1.0" encoding="UTF-8" standalone="no"?><svg xmlns="http://www.w3.org/2000/svg" viewBox="0 0 174.88 180"><defs><style>.cls-1{isolation:isolate;}.cls-2{fill:#2e77e6;}.cls-3{fill:#5896fa;}.cls-4{fill:#d9ffff;}.cls-24,.cls-5{fill:#fff;}.cls-6{fill:#296acc;}.cls-7{fill:#ea5d00;}.cls-8{fill:#005cea;}.cls-9{fill:#006b73;}.cls-10{fill:#ea7b00;}.cls-11{fill:#d1f5ff;}.cls-12{fill:#ffd145;}.cls-13{fill:#1251b3;}.cls-14{fill:#3383ff;}.cls-15{fill:#aae0ff;}.cls-16{fill:#e3eeff;}.cls-17{fill:#3397ff;}.cls-18{fill:#333;}.cls-19,.cls-24{mix-blend-mode:soft-light;}.cls-19{opacity:0.5;}.cls-20{fill:#f7a58e;}.cls-21{fill:#b3644f;}.cls-22{fill:#f7cec3;}.cls-23{fill:#262626;}.cls-25{fill:#f0f0f0;}.cls-26{fill:#ea6d00;}</style></defs><g class="cls-1"><g id="Layer_2" data-name="Layer 2"><g id="Layer_1-2" data-name="Layer 1"><g id="dot"><path class="cls-2" d="M83.24,151.3l-1.63,0,0-1.08,1.6,0Zm1.64,0,0-1.08c.53,0,1.07,0,1.6,0l.05,1.08C86,151.27,85.42,151.29,84.88,151.29Zm-4.9-.11-1.63-.11.09-1.08,1.6.11Zm8.16,0-.07-1.08c.53,0,1.07-.07,1.6-.12l.09,1.08Zm-11.41-.26-1.63-.2.15-1.07,1.59.2Zm14.66,0-.12-1.08c.53-.06,1.07-.12,1.59-.2l.15,1.07Q92.2,150.8,91.39,150.89Zm-17.9-.41-1.61-.28.19-1.06c.53.09,1.06.19,1.59.27Zm21.14,0-.18-1.06L96,149.1l.2,1.06C95.7,150.26,95.16,150.36,94.63,150.44Zm-24.35-.56-1.6-.35.25-1.05,1.57.35Zm27.55,0-.22-1.06,1.57-.35.25,1Zm-30.73-.71-1.58-.43.3-1,1.55.43Zm33.91,0-.28-1.05c.52-.13,1-.28,1.55-.43l.3,1ZM64,148.22c-.52-.16-1-.34-1.55-.51l.35-1,1.53.5Zm40.18-.06-.33-1,1.53-.51.35,1Zm-43.28-1c-.51-.19-1-.38-1.52-.59l.4-1c.49.2,1,.4,1.5.58Zm46.37-.07-.38-1,1.49-.58.41,1Zm-49.41-1.15c-.5-.21-1-.44-1.49-.66l.45-1,1.47.65Zm52.43-.07-.43-1c.49-.21,1-.43,1.46-.66l.46,1Zm-55.4-1.3-1.46-.74.5-.95c.47.24,1,.49,1.44.72Zm58.35-.07-.47-1,1.42-.73.51,1ZM52,143.05l-1.42-.81.55-.94c.46.28.93.54,1.39.8Zm64.14-.08-.53-.94c.47-.26.93-.53,1.39-.8l.55.93C117,142.44,116.56,142.71,116.09,143Zm-67-1.58c-.46-.29-.93-.58-1.38-.88l.59-.9,1.36.86Zm69.76-.07-.57-.92c.45-.28.91-.57,1.35-.87l.6.91Zm-72.5-1.72-1.33-.95.64-.87c.43.31.87.63,1.31.93Zm75.23-.08-.62-.89c.44-.3.88-.61,1.31-.93l.63.87C122.51,138.89,122.06,139.21,121.62,139.52Zm-77.87-1.85-1.28-1,.68-.84c.41.34.84.67,1.26,1Zm80.5-.08-.66-.85c.42-.33.85-.66,1.26-1l.68.84Zm-83-2c-.41-.35-.83-.71-1.23-1.07l.72-.81c.4.35.8.71,1.21,1Zm85.57-.08-.7-.82,1.21-1.06.72.81C127.61,134.83,127.2,135.19,126.78,135.54Zm-88-2.1c-.39-.37-.79-.75-1.17-1.13l.75-.77c.38.38.77.75,1.16,1.12Zm90.45-.08-.74-.78,1.15-1.12.76.77C130,132.61,129.61,133,129.22,133.36Zm-92.77-2.21c-.38-.39-.76-.79-1.12-1.18l.79-.74c.36.4.73.79,1.1,1.17Zm95.09-.08-.78-.75c.37-.38.74-.78,1.1-1.17l.8.73Zm-97.3-2.32c-.36-.41-.72-.82-1.06-1.24l.82-.69,1,1.22Zm99.51-.09-.82-.71c.35-.4.7-.81,1-1.22l.84.69Zm-101.6-2.41c-.34-.43-.68-.86-1-1.3l.86-.65c.32.43.65.86,1,1.27Zm103.68-.1-.84-.67,1-1.27.86.64C136.51,125.29,136.17,125.72,135.83,126.15ZM30.18,123.64c-.31-.44-.63-.89-.93-1.34l.89-.6c.3.44.61.88.92,1.31Zm107.62-.11-.88-.62c.31-.44.62-.88.91-1.32l.9.6ZM28.35,120.94c-.29-.45-.58-.92-.87-1.38l.93-.56c.27.45.56.91.85,1.36Zm111.28-.11-.91-.59c.29-.44.57-.9.85-1.36l.92.56Zm-113-2.67c-.27-.47-.53-1-.79-1.42l.95-.52c.25.47.51.94.78,1.4ZM141.32,118l-.93-.54c.26-.46.53-.93.78-1.4l1,.51C141.86,117.08,141.59,117.56,141.32,118ZM25.1,115.3c-.25-.48-.49-1-.73-1.46l1-.47c.23.48.47,1,.71,1.43Zm117.78-.15-1-.49c.24-.47.48-1,.71-1.44l1,.46Q143.26,114.43,142.88,115.15ZM23.69,112.36c-.23-.49-.45-1-.66-1.49l1-.42c.21.49.42,1,.64,1.47Zm120.6-.16-1-.44.64-1.48,1,.42C144.73,111.2,144.51,111.7,144.29,112.2ZM22.42,109.36c-.2-.5-.39-1-.58-1.52l1-.37q.27.75.57,1.5Zm123.14-.18-1-.4c.19-.49.38-1,.56-1.5l1,.36C146,108.15,145.75,108.67,145.56,109.18ZM21.3,106.29c-.17-.51-.34-1-.5-1.55l1-.32c.16.51.33,1,.5,1.53Zm125.37-.2-1-.34c.17-.51.34-1,.49-1.53l1,.31C147,105.05,146.84,105.58,146.67,106.09ZM20.34,103.17c-.15-.52-.29-1-.42-1.57l1-.27c.13.52.27,1,.42,1.55ZM147.62,103l-1-.29c.14-.51.28-1,.41-1.55l1,.27C147.91,101.91,147.77,102.44,147.62,103ZM19.53,100c-.12-.53-.23-1.07-.34-1.6l1.06-.21c.1.52.22,1,.34,1.57Zm128.89-.21-1-.24L147.7,98l1.06.21C148.65,98.73,148.54,99.27,148.42,99.8Zm-129.54-3c-.09-.53-.18-1.08-.26-1.61L19.69,95c.08.52.16,1.06.26,1.58Zm130.18-.22L148,96.41c.09-.53.18-1.06.26-1.59l1.07.16C149.24,95.52,149.15,96.06,149.06,96.59Zm-130.67-3c-.06-.54-.13-1.08-.18-1.62l1.07-.11c.06.53.12,1.07.19,1.59Zm131.15-.22-1.08-.13c.07-.53.13-1.06.18-1.6l1.07.11C149.66,92.28,149.6,92.83,149.54,93.36Zm-131.47-3C18,89.79,18,89.24,18,88.7l1.08,0c0,.53.06,1.07.1,1.6Zm131.78-.22L148.78,90c0-.53.07-1.07.09-1.6l1.08,0C149.93,89,149.89,89.57,149.85,90.11Zm-131.95-3c0-.54,0-1.09,0-1.63H19c0,.54,0,1.08,0,1.61ZM150,86.85l-1.08,0c0-.54,0-1.08,0-1.61v-.43H150v.44C150,85.76,150,86.31,150,86.85Zm-131-3-1.08,0c0-.54,0-1.09.05-1.63l1.08,0C19,82.75,19,83.29,19,83.83Zm130-.64c0-.54,0-1.08-.07-1.61l1.08-.06c0,.54,0,1.09.07,1.63ZM19.11,80.62,18,80.54c0-.54.09-1.09.14-1.62l1.07.1C19.19,79.55,19.15,80.09,19.11,80.62ZM148.74,80c0-.53-.09-1.07-.14-1.6l1.07-.11c.06.53.11,1.08.15,1.62ZM19.41,77.42l-1.07-.13c.07-.54.14-1.08.22-1.62l1.06.16C19.55,76.35,19.48,76.89,19.41,77.42Zm129-.64c-.07-.52-.14-1.06-.23-1.59l1.07-.16c.08.53.16,1.08.23,1.61ZM19.87,74.24l-1.06-.18c.09-.53.19-1.07.29-1.61l1.06.21C20.06,73.18,20,73.72,19.87,74.24Zm128-.63c-.1-.53-.2-1.06-.31-1.58l1.06-.22c.11.53.21,1.07.31,1.61ZM20.49,71.09l-1-.24c.11-.52.24-1.06.37-1.59l1.05.26C20.73,70,20.61,70.57,20.49,71.09Zm126.78-.63c-.12-.52-.25-1-.38-1.56l1-.27q.21.8.39,1.59ZM21.26,68l-1-.29.45-1.57,1,.32C21.55,66.94,21.41,67.46,21.26,68Zm125.21-.62L146,65.81l1-.32c.16.52.32,1,.46,1.57ZM22.19,64.89l-1-.34c.17-.51.35-1,.53-1.55l1,.36C22.54,63.87,22.36,64.38,22.19,64.89Zm123.32-.6c-.17-.51-.35-1-.54-1.52l1-.37c.18.51.37,1,.54,1.54ZM23.28,61.85l-1-.38c.19-.51.4-1,.61-1.53l1,.42C23.67,60.85,23.47,61.35,23.28,61.85Zm121.12-.58c-.2-.49-.4-1-.61-1.48l1-.42c.22.5.42,1,.62,1.5ZM24.51,58.88l-1-.44c.22-.5.45-1,.69-1.49l1,.46C25,57.9,24.73,58.39,24.51,58.88Zm118.64-.55c-.23-.49-.45-1-.69-1.45l1-.47.69,1.47ZM25.89,56l-1-.49c.25-.48.5-1,.76-1.45l.95.51C26.38,55,26.13,55.49,25.89,56Zm115.86-.53c-.25-.47-.5-.94-.76-1.41l.95-.52c.26.47.52,1,.77,1.44ZM27.41,53.13l-.94-.53c.27-.47.55-1,.83-1.41l.92.55C28,52.2,27.67,52.67,27.41,53.13Zm112.8-.5-.82-1.37.92-.57c.28.46.56.93.83,1.4ZM29.07,50.37l-.91-.57c.29-.46.59-.92.89-1.37l.9.6C29.65,49.47,29.36,49.92,29.07,50.37Zm109.46-.47-.89-1.33.89-.61c.31.44.61.9.91,1.35ZM30.86,47.7,30,47.08c.31-.44.64-.89,1-1.32l.87.64Zm105.86-.45q-.47-.64-1-1.29l.86-.65c.33.43.66.87,1,1.31ZM32.78,45.13l-.85-.67c.34-.43.68-.85,1-1.27l.83.68Zm102-.43c-.33-.42-.68-.84-1-1.24l.83-.7c.35.42.7.84,1,1.26ZM34.83,42.65,34,41.94c.36-.41.72-.82,1.09-1.22l.8.73C35.54,41.84,35.18,42.25,34.83,42.65Zm97.88-.41c-.35-.4-.71-.8-1.07-1.19l.79-.74c.37.4.74.81,1.09,1.21ZM37,40.27l-.78-.74c.38-.4.76-.79,1.15-1.17l.76.77C37.74,39.5,37.36,39.89,37,40.27Zm93.54-.39-1.13-1.13.75-.78c.39.38.78.77,1.16,1.16ZM39.27,38l-.74-.79c.39-.37.8-.74,1.2-1.1l.72.8C40.06,37.27,39.66,37.64,39.27,38Zm89-.37c-.39-.37-.79-.73-1.19-1.08l.71-.81c.41.36.82.73,1.21,1.1ZM41.66,35.86,41,35c.42-.35.84-.71,1.26-1l.68.84C42.48,35.17,42.06,35.51,41.66,35.86Zm84.17-.35-1.24-1,.67-.84c.43.34.85.69,1.27,1ZM44.14,33.83,43.48,33c.43-.34.87-.67,1.3-1l.64.87Zm79.18-.34c-.42-.32-.86-.64-1.29-1l.64-.88,1.31,1ZM46.73,31.93,46.11,31c.44-.31.9-.62,1.35-.92l.59.9C47.61,31.32,47.16,31.62,46.73,31.93Zm74-.32-1.34-.9.59-.9,1.36.91ZM49.4,30.15l-.57-.91c.45-.29.92-.58,1.39-.85l.55.93Zm68.62-.3c-.45-.28-.92-.56-1.38-.82l.55-.94,1.4.84ZM52.16,28.51l-.53-.94c.47-.26.95-.53,1.43-.78l.5,1C53.09,28,52.62,28.25,52.16,28.51Zm63.08-.28-1.42-.76.5-.95c.48.24,1,.5,1.44.77ZM55,27l-.49-1c.49-.25,1-.48,1.47-.71l.46,1C56,26.54,55.46,26.78,55,27Zm57.4-.26-1.46-.69.45-1,1.48.7Zm-54.5-1.1-.44-1L59,24l.41,1Zm51.57-.24L108,24.8l.4-1,1.51.62Zm-48.6-1-.39-1L62,22.87l.35,1C61.86,24.07,61.35,24.25,60.86,24.44Zm45.6-.22-1.52-.54.35-1,1.55.55Zm-42.57-.85-.34-1,1.56-.49.31,1Zm39.52-.19-1.54-.46.3-1,1.56.47ZM67,22.46l-.28-1L68.27,21l.25,1Zm33.36-.16c-.51-.14-1-.27-1.56-.39L99,20.86c.53.12,1.06.26,1.58.39Zm-30.23-.6-.23-1.05c.53-.12,1.06-.23,1.6-.33l.2,1.06Zm27.1-.13-1.57-.31.19-1.06,1.6.31Zm-24-.47L73.06,20l1.62-.25.15,1.07ZM94,21c-.52-.09-1.06-.16-1.59-.23l.14-1.07,1.62.23Zm-17.61-.35-.12-1.07c.54-.07,1.08-.12,1.62-.17l.1,1.08C77.49,20.53,77,20.59,76.42,20.65Zm14.43-.07c-.53-.06-1.07-.11-1.6-.15l.09-1.08,1.62.16Zm-11.23-.22-.07-1.08,1.63-.08,0,1.07Zm8,0L86,20.25l0-1.08,1.63.07Zm-4.82-.09,0-1.08h1.63v1.08Z"/><path class="cls-3" d="M83.53,72.88l-1.31-1,.26-.35,1.3,1ZM80.91,71,79.6,70l.26-.35,1.31,1Zm-2.62-1.91L77,68.1l.26-.35,1.31,1Zm-2.62-1.91-1.3-1,.25-.35,1.31,1Zm-2.61-1.91-1.31-1,.26-.35,1.3.95Zm-2.62-1.91-1.31-1,.26-.35L70.7,63Zm-2.62-1.91-1.31-1,.26-.35,1.31,1ZM65.2,59.51l-1.3-1,.25-.35,1.31.95ZM62.59,57.6l-1.31-1,.25-.35,1.31,1ZM60,55.69l-1.31-1,.26-.35,1.31,1Zm-2.62-1.91-1.31-1,.26-.35,1.31,1Zm-2.62-1.91-1.3-1,.25-.35,1.31,1ZM52.12,50l-1.31-1,.25-.35,1.31,1ZM49.5,48.05l-1.31-1,.26-.35,1.31,1Zm-2.62-1.91-1.31-1,.26-.36,1.31,1Zm-2.62-1.91L43,43.28l.26-.36,1.31,1Z"/><path class="cls-3" d="M23.9,102.46l-.18-.4,1.48-.67.18.4Zm3-1.34-.18-.4,1.48-.66.18.4Zm2.95-1.33-.18-.4,1.48-.67.18.4Zm3-1.34-.18-.4,1.47-.66.18.39Zm3-1.33-.18-.4L37,96.05l.18.4Zm2.95-1.34-.18-.4L40,94.71l.18.4Zm3-1.34-.18-.39,1.48-.67.18.4Zm3-1.33-.18-.4L45.86,92l.18.4Zm3-1.34-.18-.39,1.47-.67.18.4Zm2.95-1.33-.18-.4,1.47-.67.18.4Zm3-1.34-.18-.4L54.72,88l.18.39Zm2.95-1.33-.18-.4,1.48-.67.18.4Zm3-1.34-.18-.4,1.48-.67.18.4Zm3-1.34-.18-.39L63.57,84l.18.4Zm3-1.33-.18-.4,1.47-.67.18.4Zm3-1.34L68,82l1.48-.67.18.4Zm2.95-1.33-.18-.4L72.43,80l.18.4Zm3-1.34-.18-.4,1.48-.66.18.39Zm3-1.33-.18-.4,1.47-.67.18.4ZM80,77.08l-.18-.4L81.28,76l.18.4Z"/><path class="cls-3" d="M25.15,92.41l-.3-.31.53-.5.3.31Zm1.71-1.61-.3-.32,1.17-1.11.3.32Zm2.35-2.23-.3-.32,1.17-1.11.31.32Zm2.35-2.23-.3-.31,1.18-1.12.3.32Zm2.35-2.23-.3-.31,1.18-1.12.3.32Zm2.35-2.22-.3-.32,1.18-1.12.3.32Zm2.36-2.23-.3-.32,1.17-1.11.3.31ZM41,77.43l-.3-.32L41.84,76l.3.31Zm2.35-2.23-.3-.32,1.18-1.11.3.32ZM45.67,73l-.3-.32,1.18-1.11.3.32ZM48,70.74l-.3-.32,1.18-1.11.3.32Zm2.36-2.23-.3-.31,1.17-1.12.3.32Zm2.35-2.23-.3-.31,1.17-1.12.3.32Zm2.35-2.22-.3-.32L56,62.62l.3.32Zm2.35-2.23-.3-.32,1.18-1.11.3.31Zm2.35-2.23-.3-.32,1.18-1.11.3.31Zm2.36-2.23-.31-.32L63,55.94l.3.32Zm2.35-2.23-.3-.32,1.17-1.11.3.32Zm2.35-2.23-.3-.31,1.17-1.12.31.32Zm2.35-2.23-.3-.31,1.18-1.12.3.32Zm2.35-2.22-.3-.32L72.42,47l.3.32Zm2.35-2.23-.3-.32,1.18-1.11.3.31ZM76.25,44l-.3-.32,1.17-1.11.3.31Zm2.35-2.23-.3-.32,1.17-1.11.3.31ZM81,39.54l-.3-.32,1.18-1.11.3.32Zm2.35-2.23L83,37l1.18-1.11.3.32Zm2.35-2.23-.3-.31,1.18-1.12.3.32ZM88,32.85l-.3-.31,1.17-1.12.3.32Zm2.35-2.22-.3-.32,1.17-1.12.3.32Zm2.35-2.23-.3-.32L93.59,27l.3.31Zm2.35-2.23-.3-.32,1.18-1.11.3.31Z"/><path class="cls-3" d="M135,103.68l-.43-1.09.4-.16.43,1.09Zm-1-2.59-.6-1.51.4-.16.6,1.51Zm-1.2-3-.6-1.51.4-.16.6,1.51Zm-1.2-3-.6-1.51.4-.16.6,1.51Zm-1.2-3-.6-1.51.4-.16.6,1.51Zm-1.2-3-.6-1.51.4-.16.6,1.51Zm-1.2-3-.6-1.51.4-.16.6,1.51Zm-1.2-3-.6-1.51.41-.16.6,1.51Zm-1.2-3-.6-1.51.41-.16.6,1.51Zm-1.2-3-.6-1.51.41-.16.6,1.51Zm-1.2-3-.6-1.51.41-.16.6,1.51Zm-1.2-3-.6-1.51.41-.16.6,1.51Zm-1.2-3-.6-1.51.41-.16.6,1.51Zm-1.2-3-.6-1.51.41-.16.6,1.51Zm-1.2-3-.6-1.51.41-.16.6,1.51Zm-1.2-3-.6-1.51.41-.16.6,1.51Zm-1.2-3-.59-1.51.4-.16.6,1.51Zm-1.19-3-.6-1.51.4-.16.6,1.51Zm-1.2-3-.6-1.51.4-.16.6,1.51Zm-1.2-3-.6-1.51.4-.16.6,1.51Zm-1.2-3-.6-1.51.4-.16.6,1.51Zm-1.2-3-.6-1.51.4-.16.6,1.51Zm-1.2-3-.6-1.51.4-.16.6,1.51Zm-1.2-3-.6-1.51.41-.16.59,1.51Z"/><path class="cls-3" d="M134.63,103.52l-1.38-.85.23-.37,1.38.85Zm-2.76-1.7-1.38-.85.23-.37,1.38.85Zm-2.76-1.7-1.38-.85.23-.37,1.38.85Zm-2.76-1.69L125,97.58l.23-.38,1.38.85Zm-2.76-1.7-1.38-.85.23-.37,1.38.85ZM120.83,95l-1.38-.85.23-.37,1.38.85Zm-2.76-1.7-1.38-.85.23-.37,1.38.85Zm-2.76-1.7-1.38-.85.23-.37,1.38.85Zm-2.76-1.7-1.38-.84.23-.38,1.38.85Zm-2.76-1.69-1.38-.85.23-.37,1.38.84ZM107,86.54l-1.38-.85.23-.37,1.38.85Zm-2.76-1.7L102.89,84l.23-.37,1.38.85Zm-2.76-1.7-1.38-.85.23-.37,1.38.85Zm-2.76-1.7-1.38-.85.23-.37,1.38.85ZM96,79.75l-1.38-.85.23-.38,1.38.85Zm-2.76-1.7-1.38-.85.23-.37,1.38.85Zm-2.75-1.7L89.1,75.5l.22-.37L90.7,76Zm-2.76-1.7-1.38-.85.22-.37,1.38.85Z"/><path class="cls-3" d="M86.54,73.82l-.18-.4,1.47-.67.19.39Zm2.95-1.35-.18-.39,1.47-.67.19.39Zm3-1.34-.18-.39,1.47-.67.19.39Zm3-1.34-.18-.39,1.47-.68.18.4Zm3-1.34-.18-.4,1.47-.67.18.4Zm3-1.34-.18-.4,1.47-.67.18.4Zm2.95-1.34-.18-.4,1.47-.67.18.4Zm3-1.34L107,64l1.47-.67.18.4Zm3-1.34-.18-.4,1.47-.67.18.4Zm3-1.34-.18-.4,1.47-.67.18.4Zm3-1.34-.18-.4,1.47-.67.18.4ZM119,59.07l-.18-.4,1.47-.67.18.4Zm3-1.34-.18-.4,1.47-.67.18.4Zm3-1.34-.18-.4,1.47-.67.18.39Zm3-1.35-.18-.39,1.47-.67.18.39Z"/></g><g id="shield"><path class="cls-4" d="M0,91.09H0v0Z"/><path class="cls-4" d="M0,91.09H0v0Z"/><path class="cls-4" d="M32.3,91.24v0Z"/><path class="cls-4" d="M32.3,91.24v0Z"/><path class="cls-5" d="M16.24,82.38c-3.76,4-9.76,7.32-16.18,8.73,0,.43,0,2.8-.06,13.75-.07,14.6,13.83,21.74,16,22.83,2.09-1,16.16-8.08,16.23-22.69.05-10.94.06-13.32.06-13.75A31.92,31.92,0,0,1,16.24,82.38Z"/><path class="cls-6" d="M16.2,85A34.11,34.11,0,0,1,1.81,92.49l-.06,12.38c0,5.66,2.23,10.78,6.69,15.22A31.94,31.94,0,0,0,16,125.63l.21-.11V85.05Z"/><path class="cls-2" d="M16.23,85.05v40.47a32.22,32.22,0,0,0,7.41-5.36c4.5-4.4,6.8-9.5,6.82-15.16l.06-12.38A34.19,34.19,0,0,1,16.23,85.05Z"/><path class="cls-5" d="M11.1,104v7.18c0,.8,9.77.8,9.77,0V104Zm5.38,3.81v2a.5.5,0,1,1-1,0v-2a1.21,1.21,0,1,1,1,0Z"/><path class="cls-5" d="M19.77,103.68l-1.23,0,.86-1A3,3,0,1,0,15,98.4l-.34.34-.7-.69.33-.35a4,4,0,0,1,5.78,5.63Z"/></g><g id="Document"><rect class="cls-6" x="88.9" y="6.53" width="19.12" height="23.87"/><rect class="cls-5" x="91.38" y="9" width="19.12" height="23.87"/><path class="cls-3" d="M110.82,33.18H91.06V8.68h19.76ZM91.7,32.54h18.48V9.31H91.7Z"/><rect class="cls-7" x="93.77" width="19.12" height="23.87"/><rect class="cls-5" x="100.66" y="3.13" width="9.89" height="1.55"/><rect class="cls-5" x="97.73" y="6.77" width="12.82" height="1.55"/><rect class="cls-5" x="97.73" y="10.42" width="12.82" height="1.55"/><rect class="cls-5" x="97.73" y="14.07" width="12.82" height="1.55"/><rect class="cls-5" x="97.73" y="17.71" width="12.82" height="1.55"/><rect class="cls-3" x="96.82" y="13.88" width="19.12" height="23.87"/><rect class="cls-8" x="103.08" y="17.8" width="9.89" height="1.55"/><rect class="cls-8" x="100.15" y="21.45" width="12.82" height="1.55"/><rect class="cls-8" x="100.15" y="25.09" width="12.82" height="1.55"/><rect class="cls-8" x="100.15" y="28.74" width="12.82" height="1.55"/><rect class="cls-8" x="100.15" y="32.39" width="12.82" height="1.55"/></g><g id="gear"><circle class="cls-5" cx="36.72" cy="35.61" r="7.51"/><path class="cls-9" d="M48.57,42.76a13.57,13.57,0,0,0,1.84-5.12l.56.08,1.11.16h0a15.34,15.34,0,0,0-.29-6l-1.64.41a13.72,13.72,0,0,0-2.33-4.93l1.37-1a15.58,15.58,0,0,0-4.45-4l-.88,1.45a13.92,13.92,0,0,0-5.12-1.84L39,20.24a15.71,15.71,0,0,0-6,.29l.41,1.65a13.87,13.87,0,0,0-4.93,2.32l-1-1.36a15.3,15.3,0,0,0-4,4.45l1.45.88A13.92,13.92,0,0,0,23,33.59l-1.19-.17-.48-.07h0a15.53,15.53,0,0,0,.29,6l1.65-.41a13.8,13.8,0,0,0,2.33,4.93l-1.36,1a15.28,15.28,0,0,0,4.44,4l.88-1.46a13.75,13.75,0,0,0,5.13,1.85l-.2,1.3,0,.38a15.72,15.72,0,0,0,6-.3l-.41-1.64A13.88,13.88,0,0,0,45,46.72l1,1.36a15.54,15.54,0,0,0,4-4.44Zm-15.73-.71a7.51,7.51,0,1,1,10.31-2.56A7.52,7.52,0,0,1,32.84,42.05Z"/><path class="cls-10" d="M20.45,41.76a7.1,7.1,0,0,0-2-2l.17-.25.33-.49h0A8.07,8.07,0,0,0,16,37.77l-.18.87a7.06,7.06,0,0,0-2.86,0l-.18-.88A8.16,8.16,0,0,0,9.86,39l.5.75a7.23,7.23,0,0,0-2,2l-.75-.5a8.14,8.14,0,0,0-1.22,2.92l.88.18a7.3,7.3,0,0,0,0,2.87l-.88.17A8.11,8.11,0,0,0,7.56,50.3l.74-.5a7.27,7.27,0,0,0,2,2l-.35.52-.14.22h0a8.07,8.07,0,0,0,2.92,1.22l.18-.88a7.24,7.24,0,0,0,2.86,0l.18.88a8.22,8.22,0,0,0,2.92-1.2l-.49-.75a7.4,7.4,0,0,0,2-2l.57.38.17.11a8.05,8.05,0,0,0,1.21-2.92l-.87-.17a7.3,7.3,0,0,0,0-2.87l.87-.18a8,8,0,0,0-1.2-2.92Zm-3.89,7.32a4,4,0,1,1,1.12-5.48A4,4,0,0,1,16.56,49.08Z"/></g><g id="card"><rect class="cls-9" x="131.11" y="44.73" width="21.75" height="13.01" rx="6.5"/><rect class="cls-11" x="131.11" y="47.19" width="21.75" height="2.24"/><path class="cls-11" d="M136.09,55.25h-3.2a.37.37,0,0,0-.37.37h0a.37.37,0,0,0,.37.36h3.2a.37.37,0,0,0,.37-.36h0A.37.37,0,0,0,136.09,55.25Z"/><path class="cls-11" d="M141,55.25h-3.2a.37.37,0,0,0-.37.37h0a.37.37,0,0,0,.37.36H141a.37.37,0,0,0,.37-.36h0A.37.37,0,0,0,141,55.25Z"/><path class="cls-11" d="M145.93,55.25h-3.2a.37.37,0,0,0-.37.37h0a.37.37,0,0,0,.37.36h3.2a.37.37,0,0,0,.37-.36h0A.37.37,0,0,0,145.93,55.25Z"/><path class="cls-11" d="M150.85,55.25h-3.2a.36.36,0,0,0-.37.37h0a.36.36,0,0,0,.37.36h3.2a.36.36,0,0,0,.36-.36h0A.36.36,0,0,0,150.85,55.25Z"/><path class="cls-11" d="M132.75,45.39h0a.41.41,0,0,0-.41.41v.14a.41.41,0,0,0,.41.41h0a.4.4,0,0,0,.4-.41V45.8A.41.41,0,0,0,132.75,45.39Z"/><path class="cls-11" d="M133.62,45.87h0a.47.47,0,0,0,.48.48h1.69a.48.48,0,0,0,.48-.48h0a.49.49,0,0,0-.48-.48H134.1A.48.48,0,0,0,133.62,45.87Z"/><rect class="cls-12" x="132.76" y="50.64" width="3.46" height="3.15" rx="1.58"/></g><g id="folder"><path class="cls-13" d="M145.8,96.33V94.85a1.23,1.23,0,0,0-1.22-1.23h-13a1.23,1.23,0,0,0-1.22,1.23v26.26H164V96.33Z"/><polygon class="cls-5" points="165.39 97.23 132.4 97.23 130.35 121.11 163.83 121.11 165.39 97.23"/><path class="cls-14" d="M164,121.11H130.35l3.57-23.58a1.41,1.41,0,0,1,1.39-1.2H166.1A1.41,1.41,0,0,1,167.5,98Z"/><circle class="cls-5" cx="148.95" cy="109.3" r="5.69"/><path class="cls-8" d="M149,109.07a1.79,1.79,0,0,0,1.4-.69,1.73,1.73,0,0,0,.38-1.11,1.79,1.79,0,1,0-3.57,0,1.73,1.73,0,0,0,.38,1.11A1.79,1.79,0,0,0,149,109.07Z"/><path class="cls-8" d="M152.11,112.27c0,1.13-6.32,1.13-6.32,0V111c.25-1.81,5.81-1.88,6.33,0Z"/><circle class="cls-12" cx="165.55" cy="98.13" r="9"/><path class="cls-5" d="M165.55,107.46a9.33,9.33,0,1,1,9.33-9.33A9.34,9.34,0,0,1,165.55,107.46Zm0-18a8.68,8.68,0,1,0,8.67,8.68A8.68,8.68,0,0,0,165.55,89.45Z"/><path d="M162.26,97.89v4.66c0,.52,6.34.52,6.34,0V97.89Zm3.49,2.48v1.32a.32.32,0,1,1-.64,0v-1.33a.78.78,0,1,1,1.1-.71A.79.79,0,0,1,165.75,100.37Z"/><path d="M167.88,97.7l-.8,0,.56-.65a2,2,0,0,0-2.82-2.75l-.22.23-.46-.45.22-.22a2.61,2.61,0,0,1,3.74,3.64Z"/></g><g id="flying_elements" data-name="flying elements"><path class="cls-15" d="M60.29,14.41a4.11,4.11,0,1,0-5.27,0h0v.78h0v.33a.48.48,0,0,0,.41.48.47.47,0,0,0,.51-.46v-.27a.07.07,0,0,1,.08-.08.08.08,0,0,1,.08.08v.25a.49.49,0,0,0,.42.48.46.46,0,0,0,.5-.46v-.27a.08.08,0,0,1,.09-.08.08.08,0,0,1,.08.08v.25a.48.48,0,0,0,.41.48.47.47,0,0,0,.51-.46v-.27a.08.08,0,0,1,.08-.08.07.07,0,0,1,.08.08v.27a.47.47,0,0,0,.46.46.46.46,0,0,0,.46-.46v-.27a.08.08,0,0,1,.09-.08.08.08,0,0,1,.08.08v.27a.46.46,0,1,0,.92,0V14.41Zm-1.06-3.9a1.41,1.41,0,1,1-1.4,1.41A1.41,1.41,0,0,1,59.23,10.51Zm-1.65,2.54c.19,0,.46.69.35.8a1.05,1.05,0,0,1-.78,0C57.05,13.75,57.38,13.05,57.58,13.05Zm-3.13-1.13a1.41,1.41,0,1,1,1.4,1.41A1.41,1.41,0,0,1,54.45,11.92Z"/><path class="cls-15" d="M34.28,72.59a4.11,4.11,0,1,0-5.27,0h0v.77h0v.34a.49.49,0,0,0,.42.48.47.47,0,0,0,.51-.46v-.27A.08.08,0,0,1,30,73.4a.09.09,0,0,1,.08.09v.25a.49.49,0,0,0,.42.48.46.46,0,0,0,.5-.46v-.27a.09.09,0,0,1,.08-.09.09.09,0,0,1,.09.09v.25a.48.48,0,0,0,.41.48.47.47,0,0,0,.51-.46v-.27a.08.08,0,1,1,.16,0v.27a.47.47,0,0,0,.46.46.46.46,0,0,0,.46-.46v-.27a.09.09,0,0,1,.09-.09.09.09,0,0,1,.08.09v.27a.46.46,0,0,0,.46.46.47.47,0,0,0,.46-.46V72.59Zm-1.06-3.9a1.41,1.41,0,1,1-1.4,1.41A1.41,1.41,0,0,1,33.22,68.69Zm-1.65,2.54c.19,0,.46.69.35.8a1.05,1.05,0,0,1-.78,0C31,71.93,31.37,71.23,31.57,71.23ZM28.44,70.1a1.41,1.41,0,1,1,1.4,1.4A1.41,1.41,0,0,1,28.44,70.1Z"/><path class="cls-15" d="M137,27.87a3.22,3.22,0,1,0-4.13,0h0v.61h0v.26a.35.35,0,0,0,.32.37.36.36,0,0,0,.4-.36v-.21a.06.06,0,0,1,.06-.06.07.07,0,0,1,.07.06v.2a.35.35,0,0,0,.32.37.36.36,0,0,0,.4-.36v-.21a.06.06,0,0,1,.06-.06.07.07,0,0,1,.07.06v.2a.35.35,0,0,0,.32.37.36.36,0,0,0,.4-.36v-.21a.06.06,0,0,1,.06-.06.07.07,0,0,1,.07.06v.21a.37.37,0,0,0,.36.37.37.37,0,0,0,.36-.37v-.21a.06.06,0,0,1,.06-.06.07.07,0,0,1,.07.06v.21a.37.37,0,0,0,.36.37.37.37,0,0,0,.36-.37v-.91Zm-.83-3.05a1.1,1.1,0,1,1-1.1,1.1A1.1,1.1,0,0,1,136.16,24.82Zm-1.3,2c.15,0,.36.55.28.63a.81.81,0,0,1-.61,0C134.45,27.35,134.71,26.8,134.86,26.8Zm-2.44-.88a1.1,1.1,0,1,1,1.1,1.1A1.1,1.1,0,0,1,132.42,25.92Z"/><path class="cls-15" d="M147.3,140.1a3.21,3.21,0,1,0-4.12,0h0v.61h0V141a.37.37,0,0,0,.33.37.36.36,0,0,0,.39-.36v-.21s0-.06.07-.06a.06.06,0,0,1,.06.06v.2a.37.37,0,0,0,.33.37.36.36,0,0,0,.39-.36v-.21s0-.06.07-.06a.06.06,0,0,1,.06.06v.2a.37.37,0,0,0,.33.37.36.36,0,0,0,.39-.36v-.21s0-.06.07-.06a.06.06,0,0,1,.06.06V141a.36.36,0,1,0,.72,0v-.21s0-.06.07-.06a.06.06,0,0,1,.06.06V141a.36.36,0,0,0,.72,0v-.91Zm-.82-3a1.1,1.1,0,1,1-1.1,1.1A1.1,1.1,0,0,1,146.48,137.05Zm-1.3,2c.15,0,.36.55.28.63a.81.81,0,0,1-.61,0C144.77,139.58,145,139,145.18,139Zm-2.45-.88a1.1,1.1,0,1,1,1.1,1.1A1.1,1.1,0,0,1,142.73,138.15Z"/><path class="cls-12" d="M82.27,54,67.89,78.86a1.94,1.94,0,0,0,1.68,2.91H98.32A1.94,1.94,0,0,0,100,78.86L85.62,54A1.93,1.93,0,0,0,82.27,54Z"/><path d="M98.32,80.54H69.57A.71.71,0,0,1,69,79.48l14.37-24.9a.73.73,0,0,1,1.23,0l14.37,24.9a.71.71,0,0,1-.61,1.06Zm-28.55-.82H98.12L83.94,55.16ZM83.84,55Z"/><path d="M84,72.94h0a1.57,1.57,0,0,1-1.57-1.46l-.48-7a2.06,2.06,0,0,1,2-2.19h0a2,2,0,0,1,2,2.19l-.48,7A1.56,1.56,0,0,1,84,72.94Z"/><circle cx="83.99" cy="75.73" r="1.55"/><path d="M146.33,75s0,0,0,0l-2.5-.24a.17.17,0,0,1-.12-.08l-1.53-2.44a.16.16,0,0,1,.05-.23.16.16,0,0,1,.22.06l1.49,2.37,2.42.24a.17.17,0,0,1,.15.18A.16.16,0,0,1,146.33,75Z"/><path d="M147.55,82.21a.18.18,0,0,1-.15-.08l-1.63-2.75a.17.17,0,0,1,0-.17L147,77.05a.17.17,0,0,1,.23-.06.16.16,0,0,1,.06.22l-1.23,2.08L147.68,82a.16.16,0,0,1-.05.22Z"/><path d="M143.64,80.28h-.06a.16.16,0,0,1-.1-.2l.73-2.27a.16.16,0,0,1,.07-.09l2.07-1.19a.17.17,0,1,1,.17.29l-2,1.15-.71,2.21A.15.15,0,0,1,143.64,80.28Z"/><path d="M143.65,76.43a.17.17,0,0,1-.1,0l-1.67-1a.16.16,0,0,1,0-.22.17.17,0,0,1,.23-.06l1.61,1,2.48-.39a.18.18,0,0,1,.19.14.16.16,0,0,1-.14.18l-2.53.4Z"/><path d="M145.79,75.23a2.94,2.94,0,0,1,5.8-.91c.25,1.6-.72,3.88-2.32,4.13S146,76.84,145.79,75.23Z"/><path class="cls-5" d="M150.26,73.87a.83.83,0,0,0-.35-1.09.82.82,0,0,0-1.1.32Z"/><path class="cls-5" d="M147,74.46a.82.82,0,0,1,1.08-1.23Z"/><path d="M149.81,72.29s0-1.31-1.07-1.62a1.74,1.74,0,0,1,0,1.43Z"/><path d="M146.93,72.75a1.74,1.74,0,0,1,.52-1.88,1.76,1.76,0,0,0,.44,1.36Z"/><path d="M150.93,74.3a.18.18,0,0,1-.16-.1.17.17,0,0,1,.09-.22l2.22-1,.69-2.71a.16.16,0,1,1,.31.08l-.7,2.79a.17.17,0,0,1-.09.11l-2.3,1Z"/><path d="M152,81.51h0a.15.15,0,0,1-.12-.19l.68-3-1.81-1.6a.16.16,0,0,1,.22-.24l1.88,1.66a.18.18,0,0,1,.05.16l-.7,3.12A.18.18,0,0,1,152,81.51Z"/><path d="M155.11,78.47a.15.15,0,0,1-.14-.07l-1.36-1.88L151.34,76a.16.16,0,0,1-.13-.19.17.17,0,0,1,.2-.13l2.33.5a.13.13,0,0,1,.1.06l1.39,1.93a.16.16,0,0,1,0,.23Z"/><path d="M151.38,75.21a.17.17,0,0,1-.17-.14.17.17,0,0,1,.14-.19l2.47-.39,1.24-1.44a.16.16,0,0,1,.23,0,.17.17,0,0,1,0,.23L154,74.75a.12.12,0,0,1-.1,0l-2.53.4Z"/><path d="M72.21,45a.16.16,0,0,1-.13-.06l-1.39-2a.22.22,0,0,1,0-.14l.79-2.63a.16.16,0,0,1,.2-.1.15.15,0,0,1,.1.19L71,42.88l1.35,1.89a.16.16,0,0,1,0,.22A.15.15,0,0,1,72.21,45Z"/><path d="M67.82,50.4h0a.15.15,0,0,1-.1-.2l1-2.9a.17.17,0,0,1,.12-.1l2.35-.44a.16.16,0,0,1,.19.12.15.15,0,0,1-.13.18l-2.26.43L68,50.29A.15.15,0,0,1,67.82,50.4Z"/><path d="M66.75,46.38a.16.16,0,0,1-.15-.09.17.17,0,0,1,.09-.21l2.08-.9h.11l2.16.74a.16.16,0,0,1,.09.2.15.15,0,0,1-.19.1l-2.1-.72-2,.87Z"/><path d="M71.4,45.54a.18.18,0,0,1-.1,0l-1.88-1.57a.12.12,0,0,1,0-.09L69.05,42a.15.15,0,0,1,.13-.18.15.15,0,0,1,.18.12l.3,1.79,1.84,1.53a.17.17,0,0,1,0,.22A.16.16,0,0,1,71.4,45.54Z"/><path d="M71.61,44.71a2.8,2.8,0,0,1,4.3,3.59c-1,1.19-3.24,1.92-4.43.93S70.62,45.9,71.61,44.71Z"/><path class="cls-5" d="M75.39,47.06a.79.79,0,0,0,.57-.93.78.78,0,0,0-.92-.59Z"/><path class="cls-5" d="M72.91,45.07a.77.77,0,0,1,.78-.75.78.78,0,0,1,.78.76Z"/><path d="M76.25,45.75A1.65,1.65,0,0,0,76.74,44a1.68,1.68,0,0,1-1,.9Z"/><path d="M74.11,44s.65-1.08,1.67-.81a1.71,1.71,0,0,0-.7,1.17Z"/><path d="M77.78,48.88h-.06l-2.17-1a.16.16,0,0,1,.13-.29l2.1,1,2.38-1.21a.16.16,0,1,1,.14.28l-2.45,1.25Z"/><path d="M71.1,53.14a.17.17,0,0,1-.14-.08.16.16,0,0,1,.07-.21l2.6-1.41v-2.3A.17.17,0,0,1,73.8,49a.16.16,0,0,1,.16.16l0,2.39a.16.16,0,0,1-.08.14l-2.68,1.45A.12.12,0,0,1,71.1,53.14Z"/><path d="M75.24,53.48h0a.15.15,0,0,1-.12-.19l.5-2.15L74.51,49.2a.14.14,0,0,1,.06-.21.15.15,0,0,1,.21.06l1.11,2a.14.14,0,0,1,0,.11l-.51,2.21A.17.17,0,0,1,75.24,53.48Z"/><path d="M77.13,50.32a.17.17,0,0,1-.1,0l-1.88-1.57a.16.16,0,0,1,.2-.24L77.18,50,79,50a.16.16,0,0,1,.16.16.16.16,0,0,1-.15.16Z"/><path d="M40,130.8a.21.21,0,0,1-.16-.08.19.19,0,0,1,0-.28l2.48-1.89a.19.19,0,0,1,.18,0l3.45.93a.21.21,0,0,1,.15.25.2.2,0,0,1-.25.14l-3.36-.9-2.41,1.82A.17.17,0,0,1,40,130.8Z"/><path d="M37.25,129.46a.19.19,0,0,1-.2-.16l-.64-2.93-3.7-1.09a.21.21,0,0,1-.13-.26.2.2,0,0,1,.25-.13L36.64,126a.19.19,0,0,1,.14.15l.67,3a.21.21,0,0,1-.16.24Z"/><path d="M38.33,129.25h-.06a.2.2,0,0,1-.14-.25l.86-2.76-1.22-2.61a.21.21,0,0,1,.1-.27.2.2,0,0,1,.27.1l1.25,2.68a.2.2,0,0,1,0,.15l-.88,2.83A.2.2,0,0,1,38.33,129.25Z"/><path d="M39.24,129.76a.22.22,0,0,1-.13,0,.22.22,0,0,1,0-.29l2-2.5a.2.2,0,0,1,.12-.08l2.39-.48a.21.21,0,0,1,.24.16.21.21,0,0,1-.16.24l-2.31.47-1.93,2.45A.2.2,0,0,1,39.24,129.76Z"/><path d="M40.12,129.81a3.65,3.65,0,0,1-4.51,5.73C34,134.3,33,131.4,34.23,129.82S38.54,128.56,40.12,129.81Z"/><path class="cls-5" d="M37.21,134.83a1,1,0,0,0,2-.52Z"/><path class="cls-5" d="M39.7,131.52a1,1,0,0,1,0,2Z"/><path d="M38.94,135.89a2.16,2.16,0,0,0,2.35.57,2.2,2.2,0,0,1-1.21-1.3Z"/><path d="M41.19,133s1.42.8,1.1,2.14a2.16,2.16,0,0,0-1.55-.86Z"/><path d="M36.85,141.35a.21.21,0,0,1-.18-.11L35,138.1a.22.22,0,0,1,0-.18l1.25-2.86a.2.2,0,1,1,.37.17L35.36,138,37,141a.22.22,0,0,1-.08.28Z"/><path d="M31.32,133.11a.22.22,0,0,1-.18-.1l-2-3.44a.2.2,0,0,1,.07-.28.21.21,0,0,1,.28.08l1.94,3.33,3-.07h0a.2.2,0,0,1,.2.2.21.21,0,0,1-.2.21l-3.12.07Z"/><path d="M31.94,135.66h0l-2.9-.58a.2.2,0,0,1,.08-.4l2.83.57,2.47-1.48a.2.2,0,0,1,.28.07.19.19,0,0,1-.07.27l-2.54,1.53A.2.2,0,0,1,31.94,135.66Z"/><path d="M33.32,139.84a.2.2,0,0,1-.2-.2l-.1-2.43a.21.21,0,0,1,0-.13l2-2.51a.2.2,0,0,1,.32.25l-1.93,2.45.1,2.36a.22.22,0,0,1-.2.21Z"/><path class="cls-12" d="M137.23,177.87h0a.36.36,0,0,0,.32.54h0a.36.36,0,0,0,.31-.54h0A.36.36,0,0,0,137.23,177.87Z"/><path d="M138.06,178.37H137v0l.52-.89h0l.51.89a0,0,0,0,1,0,0Zm-1,0h1l-.5-.87Zm.5-.88Z"/><path d="M137.55,178.1h0a.06.06,0,0,1-.06,0v-.25a.07.07,0,0,1,.07-.08h0a.07.07,0,0,1,.07.08l0,.25A0,0,0,0,1,137.55,178.1Z"/><circle cx="137.55" cy="178.2" r="0.06"/><circle class="cls-12" cx="17.43" cy="136.15" r="1.54"/><circle class="cls-15" cx="5.08" cy="73.47" r="2.95"/><path class="cls-15" d="M118.38,117.49h0a.51.51,0,0,1-.51-.51v-5.47a.51.51,0,0,1,.51-.51h0a.5.5,0,0,1,.51.51V117A.51.51,0,0,1,118.38,117.49Z"/><path class="cls-15" d="M115.13,114.24h0a.51.51,0,0,1,.52-.51h5.47a.51.51,0,0,1,.51.51h0a.51.51,0,0,1-.51.52h-5.47A.52.52,0,0,1,115.13,114.24Z"/><path class="cls-15" d="M130.18,71.78h0a.51.51,0,0,1-.51-.51V65.8a.51.51,0,0,1,.51-.51h0a.51.51,0,0,1,.51.51v5.47A.51.51,0,0,1,130.18,71.78Z"/><path class="cls-15" d="M126.93,68.54h0a.51.51,0,0,1,.51-.52h5.48a.51.51,0,0,1,.51.52h0a.51.51,0,0,1-.51.51h-5.48A.51.51,0,0,1,126.93,68.54Z"/><path class="cls-5" d="M79.05,104.92A1.9,1.9,0,1,1,81,103,1.9,1.9,0,0,1,79.05,104.92Zm0-3.27A1.38,1.38,0,1,0,80.43,103,1.37,1.37,0,0,0,79.05,101.65Z"/><rect class="cls-16" x="39" y="108.07" width="12.4" height="9.43" transform="translate(-0.41 0.16) rotate(-0.21)"/><rect class="cls-17" x="39.59" y="108.65" width="11.23" height="8.27" transform="translate(-0.41 0.16) rotate(-0.21)"/><polygon class="cls-16" points="40.32 116.36 47.88 116.34 43.74 112.37 40.32 116.36"/><polygon class="cls-16" points="43.76 116.35 50.11 116.33 46.66 113.05 43.76 116.35"/><circle class="cls-16" cx="46.1" cy="111.49" r="0.88"/><rect class="cls-16" x="94.8" y="44.77" width="12.4" height="9.43" transform="translate(-0.18 0.37) rotate(-0.21)"/><rect class="cls-17" x="95.39" y="45.35" width="11.23" height="8.27" transform="translate(-0.18 0.37) rotate(-0.21)"/><polygon class="cls-16" points="96.12 53.06 103.68 53.04 99.54 49.07 96.12 53.06"/><polygon class="cls-16" points="99.56 53.05 105.91 53.03 102.46 49.75 99.56 53.05"/><circle class="cls-16" cx="101.9" cy="48.19" r="0.88"/></g><path class="cls-18" d="M146.11,180H132a.62.62,0,0,1-.62-.62.61.61,0,0,1,.62-.61h14.08a.61.61,0,0,1,.61.61A.61.61,0,0,1,146.11,180Z"/><path class="cls-18" d="M126.82,180h-101a.61.61,0,0,1-.61-.62.61.61,0,0,1,.61-.61h101a.61.61,0,0,1,.61.61A.61.61,0,0,1,126.82,180Z"/><path class="cls-9" d="M110.86,177.32l-53,.82c-6.33-5.75-11.65-18-9.83-25.77,2.06-8.85,5-16.47,8.16-21.09a13.1,13.1,0,0,1,4.11-4.21c6.54-3.55,39.75-4.16,46.58,0a11.35,11.35,0,0,1,2.74,2.58c3.4,4.26,6.75,12.26,9.14,21.1C121.15,159.74,117.4,171.41,110.86,177.32Z"/><path class="cls-19" d="M109.57,129.65c-10.88.87-18.39,8.28-24.75,8.92-5.28,1.36-21.5-12.08-28.68-7.29a13.1,13.1,0,0,1,4.11-4.21c6.54-3.55,39.75-4.16,46.58,0A11.35,11.35,0,0,1,109.57,129.65Z"/><path d="M105.68,120.64c-.22,7.12-8.92,11.63-14.71,15.15-6.74,4.1-6.83,3.48-17.74-3.69-5.1-3.35-11.14-6.46-12.22-11-2.37-9.91,10.8-30.44,22.93-30.44S106.08,108,105.68,120.64Z"/><path class="cls-20" d="M98.62,115a22.35,22.35,0,0,1-.58,3.54,19.54,19.54,0,0,1-8.4,11.71,11.09,11.09,0,0,1-5.7,1.83l-.61,0c-4.47-.45-11.3-5.67-13.44-13.48a18,18,0,0,1-.63-3.57,24.88,24.88,0,0,1-.06-2.85c.34-9.85,6.5-16.74,14.74-16.74s14.4,6.87,14.74,16.71A28,28,0,0,1,98.62,115Z"/><path class="cls-20" d="M70.64,118.44a1.8,1.8,0,0,1-.75.15A3.36,3.36,0,0,1,67,116.35c-.73-1.7-.28-3.52,1-4.07a2,2,0,0,1,1.2-.11,3.55,3.55,0,0,1,2.44,2.2C72.37,116.07,71.92,117.88,70.64,118.44Z"/><path class="cls-20" d="M100.63,116.35A3.48,3.48,0,0,1,98,118.56a1.81,1.81,0,0,1-1.05-.12,2.29,2.29,0,0,1-1.28-1.83,3.67,3.67,0,0,1,.26-2.2v0a3.46,3.46,0,0,1,2.7-2.23,2,2,0,0,1,1,.14C100.91,112.83,101.36,114.65,100.63,116.35Z"/><path class="cls-21" d="M100.63,116.35A3.48,3.48,0,0,1,98,118.56a19.54,19.54,0,0,1-8.4,11.71c2.5-2.54,6.36-10.12,5.56-11.47s-5.83,1.6-7.5-.09c-2.65-2.69-2.91-2.6-5.56-.12-3,2.87-6.3-.79-9.21-.26s4.35,12.52,10.4,13.74c-4.47-.45-11.3-5.67-13.44-13.48A3.36,3.36,0,0,1,67,116.35c-.73-1.7-.28-3.52,1-4.07a2,2,0,0,1,1.2-.11c.34-9.85,6.5-16.74,14.74-16.74s14.4,6.87,14.74,16.71a2,2,0,0,1,1,.14C100.91,112.83,101.36,114.65,100.63,116.35Z"/><path d="M98.94,111.94v1a3.9,3.9,0,0,1-1.55,2.93c-1.85,1.55-5.15,2.52-8.87,2.9-1.44-.09-2.62-4.17-3.81-4.17s-1.54,3.88-4.09,4.17c-4.35-.44-8.32-1.62-10.31-3.5A3.85,3.85,0,0,1,69,112.39V111C69,107.62,99.05,108.55,98.94,111.94Z"/><path class="cls-22" d="M82.63,120A2.1,2.1,0,0,0,84.82,122,2.06,2.06,0,0,0,87,120.11a2.73,2.73,0,0,1-2.26,1.29A2.37,2.37,0,0,1,82.63,120Z"/><path class="cls-21" d="M81.17,125.15c.93.76,5.92.49,6.13,0S83.35,125.45,81.17,125.15Z"/><path class="cls-22" d="M81.79,125.89a12.71,12.71,0,0,0,4.58,0c.43,0-.42.44-.89.51A5.18,5.18,0,0,1,81.79,125.89Z"/><path class="cls-5" d="M97.39,115.9c-1.85,1.55-5.15,2.52-8.87,2.9-1.44-.09-2.62-4.17-3.81-4.17s-1.54,3.88-4.09,4.17c-4.35-.44-8.32-1.62-10.31-3.5,2.39-2.06,7.42-3.47,13.23-3.47C89.91,111.83,95.33,113.52,97.39,115.9Z"/><path class="cls-9" d="M107.21,115.14c-1.91-11.92-10.72-25.8-22.39-25.8-9.52,0-20.89,13.75-24,24.41a19.19,19.19,0,0,0-.8,4.17,10.51,10.51,0,0,0,.27,3.52c1.3,4.75,11.49,11.75,18.15,15.29a19.91,19.91,0,0,0,6.06,1.85c1.09.47,4-1,5-1.55,6.88-3.71,17.9-10.34,18.09-16.5v-.12A28.33,28.33,0,0,0,107.21,115.14ZM84.7,137.08C82.26,133,66.93,124.31,67.76,121c2.1-8.4,9-12.31,16.8-11.9,8.79.47,15.59,5.79,16.12,10.24C100.46,123.3,87.34,132.58,84.7,137.08Z"/><path d="M98.93,119.89c-2.23,4-6.63,9.73-10.73,12.26a7.19,7.19,0,0,1-3.9,1.28,6.9,6.9,0,0,1-1.84-.32c-6.56-2-12.63-12.55-12.63-12.55,3.53,1.62,6.07,1.66,8.1,1.17,2.76-.68,4.56-2.36,6.58-2.35,1.57,0,3.54,1.87,6.83,2.23A13.38,13.38,0,0,0,98.93,119.89Z"/><path class="cls-23" d="M91.34,121.61a24.88,24.88,0,0,1-3.14,10.54,7.19,7.19,0,0,1-3.9,1.28,6.9,6.9,0,0,1-1.84-.32c-2.69-2.58-4.38-7.88-4.53-11.38,2.76-.68,4.56-2.36,6.58-2.35C86.08,119.4,88.05,121.25,91.34,121.61Z"/><path class="cls-24" d="M79.33,137.09C72.48,134,61.21,126,59.91,121.23a10.77,10.77,0,0,1-.28-3.52c.63,3.23,3.35,6.72,6.65,9.88C70.22,131.37,78.34,133.63,79.33,137.09Z"/><path class="cls-24" d="M107.22,120.19v.13c-.19,6.16-12,13.48-19.25,17.08C90.05,132.17,105.32,128.49,107.22,120.19Z"/><path class="cls-25" d="M80.68,154.87h-.05a.19.19,0,0,1-.14-.25c2.33-8.1,1.66-15.45.67-17a.21.21,0,0,1,0-.29.22.22,0,0,1,.29.06c1.06,1.61,1.79,9-.62,17.3A.21.21,0,0,1,80.68,154.87Z"/><path class="cls-25" d="M80.56,138.31H80.5a.2.2,0,0,1-.14-.25,1.38,1.38,0,0,1,.7-.85,1.1,1.1,0,0,1,1,.16.21.21,0,0,1,.06.28.2.2,0,0,1-.28.07.71.71,0,0,0-.64-.13.93.93,0,0,0-.45.58A.21.21,0,0,1,80.56,138.31Z"/><path class="cls-25" d="M86.86,154.87a.2.2,0,0,1-.2-.15C84.25,146.39,85,139,86,137.42a.22.22,0,0,1,.29-.06.21.21,0,0,1,0,.29c-1,1.51-1.66,8.86.67,17a.2.2,0,0,1-.14.25Z"/><path class="cls-25" d="M87,138.31a.21.21,0,0,1-.2-.15h0a.93.93,0,0,0-.45-.58.71.71,0,0,0-.64.13.2.2,0,0,1-.28-.07.21.21,0,0,1,.06-.28,1.1,1.1,0,0,1,1-.16,1.38,1.38,0,0,1,.7.85.2.2,0,0,1-.14.25Z"/><path class="cls-19" d="M107.34,115.32C104.53,106.5,98.8,96.76,86,95.75c-13.71-1.08-22.75,10.35-25.09,18.17C63.63,103.28,74.63,89.06,84.82,89,96.49,89,105.44,103.4,107.34,115.32Z"/><path d="M115.83,179.54H51.9l-8.77-30.48a2.32,2.32,0,0,1,2.23-3h77a2.32,2.32,0,0,1,2.23,3Z"/><path class="cls-26" d="M86.92,168.85a5,5,0,0,0,2.36-3.43c.45-3-2.08-5.73-5.73-5.73s-6.19,2.77-5.73,5.73a5,5,0,0,0,2.42,3.47h0l.07.76h0l.08.72a.54.54,0,0,0,.53.43c.33,0,.6-.17.58-.41l0-.67s0-.07.1-.07.1,0,.1.07l0,.65a.52.52,0,0,0,.52.43c.33,0,.6-.17.6-.41l0-.67s0-.07.1-.07.1,0,.1.07v.65a.5.5,0,0,0,.51.43c.32,0,.61-.17.61-.41v-.67s0-.07.1-.07.1,0,.1.07v.67c0,.23.24.41.54.41s.56-.18.57-.41l0-.67a.1.1,0,0,1,.11-.07c.05,0,.1,0,.09.07l0,.67c0,.23.22.41.53.41a.56.56,0,0,0,.59-.41l.13-1.34v0l0-.16Zm-1.07-4.39a1.65,1.65,0,0,1,1.81,1.71,1.94,1.94,0,0,1-2,1.56,1.69,1.69,0,0,1-1.83-1.56A1.91,1.91,0,0,1,85.85,164.46Zm-2.37,3c.25,0,.59.75.46.85a1.59,1.59,0,0,1-1,0C82.8,168.18,83.22,167.43,83.48,167.43Zm-4.28-1.26A1.65,1.65,0,0,1,81,164.46a1.92,1.92,0,0,1,2,1.71,1.68,1.68,0,0,1-1.82,1.56A2,2,0,0,1,79.2,166.17Z"/></g></g></g></svg>