<?xml version="1.0" encoding="UTF-8" standalone="no"?><svg xmlns="http://www.w3.org/2000/svg" viewBox="0 0 63.42 70"><defs><style>.cls-1{fill:#abb5bf;}.cls-2{fill:#005098;}.cls-3{fill:#97a4b0;}.cls-4{fill:#0e8ad9;}.cls-5{fill:#e2e2e3;}.cls-6{fill:#005da8;}.cls-7{fill:#00559e;}</style></defs><g id="Layer_2" data-name="Layer 2"><g id="Layer_1-2" data-name="Layer 1"><path class="cls-1" d="M40.07,31.1l-2.08-1-.56-.42a10.27,10.27,0,0,1-1.79-1.46c-.56-.73.34-1.31.51-2a5.07,5.07,0,0,0-4.59-6.44c-.94,0-1.14-.44-1.27-1.22a18,18,0,0,1,0-5.33c.08-.85.34-1.28,1.4-1.34a5,5,0,0,0,4.08-7.33,1,1,0,0,1,.32-1.52,18.19,18.19,0,0,1,5-2.88c.62-.24,1-.27,1.4.41a5.06,5.06,0,0,0,8.67,0c.27-.47.52-.69,1.09-.48A17.19,17.19,0,0,1,57.83,3.4a.59.59,0,0,1,.17.79c-1.32,3.14-1,4.81,1.45,7-1.22,1.21-2.2,2.67-3.76,3.5A9.85,9.85,0,0,0,52.49,9c-3.4-3-10.16-3-13.25,2.09-3.49,5.75-.53,12.28,6.18,13.73a1.91,1.91,0,0,1-.75,1.27l-3.78,3.78A2.24,2.24,0,0,0,40.07,31.1Z"/><path class="cls-2" d="M58.47,40.36q0-9.36,0-18.74a4.84,4.84,0,0,0-.66,5.61,1,1,0,0,1-.34,1.45,18.68,18.68,0,0,1-4.69,2.78,1.23,1.23,0,0,1-1.81-.52,4.72,4.72,0,0,0-5.26-2,4.27,4.27,0,0,0-2.84,1.64c-1.12,1.37-1.12,1.37-2.77.53l-2.08-1h0l-.56-.42a10.27,10.27,0,0,1-1.79-1.46c-.56-.73.34-1.31.51-2a5.06,5.06,0,0,0-4.59-6.44c-.94,0-1.14-.44-1.27-1.22a18,18,0,0,1,0-5.33l-.88.05H20.51l-2.06-.05q0,10.06-.05,20.13c0,3.14,0,6.28,0,9.42a3.41,3.41,0,0,1-2.78,3.74l-3,0-1.39.09a10.52,10.52,0,0,1,.2,1.37,10.52,10.52,0,0,0-.2-1.37l-1.64.13L6.32,47.88a23.13,23.13,0,0,0-3.05,2.26A14.79,14.79,0,0,0,0,56.39c0,.89,0,1.78,0,2.67.33,6,5.61,11,11.38,10.86q4.55.15,9.09,0h8.86c2.79.09,5.59.1,8.38,0h7.93c2.79,0,5.58,0,8.37.06,3.31,0,4.42-1.1,4.42-4.37Q58.47,53,58.47,40.36Z"/><path class="cls-3" d="M40.07,31.1a2.24,2.24,0,0,1,.82-1.24l3.78-3.78a1.91,1.91,0,0,0,.75-1.27c5.92.91,10.78-3.88,10.27-10.11,1.56-.83,2.54-2.29,3.76-3.5a6,6,0,0,0,3,.79c.53,0,.66.29.7.71a19.41,19.41,0,0,1,0,6.18c-.13.66-.36.88-1,.9a4.45,4.45,0,0,0-3.69,1.84,4.84,4.84,0,0,0-.66,5.61,1,1,0,0,1-.34,1.45,18.68,18.68,0,0,1-4.69,2.78,1.23,1.23,0,0,1-1.81-.52,4.72,4.72,0,0,0-5.26-2,4.27,4.27,0,0,0-2.84,1.64C41.72,31.94,41.72,31.94,40.07,31.1Z"/><path class="cls-4" d="M18.45,13.26c0-2.16,0-4.32-.07-6.49a3.25,3.25,0,0,0-2.76-3.45,13.35,13.35,0,0,0-3,0,7.6,7.6,0,0,0-3,.2A7.38,7.38,0,0,0,6.27,4.61a9.23,9.23,0,0,0-3.71,3.1A10.47,10.47,0,0,0,0,14.63q0,18,0,36.06c0,1.9,0,3.8,0,5.7a14.79,14.79,0,0,1,3.23-6.25,23.13,23.13,0,0,1,3.05-2.26l3.23-1.07,1.64-.13,1.39-.09,3,0a3.41,3.41,0,0,0,2.78-3.74c0-3.14,0-6.28,0-9.42Q18.42,23.33,18.45,13.26Z"/><path class="cls-5" d="M55.69,14.7c.51,6.23-4.35,11-10.27,10.11-6.71-1.45-9.67-8-6.18-13.73C42.33,6,49.09,6,52.49,9A9.85,9.85,0,0,1,55.69,14.7Zm-10,6a4.89,4.89,0,0,0,5.94-5.8,4.15,4.15,0,0,0-1.72-2.83,4.88,4.88,0,0,0-6.79.39,4.81,4.81,0,0,0,0,6.7A3.38,3.38,0,0,0,45.68,20.7Z"/><path class="cls-6" d="M43.1,19.16a4.81,4.81,0,0,1,0-6.7,4.88,4.88,0,0,1,6.79-.39c-.38.43-.74.89-1.14,1.3Z"/><path class="cls-7" d="M43.1,19.16l5.66-5.79c.4-.41.76-.87,1.14-1.3a4.15,4.15,0,0,1,1.72,2.83c-.86.18-1.33.88-1.87,1.46-1.35,1.46-3,2.63-4.07,4.34A3.38,3.38,0,0,1,43.1,19.16Z"/><path class="cls-2" d="M45.68,20.7c1.07-1.71,2.72-2.88,4.07-4.34.54-.58,1-1.28,1.87-1.46A4.89,4.89,0,0,1,45.68,20.7Z"/></g></g></svg>