<?xml version="1.0" encoding="UTF-8" standalone="no"?><svg xmlns="http://www.w3.org/2000/svg" viewBox="0 0 29 29"><defs><style>.cls-1{fill:#0a66c1;}</style></defs><g id="Layer_2" data-name="Layer 2"><g id="Layer_1-2" data-name="Layer 1"><path class="cls-1" d="M0,14.5C0,10.42,0,6.34,0,2.26A2.22,2.22,0,0,1,2.26,0Q14.5,0,26.74,0a2.12,2.12,0,0,1,2.13,1.4,2.15,2.15,0,0,1,.13.75V26.78A2.14,2.14,0,0,1,27.15,29a1.29,1.29,0,0,1-.28,0H2.11a2.14,2.14,0,0,1-2-1.4A2.22,2.22,0,0,1,0,26.79Zm15.43-1.76a1.41,1.41,0,0,1,0-.21c0-.46,0-.93,0-1.39,0-.2,0-.27-.25-.27q-1.81,0-3.63,0c-.21,0-.25.07-.25.27q0,6.65,0,13.3c0,.21.06.27.26.26h3.72c.31,0,.31,0,.31-.31q0-3.34,0-6.69a6.73,6.73,0,0,1,.11-1.34,2.32,2.32,0,0,1,1.39-1.88,3.06,3.06,0,0,1,1.34-.16,1.84,1.84,0,0,1,1.77,1.46,6.44,6.44,0,0,1,.2,1.75c0,2.29,0,4.58,0,6.88,0,.22,0,.3.29.3,1.23,0,2.47,0,3.71,0,.25,0,.3-.08.29-.31V16.88c0-.46,0-.93-.07-1.39a9.93,9.93,0,0,0-.32-1.78,4,4,0,0,0-1.76-2.46,5.91,5.91,0,0,0-4-.63,4.27,4.27,0,0,0-3,2S15.52,12.75,15.44,12.74ZM8.6,17.8q0-3.33,0-6.66c0-.22-.07-.27-.27-.26H4.55c-.18,0-.23,0-.23.23V24.46c0,.2.06.24.25.24H8.35c.21,0,.26-.05.26-.26Q8.59,21.13,8.6,17.8ZM6.42,4.05A2.4,2.4,0,0,0,4,6.45a2.48,2.48,0,0,0,5,.21A2.42,2.42,0,0,0,6.42,4.05Z"/></g></g></svg>