<?xml version="1.0" encoding="UTF-8" standalone="no"?><svg xmlns="http://www.w3.org/2000/svg" xmlns:xlink="http://www.w3.org/1999/xlink" viewBox="0 0 21.75 29"><defs><style>.cls-1{fill:#0072c6;}.cls-1,.cls-2,.cls-3,.cls-4{fill-rule:evenodd;}.cls-2{fill:#fff;}.cls-3{fill:#7fba00;}.cls-4{fill:#b8d432;}</style><symbol id="A" data-name="A" viewBox="0 0 60 80"><path class="cls-1" d="M0,69.07V10.93C0,4.89,13.43,0,30,0V69.07Z"/><path id="C" class="cls-1" d="M29.59,0H30C46.57,0,60,4.89,60,10.93V69.07H29.59V0Z"/><path id="C-2" data-name="C" class="cls-1" d="M29.59,0H30C46.57,0,60,4.89,60,10.93V69.07H29.59V0Z"/><path class="cls-2" d="M60,69.07c0-6-13.43-10.93-30-10.93S0,63,0,69.07,13.43,80,30,80s30-4.89,30-10.93"/><path class="cls-3" d="M53.87,69.7c0-4-10.69-7.21-23.87-7.21S6.13,65.72,6.13,69.7,16.82,76.91,30,76.91s23.87-3.23,23.87-7.21"/><path class="cls-4" d="M48.87,65.29c3.12,1.22,5,2.75,5,4.41,0,4-10.69,7.21-23.87,7.21S6.13,73.68,6.13,69.7c0-1.66,1.88-3.19,5-4.41C15.5,67,22.32,68.1,30,68.1S44.5,67,48.87,65.29"/><path class="cls-2" d="M20.47,28.71a5,5,0,0,0-1.95-4.19A8.77,8.77,0,0,0,13.12,23a10.18,10.18,0,0,0-4.9,1.06v4.25a7.53,7.53,0,0,1,5-1.94,3.42,3.42,0,0,1,2,.53A1.68,1.68,0,0,1,16,28.34a2,2,0,0,1-.69,1.5,12.26,12.26,0,0,1-2.82,1.65q-4.34,2-4.33,5.58A5,5,0,0,0,10,41.18a7.68,7.68,0,0,0,5,1.54A12.33,12.33,0,0,0,19.64,42V38a7.42,7.42,0,0,1-4.36,1.33,3.23,3.23,0,0,1-1.94-.52,1.69,1.69,0,0,1-.71-1.4A2,2,0,0,1,13.21,36a9,9,0,0,1,2.35-1.43A11.72,11.72,0,0,0,19.35,32a4.77,4.77,0,0,0,1.12-3.24ZM40.84,33a10.85,10.85,0,0,0-1.52-5.83,8.08,8.08,0,0,0-4.27-3.46l5.49-5.11H35L31.07,23a9.17,9.17,0,0,0-4.55,1.34,8.41,8.41,0,0,0-3.13,3.42,10.6,10.6,0,0,0-1.1,4.84,11.32,11.32,0,0,0,1.2,5.28,8.52,8.52,0,0,0,3.36,3.57,9.74,9.74,0,0,0,5,1.24,9.07,9.07,0,0,0,4.68-1.21,8.19,8.19,0,0,0,3.21-3.43A11,11,0,0,0,40.84,33Zm-4.49-.24a7.46,7.46,0,0,1-1.25,4.58A4.05,4.05,0,0,1,31.67,39a4.32,4.32,0,0,1-3.56-1.68,7,7,0,0,1-1.33-4.49,7,7,0,0,1,1.31-4.46,4.19,4.19,0,0,1,3.47-1.66,4.23,4.23,0,0,1,3.5,1.61,6.89,6.89,0,0,1,1.29,4.43Zm18.9-9.41H44v19h4.27V26.84h7Z"/></symbol></defs><g id="Layer_2" data-name="Layer 2"><g id="Layer_1-2" data-name="Layer 1"><use width="60" height="80" transform="matrix(0.36, 0, 0, -0.36, 0, 29)" xlink:href="#A"/></g></g></svg>