<?xml version="1.0" encoding="UTF-8" standalone="no"?><svg xmlns="http://www.w3.org/2000/svg" viewBox="0 0 80 24.12"><defs><style>.cls-1{fill:#1c1919;}.cls-2{fill:#fc9800;}.cls-3{fill:#fb9800;}</style></defs><g id="Layer_2" data-name="Layer 2"><g id="Layer_1-2" data-name="Layer 1"><path class="cls-1" d="M6.94,0c0,.13.15.12.25.13A5.22,5.22,0,0,1,9.43,1a3.19,3.19,0,0,1,1.32,2.48c.15,1.91,0,3.83.05,5.74a3.39,3.39,0,0,0,.72,2.11c.06.07.11.15.17.23.26.39.25.53-.08.83-.56.49-1.13,1-1.71,1.45-.32.28-.54.25-.85,0A5.65,5.65,0,0,1,8,12.6c-.12-.21-.24-.22-.42,0a4.45,4.45,0,0,1-2.86,1.52,4.41,4.41,0,0,1-3.46-.77A3.5,3.5,0,0,1,.13,11.25c0-.1,0-.21-.13-.25V9.62c.13,0,.11-.16.13-.26A4.4,4.4,0,0,1,.65,8,4.68,4.68,0,0,1,3.83,5.89,21.75,21.75,0,0,1,7,5.44c.17,0,.28-.06.27-.25a10.07,10.07,0,0,0,0-1.1,1.38,1.38,0,0,0-.75-1.22A2.19,2.19,0,0,0,4.46,3a1.72,1.72,0,0,0-.81,1.17.48.48,0,0,1-.58.42L2.38,4.5c-.5-.06-1-.11-1.51-.18a.41.41,0,0,1-.4-.5,4,4,0,0,1,1-2.16A5.17,5.17,0,0,1,4.71.13C4.82.11,5,.14,5,0Zm.37,8.46c0-.31,0-.54,0-.77s-.1-.34-.34-.32a6.34,6.34,0,0,0-1.92.37A2.06,2.06,0,0,0,3.78,9.05a2.74,2.74,0,0,0,0,1.42A1.34,1.34,0,0,0,5,11.63a1.77,1.77,0,0,0,1.7-.83A3.42,3.42,0,0,0,7.31,8.46Z"/><path class="cls-1" d="M39.31,0c0,.14.18.11.29.13a4.69,4.69,0,0,1,2.64,1.25,3.52,3.52,0,0,1,.95,2.31c.13,1.89.05,3.79.05,5.68a3.06,3.06,0,0,0,.65,1.91c.54.73.55.74-.12,1.35-.47.43-1,.84-1.44,1.24-.3.26-.49.23-.81,0a4.94,4.94,0,0,1-1.12-1.29c-.13-.2-.21-.18-.37,0A4.53,4.53,0,0,1,37.61,14a5,5,0,0,1-3.33-.29,3.14,3.14,0,0,1-1.66-2.19,4.56,4.56,0,0,1,.68-3.87,5,5,0,0,1,3-1.77,26,26,0,0,1,3.17-.44c.15,0,.28,0,.28-.22a7,7,0,0,0,0-1.21A1.53,1.53,0,0,0,38,2.66a1.88,1.88,0,0,0-2,1.49.48.48,0,0,1-.57.41c-.71-.07-1.43-.13-2.14-.23-.45-.06-.55-.25-.44-.7A4.36,4.36,0,0,1,36.23.32c.31-.09.63-.14,1-.2.09,0,.16,0,.2-.12Zm.44,8.4c0-.28,0-.47,0-.67s-.08-.39-.35-.36a11.5,11.5,0,0,0-1.45.2,2.58,2.58,0,0,0-1.38.8,2.43,2.43,0,0,0-.41,2.13,1.42,1.42,0,0,0,1.7,1.13,2,2,0,0,0,1.43-1.11A3.79,3.79,0,0,0,39.75,8.4Z"/><path class="cls-1" d="M80,13.68A1.22,1.22,0,0,1,79,14c-.57,0-1.14,0-1.72,0s-.69-.15-.69-.68V5.62a4.94,4.94,0,0,0-.14-1.14,1.34,1.34,0,0,0-1-1.16A1.47,1.47,0,0,0,73.75,4a3.46,3.46,0,0,0-.5,1.53,14.14,14.14,0,0,0-.06,2.06c0,1.9,0,3.81,0,5.71,0,.51-.17.68-.67.68H70.45c-.48,0-.64-.17-.64-.64V1c0-.46.12-.58.57-.58q1,0,2.07,0c.42,0,.55.13.55.56V2.59c.15,0,.13-.1.16-.16A4.08,4.08,0,0,1,74.52.67c1.46-1,4.58-.71,5.19,2a6.21,6.21,0,0,1,.17,1.05c0,.1,0,.21.12.26Z"/><path class="cls-2" d="M30.38,24.12c0-.18-.12-.11-.18-.11-.91-.07-1.82-.18-2.73-.32a30.61,30.61,0,0,1-7.78-2.27,30.57,30.57,0,0,1-8.07-5.21l0,0c-.2-.17-.38-.36-.21-.64s.35-.2.69,0c1,.58,2,1.12,3.1,1.61A42,42,0,0,0,26.34,20.5,40.23,40.23,0,0,0,34.9,21a41.71,41.71,0,0,0,13.83-3.12,2,2,0,0,1,.38-.14.67.67,0,0,1,.78.3.6.6,0,0,1-.21.78,16.55,16.55,0,0,1-2,1.31,30.08,30.08,0,0,1-10,3.52A28.91,28.91,0,0,1,34.6,24a.52.52,0,0,0-.18,0c-.05,0,0,.07,0,.09Z"/><path class="cls-1" d="M16.93,2.47c.14-.26.24-.49.37-.7A3.15,3.15,0,0,1,20.08.17a3.14,3.14,0,0,1,3.13,1.94.61.61,0,0,1,.07.14s0,.12.12.12.09-.07.11-.13A3.62,3.62,0,0,1,24.92.65a3.73,3.73,0,0,1,4.9,1.08,3.59,3.59,0,0,1,.48,1.86c0,3.26,0,6.51,0,9.77,0,.45-.17.63-.63.63H27.56c-.48,0-.62-.17-.62-.65,0-2.61,0-5.23,0-7.84a7.93,7.93,0,0,0-.08-1,1.41,1.41,0,0,0-2.1-1,1.64,1.64,0,0,0-1,1.24A6.75,6.75,0,0,0,23.69,6v7.28c0,.57-.16.72-.73.72H21c-.54,0-.69-.15-.69-.68V5.75A6.31,6.31,0,0,0,20.2,4.6c-.16-.82-.6-1.26-1.26-1.29a1.48,1.48,0,0,0-1.69,1.2,5.12,5.12,0,0,0-.19,1.35v7.41c0,.57-.15.72-.72.72h-2c-.51,0-.65-.14-.65-.64V1.07c0-.53.1-.63.64-.63s1.27,0,1.9,0,.65.1.65.63V2.35A1,1,0,0,0,16.93,2.47Z"/><path class="cls-1" d="M56.74,7a7.89,7.89,0,0,1,1.18-4.4A4.84,4.84,0,0,1,62,.18a5.06,5.06,0,0,1,3.5,1.06,5.9,5.9,0,0,1,2,3.05,9.43,9.43,0,0,1-.12,6.16,5.35,5.35,0,0,1-4,3.67,5,5,0,0,1-5.26-2,7.79,7.79,0,0,1-1.32-3.63A13.8,13.8,0,0,1,56.74,7ZM60.38,7a11.81,11.81,0,0,0,.06,1.76,5.4,5.4,0,0,0,.44,1.81,1.51,1.51,0,0,0,1.36,1,1.54,1.54,0,0,0,1.51-.9,5.08,5.08,0,0,0,.5-2,17.9,17.9,0,0,0,0-2.64A10.07,10.07,0,0,0,63.93,4a1.63,1.63,0,0,0-2.81-.68,2.6,2.6,0,0,0-.49,1A9.39,9.39,0,0,0,60.38,7Z"/><path class="cls-1" d="M50.77.38c1.27,0,2.54,0,3.81,0,.58,0,.73.14.73.71,0,.12,0,.23,0,.35a2.93,2.93,0,0,1-.7,2.22c-1.34,1.85-2.64,3.74-4,5.61,0,.06-.14.13-.1.22s.16.07.25.07a8.73,8.73,0,0,1,3.83.74c.76.33.92.55.92,1.4,0,.43,0,.87,0,1.31s-.32.73-.8.49a9.33,9.33,0,0,0-4.67-.93,9,9,0,0,0-3.51.92c-.55.27-.83.09-.82-.53a17.71,17.71,0,0,1,0-2.06,2.1,2.1,0,0,1,.38-.94c1.49-2.15,3-4.29,4.48-6.43.08-.11.25-.23.18-.37s-.25,0-.39,0H46.92c-.53,0-.67-.14-.67-.65V1c0-.47.15-.62.62-.62C48.17.37,49.47.38,50.77.38Z"/><path class="cls-3" d="M49.05,16.2c-.92,0-1.85.13-2.77.23-.18,0-.43.11-.51-.14s.13-.38.3-.49a6.83,6.83,0,0,1,2.8-1.09,9.43,9.43,0,0,1,3.78,0c.93.21,1.09.37,1,1.32a9,9,0,0,1-2.49,5.87,1.37,1.37,0,0,1-.55.4c-.23.07-.37,0-.34-.28a1.52,1.52,0,0,1,.12-.36,21.12,21.12,0,0,0,1.24-3.88c.19-1.11-.09-1.47-1.2-1.58A9.49,9.49,0,0,0,49.05,16.2Z"/></g></g></svg>