<?xml version="1.0" encoding="UTF-8" standalone="no"?><svg xmlns="http://www.w3.org/2000/svg" xmlns:xlink="http://www.w3.org/1999/xlink" viewBox="0 0 100 80.14"><defs><style>.cls-1,.cls-15,.cls-17,.cls-22,.cls-3{fill:#fff;}.cls-1,.cls-12,.cls-13,.cls-15,.cls-19,.cls-23,.cls-24,.cls-25,.cls-26,.cls-27,.cls-28,.cls-29,.cls-3,.cls-30,.cls-31,.cls-33,.cls-34,.cls-35,.cls-36,.cls-37,.cls-38,.cls-39,.cls-4,.cls-40,.cls-41,.cls-5,.cls-6,.cls-7,.cls-8,.cls-9{fill-rule:evenodd;}.cls-2{mask:url(#mask);}.cls-13,.cls-15,.cls-19,.cls-20,.cls-21,.cls-22,.cls-23,.cls-3,.cls-33,.cls-35,.cls-36,.cls-4,.cls-5,.cls-6,.cls-8,.cls-9{isolation:isolate;}.cls-3{opacity:0.7;}.cls-4,.cls-5,.cls-6{fill:#1f60e5;}.cls-4{opacity:0.08;}.cls-5{opacity:0.47;}.cls-6{opacity:0.11;}.cls-7{fill:#2d1d2c;}.cls-13,.cls-25,.cls-8,.cls-9{fill:#003fc3;}.cls-8{opacity:0.5;}.cls-9{opacity:0.63;}.cls-10,.cls-11,.cls-14,.cls-16{fill:none;}.cls-10{stroke:#bed7ff;}.cls-10,.cls-11,.cls-14{stroke-width:3.12px;}.cls-11{stroke:#1f60e5;}.cls-12{fill:#ecf0f4;}.cls-13,.cls-36{opacity:0.71;}.cls-14{stroke:#1c76d5;}.cls-15{opacity:0.25;}.cls-18{fill:#fe7101;}.cls-19{opacity:0.52;fill:url(#linear-gradient);}.cls-20,.cls-21,.cls-23{fill:#89c5cc;}.cls-20{opacity:0.2;}.cls-21,.cls-23{opacity:0.4;}.cls-22{opacity:0.65;}.cls-24{fill:url(#linear-gradient-2);}.cls-26{fill:url(#linear-gradient-3);}.cls-27{fill:url(#linear-gradient-4);}.cls-28{fill:url(#linear-gradient-5);}.cls-29{fill:#465a88;}.cls-30{fill:#512d50;}.cls-31{fill:url(#linear-gradient-6);}.cls-32{opacity:0.67;}.cls-33{fill:#e8635d;opacity:0.3;}.cls-34{fill:url(#linear-gradient-7);}.cls-35{fill:#fe8796;opacity:0.18;}.cls-36{fill:#020e49;}.cls-37{fill:#3e5181;}.cls-38{fill:url(#linear-gradient-8);}.cls-39{fill:url(#linear-gradient-9);}.cls-40{fill:url(#linear-gradient-10);}.cls-41{fill:url(#linear-gradient-11);}.cls-42{opacity:0.78;}</style><mask id="mask" x="-21.66" y="0" width="141.55" height="80.14" maskUnits="userSpaceOnUse"><g id="mask-3"><path id="path-2" class="cls-1" d="M115.54,46.08c3.23,3.69,4.49,7.06,4.22,11.7,0,.28,0,.56-.07.84l0,.24a15.36,15.36,0,0,1-2.1,6.11l-.2.32-.2.3-.2.3a15.18,15.18,0,0,1-1.38,1.66c-.19.2-.39.4-.6.59s-.24.23-.36.34c-.27.23-.54.46-.83.68a20.13,20.13,0,0,1-2.62,1.73L111,71a26.62,26.62,0,0,1-4,1.75l-.18.06-.85.26q-1.17.36-2.4.63c-.84.19-1.69.35-2.54.48l-.75.1a41.09,41.09,0,0,1-5.32.35h-1.7l-.32,0H92.2l-.56,0h-.41l-.32,0-.29,0h0l-.68-.06-.32,0-.5,0-.25,0-.36,0-.31,0-.18,0-.31,0h0l-.31,0-.17,0-.25,0-.21,0-.32,0c-.57-.09-1.14-.17-1.7-.27l-.25,0-1.86-.34-.6-.12L81.1,73l-.18,0-.19,0-.31-.07-1.76-.39-.92-.22L76,71.88l-.31-.07L75,71.63l-.12,0-.41-.1L72,70.86C64.54,68.94,57,67,49.17,66.72c-8.41-.25-16.7,1.56-24.56,3.87-3.68,1.09-7.47,2.3-11.29,3.24q-.81.21-1.62.39c-1,.23-2,.43-3,.61-.73.13-1.45.24-2.17.33l-.58.07-.11,0c-.84.09-1.67.17-2.51.21a31.59,31.59,0,0,1-5-.11l-.38,0a25.11,25.11,0,0,1-3.48-.64c-.45-.11-.89-.24-1.32-.37l-.48-.16a26.53,26.53,0,0,1-5.5-2.62L-13,71.4l-.63-.41a22.13,22.13,0,0,1-3.11-2.53A18.05,18.05,0,0,1-19,65.81a19.18,19.18,0,0,1-1-1.72l-.15-.32c-.19-.37-.35-.75-.5-1.13C-23.09,56.47-21,49.5-15,44.24c3.93-3.47,9.32-5.73,13.77-8.8,7-4.81,11.48-11.68,12.39-18.86.34-2.69.2-5.47,1.3-8,1.73-4,6.66-7.12,12.12-7.61,5-.45,10,1.12,14.18,3.23,3.37,1.67,6.42,3.69,9.68,5.49.83.46,1.67.9,2.54,1.33l.69.33c.47.22.94.43,1.42.63l1.51.61a48.83,48.83,0,0,0,4.71,1.52,55,55,0,0,0,33.29-1.54c4.64-1.81,9.25-4.35,14.43-4.09C117.7,9,122,19,119,26c-1.24,2.88-4,5.25-5.39,8.07C111.56,38,112.49,42.61,115.54,46.08Z"/></g></mask><linearGradient id="linear-gradient" x1="4947.52" y1="7474.93" x2="4947.36" y2="7475.2" gradientTransform="matrix(29.74, 0, 0, -27.8, -147091.62, 207807.95)" gradientUnits="userSpaceOnUse"><stop offset="0" stop-color="#fff"/><stop offset="1" stop-color="#fff" stop-opacity="0"/></linearGradient><linearGradient id="linear-gradient-2" x1="5014.97" y1="7355.04" x2="5014.84" y2="7355.3" gradientTransform="matrix(48.59, 0, 0, -59.95, -243573.35, 440969.77)" gradientUnits="userSpaceOnUse"><stop offset="0" stop-color="#ffbfac"/><stop offset="1" stop-color="#ffd6c6"/></linearGradient><linearGradient id="linear-gradient-3" x1="4953.42" y1="7512.17" x2="4953.48" y2="7511.96" gradientTransform="matrix(31.26, 0, 0, -23.9, -154749.03, 179597.62)" gradientUnits="userSpaceOnUse"><stop offset="0" stop-color="#91e2f9"/><stop offset="1" stop-color="#7485f6"/></linearGradient><linearGradient id="linear-gradient-4" x1="5093.24" y1="7293.08" x2="5093.31" y2="7292.78" gradientTransform="matrix(167.05, 0, 0, -151.59, -850774.17, 1105572.32)" xlink:href="#linear-gradient-3"/><linearGradient id="linear-gradient-5" x1="4939.25" y1="7506.04" x2="4939.05" y2="7506.23" gradientTransform="matrix(28.45, 0, 0, -24.51, -140478.79, 183976.04)" xlink:href="#linear-gradient-2"/><linearGradient id="linear-gradient-6" x1="4839.12" y1="7764.41" x2="4839.39" y2="7764.24" gradientTransform="matrix(18.71, 0, 0, -12.09, -90458.01, 93845.89)" gradientUnits="userSpaceOnUse"><stop offset="0" stop-color="#ff9c85"/><stop offset="1" stop-color="#ff9c85"/></linearGradient><linearGradient id="linear-gradient-7" x1="4873.85" y1="7767.55" x2="4874.12" y2="7767.42" gradientTransform="matrix(21.36, 0, 0, -12.04, -104025.75, 93535.72)" xlink:href="#linear-gradient-6"/><linearGradient id="linear-gradient-8" x1="4835.03" y1="8043.95" x2="4835.3" y2="8043.87" gradientTransform="matrix(18.26, 0, 0, -7.88, -88235.44, 63430.17)" xlink:href="#linear-gradient-6"/><linearGradient id="linear-gradient-9" x1="4223.57" y1="9083.41" x2="4223.85" y2="9083.27" gradientTransform="matrix(5.87, 0, 0, -3.4, -24740.72, 30933.96)" xlink:href="#linear-gradient-6"/><linearGradient id="linear-gradient-10" x1="4942.36" y1="7317.98" x2="4942.29" y2="7317.81" gradientTransform="matrix(29.26, 0, 0, -94.74, -144536.47, 693333.2)" gradientUnits="userSpaceOnUse"><stop offset="0" stop-color="#7485f6"/><stop offset="1" stop-color="#7485f6"/></linearGradient><linearGradient id="linear-gradient-11" x1="5070.86" y1="7306.11" x2="5070.33" y2="7305.94" gradientTransform="matrix(98.68, 0, 0, -115.33, -500308.69, 842665.81)" xlink:href="#linear-gradient-10"/></defs><g id="Layer_2" data-name="Layer 2"><g id="Layer_1-2" data-name="Layer 1"><g id="Support-for-Your-Job-Search"><g id="Support-For-Your-Job-Search---Desktop-Landing-Page"><g id="banner_support-for-your-job-search" data-name="banner support-for-your-job-search"><g id="PMT_M43_08" data-name="PMT M43 08"><g class="cls-2"><g id="Group"><polygon id="Rectangle" class="cls-3" points="24.12 48.59 42.25 42.5 50.35 66.61 32.23 72.69 24.12 48.59"/><polygon id="Rectangle-2" data-name="Rectangle" class="cls-1" points="26.21 49.59 30.07 48.29 31.85 53.59 27.99 54.89 26.21 49.59"/><polygon id="Rectangle-3" data-name="Rectangle" class="cls-4" points="26.21 49.59 30.07 48.29 31.85 53.59 27.99 54.89 26.21 49.59"/><g id="Path-2-2" data-name="Path"><polygon class="cls-1" points="30 53.04 29.09 53.34 29.04 53.13 28.93 52.7 28.81 52.24 29.51 51.87 29.7 52.33 29.89 52.78 30 53.04"/><path class="cls-1" d="M32.3,54.33,28,55.75l-.37-1.38a.92.92,0,0,1,.33-1l.06,0,.16-.1.26-.16.14-.09.29-.19h0v0L29,53h.09l.63-.06.22,0-.09-.35,0-.08H30l.2,0,.46,0h.17a1,1,0,0,1,.69.56Z"/><path class="cls-5" d="M32.3,54.33,28,55.75l-.37-1.38a.92.92,0,0,1,.33-1l.06,0,.16-.1.26-.16.14-.09.29-.19h0v0L29,53h.09l.63-.06.22,0-.09-.35,0-.08H30l.2,0,.46,0h.17a1,1,0,0,1,.69.56Z"/><path class="cls-1" d="M29.79,51.12a1.25,1.25,0,0,1,0,.43h0v.06a1.4,1.4,0,0,1-.13.34,1,1,0,0,1-.07.15.7.7,0,0,1-.36.36.65.65,0,0,1-.39,0,2,2,0,0,1-.51-.31L28.23,52a.66.66,0,0,1-.22-.32A.79.79,0,0,1,28,51.5a3.13,3.13,0,0,1,0-.43l-.07-.59,1.06-.74.41.55.28.48.09.14a1.36,1.36,0,0,1,.1.21Z"/><path class="cls-6" d="M29.68,52.25a.71.71,0,0,1-.38.38.65.65,0,0,1-.41,0l0-.16a.65.65,0,0,0,.39,0,.7.7,0,0,0,.36-.36Z"/><path class="cls-1" d="M28,51.47l-.16.14a.13.13,0,0,0,0,.18h0a.45.45,0,0,0,.28.21l.21.06Z"/><path class="cls-1" d="M30,51.05a.42.42,0,0,1,0,.27h0a.1.1,0,0,1,0,.05l-.12.16h0l-.13-.64h.22a.26.26,0,0,1,.1.13Z"/><path class="cls-7" d="M29.22,50.29a.85.85,0,0,1-.07-.15Z"/><path class="cls-7" d="M29.29,50.39l0-.06Z"/><path class="cls-7" d="M29.49,50l-.06-.06Z"/><path class="cls-1" d="M29.5,50.76a2.93,2.93,0,0,1-.46-.43,3.13,3.13,0,0,1-.95.31,1.64,1.64,0,0,1-.07.54c0-.26-.07-.6-.07-.63s0,0,0,0,.92-.15,1.16-.4h0l.08.15h0a3.64,3.64,0,0,0,.28.47Z"/><path class="cls-1" d="M30.88,53.73l-.35.07.28.24-.28.88L30.19,56l-.82-.67-.74-.61.11-.63-.29.1-.29-.88.05-.06.26-.16.14-.09.3-.19v0L29,53l.43.51.2-.57.13-.37,0-.08.19,0h.2l.45,0h.18Z"/><path class="cls-8" d="M30.88,53.73l-.35.07.28.24-.28.88L30.19,56l-.82-.67-.74-.61.11-.63-.29.1-.29-.88.05-.06.26-.16.14-.09.3-.19v0L29,53l.43.51.2-.57.13-.37,0-.08.19,0h.2l.45,0h.18Z"/><path class="cls-1" d="M29.78,52.44l-.05.06a.64.64,0,0,1-.71.25l-.09,0v.1l1,2.27.08-1.5Z"/><path class="cls-9" d="M29.6,50.21a4.64,4.64,0,0,1,.13.72s0,.09-.08,0a.08.08,0,0,1,0,0l-.05,0h0a.86.86,0,0,1-.07-.1l0,0-.07-.12v0l0,0v0l0,0v0l0-.06h0l0-.05,0,0h0l-.08-.15h0c-.25.24-1,.33-1.15.39l0,0v0h0v0h0v0h0v.08h0V51a.28.28,0,0,1,0,.09v.09h0v.06h0a.41.41,0,0,1,0,.11c0,.1-.05.09-.05.13-.09-.25-.17-.35-.27-.6a1.56,1.56,0,0,1-.1-.37.66.66,0,0,1,0-.14.85.85,0,0,1,.41-.64,1.28,1.28,0,0,1,.5-.2h0l.2,0c.48-.09.55-.4.55-.4s.37.43.19.76l0,0,0,0v0l0,0a.14.14,0,0,0,0,.06h0v0h0v0Z"/><path class="cls-7" d="M29.16,50.15h0l0,0Z"/></g><line id="Path-3" data-name="Path" class="cls-10" x1="32.2" y1="48.38" x2="41.08" y2="45.39"/><line id="Path-4" data-name="Path" class="cls-11" x1="32.5" y1="49.28" x2="41.38" y2="46.29"/><line id="Path-5" data-name="Path" class="cls-10" x1="32.5" y1="49.28" x2="41.38" y2="46.29"/><line id="Path-6" data-name="Path" class="cls-10" x1="32.8" y1="50.17" x2="41.68" y2="47.19"/><line id="Path-7" data-name="Path" class="cls-10" x1="28.27" y1="56.02" x2="42.99" y2="51.07"/><line id="Path-8" data-name="Path" class="cls-10" x1="28.86" y1="57.77" x2="43.57" y2="52.82"/><line id="Path-9" data-name="Path" class="cls-10" x1="29.46" y1="59.56" x2="44.17" y2="54.62"/><line id="Path-10" data-name="Path" class="cls-10" x1="30.06" y1="61.36" x2="44.78" y2="56.42"/><line id="Path-11" data-name="Path" class="cls-10" x1="30.66" y1="63.16" x2="45.38" y2="58.21"/><polygon id="Rectangle-4" data-name="Rectangle" class="cls-3" points="3.45 56.04 21.57 49.95 29.68 74.05 11.55 80.14 3.45 56.04"/><polygon id="Rectangle-5" data-name="Rectangle" class="cls-1" points="5.54 57.04 9.4 55.74 11.18 61.04 7.32 62.33 5.54 57.04"/><polygon id="Rectangle-6" data-name="Rectangle" class="cls-4" points="5.54 57.04 9.4 55.74 11.18 61.04 7.32 62.33 5.54 57.04"/><g id="Path-12" data-name="Path"><polygon class="cls-1" points="9.33 60.48 8.41 60.79 8.36 60.58 8.25 60.14 8.14 59.69 8.83 59.32 9.03 59.78 9.22 60.22 9.33 60.48"/><path class="cls-1" d="M11.62,61.78,7.37,63.2,7,61.82a.94.94,0,0,1,.34-1,.1.1,0,0,1,0,0l.16-.1.26-.17.14-.09.3-.19h0v0l0,.15h.08L9,60.34l.23,0L9.13,60l0-.09h.24l.2,0,.45,0h.17a1,1,0,0,1,.69.57Z"/><path class="cls-5" d="M11.62,61.78,7.37,63.2,7,61.82a.94.94,0,0,1,.34-1,.1.1,0,0,1,0,0l.16-.1.26-.17.14-.09.3-.19h0v0l0,.15h.08L9,60.34l.23,0L9.13,60l0-.09h.24l.2,0,.45,0h.17a1,1,0,0,1,.69.57Z"/><path class="cls-1" d="M9.11,58.57a1,1,0,0,1,0,.43h0a.13.13,0,0,1,0,.06A1.54,1.54,0,0,1,9,59.4l-.07.15a.7.7,0,0,1-.37.35.53.53,0,0,1-.39,0,2.36,2.36,0,0,1-.51-.3l-.11-.09a.71.71,0,0,1-.22-.32A.9.9,0,0,1,7.28,59c0-.14,0-.29,0-.43l-.06-.59,1.06-.74.4.54.29.49.08.13a.62.62,0,0,1,.1.22Z"/><path class="cls-6" d="M9,59.7a.69.69,0,0,1-.37.38.64.64,0,0,1-.41,0l0-.17a.53.53,0,0,0,.39,0,.7.7,0,0,0,.37-.35Z"/><path class="cls-1" d="M7.32,58.91l-.17.14a.17.17,0,0,0,0,.19h0a.51.51,0,0,0,.29.21l.2,0Z"/><path class="cls-1" d="M9.32,58.5a.33.33,0,0,1,0,.26h0l0,0L9.15,59h0L9,58.35h.21A.21.21,0,0,1,9.32,58.5Z"/><path class="cls-7" d="M8.55,57.74a1.2,1.2,0,0,1-.08-.15Z"/><path class="cls-7" d="M8.62,57.84l0-.06Z"/><path class="cls-7" d="M8.81,57.41l-.05-.06Z"/><path class="cls-1" d="M8.83,58.21a3.36,3.36,0,0,1-.46-.44,3,3,0,0,1-.95.32,1.67,1.67,0,0,1-.07.54c0-.27-.07-.6-.07-.64l0,0c.16-.06.93-.14,1.17-.39h0l.08.16h0A4.48,4.48,0,0,0,8.83,58.21Z"/><path class="cls-1" d="M10.21,61.17l-.35.08.27.23-.28.89-.33,1.06-.82-.67L8,62.15l.12-.63-.29.09-.3-.88.06,0,.26-.17.14-.09.29-.19,0,0,.12.15.43.51.2-.57L9.13,60l0-.09h.19l.2,0,.45,0h.17Z"/><path class="cls-8" d="M10.21,61.17l-.35.08.27.23-.28.89-.33,1.06-.82-.67L8,62.15l.12-.63-.29.09-.3-.88.06,0,.26-.17.14-.09.29-.19,0,0,.12.15.43.51.2-.57L9.13,60l0-.09h.19l.2,0,.45,0h.17Z"/><path class="cls-1" d="M9.1,59.88l0,.07a.63.63,0,0,1-.72.24l-.08,0v.1l1,2.27L9.32,61Z"/><path class="cls-9" d="M8.92,57.66a3.72,3.72,0,0,1,.14.71s0,.09-.09,0l0,0,0-.05,0,0-.06-.09,0,0A.41.41,0,0,1,8.72,58l0,0v0l0,0,0,0v0l0-.06h0l0,0,0,0h0l-.07-.15h0c-.25.24-1,.33-1.15.39s0,0,0,0v0h0v0h0v0h0v0s0,0,0,.07v.09a0,0,0,0,0,0,0v0h0s0,0,0,0v.05s0,.07,0,.1v.09h0v.07a.45.45,0,0,1,0,.11c0,.1,0,.08,0,.13-.09-.25-.17-.36-.27-.6a1.56,1.56,0,0,1-.1-.37.76.76,0,0,1,0-.15.83.83,0,0,1,.41-.63,1.28,1.28,0,0,1,.5-.2h0L8,57c.48-.09.55-.41.55-.41s.37.44.19.76l0,0,0,0v.06l0,.06h0v0h0v0Z"/><polygon class="cls-7" points="8.49 57.6 8.49 57.6 8.46 57.61 8.48 57.58 8.49 57.6"/></g><line id="Path-13" data-name="Path" class="cls-10" x1="11.52" y1="55.83" x2="20.41" y2="52.84"/><line id="Path-14" data-name="Path" class="cls-11" x1="11.83" y1="56.72" x2="20.71" y2="53.74"/><line id="Path-15" data-name="Path" class="cls-10" x1="11.83" y1="56.72" x2="20.71" y2="53.74"/><line id="Path-16" data-name="Path" class="cls-10" x1="12.13" y1="57.62" x2="21.01" y2="54.64"/><line id="Path-17" data-name="Path" class="cls-10" x1="7.6" y1="63.46" x2="22.31" y2="58.52"/><line id="Path-18" data-name="Path" class="cls-10" x1="8.18" y1="65.21" x2="22.9" y2="60.27"/><line id="Path-19" data-name="Path" class="cls-10" x1="8.79" y1="67.01" x2="23.5" y2="62.07"/><line id="Path-20" data-name="Path" class="cls-10" x1="9.39" y1="68.81" x2="24.1" y2="63.86"/><line id="Path-21" data-name="Path" class="cls-10" x1="9.99" y1="70.6" x2="24.7" y2="65.66"/><polygon id="Rectangle-7" data-name="Rectangle" class="cls-12" points="66.75 34.25 84.87 28.16 92.97 52.26 74.85 58.35 66.75 34.25"/><polygon id="Rectangle-8" data-name="Rectangle" class="cls-1" points="68.84 35.25 72.69 33.95 74.47 39.25 70.62 40.54 68.84 35.25"/><polygon id="Rectangle-9" data-name="Rectangle" class="cls-4" points="68.84 35.25 72.69 33.95 74.47 39.25 70.62 40.54 68.84 35.25"/><g id="Path-22" data-name="Path"><polygon class="cls-1" points="72.63 38.7 71.71 39 71.66 38.79 71.55 38.36 71.43 37.9 72.13 37.53 72.33 37.99 72.52 38.44 72.63 38.7"/><path class="cls-1" d="M74.92,40l-4.25,1.42L70.29,40a.93.93,0,0,1,.33-1l.06,0,.16-.1.26-.17.14-.09.29-.19h0v0l0,.15h.08l.63-.06.22,0-.09-.34,0-.09h.23l.2,0,.46,0h.17a1,1,0,0,1,.69.57Z"/><path class="cls-5" d="M74.92,40l-4.25,1.42L70.29,40a.93.93,0,0,1,.33-1l.06,0,.16-.1.26-.17.14-.09.29-.19h0v0l0,.15h.08l.63-.06.22,0-.09-.34,0-.09h.23l.2,0,.46,0h.17a1,1,0,0,1,.69.57Z"/><path class="cls-1" d="M72.41,36.78a1.25,1.25,0,0,1,0,.43h0a.13.13,0,0,0,0,.06,1.09,1.09,0,0,1-.13.34,1,1,0,0,1-.07.15.62.62,0,0,1-.36.35.53.53,0,0,1-.39,0,2.14,2.14,0,0,1-.51-.3l-.11-.09a.66.66,0,0,1-.23-.32,1.74,1.74,0,0,1,0-.22c0-.14,0-.29,0-.43l-.06-.59,1.06-.74.4.54.28.49.09.13a.88.88,0,0,1,.1.22Z"/><path class="cls-6" d="M72.3,37.91a.69.69,0,0,1-.37.38.64.64,0,0,1-.41,0l0-.16a.58.58,0,0,0,.39,0,.62.62,0,0,0,.36-.35Z"/><path class="cls-1" d="M70.62,37.13l-.17.14a.13.13,0,0,0,0,.18h0a.47.47,0,0,0,.29.21l.2.05Z"/><path class="cls-1" d="M72.62,36.71a.39.39,0,0,1,0,.26h0l0,0-.12.16h0l-.13-.64h.21A.21.21,0,0,1,72.62,36.71Z"/><path class="cls-7" d="M71.84,36l-.07-.15Z"/><path class="cls-7" d="M71.91,36.05l0-.06Z"/><path class="cls-7" d="M72.11,35.62l0-.06Z"/><path class="cls-1" d="M72.12,36.42a4.41,4.41,0,0,1-.46-.43,3.13,3.13,0,0,1-1,.31,1.44,1.44,0,0,1-.07.54,4.66,4.66,0,0,0-.07-.63s0,0,0,0,.93-.15,1.16-.4h0l.08.16h0a5.3,5.3,0,0,0,.28.47Z"/><path class="cls-1" d="M73.51,39.38l-.36.08.28.24-.28.88-.33,1.06L72,41l-.74-.61.11-.63-.29.1-.29-.89.06,0,.26-.17.14-.09.29-.18,0,0,.12.14.43.51.2-.57.13-.37,0-.09h.18l.2,0,.46,0h.17Z"/><path class="cls-8" d="M73.51,39.38l-.36.08.28.24-.28.88-.33,1.06L72,41l-.74-.61.11-.63-.29.1-.29-.89.06,0,.26-.17.14-.09.29-.18,0,0,.12.14.43.51.2-.57.13-.37,0-.09h.18l.2,0,.46,0h.17Z"/><path class="cls-1" d="M72.4,38.1l-.05.06a.63.63,0,0,1-.71.25l-.09,0v.1l1,2.27.08-1.5Z"/><path class="cls-9" d="M72.22,35.87a3.72,3.72,0,0,1,.14.71s0,.1-.09,0l0,0,0,0,0,0-.07-.09v0L72,36.25v0l0,0,0,0,0,0,0-.06h0l0,0,0,0h0l-.07-.15h0a3.63,3.63,0,0,1-1.15.39l0,0v0h0v.05h0v0h0v.08h0v.25a.28.28,0,0,0,0,.09v.09h0v.06h0s0,.07,0,.11,0,.09,0,.13c-.1-.25-.18-.35-.27-.6a1.58,1.58,0,0,1-.11-.37.65.65,0,0,1,0-.14.84.84,0,0,1,.4-.64,1.35,1.35,0,0,1,.5-.2h0l.21,0c.48-.09.55-.41.55-.41s.36.44.19.76l0,0,0,0v.06l0,.06h0v0h0v0Z"/><path class="cls-7" d="M71.79,35.81h0l0,0Z"/></g><line id="Path-23" data-name="Path" class="cls-11" x1="74.82" y1="34.04" x2="83.7" y2="31.05"/><line id="Path-24" data-name="Path" class="cls-11" x1="75.12" y1="34.93" x2="84.01" y2="31.95"/><line id="Path-25" data-name="Path" class="cls-11" x1="75.12" y1="34.93" x2="84.01" y2="31.95"/><line id="Path-26" data-name="Path" class="cls-11" x1="75.42" y1="35.83" x2="84.31" y2="32.85"/><line id="Path-27" data-name="Path" class="cls-11" x1="70.89" y1="41.68" x2="85.61" y2="36.73"/><line id="Path-28" data-name="Path" class="cls-11" x1="71.48" y1="43.43" x2="86.2" y2="38.48"/><line id="Path-29" data-name="Path" class="cls-11" x1="72.08" y1="45.22" x2="86.8" y2="40.28"/><line id="Path-30" data-name="Path" class="cls-11" x1="72.68" y1="47.02" x2="87.4" y2="42.07"/><line id="Path-31" data-name="Path" class="cls-11" x1="73.29" y1="48.81" x2="88" y2="43.87"/><polygon id="Rectangle-10" data-name="Rectangle" class="cls-3" points="57.89 6.09 76.01 0 84.12 24.1 65.99 30.19 57.89 6.09"/><polygon id="Rectangle-11" data-name="Rectangle" class="cls-1" points="59.98 7.09 63.84 5.79 65.62 11.09 61.76 12.38 59.98 7.09"/><polygon id="Rectangle-12" data-name="Rectangle" class="cls-4" points="59.98 7.09 63.84 5.79 65.62 11.09 61.76 12.38 59.98 7.09"/><g id="Path-32" data-name="Path"><polygon class="cls-1" points="63.77 10.53 62.86 10.84 62.8 10.63 62.69 10.19 62.58 9.73 63.27 9.37 63.47 9.83 63.66 10.27 63.77 10.53"/><path class="cls-1" d="M66.07,11.83l-4.26,1.42-.38-1.38a.94.94,0,0,1,.34-1l0,0,.16-.1.26-.17.14-.09.3-.19h0v0l0,.15h.08l.63-.07.23,0-.1-.34,0-.09h.05l.19,0H64l.45,0h.17a1,1,0,0,1,.69.57Z"/><path class="cls-5" d="M66.07,11.83l-4.26,1.42-.38-1.38a.94.94,0,0,1,.34-1l0,0,.16-.1.26-.17.14-.09.3-.19h0v0l0,.15h.08l.63-.07.23,0-.1-.34,0-.09h.05l.19,0H64l.45,0h.17a1,1,0,0,1,.69.57Z"/><path class="cls-1" d="M63.55,8.62a1,1,0,0,1,0,.43h0a.13.13,0,0,1,0,.06,1.16,1.16,0,0,1-.12.34l-.07.15A.7.7,0,0,1,63,10a.58.58,0,0,1-.39,0,2.85,2.85,0,0,1-.51-.3L62,9.54a.86.86,0,0,1-.23-.33A1.6,1.6,0,0,1,61.72,9c0-.15,0-.29,0-.43L61.62,8l1.06-.73.4.54.29.48a.64.64,0,0,0,.08.14.62.62,0,0,1,.1.22Z"/><path class="cls-6" d="M63.45,9.75a.69.69,0,0,1-.38.37.58.58,0,0,1-.41,0l0-.17A.53.53,0,0,0,63,10a.7.7,0,0,0,.37-.35Z"/><path class="cls-1" d="M61.76,9l-.17.14a.15.15,0,0,0,0,.19h0a.46.46,0,0,0,.28.21l.21.05Z"/><path class="cls-1" d="M63.77,8.55a.39.39,0,0,1,0,.26h0l0,.06L63.59,9h0l-.13-.65h.21A.22.22,0,0,1,63.77,8.55Z"/><path class="cls-7" d="M63,7.79a1.2,1.2,0,0,1-.08-.15Z"/><path class="cls-7" d="M63.06,7.89,63,7.83Z"/><path class="cls-7" d="M63.25,7.46l0-.06Z"/><path class="cls-1" d="M63.27,8.26a3.68,3.68,0,0,1-.47-.44c-.12.16-.94.32-.94.32a1.67,1.67,0,0,1-.07.54c0-.27-.07-.6-.07-.64l0,0c.16-.06.93-.14,1.17-.4h0l.08.16h0a3.24,3.24,0,0,0,.28.47Z"/><path class="cls-1" d="M64.65,11.22l-.35.08.27.23-.28.89L64,13.48l-.82-.68-.74-.6.11-.63-.29.09-.3-.88.06,0,.26-.17.14-.09.29-.19,0,0,.12.15.43.5.2-.57.13-.36,0-.09.19,0H64l.45,0h.17Z"/><path class="cls-8" d="M64.65,11.22l-.35.08.27.23-.28.89L64,13.48l-.82-.68-.74-.6.11-.63-.29.09-.3-.88.06,0,.26-.17.14-.09.29-.19,0,0,.12.15.43.5.2-.57.13-.36,0-.09.19,0H64l.45,0h.17Z"/><path class="cls-1" d="M63.54,9.93l0,.07a.62.62,0,0,1-.71.24l-.09,0v.1l1,2.27.09-1.5Z"/><path class="cls-9" d="M63.36,7.71a3.72,3.72,0,0,1,.14.71s0,.09-.08,0l-.05,0,0-.05v0l-.07-.09,0,0-.07-.11,0,0V8l0,0V8l0-.06h0v0l0,0,0,0h0l-.08-.15h0c-.25.24-1,.33-1.15.39a0,0,0,0,0,0,0h0v0h0v0h0v.26s0,0,0,0v0a.38.38,0,0,1,0,.1v0s0,0,0,0h0v.07a.45.45,0,0,1,0,.11c0,.1-.05.08,0,.12-.1-.24-.18-.35-.28-.59a1.7,1.7,0,0,1-.1-.37.76.76,0,0,1,0-.15.83.83,0,0,1,.41-.63,1.28,1.28,0,0,1,.5-.2h0l.2,0c.48-.09.55-.4.55-.4s.37.44.19.76l0,0,0,0v0l0,0v0l0,0v.1Z"/><polygon class="cls-7" points="62.93 7.64 62.93 7.64 62.9 7.66 62.92 7.63 62.93 7.64"/></g><line id="Path-33" data-name="Path" class="cls-11" x1="65.97" y1="5.87" x2="74.85" y2="2.89"/><line id="Path-34" data-name="Path" class="cls-11" x1="66.27" y1="6.77" x2="75.15" y2="3.79"/><line id="Path-35" data-name="Path" class="cls-11" x1="66.27" y1="6.77" x2="75.15" y2="3.79"/><line id="Path-36" data-name="Path" class="cls-11" x1="66.57" y1="7.67" x2="75.45" y2="4.69"/><line id="Path-37" data-name="Path" class="cls-11" x1="62.04" y1="13.51" x2="76.75" y2="8.57"/><line id="Path-38" data-name="Path" class="cls-10" x1="62.62" y1="15.26" x2="77.34" y2="10.32"/><line id="Path-39" data-name="Path" class="cls-10" x1="63.23" y1="17.06" x2="77.94" y2="12.12"/><line id="Path-40" data-name="Path" class="cls-10" x1="63.83" y1="18.86" x2="78.54" y2="13.91"/><line id="Path-41" data-name="Path" class="cls-10" x1="64.43" y1="20.65" x2="79.15" y2="15.71"/><polygon id="Path-42" data-name="Path" class="cls-3" points="41.24 39.44 22.91 45.83 14.44 21.46 32.77 15.07 41.24 39.44"/><polygon id="Path-43" data-name="Path" class="cls-1" points="22.33 26.45 18.43 27.81 16.57 22.45 20.47 21.09 22.33 26.45"/><polygon id="Path-44" data-name="Path" class="cls-4" points="22.33 26.45 18.43 27.81 16.57 22.45 20.47 21.09 22.33 26.45"/><g id="Path-45" data-name="Path"><polygon class="cls-13" points="18.74 24.88 19.05 26.56 20.96 25.76 20.27 24.35 18.74 24.88"/><polygon class="cls-1" points="20.45 25.91 19.52 26.23 19.47 26.01 19.35 25.57 19.23 25.11 19.93 24.73 20.14 25.2 20.34 25.64 20.45 25.91"/><path class="cls-1" d="M22.79,27.2l-4.3,1.48-.4-1.39a1,1,0,0,1,.33-1l.06,0,.16-.11L18.9,26l.14-.09.3-.19h0v0l0,.15h.09l.64-.07.22,0-.1-.35,0-.09h.05l.19,0,.2,0,.46,0h.18a1,1,0,0,1,.7.56Z"/><path class="cls-5" d="M22.79,27.2l-4.3,1.48-.4-1.39a1,1,0,0,1,.33-1l.06,0,.16-.11L18.9,26l.14-.09.3-.19h0v0l0,.15h.09l.64-.07.22,0-.1-.35,0-.09h.05l.19,0,.2,0,.46,0h.18a1,1,0,0,1,.7.56Z"/><path class="cls-1" d="M20.21,24a1,1,0,0,1,0,.43h0a.13.13,0,0,1,0,.06,1.12,1.12,0,0,1-.12.35A1,1,0,0,1,20,25a.67.67,0,0,1-.37.37.58.58,0,0,1-.39,0,2.62,2.62,0,0,1-.52-.3.94.94,0,0,0-.12-.09.76.76,0,0,1-.23-.33.79.79,0,0,1-.06-.22c0-.14,0-.29,0-.43s0-.4-.07-.6l1.06-.76.42.54.29.49.09.14a.91.91,0,0,1,.11.22Z"/><path class="cls-6" d="M20.11,25.12a.71.71,0,0,1-.38.38.58.58,0,0,1-.41,0l0-.17a.58.58,0,0,0,.39,0A.67.67,0,0,0,20,25Z"/><path class="cls-1" d="M18.39,24.34l-.17.14a.15.15,0,0,0,0,.19h0a.48.48,0,0,0,.29.21l.21.05Z"/><path class="cls-1" d="M20.42,23.89a.36.36,0,0,1,0,.27h0a.21.21,0,0,0,0,.06l-.12.16h0l-.14-.65h.22a.23.23,0,0,1,.1.14Z"/><path class="cls-7" d="M19.62,23.13,19.55,23Z"/><path class="cls-7" d="M19.7,23.23l-.05-.06Z"/><path class="cls-7" d="M19.89,22.79l-.06-.06Z"/><path class="cls-1" d="M19.91,23.61a3.68,3.68,0,0,1-.47-.44,3,3,0,0,1-1,.33,1.72,1.72,0,0,1-.06.55c0-.27-.08-.61-.08-.64a0,0,0,0,1,0,0c.16-.07.94-.16,1.18-.42h0l.08.15h0A3.77,3.77,0,0,0,19.91,23.61Z"/><path class="cls-1" d="M21.35,26.59l-.36.09.29.23-.28.9-.33,1.08-.84-.67-.76-.61.11-.64-.29.1-.31-.89.06-.06L18.9,26l.14-.09.3-.19v0l.13.14.44.51.19-.58.13-.37,0-.09.19,0,.2,0,.47,0h.17Z"/><path class="cls-8" d="M21.35,26.59l-.36.09.29.23-.28.9-.33,1.08-.84-.67-.76-.61.11-.64-.29.1-.31-.89.06-.06L18.9,26l.14-.09.3-.19v0l.13.14.44.51.19-.58.13-.37,0-.09.19,0,.2,0,.47,0h.17Z"/><path class="cls-1" d="M20.21,25.3l0,.07a.64.64,0,0,1-.72.25l-.09,0v.1l1,2.29.07-1.52Z"/><path class="cls-8" d="M18.68,22.46a1.15,1.15,0,0,1-.25.12A1.15,1.15,0,0,1,18.68,22.46Z"/><path class="cls-8" d="M19.53,23h0a1.54,1.54,0,0,1-.63.28,5.42,5.42,0,0,0,.6-.26l0,0Z"/><path class="cls-13" d="M20,23.05a3,3,0,0,1,.15.72s0,.09-.08,0l-.05,0,0,0,0,0-.07-.09,0,0-.07-.12v0l0,0v0l0,0v0l0-.06h0l0,0,0,0h0L19.55,23h0l0,0a5.42,5.42,0,0,1-.6.26c-.23.06-.45.1-.53.13h0s0,0,0,0v0h0v.05h0v0h0s0,.05,0,.08h0v.19a.13.13,0,0,1,0,.06s0,.06,0,.09v.1h0v.07a.41.41,0,0,1,0,.11c0,.1,0,.09,0,.13-.1-.25-.18-.35-.28-.6a1.66,1.66,0,0,1-.11-.38.66.66,0,0,1,0-.14.38.38,0,0,1,.24-.64l.23-.05a1.15,1.15,0,0,0,.25-.12h0l.07,0a.93.93,0,0,1,.61-.13.35.35,0,0,1,.33.3A1,1,0,0,1,20,23v0S20,23,20,23.05Z"/><path class="cls-8" d="M18.89,23.26l-.41.11-.13,0h0C18.44,23.35,18.66,23.32,18.89,23.26Z"/><path class="cls-8" d="M19.56,23Z"/><polygon class="cls-7" points="19.57 22.99 19.57 22.99 19.53 23 19.56 22.97 19.57 22.99"/></g><line id="Path-46" data-name="Path" class="cls-10" x1="22.63" y1="21.15" x2="31.61" y2="18.02"/><line id="Path-47" data-name="Path" class="cls-11" x1="22.94" y1="22.06" x2="31.92" y2="18.93"/><line id="Path-48" data-name="Path" class="cls-10" x1="22.94" y1="22.06" x2="31.92" y2="18.93"/><line id="Path-49" data-name="Path" class="cls-10" x1="23.26" y1="22.97" x2="32.24" y2="19.84"/><line id="Path-50" data-name="Path" class="cls-10" x1="18.72" y1="28.95" x2="33.6" y2="23.76"/><line id="Path-51" data-name="Path" class="cls-10" x1="19.34" y1="30.72" x2="34.22" y2="25.53"/><line id="Path-52" data-name="Path" class="cls-10" x1="19.97" y1="32.53" x2="34.85" y2="27.35"/><line id="Path-53" data-name="Path" class="cls-10" x1="20.6" y1="34.35" x2="35.48" y2="29.16"/><line id="Path-54" data-name="Path" class="cls-10" x1="21.23" y1="36.16" x2="36.11" y2="30.98"/><polygon id="Path-55" data-name="Path" class="cls-3" points="71.72 59.45 53.4 65.84 44.93 41.48 63.26 35.09 71.72 59.45"/><polygon id="Path-56" data-name="Path" class="cls-1" points="52.81 46.46 48.91 47.82 47.05 42.47 50.95 41.11 52.81 46.46"/><polygon id="Path-57" data-name="Path" class="cls-4" points="52.81 46.46 48.91 47.82 47.05 42.47 50.95 41.11 52.81 46.46"/><g id="Path-58" data-name="Path"><polygon class="cls-13" points="49.22 44.9 49.54 46.57 51.44 45.78 50.75 44.37 49.22 44.9"/><polygon class="cls-1" points="50.94 45.92 50.01 46.24 49.95 46.03 49.84 45.59 49.72 45.13 50.42 44.75 50.62 45.21 50.82 45.66 50.94 45.92"/><path class="cls-1" d="M53.28,47.21,49,48.7l-.39-1.4a1,1,0,0,1,.32-1l.06,0,.16-.11.26-.17.14-.09.3-.2h0v0l0,.16H50l.64-.07.22,0-.09-.35,0-.08h.24l.2,0,.47,0a.43.43,0,0,1,.16,0h0a1,1,0,0,1,.71.57Z"/><path class="cls-5" d="M53.28,47.21,49,48.7l-.39-1.4a1,1,0,0,1,.32-1l.06,0,.16-.11.26-.17.14-.09.3-.2h0v0l0,.16H50l.64-.07.22,0-.09-.35,0-.08h.24l.2,0,.47,0a.43.43,0,0,1,.16,0h0a1,1,0,0,1,.71.57Z"/><path class="cls-1" d="M50.69,44a1.32,1.32,0,0,1,0,.44h0a.13.13,0,0,0,0,.06,1.38,1.38,0,0,1-.12.34c0,.06-.05.11-.07.16a.72.72,0,0,1-.37.36.61.61,0,0,1-.4,0,2.24,2.24,0,0,1-.52-.31l-.11-.09a.62.62,0,0,1-.23-.32.9.9,0,0,1-.06-.22c0-.15,0-.29-.05-.44s0-.4-.07-.6l1.07-.76.41.55.3.49.09.14A.81.81,0,0,1,50.69,44Z"/><path class="cls-6" d="M50.59,45.13a.71.71,0,0,1-.37.39.61.61,0,0,1-.42,0l0-.17a.61.61,0,0,0,.4,0,.64.64,0,0,0,.36-.36Z"/><path class="cls-1" d="M48.88,44.36l-.17.14a.14.14,0,0,0,0,.19h0a.51.51,0,0,0,.29.21l.21.05Z"/><path class="cls-1" d="M50.91,43.91a.5.5,0,0,1,0,.27h0l0,.06-.12.16h0l-.14-.65h.21A.26.26,0,0,1,50.91,43.91Z"/><path class="cls-7" d="M50.11,43.15A1.2,1.2,0,0,1,50,43Z"/><path class="cls-7" d="M50.18,43.25l0-.06Z"/><path class="cls-7" d="M50.38,42.81l-.06-.06Z"/><path class="cls-1" d="M50.4,43.62a3.89,3.89,0,0,1-.47-.43,3.12,3.12,0,0,1-1,.33,1.41,1.41,0,0,1-.07.54,4.76,4.76,0,0,0-.08-.64l0,0c.16-.06.94-.16,1.18-.42h0l.08.16h0a3.7,3.7,0,0,0,.29.47Z"/><path class="cls-1" d="M51.84,46.61l-.36.08.28.24-.27.9-.33,1.07-.84-.67-.76-.6.1-.64-.29.1-.31-.9.06,0,.26-.17.14-.09.3-.2,0,0,.12.15.44.51.2-.58.13-.38,0-.09H51l.2,0,.46,0a.49.49,0,0,1,.17,0h0Z"/><path class="cls-8" d="M51.84,46.61l-.36.08.28.24-.27.9-.33,1.07-.84-.67-.76-.6.1-.64-.29.1-.31-.9.06,0,.26-.17.14-.09.3-.2,0,0,.12.15.44.51.2-.58.13-.38,0-.09H51l.2,0,.46,0a.49.49,0,0,1,.17,0h0Z"/><path class="cls-1" d="M50.7,45.32l-.05.06a.64.64,0,0,1-.72.26l-.09,0v.11l1,2.29.07-1.53Z"/><path class="cls-8" d="M49.16,42.48l-.24.11Z"/><path class="cls-8" d="M50,43h0a1.58,1.58,0,0,1-.64.27A4.66,4.66,0,0,0,50,43Z"/><path class="cls-13" d="M50.49,43.06a3.66,3.66,0,0,1,.15.72s0,.1-.09,0l0,0,0,0h0a.86.86,0,0,1-.07-.1l0,0-.08-.12v0l0,0,0,0,0,0,0-.06h0l0-.05s0,0,0,0h0L50,43h0l0,0c-.2.1-.4.18-.6.26s-.46.09-.53.12h0v0h0v0h0v0h0v0s0,0,0,.08h0a.17.17,0,0,1,0,.07v.12a.13.13,0,0,0,0,.06V44a.43.43,0,0,0,0,0v.05h0v.07a.37.37,0,0,0,0,.11c0,.1-.06.09,0,.13-.1-.25-.18-.36-.28-.6a1.66,1.66,0,0,1-.11-.38.66.66,0,0,1,0-.14.38.38,0,0,1,.24-.64l.23,0a1.15,1.15,0,0,0,.25-.12h0l.07,0a.92.92,0,0,1,.61-.13.38.38,0,0,1,.34.29,1.19,1.19,0,0,1,.3.43v0Z"/><path class="cls-8" d="M49.37,43.27a2.64,2.64,0,0,1-.4.12l-.13,0h0C48.92,43.37,49.14,43.33,49.37,43.27Z"/><path class="cls-8" d="M50,43Z"/><path class="cls-7" d="M50.05,43h0l0,0,0,0Z"/></g><line id="Path-59" data-name="Path" class="cls-10" x1="53.11" y1="41.17" x2="62.09" y2="38.04"/><line id="Path-60" data-name="Path" class="cls-11" x1="53.43" y1="42.08" x2="62.41" y2="38.95"/><line id="Path-61" data-name="Path" class="cls-10" x1="53.43" y1="42.08" x2="62.41" y2="38.95"/><line id="Path-62" data-name="Path" class="cls-10" x1="53.74" y1="42.99" x2="62.72" y2="39.85"/><line id="Path-63" data-name="Path" class="cls-10" x1="49.21" y1="48.97" x2="64.09" y2="43.78"/><line id="Path-64" data-name="Path" class="cls-10" x1="49.82" y1="50.74" x2="64.7" y2="45.55"/><line id="Path-65" data-name="Path" class="cls-10" x1="50.45" y1="52.55" x2="65.33" y2="47.36"/><line id="Path-66" data-name="Path" class="cls-10" x1="51.08" y1="54.37" x2="65.96" y2="49.18"/><line id="Path-67" data-name="Path" class="cls-10" x1="51.72" y1="56.18" x2="66.6" y2="50.99"/></g></g><path id="Path-68" data-name="Path" class="cls-1" d="M62.86,31.67,44.74,37.76,36.66,13.65l11.91-4c.64.46,1.29.9,2,1.33l.54.33c.36.22.72.43,1.09.63l1.17.61A32,32,0,0,0,57,14.07Z"/><polygon id="Rectangle-13" data-name="Rectangle" class="cls-1" points="38.73 14.65 42.59 13.36 44.37 18.65 40.52 19.95 38.73 14.65"/><polygon id="Rectangle-14" data-name="Rectangle" class="cls-4" points="38.73 14.65 42.59 13.36 44.37 18.65 40.52 19.95 38.73 14.65"/><g id="Group-2" data-name="Group"><polygon id="Path-69" data-name="Path" class="cls-1" points="42.53 18.1 41.61 18.4 41.56 18.19 41.45 17.76 41.33 17.3 42.03 16.93 42.23 17.39 42.42 17.84 42.53 18.1"/><path id="Path-70" data-name="Path" class="cls-1" d="M44.82,19.39l-4.25,1.42-.38-1.38a.94.94,0,0,1,.33-1l.06,0,.16-.1.26-.17.14-.08.29-.19h0v0l0,.15h.08L42.2,18l.22,0-.09-.35,0-.08h.24l.2,0,.46,0h.17a1,1,0,0,1,.69.56Z"/><path id="Path-71" data-name="Path" class="cls-5" d="M44.82,19.39l-4.25,1.42-.38-1.38a.94.94,0,0,1,.33-1l.06,0,.16-.1.26-.17.14-.08.29-.19h0v0l0,.15h.08L42.2,18l.22,0-.09-.35,0-.08h.24l.2,0,.46,0h.17a1,1,0,0,1,.69.56Z"/><path id="Path-72" data-name="Path" class="cls-1" d="M42.31,16.18a1.56,1.56,0,0,1,0,.43h0a.13.13,0,0,0,0,.06,1.26,1.26,0,0,1-.13.34,1,1,0,0,1-.07.15.67.67,0,0,1-.36.36.58.58,0,0,1-.39,0,2,2,0,0,1-.51-.31l-.11-.09a.62.62,0,0,1-.23-.32,1.42,1.42,0,0,1-.05-.22c0-.14,0-.29,0-.43s0-.39-.07-.59l1.06-.74.41.55.28.48.09.14a1,1,0,0,1,.1.21Z"/><path id="Path-73" data-name="Path" class="cls-6" d="M42.2,17.31a.69.69,0,0,1-.37.38.58.58,0,0,1-.41,0l0-.16a.58.58,0,0,0,.39,0,.67.67,0,0,0,.36-.36Z"/><path id="Path-74" data-name="Path" class="cls-1" d="M40.52,16.53l-.17.14a.13.13,0,0,0,0,.18h0a.47.47,0,0,0,.29.21l.2.06Z"/><path id="Path-75" data-name="Path" class="cls-1" d="M42.52,16.12a.39.39,0,0,1,0,.26h0l0,.06-.12.15h0L42.21,16h.21a.25.25,0,0,1,.1.15Z"/><path id="Path-76" data-name="Path" class="cls-7" d="M41.74,15.35l-.07-.14Z"/><path id="Path-77" data-name="Path" class="cls-7" d="M41.81,15.46l0-.06S41.8,15.43,41.81,15.46Z"/><path id="Path-78" data-name="Path" class="cls-7" d="M42,15,42,15Z"/><path id="Path-79" data-name="Path" class="cls-1" d="M42,15.82a4.41,4.41,0,0,1-.46-.43,3.13,3.13,0,0,1-1,.31,1.39,1.39,0,0,1-.07.54,4.89,4.89,0,0,0-.07-.63l0,0c.15-.06.93-.15,1.16-.4h0l.08.15h0c.09.16.18.31.28.46Z"/><path id="Path-80" data-name="Path" class="cls-1" d="M43.41,18.79l-.36.07.28.24-.28.88L42.72,21l-.83-.67-.74-.61.11-.63-.29.1-.29-.88.06-.06.26-.16.14-.09.29-.19,0,0,.12.14.43.51.2-.57.13-.37,0-.08.18,0h.2l.46,0h.17Z"/><path id="Path-81" data-name="Path" class="cls-8" d="M43.41,18.79l-.36.07.28.24-.28.88L42.72,21l-.83-.67-.74-.61.11-.63-.29.1-.29-.88.06-.06.26-.16.14-.09.29-.19,0,0,.12.14.43.51.2-.57.13-.37,0-.08.18,0h.2l.46,0h.17Z"/><path id="Path-82" data-name="Path" class="cls-1" d="M42.3,17.5l0,.06a.63.63,0,0,1-.71.25l-.09,0v.11l1,2.26.08-1.5Z"/><path id="Path-83" data-name="Path" class="cls-9" d="M42.12,15.28a3.43,3.43,0,0,1,.14.71s0,.09-.09,0,0,0,0,0a.1.1,0,0,1,0,0h0L42,15.8l0,0a.41.41,0,0,0-.07-.11v-.05l0,0,0-.05,0,0,0-.06h0v0l0,0,0,0h0l-.07-.14h0l0,0a3.71,3.71,0,0,1-1.14.38l0,0v0h0v0h0v0h0v.08h0v.34a.09.09,0,0,0,0,0v0h0v.06h0s0,.07,0,.11-.05.09,0,.13c-.1-.25-.18-.35-.27-.6a1.58,1.58,0,0,1-.11-.37.71.71,0,0,1,0-.14.88.88,0,0,1,.41-.64,1.28,1.28,0,0,1,.5-.2h0l.2,0c.49-.09.56-.4.56-.4s.36.43.19.76l0,0,0,0,0,0v0l0,.06h0v0h0v0Z"/><polygon id="Path-84" data-name="Path" class="cls-7" points="41.69 15.21 41.69 15.21 41.65 15.22 41.68 15.2 41.69 15.21"/></g><line id="Path-85" data-name="Path" class="cls-14" x1="51.07" y1="11.31" x2="44.72" y2="13.44"/><line id="Path-86" data-name="Path" class="cls-11" x1="52.16" y1="11.94" x2="45.02" y2="14.34"/><line id="Path-87" data-name="Path" class="cls-14" x1="52.16" y1="11.94" x2="45.02" y2="14.34"/><line id="Path-88" data-name="Path" class="cls-14" x1="53.33" y1="12.55" x2="45.32" y2="15.24"/><line id="Path-89" data-name="Path" class="cls-14" x1="40.79" y1="21.08" x2="55.51" y2="16.13"/><line id="Path-90" data-name="Path" class="cls-14" x1="41.38" y1="22.83" x2="56.09" y2="17.89"/><line id="Path-91" data-name="Path" class="cls-14" x1="41.98" y1="24.62" x2="56.7" y2="19.68"/><line id="Path-92" data-name="Path" class="cls-14" x1="42.58" y1="26.42" x2="57.3" y2="21.48"/><line id="Path-93" data-name="Path" class="cls-14" x1="43.19" y1="28.22" x2="57.9" y2="23.27"/><path id="Path-94" data-name="Path" class="cls-15" d="M50.4,18.87a5.94,5.94,0,0,1-.61,2.68l-.06.12a6.15,6.15,0,0,1-8.23,2.66h0a6.07,6.07,0,0,1-3-7.53,6.13,6.13,0,0,1,8.21-3.45l.31.15a6,6,0,0,1,1,.67,6.05,6.05,0,0,1,2.3,4.71Z"/><path id="Path-95" data-name="Path" class="cls-1" d="M50.4,18.87a5.94,5.94,0,0,1-.61,2.68l-.06.12a6.15,6.15,0,0,1-8.23,2.66h0a6.07,6.07,0,0,1-3-7.53,6.13,6.13,0,0,1,8.21-3.45l.31.15a6,6,0,0,1,1,.67,6.05,6.05,0,0,1,2.3,4.71Z"/><path id="Path-96" data-name="Path" class="cls-1" d="M44.82,19.18,39.9,20.83l-1.36-4A6.09,6.09,0,0,1,42.74,13Z"/><path id="Path-97" data-name="Path" class="cls-4" d="M44.82,19.18l-1.43.48-1,.33-.48.15-1.22.41-.82.28-.42-1.26-.94-2.78a5.24,5.24,0,0,1,.29-.64A6.1,6.1,0,0,1,42.75,13l2,5.91Z"/><polygon id="Path-98" data-name="Path" class="cls-1" points="42.47 18.48 41.3 18.87 41.23 18.6 41.09 18.05 40.95 17.47 41.84 17 42.09 17.59 42.33 18.15 42.47 18.48"/><path id="Path-99" data-name="Path" class="cls-1" d="M44.82,19.18l-1.43.48-1,.33-.48.15-1.22.41-.82.28-.42-1.26a1.16,1.16,0,0,1,.43-.67.18.18,0,0,0,.07,0l.21-.12.33-.22.18-.11.37-.24h0v0h0l0,.06,0,.13h.11l.8-.07.24,0h0L42.26,18l0-.16,0-.11h.06l.24,0,.25,0,.59-.05h.21a1.27,1.27,0,0,1,.88.71l.32.58Z"/><path id="Path-100" data-name="Path" class="cls-5" d="M44.82,19.18l-1.43.48-1,.33-.48.15-1.22.41-.82.28-.42-1.26a1.16,1.16,0,0,1,.43-.67.18.18,0,0,0,.07,0l.21-.12.33-.22.18-.11.37-.24h0v0h0l0,.06,0,.13h.11l.8-.07.24,0h0L42.26,18l0-.16,0-.11h.06l.24,0,.25,0,.59-.05h.21a1.27,1.27,0,0,1,.88.71l.32.58Z"/><path id="Path-101" data-name="Path" class="cls-1" d="M42.19,16.05a1.71,1.71,0,0,1,0,.55h0a.17.17,0,0,0,0,.07,1.59,1.59,0,0,1-.16.43l-.09.2a.94.94,0,0,1-.47.45.79.79,0,0,1-.5,0,2.44,2.44,0,0,1-.64-.39,1,1,0,0,1-.15-.11.93.93,0,0,1-.29-.41,2.29,2.29,0,0,1-.07-.28c0-.18,0-.36-.05-.54s0-.5-.08-.75l1.35-.94.52.69.36.61.11.18A.84.84,0,0,1,42.19,16.05Z"/><path id="Path-102" data-name="Path" class="cls-6" d="M42.05,17.49a.85.85,0,0,1-.48.47.78.78,0,0,1-.52,0l0-.21a.72.72,0,0,0,.5,0,.86.86,0,0,0,.47-.45Z"/><path id="Path-103" data-name="Path" class="cls-1" d="M39.9,16.49l-.21.18a.19.19,0,0,0,0,.23h0a.62.62,0,0,0,.37.27l.26.07Z"/><path id="Path-104" data-name="Path" class="cls-1" d="M42.46,16a.47.47,0,0,1,0,.33h0l0,.07-.15.2v0h0l-.17-.82h.27a.27.27,0,0,1,.13.18Z"/><path id="Path-105" data-name="Path" class="cls-7" d="M41.47,15l-.1-.19Z"/><path id="Path-106" data-name="Path" class="cls-7" d="M41.55,15.11l0-.06Z"/><path id="Path-107" data-name="Path" class="cls-7" d="M41.8,14.56l-.06-.06A.34.34,0,0,0,41.8,14.56Z"/><path id="Path-108" data-name="Path" class="cls-1" d="M41.83,15.6a4.89,4.89,0,0,1-.59-.56,3.84,3.84,0,0,1-1.21.4,2,2,0,0,1-.09.68c0-.33-.09-.75-.09-.8l0,0c.19-.08,1.18-.19,1.48-.51h0a1.68,1.68,0,0,0,.1.2h0a3.67,3.67,0,0,0,.36.6Z"/><path id="Path-109" data-name="Path" class="cls-1" d="M43.14,19.45l.25.21-1,.33-.48.15-1.22.41.14-.76-.37.12-.38-1.12.08-.07.33-.21.18-.11.37-.24,0,0h0l0,.06.11.12.34.4.2.24.13-.35.13-.37.15-.43h0v0l0-.11.24,0h.25l.59-.05h.21l.05,1.71Z"/><path id="Path-110" data-name="Path" class="cls-8" d="M43.14,19.45l.25.21-1,.33-.48.15-1.22.41.14-.76-.37.12-.38-1.12.08-.07.33-.21.18-.11.37-.24,0,0h0l0,.06.11.12.34.4.2.24.13-.35.13-.37.15-.43h0v0l0-.11.24,0h.25l.59-.05h.21l.05,1.71Z"/><path id="Path-111" data-name="Path" class="cls-1" d="M42.46,19.18l0,.81-.48.16-.57-1.31-.18-.4,0-.06,0-.13,0,0v0h0v-.11h0l.11,0a.81.81,0,0,0,.91-.31l0-.05,0,0,0,.14h0l.08.41,0,.25Z"/><path id="Path-112" data-name="Path" class="cls-9" d="M42.11,15.86h0l0,0L42,15.76l-.05-.06,0,0-.06-.07,0,0,0,0-.09-.15,0,0,0,0,0,0,0,0,0,0a.25.25,0,0,0,0-.07h0v0l0-.06,0-.05h0l0,0-.07-.15h0l0,0-.06.06,0,0-.13.07,0,0L41,15h0l-.12,0-.05,0-.18.05h-.06l-.07,0-.1,0c-.21.05-.4.08-.47.11h0v0h0v0h0s0,0,0,0h0v.14s0,.06,0,.09,0,0,0,0v0s0,0,0,0h0v0s0,.05,0,.08h0V16h0s0,0,0,.06v0h0v.08h0c0,.05,0,.1,0,.14a.29.29,0,0,1,0,.13s0,0,0,0v0h0c-.12-.29-.22-.43-.33-.73a2,2,0,0,1-.14-.47v-.06a5.79,5.79,0,0,1,1.18-1.19.91.91,0,0,0,.23,0c.62-.11.7-.51.7-.51s.47.55.25,1l0,.05,0,.06,0,0v0l0,0,0,.07v.13a5.41,5.41,0,0,1,.17.89v0S42.13,15.86,42.11,15.86Z"/><polygon id="Path-113" data-name="Path" class="cls-7" points="41.39 14.81 41.39 14.81 41.35 14.83 41.38 14.8 41.39 14.81"/><polygon id="Path-114" data-name="Path" class="cls-16" points="44.82 19.18 39.9 20.83 37.63 14.11 42.56 12.46 44.82 19.18"/><line id="Path-115" data-name="Path" class="cls-11" x1="46.75" y1="13.34" x2="45.65" y2="13.71"/><line id="Path-116" data-name="Path" class="cls-11" x1="46.75" y1="13.34" x2="45.65" y2="13.71"/><line id="Path-117" data-name="Path" class="cls-11" x1="48.1" y1="14.16" x2="46.04" y2="14.85"/><line id="Path-118" data-name="Path" class="cls-14" x1="50.4" y1="18.87" x2="40.26" y2="22.26"/><line id="Path-119" data-name="Path" class="cls-11" x1="49.79" y1="21.55" x2="41.49" y2="24.32"/><path id="Shape" class="cls-17" d="M47.5,12.78a6.87,6.87,0,1,0-6.42,12.14,7,7,0,0,0,3.14.78l1.4,11.1a.53.53,0,0,0,.22.36.51.51,0,0,0,.41.09h0a.53.53,0,0,0,.42-.59l-1.39-11A6.86,6.86,0,0,0,47.5,12.78Zm2.26,8.85a6.17,6.17,0,1,1-2.69-8.29A6.18,6.18,0,0,1,49.76,21.63Z"/><path id="Shape-2" data-name="Shape" class="cls-18" d="M47.5,12.78a6.87,6.87,0,1,0-6.42,12.14,7,7,0,0,0,3.14.78l1.4,11.1a.53.53,0,0,0,.22.36.51.51,0,0,0,.41.09h0a.53.53,0,0,0,.42-.59l-1.39-11A6.86,6.86,0,0,0,47.5,12.78Zm2.26,8.85a6.17,6.17,0,1,1-2.69-8.29A6.18,6.18,0,0,1,49.76,21.63Z"/><path id="Path-120" data-name="Path" class="cls-19" d="M39,18.45a5.11,5.11,0,0,1,1.35-2.9.84.84,0,0,1,1.45.68v.05a5.07,5.07,0,0,0,4.4,5.53,5.2,5.2,0,0,0,2.18-.2A5.06,5.06,0,0,1,39,18.45Z"/><circle id="Oval" class="cls-20" cx="21.93" cy="12.09" r="4.54"/><circle id="Oval-2" data-name="Oval" class="cls-21" cx="70.07" cy="63.72" r="4.29"/><circle id="Oval-3" data-name="Oval" class="cls-22" cx="43.72" cy="41.14" r="0.96" transform="translate(-6.89 73.43) rotate(-75.79)"/><circle id="Oval-4" data-name="Oval" class="cls-21" cx="94.11" cy="26.68" r="0.63" transform="translate(52.7 115.29) rotate(-80.78)"/><circle id="Oval-5" data-name="Oval" class="cls-21" cx="10.35" cy="46.12" r="0.32"/><circle id="Oval-6" data-name="Oval" class="cls-21" cx="14.11" cy="42.16" r="2.94"/><circle id="Oval-7" data-name="Oval" class="cls-21" cx="6.33" cy="51.41" r="1.26"/><path id="Path-121" data-name="Path" class="cls-23" d="M.32,53.59a.31.31,0,0,1,.29.19.33.33,0,0,1-.07.34.32.32,0,0,1-.35.07A.32.32,0,0,1,0,53.9.31.31,0,0,1,.32,53.59Z"/><path id="Combined-Shape" class="cls-24" d="M72.21,9.81c1.06.37,2.58.93,4.21,1.62,4.63,2,10.14,5,8.37,7.84-.13.2-.27.39-.41.58h0l0,.16v0c0,.27.12.54.19.83s.1.42.16.63h0c.23.86.51,1.73.75,2.44.33,1,.6,1.71.6,1.71s-8.67,3.65-7.45,2.93c.84-.49.52-3.15.24-4.74h0l-.22.1a23,23,0,0,1-3,1,1.11,1.11,0,0,1-1.31-.67l-1.17-3.06a1.12,1.12,0,0,0-1-.7,1.11,1.11,0,0,1-1.08-1.36l.66-2.81a1.09,1.09,0,0,0-.11-.79l-.73-1.31a1.1,1.1,0,0,1-.14-.53V10.85a1.11,1.11,0,0,1,.47-.9A1.08,1.08,0,0,1,72.21,9.81Z"/><path id="Path-122" data-name="Path" class="cls-25" d="M87.26,27.18l-9.89,3.65V28.5a1.1,1.1,0,0,1,.54-.95c1.37-.81,5-2.77,7.07-3.9l.36-.19.16-.09a.84.84,0,0,1,.77,0,.82.82,0,0,1,.46.62Z"/><path id="Path-123" data-name="Path" class="cls-26" d="M87.26,27.18l-9.89,3.65V28.5a1.1,1.1,0,0,1,.54-.95c1.37-.81,5-2.77,7.07-3.9l.36-.19.16-.09a.84.84,0,0,1,.77,0,.82.82,0,0,1,.46.62Z"/><path id="Path-124" data-name="Path" class="cls-27" d="M100,66.59c0,.53,0,1,0,1.55-3.65,4.46-9.73,6.49-15.52,6.5H83.11l-.25,0h-.5l-.44,0h-.31l-.25,0-.74-.08a1,1,0,0,1-.25,0l-.39,0-.19,0-.28,0-.24,0-.14,0-.23,0h0l-.24,0-.13,0-.2,0-.16,0-.25,0-1.31-.27-.19,0L75,73.35l-.47-.12L73.79,73l-.14,0-.14,0-.25-.07-1.35-.39-.71-.22-1.31-.41-.24-.07-.55-.18-.09,0-.32-.1,1.48-6.88,2.25-10.41,1.08-5.05-.87.76h0l0,0-7.93,6.82a1.88,1.88,0,0,1-2.1.26l-.46-.23a1.87,1.87,0,0,1-.68-.57l0,0-14-18.87A1.06,1.06,0,0,1,47.44,36a1.09,1.09,0,0,1,.29-.23L51,34a1.86,1.86,0,0,1,2.19.31l1.11,1.09,9.51,9.33,5-7L71.59,34a3.31,3.31,0,0,1,1.1-1c.84-.46,2.4-1.38,3.86-2.25L77.81,30,80,28.69l7.8-1.54,1.81-.35.14,0a3.83,3.83,0,0,1,4,1.79l.34.58a16,16,0,0,1,1.61,5.23c.17.85.4,2,.66,3.28C97.79,44.62,100.15,57.28,100,66.59Z"/><path id="Path-125" data-name="Path" class="cls-28" d="M51.7,33.78A2,2,0,0,0,51,34l-3.29,1.77a.92.92,0,0,0-.29.23,8.21,8.21,0,0,0-1.52-.5,15.57,15.57,0,0,0-1.66-.29,1.8,1.8,0,0,1-1.56-1.79V31.33a2,2,0,0,1,.23-.94l.43-.8A1.27,1.27,0,0,1,44.83,29l.81.22.31-.46a1,1,0,0,1,.23-.24l.11-.08a1.15,1.15,0,0,1,1.2,0l.54.35A6.32,6.32,0,0,1,50.13,31L51.28,33l.26.45Z"/><path id="Path-126" data-name="Path" class="cls-29" d="M87.12,16.26a30.54,30.54,0,0,1-1.31,3.21c-.42.85-.83,1.43-1.14,1.34l-.1,0c-1-.22-4.18-.52-5.53-.64a.84.84,0,0,1-.73-.65l-.06-.28-.12-.61a1.31,1.31,0,0,1,.11-.89,1.59,1.59,0,0,1,.27-.37,3.69,3.69,0,0,0,.9-1.71,1.83,1.83,0,0,0,0-.4.87.87,0,0,0-.7-.93.65.65,0,0,0-.34,0,1,1,0,0,0-.45.25l-.06.07a3.14,3.14,0,0,0-.38.5c-.29.47-.44.78-.92.84h-.16a1,1,0,0,1-.11-.17c.09-.36.19-.74.25-1.13,0-.11,0-.23,0-.34A1.89,1.89,0,0,0,76,12.48l0,0,0,0-.07,0-.07,0-.07,0-.09,0-.08,0-.06,0-.12,0c-1.12-.33-2.31.1-3.44-.3a2.68,2.68,0,0,1-.34-.16l-.16-.11a1.87,1.87,0,0,1-.3-.26,4.54,4.54,0,0,1-.39-.48l-.07-.11a4.53,4.53,0,0,1-.27-.48c-.09-.19-.18-.4-.26-.61a9.72,9.72,0,0,1-.45-1.51,2.37,2.37,0,0,1,1.57-2.79l6.46-2.13A6.73,6.73,0,0,1,83.54,4l.69.45A6.76,6.76,0,0,1,87.16,8.8l.37,1.95a10.64,10.64,0,0,1-.41,5.51Z"/><path id="Path-127" data-name="Path" class="cls-30" d="M76.45,16h0a.1.1,0,0,1-.09,0s0-.08,0-.12,0,0,0,0a.78.78,0,0,0,.11.18Z"/><path id="Path-128" data-name="Path" class="cls-31" d="M76.59,14.67a2.14,2.14,0,0,0-1.12-1.8,4.5,4.5,0,0,0-1.68-.34c-.93-.09-2.39-.34-3-1.21v-.47a2.42,2.42,0,0,0,1.18,1c1.13.41,2.33,0,3.44.31C76.68,12.55,76.77,13.6,76.59,14.67Z"/><path id="Path-129" data-name="Path" class="cls-33" d="M77.66,17.86a.67.67,0,0,1,.38-.15Z"/><path id="Path-130" data-name="Path" class="cls-33" d="M78.25,17.63l-.07.09H78Z"/><path id="Path-131" data-name="Path" class="cls-34" d="M84.76,21.52a3,3,0,0,0-1-.45L83.37,21c-.41-.05-.83-.05-1.25-.07s-1-.11-1.5-.19h-.07l-1-.16a1.88,1.88,0,0,1-.81-.25,1.9,1.9,0,0,1-.61-1.27,1.78,1.78,0,0,1,.09-1.33h.06a1.34,1.34,0,0,0-.12.88l.19.89a.84.84,0,0,0,.73.65c1.35.12,4.55.42,5.53.64C84.63,21,84.69,21.28,84.76,21.52Z"/><path id="Path-132" data-name="Path" class="cls-35" d="M79.09,23.44v0a.11.11,0,0,1,0,0Z"/><path id="Path-133" data-name="Path" class="cls-35" d="M79.09,23.44v0a.11.11,0,0,1,0,0Z"/><path id="Path-134" data-name="Path" class="cls-35" d="M76.45,16h.16c0,.06-.06.09-.07.08L76.45,16Z"/><path id="Path-135" data-name="Path" class="cls-36" d="M76.82,13.46a3.21,3.21,0,0,1-.18.87,1.77,1.77,0,0,0-1.27-2.17c-1.12-.33-2.31.1-3.44-.31a2.48,2.48,0,0,1-1.19-1h0l-.07-.12c.42,0,1,.46,1.35.57a4.72,4.72,0,0,0,1.87.14,3.77,3.77,0,0,1,2,.07A2,2,0,0,1,76.82,13.46Z"/><path id="Path-136" data-name="Path" class="cls-37" d="M78.42,14.3a.92.92,0,0,0-.45.25l-.06.07a3.14,3.14,0,0,0-.38.5c-.29.47-.43.78-.92.84h-.16a1,1,0,0,1-.11-.17c.09-.36.19-.74.25-1.13,0-.11,0-.23,0-.34A1.87,1.87,0,0,0,76,12.48l0,0-.06,0-.07,0-.07,0-.07,0-.08,0-.09,0-.06,0-.12,0c-1.12-.33-2.31.1-3.44-.3a1.8,1.8,0,0,1-.34-.17l-.16-.1a2.55,2.55,0,0,1-.3-.26,4.54,4.54,0,0,1-.39-.48l-.07-.12a2.68,2.68,0,0,1-.26-.47,5.63,5.63,0,0,1-.27-.61l.08.08a3.5,3.5,0,0,0,1.61,1,6.92,6.92,0,0,0,2.36.14,4.54,4.54,0,0,1,2.59.26,2.56,2.56,0,0,1,.75.68C78.12,12.6,77.9,13.52,78.42,14.3Z"/><path id="Path-137" data-name="Path" class="cls-37" d="M85.8,19.47c-.12.31-.65,1.47-1.13,1.34l-.1,0c-1-.22-4.18-.52-5.53-.64a.84.84,0,0,1-.73-.65l-.06-.28-.13-.61a1.38,1.38,0,0,1,.12-.89,1.59,1.59,0,0,1,.27-.37,3.69,3.69,0,0,0,.9-1.71l.06.16a2.6,2.6,0,0,1,0,.88,3.11,3.11,0,0,0,2,2.49,5.24,5.24,0,0,0,1.83.5,5.18,5.18,0,0,0,1.47-.05C85.11,19.55,85.45,19.33,85.8,19.47Z"/><path id="Path-138" data-name="Path" class="cls-38" d="M51.7,33.78A2,2,0,0,0,51,34l-3.29,1.77a.92.92,0,0,0-.29.23,8.21,8.21,0,0,0-1.52-.5,5.4,5.4,0,0,1,.58-.1,15.4,15.4,0,0,0,3.35-1.14c.57-.24,1.12-.51,1.69-.76Z"/><path id="Path-139" data-name="Path" class="cls-39" d="M45.68,29.46a.66.66,0,0,1-.68,0c-.15-.1-.25-.26-.39-.37l-.27-.17a1.36,1.36,0,0,1,.49,0l.81.23.31-.46a1.1,1.1,0,0,1,.23-.25A1.13,1.13,0,0,1,45.68,29.46Z"/><path id="Path-140" data-name="Path" class="cls-40" d="M78.07,41.72a.1.1,0,0,1,.14,0,.12.12,0,0,1,.06.14L69.1,71.63h0A.11.11,0,0,1,69,71.5l1.15-6.88,3.26-15.13a.11.11,0,0,0-.05-.12.12.12,0,0,0-.13,0h0a.11.11,0,0,1-.17-.14Z"/><path id="Path-141" data-name="Path" class="cls-41" d="M100,66.74c0,.47,0,.92,0,1.37a.14.14,0,0,1,0,.06c-3.66,4.44-9.72,6.46-15.5,6.47H83.11l-.25,0h-.5l-.44,0h-.31l-.25,0-.74-.08-.25,0L80,74.33l-.19,0-.28,0-.24,0-.14,0-.23,0h0l-.24,0-.13,0-.2,0-.16,0-.25,0-1.31-.27-.19,0L75,73.35l-.47-.12L73.79,73l-.14,0-.14,0-.25-.07-1.35-.39-.71-.22-1.31-.41-.24-.07-.55-.18-.32-.55,1.39-6.46,2.24-10.4v0l5.84-12.51a14.07,14.07,0,0,1,2.5-3A1.07,1.07,0,0,1,82,38.24c.4.21.48.74.5,1.19.13,2.75-.42,5.31-.6,8-.25,3.63-.51,7.25-.78,10.88a9.23,9.23,0,0,0,9.2,9.91h1.36a20.7,20.7,0,0,0,6.43-1l1.76-.58a.12.12,0,0,1,.1,0A.15.15,0,0,1,100,66.74Z"/></g></g></g></g></g></g></svg>