<?xml version="1.0" encoding="UTF-8" standalone="no"?><svg xmlns="http://www.w3.org/2000/svg" viewBox="0 0 20.56 25"><defs><style>.cls-1{fill:#005afb;}.cls-2{fill:#005bfd;}.cls-3{fill:#005afa;}.cls-4{fill:#005bfb;}.cls-5{fill:#00d0ce;}</style></defs><g id="Layer_2" data-name="Layer 2"><g id="Layer_1-2" data-name="Layer 1"><path class="cls-1" d="M20.56,1.8c-.08-.12-.11,0-.14,0a1.31,1.31,0,0,1-1.24.67H11.07A1.25,1.25,0,0,1,9.73,1a1.33,1.33,0,0,1,.74-.88l0,0,0,0h9.38l0,0a.1.1,0,0,0,0,0,1.93,1.93,0,0,1,.71.71s.05,0,.06,0Z"/><path class="cls-2" d="M10.45,25c.05-.14-.1-.13-.15-.17a1.26,1.26,0,0,1-.57-1.41,1.22,1.22,0,0,1,1.18-.9h8.44a1.25,1.25,0,0,1,1.14.77l0,0s0,0,0,0v.93a5.09,5.09,0,0,1-.76.78l0,0Z"/><path class="cls-3" d="M0,12c.14.05.13-.09.17-.15a1.26,1.26,0,0,1,2.34.6,1.27,1.27,0,0,1-.88,1.21,1.25,1.25,0,0,1-1.44-.53A1.24,1.24,0,0,0,.05,13H0L0,13Z"/><path class="cls-4" d="M7.92,0C7.83.14,8,.12,8,.15a1.27,1.27,0,0,1,.6,1.46,1.26,1.26,0,0,1-1.2.88,1.22,1.22,0,0,1-1.19-.88A1.23,1.23,0,0,1,6.82.16S7,.11,7,0A0,0,0,0,0,7,0l0,0Z"/><path class="cls-4" d="M6.92,25c0-.18-.13-.15-.2-.21a1.27,1.27,0,0,1-.49-1.38,1.25,1.25,0,0,1,2.36-.12c.24.61,0,1.1-.66,1.62a.07.07,0,0,0,0,.05s0,0,0,0Z"/><path class="cls-5" d="M10.32,8.11H7A1.24,1.24,0,0,1,6.5,5.74a1.42,1.42,0,0,1,.61-.13H13.5a1.25,1.25,0,0,1,1.34,1.25,1.26,1.26,0,0,1-1.36,1.24Z"/><path class="cls-5" d="M10.35,16.9h3.13a1.25,1.25,0,1,1,0,2.49H7.15a1.25,1.25,0,1,1,0-2.49Z"/><path class="cls-3" d="M8,13.75H4.8a1.25,1.25,0,0,1-1.26-1,1.22,1.22,0,0,1,.77-1.39,1.3,1.3,0,0,1,.52-.1h6.41a1.27,1.27,0,0,1,1.26.86,1.24,1.24,0,0,1-.41,1.37,1.37,1.37,0,0,1-.87.28Z"/><path class="cls-5" d="M2.27,18.15a1.25,1.25,0,0,1,2.5,0,1.26,1.26,0,0,1-1.25,1.25A1.25,1.25,0,0,1,2.27,18.15Z"/><path class="cls-5" d="M3.53,8.11A1.25,1.25,0,1,1,4.77,6.85,1.26,1.26,0,0,1,3.53,8.11Z"/></g></g></svg>