<?xml version="1.0" encoding="UTF-8" standalone="no"?><svg xmlns="http://www.w3.org/2000/svg" viewBox="0 0 30.71 29"><defs><style>.cls-1{fill:#060606;}.cls-2{fill:#0d0d0d;}.cls-3{fill:#0e0e0e;}</style></defs><g id="Layer_2" data-name="Layer 2"><g id="Layer_1-2" data-name="Layer 1"><path class="cls-1" d="M30.71,15.25a8.65,8.65,0,0,0-.92.67c-.12.1-.18.1-.29,0a7.53,7.53,0,0,0-2.84-2,1.23,1.23,0,0,1-.87-1.24.45.45,0,0,0-.32-.46l-2.75-1.11c-.81-.32-1.61-.67-2.41-1a6.75,6.75,0,0,0-2.51-.56,10.52,10.52,0,0,0-2.17.09,4,4,0,0,0-2.26,1.2,6.56,6.56,0,0,0-1.69,3,4.69,4.69,0,0,0,.05,2.38,6,6,0,0,0,1.36,2.54,4.68,4.68,0,0,0,2.44,1.36,17.28,17.28,0,0,0,2.59.31c1.53.12,3.06.15,4.59.31A16.83,16.83,0,0,1,27.54,22a17.74,17.74,0,0,1,3.07,1.64s.05.07.1,0v.65l-.11,0a0,0,0,0,0,0,0s-.06-.08-.12-.07l-.09-.06s0-.05-.08-.05l-.09,0a1,1,0,0,0-.38-.23l-.16-.08s-.08-.09-.15-.08h0a.21.21,0,0,0-.18-.09l-.05,0c0-.06-.07-.06-.12-.06l-.05,0a2.43,2.43,0,0,0-.7-.3l-.06,0a4.88,4.88,0,0,0-1.17-.39h-.06a.64.64,0,0,0-.35-.1h-.06a.7.7,0,0,0-.35-.09h-.06a1.91,1.91,0,0,0-.62-.13l0,0c0-.05,0-.11-.05-.12s0,.05-.05.09-.12,0-.2,0a.17.17,0,0,0,.15.13l.13.12c-.05.11-.05.11.14.1,0,0,.05,0,.05,0s0,.07.08.06h0c0,.17.1.11.18.14h0c0,.1.09.17.2.16l0,0s0,.07.08.06h0v0c0,.1.05.13.14.12a.36.36,0,0,1,.16.14c0,.08.06.1.13.1h0c0,.06,0,.1.09.08s.07,0,.08.08a.52.52,0,0,0,.34.31.12.12,0,0,1,.07.07c0,.06,0,.11.09.08h0c0,.11.06.1.12.12a.11.11,0,0,1,.06.07s-.05.08,0,.12.08,0,.12,0a11.55,11.55,0,0,1,1.09,1.23q-.12.22.18.24a3.8,3.8,0,0,1,.42.55,12.94,12.94,0,0,1,1,1.63c-.05.06,0,.07,0,.07h0a.06.06,0,0,0,.05.08s.06.07.05.12,0,.08.07.09V29l-.07,0a.06.06,0,0,1,0-.06c0-.06,0-.07,0-.07h0a.13.13,0,0,0-.08-.16.35.35,0,0,1-.08-.16.3.3,0,0,0-.12-.22.87.87,0,0,1-.16-.26c0-.06,0-.11-.06-.11l0-.06c0-.07.08-.21-.11-.18h0s0-.07-.05-.08l-.33-.49c0-.05,0-.08-.06-.09l0-.06s0-.07-.06-.08l0-.06s0-.07-.05-.07l-.05-.07c.07-.18-.09-.18-.18-.24l0,0c0-.05,0-.08-.06-.08a.07.07,0,0,1,0-.06.29.29,0,0,0,0-.16c0-.08-.07-.06-.11,0l0,0c0-.07,0-.11-.09-.12a.34.34,0,0,1-.12-.12.15.15,0,0,0-.16-.19.66.66,0,0,1-.18-.19c0-.05,0-.08-.07-.07a3.87,3.87,0,0,1-.4-.41c0-.07,0-.08-.09-.08h0c-.05-.09-.08-.2-.21-.2l-.1-.08a.17.17,0,0,0-.18-.15h0c0-.08-.05-.1-.11-.09h0c0-.09-.09-.12-.18-.14l-.06,0c0-.09,0-.1-.11-.09h-.05a0,0,0,0,0,0,0c0-.1-.09-.12-.17-.13l-.07-.05c0-.05,0-.06-.08-.05l-.15-.11a.07.07,0,0,0-.09-.06h0s0-.09,0-.1,0,0-.05.05a.24.24,0,0,1-.13-.09c0-.13-.11-.2-.26-.16l-.08-.05a.07.07,0,0,0-.09-.05l-.08,0a.18.18,0,0,0-.22-.12A.09.09,0,0,1,25,23c0-.16-.16-.17-.29-.15l0,0a.23.23,0,0,0-.15-.12c-.31-.12-.59-.28-.91-.38-.12,0-.23-.14-.37-.1a.08.08,0,0,1-.07,0c-.05-.1-.15-.1-.24-.08a.08.08,0,0,1-.07,0,.21.21,0,0,0-.27-.09h-.07a.33.33,0,0,0-.34-.09.06.06,0,0,1-.07,0,.44.44,0,0,0-.41-.09h-.07a.66.66,0,0,0-.51-.1.14.14,0,0,1-.14,0,1.64,1.64,0,0,0-.85-.09,1,1,0,0,1-.34,0c0-.07-.08-.05-.13-.05l-1.85,0-.4,0a.62.62,0,0,0-.38,0,.5.5,0,0,1-.21,0c-.06-.1-.17-.06-.24-.06a2,2,0,0,0-.64,0,.17.17,0,0,1-.14,0,.75.75,0,0,0-.44-.08h-.07a1.67,1.67,0,0,0-.69-.2.1.1,0,0,1-.1,0,.73.73,0,0,0-.47-.19l0,0c-.06-.15-.2-.14-.32-.16s-.05,0-.06,0a.5.5,0,0,0-.42-.24h0c0-.12-.07-.12-.16-.11a.08.08,0,0,1-.07-.05c0-.1,0-.19-.16-.12a1,1,0,0,1-.29-.21c0-.09,0-.11-.12-.1s0,0,0-.05a.06.06,0,0,0,0,0s0,0,0,0,0,0,0,0-.05,0-.07,0a2.57,2.57,0,0,1-.33-.33c0-.1,0-.14-.14-.14a.74.74,0,0,1-.2-.23A.06.06,0,0,0,11.6,19a.76.76,0,0,1-.17-.23c0-.12,0-.24-.17-.23a3.06,3.06,0,0,1-.41-.7c.05-.06,0-.06,0-.07l0,0,0-.1h0l-.07,0s0,0,0-.07,0-.09,0-.1a.1.1,0,0,1,0-.1c.11-.1.06-.15-.05-.18s-.05-.08-.05-.13,0-.06,0-.07,0-.11,0-.17,0-.06,0-.07l0-.1c.05-.07,0-.12,0-.17l0,0v-.17c0-.05,0-.1,0-.13a.65.65,0,0,1,0-.28,1.56,1.56,0,0,0,0-.68v-.34l0,0c.08-.05.05-.11,0-.17V14.5l0-.13c0-.08.11-.15,0-.24V14l0,0s.06,0,0-.07l0-.17c0-.05.1-.1,0-.17s0-.18,0-.28l0-.09h0s.06,0,0-.07,0-.13,0-.2l0-.07.23-.62c.08,0,.08-.11.08-.19l.05-.19s0-.08.06-.13l0,0a5,5,0,0,1,1.22-1.62,7.32,7.32,0,0,1,1.29-.91c.24-.14.31-.28.21-.53-.22-.6-.45-1.19-.68-1.79l0-.13A2.22,2.22,0,0,0,13,6.2s0-.1-.05-.13l0-.06a.05.05,0,0,0,0-.07l-.08-.24s0,0,0-.07l0-.07a.14.14,0,0,0,0-.11.44.44,0,0,0-.06-.16.09.09,0,0,0,0-.1A.52.52,0,0,0,12.52,5s0-.05,0-.07,0-.13-.07-.2,0,0,0-.07l0-.07a.08.08,0,0,0,0-.09l0-.08a.5.5,0,0,0-.08-.2.07.07,0,0,0,0-.07s0,0,0-.07l-.06-.27a.65.65,0,0,0,0-.31.32.32,0,0,0-.22-.28.3.3,0,0,0-.17-.1l-.76-.28a6.83,6.83,0,0,0-.87-.29,0,0,0,0,0-.06,0l-.11-.06C9.27,2.23,8.64,2,8,1.88c-.42-.11-.83-.23-1.26-.3H6.69A4.46,4.46,0,0,0,6,1.39l-1.4-.32H4.5A9.86,9.86,0,0,0,3.17.76H3.1a1.34,1.34,0,0,0-.44-.1.12.12,0,0,0-.1,0,9.49,9.49,0,0,0-1.3-.2h-.1A3.57,3.57,0,0,0,.44.35H.37A1.63,1.63,0,0,0,0,.27V0L1,.08C2.2.16,3.36.25,4.52.42c.66.1,1.32.2,2,.32a25.55,25.55,0,0,1,3,.73A32.46,32.46,0,0,1,12.66,2.6c.13,0,.17.11.13.23a4,4,0,0,0-.14,1.49,5.48,5.48,0,0,0,.71,2.4,2.77,2.77,0,0,0,1.1.94,5.05,5.05,0,0,0,1.73.58,5.87,5.87,0,0,0,.84,0,8.37,8.37,0,0,1,2.76.42c.64.2,1.26.45,1.88.7.23.09.24.08.36-.15a3.26,3.26,0,0,0,1.45.94,2,2,0,0,0,0-.46l.61.49a.14.14,0,0,0,.11.09.08.08,0,0,0,.1.05.06.06,0,0,0,0,.07L25,11c0,.08.09.09.14,0h0c.06,0,.06-.06,0-.11l0-.24a0,0,0,0,0,0-.07l0-.06a.14.14,0,0,0,0-.11v-.09c.05,0,.07,0,.11,0a.06.06,0,0,0,.06.06c.35.37.69.75,1.05,1.11a.68.68,0,0,0,.7.18.52.52,0,0,1,.68.22l0,0a4.37,4.37,0,0,0,.4.65l.14.21a.53.53,0,0,0,.13.2.34.34,0,0,0,.1.16.29.29,0,0,0,.08.13l.1.25a.14.14,0,0,0,0,.14v.06s0,.07,0,.08a.32.32,0,0,0,.1.22h0s0,.07.08.08a0,0,0,0,0,0,0,3.58,3.58,0,0,0,1.79.92ZM28.32,25.32l0,0s0,0,0,0,0,0,0,0S28.33,25.34,28.32,25.32ZM29.73,27h0a0,0,0,0,0,0,0Zm-.9-1h0Z"/><path class="cls-2" d="M0,4.2,3.64,4l3.54-.17c1-.05,1.91-.1,2.86-.12.55,0,1.09,0,1.63.07a.14.14,0,0,1,.14.12c0,.18.07.36.12.53s0,.13-.11.13c-.59,0-1.19,0-1.79,0-2.17-.08-4.33-.14-6.51-.13-1.17,0-2.35,0-3.52.14Z"/><path class="cls-3" d="M6.11,6.31h.06a.06.06,0,0,0,.07,0l.1,0a2.44,2.44,0,0,0,.59-.15H7a.17.17,0,0,0,.14,0,.17.17,0,0,0,.14,0,.12.12,0,0,0,.1,0h.07a1.2,1.2,0,0,0,.37-.1h.07s0,0,.07,0l.1,0a.08.08,0,0,0,.1,0l.07,0a.55.55,0,0,0,.28-.06.1.1,0,0,0,.1,0,.19.19,0,0,0,.13,0,.11.11,0,0,0,.11,0,1.69,1.69,0,0,0,.54-.12l.14,0a.35.35,0,0,0,.2,0h.07a.09.09,0,0,0,.1,0,.32.32,0,0,0,.17,0,1.06,1.06,0,0,0,.31-.05.11.11,0,0,0,.1,0,.12.12,0,0,0,.14,0h.2l.45,0a.11.11,0,0,0,.1,0,.31.31,0,0,0,.21,0,.6.6,0,0,0,.23,0L12,5.3l.09.09a.2.2,0,0,0,.08.1l.07.21,0,.13a.07.07,0,0,0,0,0c.06.13,0,.21-.12.19a1.27,1.27,0,0,0-.2,0,8,8,0,0,0-1.3.1.09.09,0,0,0-.1,0,4.62,4.62,0,0,0-1,.1h-.1a1.34,1.34,0,0,0-.49,0,6,6,0,0,0-1,.16H7.92a6.39,6.39,0,0,0-1.16.2H6.59c-.34.06-.69.12-1,.2a4.25,4.25,0,0,0-.78.2H4.71a.85.85,0,0,0-.38.09H4.27a6.66,6.66,0,0,0-.88.22,2.37,2.37,0,0,0-.59.18H2.73a14,14,0,0,0-1.44.43,4.23,4.23,0,0,0-.78.27l-.06,0c-.16,0-.29.12-.45.12V8.22A1.42,1.42,0,0,0,.51,8L.65,8a.28.28,0,0,0,.17-.07l.07,0a1.56,1.56,0,0,0,.41-.15s.05,0,.07,0a1.82,1.82,0,0,0,.51-.18.4.4,0,0,0,.23-.08.06.06,0,0,0,.07,0,.16.16,0,0,0,.13,0,2.49,2.49,0,0,0,.53-.16.8.8,0,0,0,.26-.09.06.06,0,0,0,.07,0,.61.61,0,0,0,.24-.06.15.15,0,0,0,.11,0h.06A1.51,1.51,0,0,0,4,6.89a.22.22,0,0,0,.14,0,2.41,2.41,0,0,0,.58-.17l.1,0a.26.26,0,0,0,.17,0,.61.61,0,0,0,.27-.08.26.26,0,0,0,.21-.06h.07a.53.53,0,0,0,.3-.09c.06,0,.13,0,.17,0A.11.11,0,0,0,6.11,6.31Z"/></g></g></svg>