<?xml version="1.0" encoding="UTF-8" standalone="no"?><svg xmlns="http://www.w3.org/2000/svg" viewBox="0 0 13.03 29"><defs><style>.cls-1{fill:#599636;}.cls-2{fill:#6cac48;}.cls-3{fill:#c2bfbf;}</style></defs><g id="Layer_2" data-name="Layer 2"><g id="Layer_1-2" data-name="Layer 1"><path class="cls-1" d="M6.42.08,7.2,1.53a4.14,4.14,0,0,0,.58.73A20.83,20.83,0,0,1,9.6,4.31,17.87,17.87,0,0,1,12.42,10a13.82,13.82,0,0,1,.6,3.87A13.65,13.65,0,0,1,9,24a12,12,0,0,1-1.43,1.22c-.26,0-.39-.21-.5-.4a3.3,3.3,0,0,1-.4-1.14,5.68,5.68,0,0,1-.12-1.43V22S6.33.19,6.42.08Z"/><path class="cls-2" d="M6.42,0c0-.06-.06,0-.09,0a1.54,1.54,0,0,1-.27.87,4.16,4.16,0,0,1-.7.69A15.21,15.21,0,0,0,2,5.94,17.32,17.32,0,0,0,0,13a23.82,23.82,0,0,0,.57,5,15.11,15.11,0,0,0,4,6.24q.67.63,1.41,1.2c.14,0,.16-.13.19-.23a4.15,4.15,0,0,0,.14-.61l.32-2.37Z"/><path class="cls-3" d="M7.2,26.14a2.13,2.13,0,0,1,.39-1,1,1,0,0,1-.44-.41,2.53,2.53,0,0,1-.24-.53,9.35,9.35,0,0,1-.33-2V21.8c-.08.06-.09.6-.09.68a15.36,15.36,0,0,1-.29,2.13,2,2,0,0,1-.25.82.49.49,0,0,0,0,.11,9,9,0,0,1,.41,2.56v.32c0,.38,0,.3.3.42a1.67,1.67,0,0,1,.4.16c.09,0,.11-.08.11-.14l0-.52V26.88a3.64,3.64,0,0,1,.07-.74Z"/></g></g></svg>