<?xml version="1.0" encoding="UTF-8" standalone="no"?><svg xmlns="http://www.w3.org/2000/svg" xmlns:xlink="http://www.w3.org/1999/xlink" viewBox="0 0 21.77 29"><defs><style>.cls-1{fill:url(#linear-gradient);}.cls-2,.cls-4{isolation:isolate;opacity:0.15;}.cls-2{fill:url(#linear-gradient-2);}.cls-3{fill:url(#linear-gradient-3);}.cls-4{fill:url(#linear-gradient-4);}.cls-5{fill:url(#linear-gradient-5);}</style><linearGradient id="linear-gradient" x1="12.52" y1="6590.87" x2="21.12" y2="6567.24" gradientTransform="matrix(1, 0, 0, -1, 0, 6593.68)" gradientUnits="userSpaceOnUse"><stop offset="0.01" stop-color="#e4a910"/><stop offset="0.32" stop-color="#dfa311"/><stop offset="0.63" stop-color="#d08c0c"/><stop offset="1" stop-color="#c17f06"/></linearGradient><linearGradient id="linear-gradient-2" x1="15.06" y1="6564.68" x2="15.06" y2="6586.46" gradientTransform="matrix(1, 0, 0, -1, 0, 6593.68)" gradientUnits="userSpaceOnUse"><stop offset="0" stop-color="#c17f06"/><stop offset="0.22" stop-color="#c17f06" stop-opacity="0.99"/><stop offset="0.37" stop-color="#c28006" stop-opacity="0.94"/><stop offset="0.5" stop-color="#c38107" stop-opacity="0.86"/><stop offset="0.61" stop-color="#c58207" stop-opacity="0.75"/><stop offset="0.72" stop-color="#c78408" stop-opacity="0.61"/><stop offset="0.82" stop-color="#ca8609" stop-opacity="0.43"/><stop offset="0.91" stop-color="#cd890b" stop-opacity="0.22"/><stop offset="1" stop-color="#d08c0c" stop-opacity="0"/></linearGradient><linearGradient id="linear-gradient-3" x1="7.56" y1="6586.56" x2="13.98" y2="6564.18" gradientTransform="matrix(1, 0, 0, -1, 0, 6593.68)" gradientUnits="userSpaceOnUse"><stop offset="0" stop-color="#f6d54e"/><stop offset="0.31" stop-color="#eec634"/><stop offset="0.57" stop-color="#e9b822"/><stop offset="1" stop-color="#e9b21c"/></linearGradient><linearGradient id="linear-gradient-4" x1="8.22" y1="6564.68" x2="8.22" y2="6579.25" gradientTransform="matrix(1, 0, 0, -1, 0, 6593.68)" gradientUnits="userSpaceOnUse"><stop offset="0" stop-color="#f7db5e"/><stop offset="0.2" stop-color="#f7da5d" stop-opacity="0.99"/><stop offset="0.34" stop-color="#f5d75a" stop-opacity="0.95"/><stop offset="0.45" stop-color="#f3d255" stop-opacity="0.89"/><stop offset="0.56" stop-color="#efcc4e" stop-opacity="0.8"/><stop offset="0.66" stop-color="#ebc345" stop-opacity="0.69"/><stop offset="0.75" stop-color="#e6b839" stop-opacity="0.55"/><stop offset="0.84" stop-color="#dfab2c" stop-opacity="0.39"/><stop offset="0.92" stop-color="#d89c1d" stop-opacity="0.21"/><stop offset="1" stop-color="#d08c0c" stop-opacity="0"/></linearGradient><linearGradient id="linear-gradient-5" x1="2.65" y1="6579.67" x2="7.16" y2="6563.95" gradientTransform="matrix(1, 0, 0, -1, 0, 6593.68)" gradientUnits="userSpaceOnUse"><stop offset="0" stop-color="#f8e386"/><stop offset="0.31" stop-color="#f6dc65"/><stop offset="0.57" stop-color="#f7db5e"/><stop offset="1" stop-color="#fad859"/></linearGradient></defs><g id="Layer_2" data-name="Layer 2"><g id="Layer_1-2" data-name="Layer 1"><path class="cls-1" d="M20.37,29H12.2V1.4A1.4,1.4,0,0,1,13.6,0h6.77a1.4,1.4,0,0,1,1.4,1.4V27.6A1.4,1.4,0,0,1,20.37,29Z"/><path class="cls-2" d="M15.44,7.22H13.29V29h3.55V8.62a1.4,1.4,0,0,0-1.4-1.4Z"/><path class="cls-3" d="M15.75,29H6V8.62a1.39,1.39,0,0,1,1.39-1.4h6.93a1.4,1.4,0,0,1,1.4,1.4Z"/><path class="cls-4" d="M8.67,14.43H6.37V29h3.7V15.82A1.4,1.4,0,0,0,8.67,14.43Z"/><path class="cls-5" d="M9.72,29H1.4A1.4,1.4,0,0,1,0,27.6H0V15.82a1.4,1.4,0,0,1,1.4-1.39H8.32a1.4,1.4,0,0,1,1.4,1.4h0Z"/></g></g></svg>