<?xml version="1.0" encoding="UTF-8" standalone="no"?><svg xmlns="http://www.w3.org/2000/svg" viewBox="0 0 32 14.73"><defs><style>.cls-1{fill:#ceebfd;}.cls-2{fill:#98b4d7;}.cls-3{fill:#a1c1e1;}.cls-4{fill:#8ea5c8;}.cls-5{fill:#889ec2;}.cls-6{fill:#8195bb;}.cls-7{fill:#5b6993;}.cls-8{fill:#93abcd;}.cls-9{fill:#bfe3fa;}.cls-10{fill:#798cb2;}.cls-11{fill:#b6ddf8;}.cls-12{fill:#b1d3ef;}.cls-13{fill:#343d63;}.cls-14{fill:#080a15;}.cls-15{fill:#d6effc;}</style></defs><g id="Layer_2" data-name="Layer 2"><g id="Layer_1-2" data-name="Layer 1"><path class="cls-1" d="M10.89.77c.32,0,.58-.25.9-.16l.1.05,0-.19,3-.46c.37-.06.68.26,1,.12h.14a12.53,12.53,0,0,1,3.86.35c.19.24-.43.42-.11.54A22.36,22.36,0,0,0,22,1.61a1.21,1.21,0,0,1,.17.74h0L22,2.48c0,.32-.07.59-.46.62-.39-.32-.78-.65-1.34-.41a.13.13,0,0,0-.12,0l-.31-.06-.74,0-.31-.09a6.14,6.14,0,0,0-1.91-.14h-.32a13.68,13.68,0,0,0-6.23.9,2.11,2.11,0,0,1-2,.45l-.1-.31a1.13,1.13,0,0,1,.06-1.07c.26-.07.6.08.76-.28a6.46,6.46,0,0,0,1.47-.59c.35-.14.2-.32.16-.52l.18-.08Z"/><path class="cls-2" d="M23.24,12.51l-2.86,1.54a5.76,5.76,0,0,1-2.39.58c-2.77.2-5.54.28-8-1.4a10,10,0,0,0-1.47-.72c0-.14,0-.28.13-.36.34-.14.45-.64.91-.59,0,.3-.52.54-.07.88s.41-.27.67-.3c-.2.55,0,.85.54,1a10,10,0,0,0,1.65.63,17.21,17.21,0,0,0,5,.32A8.48,8.48,0,0,0,21.38,13c.43-.29,1.15-.32,1.25-1h.13l.3.15Z"/><path class="cls-3" d="M2.28,10.06l-.89-.15-.18-.13C.07,9.73-.32,9,.27,8A4.1,4.1,0,0,1,2.43,5.92a.38.38,0,0,0,.43.13c-.18.39-.83.22-.88.75-.87.38-.9.58-.14,1.16L2,8.14H2c.19.43-.3,1,.29,1.35,0,0,0,.1,0,.14C2.06,9.76,2.21,9.91,2.28,10.06Zm-.53-.64c-.15,0-.18,0-.19.11a.17.17,0,0,0,.14.21c.1,0,.2,0,.16-.14A.7.7,0,0,0,1.75,9.42Z"/><path class="cls-4" d="M29.75,10.09l-2.5.59c-.19-.06-.44,0-.49-.29.24,0,.48-.05.61-.3h.3c.21,0,.49.08.55-.23A.47.47,0,0,0,28,9.34c-.36-.16-.31.26-.48.4l-.74,0-.3.15-.14,0v-.3a.31.31,0,0,1,.28-.27c.42-.06,0-.21,0-.31.51-.17-.09-.68.27-.89.43,0,.15.51.42.67.22,0,.33-.23.48-.37a3.66,3.66,0,0,1,1.27.68c.43.75.34-.15.5-.09a.57.57,0,0,1,.31.3A.48.48,0,0,0,29.75,10.09Z"/><path class="cls-4" d="M29.62,6a2.57,2.57,0,0,1,1.52,1.06A2.68,2.68,0,0,1,32,8.38c.06.35.05.61-.21.76-.45.24-.75.69-1.28.78V9.77c.3-.25,0-.51,0-.76,1.07-1,.8-.89,0-1.93-.27-.35-.74-.54-1-1Z"/><path class="cls-5" d="M22.91,1.62a17.57,17.57,0,0,1,3.31,1.84c.29.18.68.27.87.61l0,.36h-.42c-.16-.45-.29-.82-.87-.34-.26.22-.1-.17-.18-.25a.42.42,0,0,0-.43-.53c-.3,0-.14.34-.24.51h-.22c0-.39.23-.84-.35-1s-.1.57-.52.47c-.11-.3.22-.83-.39-.91s-.14.48-.4.6c-.34-.3.18-.72-.15-1Z"/><path class="cls-6" d="M8.22,2.35a1.16,1.16,0,0,0-.07,1.07l-.21,0c0-.26,0-.6-.41-.56s-.38.4-.35.69.1.52.15.78L7.06,4c-.14-.21.17-.68-.29-.67A.49.49,0,0,0,6.31,4l0,.3c-.28,0,0-.73-.51-.42s-.71.8-1.3.85c-.06,0-.09.2-.14.31H4.23L4.07,5v-.4l3.35-2.2A1.72,1.72,0,0,1,8.21,2Z"/><path class="cls-7" d="M26,11.14a9.94,9.94,0,0,1-2.54,1.38l0-.64.16-.15c.29,0,.58-.06.61-.44h.06a2.68,2.68,0,0,0,1.52-.48Z"/><path class="cls-5" d="M6.4,11.45a8.55,8.55,0,0,0-2.48-.93h0c.13,0,.19,0,.16-.16l.3-.29c.33.12.72.63.91-.15h.15c-.11.72.23.7.72.43-.09.39.22.5.46.65A.45.45,0,0,1,6.4,11.45Z"/><path class="cls-8" d="M4.36,10.07l-.3.29c0,.05-.2,0-.16.16h0c-.53-.23-1.13-.16-1.64-.46-.07-.15-.22-.3,0-.44.14.05.36-.19.42.09.1.46.16.09.22,0,.22-.36.45-.54.81-.13a.65.65,0,0,0,.6.18C4.35,9.87,4.36,10,4.36,10.07Z"/><path class="cls-7" d="M6.4,11.45A.45.45,0,0,0,6.6,11l.15,0h.06a.44.44,0,0,0,.37.4,2.39,2.39,0,0,1,1.46.76c-.15.08-.12.22-.13.36A6.26,6.26,0,0,1,6.4,11.45Z"/><path class="cls-4" d="M27.07,4.43l0-.36a13.94,13.94,0,0,1,2.36,1.59.36.36,0,0,1,.17.37l-.1.1c-.35,0-.53-.38-.82-.52l-.15,0a.2.2,0,0,0-.13,0h0c-.19-.44-.4-.81-.9-.28A.81.81,0,0,0,27.07,4.43Z"/><path class="cls-9" d="M22,1.61A22.36,22.36,0,0,1,19.83,1c-.32-.12.3-.3.11-.54l.44.14a.49.49,0,0,0,0,.12l.13.13.16-.12.3,0,.12.11.16,0c.06.36.34.23.55.27L22,1.3Z"/><path class="cls-3" d="M10.61,1c0,.2.19.38-.16.52A6.46,6.46,0,0,1,9,2.07L9,2l.14-.45h0c.13,0,.27,0,.31-.14s.42-.18.64-.28l.11-.11Z"/><path class="cls-5" d="M2.86,6.05a.38.38,0,0,1-.43-.13,2.63,2.63,0,0,1,1-1l.23.23Z"/><path class="cls-10" d="M26,11.14l-.16-.33.88-.42c0,.29.3.23.49.29A3.37,3.37,0,0,1,26,11.14Z"/><path class="cls-3" d="M22,1.61l0-.31c.34,0,.57.24.88.32v.29c-.43-.17-.61.09-.73.44A1.21,1.21,0,0,0,22,1.61Z"/><path class="cls-2" d="M30.48,9.77v.15l-.73.17a.48.48,0,0,1,.14-.76.31.31,0,0,1,.15.29c.05.08.09.08.14,0Z"/><path class="cls-4" d="M3.67,5.2,3.44,5c.22-.11.35-.36.62-.39V5Z"/><path class="cls-3" d="M8.22,2.35V2l.41-.17L9,2l0,0C8.82,2.43,8.48,2.28,8.22,2.35Z"/><path class="cls-4" d="M23.53,11.88l0,.64h-.26l-.18-.36Z"/><path class="cls-6" d="M9,2l-.33-.17a.48.48,0,0,1,.47-.28Z"/><path class="cls-5" d="M21.81,1.19c-.21,0-.49.09-.55-.27A.42.42,0,0,1,21.81,1.19Z"/><path class="cls-3" d="M20.39.74a.49.49,0,0,1,0-.12c.14,0,.27-.08.3.13l-.16.12Z"/><path class="cls-3" d="M11.94.47l0,.19-.1-.05C11.79.51,11.81.43,11.94.47Z"/><path class="cls-6" d="M9.4,1.45c0,.17-.18.15-.31.14C9.15,1.45,9.28,1.46,9.4,1.45Z"/><path class="cls-3" d="M10.89.77l-.1.11C10.75.78,10.78.73,10.89.77Z"/><path class="cls-2" d="M1.21,9.78l.18.13C1.28,9.94,1.24,9.86,1.21,9.78Z"/><path class="cls-3" d="M21.1.88,21,.77C21.09.73,21.11.79,21.1.88Z"/><path class="cls-6" d="M10.15,1.06,10,1.17C10,1.08,10.05,1,10.15,1.06Z"/><path class="cls-3" d="M16.08.13h-.14L16,0Z"/><path class="cls-6" d="M10.29,3.28a13.68,13.68,0,0,1,6.23-.9l.17.28L16.52,3h-1l-.17-.06c-.25-.17-.39-.1-.45.19a.48.48,0,0,0-.45.3c-.24,0-.49.19-.73,0a.93.93,0,0,0-1-.15,7.61,7.61,0,0,0-2,.5C10.55,3.56,10.3,3.51,10.29,3.28Z"/><path class="cls-9" d="M22.17,2.35c.12-.35.3-.61.73-.44s-.19.72.15,1c.16.29.59.45.46.89-.27-.06-.4.43-.71.19l-.24,0c-.15-.48-.71-.34-1-.63V3.1c.39,0,.46-.3.46-.62l.14-.13Z"/><path class="cls-6" d="M19.06,2.62l.74,0c0,.17,0,.34-.18.43l-.71.11c-.7-.36-.66.33-.9.63a.73.73,0,0,1-.73.15c0-.11,0-.28.07-.34.63-.51.17-.64-.26-.78a.34.34,0,0,1-.26-.22V2.39a6.14,6.14,0,0,1,1.91.14C18.8,2.72,18.88,2.86,19.06,2.62Z"/><path class="cls-10" d="M19.62,3.1c.17-.09.17-.26.18-.43l.31.06a.35.35,0,0,0,.12.07l1.35.56c.27.29.83.15,1,.63a.72.72,0,0,1-.84,0C21.06,3.61,20.26,3.53,19.62,3.1Z"/><path class="cls-10" d="M10.29,3.28c0,.23.26.28.34.46l-.51.37a1.38,1.38,0,0,0-.87.46H9.12c0-.62-.52-.37-.85-.41L8.14,3.8a.15.15,0,0,0,.12-.07A2.11,2.11,0,0,0,10.29,3.28Z"/><path class="cls-11" d="M21.58,3.36,20.23,2.8a.21.21,0,0,1,0-.11c.56-.24.95.09,1.34.41Z"/><path class="cls-3" d="M7.94,3.37l.21,0c0,.1.08.21.11.31a.2.2,0,0,1-.12.08Z"/><path class="cls-4" d="M16.84,2.39v.26h-.14l-.17-.28Z"/><path class="cls-4" d="M19.06,2.62c-.18.24-.26.1-.31-.09Z"/><path class="cls-3" d="M22.17,2.35,22,2.48Z"/><path class="cls-6" d="M20.23,2.69a.21.21,0,0,0,0,.11.35.35,0,0,1-.12-.07A.13.13,0,0,1,20.23,2.69Z"/><path class="cls-11" d="M22.63,12c-.1.72-.82.75-1.25,1a8.48,8.48,0,0,1-4.07,1.1,17.21,17.21,0,0,1-5-.32,10,10,0,0,1-1.65-.63c-.54-.19-.74-.49-.54-1h0L10.3,12h0c.73-.26,1.32.26,2,.35.33.05.63.19.84-.2l.42,0a4,4,0,0,0,1.94.44,4.59,4.59,0,0,0,3-.46h.15c.92.6,1.7,0,2.52-.29.13,0,.26,0,.33-.14.34,0,.67-.3,1,0h0l.16.15h0A.68.68,0,0,0,22.63,12Z"/><path class="cls-9" d="M8.64,12.15a2.39,2.39,0,0,0-1.46-.76.87.87,0,0,1,.73-.57l.61.13c.19.47.83.16,1,.61h0C9.09,11.51,9,12,8.64,12.15Z"/><path class="cls-9" d="M23.53,11.88l-.47.27-.3-.15-.15-.15h0l-.16-.15h0c0-.24.16-.38.3-.54l.29,0a.28.28,0,0,0,.3.08h0c-.06.25.08.37.3.44l0,0Z"/><path class="cls-9" d="M10.15,12.14c-.26,0-.26.62-.67.3s.12-.58.07-.88h0l.45,0c.09.16.33.23.29.46h0l-.16.16Z"/><path class="cls-4" d="M22.61,11.85l.15.15h-.13A.68.68,0,0,1,22.61,11.85Z"/><path class="cls-9" d="M3.67,5.2,4.07,5l.16,0a.74.74,0,0,0,.28.46h0l.16.15h0a.16.16,0,0,0,.16.16h0A.16.16,0,0,0,5,5.92H5a.14.14,0,0,0,.15.15h0c0,.45-.2.75-.74.59l-.27-.17L4,6.42l0,.1.15.14.18.3a.76.76,0,0,0-.47.58H3.76c0-.06,0-.27-.14-.11A1.52,1.52,0,0,1,3,7.83a1.18,1.18,0,0,0-.75-.58h0L2.13,7.1h0c0-.13,0-.24-.14-.29H2c0-.53.7-.36.88-.75Zm.19,1,0,0v0Z"/><path class="cls-8" d="M3,7.83a1.52,1.52,0,0,0,.59-.39c.14-.16.11,0,.14.11L3.62,8.88c-.68-.32-.9.39-1.34.6-.59-.35-.1-.92-.29-1.35.31,0,.65.06.85-.28Z"/><path class="cls-6" d="M2.28,9.48c.44-.21.66-.92,1.34-.6.31.22.9.11.88.73l-.16.15a.65.65,0,0,1-.6-.18c-.36-.41-.59-.23-.81.13-.06.09-.12.46-.22,0-.06-.28-.28,0-.42-.09S2.28,9.53,2.28,9.48Z"/><path class="cls-9" d="M2.84,7.85c-.2.34-.54.28-.85.28H2L1.84,8c-.76-.58-.73-.78.14-1.16H2a.29.29,0,0,0,.14.29h0l.15.15h0A.69.69,0,0,0,2.84,7.85Z"/><path class="cls-2" d="M1.75,9.42a.7.7,0,0,1,.11.18c0,.12-.06.16-.16.14a.17.17,0,0,1-.14-.21C1.57,9.46,1.6,9.4,1.75,9.42Z"/><path class="cls-8" d="M1.84,8,2,8.14Z"/><path class="cls-9" d="M26.64,9c0,.1.38.25,0,.31a.31.31,0,0,0-.28.27.52.52,0,0,0-.74.11,7.73,7.73,0,0,1-1.49.37c-.48,0-.76-.25-.73-.76.6-.27.18-.8.29-1.19a.32.32,0,0,0,0-.14V7.84l.05-.29c1,.23,2.15.26,2.61,1.48C26.35,9.16,26.52,9.06,26.64,9Z"/><path class="cls-11" d="M26.64,9c-.12,0-.29.13-.34,0-.46-1.22-1.59-1.25-2.61-1.48v-.3L24,7.1c1.1-.08,2.19-.1,3,.89,0,0,0,.1,0,.15C26.55,8.35,27.15,8.86,26.64,9Z"/><path class="cls-11" d="M26.76,10.39l-.88.42a2.68,2.68,0,0,1-1.52.48c0-.1,0-.17-.11-.18h0c0-.1-.05-.15-.15-.15h0c0-.22.19-.4.38-.38.4,0,.65-.22.95-.38.41.23.6-.2.9-.29l.14,0c0,.09.05.21.15.2s.13-.22.15-.35l.74,0c0,.12-.09.23-.14.35S27,10.35,26.76,10.39Z"/><path class="cls-2" d="M29.58,9c-.16-.06-.07.84-.5.09a3.66,3.66,0,0,0-1.27-.68c-.11-.08-.29-.14-.22-.31S27.83,8,28,8h0c0,.14.16.16.28.17a.33.33,0,0,0,.3.14.31.31,0,0,0,.31.14l.06.06-.06-.07s0-.09,0-.14c.16,0,.42.22.46-.16h.57l0,0c0,.28.37.41.28.72C30,8.91,29.74,8.81,29.58,9Z"/><path class="cls-12" d="M27.37,10.09c.05-.12.1-.23.14-.35s.12-.56.48-.4a.47.47,0,0,1,.23.51c-.06.31-.34.21-.55.23Z"/><path class="cls-6" d="M29.58,9c.16-.22.4-.12.61-.15l.29.13c0,.25.3.51,0,.76l-.3-.15H30a.31.31,0,0,0-.15-.29A.57.57,0,0,0,29.58,9Z"/><path class="cls-10" d="M28,8c-.13,0-.31,0-.37.14s.11.23.22.31c-.15.14-.26.33-.48.37-.27-.16,0-.63-.42-.67,0-.05,0-.1,0-.15l.3-.14C27.47,7.88,27.75,7.75,28,8Z"/><path class="cls-8" d="M26.33,9.91c-.3.09-.49.52-.9.29l.15-.48a.52.52,0,0,1,.74-.11Z"/><path class="cls-12" d="M26.77,9.79c0,.13.05.31-.15.35s-.13-.11-.15-.2Z"/><path class="cls-9" d="M30.48,9l-.29-.13c.09-.31-.29-.44-.28-.72l.18-.09s0-.05,0-.05l-.18.1H29.3L29.14,8c0-.09,0-.18,0-.27l0-.09-.09,0L29,8c-.23-.2-.57-.32-.56-.71l.06-.08-.09,0c-.44.42-.5-.14-.73-.28a1.16,1.16,0,0,0-.3-1.2v-.3h0l.16-.15h0c.5-.53.71-.16.9.28l0,.06,0,0a.2.2,0,0,1,.13,0c0,.09.09.1.15,0,.29.14.47.47.82.52.24.41.71.6,1,1C31.28,8.12,31.55,8.05,30.48,9Zm-.88-1.6.1-.18-.05,0a1.46,1.46,0,0,0-.07.19l-.06.08Zm-.76-.61L28.73,7l.05,0a1.08,1.08,0,0,0,.08-.19l.06-.07Zm-.64-.52c0-.12,0-.17-.13-.14S28,6.2,28,6.23a.48.48,0,0,0,.08.16Z"/><path class="cls-9" d="M27.07,4.43a.81.81,0,0,1,.44.89h0l-.16.15h0a.27.27,0,0,0-.16.31h0a.16.16,0,0,0-.16.15h0a.15.15,0,0,0-.15.15h0a.18.18,0,0,0-.15.22v0l-.3,0-.71-.29c-.08-.52-.32-.89-.91-.91l-.31-.27c.11-.43-.47-.51-.44-.9s.45,0,.61-.17h.22l.67,0c.08.08-.08.47.18.25.58-.48.71-.11.87.34,0,.06,0,.18,0,.18s.08-.11.09-.18Zm-.67.78,0,0h0Zm.15-.3,0,0h0Z"/><path class="cls-1" d="M24.71,3.81c-.16.2-.47-.11-.61.17s-.11-.77-.46-.12a.22.22,0,0,1-.13,0c.13-.44-.3-.6-.46-.89.26-.12-.09-.67.4-.6s.28.61.39.91c.42.1,0-.64.52-.47S24.74,3.42,24.71,3.81Z"/><path class="cls-1" d="M25.6,3.84l-.67,0c.1-.17-.06-.51.24-.51A.42.42,0,0,1,25.6,3.84Z"/><path class="cls-4" d="M26.76,4.43c0,.07,0,.17-.09.18s0-.12,0-.18Z"/><path class="cls-9" d="M4.34,5c0-.11.08-.31.14-.31.59,0,.86-.59,1.3-.85s.23.41.51.42h0v.46c.2.46-.56.2-.45.6-.11,0-.08.1,0,.15a.31.31,0,0,1,0,.1c0,.16-.09.32-.14.48a.51.51,0,0,1-.59,0h0L5,5.91H5L4.8,5.76h0l-.16-.16h0L4.5,5.47h0A.44.44,0,0,0,4.34,5Zm1.11.09-.09,0,0,0Z"/><path class="cls-9" d="M7.94,3.37l.2.44.13.36-.08.39-.42.17-.3-.16h0c0-.14,0-.26-.15-.3h0c0-.26-.12-.52-.15-.78s-.06-.64.35-.69S7.9,3.11,7.94,3.37Z"/><path class="cls-11" d="M5.83,5.58a.31.31,0,0,0,0-.1V5.33c-.11-.4.65-.14.45-.6.23-.16.15-.31,0-.46h0l0-.3h.75l.27.3h0c0,.13,0,.25.15.3h0L7.32,5h0c-.36.07-.73.1-1,.48C6.26,5.66,6,5.65,5.83,5.58Z"/><path class="cls-1" d="M7.06,4H6.31a.49.49,0,0,1,.46-.67C7.23,3.3,6.92,3.77,7.06,4Z"/><path class="cls-4" d="M4.34,5a.44.44,0,0,1,.17.45A.74.74,0,0,1,4.23,5Z"/><path class="cls-11" d="M24.3,11.29c0,.38-.32.42-.61.44l0,0c0-.19-.09-.37-.3-.44h0V11l.13,0,.43-.1.17.11h0l.15.15h0Z"/><path class="cls-5" d="M24.3,11.29l-.05-.18c.1,0,.13.08.11.18Z"/><path class="cls-4" d="M4.5,9.61c0-.62-.57-.51-.88-.73l.14-1.33H3.9l.31.16c-.14.09-.14.2,0,.3v.29h0c-.06,0-.25-.06-.15.14a1.21,1.21,0,0,0,.76.44h0L5,9l.59.45v.43l-.12,0H5.27A1.79,1.79,0,0,0,4.5,9.61Z"/><path class="cls-12" d="M4.5,9.61a1.79,1.79,0,0,1,.77.31c-.19.78-.58.27-.91.15,0-.1,0-.2,0-.31Z"/><path class="cls-9" d="M6.75,11,6.6,11c-.24-.15-.55-.26-.46-.65h0l.16-.15.58.17a.57.57,0,0,0,0,.13v.29h0C6.78,10.82,6.75,10.89,6.75,11Z"/><path class="cls-11" d="M5.42,9.93l.12,0,.59.3v.16h0C5.65,10.63,5.31,10.65,5.42,9.93Z"/><path d="M3.9,10.52c0-.15.11-.11.16-.16C4.09,10.49,4,10.54,3.9,10.52Z"/><path class="cls-11" d="M6.89,10.52a.57.57,0,0,1,0-.13l.75,0c.22-.13.07-.42.22-.61a.7.7,0,0,1,.22.48.67.67,0,0,0-.16.59.87.87,0,0,0-.73.57.44.44,0,0,1-.37-.4,1.34,1.34,0,0,0,.07-.18h0c.1,0,.22-.09.19-.23S7,10.54,6.89,10.52Z"/><path class="cls-5" d="M6.88,10.81a1.34,1.34,0,0,1-.07.18H6.75C6.75,10.89,6.78,10.82,6.88,10.81Z"/><path class="cls-11" d="M28.7,5.61c-.06.08-.11.07-.15,0Z"/><path class="cls-1" d="M20.39.74l.13.13Z"/><path class="cls-4" d="M30,9.62h.14C30.13,9.7,30.09,9.7,30,9.62Z"/><path class="cls-2" d="M12.67,3.24a.93.93,0,0,1,1,.15c-.19,0-.46,0-.41.27.1.48.49.07.72.18,0,.13.09.27.14.41.05.33.25.68-.16.93a.47.47,0,0,1-.29-.45l0-.06,0,0c-.35,0-.4.32-.44.6h0a1.15,1.15,0,0,0-.44,1.49v.43c-.23.59-.48.37-.73,0s.2-.83-.31-1.11c-.11-.07,0-.49.15-.45.5.13.3-.16.33-.4a1.9,1.9,0,0,1,.25-.89c.22.12.43.27.66,0a.27.27,0,0,0,0-.25c-.54.26-.25-.59-.65-.48V3.54Z"/><path class="cls-3" d="M12.67,3.24l-.13.3-.17.15h0l-.45.15c-.13.1-.13.2,0,.29s.2.3.08.47-.25,0-.38,0c0-.44-.49-.11-.53-.39s.09-.38-.21-.3-.14.24-.15.38l-.44,0-.15,0,0-.17.51-.37A7.61,7.61,0,0,1,12.67,3.24Z"/><path class="cls-7" d="M16.69,2.66h.14a.34.34,0,0,0,.26.22c.43.14.89.27.26.78-.07.06-.05.23-.07.34l-.18.13-.66.19c-.08-.26.18-.54-.06-.78.18-.15.11-.37.14-.56Z"/><path class="cls-13" d="M16.38,3.53c.24.24,0,.52.06.78-.24.24-.58-.12-.81.15a.3.3,0,0,0-.27-.2l0-.26c.13-.77-.32-.58-.73-.44l-.12-.05a.27.27,0,0,0,0-.12.48.48,0,0,1,.45-.3c.19,0,.36,0,.45-.19l.17.06C15.61,3.44,15.81,3.76,16.38,3.53Z"/><path class="cls-14" d="M16.38,3.53c-.57.23-.77-.09-.87-.57h1C16.49,3.16,16.56,3.38,16.38,3.53Z"/><path class="cls-5" d="M14.44,3.39a.27.27,0,0,1,0,.12.49.49,0,0,1-.45.33c-.23-.11-.62.3-.72-.18-.05-.28.22-.26.41-.27C14,3.58,14.2,3.42,14.44,3.39Z"/><path class="cls-7" d="M15.34,2.9c-.09.21-.26.21-.45.19C15,2.8,15.09,2.73,15.34,2.9Z"/><path class="cls-2" d="M21.72,4a.72.72,0,0,0,.84,0l.24,0c0,.23,0,.46,0,.69s-.05.51-.07.77c-.43,0-.61-.48-1-.45l-.44-.89C21.44,4.13,21.61,4.15,21.72,4Z"/><path class="cls-13" d="M22.82,4.7l0-.69c.31.24.44-.25.71-.19a.22.22,0,0,0,.13,0,1.23,1.23,0,0,0,.09.68l-.08.18Z"/><path class="cls-2" d="M18,3.84c.24-.3.2-1,.9-.63-.18.67.23.77.74.77h0a.45.45,0,0,1,0,.46.64.64,0,0,0,0,1c.13.19,0,.39,0,.59s-.31.21-.36.06c-.24-.72-1-.5-1.43-.8C18.43,4.88,18.07,4.35,18,3.84Z"/><path class="cls-3" d="M19.65,4.44a.45.45,0,0,0,0-.46l0,0,0,0c-.51,0-.92-.1-.74-.77l.71-.11c.64.43,1.44.51,2.1.89-.11.16-.28.14-.44.14-.35-.34-.57.07-.84.15a.44.44,0,0,0-.35.46C19.94,4.64,19.88,4.41,19.65,4.44Z"/><path class="cls-9" d="M18,3.84c.06.51.42,1-.15,1.48l-.12.13c-.28,0-.49-.19-.75-.22l.11-1.11L17.28,4A.73.73,0,0,0,18,3.84Z"/><path class="cls-13" d="M8.19,4.56l.08-.39c.33,0,.8-.21.85.41l0,.9-.05.28H9l0-.27c.15-.6-.24-.65-.67-.66Z"/><path class="cls-4" d="M9.14,5.48l0-.9h.44c0,.25,0,.5,0,.75Z"/><path class="cls-8" d="M9.56,4.58H9.25a1.38,1.38,0,0,1,.87-.46l0,.17C10,4.44,9.83,4.63,9.56,4.58Z"/><path class="cls-10" d="M18.46,12.16a4.59,4.59,0,0,1-3,.46l.16-.75.15,0,.05,0a.54.54,0,0,0-.05-.11c-.16,0-.34,0-.44-.14h.73l.15.32a.27.27,0,0,0,.31.27c.49,0,1,.22,1.34-.4,0-.05.18,0,.28,0l.3.17Zm-2.23.24.05,0s0,0-.05,0l-.05,0Z"/><path class="cls-5" d="M18.46,12.16v-.28c0-.36.63-.46.41-.93,0-.74.79-.49,1.06-.88h.31c.24.41-.48.52-.29.92-.1.48-.6.55-.89.85l-.45.31Z"/><path class="cls-2" d="M10.29,12c0-.23-.2-.3-.29-.46l.24-.37c.93.25,1.8.67,2.75.83l.13.15c-.21.39-.51.25-.84.2C11.61,12.26,11,11.74,10.29,12Z"/><path class="cls-2" d="M18.61,12.15l.45-.31a4.79,4.79,0,0,0,1.72-.3l.35.32C20.31,12.15,19.53,12.75,18.61,12.15Z"/><path class="cls-6" d="M15.64,11.87l-.16.75a4,4,0,0,1-1.94-.44c.06-.15.11-.31.17-.47.19.07.28.58.59.13C14.73,12.58,15.19,12,15.64,11.87Z"/><path class="cls-4" d="M22.77,11.16c-.14.16-.32.3-.3.54-.34-.28-.67,0-1,0l-.33-.3a.93.93,0,0,1,.55-.18c.16.06.34.16.33-.15a1.44,1.44,0,0,1,.73-.31Z"/><path class="cls-4" d="M13.71,11.71l-.17.47-.42,0L13,12l-.17-.28v-.47H13Z"/><path class="cls-5" d="M21.13,11.42l.33.3c-.07.14-.2.14-.33.14l-.35-.32A.38.38,0,0,1,21.13,11.42Z"/><path class="cls-4" d="M22.46,11.7l.16.15Z"/><path class="cls-2" d="M10.14,12.15,10.3,12Z"/><path class="cls-5" d="M10.24,11.17l-.24.37-.45,0c-.2-.45-.84-.14-1-.61l.14-.14h.5A4.06,4.06,0,0,1,10.24,11.17Z"/><path class="cls-10" d="M8.66,10.81,8.52,11l-.61-.13a.67.67,0,0,1,.16-.59c.14,0,.19-.16.23-.29a.35.35,0,0,1,.36.12C8.68,10.31,9.1,10.57,8.66,10.81Z"/><path class="cls-6" d="M22.77,11.16l0-.38a.42.42,0,0,1,0-.12h.29v.51Z"/><path class="cls-4" d="M23.06,11.18v-.51h.14a.34.34,0,0,0,.16.3v.29A.28.28,0,0,1,23.06,11.18Z"/><path class="cls-4" d="M23.35,11.26c.21.07.26.25.3.44C23.43,11.63,23.29,11.51,23.35,11.26Z"/><path class="cls-5" d="M5.1,6.06a.51.51,0,0,0,.59,0l.3.3a3.78,3.78,0,0,1-1.33.9L4.37,7l-.18-.3h.17C4.9,6.81,5.06,6.51,5.1,6.06Z"/><path class="cls-8" d="M4.37,7l.29.3-.3.44H4.21L3.9,7.54A.76.76,0,0,1,4.37,7Z"/><path class="cls-3" d="M2.84,7.85a.69.69,0,0,1-.56-.6A1.18,1.18,0,0,1,3,7.83Z"/><path class="cls-3" d="M2.13,7.1A.29.29,0,0,1,2,6.81C2.12,6.86,2.14,7,2.13,7.1Z"/><path class="cls-8" d="M4.36,6.65H4.19L4,6.52l0,0Z"/><path class="cls-5" d="M4.8,5.76,5,5.92A.16.16,0,0,1,4.8,5.76Z"/><path class="cls-5" d="M4.65,5.61l.16.16A.16.16,0,0,1,4.65,5.61Z"/><path class="cls-3" d="M2.28,7.25,2.13,7.1Z"/><path class="cls-8" d="M4,6.52l0-.1.1.06Z"/><polygon class="cls-8" points="3.86 6.15 3.82 6.16 3.83 6.12 3.86 6.15"/><path class="cls-4" d="M4.5,5.47l.16.15Z"/><path class="cls-5" d="M5,5.91l.15.15A.14.14,0,0,1,5,5.91Z"/><path class="cls-6" d="M23.69,7.25v.3c0,.1,0,.19-.05.29s-.31-.07-.45.14l.45,0a.32.32,0,0,1,0,.14c-1,0-.44.76-.59,1.18H22.8c0-.46,0-.93,0-1.39,0-.2.13-.53-.15-.55s-.28.32-.28.55c0,.79,0,1.58,0,2.37h-.18V7.24c.08,0,.21-.06.22-.11S22.27,7,22.17,7a.61.61,0,0,1,0-.14h.14L22.8,7a.3.3,0,0,0,.26-.3h.59l0,.31Z"/><path class="cls-10" d="M22.8,9.33h.56c0,.51.25.73.73.76a.53.53,0,0,1,0,.13c-.34,0-.27.46-.59.46,0-.11-.06-.32-.09-.32-.2,0-.18.17-.21.31h-.43C22.79,10.22,22.79,9.77,22.8,9.33Z"/><path class="cls-5" d="M24.1,10.22a.53.53,0,0,0,0-.13,7.73,7.73,0,0,0,1.49-.37l-.15.48c-.3.16-.55.41-.95.38-.19,0-.35.16-.38.38l-.17-.11Z"/><path class="cls-4" d="M23.36,9.33h-.3c.15-.42-.41-1.19.59-1.18C23.54,8.53,24,9.06,23.36,9.33Z"/><path class="cls-4" d="M23.64,8l-.45,0c.14-.21.32-.1.45-.14Z"/><path class="cls-12" d="M27.22,7.85l-.3.14c-.78-1-1.87-1-3-.89V7c.25-.33,0-.37-.25-.44l-.05-.3,0-.29a12.42,12.42,0,0,1,2,.82c.23.11.46.38.74.07C26.88,7,27.34,7.23,27.22,7.85Z"/><path class="cls-9" d="M24,7V7.1l-.26.15V7Z"/><path class="cls-5" d="M24.25,11.11,24.1,11C24.2,11,24.24,11,24.25,11.11Z"/><path class="cls-8" d="M27.22,7.85c.12-.62-.34-.81-.76-1,.16-.15,0-.31,0-.46l.3,0c.32.19.41.69.89.66.23.14.29.7.73.28l0,0c0,.39.33.51.56.71h.16l.16.14c0,.38-.3.12-.46.16h0a.34.34,0,0,0-.31-.15h0A.35.35,0,0,0,28.24,8H28C27.75,7.75,27.47,7.88,27.22,7.85Z"/><path class="cls-10" d="M28,8h.28a.68.68,0,0,1,0,.14l0,0C28.12,8.15,28,8.13,28,8Z"/><path class="cls-10" d="M28.54,8.3a.33.33,0,0,1-.3-.14l0,0,.29,0h0s0,.09,0,.14Z"/><path class="cls-10" d="M28.85,8.44a.31.31,0,0,1-.31-.14l0,0h.28c0,.05,0,.1,0,.14Z"/><path class="cls-10" d="M28.85,8.43l.06.07-.06-.06Z"/><path class="cls-11" d="M27.66,7c-.48,0-.57-.47-.89-.66v0l.15-.22h0l.15-.15h0l.16-.15h.14A1.16,1.16,0,0,1,27.66,7Z"/><path class="cls-11" d="M28.2,6.28l-.13.11A.48.48,0,0,1,28,6.23s.05-.08.08-.09S28.2,6.16,28.2,6.28Z"/><path class="cls-2" d="M29.14,8H29l.15-.3.05,0Z"/><path class="cls-8" d="M28.86,6.82,28.78,7l-.05,0,.11-.16Z"/><path class="cls-2" d="M29.57,7.38l.08-.19.05,0-.1.18Z"/><path class="cls-4" d="M27.36,5.76h-.15a.27.27,0,0,1,.16-.31Z"/><path class="cls-2" d="M29.87,8.12l.18-.1s0,0,0,.05l-.18.09Z"/><path class="cls-11" d="M28.42,5.61l0,0,0-.06Z"/><path class="cls-4" d="M27.36,5.47l.16-.15Z"/><path class="cls-8" d="M28.84,6.8l.08-.06-.06.07Z"/><path class="cls-8" d="M28.39,7.24l.09,0-.06.08Z"/><path class="cls-2" d="M29.13,7.68l.09,0,0,.09Z"/><path class="cls-2" d="M29.6,7.41l-.08,0a.35.35,0,0,0,.05-.08Z"/><path class="cls-2" d="M26.47,6.35c0,.15.15.31,0,.46-.28.31-.51,0-.74-.07a12.42,12.42,0,0,0-2-.82c-.15-.41.26-.42.43-.6l.58.15a2,2,0,0,0,1.07.59Z"/><path class="cls-10" d="M24.69,5.47l-.58-.15c-.46,0-.45-.29-.46-.6l.08-.18.81.34.31.27A.36.36,0,0,1,24.69,5.47Z"/><path class="cls-6" d="M24.69,5.47a.36.36,0,0,0,.16-.32c.59,0,.83.39.91.91A2,2,0,0,1,24.69,5.47Z"/><path class="cls-11" d="M24.54,4.88l-.81-.34a1.23,1.23,0,0,1-.09-.68c.35-.65.22.4.46.12C24.07,4.37,24.65,4.45,24.54,4.88Z"/><polygon class="cls-4" points="26.4 5.21 26.42 5.26 26.38 5.25 26.4 5.21"/><path class="cls-4" d="M27.22,5.76l-.16.15A.16.16,0,0,1,27.22,5.76Z"/><path class="cls-8" d="M26.92,6.06l-.15.22A.18.18,0,0,1,26.92,6.06Z"/><polygon class="cls-4" points="26.55 4.91 26.57 4.96 26.53 4.96 26.55 4.91"/><path class="cls-4" d="M27.07,5.91l-.15.15A.15.15,0,0,1,27.07,5.91Z"/><path class="cls-6" d="M6,6.36l-.3-.3c0-.16.1-.32.14-.48.2.07.43.08.53-.08.23-.38.6-.41,1-.48v.46Z"/><path class="cls-6" d="M6.28,4.27c.16.15.24.3,0,.46Z"/><path class="cls-11" d="M5.45,5.11l-.07,0,0,0Z"/><path class="cls-3" d="M5.84,5.33v.15C5.76,5.43,5.73,5.38,5.84,5.33Z"/><path class="cls-10" d="M7.33,5.48V5h0c.22,0,.42,0,.45-.29l.42-.17a2.29,2.29,0,0,1,.07.28.81.81,0,0,1-.34.63Z"/><path class="cls-6" d="M7.77,4.73c0,.29-.23.3-.45.29l.15-.45Z"/><path class="cls-6" d="M7.48,4.58c-.14,0-.16-.17-.15-.3C7.49,4.32,7.5,4.44,7.48,4.58Z"/><path class="cls-4" d="M24.1,10.22l-.17.63-.43.1v-.27C23.83,10.68,23.76,10.2,24.1,10.22Z"/><path class="cls-5" d="M23.51,10.68V11l-.13,0a.34.34,0,0,1-.16-.3c0-.14,0-.32.21-.31C23.45,10.36,23.48,10.57,23.51,10.68Z"/><path class="cls-9" d="M5.55,9.48,5,9l-.15-.16h0L5,8.59a1.3,1.3,0,0,0,1.13-.23A2.47,2.47,0,0,1,7.5,7.68c.35,0,.43-.27.42-.57h.3V8c-.89.28-.89,1.21-1.35,1.81C6.41,9.77,6,9.41,5.55,9.48Z"/><path class="cls-8" d="M5.55,9.48c.48-.07.86.29,1.32.32.22.23.73.07.76.56l-.75,0-.58-.17H6.13l-.59-.3Z"/><path class="cls-5" d="M5,8.59l-.13.28a1.21,1.21,0,0,1-.76-.44l.15-.14h0c.18,0,.36-.08.14-.3V7.7h0a.88.88,0,0,1,.57.15A.55.55,0,0,1,5,8.59Z"/><path class="cls-8" d="M4.35,8c.22.22,0,.26-.14.3V8Z"/><path class="cls-3" d="M4.35,8H4.21c-.14-.1-.14-.21,0-.3h.15Z"/><path class="cls-3" d="M4.21,8.29l-.15.14C4,8.23,4.15,8.32,4.21,8.29Z"/><path class="cls-5" d="M4.81,8.87,5,9Z"/><path class="cls-5" d="M6.89,10.52c.06,0,.17,0,.18.06s-.09.19-.19.23Z"/><path class="cls-5" d="M6.13,10.21H6.3l-.16.15Z"/><path class="cls-1" d="M7.63,10.36c0-.49-.54-.33-.76-.56.46-.6.46-1.53,1.35-1.81l.06.29a4.63,4.63,0,0,0,0,1.66c0,.13-.09.25-.23.29a.7.7,0,0,0-.22-.48C7.7,9.94,7.85,10.23,7.63,10.36Z"/><path class="cls-12" d="M11.63,4.58c.13,0,.27.19.38,0s0-.32-.08-.47V3.84l.45-.15.14.72a1.9,1.9,0,0,0-.25.89c0,.24.17.53-.33.4-.16,0-.26.38-.15.45.51.28.19.75.31,1.11,0,0,0,.09,0,.13s-.41-.18-.44.18-.24.27-.44.27c0-.6-.37-1.2,0-1.8l.2,0-.19-.06a.56.56,0,0,1,0-.12C11.16,5.34,11.73,5.09,11.63,4.58ZM11.72,7a.08.08,0,0,0,0,0s0,0-.05,0,0,0,0,.06Zm0-.42,0-.1-.05,0Z"/><path class="cls-10" d="M17.1,4.12c0,.37-.07.74-.11,1.11,0,0,0,.07,0,.1a2.11,2.11,0,0,0-1.63-.16.22.22,0,0,0-.24.12l0,0H15c-.27-.35,0-1.14-.87-1-.05-.14-.1-.28-.14-.41a.49.49,0,0,0,.45-.33l.12.05c0,.54.4.43.73.44a2.34,2.34,0,0,1,0,.26c0,.2,0,.36.27.2s.57.09.81-.15Z"/><path class="cls-5" d="M13.71,4.73a.47.47,0,0,0,.29.45c.17.12.14.3.16.47s-.21.41-.06.65L14,6.47c-.18-.23-.41-.19-.5,0s-.39.29-.64.3a1.15,1.15,0,0,1,.44-1.49l.07,0-.06,0c0-.28.09-.55.44-.6Z"/><path class="cls-4" d="M12.07,7.39s0-.09,0-.13c.25.35.5.57.73,0,.37,0,.7-.21,1.08-.12l0,.28c-.16.13-.11.22.06.28h.24l.12.22,0,0,0,0,0,.27c-.25.06-.4-.42-.69-.12-.19-.1-.38-.2-.61,0s-.41.34-.71.14S12.05,7.69,12.07,7.39Z"/><path class="cls-3" d="M14.16,5.65c0-.17,0-.35-.16-.47.41-.25.21-.6.16-.93.83-.14.6.65.87,1l0,0,0,0a.08.08,0,0,0-.07.08c-.13,0-.26,0-.32.12Z"/><path class="cls-3" d="M13.9,7.12c-.38-.09-.71.14-1.08.12V6.81c.25,0,.5,0,.64-.3s.32-.27.5,0l0,.25s-.09-.07-.11,0h.12l.12.37Z"/><path class="cls-3" d="M12.51,4.41l-.14-.72h.16c.4-.11.11.74.65.48a.27.27,0,0,1,0,.25C12.94,4.68,12.73,4.53,12.51,4.41Z"/><path class="cls-12" d="M12.53,3.69h-.16l.17-.15Z"/><path class="cls-5" d="M13.71,4.72l0,0,0,.06Z"/><path class="cls-10" d="M11.13,5.81a.56.56,0,0,0,0,.12.41.41,0,0,1,0,.11c-.34.6,0,1.2,0,1.8-.06.35.18.7,0,1.05-.33.69.14.63.57.6l0,.43a.89.89,0,0,0-.28.61,2.81,2.81,0,0,1-1.05-1.9,11.49,11.49,0,0,1,.07-2.19,1,1,0,0,0-.38-1V5.08l0-.22c.35-.05.35-.22.15-.46V4.3l.44,0a2.53,2.53,0,0,0,0,.48C10.79,5.11,10.35,5.71,11.13,5.81Z"/><path class="cls-2" d="M11.13,5.81c-.78-.1-.34-.7-.38-1.06a2.53,2.53,0,0,1,0-.48c0-.14,0-.33.15-.38s.19.14.21.3.57-.05.53.39S11.16,5.34,11.13,5.81Z"/><path class="cls-6" d="M10.3,4.3v.1l-.15.46,0,.22A1.89,1.89,0,0,0,10,7v.2l-.2,0-.21,0-.19,0a5.18,5.18,0,0,0,.13-1.84c0-.25,0-.5,0-.75.27,0,.42-.14.59-.3Z"/><path class="cls-2" d="M11.92,3.84v.29C11.79,4,11.79,3.94,11.92,3.84Z"/><path class="cls-7" d="M15.32,4c-.33,0-.73.1-.73-.44C15,3.42,15.45,3.23,15.32,4Z"/><path class="cls-7" d="M15.63,4.46c-.25.16-.28,0-.27-.2A.3.3,0,0,1,15.63,4.46Z"/><path class="cls-6" d="M20.24,10.07h-.31c.2-.58.75-1.07.47-1.78.43-.17.41-.54.4-.9.14-.59,0-1.19.09-1.79.07-.37.17-1-.45-1.32.27-.08.49-.49.84-.15l.44.89v.3c0,.57-.6,1-.22,1.73.21.39-.32,1.14-.05,1.77l0,.21c-.15,0-.37-.07-.44.09s.13.21.25.27l-.08.23c-.31,0-.33.23-.31.46h-.6Z"/><path class="cls-7" d="M23.65,4.72c0,.31,0,.64.46.6-.17.18-.58.19-.43.6l0,.29c-.32,0-.64,0-.59.45a.3.3,0,0,1-.26.3c0-.35,0-.7-.05-1V5.47c0-.26.05-.51.07-.77Z"/><path class="cls-12" d="M22.75,5.47v.45c-.57.09-.4.54-.43.88h-.38a6.24,6.24,0,0,0-.22-1.49V5C22.14,5,22.32,5.51,22.75,5.47Z"/><path class="cls-12" d="M20.44,4.28c.62.27.52,1,.45,1.32-.1.6.05,1.2-.09,1.79-.17,0-.3.33-.54,0s-.18-.59-.47-.74c0-.22.2-.46-.14-.59,0-.2.13-.4,0-.59,0-.36.43-.41.44-.73A.44.44,0,0,1,20.44,4.28Z"/><path class="cls-4" d="M19.65,6.06c.34.13.17.37.14.59-.61.13-1.25.47-1.71-.29-.13-.3-.39-.55-.34-.91l.12-.13c.45.3,1.19.08,1.43.8C19.34,6.27,19.54,6.19,19.65,6.06Z"/><path class="cls-11" d="M20.09,4.74c0,.32-.49.37-.44.73a.64.64,0,0,1,0-1C19.88,4.41,19.94,4.64,20.09,4.74Z"/><path class="cls-2" d="M19.65,4l0,0,0,0Z"/><path class="cls-7" d="M17.74,5.45c0,.36.21.61.34.91a1.08,1.08,0,0,1,0,.73l.05.16V7.4l-.16,0L17.84,7V6.8A1.91,1.91,0,0,0,17,5.33s0-.06,0-.1C17.25,5.26,17.46,5.5,17.74,5.45Z"/><path class="cls-7" d="M8.66,10.81c.44-.24,0-.5,0-.75.45-.18.38-.41.08-.68-.05-.05-.32-.12-.13-.16.69-.14.09-.68.33-.93V8a.17.17,0,0,0,0-.14C9,7.42,9,7,8.38,7.1l-.14-.28h0c.26-.08.93,0,.63-.35S9,6,9,5.76h.12L9.14,7.7l0,3.1Z"/><path class="cls-10" d="M9,5.76c0,.22-.51.26-.09.71s-.37.27-.63.35c0-.44,0-.89-.05-1.33h.73Z"/><path class="cls-12" d="M9.14,7.7,9.09,5.76l.05-.28.41-.15a5.18,5.18,0,0,1-.13,1.84Z"/><path class="cls-7" d="M8.93,5.49H8.2l-.28,0a.81.81,0,0,0,.34-.63C8.69,4.84,9.08,4.89,8.93,5.49Z"/><path class="cls-2" d="M16.23,11.87l-.15-.32.31-.14c.35-.35-.31-.24-.22-.47s.61,0,.65-.43H17c.24.3.47,0,.71,0l.33.17c.11.64-.55.59-.83.86.32.33.74-.46,1,.17-.1,0-.26,0-.28,0-.31.62-.85.42-1.35.4C16.52,12,16.43,11.85,16.23,11.87Z"/><path class="cls-3" d="M15.64,11.87c-.45.08-.91.71-1.34,0,0-.25.18-.55.09-.73-.3-.61,0-.74.49-.75l0,.14c-.1.08-.18.18-.11.3s.1,0,.16.06l.08-.33c.91-.15.28.45.35.72l0,.31c.1.17.28.14.44.14v.15Z"/><path class="cls-3" d="M18.16,11.71c-.24-.63-.66.16-1-.17.28-.27.94-.22.83-.86l.3,0c.16.15.29.35.56.29.22.47-.38.57-.41.93Z"/><path class="cls-6" d="M15.35,11.56c0-.11,0-.21,0-.31a1.91,1.91,0,0,1,1,.16l-.31.14Z"/><path class="cls-6" d="M16.23,11.87c.2,0,.29.09.3.27A.27.27,0,0,1,16.23,11.87Z"/><path class="cls-6" d="M16.23,12.4l-.05,0,.05,0s0,0,.05,0Z"/><path class="cls-6" d="M15.79,11.85V11.7a.54.54,0,0,1,.05.11Z"/><path class="cls-15" d="M21.42,9l0-.21.3-.53h.4v2h.18c0-.79,0-1.58,0-2.37,0-.23-.08-.59.28-.55s.13.35.15.55c0,.46,0,.93,0,1.39s0,.89,0,1.33a.42.42,0,0,0,0,.12,1.44,1.44,0,0,0-.73.31c-.13,0-.26,0-.33.15a.93.93,0,0,0-.55.18.38.38,0,0,0-.35.12,4.79,4.79,0,0,1-1.72.3c.29-.3.79-.37.89-.85a1.78,1.78,0,0,0,.9-.91h0a.68.68,0,0,0,.31-.46l.08-.23A.36.36,0,0,0,21.42,9Z"/><path class="cls-12" d="M18.87,11c-.27.06-.4-.14-.56-.29V9.94L19.5,9c.19,0,.53,0,.39-.26-.59-1,.23-.45.51-.48.28.71-.27,1.2-.47,1.78C19.66,10.46,18.85,10.21,18.87,11Z"/><path class="cls-10" d="M20.85,10.08A1.78,1.78,0,0,1,20,11c-.19-.4.53-.51.29-.92Z"/><path class="cls-15" d="M9.14,7.7l.28-.53.19,0a26.07,26.07,0,0,0,0,3.06h.29V8.14h.27a.57.57,0,0,0,.31.48,2.81,2.81,0,0,0,1.05,1.9l.26.14c.11.6.62.79,1.07,1.05L13,12c-1-.16-1.82-.58-2.75-.83a4.06,4.06,0,0,0-1.08-.37C9.15,9.77,9.14,8.73,9.14,7.7Z"/><path class="cls-12" d="M14.88,10.36c-.53,0-.79.14-.49.75.09.18-.05.48-.09.73-.31.45-.4-.06-.59-.13L13,11.25c-.09-.73-.67-1-1.21-1.33,0-.14,0-.29,0-.43l-.13-.31c.4,0,.76-.82,1.18-.07a2,2,0,0,0,1.65,1c.11.16.27.14.43.15A.33.33,0,0,1,14.88,10.36Z"/><path class="cls-5" d="M21.68,11.24c.07-.14.2-.15.33-.15C22,11.4,21.84,11.3,21.68,11.24Z"/><path class="cls-8" d="M11.77,9.92c.54.32,1.12.6,1.21,1.33h-.15a1.35,1.35,0,0,1-.71-.62c-.23-.3-.25.08-.37,0l-.26-.14A.89.89,0,0,1,11.77,9.92Z"/><path class="cls-10" d="M11.75,10.67c.12,0,.14-.34.37,0a1.35,1.35,0,0,0,.71.62c0,.16,0,.31,0,.47C12.37,11.46,11.86,11.27,11.75,10.67Z"/><path class="cls-4" d="M8.94,8.29c-.24.25.36.79-.33.93-.19,0,.08.11.13.16.3.27.37.5-.08.68a.35.35,0,0,0-.36-.12,4.63,4.63,0,0,1,0-1.66Z"/><path class="cls-3" d="M7.92,5.47l.28,0c0,.44,0,.89.05,1.33h0L7.79,7a5.64,5.64,0,0,0-2.86.9.88.88,0,0,0-.57-.15l.3-.44A3.78,3.78,0,0,0,6,6.36l1.34-.88Z"/><path class="cls-9" d="M22.15,8.29h-.4l.19-1.48h.24a.61.61,0,0,0,0,.14V8.29Z"/><path class="cls-11" d="M22.32,6.8c0-.34-.14-.79.43-.88,0,.34,0,.69.05,1Z"/><path class="cls-10" d="M23.06,6.66c0-.47.27-.47.59-.45,0,.1,0,.2.05.3l-.05.14Z"/><path class="cls-11" d="M23.65,6.65l.05-.14c.23.07.5.11.25.44h-.26C23.68,6.86,23.66,6.75,23.65,6.65Z"/><path class="cls-12" d="M22.16,7.24V7c.1,0,.25,0,.21.18S22.24,7.2,22.16,7.24Z"/><path class="cls-2" d="M28.55,8.15l-.29,0a.68.68,0,0,0,0-.14A.35.35,0,0,1,28.55,8.15Z"/><path class="cls-2" d="M28.85,8.29h-.29s0-.09,0-.14A.34.34,0,0,1,28.85,8.29Z"/><path class="cls-11" d="M4.93,7.85A5.64,5.64,0,0,1,7.79,7a1.83,1.83,0,0,1,.13.16c0,.3-.07.57-.42.57a2.47,2.47,0,0,0-1.42.68A1.3,1.3,0,0,1,5,8.59.55.55,0,0,0,4.93,7.85Z"/><path class="cls-5" d="M8.94,8.29H8.28L8.22,8V7.1h.16c.62-.08.61.32.55.75l-.26.05c.05.15.18.06.27.09Z"/><path class="cls-4" d="M8.38,7.1H7.92A1.83,1.83,0,0,0,7.79,7l.45-.13Z"/><path class="cls-2" d="M14.45,10.07a2,2,0,0,1-1.65-1c-.42-.75-.78.07-1.18.07l-.44-.29c.19-.35,0-.7,0-1.05.2,0,.42,0,.44-.27s.29-.15.44-.18c0,.3-.18.61.16.85s.51,0,.71-.14.42-.06.61,0c.1.64.6,1.19,1.06,1.17.16.23.57.37.28.76C14.74,10,14.6,9.86,14.45,10.07Z"/><path class="cls-2" d="M11.72,7h-.05s0,0,0-.06.05,0,.05,0A.08.08,0,0,1,11.72,7Z"/><path class="cls-2" d="M11.69,6.57l0-.08.05,0Z"/><path class="cls-2" d="M11.16,6a.41.41,0,0,0,0-.11l.19.06Z"/><path d="M17,5.33a1.91,1.91,0,0,1,.87,1.47c-.09,0-.23,0-.22.13s.14,0,.22,0l.09.47a.41.41,0,0,1-.05.09v0h0v.2c-.2.11-.33.24-.22.48a.35.35,0,0,1-.05.08c-.31-.09-.35.28-.58.35A1.31,1.31,0,0,0,16.3,9a1.64,1.64,0,0,1-.79.09L15.2,8.8c0-.18-.18-.21-.34-.2a.09.09,0,0,1-.11-.06A.7.7,0,0,0,14.29,8l0,0,0,0-.12-.22h0c0-.2.06-.41-.11-.58l-.12-.37v0l0-.25c0-.06.09-.12.14-.17a1.49,1.49,0,0,0,.48-.84c.06-.15.19-.13.32-.12l.1,0,0-.11,0,0,0,0h.05l0,0,.24-.12A2.11,2.11,0,0,1,17,5.33ZM16.38,7.1l.29,0c.14,0,.26.31.41,0A.38.38,0,0,0,17,6.68c-.26-.2-.17.22-.33.23L16.4,7c-.2-.43-.44-.61-.8-.15-.21.27-.54,0-.81.15.27.25.55.12.8.16C15.86,7.51,16.12,7.43,16.38,7.1Z"/><path class="cls-14" d="M15.34,5.17l-.24.12A.22.22,0,0,1,15.34,5.17Z"/><path class="cls-7" d="M14.58,5.46a1.49,1.49,0,0,1-.48.84c-.15-.24.08-.43.06-.65Z"/><path class="cls-2" d="M13.27,5.32l.06,0-.07,0Z"/><path class="cls-5" d="M14.61,9.31c-.46,0-1-.53-1.06-1.17.29-.3.44.18.69.12l.36.33Z"/><path class="cls-14" d="M14.6,8.59l-.36-.33,0-.27a.7.7,0,0,1,.46.55Z"/><path class="cls-14" d="M14.05,7.11c.17.17.11.38.11.58h-.24l-.06-.28,0-.28Z"/><path class="cls-3" d="M13.86,7.4l.06.28C13.75,7.62,13.7,7.53,13.86,7.4Z"/><path class="cls-14" d="M14.16,7.7l.12.22Z"/><path class="cls-14" d="M15,5.26l0,.11-.1,0A.08.08,0,0,1,15,5.26Z"/><path class="cls-7" d="M13.92,6.72v0h-.12C13.83,6.65,13.88,6.71,13.92,6.72Z"/><path class="cls-7" d="M10.44,8.63a.57.57,0,0,1-.31-.48l-.11-1V7c.08-.51-.15-1,.12-1.53a1,1,0,0,1,.38,1A11.49,11.49,0,0,0,10.44,8.63Z"/><path class="cls-11" d="M10.13,5.46c-.27.49,0,1-.12,1.53a1.89,1.89,0,0,1,.11-1.91Z"/><path class="cls-5" d="M11.18,8.89l.44.29.13.31C11.32,9.52,10.85,9.58,11.18,8.89Z"/><path class="cls-8" d="M10.15,4.86l.15-.46C10.5,4.64,10.5,4.81,10.15,4.86Z"/><path class="cls-3" d="M9.86,8.14v2.12H9.57a26.07,26.07,0,0,1,0-3.06l.21,0C9.83,7.53,9.84,7.84,9.86,8.14Z"/><path class="cls-11" d="M9.86,8.14c0-.3,0-.61,0-.91l.2,0c0,.32.07.64.11,1Z"/><path class="cls-3" d="M20.4,8.29c-.28,0-1.1-.56-.51.48C20,9,19.69,9,19.5,9c-.44.15-1.1-.35-1.34.44a.3.3,0,0,1-.29-.14l-.13-.15V8.89a.54.54,0,0,1,.31-.3h.1c.21.15.19-.15.32-.15.14.22.29.44.44,0,.28-.14.27-.58.64-.62.06,0,.14,0,.08-.12a.92.92,0,0,0-1.31-.32h-.22V7.25a.21.21,0,0,0,0-.06L18,7.09a1.08,1.08,0,0,0,0-.73c.46.76,1.1.42,1.71.29.29.15.3.5.47.74s.37,0,.54,0C20.81,7.75,20.83,8.12,20.4,8.29Z"/><path class="cls-7" d="M21.94,6.81l-.19,1.48-.3.53c-.27-.63.26-1.38.05-1.77-.38-.75.2-1.16.22-1.73A6.24,6.24,0,0,1,21.94,6.81Z"/><path class="cls-10" d="M21.42,9a.36.36,0,0,1-.19.36c-.12-.06-.32-.13-.25-.27S21.27,9.05,21.42,9Z"/><path class="cls-10" d="M21.15,9.62a.68.68,0,0,1-.31.46C20.82,9.85,20.84,9.64,21.15,9.62Z"/><path class="cls-2" d="M18.9,8.45c-.15.43-.3.21-.44,0s0-.38-.28-.44l0,.59H18a.46.46,0,0,0-.42-.16V8.26a.35.35,0,0,0,.05-.08c.21-.1.33-.23.22-.48V7.52a.41.41,0,0,0,.05-.09l.16,0h.22c0,.25.17.32.4.25s.32,0,.24.08C18.57,8,19,8.22,18.9,8.45Z"/><path class="cls-14" d="M17.84,7c-.08,0-.2.14-.22,0s.13-.12.22-.13Z"/><path class="cls-4" d="M18,7.09l.07.1a.21.21,0,0,1,0,.06S18.06,7.15,18,7.09Z"/><path class="cls-4" d="M8.94,8c-.09,0-.22.06-.27-.09l.26-.05A.17.17,0,0,1,8.94,8Z"/><path class="cls-10" d="M14.6,8.59l.15-.05a.09.09,0,0,0,.11.06c.05.18.13.29.34.2l.31.27c.1.42.51.7.55,1.15l.33,0c0,.28.23.28.43.27,0,.41-.42.3-.65.43s.57.12.22.47a1.91,1.91,0,0,0-1-.16c-.07-.27.56-.87-.35-.72l-.13,0,0-.14a.33.33,0,0,0,0-.14v-.15c.29-.39-.12-.53-.28-.76C14.61,9.07,14.6,8.83,14.6,8.59Z"/><path class="cls-6" d="M16.82,10.51c-.2,0-.4,0-.43-.27s.09-.59.13-.89l.09-.27,0,.07-.07.11c.14,0,.21-.07.2-.21l.18,0c.52.15.48-.36.68-.58a.46.46,0,0,1,.42.16.54.54,0,0,0-.31.3l-.06,0,.06.1c0,.05,0,.11,0,.16a.77.77,0,0,1,0,.15c-.61.15-.82.48-.75,1.18Z"/><path class="cls-4" d="M17,10.51c-.07-.7.14-1,.75-1.18h.15a.3.3,0,0,0,.29.14.34.34,0,0,1-.16.32h-.12l-.07,0,.06.1-.19.59C17.44,10.51,17.21,10.81,17,10.51Z"/><path class="cls-9" d="M17.88,9.8H18l.3.15v.72l-.3,0-.33-.17c.06-.2.12-.4.19-.59A.49.49,0,0,1,17.88,9.8Z"/><path class="cls-12" d="M14.91,10.5l.13,0-.08.33c-.06,0-.15,0-.16-.06S14.81,10.58,14.91,10.5Z"/><path class="cls-2" d="M18.3,9.94,18,9.79a.34.34,0,0,0,.16-.32c.24-.79.9-.29,1.34-.44Z"/><path class="cls-3" d="M14.89,10.07v.15c-.16,0-.32,0-.43-.15C14.6,9.86,14.74,10,14.89,10.07Z"/><path class="cls-12" d="M15.6,6.8c.36-.46.6-.28.8.15l0,.15c-.26.33-.52.41-.79,0Z"/><path class="cls-8" d="M16.06,10.22c0-.45-.45-.73-.55-1.15A1.77,1.77,0,0,0,16.3,9l.31.09-.09.27C15.77,9.32,16.23,9.94,16.06,10.22Z"/><path class="cls-7" d="M17.62,8.43c-.2.22-.16.73-.68.58l.1-.4c.23-.07.27-.44.58-.35Z"/><path class="cls-14" d="M16.38,7.1l0-.15.29,0c.16,0,.07-.43.33-.23a.38.38,0,0,1,.06.48c-.15.28-.27,0-.41,0Z"/><path class="cls-14" d="M17,8.61l-.1.4-.17,0a.19.19,0,0,0-.21.21l.07-.11,0-.07L16.3,9A1.26,1.26,0,0,1,17,8.61Z"/><path class="cls-14" d="M15.6,6.8v.31c-.25,0-.53.09-.8-.16C15.06,6.78,15.39,7.07,15.6,6.8Z"/><path class="cls-7" d="M17.89,7.7c.11.25,0,.38-.22.48C17.56,7.94,17.69,7.81,17.89,7.7Z"/><path class="cls-14" d="M15.2,8.8c-.21.09-.29,0-.34-.2C15,8.59,15.15,8.62,15.2,8.8Z"/><polygon class="cls-7" points="17.88 7.52 17.88 7.5 17.87 7.49 17.88 7.52"/><path class="cls-4" d="M18.9,8.45c.12-.23-.33-.48.05-.73.08,0-.13-.11-.24-.08s-.37,0-.4-.25a.92.92,0,0,1,1.31.32c.06.13,0,.12-.08.12C19.17,7.87,19.18,8.31,18.9,8.45Z"/><path class="cls-4" d="M18.14,8.59l0-.59c.26.06.24.27.28.44C18.33,8.44,18.35,8.74,18.14,8.59Z"/><path class="cls-2" d="M17.87,9.33h-.15a.77.77,0,0,0,0-.15Z"/><path class="cls-4" d="M17.73,9l-.06-.1.06,0Z"/><path class="cls-7" d="M16.06,10.22c.17-.28-.29-.9.46-.87,0,.3-.09.59-.13.89Z"/><path class="cls-10" d="M16.56,9.26a.19.19,0,0,1,.21-.21C16.77,9.19,16.7,9.27,16.56,9.26Z"/><path class="cls-12" d="M17.88,9.8a.49.49,0,0,0,0,.12l-.06-.1Z"/></g></g></svg>