<?xml version="1.0" encoding="UTF-8" standalone="no"?><svg xmlns="http://www.w3.org/2000/svg" viewBox="0 0 18.24 29"><defs><style>.cls-1{fill:#0b0153;}.cls-2{fill:#feca00;}.cls-3{fill:#e70088;}</style></defs><g id="Layer_2" data-name="Layer 2"><g id="Layer_1-2" data-name="Layer 1"><path d="M0,18.06c0,3.54,0,7.07,0,10.61,0,.26.07.33.33.33C1.19,29,2,29,2.9,29c.22,0,.29-.06.29-.29q0-10.65,0-21.29c0-.23-.07-.3-.29-.29H.39c-.38,0-.38,0-.38.38Zm15.05-7.12v10.6c0,.26.07.34.33.33.82,0,1.64,0,2.46,0,.39,0,.39,0,.39-.4V.32c0-.23-.07-.32-.31-.32H15.44c-.38,0-.38,0-.38.39ZM5.12,18.55c0,1,0,2,0,3,0,.19,0,.23.22.23q1.32,0,2.64,0c.21,0,.29-.06.29-.28q0-3,0-6c0-.21-.07-.28-.28-.28-.85,0-1.69,0-2.54,0-.25,0-.34.07-.33.33C5.13,16.55,5.12,17.55,5.12,18.55ZM5.12,5c0,1,0,2,0,3,0,.19,0,.29.27.29H8c.21,0,.27-.08.27-.27,0-2,0-4,0-6.05,0-.21-.07-.28-.28-.27-.86,0-1.71,0-2.57,0-.24,0-.31.08-.3.31C5.13,3,5.12,4,5.12,5Zm5,5.37c0,1,0,2,0,3,0,.21.06.28.28.28H13c.21,0,.29-.06.29-.28q0-3,0-6c0-.21-.07-.29-.28-.28H10.4c-.24,0-.32.06-.31.3C10.1,8.42,10.09,9.41,10.09,10.4ZM13.23,24c0-1,0-2,0-3,0-.24-.07-.31-.31-.31H10.39c-.24,0-.3.08-.3.31q0,3,0,5.94c0,.24.07.31.31.3.86,0,1.72,0,2.59,0,.21,0,.25-.07.25-.26C13.23,26,13.23,25,13.23,24ZM6.69,10.21H5.32c-.16,0-.22,0-.22.21,0,.9,0,1.8,0,2.69,0,.17.05.22.21.22H8.07c.15,0,.2,0,.2-.2,0-.91,0-1.82,0-2.72,0-.16,0-.2-.2-.2Zm5,8.53H13c.2,0,.26,0,.26-.25q0-1.3,0-2.61c0-.19-.05-.25-.24-.25h-2.7c-.17,0-.23,0-.23.23q0,1.34,0,2.67c0,.16,0,.22.21.21Z"/><path class="cls-1" d="M0,18.06V7.51c0-.38,0-.38.38-.38H2.9c.22,0,.29.06.29.29q0,10.64,0,21.29c0,.23-.07.29-.29.29C2,29,1.19,29,.33,29,.07,29,0,28.93,0,28.67,0,25.13,0,21.6,0,18.06Z"/><path class="cls-1" d="M15.06,10.94V.39c0-.39,0-.39.38-.39h2.49c.24,0,.32.09.31.32V21.47c0,.4,0,.4-.39.4-.82,0-1.64,0-2.46,0-.26,0-.33-.07-.33-.33Z"/><path class="cls-1" d="M5.12,18.55c0-1,0-2,0-3,0-.26.08-.33.33-.33.85,0,1.69,0,2.54,0,.21,0,.28.07.28.28q0,3,0,6c0,.22-.08.28-.29.28q-1.32,0-2.64,0c-.17,0-.23,0-.22-.23C5.13,20.58,5.12,19.56,5.12,18.55Z"/><path class="cls-1" d="M5.12,5c0-1,0-2,0-3,0-.23.06-.31.3-.31.86,0,1.71,0,2.57,0,.21,0,.28.06.28.27,0,2,0,4,0,6.05,0,.19-.06.27-.27.27H5.39c-.23,0-.27-.1-.27-.29C5.13,7,5.12,6,5.12,5Z"/><path class="cls-1" d="M10.09,10.4c0-1,0-2,0-3,0-.24.07-.31.31-.3H13c.21,0,.28.07.28.28q0,3,0,6c0,.22-.08.28-.29.28H10.37c-.22,0-.28-.07-.28-.28C10.1,12.43,10.09,11.41,10.09,10.4Z"/><path class="cls-1" d="M13.23,24c0,1,0,2,0,3,0,.19,0,.26-.25.26-.87,0-1.73,0-2.59,0-.24,0-.31-.06-.31-.3q0-3,0-5.94c0-.23.06-.31.3-.31h2.54c.24,0,.31.07.31.31C13.23,22,13.23,23,13.23,24Z"/><path class="cls-2" d="M6.69,10.21H8.07c.15,0,.2,0,.2.2,0,.9,0,1.81,0,2.72,0,.16,0,.2-.2.2H5.31c-.16,0-.21-.05-.21-.22,0-.89,0-1.79,0-2.69,0-.18.06-.21.22-.21Z"/><path class="cls-3" d="M11.64,18.74H10.29c-.17,0-.21,0-.21-.21q0-1.34,0-2.67c0-.18.06-.23.23-.23H13c.19,0,.24.06.24.25q0,1.3,0,2.61c0,.21-.06.26-.26.25Z"/></g></g></svg>