<?xml version="1.0" encoding="UTF-8" standalone="no"?><svg xmlns="http://www.w3.org/2000/svg" viewBox="0 0 29.39 29"><defs><style>.cls-1{fill:#e8762d;}.cls-2{fill:#c72037;}.cls-3{fill:#5b879b;}.cls-4{fill:#5c6692;}.cls-5{fill:#eb9129;}.cls-6{fill:#1f457e;fill-rule:evenodd;}.cls-7{fill:#7199a6;}</style></defs><g id="Layer_2" data-name="Layer 2"><g id="Layer_1-2" data-name="Layer 1"><path class="cls-1" d="M13.89,19.59H15.5V15.21h4V13.65h-4V9.26H13.89v4.39h-4v1.56h4Z"/><path class="cls-2" d="M6.43,25.93H7.8V22h3.61V20.81H7.8V16.86H6.43v3.95H2.83V22h3.6Z"/><path class="cls-3" d="M21.59,11.84H23V7.94h3.65V6.77H23V2.83H21.59V6.77H18V7.94h3.61Z"/><path class="cls-4" d="M14.13,29H15.3V26.22h2.49v-1H15.3V22.42H14.13V25.2H11.7v1h2.43Z"/><path class="cls-5" d="M6.48,11.84H7.75V7.9h3.66V6.77H7.75V2.83H6.48V6.77H2.83V7.9H6.48Z"/><path class="cls-4" d="M25.73,17.69H26.9V15h2.49V13.89H26.9V11.16H25.73v2.73H23.3V15h2.43Z"/><path class="cls-6" d="M21.59,25.93H23V22h3.65V20.81H23V16.86H21.59v3.95H18V22h3.61Z"/><path class="cls-7" d="M17.59,3.51V2.68H15.16V0h-.88V2.68H11.84v.83h2.44V6.19h.88V3.51ZM2.44,17.5h.87V14.82H5.75V14H3.31V11.36H2.44V14H0v.88l2.44,0Z"/></g></g></svg>