<?xml version="1.0" encoding="UTF-8" standalone="no"?><svg xmlns="http://www.w3.org/2000/svg" viewBox="0 0 56.07 70"><defs><style>.cls-1{fill:#83909c;}.cls-2{fill:#bd5f15;}.cls-3{fill:#6f7a84;}.cls-4{fill:#85939f;}.cls-5{fill:#7b8893;}.cls-6{fill:#78848f;}.cls-7{fill:#7e8b97;}.cls-8{fill:#75818b;}.cls-9{fill:#fccc51;}.cls-10{fill:#b55115;}.cls-11{fill:#f8c441;}.cls-12{fill:#efbb38;}.cls-13{fill:#efb321;}.cls-14{fill:#727e88;}.cls-15{fill:#f0cd72;}</style></defs><g id="Layer_2" data-name="Layer 2"><g id="Layer_1-2" data-name="Layer 1"><path class="cls-1" d="M6.29,44.05c-.37-2.18-.45-4.39-.63-6.6l10.4-1.26q15.89-1.95,31.78-3.92c.82-.1,1.75-.1,2.23-1,1.12,1.28.45,2.79.5,4.19a11.29,11.29,0,0,1-.31,3.22L38.55,40.14,19.34,42.49C15,43,10.64,43.53,6.29,44.05Zm34.79-9c-1.32,0-2.52.9-2.49,1.85s1.28,1.77,2.47,1.74c1.44,0,2.6-.87,2.59-1.89S42.52,35,41.08,35Z"/><path class="cls-2" d="M13.35,22.91c-.25-2.67-.95-5.27-1-8-.13-3.8,1-7.15,4-9.52C18.08,4,20,2.7,22,1.42A9.54,9.54,0,0,1,27.22.06c4,0,8.05,0,12.07-.06.84,0,1.06.3,1,1.07a12,12,0,0,1-.61,2.73c-.13.38-.36.74-.08,1.14-.23.15-.55.24-.68.46a11.65,11.65,0,0,1-4.45,4,2.67,2.67,0,0,0-1.5,1.81c-.57.21-1.13.45-1.71.62-3.38,1-6.6.26-9.8-.85-2.84-1-4.31-.27-5.32,2.54a22.16,22.16,0,0,0-1.51,8.09,8.58,8.58,0,0,0-.27,2.67l-.16,1.24-.05.29C13.47,24.92,13.66,23.85,13.35,22.91Z"/><path class="cls-3" d="M47.36,68.31a3.23,3.23,0,0,1-3,1.68H11.75a3.25,3.25,0,0,1-3-1.69c.64-.13,1.28-.27,1.54-1,.33-.38.21-.85.25-1.28,3.18-.41,6.37-.82,9.56-1.21,7.14-.88,14.28-1.78,21.43-2.6,1.37-.16,2.79-.78,4.19,0-.09.46-.61.9-.06,1.39.27.63,1.45,1.12.3,2C45.24,67.06,45.67,67.87,47.36,68.31Z"/><path class="cls-4" d="M50.07,31.26c-.48.91-1.41.91-2.23,1q-15.89,2-31.78,3.92L5.66,37.45c-.12-1.33-.3-2.66-.35-4A3.41,3.41,0,0,1,8.8,29.78c1.5-.06,3-.07,4.49-.1l.84,0a2.18,2.18,0,0,0,1.18.17H40.65A2.68,2.68,0,0,0,42,29.64l.63.07,4.62.06A3.1,3.1,0,0,1,50.07,31.26Z"/><path class="cls-5" d="M7,52.6A36.08,36.08,0,0,1,6.58,48a85.72,85.72,0,0,0,9.19-1c6.4-.75,12.8-1.56,19.2-2.34l15-1.81-.45,4.88c-.69,0-1.38,0-2.07.11L36.31,49.18c-6.37.78-12.74,1.59-19.11,2.33A96.63,96.63,0,0,1,7,52.6Z"/><path class="cls-6" d="M7,52.6A96.63,96.63,0,0,0,17.2,51.51c6.37-.74,12.74-1.55,19.11-2.33l11.12-1.36c.69-.08,1.38-.07,2.07-.11a33,33,0,0,1-.43,4.65c-2.7.32-5.4.64-8.1,1-6.28.77-12.56,1.57-18.85,2.32-3.95.47-7.88,1.08-11.85,1.34.5-1.84-.11-2.66-2-2.69-.4,0-.8-.05-1.2-.08Z"/><path class="cls-7" d="M50,42.83,35,44.64c-6.4.78-12.8,1.59-19.2,2.34a85.72,85.72,0,0,1-9.19,1,24.34,24.34,0,0,1-.29-3.91c4.35-.52,8.7-1,13.05-1.56l19.21-2.35,11.71-1.47A32.22,32.22,0,0,1,50,42.83Z"/><path class="cls-8" d="M10.27,57c4-.26,7.9-.87,11.85-1.34,6.29-.75,12.57-1.55,18.85-2.32,2.7-.34,5.4-.66,8.1-1,0,.62,0,1.25,0,1.87a9.82,9.82,0,0,1-1.21.07c-.84,0-1.62,0-2,.91a2,2,0,0,0,.42,2.25c-2,.2-4,.36-5.93.6q-13.69,1.65-27.39,3.37c-.85.11-1.82,0-2.47.78-.35-.32-.62-.75-1.15-.83,1.35-1.13,1.68-2.05.81-2.87S9.66,57.43,10.27,57Z"/><path class="cls-9" d="M10.27,57c-.61.43-1,.76-.21,1.51s.54,1.74-.81,2.87a13.91,13.91,0,0,1-1.8.25c-2.46,0-4.92,0-7.39,0,0-1.13-.1-2.27,0-3.4a4,4,0,0,1,4.12-3.94l2.91-.06c.4,0,.8.07,1.2.08C10.16,54.34,10.77,55.16,10.27,57Z"/><path class="cls-9" d="M46.19,57.46a2,2,0,0,1-.42-2.25c.42-.92,1.2-.94,2-.91A9.82,9.82,0,0,0,49,54.23c1,0,1.95,0,2.92.06a4,4,0,0,1,4.11,3.94c.06.89,0,1.78,0,2.67-3.06.13-6.14-.25-9.19.26-1.51-.79-1.68-1.95-.46-3.18.34-.15.27-.29,0-.43A.24.24,0,0,0,46.19,57.46Z"/><path class="cls-10" d="M32.93,11.18a2.67,2.67,0,0,1,1.5-1.81,11.65,11.65,0,0,0,4.45-4c.13-.22.45-.31.68-.46a11.71,11.71,0,0,1,4.19,9.79c-.08,2.76-.68,5.46-1,8.19a5.68,5.68,0,0,1-.53,1.89l-.27-.55a7.8,7.8,0,0,0-.18-2.68A21.16,21.16,0,0,0,40,13.19C39.09,11,38,10.41,35.65,10.57A14.08,14.08,0,0,0,32.93,11.18Z"/><path class="cls-11" d="M46.82,61.16c3-.51,6.13-.13,9.19-.26v2.69H45.62c-.55-.49,0-.93.06-1.39Z"/><path class="cls-12" d="M10.5,66c0,.43.08.9-.25,1.28a1.17,1.17,0,0,0-.92-.52c-2.7,0-5.42-.27-8.11.2A3.48,3.48,0,0,1,.06,64.08c2.24,0,4.48,0,6.71,0a7.53,7.53,0,0,1,3,.27c-.33.3-.35.62,0,.87A2,2,0,0,1,10.5,66Z"/><path class="cls-11" d="M9.79,64.36a7.53,7.53,0,0,0-3-.27c-2.23,0-4.47,0-6.71,0V61.63c2.47,0,4.93,0,7.39,0a13.91,13.91,0,0,0,1.8-.25c.53.08.8.51,1.15.83C10.51,63,10.64,63.83,9.79,64.36Z"/><path class="cls-13" d="M47.36,68.31c-1.69-.44-2.12-1.25-1.44-2.75.93,0,1.87,0,2.8,0,2.31.1,4.63-.26,6.93.24a3.7,3.7,0,0,1-3.55,2.45C50.52,68.32,48.94,68.29,47.36,68.31Z"/><path class="cls-12" d="M55.65,65.8c-2.3-.5-4.62-.14-6.93-.24-.93,0-1.87,0-2.8,0,1.15-.84,0-1.33-.3-2H56A3.27,3.27,0,0,1,55.65,65.8Z"/><path class="cls-13" d="M42.2,24.81a5.68,5.68,0,0,0,.53-1.89c1.7.63,2.12,1.39,1.77,3.13-.14.67-.26,1.34-.39,2a1.84,1.84,0,0,1-1.52,1.65L42,29.64c0-.5,0-1,0-1.48,0-.89,0-1.77,0-2.66Z"/><path class="cls-13" d="M14.13,29.64l-.84,0A2,2,0,0,1,11.94,28c-.11-.63-.23-1.27-.36-1.9-.36-1.76.06-2.5,1.77-3.16.31.94.12,2,.76,2.86l0,2.39Z"/><path class="cls-13" d="M1.22,67c2.69-.47,5.41-.16,8.11-.2a1.17,1.17,0,0,1,.92.52c-.26.72-.9.86-1.54,1l-4.61,0A3.59,3.59,0,0,1,1.22,67Z"/><path class="cls-4" d="M41.08,35c1.44,0,2.56.73,2.57,1.7s-1.15,1.86-2.59,1.89c-1.19,0-2.45-.86-2.47-1.74S39.76,35,41.08,35Z"/><path class="cls-13" d="M32.93,11.18a14.08,14.08,0,0,1,2.72-.61C38,10.41,39.09,11,40,13.19a21.16,21.16,0,0,1,1.71,8.39H14.59a22.16,22.16,0,0,1,1.51-8.09c1-2.81,2.48-3.52,5.32-2.54,3.2,1.11,6.42,1.84,9.8.85C31.8,11.63,32.36,11.39,32.93,11.18Z"/><path class="cls-9" d="M14.14,28.16l0-2.39.05-.28H41.9c0,.89,0,1.77,0,2.66Z"/><path class="cls-12" d="M14.59,21.58H41.75a7.8,7.8,0,0,1,.18,2.68H14.32A8.58,8.58,0,0,1,14.59,21.58Z"/><path class="cls-11" d="M14.32,24.25H41.93l.27.55-.3.69H14.16Z"/><path class="cls-14" d="M9.79,64.36c.85-.53.72-1.34.61-2.15.65-.8,1.62-.67,2.47-.78q13.69-1.73,27.39-3.37c2-.24,4-.4,5.93-.6a.24.24,0,0,1,.17.09V58c-1.22,1.23-1,2.39.46,3.18l-1.14,1.05c-1.4-.76-2.82-.14-4.19,0-7.15.82-14.29,1.72-21.43,2.6-3.19.39-6.38.8-9.56,1.21a2,2,0,0,0-.68-.81C9.44,65,9.46,64.66,9.79,64.36Z"/><path class="cls-15" d="M14.14,28.16h27.8c0,.49,0,1,0,1.48a2.68,2.68,0,0,1-1.31.17H15.31a2.18,2.18,0,0,1-1.18-.17C14.13,29.15,14.14,28.65,14.14,28.16Z"/><path class="cls-8" d="M46.36,58v-.43C46.63,57.69,46.7,57.83,46.36,58Z"/></g></g></svg>