<?xml version="1.0" encoding="UTF-8" standalone="no"?><svg xmlns="http://www.w3.org/2000/svg" viewBox="0 0 29 29"><defs><style>.cls-1{fill:#04bdcc;}.cls-2{fill:#7125f0;}.cls-3{fill:#4e5ddf;}.cls-4{fill:#6246e2;}.cls-5{fill:#17a3d2;}.cls-6{fill:#2297d4;}.cls-7{fill:#000001;}.cls-8{fill:#0faecf;}.cls-9{fill:#fbfcfd;}.cls-10{fill:#2d87d9;}.cls-11{fill:#3473e1;}.cls-12{fill:#3f64e4;}.cls-13{fill:#4c4feb;}.cls-14{fill:#533bf4;}.cls-15{fill:#5f2ff5;}.cls-16{fill:#6e36e6;}</style></defs><g id="Layer_2" data-name="Layer 2"><g id="Layer_1-2" data-name="Layer 1"><path class="cls-1" d="M13.61,0h1.61c.06.06.12.06.15,0h.08a.24.24,0,0,0,.14,0,14.31,14.31,0,0,1,1.6.22c.06.17.18.3.25.46s.18.14.2.26a3.47,3.47,0,0,1,.16.71s0,0,0,0c.19.15.08.37.1.55s0,.26,0,.39a2.28,2.28,0,0,1-.07.69,2,2,0,0,0-.16.54.41.41,0,0,1-.15.32.21.21,0,0,0-.07.19.32.32,0,0,1-.06.21,1.73,1.73,0,0,0-.25.44.42.42,0,0,1-.11.16.82.82,0,0,0-.19.28.38.38,0,0,1-.2.26.28.28,0,0,0-.12.16c0,.07,0,.17-.11.2s-.13.1-.19.17a2.77,2.77,0,0,1-.63.73.2.2,0,0,0-.07.1.38.38,0,0,1-.09.12c-.25.13-.4.38-.63.53s-.2.22-.34.28a.69.69,0,0,0-.3.21.51.51,0,0,1-.18.14c-.25.13-.48.3-.72.44a4.36,4.36,0,0,1-.6.33l-.94.41c-.12,0-.25.07-.37.11a4.8,4.8,0,0,1-.63.24c-.25.05-.48.18-.73.22l-.56.11a1.63,1.63,0,0,1-.54.06c-.19.15-.42-.05-.62,0l0,0a.08.08,0,0,0-.09,0,.12.12,0,0,1-.17,0c-.07-.05-.14-.08-.2,0a3,3,0,0,0-1.3,0,4.58,4.58,0,0,0-.9.32.07.07,0,0,0-.06-.07,4.7,4.7,0,0,1-.82-.29c-.26-.14-.55-.26-.82-.38l0,0A1.23,1.23,0,0,0,3.3,9.5s0,0-.08-.06S2.94,9.13,2.78,9a5.36,5.36,0,0,0-.43-.4A1.29,1.29,0,0,1,2,8.05a.73.73,0,0,0-.28-.32.83.83,0,0,0,.07-.13A14.54,14.54,0,0,1,11.67.28,10.51,10.51,0,0,1,13.53.05S13.62.07,13.61,0Z"/><path class="cls-2" d="M27.49,21a13.94,13.94,0,0,1-1.2,2,14.48,14.48,0,0,1-10.63,6,.2.2,0,0,0-.11,0H13.41c0-.07-.05,0-.07,0a13.14,13.14,0,0,1-2-.3,12.68,12.68,0,0,1-1.63-.46l-.09,0a.18.18,0,0,1,.14-.08l.77-.15.84-.2,1.17-.28c.21,0,.39-.14.59-.18a5.68,5.68,0,0,0,.71-.18c.32-.08.62-.22.94-.29l.06,0a4.57,4.57,0,0,1,.7-.35l.79-.28a1,1,0,0,0,.41-.15s.08,0,.12,0l.56-.14a1.24,1.24,0,0,0,.3-.16c.13,0,.26-.08.39-.1a5.88,5.88,0,0,0,.71-.23c.43-.14.81-.38,1.24-.53h0a8.62,8.62,0,0,1,.94-.52c.11-.06.21-.14.32-.19.53-.22,1-.59,1.46-.84.08,0,.12-.11.2-.13A.49.49,0,0,0,23.3,23l.1-.06a1.71,1.71,0,0,0,.53-.29c.25-.2.57-.24.81-.44a.35.35,0,0,1,.11,0,1.26,1.26,0,0,1,.47-.17h0l.44-.29a.59.59,0,0,1,.36-.11.06.06,0,0,0,.06,0c.05-.12.19-.13.28-.21a1.69,1.69,0,0,1,.52-.26c.08,0,.19,0,.25-.07A.2.2,0,0,1,27.49,21Z"/><path class="cls-3" d="M28.58,11c.06.22.09.44.14.66a6.92,6.92,0,0,1,.14.77,8.18,8.18,0,0,1,.1,1.1s0,.11,0,.13V14c-.12,0-.15.11-.19.2s-.34.31-.48.5a7.66,7.66,0,0,1-.73.78,1,1,0,0,1-.16.19,2.85,2.85,0,0,0-.44.41,2.79,2.79,0,0,1-.47.44,1.26,1.26,0,0,0-.24.22c-.2.24-.46.41-.68.64s-.39.32-.57.49a.87.87,0,0,1-.37.29s0,0,0,.05-.12.11-.17.17-.24,0-.33.12a2.3,2.3,0,0,1-.41.35c-.08.05-.14.17-.26.15a.16.16,0,0,0-.17.06l-.16.13c-.13.12-.33.13-.45.28h-.05a.44.44,0,0,0-.33.11l-.42.28-.4.24c-.07,0-.16,0-.21.12a1,1,0,0,1-.36.24,3.78,3.78,0,0,0-.69.36s-.11.08-.16,0-.06,0-.09,0a.54.54,0,0,0-.2.1c-.05,0-.1.05-.12,0a.16.16,0,0,0-.21-.1c-.08,0-.15.14-.24,0h0a1.7,1.7,0,0,1-.22,0,1.36,1.36,0,0,0-.4,0s-.06.06-.08,0,0-.05.06-.06a1.26,1.26,0,0,0,.33-.16s.17-.05.12-.14-.13,0-.19,0-.17.1-.27,0a.06.06,0,0,0-.06,0,4,4,0,0,0-.46.14c-.07,0-.13.07-.19,0s-.06,0-.09,0a.14.14,0,0,1-.09,0c-.17,0-.34.1-.52,0,0,0,0,0-.07,0-.21,0-.42.15-.64.06,0,0-.08,0-.11,0a.11.11,0,0,1-.16,0c0-.05.06-.05.09-.08s.27-.06.32-.21.09,0,0-.09-.08,0-.12,0l-.42.13s0,0-.07,0,0,0,0,0a2.69,2.69,0,0,1,.38-.19,2.47,2.47,0,0,0,.59-.22c.11-.06.24-.06.35-.12a2.64,2.64,0,0,1,.55-.15c.07,0,.15,0,.23-.06a4,4,0,0,1,.45-.16.85.85,0,0,0,.41-.15l.07,0a1,1,0,0,0,.58-.13,6.18,6.18,0,0,0,.77-.39,2,2,0,0,0,.39-.24c.12-.09.27-.11.38-.22a1.78,1.78,0,0,1,.32-.29,1.16,1.16,0,0,0,.57-.48s0-.05.06-.05a1.6,1.6,0,0,0,.55-.45c.05,0,.11-.06.11-.14a1.53,1.53,0,0,0,1.15-.84,1.35,1.35,0,0,0,.33.64.48.48,0,0,0,.26.16,1.27,1.27,0,0,0,1.16-.32,1.52,1.52,0,0,0,.57-1.05.37.37,0,0,0-.06-.25c-.06-.09-.14-.08-.19,0l0,.08a2.38,2.38,0,0,1-.49.84.34.34,0,0,1-.35.13c-.15-.05-.15-.2-.15-.33a4.48,4.48,0,0,1,.17-1.21.61.61,0,0,0,.28-.19c.08-.08.13-.19.22-.27a8.51,8.51,0,0,0,.79-.8l1.13-1.27a.43.43,0,0,0,.09-.1c.18-.31.46-.53.63-.83.06-.11.17-.18.21-.31A.14.14,0,0,1,28.58,11Z"/><path class="cls-4" d="M24.67,18.15a.87.87,0,0,0,.37-.29c.18-.17.39-.31.57-.49s.48-.4.68-.64a1.26,1.26,0,0,1,.24-.22,2.79,2.79,0,0,0,.47-.44,2.85,2.85,0,0,1,.44-.41,1,1,0,0,0,.16-.19,7.66,7.66,0,0,0,.73-.78c.14-.19.37-.29.48-.5s.07-.19.19-.2v1.38c-.05,0-.05.05,0,.07v.24c-.06,0-.08,0-.06.1a.14.14,0,0,1,0,.14V16a5.48,5.48,0,0,1-.14,1.15.79.79,0,0,0-.28.23c-.19.24-.45.41-.66.63a4.25,4.25,0,0,1-.5.44c-.16.13-.29.3-.45.43s-.53.38-.76.61a2.61,2.61,0,0,1-.44.38,10,10,0,0,1-.93.62c-.22.11-.4.32-.62.45a5.86,5.86,0,0,1-1,.61h0a3.87,3.87,0,0,1-.93.53s0,0-.05,0a4,4,0,0,1-.49.3c-.13.1-.31.1-.44.2a3.7,3.7,0,0,1-.68.36c-.05,0-.12,0-.17.07a.84.84,0,0,1-.54.24.32.32,0,0,0-.37,0c-.15.09-.35,0-.49.15h0a.19.19,0,0,0-.15,0l-.32.12a2.64,2.64,0,0,1-.61.23,1.29,1.29,0,0,0-.38.12A.91.91,0,0,1,17,24c-.06-.05-.09-.09,0-.16s.07-.1,0-.15-.08-.06-.16-.05a1.27,1.27,0,0,1-.27,0c-.08,0-.13-.06-.1-.15a.46.46,0,0,0,.23-.06,2.21,2.21,0,0,1,.27-.12c.27-.08.52-.23.78-.32a.13.13,0,0,0,.07,0,.23.23,0,0,1,.22-.08.15.15,0,0,0,.16-.1c0-.07.07-.09.12-.12s.22-.1.22-.22a.29.29,0,0,1,.22-.3c.08,0,.19-.1.16-.19s0-.16.11-.19a.64.64,0,0,1,.36-.08.14.14,0,0,0,.11,0,.51.51,0,0,1,.22-.09l.44-.14c.27-.1.53-.23.81-.31a2.52,2.52,0,0,0,.72-.39c.14-.1.31-.14.43-.24a8.24,8.24,0,0,1,.8-.5.53.53,0,0,0,.21-.18.35.35,0,0,1,.18-.16.58.58,0,0,0,.32-.35c.08-.19.27-.29.39-.43l0,0a.14.14,0,0,0,.13-.08,1.09,1.09,0,0,1,.23-.3s0,0,0-.05.08-.15.17-.17A.07.07,0,0,0,24.67,18.15Z"/><path class="cls-5" d="M0,13.53c.07,0,0-.06,0-.1,0-.42.08-.84.15-1.26a.64.64,0,0,0,0-.07c.08,0,.18,0,.24.09a.57.57,0,0,0,.36.25s0,0,.06.05a.83.83,0,0,0,.36.26c.15.08.27.22.45.24l.06,0a1.86,1.86,0,0,0,.58.29c.25,0,.45.25.72.21h0c.09.11.24.08.35.15s0,.27-.05.41a5.41,5.41,0,0,0,.07,1.45c-.24,0-.48,0-.73,0a5.9,5.9,0,0,1-.74,0,.48.48,0,0,0-.26,0,.18.18,0,0,1-.17,0,.44.44,0,0,0-.27-.09c-.23,0-.38-.23-.62-.19,0,0,0,0,0,0a1.47,1.47,0,0,0-.6-.23Z"/><path class="cls-6" d="M0,15.08a1.47,1.47,0,0,1,.6.23s0,0,0,0c.24,0,.39.21.62.19a.44.44,0,0,1,.27.09.18.18,0,0,0,.17,0,.48.48,0,0,1,.26,0,5.9,5.9,0,0,0,.74,0c.25,0,.49-.05.73,0a3.82,3.82,0,0,0,.49,1.16,5.32,5.32,0,0,1-.8.12c-.11,0-.23,0-.35,0-.46,0-.91.05-1.37.08a2.56,2.56,0,0,0-.73,0h0a1,1,0,0,0-.42,0,5.79,5.79,0,0,1-.12-.82c0-.27,0-.55-.08-.83,0,0,0-.07,0-.09Z"/><path class="cls-7" d="M15.37,0c0,.06-.09.06-.15,0Z"/><path class="cls-3" d="M28.94,15.78c0-.06,0-.09.06-.1v.1C29,15.71,29,15.76,28.94,15.78Z"/><path class="cls-3" d="M29,15.44c-.05,0-.05,0,0-.07Z"/><path class="cls-8" d="M17.19.26A8.52,8.52,0,0,1,18.4.55l1,.32a11.6,11.6,0,0,1,2,.9c.13.07.25.16.38.24a4.68,4.68,0,0,0-.08.54,1.57,1.57,0,0,0,0,.37,2.24,2.24,0,0,1-.15.67,6.75,6.75,0,0,0-.25.76c-.06.28-.27.48-.3.76,0,0,0,0,0,0a5.41,5.41,0,0,0-.47.85c-.18.3-.37.58-.55.88a2.19,2.19,0,0,1-.34.46,7.48,7.48,0,0,1-.62.75c-.13.11-.21.27-.34.37a.35.35,0,0,0-.12.15.17.17,0,0,1-.17.14.14.14,0,0,0-.09,0c-.15.08-.29.17-.43.26a3.3,3.3,0,0,0-.32.18s-.07.06,0,.08.06,0,0,.07a.09.09,0,0,1-.06.07.44.44,0,0,0-.26.22s0,.09-.09.09a.61.61,0,0,0-.41.23.18.18,0,0,1-.18.08s-.07,0-.06,0-.05.1-.1.12a.4.4,0,0,0-.16.08,1.2,1.2,0,0,1-.39.2,1.17,1.17,0,0,0-.27.15.21.21,0,0,1-.1.06,7,7,0,0,0-.7.3c-.1,0-.18.11-.3.08a.07.07,0,0,0-.08,0c-.15.16-.38.17-.56.27s-.26,0-.37.1a5.49,5.49,0,0,1-1,.37,8.39,8.39,0,0,1-.89.28c-.23.08-.44.17-.68.23s-.67.18-1,.25a2.72,2.72,0,0,1-.38.11,5.23,5.23,0,0,0-.95.22,5.65,5.65,0,0,1-1.07.22,3.69,3.69,0,0,1-.88.16,1,1,0,0,0-.34.05,8,8,0,0,1-1,.15c-.08,0-.16.07-.24.05a.39.39,0,0,0-.32,0,.29.29,0,0,1-.16,0,1.74,1.74,0,0,1,.15-.54,3.93,3.93,0,0,1,1.48-2,1.57,1.57,0,0,1,.93-.31.71.71,0,0,1,.76.66,1.67,1.67,0,0,1-.2,1,1,1,0,0,0-.13.3.15.15,0,0,0,.1.2.46.46,0,0,0,.35-.06,1.25,1.25,0,0,0,.69-.75,1.29,1.29,0,0,0-.48-1.61,2.3,2.3,0,0,0-.48-.22c.06-.1.13-.07.2,0a.12.12,0,0,0,.17,0,.08.08,0,0,1,.09,0l0,0c.2-.1.43.1.62,0a1.63,1.63,0,0,0,.54-.06l.56-.11c.25,0,.48-.17.73-.22a4.8,4.8,0,0,0,.63-.24c.12,0,.25-.06.37-.11l.94-.41a4.36,4.36,0,0,0,.6-.33c.24-.14.47-.31.72-.44a.51.51,0,0,0,.18-.14.69.69,0,0,1,.3-.21c.14-.06.22-.2.34-.28s.38-.4.63-.53a.38.38,0,0,0,.09-.12.2.2,0,0,1,.07-.1,2.77,2.77,0,0,0,.63-.73c.06-.07.1-.14.19-.17s.08-.13.11-.2a.28.28,0,0,1,.12-.16.38.38,0,0,0,.2-.26.82.82,0,0,1,.19-.28.42.42,0,0,0,.11-.16,1.73,1.73,0,0,1,.25-.44.32.32,0,0,0,.06-.21.21.21,0,0,1,.07-.19.41.41,0,0,0,.15-.32,2,2,0,0,1,.16-.54,2.28,2.28,0,0,0,.07-.69c0-.13,0-.27,0-.39s.09-.4-.1-.55c0,0,0,0,0,0A3.47,3.47,0,0,0,17.64,1c0-.12-.15-.15-.2-.26S17.25.43,17.19.26Z"/><path class="cls-9" d="M7.78,10.36a2.3,2.3,0,0,1,.48.22,1.29,1.29,0,0,1,.48,1.61,1.25,1.25,0,0,1-.69.75A.46.46,0,0,1,7.7,13a.15.15,0,0,1-.1-.2,1,1,0,0,1,.13-.3,1.67,1.67,0,0,0,.2-1,.71.71,0,0,0-.76-.66,1.57,1.57,0,0,0-.93.31,3.93,3.93,0,0,0-1.48,2,1.74,1.74,0,0,0-.15.54,3.84,3.84,0,0,0-.09,1.26,2.59,2.59,0,0,0,.41,1.38,1.3,1.3,0,0,0,.51.45,1.7,1.7,0,0,0,1.46,0,2.82,2.82,0,0,0,1.14-1,6.77,6.77,0,0,0,.81-1.64,3.73,3.73,0,0,1,.52-.73,1.64,1.64,0,0,1,1-.55.76.76,0,0,1,.92.54s0,0,0,0l.14-.19a.86.86,0,0,1,.6-.37c.34,0,.45.07.43.41s-.26.83-.36,1.25L12,15a4.14,4.14,0,0,0-.13,1.1c0,.29.17.37.42.23a1.18,1.18,0,0,0,.38-.39,5,5,0,0,0,.71-1.66,3.86,3.86,0,0,0,.17-1.07.3.3,0,0,1,.05-.21.8.8,0,0,1,.52-.15.47.47,0,0,1,.39.47,3.17,3.17,0,0,1-.09,1,.15.15,0,0,0,0,.13l.08-.12a5.14,5.14,0,0,1,.87-1.1,1.6,1.6,0,0,1,.57-.35.62.62,0,0,1,.82.45,1.49,1.49,0,0,1,0,.63c0,.21-.07.41-.11.61a5.31,5.31,0,0,0-.24,1.31c0,.12,0,.26.12.33s.26,0,.37-.1a1.89,1.89,0,0,0,.2-.2,3.4,3.4,0,0,0,.71-1.68,1.15,1.15,0,0,0,0-.26,1.91,1.91,0,0,1,.1-.58.73.73,0,0,1,.79-.54c.23,0,.29.08.26.31a1.83,1.83,0,0,0,0,.47,10.83,10.83,0,0,0,.08,2,1.83,1.83,0,0,0,.09.39c.09.27.19.3.39.1l.1-.1a6.68,6.68,0,0,0,.87-1.42c0-.06,0-.09,0-.12a1.06,1.06,0,0,1-.26-.2,1.42,1.42,0,0,1-.37-.89,1.67,1.67,0,0,1,.15-.76.88.88,0,0,1,1.16-.47,1.37,1.37,0,0,1,.17.17,1.12,1.12,0,0,1,.16.71,4.14,4.14,0,0,1-.26,1c-.07.19-.06.2.14.19h.07a1.27,1.27,0,0,0,.74-.43c.12-.13.23-.29.36-.42A1.34,1.34,0,0,1,24,12.93a.82.82,0,0,1,.35.51l.18-.24a.79.79,0,0,1,.79-.33.23.23,0,0,1,.22.29.59.59,0,0,1,0,.13c-.1.29-.18.59-.26.89s-.13.47-.17.71A4.48,4.48,0,0,0,25,16.1c0,.13,0,.28.15.33a.34.34,0,0,0,.35-.13,2.38,2.38,0,0,0,.49-.84l0-.08c.05-.1.13-.11.19,0a.37.37,0,0,1,.06.25,1.52,1.52,0,0,1-.57,1.05A1.27,1.27,0,0,1,24.5,17a.48.48,0,0,1-.26-.16,1.35,1.35,0,0,1-.33-.64,1.53,1.53,0,0,1-1.15.84h-.08a.9.9,0,0,1-.91-.61v0a2.93,2.93,0,0,1,0-1.85s.05-.07,0-.12a1.3,1.3,0,0,1-.77.19.15.15,0,0,0-.17.1,7.29,7.29,0,0,1-1,1.55,2.74,2.74,0,0,1-.77.67.47.47,0,0,1-.69-.17,2.25,2.25,0,0,1-.12-.21,3.58,3.58,0,0,1-.24-.72c0-.22-.08-.45-.13-.7a2.16,2.16,0,0,1-.09.2,3.91,3.91,0,0,1-.72,1.19,1.32,1.32,0,0,1-.76.48.77.77,0,0,1-.65-.17,1,1,0,0,1-.2-.25,2,2,0,0,1-.09-1c.06-.39.16-.77.24-1.16a2.07,2.07,0,0,0,0-.5c0-.14-.09-.17-.21-.11a1,1,0,0,0-.28.25,5.82,5.82,0,0,0-.92,1.53,6.07,6.07,0,0,0-.42,1.22.3.3,0,0,1-.26.22.61.61,0,0,1-.44,0,1.1,1.1,0,0,1-.25-.78l-.1.14a2.47,2.47,0,0,1-.51.51,1.15,1.15,0,0,1-.56.2.84.84,0,0,1-.9-.61.73.73,0,0,0-.07-.19l-.13.17a1.47,1.47,0,0,1-.62.54,1,1,0,0,1-1.11-.13,1.14,1.14,0,0,1-.34-.66c0-.11,0-.22-.06-.33h0l0,0A3.88,3.88,0,0,1,7.53,17,2.54,2.54,0,0,1,5,17.5a2.14,2.14,0,0,1-1-.71s0-.06-.08-.07a3.82,3.82,0,0,1-.49-1.16,5.41,5.41,0,0,1-.07-1.45c0-.14,0-.27.05-.41a.19.19,0,0,0,0-.08,4.6,4.6,0,0,1,1-2,4.39,4.39,0,0,1,1.13-.93,4.58,4.58,0,0,1,.9-.32A3,3,0,0,1,7.78,10.36ZM22.7,15.68a1.35,1.35,0,0,0,.11.49.35.35,0,0,0,.54.14.73.73,0,0,0,.2-.19,3.49,3.49,0,0,0,.61-1.64,1.58,1.58,0,0,0,0-.81.31.31,0,0,0-.46-.21,1,1,0,0,0-.28.21,2.85,2.85,0,0,0-.35.55A3.56,3.56,0,0,0,22.7,15.68Zm-13.12,0a1,1,0,0,0,.11.54.35.35,0,0,0,.52.14.8.8,0,0,0,.17-.15,2.27,2.27,0,0,0,.42-.78.37.37,0,0,0,0-.11,3.19,3.19,0,0,0,.2-1.47c-.05-.32-.25-.5-.58-.31a1.14,1.14,0,0,0-.29.29,3.13,3.13,0,0,0-.5,1.08A2.86,2.86,0,0,0,9.58,15.64Zm10.88-2.47a1.25,1.25,0,0,0,.19.7s0,.05.06.05,0,0,0-.06.06-.2.08-.3a2.34,2.34,0,0,0,.09-.79c0-.1,0-.2-.16-.22s-.16.08-.2.16A1,1,0,0,0,20.46,13.17Z"/><path class="cls-8" d="M5.58,10.66a4.39,4.39,0,0,0-1.13.93,4.6,4.6,0,0,0-1,2,.19.19,0,0,1,0,.08c-.11-.07-.26,0-.35-.15H3c-.27,0-.47-.17-.72-.21A1.86,1.86,0,0,1,1.74,13l-.06,0c-.18,0-.3-.16-.45-.24a.83.83,0,0,1-.36-.26s0-.05-.06-.05a.57.57,0,0,1-.36-.25c-.06-.07-.16-.06-.24-.09a12.88,12.88,0,0,1,.32-1.47A14.59,14.59,0,0,1,1.64,7.8l0-.07A.73.73,0,0,1,2,8.05a1.29,1.29,0,0,0,.39.54,5.36,5.36,0,0,1,.43.4c.16.14.27.32.44.45s0,.05.08.06a1.23,1.23,0,0,1,.54.39l0,0c.27.12.56.24.82.38a4.7,4.7,0,0,0,.82.29A.07.07,0,0,1,5.58,10.66Z"/><path class="cls-5" d="M14.09,12.86a.8.8,0,0,0-.52.15c-.06,0-.13,0-.18,0a1.48,1.48,0,0,1-.41.12,2.11,2.11,0,0,1-.53.15c0-.34-.09-.44-.43-.41a.86.86,0,0,0-.6.37l-.14.19s0,0,0,0a.76.76,0,0,0-.92-.54,1.64,1.64,0,0,0-1,.55,3.73,3.73,0,0,0-.52.73h-.1l-1.11.24-.71.13a1.45,1.45,0,0,0-.45.13.14.14,0,0,1-.14,0,.33.33,0,0,0-.29,0c-.08,0-.17.08-.24.06-.24,0-.44.15-.68.09l-.08,0-.53.1a3.84,3.84,0,0,1,.09-1.26.29.29,0,0,0,.16,0,.39.39,0,0,1,.32,0c.08,0,.16,0,.24-.05a8,8,0,0,0,1-.15,1,1,0,0,1,.34-.05,3.69,3.69,0,0,0,.88-.16A5.65,5.65,0,0,0,8.58,13a5.23,5.23,0,0,1,.95-.22,2.72,2.72,0,0,0,.38-.11c.34-.07.68-.16,1-.25s.45-.15.68-.23a8.39,8.39,0,0,0,.89-.28,5.49,5.49,0,0,0,1-.37c.11-.06.25,0,.37-.1s.41-.11.56-.27a.07.07,0,0,1,.08,0c.12,0,.2,0,.3-.08a7,7,0,0,1,.7-.3.21.21,0,0,0,.1-.06,1.17,1.17,0,0,1,.27-.15,1.2,1.2,0,0,0,.39-.2.4.4,0,0,1,.16-.08c.05,0,.1,0,.1-.12s0,0,.06,0a.18.18,0,0,0,.18-.08.61.61,0,0,1,.41-.23c.05,0,.07-.05.09-.09a.44.44,0,0,1,.26-.22.09.09,0,0,0,.06-.07s0,0,0-.07,0-.05,0-.08A3.3,3.3,0,0,1,17.83,9c.14-.09.28-.18.43-.26a.14.14,0,0,1,.09,0,.17.17,0,0,0,.17-.14.35.35,0,0,1,.12-.15c.13-.1.21-.26.34-.37a7.48,7.48,0,0,0,.62-.75,2.19,2.19,0,0,0,.34-.46c.18-.3.37-.58.55-.88A5.41,5.41,0,0,1,21,5.15s0,0,0,0c0-.28.24-.48.3-.76a6.75,6.75,0,0,1,.25-.76,2.24,2.24,0,0,0,.15-.67,1.57,1.57,0,0,1,0-.37A4.68,4.68,0,0,1,21.82,2l.59.35a10.48,10.48,0,0,1,1.22.88c.21.17.41.37.61.55a1.28,1.28,0,0,0-.27.62.57.57,0,0,1-.14.35.34.34,0,0,0-.12.26.61.61,0,0,1-.13.34.89.89,0,0,0-.21.45c0,.05,0,.11-.06.14a.74.74,0,0,0-.26.46.2.2,0,0,1-.09.16.27.27,0,0,0-.17.25.41.41,0,0,1-.11.23c-.09.09-.2.16-.22.3a.49.49,0,0,1-.11.2c-.09.13-.21.23-.29.37L22,8.1c-.1.16-.28.25-.34.43a.35.35,0,0,1-.13.2.72.72,0,0,0-.28.32c-.05.1-.1.21-.22.24s-.06,0-.09.06-.14.22-.23.31a7,7,0,0,1-.71.5c-.11.08-.25.12-.33.24a.25.25,0,0,1-.17.1.81.81,0,0,0-.35.2,5.36,5.36,0,0,1-.59.38.67.67,0,0,1-.28.14,3,3,0,0,0-.8.36.59.59,0,0,1-.45.13s-.06,0-.1,0-.31.17-.48.24-.15,0-.23.06a1.43,1.43,0,0,1-.63.24.28.28,0,0,0-.15.06,1.32,1.32,0,0,1-.56.21c-.24.07-.47.18-.71.24C14.1,12.81,14.1,12.83,14.09,12.86Z"/><path class="cls-6" d="M14.09,12.86s0,0,0-.06c.24-.06.47-.17.71-.24a1.32,1.32,0,0,0,.56-.21.28.28,0,0,1,.15-.06,1.43,1.43,0,0,0,.63-.24c.08,0,.16,0,.23-.06s.33-.16.48-.24.06-.05.1,0a.59.59,0,0,0,.45-.13,3,3,0,0,1,.8-.36.67.67,0,0,0,.28-.14,5.36,5.36,0,0,0,.59-.38.81.81,0,0,1,.35-.2.25.25,0,0,0,.17-.1c.08-.12.22-.16.33-.24a7,7,0,0,0,.71-.5c.09-.09.13-.22.23-.31s.05,0,.09-.06.17-.14.22-.24a.72.72,0,0,1,.28-.32.35.35,0,0,0,.13-.2c.06-.18.24-.27.34-.43l.1-.18c.08-.14.2-.24.29-.37a.49.49,0,0,0,.11-.2c0-.14.13-.21.22-.3a.41.41,0,0,0,.11-.23A.27.27,0,0,1,23,6.57a.2.2,0,0,0,.09-.16A.74.74,0,0,1,23.31,6c.05,0,.05-.09.06-.14a.89.89,0,0,1,.21-.45A.61.61,0,0,0,23.71,5a.34.34,0,0,1,.12-.26A.57.57,0,0,0,24,4.41a1.28,1.28,0,0,1,.27-.62c.07,0,.1.06.14.1.34.3.64.65,1,1s.39.44.57.68a.49.49,0,0,1,0,.11c-.1.25-.26.47-.36.72a.9.9,0,0,1-.19.36.27.27,0,0,0-.11.15c0,.26-.23.42-.33.64s-.23.33-.32.5-.27.4-.41.6-.06.16-.13.22c-.26.22-.35.59-.65.78h0a1.64,1.64,0,0,1-.36.47c-.14.17-.28.35-.44.51s-.32.39-.5.57a1.75,1.75,0,0,0-.24.23.29.29,0,0,1-.18.13.19.19,0,0,0-.18.13.1.1,0,0,1-.08.06.09.09,0,0,0-.06.07c0,.09-.06.13-.12.18a.13.13,0,0,0-.08.11.88.88,0,0,0-1.16.47,1.67,1.67,0,0,0-.15.76.75.75,0,0,0-.31.08,1.8,1.8,0,0,1-.55.19,1.83,1.83,0,0,1,0-.47c0-.23,0-.3-.26-.31a.73.73,0,0,0-.79.54,1.91,1.91,0,0,0-.1.58,1.15,1.15,0,0,1,0,.26c-.08,0-.14.08-.21.06s-.33.07-.48.16a.17.17,0,0,1-.14,0,.17.17,0,0,0-.18,0,.2.2,0,0,1-.15.05c0-.2.08-.4.11-.61a1.49,1.49,0,0,0,0-.63.62.62,0,0,0-.82-.45,1.6,1.6,0,0,0-.57.35,5.14,5.14,0,0,0-.87,1.1l-.08.12a.15.15,0,0,1,0-.13,3.17,3.17,0,0,0,.09-1A.47.47,0,0,0,14.09,12.86Z"/><path class="cls-10" d="M21.12,12.11A.13.13,0,0,1,21.2,12c.06-.05.13-.09.12-.18a.09.09,0,0,1,.06-.07.1.1,0,0,0,.08-.06.19.19,0,0,1,.18-.13.29.29,0,0,0,.18-.13,1.75,1.75,0,0,1,.24-.23c.18-.18.32-.39.5-.57s.3-.34.44-.51a1.64,1.64,0,0,0,.36-.47h0c.3-.19.39-.56.65-.78.07-.06.08-.15.13-.22s.29-.39.41-.6.24-.32.32-.5.3-.38.33-.64a.27.27,0,0,1,.11-.15.9.9,0,0,0,.19-.36c.1-.25.26-.47.36-.72a.49.49,0,0,0,0-.11,6.81,6.81,0,0,1,.64.88c.21.33.43.65.61,1a7.76,7.76,0,0,1,.46.91.8.8,0,0,0-.22.29,1.22,1.22,0,0,1-.17.29c-.06.07-.15.12-.18.2a1.38,1.38,0,0,1-.3.49l-.08.09a3.39,3.39,0,0,1-.52.72c-.08.08-.1.19-.17.27a1.52,1.52,0,0,0-.41.53l-.05,0c-.25.16-.37.44-.58.65a5.76,5.76,0,0,1-.53.57,1.73,1.73,0,0,0-.37.44,1.34,1.34,0,0,0-1.54.44c-.13.13-.24.29-.36.42a1.27,1.27,0,0,1-.74.43h-.07c-.2,0-.21,0-.14-.19a4.14,4.14,0,0,0,.26-1,1.12,1.12,0,0,0-.16-.71A1.37,1.37,0,0,0,21.12,12.11Z"/><path class="cls-11" d="M24,12.93a1.73,1.73,0,0,1,.37-.44,5.76,5.76,0,0,0,.53-.57c.21-.21.33-.49.58-.65l.05,0a1.52,1.52,0,0,1,.41-.53c.07-.08.09-.19.17-.27a3.39,3.39,0,0,0,.52-.72l.08-.09a1.38,1.38,0,0,0,.3-.49c0-.08.12-.13.18-.2a1.22,1.22,0,0,0,.17-.29.8.8,0,0,1,.22-.29A10.19,10.19,0,0,1,28.26,10a.83.83,0,0,0,0,.15.29.29,0,0,0-.16.13c-.35.42-.68.86-1,1.31-.08.12-.22.17-.27.28a4.34,4.34,0,0,1-.53.67c-.18.26-.45.45-.64.72a.16.16,0,0,1-.15.08.59.59,0,0,0,0-.13.23.23,0,0,0-.22-.29.79.79,0,0,0-.79.33l-.18.24A.82.82,0,0,0,24,12.93Z"/><path class="cls-12" d="M25.56,13.29a.16.16,0,0,0,.15-.08c.19-.27.46-.46.64-.72a4.34,4.34,0,0,0,.53-.67c.05-.11.19-.16.27-.28.31-.45.64-.89,1-1.31a.29.29,0,0,1,.16-.13.88.88,0,0,1,.12.32c0,.21.11.41.16.62a.14.14,0,0,0-.1.08c0,.13-.15.2-.21.31-.17.3-.45.52-.63.83a.43.43,0,0,1-.09.1l-1.13,1.27a8.51,8.51,0,0,1-.79.8c-.09.08-.14.19-.22.27a.61.61,0,0,1-.28.19c0-.24.11-.47.17-.71S25.46,13.58,25.56,13.29Z"/><path class="cls-12" d="M21.77,16.41a.9.9,0,0,0,.91.61h.08c0,.08-.06.1-.11.14a1.6,1.6,0,0,1-.55.45s-.05,0-.06.05a1.16,1.16,0,0,1-.57.48,1.78,1.78,0,0,0-.32.29c-.11.11-.26.13-.38.22a2,2,0,0,1-.39.24,6.18,6.18,0,0,1-.77.39,1,1,0,0,1-.58.13l-.07,0a.85.85,0,0,1-.41.15,4,4,0,0,0-.45.16c-.08,0-.16,0-.23.06a2.64,2.64,0,0,0-.55.15c-.11.06-.24.06-.35.12a2.47,2.47,0,0,1-.59.22,2.69,2.69,0,0,0-.38.19s0,0,0,0,0,0,.07,0l.42-.13s.09,0,.12,0,0,.06,0,.09-.21.15-.32.21-.08,0-.09.08a.76.76,0,0,0-.18.06,1,1,0,0,1-.49.15.53.53,0,0,0-.12,0l-.73.23a.56.56,0,0,1-.34,0,.15.15,0,0,0-.13,0,1.76,1.76,0,0,1-.79.05l-.59,0a4.42,4.42,0,0,1-.63,0,1.67,1.67,0,0,0-.59,0,2.35,2.35,0,0,1-.37.05,4.68,4.68,0,0,0-1,0c-.12,0-.24-.05-.36,0a.38.38,0,0,1-.18,0,4,4,0,0,1-.49,0c-.2,0-.4.06-.6.07a2.24,2.24,0,0,0-.52,0c-.26.07-.53.07-.79.14A1.31,1.31,0,0,1,7,21.7,7,7,0,0,0,5.6,22c-.27.08-.56.08-.84.15s-.52.05-.77.12c-.41.12-.83.16-1.25.25-.09,0-.21,0-.28.08a12.9,12.9,0,0,1-.73-1.18c-.13-.23-.24-.47-.35-.7a.18.18,0,0,1,.1,0,3.08,3.08,0,0,0,.8-.05,4.27,4.27,0,0,0,.79-.1h.07a4.35,4.35,0,0,0,.52-.06,2.31,2.31,0,0,1,.69-.11.32.32,0,0,0,.14,0A1.61,1.61,0,0,1,5,20.18,11.55,11.55,0,0,1,6.17,20a.58.58,0,0,0,.31-.11.24.24,0,0,1,.14-.05,9.79,9.79,0,0,0,1.21-.17c.34,0,.67-.12,1-.18s.6-.08.89-.14a2.8,2.8,0,0,1,.57-.08,3.59,3.59,0,0,0,.46-.05c.19,0,.39-.07.59-.08a4.9,4.9,0,0,0,1-.13c.09,0,.19-.07.28,0a.17.17,0,0,0,.18,0l.11,0c.22-.05.45,0,.67-.06s.22,0,.33,0A8.28,8.28,0,0,1,15,18.7a2.09,2.09,0,0,0,.55-.08,1.16,1.16,0,0,1,.41-.09.33.33,0,0,0,.17,0,2.08,2.08,0,0,1,.69-.15,1,1,0,0,0,.42-.13,2.3,2.3,0,0,1,.67-.27c.09,0,.17,0,.21-.13s.05,0,.08,0a.68.68,0,0,0,.34-.11.31.31,0,0,1,.12-.05.36.36,0,0,0,.25-.08,1.91,1.91,0,0,1,.6-.23,3.42,3.42,0,0,0,.81-.35.27.27,0,0,1,.15-.05.77.77,0,0,0,.32-.14.18.18,0,0,1,.09,0,1.22,1.22,0,0,0,.49-.19A.64.64,0,0,1,21.77,16.41Z"/><path class="cls-13" d="M2.46,22.56c.07-.1.19-.06.28-.08.42-.09.84-.13,1.25-.25.25-.07.52-.06.77-.12S5.33,22,5.6,22A7,7,0,0,1,7,21.7a1.31,1.31,0,0,0,.27-.06c.26-.07.53-.07.79-.14a2.24,2.24,0,0,1,.52,0c.2,0,.4-.07.6-.07a4,4,0,0,0,.49,0,.38.38,0,0,0,.18,0c.12-.06.24,0,.36,0a4.68,4.68,0,0,1,1,0,2.35,2.35,0,0,0,.37-.05,1.67,1.67,0,0,1,.59,0,4.42,4.42,0,0,0,.63,0l.59,0a1.76,1.76,0,0,0,.79-.05.15.15,0,0,1,.13,0,.56.56,0,0,0,.34,0l.73-.23a.53.53,0,0,1,.12,0,1,1,0,0,0,.49-.15.76.76,0,0,1,.18-.06.11.11,0,0,0,.16,0s.07-.05.11,0c.22.09.43,0,.64-.06,0,0,0,0,.07,0,.18.08.35,0,.52,0a.14.14,0,0,0,.09,0s.07,0,.09,0,.12,0,.19,0a4,4,0,0,1,.46-.14.06.06,0,0,1,.06,0c.1.09.18,0,.27,0s.14-.09.19,0-.07.1-.12.14a1.26,1.26,0,0,1-.33.16s-.07,0-.06.06.06,0,.08,0a1.36,1.36,0,0,1,.4,0,1.7,1.7,0,0,0,.22,0h0c.09.12.16,0,.24,0a.16.16,0,0,1,.21.1c0,.09.07.08.12,0a.54.54,0,0,1,.2-.1s.08,0,.09,0,.11,0,.16,0a3.78,3.78,0,0,1,.69-.36,1,1,0,0,0,.36-.24c.05-.08.14-.07.21-.12l.4-.24.42-.28a.44.44,0,0,1,.33-.11h.05c.12-.15.32-.16.45-.28l.16-.13a.16.16,0,0,1,.17-.06c.12,0,.18-.1.26-.15a2.3,2.3,0,0,0,.41-.35c.09-.08.22-.07.33-.12s0,.05,0,.05a1.09,1.09,0,0,0-.23.3.14.14,0,0,1-.13.08l0,0c-.12.14-.31.24-.39.43a.58.58,0,0,1-.32.35.35.35,0,0,0-.18.16.53.53,0,0,1-.21.18,8.24,8.24,0,0,0-.8.5c-.12.1-.29.14-.43.24a2.52,2.52,0,0,1-.72.39c-.28.08-.54.21-.81.31l-.44.14a.51.51,0,0,0-.22.09.14.14,0,0,1-.11,0,.64.64,0,0,0-.36.08c-.07,0-.14.07-.11.19s-.08.16-.16.19a.29.29,0,0,0-.22.3c0,.12-.13.16-.22.22s-.1.05-.12.12a.15.15,0,0,1-.16.1.23.23,0,0,0-.22.08.13.13,0,0,1-.07,0c-.26.09-.51.24-.78.32a2.21,2.21,0,0,0-.27.12.46.46,0,0,1-.23.06,2.85,2.85,0,0,1-.51.08.31.31,0,0,0-.21.05.49.49,0,0,1-.16,0c-.21,0-.41.09-.63.11s-.31.06-.48.08-.11,0-.1-.09-.05-.12-.1-.07a.31.31,0,0,1-.32.05.33.33,0,0,0-.19,0,.14.14,0,0,1-.22-.06.11.11,0,0,0-.1-.06,2.28,2.28,0,0,0-.58.05,1.26,1.26,0,0,1-.64,0,.62.62,0,0,0-.27,0,1.1,1.1,0,0,1-.31,0c-.16,0-.32,0-.48,0a2.64,2.64,0,0,1-.4,0c-.07,0-.13-.06-.22-.06-.31,0-.62,0-.93,0a1.51,1.51,0,0,0-.52,0,.39.39,0,0,1-.26,0,.52.52,0,0,0-.3-.05c-.27,0-.53,0-.79.05s-.56-.06-.85,0-.61.07-.91.13-.49.14-.74.19-.79.13-1.18.2c-.08,0-.17,0-.22.11-.24-.25-.46-.52-.68-.8A7.82,7.82,0,0,1,2.46,22.56Z"/><path class="cls-11" d="M21.77,16.41a.64.64,0,0,0-.37.15,1.22,1.22,0,0,1-.49.19.18.18,0,0,0-.09,0,.77.77,0,0,1-.32.14.27.27,0,0,0-.15.05,3.42,3.42,0,0,1-.81.35,1.91,1.91,0,0,0-.6.23.36.36,0,0,1-.25.08.31.31,0,0,0-.12.05.68.68,0,0,1-.34.11s-.07,0-.08,0S18,18,17.94,18a2.3,2.3,0,0,0-.67.27,1,1,0,0,1-.42.13,2.08,2.08,0,0,0-.69.15.33.33,0,0,1-.17,0,1.16,1.16,0,0,0-.41.09,2.09,2.09,0,0,1-.55.08,8.28,8.28,0,0,0-1.11.18c-.11,0-.23,0-.33,0s-.45,0-.67.06l-.11,0a.17.17,0,0,1-.18,0c-.09-.06-.19,0-.28,0a4.9,4.9,0,0,1-1,.13c-.2,0-.4.06-.59.08a3.59,3.59,0,0,1-.46.05,2.8,2.8,0,0,0-.57.08c-.29.06-.59.09-.89.14s-.66.14-1,.18a9.79,9.79,0,0,1-1.21.17.24.24,0,0,0-.14.05.58.58,0,0,1-.31.11,11.55,11.55,0,0,0-1.2.18,1.61,1.61,0,0,0-.48.12.32.32,0,0,1-.14,0,2.31,2.31,0,0,0-.69.11,4.35,4.35,0,0,1-.52.06H3.07a4.27,4.27,0,0,1-.79.1,3.08,3.08,0,0,1-.8.05.18.18,0,0,0-.1,0,13.07,13.07,0,0,1-.71-1.83.81.81,0,0,1,.31,0,2.23,2.23,0,0,0,.63,0c.21-.06.44,0,.65-.07h.08a2.69,2.69,0,0,0,.57,0,8.29,8.29,0,0,1,.87-.13,5.63,5.63,0,0,1,.81-.11l.57-.12,1.2-.19c.35-.07.7-.17,1.06-.21a.91.91,0,0,0,.4-.06,3.43,3.43,0,0,1,.7-.18.79.79,0,0,1,.29-.08,2.67,2.67,0,0,0,.69-.09c.34-.05.67-.14,1-.2a2.63,2.63,0,0,1,.47-.1,5.47,5.47,0,0,0,.81-.13A3.39,3.39,0,0,1,12.5,17a.67.67,0,0,0,.24,0,.47.47,0,0,1,.43,0,.61.61,0,0,0,.44,0,.3.3,0,0,0,.26-.22.4.4,0,0,0,.24,0,.29.29,0,0,1,.27,0,.16.16,0,0,0,.16,0c.32-.07.65-.1,1-.2a1,1,0,0,0,.2.25.77.77,0,0,0,.65.17,1.32,1.32,0,0,0,.76-.48,3.91,3.91,0,0,0,.72-1.19,2.16,2.16,0,0,0,.09-.2c0,.25.09.48.13.7a3.58,3.58,0,0,0,.24.72,2.25,2.25,0,0,0,.12.21.47.47,0,0,0,.69.17,2.74,2.74,0,0,0,.77-.67,7.29,7.29,0,0,0,1-1.55.15.15,0,0,1,.17-.1,1.3,1.3,0,0,0,.77-.19c0,.05,0,.08,0,.12a2.93,2.93,0,0,0,0,1.85Z"/><path class="cls-14" d="M3.86,24.35c.05-.09.14-.09.22-.11.39-.07.79-.12,1.18-.2s.49-.15.74-.19.62-.05.91-.13.56.05.85,0,.52,0,.79-.05a.52.52,0,0,1,.3.05.39.39,0,0,0,.26,0,1.51,1.51,0,0,1,.52,0c.31,0,.62,0,.93,0,.09,0,.15.05.22.06a2.64,2.64,0,0,0,.4,0c.16,0,.32,0,.48,0a1.1,1.1,0,0,0,.31,0,.62.62,0,0,1,.27,0,1.26,1.26,0,0,0,.64,0,2.28,2.28,0,0,1,.58-.05.11.11,0,0,1,.1.06.14.14,0,0,0,.22.06.33.33,0,0,1,.19,0,.31.31,0,0,0,.32-.05c.05-.05.11,0,.1.07s0,.1.1.09.33-.07.48-.08.42-.08.63-.11a.49.49,0,0,0,.16,0,.31.31,0,0,1,.21-.05,2.85,2.85,0,0,0,.51-.08c0,.09,0,.14.1.15a1.27,1.27,0,0,0,.27,0c.08,0,.12,0,.16.05s0,.11,0,.15S17,24,17,24c-.33.16-.67.3-1,.43l-.56.2a.15.15,0,0,0-.11.14.78.78,0,0,1,0,.14c0,.1,0,.16.14.14l.1,0a.07.07,0,0,1,.07,0s0,0,0,.05-.22.14-.28.26,0,0-.06,0l-.51.15c-.15,0-.28.13-.44.08a.06.06,0,0,0-.06,0c-.15.09-.33.06-.49.14a.25.25,0,0,1-.21,0,.5.5,0,0,0-.36,0l-.25,0a1.37,1.37,0,0,1-.57.05l-.06,0c-.14,0-.28.09-.42,0a.06.06,0,0,0-.07,0c-.13.07-.28,0-.41.1a.17.17,0,0,1-.23,0,.09.09,0,0,0-.1,0,4.92,4.92,0,0,1-.86.09c-.14,0-.29,0-.43,0h0a.19.19,0,0,0-.18,0,1.35,1.35,0,0,1-.49,0,.89.89,0,0,0-.28,0l-.39,0a.65.65,0,0,1-.31,0,.94.94,0,0,0-.4-.07,2.42,2.42,0,0,0-.76,0,.27.27,0,0,1-.09,0,1.11,1.11,0,0,0-.48,0,.16.16,0,0,1-.1,0c-.17-.08-.33,0-.5,0l0,0a12.8,12.8,0,0,1-1.06-.89A8.63,8.63,0,0,1,3.86,24.35Z"/><path class="cls-15" d="M5.72,26l0,0c.17,0,.33-.1.5,0a.16.16,0,0,0,.1,0,1.11,1.11,0,0,1,.48,0,.27.27,0,0,0,.09,0,2.42,2.42,0,0,1,.76,0,.94.94,0,0,1,.4.07.65.65,0,0,0,.31,0l.39,0a.89.89,0,0,1,.28,0,1.35,1.35,0,0,0,.49,0,.19.19,0,0,1,.18,0h0c.14-.05.29,0,.43,0a4.92,4.92,0,0,0,.86-.09.09.09,0,0,1,.1,0,.17.17,0,0,0,.23,0c.13-.06.28,0,.41-.1a.06.06,0,0,1,.07,0c.14.1.28,0,.42,0l.06,0a1.37,1.37,0,0,0,.57-.05l.25,0a.5.5,0,0,1,.36,0,.25.25,0,0,0,.21,0c.16-.08.34-.05.49-.14a.06.06,0,0,1,.06,0c.16.05.29,0,.44-.08l.51-.15s0,0,.06,0,.19-.17.28-.26,0,0,0-.05a.07.07,0,0,0-.07,0l-.1,0c-.1,0-.16,0-.14-.14a.78.78,0,0,0,0-.14.15.15,0,0,1,.11-.14l.56-.2c.35-.13.69-.27,1-.43a.91.91,0,0,0,.42-.11,1.29,1.29,0,0,1,.38-.12,2.64,2.64,0,0,0,.61-.23l.32-.12a.19.19,0,0,1,.15,0h0c.14-.14.34-.06.49-.15a.32.32,0,0,1,.37,0,.14.14,0,0,1-.08.1.88.88,0,0,0-.23.24.69.69,0,0,1-.36.33c-.38.19-.73.42-1.12.58a3.78,3.78,0,0,0-.38.21.25.25,0,0,0,.23-.05s.1-.07.12,0,0,0,.05.05a.57.57,0,0,0,.55.06s.09-.05.12,0,0,.07-.05.1-.22.14-.29.24a1.49,1.49,0,0,1-.49.41s-.1,0-.12.09a1.24,1.24,0,0,1-.3.16l-.56.14s-.09,0-.12,0a1,1,0,0,1-.41.15l-.79.28a4.57,4.57,0,0,0-.7.35l-.06,0c-.32.07-.62.21-.94.29a5.68,5.68,0,0,1-.71.18c-.2,0-.38.14-.59.18l-1.17.28-.84.2-.77.15a.18.18,0,0,0-.14.08c-.35-.11-.69-.25-1-.39a15.38,15.38,0,0,1-2.21-1.23C6.17,26.38,5.94,26.22,5.72,26Z"/><path class="cls-10" d="M13.17,16.94a.47.47,0,0,0-.43,0,.67.67,0,0,1-.24,0,3.39,3.39,0,0,0-.71.11,5.47,5.47,0,0,1-.81.13,2.63,2.63,0,0,0-.47.1c-.34.06-.67.15-1,.2a2.67,2.67,0,0,1-.69.09.79.79,0,0,0-.29.08,3.43,3.43,0,0,0-.7.18.91.91,0,0,1-.4.06c-.36,0-.71.14-1.06.21l-1.2.19-.57.12a5.63,5.63,0,0,0-.81.11,8.29,8.29,0,0,0-.87.13,2.69,2.69,0,0,1-.57,0H2.26c-.21.08-.44,0-.65.07a2.23,2.23,0,0,1-.63,0,.81.81,0,0,0-.31,0A12,12,0,0,1,.22,17a1,1,0,0,1,.42,0h0a2.56,2.56,0,0,1,.73,0c.46,0,.91,0,1.37-.08.12,0,.24,0,.35,0a5.32,5.32,0,0,0,.8-.12s.05,0,.08.07a2.14,2.14,0,0,0,1,.71A2.54,2.54,0,0,0,7.53,17a3.88,3.88,0,0,0,.93-1.13l0,0h0c0,.11,0,.22.06.33a1.14,1.14,0,0,0,.34.66,1,1,0,0,0,1.11.13,1.47,1.47,0,0,0,.62-.54l.13-.17a.73.73,0,0,1,.07.19.84.84,0,0,0,.9.61,1.15,1.15,0,0,0,.56-.2,2.47,2.47,0,0,0,.51-.51l.1-.14A1.1,1.1,0,0,0,13.17,16.94Z"/><path class="cls-16" d="M17.74,25.66c0-.05.08-.06.12-.09a1.49,1.49,0,0,0,.49-.41c.07-.1.21-.14.29-.24s.07-.05.05-.1-.08,0-.12,0a.57.57,0,0,1-.55-.06s0,0-.05-.05-.08-.05-.12,0a.25.25,0,0,1-.23.05,3.78,3.78,0,0,1,.38-.21c.39-.16.74-.39,1.12-.58a.69.69,0,0,0,.36-.33.88.88,0,0,1,.23-.24.14.14,0,0,0,.08-.1.84.84,0,0,0,.54-.24c.05-.05.12,0,.17-.07a3.7,3.7,0,0,0,.68-.36c.13-.1.31-.1.44-.2a4,4,0,0,0,.49-.3s0,0,.05,0a3.87,3.87,0,0,0,.93-.53h0a5.86,5.86,0,0,0,1-.61c.22-.13.4-.34.62-.45a10,10,0,0,0,.93-.62,2.61,2.61,0,0,0,.44-.38c.23-.23.51-.4.76-.61s.29-.3.45-.43a4.25,4.25,0,0,0,.5-.44c.21-.22.47-.39.66-.63a.79.79,0,0,1,.28-.23,10,10,0,0,1-.31,1.34,14.21,14.21,0,0,1-.9,2.38l-.06.1a.2.2,0,0,0-.24.06c-.06.09-.17,0-.25.07a1.69,1.69,0,0,0-.52.26c-.09.08-.23.09-.28.21a.06.06,0,0,1-.06,0,.59.59,0,0,0-.36.11l-.44.29h0a1.26,1.26,0,0,0-.47.17.35.35,0,0,0-.11,0c-.24.2-.56.24-.81.44a1.71,1.71,0,0,1-.53.29l-.1.06a.49.49,0,0,1-.26.15c-.08,0-.12.1-.2.13-.5.25-.93.62-1.46.84-.11.05-.21.13-.32.19a8.62,8.62,0,0,0-.94.52h0c-.43.15-.81.39-1.24.53a5.88,5.88,0,0,1-.71.23C18,25.58,17.87,25.65,17.74,25.66Z"/><path class="cls-3" d="M28.9,16v-.06A.07.07,0,0,1,28.9,16Z"/><path class="cls-13" d="M24.67,18.15a.07.07,0,0,1,0,.05S24.65,18.16,24.67,18.15Z"/><path class="cls-6" d="M4.52,14.91l.53-.1.08,0c.24.06.44-.14.68-.09.07,0,.16,0,.24-.06a.33.33,0,0,1,.29,0,.14.14,0,0,0,.14,0,1.45,1.45,0,0,1,.45-.13l.71-.13,1.11-.24h.1A6.77,6.77,0,0,1,8,15.76a2.82,2.82,0,0,1-1.14,1,1.7,1.7,0,0,1-1.46,0,1.3,1.3,0,0,1-.51-.45A2.59,2.59,0,0,1,4.52,14.91Z"/><path class="cls-10" d="M15.5,16.58c-.31.1-.64.13-1,.2a.16.16,0,0,1-.16,0,.29.29,0,0,0-.27,0,.4.4,0,0,1-.24,0,6.07,6.07,0,0,1,.42-1.22A5.82,5.82,0,0,1,15.21,14a1,1,0,0,1,.28-.25c.12-.06.2,0,.21.11a2.07,2.07,0,0,1,0,.5c-.08.39-.18.77-.24,1.16A2,2,0,0,0,15.5,16.58Z"/><path class="cls-10" d="M19,13.61a1.8,1.8,0,0,0,.55-.19.75.75,0,0,1,.31-.08,1.42,1.42,0,0,0,.37.89,1.06,1.06,0,0,0,.26.2s.06.06,0,.12A6.68,6.68,0,0,1,19.61,16l-.1.1c-.2.2-.3.17-.39-.1a1.83,1.83,0,0,1-.09-.39A10.83,10.83,0,0,1,19,13.61Z"/><path class="cls-6" d="M9.58,15.64a2.86,2.86,0,0,1,.1-.77,3.13,3.13,0,0,1,.5-1.08,1.14,1.14,0,0,1,.29-.29c.33-.19.53,0,.58.31a3.19,3.19,0,0,1-.2,1.47.37.37,0,0,1,0,.11,5,5,0,0,0-.56.11C10,15.57,9.8,15.57,9.58,15.64Z"/><path class="cls-10" d="M13.35,14.29A5,5,0,0,1,12.64,16a1.18,1.18,0,0,1-.38.39c-.25.14-.41.06-.42-.23A4.14,4.14,0,0,1,12,15l.12-.49h.06c.36-.11.74-.13,1.11-.22Z"/><path class="cls-11" d="M22.7,15.68a3.56,3.56,0,0,1,.35-1.46,2.85,2.85,0,0,1,.35-.55,1,1,0,0,1,.28-.21.31.31,0,0,1,.46.21,1.58,1.58,0,0,1,0,.81c-.07,0-.12.07-.18.1-.26.14-.37.44-.64.57a1.9,1.9,0,0,0-.44.41A.3.3,0,0,1,22.7,15.68Z"/><path class="cls-10" d="M16.65,14.55a.2.2,0,0,0,.15-.05.17.17,0,0,1,.18,0,.17.17,0,0,0,.14,0c.15-.09.28-.21.48-.16s.13-.07.21-.06a3.4,3.4,0,0,1-.71,1.68,1.89,1.89,0,0,1-.2.2c-.11.08-.23.17-.37.1s-.12-.21-.12-.33A5.31,5.31,0,0,1,16.65,14.55Z"/><path class="cls-6" d="M13.35,14.29h-.09c-.37.09-.75.11-1.11.22h-.06c.1-.42.22-.84.36-1.25a2.11,2.11,0,0,0,.53-.15,1.48,1.48,0,0,0,.41-.12s.12,0,.18,0a.3.3,0,0,0-.05.21A3.86,3.86,0,0,1,13.35,14.29Z"/><path class="cls-12" d="M22.7,15.68a.3.3,0,0,0,.2-.12,1.9,1.9,0,0,1,.44-.41c.27-.13.38-.43.64-.57.06,0,.11-.09.18-.1a3.49,3.49,0,0,1-.61,1.64.73.73,0,0,1-.2.19.35.35,0,0,1-.54-.14A1.35,1.35,0,0,1,22.7,15.68Z"/><path class="cls-10" d="M9.58,15.64c.22-.07.44-.07.66-.14a5,5,0,0,1,.56-.11,2.27,2.27,0,0,1-.42.78.8.8,0,0,1-.17.15.35.35,0,0,1-.52-.14A1,1,0,0,1,9.58,15.64Z"/><path class="cls-10" d="M20.46,13.17a1,1,0,0,1,.09-.46c0-.08.09-.17.2-.16s.15.12.16.22a2.34,2.34,0,0,1-.09.79c0,.1-.05.2-.08.3s0,.05,0,.06,0,0-.06-.05A1.25,1.25,0,0,1,20.46,13.17Z"/></g></g></svg>