<?xml version="1.0" encoding="UTF-8" standalone="no"?><svg xmlns="http://www.w3.org/2000/svg" viewBox="0 0 30.19 30.06"><defs><style>.cls-1{fill:#733edb;}.cls-2{fill:#fdfdfd;}</style></defs><g id="Layer_2" data-name="Layer 2"><g id="Layer_1-2" data-name="Layer 1"><path class="cls-1" d="M.14,15.09c.59-5-2.47-14.46,5-15C34.61.41,29.76-4.36,30.06,25.07a5,5,0,0,1-5,5H5.1C-2.34,29.5.74,20.08.14,15.09Zm19.33-.38c4.73-2.35,2.2-8.64-2.74-8.09-1.16.23-8.77-.56-8.48.44q0,8.31,0,16.61c0,.34.08.44.42.43h7.9C22.68,24.64,25.55,16.8,19.47,14.71Z"/><path class="cls-2" d="M19.47,14.71c6.08,2.09,3.21,9.93-2.9,9.38-1.18-.24-8.51.55-8.32-.42q0-8.3,0-16.61c-.32-1,7.35-.2,8.48-.44C21.67,6.07,24.21,12.36,19.47,14.71ZM14.4,21.57c1.49-.11,3.26.4,4.48-.72,1.56-1.52.7-4.84-1.9-4.69-1,.19-5.6-.45-5.65.33C11.73,21.72,9.79,21.73,14.4,21.57ZM14.27,9.13c-4.42-.17-2.55,0-2.94,4.45-.15.76,4.84.24,5.63.29a2.26,2.26,0,0,0,1.9-2.51C19,8.78,15.94,9.12,14.27,9.13Z"/><path class="cls-1" d="M14.4,21.57c-4.61.15-2.68.17-3.07-5.08.07-.79,4.68-.13,5.65-.33,2.6-.15,3.47,3.17,1.9,4.69C17.66,22,15.89,21.46,14.4,21.57Z"/><path class="cls-1" d="M14.27,9.13c1.67,0,4.76-.35,4.59,2.23A2.26,2.26,0,0,1,17,13.87c-.79,0-5.79.47-5.63-.29C11.72,9.11,9.85,9,14.27,9.13Z"/></g></g></svg>