<?xml version="1.0" encoding="UTF-8" standalone="no"?><svg xmlns="http://www.w3.org/2000/svg" viewBox="0 0 32.29 29"><defs><style>.cls-1{fill:#6ccdc4;}.cls-2{fill:#fdd406;}.cls-3{fill:#b12206;}.cls-4{fill:#f87e06;}.cls-5{fill:#6cb5ac;}.cls-6{fill:#dd6606;}.cls-7{fill:#8e2006;}.cls-8{fill:#761306;}.cls-9{fill:#428d8d;}.cls-10{fill:#424c4c;}.cls-11{fill:#fe9606;}.cls-12{fill:#bf4b06;}.cls-13{fill:#b34006;}.cls-14{fill:#430808;}.cls-15{fill:#6a1006;}</style></defs><g id="Layer_2" data-name="Layer 2"><g id="Layer_1-2" data-name="Layer 1"><path class="cls-1" d="M4.54,19.31.19,16.23s-.1-.16-.19,0v-.13a5.09,5.09,0,0,0,1-.37c1.54-.63,3.08-1.26,4.63-1.87.72-.29,1.42-.62,2.16-.87a7.25,7.25,0,0,1-.54,2.87,7.37,7.37,0,0,1-1.65,2.63A2.91,2.91,0,0,1,4.54,19.31Z"/><path class="cls-2" d="M13.89,29c.14-.07,0-.13,0-.18-.39-.94-.79-1.87-1.19-2.8a.52.52,0,0,1,0-.18,3.71,3.71,0,0,1,2.52-.21,9.2,9.2,0,0,1,1.54.58.66.66,0,0,1,.33.4,1.25,1.25,0,0,0,.31.55,7.49,7.49,0,0,1-3.14,1.72c-.08,0-.14.05,0,.12Z"/><path class="cls-3" d="M22.49.43a5.71,5.71,0,0,1,1.43,1.91,57.2,57.2,0,0,1,3.28,8.37c1,3,2,6,3.25,8.93.6,1.41,1.12,2.85,1.75,4.24,0,.08.14.19.06.26s-.19,0-.27-.09a14,14,0,0,1-1.7-1.47,21.07,21.07,0,0,0-2.59-2.22,1.64,1.64,0,0,0,0-.54,21.09,21.09,0,0,0-.6-2.06c-.92-3-1.64-6.09-2.36-9.17-.43-1.81-.87-3.63-1.45-5.4a1.4,1.4,0,0,0-.41-.83,5.51,5.51,0,0,0-.47-.86A.43.43,0,0,0,22,1.28l-.07-.07C21.79.78,22,.53,22.49.43Z"/><path class="cls-4" d="M25.24,19.9a5.4,5.4,0,0,0-2.31,1.38A15,15,0,0,0,21.24,23c-.1,0-.12-.1-.1-.19.11-.51.1-1,.2-1.53a20.5,20.5,0,0,0,.3-5.13c-.09-1.31-.15-2.63-.26-3.94s-.15-2.56-.19-3.85,0-2.36.06-3.54a.31.31,0,0,1,.06-.21c.1.12.06.27.06.4a25.44,25.44,0,0,0,.19,3.38,12.56,12.56,0,0,0,.71,3.07c.09.23.19.55.47.52s.29-.36.35-.58a10.56,10.56,0,0,0,.18-1.86,19.29,19.29,0,0,0-.07-2.74,20.37,20.37,0,0,0-.29-2.58c-.09-.44-.17-.88-.26-1.33.15.05.15.19.18.31.1.43.18.87.28,1.3.24,1.14.41,2.3.55,3.46.1.82.2,1.65.27,2.48.1,1,.25,2,.36,3.07.12,1.19.26,2.38.49,3.56C25,18,25.13,18.94,25.24,19.9Z"/><path class="cls-5" d="M4.54,19.31a2.91,2.91,0,0,0,1.07-.86,7.37,7.37,0,0,0,1.65-2.63A7.25,7.25,0,0,0,7.8,13a6.32,6.32,0,0,1,1.46-.57l.12.14a4.31,4.31,0,0,0,1.28,1l.06,0a.62.62,0,0,0,.51.42.34.34,0,0,1,.18.15.22.22,0,0,0,.24.18l.08.08c0,.15.19.22.2.41a8.32,8.32,0,0,0,.32,1.78v.14h0c-.09,0-.12.06-.13.13h0l-.07.07h0A.15.15,0,0,0,12,17h0l-.07.07h0c-.08,0-.12.05-.13.13h0a1.16,1.16,0,0,0-.4.45s0,0,0,0a.16.16,0,0,0-.07.15h0c-.12.05-.2.12-.19.26v0l.18-.12c.19,0,.2.07.08.2-.48.56-1,1.11-1.48,1.63a4.84,4.84,0,0,0-.76.87l-.67-.08a.31.31,0,0,1,.15-.2c.64-.4,1.17-.93,1.78-1.38a.51.51,0,0,0,.28-.36l.17-.18c.12,0,.15-.08.15-.18s-.05-.07-.07,0h0l-.07.07h0a.41.41,0,0,0-.32.32h0l-.1.07A15.06,15.06,0,0,1,8.3,20.31a.78.78,0,0,0-.33.07l-1.2.51C6,20.41,5.27,19.85,4.54,19.31Z"/><path class="cls-6" d="M21.31,4.58a.31.31,0,0,0-.06.21c-.07,1.18-.1,2.36-.06,3.54s.09,2.57.19,3.85.17,2.63.26,3.94a20.5,20.5,0,0,1-.3,5.13c-.1.5-.09,1-.2,1.53,0,.09,0,.17.1.19a9.94,9.94,0,0,1-1,1.23c-.15.2-.34.37-.51.56a1,1,0,0,0-1-.76,23.9,23.9,0,0,1-3,.19,7,7,0,0,0-3.45.76L12,24.5a1.23,1.23,0,0,0,.23-.09,5.4,5.4,0,0,1,1.43-.59c1-.3,1.93-.54,2.88-.88a4.79,4.79,0,0,0,2.74-2.3A9.56,9.56,0,0,0,20.2,18a28.27,28.27,0,0,0,.47-4.2c0-.76.08-1.53.1-2.29,0-1.05.1-2.09.1-3.13A8.9,8.9,0,0,1,21,7.1,15.29,15.29,0,0,0,21.11,5V4.65a.21.21,0,0,0,.05-.2l0-.2a1.93,1.93,0,0,0,0-.24h.1l.07.07Z"/><path class="cls-7" d="M21.16,4a1.93,1.93,0,0,1,0,.24c-.17,0-.18.18-.21.31-.18.79-.26,1.58-.37,2.38-.22,1.69-.47,3.38-.75,5.06a25.94,25.94,0,0,1-1.51,5.8,8.57,8.57,0,0,1-3,3.95,25.08,25.08,0,0,1-2.66,1.53,2,2,0,0,0-.81.59l-.51-.94c.08-.28.32-.41.53-.56A14.87,14.87,0,0,0,14.66,20a13.81,13.81,0,0,0,2.08-3,39.38,39.38,0,0,0,3-8.76c.41-1.66.79-3.33,1.17-5a11.74,11.74,0,0,0,.38-1.66A3,3,0,0,1,21.69.47.45.45,0,0,1,22.08.2a.86.86,0,0,1,.41.24c-.51.09-.7.34-.61.77-.09.07-.24.1-.14.27v.11a.62.62,0,0,0-.18.39.15.15,0,0,0-.11.2,2.63,2.63,0,0,0-.09.55c-.1,0-.13.11-.06.2v.12a.54.54,0,0,0-.11.58l0,.19C21,3.88,21,3.94,21.16,4Z"/><path class="cls-8" d="M22.08.2a.45.45,0,0,0-.39.27,3,3,0,0,0-.42,1.13,11.74,11.74,0,0,1-.38,1.66c-.38,1.67-.76,3.34-1.17,5a39.38,39.38,0,0,1-3,8.76,13.81,13.81,0,0,1-2.08,3,14.87,14.87,0,0,1-2.85,2.34c-.21.15-.45.28-.53.56a6,6,0,0,1-.56-.91s.09,0,.12,0c.66-.54,1.33-1.07,2-1.64a16.59,16.59,0,0,0,3.35-4.45,29.59,29.59,0,0,0,1.58-3.49c1-2.52,1.74-5.12,2.51-7.71A25.18,25.18,0,0,1,21.75.07s0,0,0,0S22,0,22.08.2Z"/><path class="cls-9" d="M16.68,6.1,16.77,6l.05-.06c.39-.56.8-1.11,1.17-1.68.68-1,1.31-2.13,2-3.18a2.33,2.33,0,0,1,1.19-1c.28,0,0,.17.06.25l-.06.12a3.31,3.31,0,0,0-.62,1C20,2.58,19.45,3.79,18.94,5c-.79,1.88-1.61,3.75-2.54,5.58a.12.12,0,0,0-.08.16l-.11.22a.12.12,0,0,0-.08.16l0,.1a.33.33,0,0,0-.18.32l0,0-.16,0a.59.59,0,0,1,.12-.38l.81-1.66a10.81,10.81,0,0,0,.67-1.42c.66-1.43,1.31-2.86,1.92-4.3a17.69,17.69,0,0,1,1-2.21c.2-.35.36-.72.55-1.09a.22.22,0,0,0-.27.1,3.11,3.11,0,0,0-.72,1.07c-.67,1.45-1.17,3-1.8,4.43-.34.78-.66,1.57-1,2.34-.14,0-.2.2-.35.19a1.54,1.54,0,0,0-.9.34c-.66.41-1.29.86-2,1.23a7.55,7.55,0,0,1-2.84,1c-.25,0-.53.14-.74-.11a2.61,2.61,0,0,1,.51-.59c.12.22.32.16.5.14a2.64,2.64,0,0,0,.4-.12,3.72,3.72,0,0,0,1.45-.78c.06-.05.14-.11.09-.21a.21.21,0,0,0-.22-.11,6.58,6.58,0,0,1-1.09,0,1,1,0,0,1,.38-.28,3.43,3.43,0,0,0,2.57-.93,10.85,10.85,0,0,0,1.52-1.51.79.79,0,0,0,.26-.49l.05-.07Z"/><path class="cls-6" d="M25.24,19.9c-.11-1-.28-1.91-.46-2.86-.23-1.18-.37-2.37-.49-3.56-.11-1-.26-2.05-.36-3.07-.07-.83-.17-1.66-.27-2.48-.14-1.16-.31-2.32-.55-3.46-.1-.43-.18-.87-.28-1.3,0-.12,0-.26-.18-.31V2.68c0-.12,0-.27-.18-.32l0-.13c.23,0,.17.29.35.32l.07.25a.13.13,0,0,0,.12.13v.19l0,.13v.13a.77.77,0,0,0,0,.15,13.07,13.07,0,0,1,.6,2.39c.21,1.23.47,2.45.69,3.69s.48,2.75.77,4.12.62,2.78,1,4.16a11,11,0,0,1,.38,2A3.87,3.87,0,0,0,25.24,19.9Z"/><path class="cls-10" d="M10.2,11.17c.21.25.49.14.74.11a7.55,7.55,0,0,0,2.84-1c.67-.37,1.3-.82,2-1.23a1.54,1.54,0,0,1,.9-.34c.15,0,.21-.17.35-.19a7.17,7.17,0,0,0-.45,1A10.72,10.72,0,0,0,16,10.59a2.58,2.58,0,0,1-.47.78,3.71,3.71,0,0,0-1.36.19c-.61.18-1.22.36-1.83.48s-1.15.15-1.72.21c-.09,0-.18,0-.22.1s0,.16.11.21a8.25,8.25,0,0,1,1,1.22,6.13,6.13,0,0,1,.57.69c-.12,0-.19-.13-.32-.1l-.08-.08a.23.23,0,0,0-.24-.18.34.34,0,0,0-.18-.15,1,1,0,0,0-.51-.42l-.06,0c0-.15-.15-.22-.26-.31a4,4,0,0,1-1-1.09A5.76,5.76,0,0,1,10.2,11.17Z"/><path class="cls-11" d="M17.37,27.16a1.25,1.25,0,0,1-.31-.55.66.66,0,0,0-.33-.4,9.2,9.2,0,0,0-1.54-.58,3.71,3.71,0,0,0-2.52.21l-.31-.7a1.29,1.29,0,0,0,.21-.05A5.12,5.12,0,0,1,15,24.63a15.07,15.07,0,0,1,2.51.28c.25.05.55,0,.72.27a3.58,3.58,0,0,1,.42.77,5.55,5.55,0,0,1-1.08,1A1.12,1.12,0,0,1,17.37,27.16Z"/><path class="cls-12" d="M26.51,19.87a11,11,0,0,0-.38-2c-.34-1.38-.67-2.77-1-4.16S24.64,11,24.4,9.61s-.48-2.46-.69-3.69a13.07,13.07,0,0,0-.6-2.39.77.77,0,0,1,0-.15,1.21,1.21,0,0,1,.36.78c.34,1.54.77,3.06,1.08,4.61.14.69.31,1.37.46,2.06.34,1.59.7,3.17,1.12,4.74.26,1,.54,2,.85,3a6.43,6.43,0,0,1,.31,1.57Z"/><path class="cls-4" d="M18.65,26a3.58,3.58,0,0,0-.42-.77c-.17-.26-.47-.22-.72-.27A15.07,15.07,0,0,0,15,24.63a5.12,5.12,0,0,0-2.43.46,1.29,1.29,0,0,1-.21.05.25.25,0,0,1-.09-.19,7,7,0,0,1,3.45-.76,23.9,23.9,0,0,0,3-.19,1,1,0,0,1,1,.76A11.14,11.14,0,0,1,18.65,26Z"/><path class="cls-13" d="M27.27,20.12A6.43,6.43,0,0,0,27,18.55c-.31-1-.59-2-.85-3-.42-1.57-.78-3.15-1.12-4.74-.15-.69-.32-1.37-.46-2.06-.31-1.55-.74-3.07-1.08-4.61a1.21,1.21,0,0,0-.36-.78V3.25c.08-.08,0-.11,0-.13V2.93a.15.15,0,0,0-.12-.13l-.07-.25V2.36a1.4,1.4,0,0,1,.41.83c.58,1.77,1,3.59,1.45,5.4.72,3.08,1.44,6.15,2.36,9.17a21.09,21.09,0,0,1,.6,2.06,1.64,1.64,0,0,1,0,.54A1.82,1.82,0,0,1,27.27,20.12Z"/><path class="cls-10" d="M16.57,6.25a.79.79,0,0,1-.26.49,10.85,10.85,0,0,1-1.52,1.51,3.43,3.43,0,0,1-2.57.93,3.22,3.22,0,0,1,1-.47A5.36,5.36,0,0,0,15.82,7,6.25,6.25,0,0,1,16.57,6.25Z"/><path class="cls-1" d="M10.79,10.51a4.27,4.27,0,0,1,1-1c.14.13.33,0,.48.11s.22.07.25.18-.09.22-.18.27A2.06,2.06,0,0,1,10.79,10.51Z"/><path class="cls-5" d="M10.79,10.51a2.06,2.06,0,0,0,1.55-.43c.09-.05.22-.13.18-.27s-.15-.13-.25-.18-.34,0-.48-.11l.05-.06a6.58,6.58,0,0,0,1.09,0,.21.21,0,0,1,.22.11c0,.1,0,.16-.09.21a3.72,3.72,0,0,1-1.45.78,2.64,2.64,0,0,1-.4.12c-.18,0-.38.08-.5-.14Z"/><path class="cls-9" d="M9.44,12.12a4,4,0,0,0,1,1.09c.11.09.23.16.26.31a4.31,4.31,0,0,1-1.28-1l-.12-.14C9.32,12.3,9.32,12.17,9.44,12.12Z"/><path class="cls-10" d="M21.24.33c0-.08.22-.23-.06-.25a.73.73,0,0,1,.56,0s0,0,0,0C21.54.07,21.44.29,21.24.33Z"/><path class="cls-10" d="M16.82,5.93,16.77,6Z"/><path class="cls-10" d="M16.68,6.1l-.06.08Z"/><path class="cls-14" d="M16.21,11l.11-.22a.12.12,0,0,0,.08-.16c.93-1.83,1.75-3.7,2.54-5.58.51-1.22,1-2.43,1.62-3.61a3.31,3.31,0,0,1,.62-.95c.19.07.08.21,0,.29a21.55,21.55,0,0,0-.77,2.17c-.77,2.17-1.52,4.34-2.38,6.48a37.6,37.6,0,0,1-3.82,7.47,16.56,16.56,0,0,1-3.62,3.85,1.34,1.34,0,0,0-.54.61,2.4,2.4,0,0,1-.46-.44,2.68,2.68,0,0,1,.4-.49A29.57,29.57,0,0,0,12.8,17a46.9,46.9,0,0,0,2.66-4.41,2.37,2.37,0,0,0,.43-.94l0,0a.31.31,0,0,0,.18-.32l0-.1A.12.12,0,0,0,16.21,11Z"/><path class="cls-15" d="M10.09,21.32a1.34,1.34,0,0,1,.54-.61,16.56,16.56,0,0,0,3.62-3.85,37.6,37.6,0,0,0,3.82-7.47c.86-2.14,1.61-4.31,2.38-6.48A21.55,21.55,0,0,1,21.22.74c0-.08.15-.22,0-.29l.06-.12c.2,0,.3-.26.51-.26a25.18,25.18,0,0,0-1.5,4.62c-.77,2.59-1.53,5.19-2.51,7.71a29.59,29.59,0,0,1-1.58,3.49,16.59,16.59,0,0,1-3.35,4.45c-.64.57-1.31,1.1-2,1.64,0,0-.08,0-.12,0Z"/><path class="cls-13" d="M11.79,23.87a2,2,0,0,1,.81-.59,25.08,25.08,0,0,0,2.66-1.53,8.57,8.57,0,0,0,3-3.95A25.94,25.94,0,0,0,19.82,12c.28-1.68.53-3.37.75-5.06.11-.8.19-1.59.37-2.38,0-.13,0-.28.21-.31,0,.07,0,.13,0,.2s-.13.11-.05.2V5a.16.16,0,0,0-.11.17c-.07.66-.13,1.32-.2,2s-.09,1.32-.14,2c-.07,1-.21,2-.29,3-.11,1.23-.26,2.45-.46,3.66a13.15,13.15,0,0,1-1.32,4.18,6.19,6.19,0,0,1-3.06,2.72c-1,.43-1.95.8-2.93,1.21a1.43,1.43,0,0,0-.62.47A1.06,1.06,0,0,1,11.79,23.87Z"/><path class="cls-12" d="M12,24.32a1.43,1.43,0,0,1,.62-.47c1-.41,2-.78,2.93-1.21a6.19,6.19,0,0,0,3.06-2.72,13.15,13.15,0,0,0,1.32-4.18c.2-1.21.35-2.43.46-3.66.08-1,.22-2,.29-3,.05-.66.08-1.32.14-2s.13-1.32.2-2A.16.16,0,0,1,21.11,5,15.29,15.29,0,0,1,21,7.1a8.9,8.9,0,0,0-.09,1.26c0,1-.08,2.08-.1,3.13,0,.76-.07,1.53-.1,2.29A28.27,28.27,0,0,1,20.2,18a9.56,9.56,0,0,1-.88,2.66,4.79,4.79,0,0,1-2.74,2.3c-.95.34-1.92.58-2.88.88a5.4,5.4,0,0,0-1.43.59,1.23,1.23,0,0,1-.23.09C12,24.46,12,24.38,12,24.32Z"/><path class="cls-9" d="M9.12,20.67a4.84,4.84,0,0,1,.76-.87c.52-.52,1-1.07,1.48-1.63.12-.13.11-.2-.08-.2v-.14h0a.21.21,0,0,0,.07-.15s0,0,0,0c.24,0,.33-.24.4-.45h0a.13.13,0,0,0,.13-.13h0L12,17h0l.07-.13h0l.07-.07h0a.13.13,0,0,0,.13-.13h0l.07-.13h0l.07-.07h0a.18.18,0,0,0,.13-.2h0c.15,0,.19-.13.2-.26h0c.11,0,.13-.1.13-.19h0c.1,0,.13-.1.13-.19h0c.19-.08.24-.27.32-.43l1.53-2.41c.22.16.24-.06.29-.17a3,3,0,0,1,.52-.8.66.66,0,0,1-.12.38c-.6,1.07-1.23,2.12-1.89,3.14a27.69,27.69,0,0,1-3.94,4.89,1.16,1.16,0,0,0-.32.46Z"/><path class="cls-10" d="M9.33,20.74a1.16,1.16,0,0,1,.32-.46,27.69,27.69,0,0,0,3.94-4.89c.66-1,1.29-2.07,1.89-3.14a.66.66,0,0,0,.12-.38l.13-.24.16,0a2.37,2.37,0,0,1-.43.94A46.9,46.9,0,0,1,12.8,17,29.57,29.57,0,0,1,10,20.39a2.68,2.68,0,0,0-.4.49Z"/><path class="cls-9" d="M10.66,18.65a.51.51,0,0,1-.28.36c-.61.45-1.14,1-1.78,1.38a.31.31,0,0,0-.15.2,3.63,3.63,0,0,0-.78.17c.17-.22.49-.21.63-.45a15.06,15.06,0,0,0,2.13-1.58l.1-.07h.13Z"/><path class="cls-1" d="M8.3,20.31c-.14.24-.46.23-.63.45a2.23,2.23,0,0,1-.58.28c-.16.08-.24-.05-.32-.15L8,20.38A.78.78,0,0,1,8.3,20.31Z"/><path class="cls-12" d="M22.84,2.36v.19c-.18,0-.12-.34-.35-.32h0A.55.55,0,0,0,22.4,2c-.12-.43-.23-.49-.66-.38V1.48a.45.45,0,0,0,.21-.2.43.43,0,0,1,.42.22A5.51,5.51,0,0,1,22.84,2.36Z"/><path class="cls-13" d="M22,1.28a.45.45,0,0,1-.21.2c-.1-.17.05-.2.14-.27Z"/><path class="cls-11" d="M22.64,2.68v.18c.09.45.17.89.26,1.33a20.37,20.37,0,0,1,.29,2.58,19.29,19.29,0,0,1,.07,2.74,10.56,10.56,0,0,1-.18,1.86c-.06.22-.08.56-.35.58s-.38-.29-.47-.52a12.56,12.56,0,0,1-.71-3.07A25.44,25.44,0,0,1,21.37,5c0-.13,0-.28-.06-.4s0-.33,0-.5.12-.15.05-.26-.07-.31.13-.38c.09.12,0,.26.06.4a11.74,11.74,0,0,0,.12,2.51A5.62,5.62,0,0,0,22.14,8c.06.1.11.22.25.21s.17-.11.21-.21a2.51,2.51,0,0,0,.22-1.11,12.82,12.82,0,0,0-.47-4.44.78.78,0,0,1,0-.22l.14,0h0l0,.13C22.49,2.48,22.48,2.63,22.64,2.68Z"/><path class="cls-9" d="M11.73,14.37c.13,0,.2.12.32.1l.2.19c.2.18.35.42.64.5l.11.08c.09.16,0,.3-.06.44h0a.23.23,0,0,0-.13.19h0a.26.26,0,0,0-.13.19h0a.41.41,0,0,0-.2.26h0a.28.28,0,0,0-.13.2h0l-.07.07h-.05a8.32,8.32,0,0,1-.32-1.78C11.92,14.59,11.77,14.52,11.73,14.37Z"/><path class="cls-9" d="M10.72,13.54a1,1,0,0,1,.51.42A.62.62,0,0,1,10.72,13.54Z"/><path class="cls-10" d="M11.8,17.2c-.07.21-.16.4-.4.45A1.16,1.16,0,0,1,11.8,17.2Z"/><path class="cls-10" d="M10.66,18.65h-.13a.41.41,0,0,1,.32-.32l0,.13Z"/><path class="cls-10" d="M11.29,17.83V18l-.18.12h0C11.09,18,11.17,17.88,11.29,17.83Z"/><path class="cls-9" d="M11.41,14.11a.23.23,0,0,1,.24.18A.22.22,0,0,1,11.41,14.11Z"/><path class="cls-9" d="M10.83,18.47l0-.13h0l.07-.07H11C11,18.39,11,18.46,10.83,18.47Z"/><path class="cls-10" d="M11.92,17.07a.13.13,0,0,1-.13.13C11.8,17.12,11.84,17.07,11.92,17.07Z"/><path class="cls-10" d="M12.24,16.69a.13.13,0,0,1-.13.13C12.12,16.75,12.15,16.69,12.24,16.69Z"/><path class="cls-10" d="M12.25,16.56h.06l-.07.13Z"/><path class="cls-10" d="M12.05,16.88,12,17A.15.15,0,0,1,12.05,16.88Z"/><path class="cls-10" d="M11.36,17.69a.21.21,0,0,1-.07.15A.16.16,0,0,1,11.36,17.69Z"/><path class="cls-10" d="M12.12,16.82l-.07.07Z"/><path class="cls-10" d="M12,17l-.07.07Z"/><path class="cls-10" d="M11.1,18.09v0Z"/><path class="cls-10" d="M10.91,18.28l-.07.07Z"/><path class="cls-10" d="M10.53,18.66l-.1.07Z"/><path class="cls-10" d="M11,18.29h-.07C10.93,18.22,11,18.24,11,18.29Z"/><path class="cls-4" d="M21.38,3.82c.07.11.08.2-.05.26L21.26,4V3.82Z"/><path class="cls-13" d="M21.27,3.82V4h-.1c-.14-.07-.12-.13,0-.19Z"/><path class="cls-12" d="M21.12,4.65c-.08-.09-.06-.16.05-.2A.21.21,0,0,1,21.12,4.65Z"/><path class="cls-6" d="M21.27,3.82h-.1l0-.19a.9.9,0,0,0,.11-.58V2.93a.17.17,0,0,0,.06-.2,2.63,2.63,0,0,1,.09-.55c.1,0,.12-.11.11-.2a.62.62,0,0,1,.18-.39c.43-.11.54-.05.66.38h-.07c-.16-.13-.31-.44-.52-.13a1.55,1.55,0,0,0-.29,1.22v.37c-.2.07-.11.25-.13.38Z"/><path class="cls-13" d="M21.3,3.05a.9.9,0,0,1-.11.58A.54.54,0,0,1,21.3,3.05Z"/><path class="cls-13" d="M21.56,2c0,.09,0,.17-.11.2A.15.15,0,0,1,21.56,2Z"/><path class="cls-13" d="M21.36,2.73a.17.17,0,0,1-.06.2C21.23,2.84,21.26,2.77,21.36,2.73Z"/><path class="cls-1" d="M16.54,9.53a7.17,7.17,0,0,1,.45-1c.38-.77.7-1.56,1-2.34.63-1.47,1.13-3,1.8-4.43A3.11,3.11,0,0,1,20.55.67a.22.22,0,0,1,.27-.1c-.19.37-.35.74-.55,1.09a17.69,17.69,0,0,0-1,2.21c-.61,1.44-1.26,2.87-1.92,4.3a10.81,10.81,0,0,1-.67,1.42Z"/><path class="cls-5" d="M16.54,9.53l.12.06-.81,1.66a.59.59,0,0,0-.12.38l-.13.24a3,3,0,0,0-.52.8c-.05.11-.07.33-.29.17a11.76,11.76,0,0,0,.72-1.47,2.58,2.58,0,0,0,.47-.78A10.72,10.72,0,0,1,16.54,9.53Z"/><path class="cls-10" d="M16.09,11.23a.31.31,0,0,1-.18.32A.33.33,0,0,1,16.09,11.23Z"/><path class="cls-10" d="M16.4,10.59a.12.12,0,0,1-.08.16A.12.12,0,0,1,16.4,10.59Z"/><path class="cls-10" d="M16.21,11a.12.12,0,0,1-.08.16A.12.12,0,0,1,16.21,11Z"/><path class="cls-4" d="M22.64,2.68c-.16-.05-.15-.2-.18-.32C22.61,2.41,22.61,2.56,22.64,2.68Z"/><path class="cls-12" d="M22.9,2.8a.15.15,0,0,1,.12.13A.13.13,0,0,1,22.9,2.8Z"/><path class="cls-12" d="M23,3.12c.07,0,.13,0,0,.13Z"/><path class="cls-14" d="M15.51,11.37a11.76,11.76,0,0,1-.72,1.47l-1.53,2.41H13l-.11-.08c-.15-.25-.31-.49-.64-.5l-.2-.19a6.13,6.13,0,0,0-.57-.69,8.25,8.25,0,0,0-1-1.22c-.06-.05-.15-.11-.11-.21s.13-.09.22-.1c.57-.06,1.15-.1,1.72-.21s1.22-.3,1.83-.48A3.71,3.71,0,0,1,15.51,11.37Z"/><path class="cls-10" d="M13,15.24h.26c-.08.16-.13.35-.32.43C13,15.54,13.09,15.4,13,15.24Z"/><path class="cls-10" d="M12.49,16.32a.41.41,0,0,1,.2-.26C12.68,16.19,12.64,16.29,12.49,16.32Z"/><path class="cls-10" d="M12.37,16.51a.28.28,0,0,1,.13-.2A.18.18,0,0,1,12.37,16.51Z"/><path class="cls-10" d="M12.68,16.06a.26.26,0,0,1,.13-.19C12.81,16,12.79,16,12.68,16.06Z"/><path class="cls-10" d="M12.81,15.87a.23.23,0,0,1,.13-.19C12.94,15.77,12.91,15.85,12.81,15.87Z"/><path class="cls-10" d="M12.3,16.57l.07-.07Z"/><path class="cls-4" d="M22.33,2h.07a.55.55,0,0,1,.06.26l-.14,0h0Z"/><path class="cls-2" d="M21.51,3.44c0-.12,0-.24,0-.37.19-.16.13-.4.19-.6.15-.49.2-.53.61-.29h0a.78.78,0,0,0,0,.22,12.82,12.82,0,0,1,.47,4.44A2.51,2.51,0,0,1,22.6,8c0,.1-.09.21-.21.21s-.19-.11-.25-.21a5.62,5.62,0,0,1-.45-1.6,11.74,11.74,0,0,1-.12-2.51C21.56,3.7,21.6,3.56,21.51,3.44Z"/><path class="cls-10" d="M12.25,14.66c.33,0,.49.25.64.5C12.6,15.08,12.45,14.84,12.25,14.66Z"/><path class="cls-11" d="M22.32,2.18c-.41-.24-.46-.2-.61.29-.06.2,0,.44-.19.6a1.55,1.55,0,0,1,.29-1.22c.21-.31.36,0,.52.13Z"/></g></g></svg>