<?xml version="1.0" encoding="UTF-8" standalone="no"?><svg xmlns="http://www.w3.org/2000/svg" viewBox="0 0 30.68 29"><defs><style>.cls-1{fill:#fdfdfd;}.cls-2{fill:#f67806;}.cls-3{fill:#2e2e2e;}.cls-4{fill:#f05a08;}.cls-5{fill:#ee5008;}.cls-6{fill:#f68108;}.cls-7{fill:#ea4a0d;}.cls-8{fill:#f57106;}.cls-9{fill:#f36105;}.cls-10{fill:#f36908;}.cls-11{fill:#2f2f2f;}.cls-12{fill:#ed4808;}.cls-13{fill:#363636;}</style></defs><g id="Layer_2" data-name="Layer 2"><g id="Layer_1-2" data-name="Layer 1"><path class="cls-1" d="M30.68.1c-.07,0-.1,0-.1-.1S30.69,0,30.68.1Z"/><path class="cls-2" d="M9,4.89l.2-.06.08.06h.09a11,11,0,0,1,.07,2.5c0,.41-.23.6-.62.69-.2.05-.48,0-.55.32l-2.62.95c-.09,0-.09-.12-.11-.22a10,10,0,0,1,0-1.34.45.45,0,0,0-.23-.46c-.17-.06-.25.14-.36.23s-.29.32-.46.45-.16.37-.42.21A11.55,11.55,0,0,1,7.34,5.65,5.12,5.12,0,0,1,8.89,5Z"/><path class="cls-3" d="M8.72,18.55c0,.41,0,.82,0,1.23s-.2.36-.43.33-.56.18-.55-.3c0-1.68,0-3.35,0-5,0-.32.3-.48.76-.29a.7.7,0,0,0,.62-.06,1.64,1.64,0,0,1,2,.58,3,3,0,0,1,0,3,1.69,1.69,0,0,1-2.06.64C9,18.64,8.9,18.51,8.72,18.55Zm.49-3.32-.1.08A2,2,0,0,0,8.75,17a.91.91,0,0,0,1.43.75.28.28,0,0,0,.25-.07A1.88,1.88,0,0,0,9.93,15c-.29-.1-.56-.14-.72.21Z"/><path class="cls-3" d="M3.31,18.26A1.56,1.56,0,0,1,3,17.19c0-.84,0-1.68,0-2.52a.26.26,0,0,0,.25-.25h.46a.17.17,0,0,0,.19.15,20.29,20.29,0,0,1,0,2.06c0,.16,0,.31,0,.46,0,.55.22.78.62.82a.87.87,0,0,0,1-.7,6.26,6.26,0,0,0,0-1.37q0-.55,0-1.11c0-.34.24-.34.48-.33s.49,0,.49.32c0,1.27,0,2.54,0,3.81-.11,0-.24,0-.26.16H5.88c-.26-.44-.4-.46-.64-.08a1.48,1.48,0,0,1-1.48,0A.39.39,0,0,0,3.31,18.26Z"/><path class="cls-4" d="M15.84,25.15a1.33,1.33,0,0,1,.74-.06c.16.12.3.15.36-.1l.27,0c.13.16.23.15.29-.06a.06.06,0,0,1,.07,0h.2a7.69,7.69,0,0,0,.06,2.53.53.53,0,0,1-.42.69c-.26.07-.58.07-.74.35-.12.05-.3,0-.37.14l-.19.05c-.35-.08-.67.1-1,.11,0-.14.14-.27.06-.4-.39-.67-.06-1.39-.1-2.08,0-.43.11-.81-.43-1a2.61,2.61,0,0,1,1.11-.17C15.79,25.24,15.82,25.22,15.84,25.15Z"/><path class="cls-5" d="M16.67,28.47c.16-.28.48-.28.74-.35a.53.53,0,0,0,.42-.69,7.69,7.69,0,0,1-.06-2.53c.08-.15.29,0,.37-.18l.16,0a.19.19,0,0,0,.21-.07l.07,0a4.58,4.58,0,0,0,1.7-.46c.28-.1.44-.17.42.27a5,5,0,0,0,.16,1.44.9.9,0,0,1,0,.51h-.06l-.11.1h0a9.54,9.54,0,0,0-1.94,1.21h0c-.16,0-.35-.08-.38.19a6.21,6.21,0,0,1-1.66.64Z"/><path class="cls-6" d="M5.78,26.39A11.92,11.92,0,0,1,2,21.4a24,24,0,0,0,4.21,2.46l.1.11a.06.06,0,0,1,.07,0l.11.07h0a7.06,7.06,0,0,0,0,1.59,1,1,0,0,1-.19.73c-.14.26-.3-.12-.47-.05Z"/><path class="cls-5" d="M20.1,6.17a.1.1,0,0,1,.07,0l.1.08h0l.11.1a.08.08,0,0,1,.07,0,5.61,5.61,0,0,0-.1,2c0,.28-.09.53-.47.38a.2.2,0,0,0-.27.08,24.55,24.55,0,0,0-4.13-1,.13.13,0,0,1,0-.06h.17a5.69,5.69,0,0,1,1.54.17c.52.12.8-.1.65-.61A2.55,2.55,0,0,1,17.92,6c0-.1,0-.19,0-.27,0-.47-.34-.66-.61-.92a4.17,4.17,0,0,1,1.53.57,4,4,0,0,1,1.21.73C20,6.15,20.05,6.17,20.1,6.17Z"/><path class="cls-7" d="M20.9,26.37a.9.9,0,0,0,0-.51,5,5,0,0,1-.16-1.44c0-.44-.14-.37-.42-.27a4.58,4.58,0,0,1-1.7.46,5.14,5.14,0,0,1,1.3-.5,19.69,19.69,0,0,0,4.83-2.74c.12.12,0,.21,0,.29a12.33,12.33,0,0,1-3.4,4.47C21.17,26.22,21.08,26.36,20.9,26.37Z"/><path class="cls-8" d="M8.46,24.71a8.87,8.87,0,0,1,1.75.34c.06.23.28.19.44.26s.32,0,.28.23a18,18,0,0,0-.08,2.2c0,.66-.08.67-.71.67a1,1,0,0,0-.2.07.21.21,0,0,1-.2-.05c0-.07,0-.1-.08,0a6.7,6.7,0,0,1-1.84-.74c.1-.13.22-.07.33,0,.4.18.53,0,.5-.37A6.37,6.37,0,0,1,8.6,26,2.15,2.15,0,0,0,8.46,24.71Z"/><path class="cls-9" d="M14.63,25.33c.54.15.4.53.43,1,0,.69-.29,1.41.1,2.08.08.13-.07.26-.06.4h-.28a2.87,2.87,0,0,0-1.2.09h-.55c-.07-.11-.17-.09-.28-.09A12.11,12.11,0,0,1,12.94,26c.09-.28-.16-.43-.41-.49s-.28,0-.38-.1h1.29a1.1,1.1,0,0,0,.92,0l.11,0Z"/><path class="cls-9" d="M15.65,7.75h-.17c0-.1-.05-.24-.2-.09H15a5.93,5.93,0,0,0-1.57-.1c0-.88,0-1.77,0-2.66,0-.38-.13-.58-.53-.57-.15,0-.36.07-.39-.19a1.68,1.68,0,0,1,.74,0q.13.28.27,0a.47.47,0,0,1,.37,0,1.69,1.69,0,0,0,1.3.19l.45,0v.09A12.72,12.72,0,0,0,15.65,7.75Z"/><path class="cls-10" d="M12.52,4.14c0,.26.24.2.39.19.4,0,.54.19.53.57,0,.89,0,1.78,0,2.66h-1c-.14,0-.32-.06-.37.16L9.68,8a3.17,3.17,0,0,1,1.38-.38c.21,0,.41-.07.41-.33q0-1.1,0-2.19c0-.67-.05-.7-.75-.58-.1,0-.18.05-.24-.06A3.15,3.15,0,0,1,12,4.2l-.1.06v0L12,4.2A1,1,0,0,1,12.52,4.14Z"/><path class="cls-10" d="M12.15,25.36c.1.13.25.06.38.1s.5.21.41.49a12.11,12.11,0,0,0-.15,2.82c-.18,0-.38-.08-.54.09l-.05.05a6.48,6.48,0,0,1-2.26-.43,1,1,0,0,1,.2-.07c.63,0,.66,0,.71-.67a18,18,0,0,1,.08-2.2c0-.2-.17-.18-.28-.23s-.38,0-.44-.26l1,.14.09.08c.2.17.43.05.65.09Z"/><path class="cls-4" d="M15.65,7.75a12.72,12.72,0,0,1,0-3.32,4.3,4.3,0,0,0,1.23.27H17l.13.08h.15c.27.26.64.45.61.92,0,.08,0,.17,0,.27a2.55,2.55,0,0,0-.08,1.32c.15.51-.13.73-.65.61A5.69,5.69,0,0,0,15.65,7.75Z"/><path class="cls-11" d="M23.36,15.1a.48.48,0,0,1,.15.29c-.27.22,0,.46,0,.69,0,.61,0,.61-.59.61H21c-.24,0-.49.11-.41.35a1.53,1.53,0,0,0,.57.86,1.8,1.8,0,0,0,1.67.1c.13,0,.35-.25.44.06s-.13.35-.34.39a3.17,3.17,0,0,1-.85.15,2.15,2.15,0,0,1-1.6-.51A2.18,2.18,0,0,1,20,16.21a1.62,1.62,0,0,1,1-1.51,1.79,1.79,0,0,1,2,.22C23.08,15,23.18,15.15,23.36,15.1ZM20.82,16a.18.18,0,0,0,.2.19h1.49c.14,0,.23-.06.23-.21-.15-.6-.41-.84-.92-.84A.94.94,0,0,0,20.82,16Z"/><path class="cls-2" d="M8.46,24.71A2.15,2.15,0,0,1,8.6,26a6.37,6.37,0,0,0,.05,1.23c0,.4-.1.55-.5.37-.11-.05-.23-.11-.33,0a8.94,8.94,0,0,1-2-1.27l.06-.07c.17-.07.33.31.47.05a1,1,0,0,0,.19-.73,7.06,7.06,0,0,1,0-1.59,6.93,6.93,0,0,1,1.47.45c0,.15.17.12.28.1h0c0,.11.1.12.19.12A.08.08,0,0,1,8.46,24.71Z"/><path class="cls-12" d="M19.6,8.79a.2.2,0,0,1,.27-.08c.38.15.51-.1.47-.38a5.61,5.61,0,0,1,.1-2c.07,0,.08,0,.1.08a.65.65,0,0,0,.55.37h0a.4.4,0,0,0,.45.37l.1.1.09.08h0l.09.09h0a.69.69,0,0,0,.55.55h0l.09.09h0a.73.73,0,0,0,.54.64h0a.45.45,0,0,0,.1.33c.23.31.46.62.66.94s.34.64.56,1c-.55-.18-.82-.63-1.32-.65h0c-.05-.26-.25-.26-.45-.27h0a2.09,2.09,0,0,0-1.39-.73h0c-.07-.19-.21-.21-.38-.18h0A.48.48,0,0,0,20.26,9,2.2,2.2,0,0,1,19.6,8.79Z"/><path class="cls-8" d="M10.48,4.5c.06.11.14.07.24.06.7-.12.74-.09.75.58s0,1.46,0,2.19c0,.26-.2.29-.41.33A3.17,3.17,0,0,0,9.68,8h0l-.11.07L8.28,8.4c.07-.29.35-.27.55-.32.39-.09.62-.28.62-.69a11,11,0,0,0-.07-2.5V4.77l.18-.06c.17.18.27.06.37-.09l.17,0c.12.16.17.07.2-.06Z"/><path class="cls-13" d="M24.63,16.55V14.94c0-.52.44-.79.85-.47.21.16.29.1.45,0a2,2,0,0,1,.8-.18c.42,0,.58.12.54.55s-.05.49-.45.4c-.69-.16-1.15.22-1.2,1s0,1.32,0,2c0,.36-.08.52-.48.52s-.52-.13-.5-.51C24.65,17.66,24.63,17.1,24.63,16.55Z"/><path class="cls-6" d="M4.13,8.22c.26.16.3-.12.42-.21s.3-.3.46-.45.19-.29.36-.23a.45.45,0,0,1,.23.46,10,10,0,0,0,0,1.34c0,.1,0,.17.11.22a29.43,29.43,0,0,0-3.61,2.16A10.38,10.38,0,0,1,4.13,8.22Z"/><path class="cls-3" d="M13.33,19.23a0,0,0,0,1,0-.05.79.79,0,0,0,.38-1.05c-.22-.56-.48-1.1-.68-1.66a7.64,7.64,0,0,1-.64-1.81h0c.38-.07.55.1.67.47.2.63.48,1.23.72,1.84.06.14.12.28.31.28s.28-.13.35-.3c.25-.69.54-1.37.8-2,.1-.29.33-.28.52-.21s0,.28,0,.42-.14.34-.21.51c-.49,1.23-1,2.47-1.49,3.7a1,1,0,0,1-1.2.69c-.14,0-.28,0-.29-.2s.11-.26.29-.26S13.35,19.56,13.33,19.23Z"/><path class="cls-13" d="M12.42,14.66a7.64,7.64,0,0,0,.64,1.81c.2.56.46,1.1.68,1.66a.79.79,0,0,1-.38,1.05,1.34,1.34,0,0,0,0-1.38c-.43-.93-.78-1.9-1.17-2.85-.08-.2-.23-.47.08-.52s.65-.23.83.21L14,16.79c0,.1.1.21.19.4l1-2.43a.7.7,0,0,1,.93-.33.25.25,0,0,1,.1.35c-.63,1.57-1.24,3.14-1.9,4.7a1.29,1.29,0,0,1-1.62.71c-.28-.08-.19-.31-.2-.5s.07-.33.28-.33a1.11,1.11,0,0,0,.62-.13c0,.33-.21.32-.43.32s-.3,0-.29.26.15.19.29.2a1,1,0,0,0,1.2-.69c.52-1.23,1-2.47,1.49-3.7.07-.17.15-.34.21-.51s.26-.32,0-.42-.42-.08-.52.21c-.26.68-.55,1.36-.8,2-.07.17-.14.3-.35.3s-.25-.14-.31-.28c-.24-.61-.52-1.21-.72-1.84-.12-.37-.29-.54-.67-.47l0,0Z"/><path class="cls-3" d="M17.67,18.56a.48.48,0,0,1-.38-.26c.26-.29-.11-.52-.08-.8,0-.6,0-1.2,0-1.8a.65.65,0,0,0-.23-.6c-.2-.14-.17-.34,0-.56a.89.89,0,0,0,.07-1v-.08a1.23,1.23,0,0,0,.28,0c.36-.15.46,0,.47.35,0,.77,0,.77.81.77h.18c.1,0,.25,0,.22.14s0,.3-.2.32h-.55c-.18,0-.29.05-.29.25v.13a9.29,9.29,0,0,0-.06,2,.53.53,0,0,0,.39.58,1.1,1.1,0,0,1,.71.52c-.26,0-.49,0-.72-.05S17.85,18.36,17.67,18.56Z"/><path class="cls-13" d="M23.36,15.1c-.18.05-.28-.07-.4-.18a1.79,1.79,0,0,0-2-.22,1.62,1.62,0,0,0-1,1.51,2.18,2.18,0,0,0,.51,1.88,2.15,2.15,0,0,0,1.6.51,3.17,3.17,0,0,0,.85-.15c.21,0,.41-.14.34-.39S23,18,22.85,18a1.8,1.8,0,0,1-1.67-.1,1.53,1.53,0,0,1-.57-.86c-.08-.24.17-.35.41-.35h1.89c.6,0,.58,0,.59-.61,0-.23-.26-.47,0-.69a2.2,2.2,0,0,1,.2,1.16c0,.3-.2.33-.43.32H21.12c-.32,0-.38.1-.26.37a1.07,1.07,0,0,0,1,.68,2.51,2.51,0,0,0,1.21-.22c.17-.08.39-.19.46.06s.18.56-.11.75a2.8,2.8,0,0,1-3.13-.36A2.64,2.64,0,0,1,20.24,15,2,2,0,0,1,23.36,15.1Z"/><path class="cls-11" d="M1.74,16.85c0,.74,0,1.48,0,2.21A1.16,1.16,0,0,1,.31,20.2c-.24,0-.32-.13-.31-.35s0-.49.27-.49c.52,0,.54-.34.54-.71,0-1.26,0-2.52,0-3.78,0-.37.13-.48.48-.48s.5.11.49.48c0,.66,0,1.32,0,2Zm-.19.25v-2c0-.19,0-.41-.28-.41s-.27.22-.27.41c0,1.19,0,2.37,0,3.55,0,.47-.1.81-.59.94-.14,0-.15.13-.15.25s.07.18.2.2a.94.94,0,0,0,1-.62A13,13,0,0,0,1.55,17.1Z"/><path class="cls-11" d="M17,13.55a.89.89,0,0,1-.07,1c-.14.22-.17.42,0,.56a.65.65,0,0,1,.23.6c0,.6,0,1.2,0,1.8,0,.28.34.51.08.8a1.26,1.26,0,0,1-.28-.93c0-.51,0-1,0-1.52,0-.27.13-.6-.35-.68-.2,0-.2-.67,0-.71.47-.08.34-.4.35-.68Z"/><path class="cls-11" d="M17.67,18.56c.18-.2.39-.1.59-.06s.46,0,.72.05a1.1,1.1,0,0,0-.71-.52.53.53,0,0,1-.39-.58,9.29,9.29,0,0,1,.06-2c0,.61,0,1.22,0,1.83,0,.43.14.64.59.6a1.77,1.77,0,0,1,.46,0c.27,0,.28.21.28.43s0,.43-.27.43A2.7,2.7,0,0,1,17.67,18.56Z"/><path class="cls-11" d="M18,15.28c0-.2.11-.26.29-.25h.55c.2,0,.17-.19.2-.32s-.12-.13-.22-.14h-.18c-.79,0-.8,0-.81-.77,0-.34-.11-.5-.47-.35a1.23,1.23,0,0,1-.28,0c.18-.38.52-.19.76-.17s.17.29.17.47c0,.63,0,.62.67.63.22,0,.48-.11.63.15a.44.44,0,0,1-.41.68A2.47,2.47,0,0,0,18,15.28Z"/><path class="cls-3" d="M.8,13.47c0-.31-.07-.6.43-.58s.58.12.55.55-.16.57-.61.59S.81,13.73.8,13.47Z"/><path class="cls-7" d="M23,10.42c.5,0,.77.47,1.32.65-.22-.39-.37-.72-.56-1s-.43-.63-.66-.94a.45.45,0,0,1-.1-.33,9,9,0,0,1,1.65,2.82Z"/><path class="cls-10" d="M13.07,28.86h.55c.4-.05.82.11,1.2-.09h.28c.34,0,.66-.19,1-.11a9.92,9.92,0,0,1-3.91.25l.05-.05Z"/><path class="cls-7" d="M18.79,27.68a9.54,9.54,0,0,1,1.94-1.21A5,5,0,0,1,18.79,27.68Z"/><path class="cls-4" d="M12.06,7.73c0-.22.23-.16.37-.16h1a5.93,5.93,0,0,1,1.57.1h-.28a2.49,2.49,0,0,0-.72,0,1.06,1.06,0,0,1-.5,0,.1.1,0,0,0-.14,0,.44.44,0,0,1-.32,0,1.36,1.36,0,0,0-.8,0Z"/><path class="cls-7" d="M21.17,9.42a2.09,2.09,0,0,1,1.39.73Z"/><path class="cls-4" d="M15.2,4.32a1.69,1.69,0,0,1-1.3-.19A2.32,2.32,0,0,1,15.2,4.32Z"/><path class="cls-6" d="M12.15,25.36H12v-.1h2.31a.2.2,0,0,1,.19.08l-.11,0H12.15Z"/><path class="cls-5" d="M16.88,4.7a4.3,4.3,0,0,1-1.23-.27V4.34A2,2,0,0,1,16.88,4.7Z"/><path class="cls-13" d="M5.24,18.61c.24-.38.38-.36.64.08C5.66,18.76,5.5,18.25,5.24,18.61Z"/><path class="cls-7" d="M22.38,8a.69.69,0,0,1-.55-.55A1.7,1.7,0,0,1,22.38,8Z"/><path class="cls-7" d="M23,8.76a.73.73,0,0,1-.54-.64A2.07,2.07,0,0,1,23,8.76Z"/><path class="cls-7" d="M21.09,6.82a.65.65,0,0,1-.55-.37A1,1,0,0,1,21.09,6.82Z"/><path class="cls-13" d="M3.31,18.26a.39.39,0,0,1,.45.37A.67.67,0,0,1,3.31,18.26Z"/><path class="cls-7" d="M21.54,7.2a.4.4,0,0,1-.45-.37A1.15,1.15,0,0,1,21.54,7.2Z"/><path class="cls-7" d="M22.57,10.15c.2,0,.4,0,.45.27A1,1,0,0,1,22.57,10.15Z"/><path class="cls-7" d="M20.26,9a.48.48,0,0,1,.54.21A1.48,1.48,0,0,1,20.26,9Z"/><path class="cls-5" d="M14.73,7.66h.55v.13l-.55-.06Z"/><path class="cls-10" d="M12.25,7.72a1.36,1.36,0,0,1,.8,0A2.69,2.69,0,0,1,12.25,7.72Z"/><path class="cls-9" d="M12,25.26v.1c-.22,0-.45.08-.65-.09l.09-.06.2,0,.11,0Z"/><path class="cls-10" d="M14.73,7.66v.07a1.94,1.94,0,0,1-.72,0A2.49,2.49,0,0,1,14.73,7.66Z"/><path class="cls-5" d="M16.94,25c-.06.25-.2.22-.36.1C16.72,25.13,16.78,24.87,16.94,25Z"/><path class="cls-7" d="M18.14,24.72c-.08.14-.29,0-.37.18h-.09v-.1A.57.57,0,0,1,18.14,24.72Z"/><path class="cls-10" d="M16.67,28.47l.09,0a.83.83,0,0,1-.46.11C16.37,28.43,16.55,28.52,16.67,28.47Z"/><path class="cls-13" d="M3.21,14.42a.26.26,0,0,1-.25.25C3,14.49,3,14.41,3.21,14.42Z"/><path class="cls-10" d="M9.94,4.62c-.1.15-.2.27-.37.09A.39.39,0,0,1,9.94,4.62Z"/><path class="cls-7" d="M20.8,9.24c.17,0,.31,0,.38.18A.59.59,0,0,1,20.8,9.24Z"/><path class="cls-4" d="M15.28,7.79V7.66c.15-.15.17,0,.2.09a.13.13,0,0,0,0,.06Z"/><path class="cls-4" d="M13.53,4.11q-.13.28-.27,0A.32.32,0,0,1,13.53,4.11Z"/><path class="cls-13" d="M6.25,18.69c0-.16.15-.15.26-.16A.19.19,0,0,1,6.25,18.69Z"/><path class="cls-7" d="M18.42,27.86c0-.27.22-.18.38-.19A.56.56,0,0,1,18.42,27.86Z"/><path class="cls-5" d="M17.5,24.91c-.06.21-.16.22-.29.06C17.28,24.82,17.4,24.92,17.5,24.91Z"/><path class="cls-13" d="M3.86,14.57a.17.17,0,0,1-.19-.15A.16.16,0,0,1,3.86,14.57Z"/><path class="cls-10" d="M10.31,4.54c0,.13-.08.22-.2.06C10.15,4.48,10.23,4.52,10.31,4.54Z"/><path class="cls-8" d="M8.2,24.6c-.11,0-.23,0-.28-.1A.36.36,0,0,1,8.2,24.6Z"/><path class="cls-7" d="M18.51,24.63a.19.19,0,0,1-.21.07C18.33,24.56,18.42,24.61,18.51,24.63Z"/><path class="cls-10" d="M9.39,4.77v.12H9.29V4.8Z"/><path class="cls-6" d="M11.41,25.21l-.09.06-.09-.08Z"/><path class="cls-8" d="M8.39,24.71c-.09,0-.17,0-.19-.12A.15.15,0,0,1,8.39,24.71Z"/><path class="cls-9" d="M12,4.2l-.11.1v0L12,4.2Z"/><path class="cls-10" d="M13.37,7.69a.1.1,0,0,1,.14,0Z"/><path class="cls-7" d="M22.47,8.11,22.38,8Z"/><path class="cls-8" d="M9.29,4.8v.09l-.08-.06Z"/><path class="cls-8" d="M9,4.89,8.89,5Z"/><path class="cls-5" d="M17.68,24.8v.1h-.11C17.59,24.84,17.61,24.79,17.68,24.8Z"/><path class="cls-12" d="M20.1,6.17c-.05,0-.09,0-.05-.07Z"/><path class="cls-12" d="M20.27,6.27l-.1-.08C20.24,6.17,20.25,6.22,20.27,6.27Z"/><path class="cls-5" d="M17.16,4.79,17,4.71C17.11,4.69,17.14,4.73,17.16,4.79Z"/><path class="cls-2" d="M6.45,24.06,6.34,24C6.4,24,6.44,24,6.45,24.06Z"/><path class="cls-6" d="M11.72,25.25l-.11,0Z"/><path class="cls-12" d="M20.37,6.36l-.11-.1Z"/><path class="cls-7" d="M21.73,7.38l-.09-.08Z"/><path class="cls-7" d="M20.73,26.48l.11-.1Z"/><path class="cls-7" d="M21.83,7.47l-.09-.09Z"/><path class="cls-2" d="M6.27,24l-.1-.11Z"/><path class="cls-10" d="M9.66,28.4c.05-.07.07,0,.08,0Z"/><path class="cls-10" d="M9.57,8.11,9.68,8C9.66,8.1,9.63,8.12,9.57,8.11Z"/><path class="cls-5" d="M15.84,25.15c0,.07-.05.09-.1,0Z"/><path class="cls-13" d="M10.18,17.78a1.86,1.86,0,0,0,.39-1.49c-.07-.88-.46-1.17-1.36-1.06.16-.35.43-.31.72-.21a1.88,1.88,0,0,1,.5,2.69A.28.28,0,0,1,10.18,17.78Z"/><path class="cls-13" d="M9.21,15.23s0,.1-.1.08Z"/><path class="cls-4" d="M14.82,28.77c-.38.2-.8,0-1.2.09A2.87,2.87,0,0,1,14.82,28.77Z"/><path class="cls-4" d="M13.44,25.37h.92A1.1,1.1,0,0,1,13.44,25.37Z"/><path class="cls-4" d="M13.07,28.86h-.82c.16-.17.36-.06.54-.09S13,28.75,13.07,28.86Z"/><path class="cls-3" d="M20.82,16l1.92,0c0,.15-.09.21-.23.21H21A.18.18,0,0,1,20.82,16Z"/><path class="cls-3" d="M12.42,14.66l0,0,0,0Z"/><path class="cls-3" d="M1.55,17.1a13,13,0,0,1-.09,2.29.94.94,0,0,1-1,.62c-.13,0-.19-.07-.2-.2s0-.22.15-.25c.49-.13.6-.47.59-.94,0-1.18,0-2.36,0-3.55,0-.19-.05-.41.27-.41s.28.22.28.41Z"/></g></g></svg>