<?xml version="1.0" encoding="UTF-8" standalone="no"?><svg xmlns="http://www.w3.org/2000/svg" viewBox="0 0 21.92 29"><defs><style>.cls-1{fill:#2b6692;}.cls-2{fill:#0e78b9;}.cls-3{fill:#185989;}.cls-4{fill:#0c5082;}.cls-5{fill:#0070b4;}.cls-6{fill:#006ab0;}</style></defs><g id="Layer_2" data-name="Layer 2"><g id="Layer_1-2" data-name="Layer 1"><path class="cls-1" d="M11,0a9.84,9.84,0,0,1,1.33,0,33.83,33.83,0,0,1,8.79,1.73c.22.08.44.17.66.23a.24.24,0,0,1,.19.27c0,1,0,2,0,3,0,4,0,8.06,0,12.09a4.28,4.28,0,0,1-.55,2.11,12.18,12.18,0,0,1-2.55,3.17c-2.2,2-4.46,4-6.84,5.79a5.13,5.13,0,0,1-.79.52c-.08,0-.15.1-.24.07V18.25c.42,0,.84,0,1.27,0,.21,0,.25-.07.25-.26,0-1.73,0-3.47,0-5.2a.45.45,0,0,1,.19-.41l3-2.43.66-.53V22.75a24.59,24.59,0,0,0,2.3-2.66,5.74,5.74,0,0,0,1-2.51c.09-.53.11-1.07.18-1.61.09-.05.07-.13.07-.21V4.12c0-.07,0-.16-.07-.19s0,0,0,0-.11-.06-.18-.06H16.39c-.06,0-.14,0-.18.06l-.08.1-3,2.86L11,9V0Z"/><path class="cls-2" d="M11,18.25V29a1.13,1.13,0,0,1-.49-.27C8.83,27.54,7.3,26.25,5.75,25a38.61,38.61,0,0,1-3.07-2.65A12.8,12.8,0,0,1,.5,19.54,4,4,0,0,1,0,17.59Q0,10,0,2.32A.29.29,0,0,1,.23,2,35.56,35.56,0,0,1,7.52.23,32.65,32.65,0,0,1,10.8,0L11,0V9c-.1.12-.15,0-.2-.06l-5.38-5c0-.09-.1-.07-.16-.07H2c-.07,0-.15,0-.17.08h0c-.11,0-.08.12-.08.19V15.19c0,.08,0,.17.08.21,0,.59,0,1.19.13,1.79a6.06,6.06,0,0,0,1.17,3c.44.56.9,1.09,1.39,1.61.29.29.57.59.86.89l.06,0V9.39c.09,0,.11,0,.15.07L9,12.53a.34.34,0,0,1,.11.29c0,1.73,0,3.46,0,5.18,0,.19,0,.25.24.25C9.89,18.23,10.42,18.25,11,18.25Z"/><path class="cls-3" d="M19.83,16c0-.21,0-.42,0-.63V4.2c0-.09,0-.18,0-.27s.07.12.07.19V15.76C19.9,15.84,19.92,15.92,19.83,16Z"/><path class="cls-4" d="M19.81,3.9h-3.6c0-.08.12-.06.18-.06h3.24C19.7,3.84,19.77,3.82,19.81,3.9Z"/><path class="cls-5" d="M1.85,3.89c0,3.82,0,7.64,0,11.47,0,0,0,0,0,0s-.08-.13-.08-.21V4.08C1.77,4,1.74,3.91,1.85,3.89Z"/><path class="cls-6" d="M5.37,3.87H1.86c0-.1.1-.08.17-.08H5.21C5.27,3.8,5.34,3.78,5.37,3.87Z"/></g></g></svg>