<?xml version="1.0" encoding="UTF-8" standalone="no"?><svg xmlns="http://www.w3.org/2000/svg" viewBox="0 0 26.1 29.63"><defs><style>.cls-1{fill:#2298f6;}.cls-2{fill:#fafafb;}</style></defs><g id="Layer_2" data-name="Layer 2"><g id="Layer_1-2" data-name="Layer 1"><path class="cls-1" d="M13.07,0h12.7c.31,0,.35.1.32.37-.41,4.53-.8,9.05-1.21,13.58-.6,4.27-.36,9.08-1.39,13.08C11.34,30.5,14.77,30.5,2.63,27c-1.26-6.09-1.15-13-2-19.42Q.33,4,0,.35C0,.08.06,0,.34,0Zm0,5.5H5.24c-.46,0-.46,0-.42.45.23.64-.27,2.66.57,2.69l12,0c.26,0,.36,0,.33.34-.09.92-.15,1.85-.2,2.77-.12.5-1,.15-1.37.26l-10.54.13c-.17,0-.32,0-.29.25.25.67,0,2.69.57,2.89l11,0c.74-.08-.26,3.62-.15,4.35-.29.58-3.14,1.07-3.9,1.19-3-1.11-3.68.23-3.71-3.41-.21-.66-2.3-.11-3-.3-.8,0,.24,4.22.11,5.06a.32.32,0,0,0,.28.33l6.29,1.74c2.28-.29,4.52-1.24,6.78-1.75.88-3.21.65-7.14,1.15-10.58C21.41,2.88,23,6.08,13.06,5.51Z"/><path class="cls-2" d="M13.06,5.51c10,.57,8.35-2.63,7.7,6.33-.5,3.44-.27,7.37-1.15,10.58-2.26.51-4.5,1.46-6.78,1.75L6.54,22.43a.32.32,0,0,1-.28-.33c.13-.84-.9-5.07-.11-5.06,4.69,0,2.16-.34,3.43,2.82a24.4,24.4,0,0,0,3.69.88c1.07-.47,2.74-.37,3.5-1.18-.1-.72.88-4.44.15-4.35l-11,0c-.63-.2-.32-2.21-.57-2.89,0-.27.12-.25.29-.25L16.17,12c.41-.11,1.24.24,1.37-.26.05-.92.11-1.85.2-2.77,0-.3-.07-.34-.33-.34l-12,0c-.85-.06-.33-2-.57-2.69,0-.45,0-.45.42-.45Z"/></g></g></svg>