<?xml version="1.0" encoding="UTF-8" standalone="no"?><svg xmlns="http://www.w3.org/2000/svg" viewBox="0 0 27.69 28"><defs><style>.cls-1{fill:#4688ba;}.cls-2{fill:#4384b6;}.cls-3{fill:#3f80b1;}.cls-4{fill:#3878a8;}.cls-5{fill:#fde367;}.cls-6{fill:#fcde5b;}.cls-7{fill:#fee772;}.cls-8{fill:#feda4c;}.cls-9{fill:#2c6998;}.cls-10{fill:#3b7bad;}.cls-11{fill:#fcd338;}.cls-12{fill:#3372a1;}.cls-13{fill:#fedd54;}.cls-14{fill:#fdd741;}.cls-15{fill:#2f6d9d;}</style></defs><g id="Layer_2" data-name="Layer 2"><g id="Layer_1-2" data-name="Layer 1"><path class="cls-1" d="M0,12.43c.19,0,.11-.15.13-.23A14.52,14.52,0,0,1,.65,9.94a4.1,4.1,0,0,1,3.93-2.8c.55,0,1.09,0,1.63,0a.42.42,0,0,1-.13.35c-.81.93-1.62,1.87-2.42,2.81L.49,14.06c-.13.14-.24.34-.49.33Z"/><path class="cls-2" d="M0,14.39c.25,0,.36-.19.49-.33l3.17-3.75c.8-.94,1.61-1.88,2.42-2.81a.42.42,0,0,0,.13-.35h2A.65.65,0,0,1,8,7.58c-.81.93-1.62,1.87-2.42,2.81l-2.53,3C2.39,14.19,1.71,15,1,15.83c-.21.23-.33.57-.69.66a5.42,5.42,0,0,1-.17-.91c0-.07,0-.22-.13-.21Z"/><path class="cls-1" d="M7.46,6.27c-.17,0-.33.06-.32-.21,0-1,0-2,0-3A2.51,2.51,0,0,1,8.91.7,9.26,9.26,0,0,1,11.24.18c.19,0,.45,0,.6-.18h.59a.52.52,0,0,1-.14.36c-.47.56-.95,1.12-1.42,1.69a.4.4,0,0,1-.23.12,1.3,1.3,0,0,0-1.8,1.52c0,.19.2.3.26.47a6.6,6.6,0,0,1-.83,1.08A6.68,6.68,0,0,0,7.46,6.27Z"/><path class="cls-3" d="M11.58,6.27H9.68a8.26,8.26,0,0,1,1.11-1.39c.55-.67,1.13-1.31,1.69-2,.68-.81,1.37-1.63,2.06-2.43A.72.72,0,0,0,14.78,0h.72c0,.17.1.12.19.12a3.1,3.1,0,0,1,.86.08.72.72,0,0,1-.19.34c-.65.77-1.31,1.54-2,2.3-.81,1-1.63,1.89-2.43,2.85C11.82,5.86,11.57,6,11.58,6.27Z"/><path class="cls-2" d="M14.78,0a.72.72,0,0,1-.24.48c-.69.8-1.38,1.62-2.06,2.43-.56.66-1.14,1.3-1.69,2A8.26,8.26,0,0,0,9.68,6.27H7.46a6.68,6.68,0,0,1,.81-1A6.6,6.6,0,0,0,9.1,4.16l.26.21a1.12,1.12,0,0,0,1.24.09,1.16,1.16,0,0,0,.71-1,1.32,1.32,0,0,0-.67-1.25.4.4,0,0,0,.23-.12c.47-.57,1-1.13,1.42-1.69A.52.52,0,0,0,12.43,0Z"/><path class="cls-4" d="M12.43,7.15c.38,0,.76,0,1.14,0,.2,0,.28-.07.25-.26V6.72c.06-.34-.07-.49-.41-.45a3.14,3.14,0,0,1,.72-.94c1.12-1.32,2.25-2.64,3.36-4a2.22,2.22,0,0,0,.57-.79,2.28,2.28,0,0,1,1.11.57,3,3,0,0,1,.88,1,.3.3,0,0,0-.22.13l-2.56,3L14.09,9c-1.07,1.26-2.16,2.5-3.22,3.76-.17.21-.44.38-.47.69a4.46,4.46,0,0,0-2.11.65,4.12,4.12,0,0,0-2,3.27.42.42,0,0,0-.35.14c-.64.76-1.3,1.5-1.92,2.28-.21.26-.51.47-.59.83a2.59,2.59,0,0,1-1.64-.8A.53.53,0,0,1,2,19.57L4.69,16.4C5.86,15,7,13.63,8.2,12.25S10.63,9.44,11.82,8C12,7.75,12.37,7.54,12.43,7.15Z"/><path class="cls-5" d="M25.6,7.71A4,4,0,0,1,27,9.81a1.25,1.25,0,0,0-.48.26l-2.6,1.86L19.4,15.11l-6.18,4.42C11.59,20.7,10,21.88,8.32,23a3.3,3.3,0,0,1-1.16.71V21.06a.66.66,0,0,0,.42-.15L11,18.48l5.4-3.84a.32.32,0,0,0,.18-.29,9.55,9.55,0,0,0,1.2-.06,4.28,4.28,0,0,0,3.52-3.47.32.32,0,0,1,0-.09,5.74,5.74,0,0,0,1.25-.82C23.57,9.19,24.58,8.44,25.6,7.71Z"/><path class="cls-6" d="M7.16,23.74A3.3,3.3,0,0,0,8.32,23c1.64-1.15,3.27-2.33,4.9-3.5l6.18-4.42,4.47-3.18,2.6-1.86A1.25,1.25,0,0,1,27,9.81a3.93,3.93,0,0,1,.32,1.31.6.6,0,0,0-.36.14l-7,5-5.76,4.1c-.1.07-.2.14-.18.29l-.12.11a.67.67,0,0,0-.3.13c-1.65,1.18-3.31,2.36-4.95,3.55a5.74,5.74,0,0,0-1.11.85A2.65,2.65,0,0,1,7.16,23.74Z"/><path class="cls-7" d="M16.55,14.35a.32.32,0,0,1-.18.29L11,18.48,7.58,20.91a.66.66,0,0,1-.42.15,34.17,34.17,0,0,1,0-3.65,3.29,3.29,0,0,1,3.2-3.05C12.43,14.3,14.49,14.35,16.55,14.35Z"/><path class="cls-3" d="M.3,16.49c.36-.09.48-.43.69-.66.72-.8,1.4-1.64,2.09-2.46l2.53-3C6.41,9.45,7.22,8.51,8,7.58a.65.65,0,0,0,.21-.43H10.6a.42.42,0,0,1-.1.3c-.25.3-.5.6-.76.89L7.67,10.77,5.23,13.64,3.16,16.06l-2,2.39a.36.36,0,0,1-.22.13A7,7,0,0,1,.3,16.49Z"/><path class="cls-8" d="M27.53,12.36a8.68,8.68,0,0,1,.14,2,1,1,0,0,0-.24.1c-.54.37-1.07.75-1.6,1.13L19.14,20.4c-.1.08-.24.12-.24.29q-1.5,0-3,0c0-.14.09-.19.18-.25l4.57-3.26c1.94-1.39,3.89-2.79,5.84-4.17A2.9,2.9,0,0,1,27.53,12.36Z"/><path class="cls-9" d="M20.48,6.08c0,1.47.06,2.94,0,4.41a3.28,3.28,0,0,1-3.08,3c-1.06,0-2.13,0-3.2,0a.39.39,0,0,1,.15-.31c.3-.34.59-.69.88-1l2.4-2.83c.72-.85,1.44-1.71,2.18-2.55C20,6.52,20.13,6.18,20.48,6.08Z"/><path class="cls-10" d="M.92,18.58a.36.36,0,0,0,.22-.13l2-2.39,2.07-2.42,2.44-2.87L9.74,8.34c.26-.29.51-.59.76-.89a.42.42,0,0,0,.1-.3h1.83c-.06.39-.39.6-.61.87C10.63,9.44,9.4,10.84,8.2,12.25S5.86,15,4.69,16.4L2,19.57a.53.53,0,0,0-.16.28A3.25,3.25,0,0,1,.92,18.58Z"/><path class="cls-11" d="M20,21.58c.49,0,.49,0,.49.42s0,1.18,0,1.76a3.13,3.13,0,0,1-1.94,3.18,10.8,10.8,0,0,1-5.68,1,6.63,6.63,0,0,1-1.25-.19.52.52,0,0,1,.21-.23c1.17-.83,2.32-1.68,3.49-2.49.31-.22.57-.55,1-.58a.78.78,0,0,1,0,.16,1.24,1.24,0,0,0,2.46.17A1.3,1.3,0,0,0,18,23.3a.49.49,0,0,1,.25-.33c.46-.33.93-.65,1.39-1C19.77,21.87,20,21.81,20,21.58Z"/><path class="cls-12" d="M10.4,13.48c0-.31.3-.48.47-.69C11.93,11.53,13,10.29,14.09,9l3.18-3.76,2.56-3a.3.3,0,0,1,.22-.13A2.9,2.9,0,0,1,20.48,4c-.35.12-.52.45-.74.71-.71.81-1.41,1.62-2.11,2.44L15.24,10c-.81.95-1.63,1.89-2.43,2.85-.17.2-.42.36-.45.66C11.71,13.51,11.06,13.51,10.4,13.48Z"/><path class="cls-13" d="M27.53,12.36a2.9,2.9,0,0,0-1,.65c-1.95,1.38-3.9,2.78-5.84,4.17l-4.57,3.26c-.09.06-.19.11-.18.25-.66,0-1.31,0-2,0,0-.15.08-.22.18-.29l5.76-4.1,7-5a.6.6,0,0,1,.36-.14A4.81,4.81,0,0,1,27.53,12.36Z"/><path class="cls-14" d="M16.32,24.47c-.42,0-.68.36-1,.58-1.17.81-2.32,1.66-3.49,2.49a.52.52,0,0,0-.21.23,8,8,0,0,1-2-.61.8.8,0,0,1,.27-.28c2.14-1.53,4.29-3.05,6.42-4.59.28-.2.66-.32.77-.71,1,0,2,0,2.94,0,0,.23-.24.29-.39.4-.46.34-.93.66-1.39,1a.49.49,0,0,0-.25.33C17,23.18,16.48,23.54,16.32,24.47Z"/><path class="cls-15" d="M12.36,13.48c0-.3.28-.46.45-.66.8-1,1.62-1.9,2.43-2.85l2.39-2.83c.7-.82,1.4-1.63,2.11-2.44.22-.26.39-.59.74-.71V6.08c-.35.1-.47.44-.68.67-.74.84-1.46,1.7-2.18,2.55l-2.4,2.83c-.29.35-.58.7-.88,1a.39.39,0,0,0-.15.31Z"/><path class="cls-14" d="M18.9,20.69c0-.17.14-.21.24-.29l6.69-4.78c.53-.38,1.06-.76,1.6-1.13a1,1,0,0,1,.24-.1,6.71,6.71,0,0,1-.27,2.09,1,1,0,0,0-.38.18l-5,3.59c-.15.12-.39.18-.41.44C20.69,20.72,19.8,20.72,18.9,20.69Z"/><path class="cls-8" d="M17.07,21.58c-.11.39-.49.51-.77.71-2.13,1.54-4.28,3.06-6.42,4.59a.8.8,0,0,0-.27.28,3.89,3.89,0,0,1-1.38-.83c0-.18.2-.26.33-.35L14,22.08c.18-.14.44-.22.48-.5C15.37,21.54,16.22,21.55,17.07,21.58Z"/><path class="cls-10" d="M18.06.58a2.22,2.22,0,0,1-.57.79c-1.11,1.32-2.24,2.64-3.36,4a3.14,3.14,0,0,0-.72.94H11.58c0-.28.24-.41.38-.58.8-1,1.62-1.9,2.43-2.85.66-.76,1.32-1.53,2-2.3A.72.72,0,0,0,16.55.2,3.31,3.31,0,0,1,18.06.58Z"/><path class="cls-13" d="M14.52,21.58c0,.28-.3.36-.48.5L8.56,26c-.13.09-.29.17-.33.35a2.39,2.39,0,0,1-.78-1,5.74,5.74,0,0,1,1.11-.85c1.64-1.19,3.3-2.37,4.95-3.55a.67.67,0,0,1,.3-.13,0,0,0,0,0,0,0c0,.23-.1.54.06.68S14.3,21.56,14.52,21.58Z"/><path class="cls-11" d="M21.58,20.69c0-.26.26-.32.41-.44l5-3.59a1,1,0,0,1,.38-.18,9.21,9.21,0,0,1-1.18,3,2.57,2.57,0,0,1-2.12,1.22C23.26,20.72,22.42,20.73,21.58,20.69Z"/><path class="cls-7" d="M25.6,7.71c-1,.73-2,1.48-3.05,2.2a5.74,5.74,0,0,1-1.25.82c0-1.1,0-2.19,0-3.29,0-.25.06-.32.31-.31.92,0,1.85-.06,2.77.06A2.24,2.24,0,0,1,25.6,7.71Z"/><path class="cls-12" d="M3.46,20.65c.08-.36.38-.57.59-.83C4.67,19,5.33,18.3,6,17.54a.42.42,0,0,1,.35-.14c0,.78,0,1.57,0,2.35a1.78,1.78,0,0,0-.81.94A10.6,10.6,0,0,1,3.46,20.65Z"/><path class="cls-9" d="M5.49,20.69a1.78,1.78,0,0,1,.81-.94l0,.22C6.35,20.79,6.33,20.8,5.49,20.69Z"/></g></g></svg>