<?xml version="1.0" encoding="UTF-8" standalone="no"?><svg xmlns="http://www.w3.org/2000/svg" viewBox="0 0 244.06 180"><defs><style>.cls-1{fill:#ececec;}.cls-2{fill:#f0f0f0;}.cls-3{fill:#f5f5f5;}.cls-4{fill:#e1e1e1;}.cls-22,.cls-28,.cls-5,.cls-6{fill:#fafafa;}.cls-14,.cls-6{opacity:0.6;}.cls-7{fill:#e7e7e7;}.cls-8{fill:#1a2e35;}.cls-23,.cls-25,.cls-9{opacity:0.4;}.cls-10,.cls-12,.cls-13,.cls-14,.cls-15,.cls-16,.cls-18,.cls-20,.cls-25,.cls-27{fill:#fff;}.cls-11{fill:#007cff;}.cls-12,.cls-19{opacity:0.2;}.cls-13,.cls-22{opacity:0.9;}.cls-15,.cls-21{opacity:0.5;}.cls-16,.cls-26{opacity:0.7;}.cls-17,.cls-20{opacity:0.8;}.cls-18,.cls-28{opacity:0.3;}.cls-24,.cls-27{opacity:0.1;}.cls-29{fill:#e67b62;}.cls-30{fill:#d54c38;}</style></defs><g id="Layer_2" data-name="Layer 2"><g id="Layer_1-2" data-name="Layer 1"><rect class="cls-1" x="203.44" y="167.69" width="16.17" height="0.12"/><rect class="cls-1" x="157.43" y="169.01" width="4.24" height="0.12"/><rect class="cls-1" x="193.58" y="163.16" width="9.37" height="0.12"/><rect class="cls-1" x="25.61" y="163.98" width="21.08" height="0.12"/><rect class="cls-1" x="51.04" y="163.98" width="3.09" height="0.12"/><rect class="cls-1" x="64.17" y="166.04" width="45.73" height="0.12"/><path class="cls-1" d="M115.69,138.06H21.44a2.79,2.79,0,0,1-2.79-2.78V2.79A2.79,2.79,0,0,1,21.44,0h94.25a2.79,2.79,0,0,1,2.79,2.79V135.28A2.79,2.79,0,0,1,115.69,138.06ZM21.44.12a2.68,2.68,0,0,0-2.67,2.67V135.28a2.67,2.67,0,0,0,2.67,2.66h94.25a2.66,2.66,0,0,0,2.66-2.66V2.79A2.67,2.67,0,0,0,115.69.12Z"/><path class="cls-1" d="M221.27,138.06H127a2.79,2.79,0,0,1-2.78-2.78V2.79A2.79,2.79,0,0,1,127,0h94.26a2.79,2.79,0,0,1,2.79,2.79V135.28A2.79,2.79,0,0,1,221.27,138.06ZM127,.12a2.67,2.67,0,0,0-2.66,2.67V135.28a2.67,2.67,0,0,0,2.66,2.66h94.26a2.66,2.66,0,0,0,2.66-2.66V2.79A2.67,2.67,0,0,0,221.27.12Z"/><rect class="cls-1" y="159.83" width="244.06" height="0.12"/><rect class="cls-2" x="128.92" y="7.32" width="14.15" height="18.99" transform="translate(271.99 33.64) rotate(180)"/><rect class="cls-3" x="127.75" y="7.71" width="14.15" height="18.99" transform="translate(269.64 34.42) rotate(180)"/><rect class="cls-4" x="141.03" y="8.9" width="4.49" height="21.2"/><polygon class="cls-1" points="137.43 8.9 127.25 23.29 127.25 30.1 141.03 30.1 141.03 8.9 137.43 8.9"/><path class="cls-5" d="M144.65,26.7a1.38,1.38,0,1,1-2.75,0,1.38,1.38,0,0,1,2.75,0Z"/><rect class="cls-2" x="141.9" y="13.88" width="2.75" height="8.95"/><rect class="cls-6" x="141.9" y="13.88" width="2.75" height="1.26"/><path class="cls-1" d="M123.44,24.85V21.4a.33.33,0,0,0,0-.66l-4,0v4.8h4A.34.34,0,0,0,123.44,24.85Z"/><rect class="cls-3" x="120.38" y="21.4" width="3.07" height="3.45"/><path class="cls-5" d="M121,25.18H110.38c-.73,0-1.32-.92-1.32-2.05s.59-2.06,1.32-2.06H121Z"/><path class="cls-7" d="M121,20.74c-3.48,0-7-.06-10.45,0-2.39,0-2.51,4.61-.17,4.78,1.63.11,3.3,0,4.94,0H121a.34.34,0,0,0,0-.67h-9.9c-.76,0-1.31,0-1.61-.91s-.17-2.37.87-2.54a2.16,2.16,0,0,1,.36,0H121a.33.33,0,0,0,0-.66Z"/><path class="cls-1" d="M123.48,20.19V17.12a.29.29,0,0,0,0-.58l-3.51,0v4.26h3.51A.3.3,0,0,0,123.48,20.19Z"/><rect class="cls-3" x="120.75" y="17.12" width="2.73" height="3.06"/><path class="cls-5" d="M121.32,20.49h-9.45c-.65,0-1.17-.82-1.17-1.83s.52-1.83,1.17-1.83h9.45Z"/><path class="cls-7" d="M121.32,16.54c-3.09,0-6.19-.06-9.28,0-2.12,0-2.24,4.1-.16,4.24,1.45.1,2.94,0,4.39,0h5a.3.3,0,0,0,0-.59h-8.79c-.68,0-1.17,0-1.43-.81s-.16-2.1.77-2.26c.1,0,.22,0,.32,0h9.13a.29.29,0,0,0,0-.58Z"/><path class="cls-1" d="M123.44,29.55V26.09a.33.33,0,0,0,0-.66h-4v4.79h4A.33.33,0,0,0,123.44,29.55Z"/><rect class="cls-3" x="120.38" y="26.09" width="3.07" height="3.45"/><path class="cls-5" d="M121,29.88H110.38c-.73,0-1.32-.92-1.32-2.06s.59-2.06,1.32-2.06H121Z"/><path class="cls-7" d="M121,25.43c-3.48,0-7-.06-10.45,0-2.39.05-2.51,4.62-.17,4.78,1.63.11,3.3,0,4.94,0H121a.33.33,0,0,0,0-.66h-9.9c-.76,0-1.31,0-1.61-.91s-.17-2.37.87-2.55c.12,0,.25,0,.36,0H121a.33.33,0,0,0,0-.66Z"/><rect class="cls-3" x="62.61" y="29.93" width="118.85" height="3.44"/><polygon class="cls-4" points="175.05 41.73 175.05 33.37 179.23 33.37 175.05 41.73"/><polygon class="cls-3" points="177.14 41.73 181.32 33.37 179.23 33.37 175.05 41.73 177.14 41.73"/><polygon class="cls-4" points="68.88 41.73 68.88 33.37 64.7 33.37 68.88 41.73"/><polygon class="cls-3" points="66.79 41.73 62.61 33.37 64.7 33.37 68.88 41.73 66.79 41.73"/><path class="cls-2" d="M168.18,20.88v-.31a9.09,9.09,0,1,0-18.18,0V30h18.18Z"/><path class="cls-5" d="M152,20.57a7.11,7.11,0,1,0,7.1-7.11A7.1,7.1,0,0,0,152,20.57Z"/><path class="cls-7" d="M159.09,14.58A7.12,7.12,0,0,0,152,21.13c0-.19,0-.37,0-.56a7.11,7.11,0,1,1,14.21,0c0,.19,0,.37,0,.56A7.12,7.12,0,0,0,159.09,14.58Z"/><path class="cls-4" d="M154.6,20.56h3.74V16.83a.75.75,0,1,1,1.5,0v4.48a.75.75,0,0,1-.75.76H154.6a.76.76,0,0,1,0-1.51Z"/><path class="cls-3" d="M154.6,21.32a.76.76,0,0,1,0-1.51h4.49a.76.76,0,0,1,0,1.51Z"/><path class="cls-1" d="M158.34,16.08a.75.75,0,0,1,1.5,0v4.49a.75.75,0,0,1-1.5,0Z"/><polygon class="cls-1" points="102.97 30.01 89.57 30.01 91.06 13.01 104.46 13.01 102.97 30.01"/><polygon class="cls-4" points="102.97 30.01 103.61 30.01 105.1 13.01 104.46 13.01 102.97 30.01"/><polygon class="cls-4" points="101.76 28.28 91.09 28.28 92.28 14.75 102.94 14.75 101.76 28.28"/><polygon class="cls-5" points="100.98 27.16 92.07 27.16 93.06 15.86 101.97 15.86 100.98 27.16"/><path class="cls-7" d="M96.88,23.84a3.07,3.07,0,1,0,0-6.13C95.19,17.71,95.19,23.84,96.88,23.84Z"/><polygon class="cls-2" points="91.35 30.01 92.27 19.49 78.93 19.49 78.01 30.01 91.35 30.01"/><polygon class="cls-4" points="91.35 30.01 92.27 19.49 92.99 19.49 92.07 30.01 91.35 30.01"/><polygon class="cls-5" points="90.08 28.94 90.82 20.56 80.19 20.56 79.46 28.94 90.08 28.94"/><polygon class="cls-1" points="89.27 28.25 89.88 21.25 81.01 21.25 80.4 28.25 89.27 28.25"/><path class="cls-3" d="M85.15,26.31a2,2,0,0,0,0-4C84.06,22.35,84.06,26.31,85.15,26.31Z"/><path class="cls-3" d="M38.31,139.28a.21.21,0,0,1-.07-.13c0-1-.62-10.36-6.38-16.81-4.87-5.44.13-1.56,2.3.2a.2.2,0,0,0,.3-.26c-1.53-2.59-5.37-9.41-4-10.74s3.86,5,5,8a.2.2,0,0,0,.39-.09c-.33-3.2-.82-9.9,1-9.66s1.28,9.08.93,13.41a.2.2,0,0,0,.39.07c.81-2.66,2.34-6.6,4.14-5.56,2.67,1.55-3.92,7-3.51,12.85S39.27,140.11,38.31,139.28Z"/><path class="cls-3" d="M41.05,141s0-.1.09-.13c6.63-4.59,5-14.7,3-21a16.8,16.8,0,0,1-1-4.33,26.79,26.79,0,0,1,3.2,5.92c.12.27.43.17.39-.11-.51-3.24-.71-13.39,2.23-13.21,1.33.08-.15,8.91-.21,10.72,0,.29.35.4.43.13.87-3.14,6.86-9.61,7.94-8.32.47.55-2.33,3.6-3.29,5a42.9,42.9,0,0,0-4.15,8.67c-.1.27.22.54.36.32,1.06-1.67,5-5.7,6.37-3.71,1,1.45-1.63,3.55-2.9,4.79A21.52,21.52,0,0,0,48,133.3C47.23,135.29,41.85,142,41.05,141Z"/><path class="cls-7" d="M41.86,140a.22.22,0,0,0,.07-.17c0-1.17.07-12.62,6.64-20.82,5.55-6.94-.26-1.89-2.77.38a.24.24,0,0,1-.38-.29c1.68-3.24,5.89-11.78,4.19-13.31s-4.35,6.3-5.56,10a.25.25,0,0,1-.48-.08c.2-3.91.35-12.08-1.83-11.67s-1,11.11-.25,16.34a.24.24,0,0,1-.47.12c-1.15-3.18-3.28-7.86-5.39-6.48-3.14,2,5.22,8.2,5.11,15.37S40.75,141.05,41.86,140Z"/><path class="cls-7" d="M46.3,157.53a116,116,0,0,0,3.3-20.45H34.75a115.3,115.3,0,0,0,3.31,20.45,3.12,3.12,0,0,0,3,2.31h2.21A3.14,3.14,0,0,0,46.3,157.53Z"/><path class="cls-7" d="M208.75,159.36H195.38a3.06,3.06,0,0,1-3-2.89l-1.63-30.65h22.73l-1.63,30.65A3.06,3.06,0,0,1,208.75,159.36Z"/><rect class="cls-5" x="198.99" y="127.7" width="6.16" height="6.16"/><rect class="cls-5" x="198.99" y="135.38" width="6.16" height="6.16"/><rect class="cls-5" x="198.99" y="143.06" width="6.16" height="6.16"/><rect class="cls-5" x="198.99" y="150.73" width="6.16" height="6.16"/><rect class="cls-3" x="189.4" y="123.59" width="25.34" height="2.23" rx="0.99"/><path class="cls-5" d="M210.31,150.73h-3.58v6.16h3.13a1.26,1.26,0,0,0,.15-.52Z"/><path class="cls-5" d="M197.4,150.73h-3.58l.3,5.64a1.26,1.26,0,0,0,.15.52h3.13Z"/><polygon class="cls-5" points="197.4 143.06 193.41 143.06 193.74 149.22 197.4 149.22 197.4 143.06"/><polygon class="cls-5" points="197.4 135.38 193 135.38 193.33 141.54 197.4 141.54 197.4 135.38"/><polygon class="cls-5" points="197.4 127.7 192.59 127.7 192.92 133.86 197.4 133.86 197.4 127.7"/><polygon class="cls-5" points="206.73 143.06 206.73 149.22 210.39 149.22 210.72 143.06 206.73 143.06"/><polygon class="cls-5" points="206.73 135.38 206.73 141.54 210.8 141.54 211.13 135.38 206.73 135.38"/><polygon class="cls-5" points="206.73 127.7 206.73 133.86 211.21 133.86 211.54 127.7 206.73 127.7"/><ellipse id="_Path_" data-name="&lt;Path&gt;" class="cls-3" cx="119.68" cy="174.47" rx="94.64" ry="5.53"/><path class="cls-8" d="M193.54,91c-3.45,0-7.53-6.31-11.13-11.88a70.25,70.25,0,0,0-7.1-9.77h8.08v-3.9h-9.91a64.41,64.41,0,0,0,5.17-7.27c2.71-4.19,6.07-9.4,8.65-9.4h7.57v-3.9H187.3c-4.7,0-8.21,5.43-11.93,11.18-2.7,4.18-6.07,9.39-8.65,9.39H80.26c-2.58,0-5.94-5.21-8.65-9.39-3.72-5.75-7.23-11.18-11.93-11.18H52.11v3.9h7.57c2.58,0,5.95,5.21,8.65,9.4a64.41,64.41,0,0,0,5.17,7.27H38.4v3.9H77.78a68.66,68.66,0,0,0-7.1,9.77C67.08,84.73,63,91,59.54,91H45.18V95H59.54c5.58,0,9.87-6.64,14.42-13.67,3.6-5.57,7.68-11.89,11.13-11.89H168c3.45,0,7.54,6.32,11.14,11.89C183.67,88.31,188,95,193.54,95H207.9V91Z"/><g class="cls-9"><path class="cls-10" d="M171.68,68.46l-.2.3c2.87,2,5.59,6,8.6,10.62l.3-.19C177.36,74.52,174.62,70.48,171.68,68.46Z"/><path class="cls-10" d="M184.19,84.94l-.3.21a34.32,34.32,0,0,0,4.41,5.35l.25-.27A33.54,33.54,0,0,1,184.19,84.94Z"/><path class="cls-10" d="M181,80.83c.63,1,1.27,2,1.9,2.89l.3-.2c-.63-1-1.26-1.92-1.89-2.89Z"/><path class="cls-10" d="M189.86,91.32l-.22.3a6.61,6.61,0,0,0,3.9,1.45h9.69v-.36h-9.69A6.27,6.27,0,0,1,189.86,91.32Z"/><rect class="cls-10" x="204.97" y="92.71" width="2.93" height="0.37"/><rect class="cls-10" x="38.4" y="67.15" width="2.93" height="0.37"/><rect class="cls-10" x="44.17" y="67.15" width="11.36" height="0.37"/><path class="cls-10" d="M58.37,67.15v.37H81.08v-.37h-.82a4.79,4.79,0,0,1-2.64-.89l-.2.3a6.16,6.16,0,0,0,1.09.59Z"/><rect class="cls-10" x="140.71" y="67.15" width="11.36" height="0.37"/><path class="cls-10" d="M177.62,67.52v-.37h-9.15a6.16,6.16,0,0,0,1.09-.59l-.2-.3a4.79,4.79,0,0,1-2.64.89H154.9v.37H168a5.09,5.09,0,0,1,2,.43l.14-.34a2.34,2.34,0,0,0-.24-.09Z"/><rect class="cls-10" x="132.19" y="67.15" width="5.68" height="0.37"/><rect class="cls-10" x="106.64" y="67.15" width="22.71" height="0.37"/><rect class="cls-10" x="180.46" y="67.15" width="2.93" height="0.37"/><path class="cls-10" d="M176.35,58.41l-.31-.2A41.59,41.59,0,0,1,171,64.94l.26.26A43.26,43.26,0,0,0,176.35,58.41Z"/><path class="cls-10" d="M187.3,47h2.53v-.37H187.3c-3.73,0-7.12,5.23-10.11,9.85l.31.2C180.44,52.09,183.77,47,187.3,47Z"/><rect class="cls-10" x="191.94" y="46.58" width="2.93" height="0.37"/><path class="cls-10" d="M76,64.94a42.17,42.17,0,0,1-5.08-6.73l-.3.2a42.61,42.61,0,0,0,5.12,6.79Z"/><path class="cls-10" d="M69.48,56.63l.31-.2c-3-4.62-6.38-9.85-10.11-9.85H57.15V47h2.53C63.21,47,66.54,52.09,69.48,56.63Z"/><rect class="cls-10" x="52.11" y="46.58" width="2.93" height="0.37"/><polygon class="cls-10" points="92.44 67.15 91.58 67.15 91.58 67.52 92.44 67.52 94.5 67.52 103.8 67.52 103.8 67.15 94.5 67.15 92.44 67.15"/><path class="cls-10" d="M72.7,79.19l.31.19c3-4.63,5.72-8.63,8.6-10.62l-.21-.3C78.47,70.49,75.72,74.52,72.7,79.19Z"/><path class="cls-10" d="M85.09,67.15H83.92v.14a6.58,6.58,0,0,0-1,.32l.14.34a5.13,5.13,0,0,1,2-.43h4.76v-.37H85.09Z"/><path class="cls-10" d="M59.54,92.71H49.85v.36h9.69a6.61,6.61,0,0,0,3.9-1.45l-.21-.3A6.33,6.33,0,0,1,59.54,92.71Z"/><path class="cls-10" d="M69.87,83.52l.3.2c.64-.94,1.27-1.91,1.9-2.89l-.31-.2C71.13,81.6,70.5,82.57,69.87,83.52Z"/><path class="cls-10" d="M64.54,90.23l.25.27a34.89,34.89,0,0,0,4.41-5.35l-.3-.21A34.11,34.11,0,0,1,64.54,90.23Z"/><rect class="cls-10" x="45.18" y="92.71" width="2.93" height="0.37"/></g><path class="cls-11" d="M59.71,83.56H56.13A2.51,2.51,0,0,0,54,84.69l-.53.79a2.31,2.31,0,0,1-1.92,1H42.36a1.5,1.5,0,0,0-1.5,1.5v14.42H61.68V86.51l-.19-1.38A1.8,1.8,0,0,0,59.71,83.56Z"/><path class="cls-12" d="M59.71,83.56H56.13A2.51,2.51,0,0,0,54,84.69l-.53.79a2.31,2.31,0,0,1-1.92,1H42.36a1.5,1.5,0,0,0-1.5,1.5v14.42H61.68V86.51l-.19-1.38A1.8,1.8,0,0,0,59.71,83.56Z"/><rect class="cls-8" x="42.42" y="88.33" width="17.69" height="12.1"/><rect class="cls-13" x="42.42" y="88.33" width="17.69" height="12.1"/><path class="cls-11" d="M61.68,102.43H40.86l-3-11.12a1.32,1.32,0,0,1,1.27-1.68H56.14a2.66,2.66,0,0,1,2.56,2Z"/><path class="cls-14" d="M61.68,102.43H40.86l-3-11.12a1.32,1.32,0,0,1,1.27-1.68H56.14a2.66,2.66,0,0,1,2.56,2Z"/><path class="cls-11" d="M36.71,30.56h3.86a2.72,2.72,0,0,1,2.26,1.22l.56.85a2.5,2.5,0,0,0,2.07,1.11h10A1.62,1.62,0,0,1,57,35.36V49.59a1.32,1.32,0,0,1-1.32,1.32H35.91a1.33,1.33,0,0,1-1.33-1.32V33.74l.2-1.49A1.94,1.94,0,0,1,36.71,30.56Z"/><path class="cls-14" d="M36.71,30.56h3.86a2.72,2.72,0,0,1,2.26,1.22l.56.85a2.5,2.5,0,0,0,2.07,1.11h10A1.62,1.62,0,0,1,57,35.36V49.59a1.32,1.32,0,0,1-1.32,1.32H35.91a1.33,1.33,0,0,1-1.33-1.32V33.74l.2-1.49A1.94,1.94,0,0,1,36.71,30.56Z"/><rect class="cls-8" x="51.01" y="33.74" width="2" height="13.83"/><rect class="cls-15" x="51.01" y="33.74" width="2" height="13.83"/><rect class="cls-8" x="50.53" y="34.4" width="1.53" height="1.14"/><rect class="cls-8" x="50.53" y="36.88" width="1.53" height="1.14"/><rect class="cls-8" x="50.53" y="39.36" width="1.53" height="1.14"/><rect class="cls-8" x="50.53" y="41.84" width="1.53" height="1.14"/><rect class="cls-8" x="50.53" y="44.32" width="1.53" height="1.14"/><rect class="cls-16" x="50.53" y="34.4" width="1.53" height="1.14"/><rect class="cls-16" x="50.53" y="36.88" width="1.53" height="1.14"/><rect class="cls-16" x="50.53" y="39.36" width="1.53" height="1.14"/><rect class="cls-16" x="50.53" y="41.84" width="1.53" height="1.14"/><rect class="cls-16" x="50.53" y="44.32" width="1.53" height="1.14"/><rect class="cls-8" x="52.02" y="35.54" width="1.53" height="1.14"/><rect class="cls-8" x="52.02" y="38.02" width="1.53" height="1.14"/><rect class="cls-8" x="52.02" y="40.5" width="1.53" height="1.14"/><rect class="cls-8" x="52.02" y="42.98" width="1.53" height="1.14"/><rect class="cls-8" x="52.02" y="45.46" width="1.53" height="1.14"/><g class="cls-17"><rect class="cls-10" x="52.02" y="35.54" width="1.53" height="1.14"/><rect class="cls-10" x="52.02" y="38.02" width="1.53" height="1.14"/><rect class="cls-10" x="52.02" y="40.5" width="1.53" height="1.14"/><rect class="cls-10" x="52.02" y="42.98" width="1.53" height="1.14"/><rect class="cls-10" x="52.02" y="45.46" width="1.53" height="1.14"/></g><path class="cls-8" d="M49.87,46.6v4.53h4.39V46.6Zm3.68,3.71H50.64V47.42h2.91Z"/><path class="cls-16" d="M49.87,46.6v4.53h4.39V46.6Zm3.68,3.71H50.64V47.42h2.91Z"/><polygon class="cls-11" points="51.1 56.72 30.76 56.72 30.76 61.25 35.29 65.78 55.63 65.78 55.63 61.25 51.1 56.72"/><polygon class="cls-18" points="51.1 56.72 30.76 56.72 30.76 61.25 35.29 65.78 55.63 65.78 55.63 61.25 51.1 56.72"/><rect class="cls-11" x="35.29" y="65.78" width="20.35" height="4.54"/><rect class="cls-18" x="35.29" y="65.78" width="20.35" height="4.54"/><rect class="cls-11" x="35.29" y="70.31" width="20.35" height="4.54"/><rect class="cls-14" x="35.29" y="70.31" width="20.35" height="4.54"/><rect class="cls-11" x="35.29" y="61.25" width="20.35" height="4.54"/><polygon class="cls-11" points="42.96 74.85 47.53 74.85 47.53 61.25 43 56.72 38.43 56.72 42.96 61.25 42.96 74.85"/><polygon class="cls-19" points="42.96 74.85 47.53 74.85 47.53 61.25 43 56.72 38.43 56.72 42.96 61.25 42.96 74.85"/><path class="cls-8" d="M41.75,64.49v7.12h6.89V64.49Zm5.78,5.82H43V65.78h4.57Z"/><path class="cls-15" d="M41.75,64.49v7.12h6.89V64.49Zm5.78,5.82H43V65.78h4.57Z"/><polygon class="cls-8" points="30.76 56.72 30.76 61.25 35.29 65.78 35.29 61.25 30.76 56.72"/><polygon class="cls-15" points="30.76 56.72 30.76 61.25 35.29 65.78 35.29 61.25 30.76 56.72"/><polygon class="cls-8" points="30.76 61.25 30.76 65.79 35.29 70.31 35.29 65.78 30.76 61.25"/><polygon class="cls-14" points="30.76 61.25 30.76 65.79 35.29 70.31 35.29 65.78 30.76 61.25"/><polygon class="cls-8" points="30.76 65.78 30.76 70.32 35.29 74.85 35.29 70.31 30.76 65.78"/><polygon class="cls-20" points="30.76 65.78 30.76 70.32 35.29 74.85 35.29 70.31 30.76 65.78"/><rect class="cls-11" x="189.62" y="77.58" width="22.19" height="29.86"/><rect class="cls-16" x="189.62" y="77.58" width="22.19" height="29.86"/><rect class="cls-16" x="191.07" y="79.03" width="19.29" height="7.77"/><rect class="cls-16" x="191.07" y="88.62" width="19.29" height="7.77"/><polygon class="cls-11" points="210.36 83.22 208.56 81.03 206.34 83.74 204.12 80.55 201.76 82.91 199.45 81.6 197.34 85.1 195.24 81.6 192.85 82.95 191.07 81.95 191.07 82.78 192.85 83.78 194.98 82.58 197.34 86.5 199.71 82.58 201.89 83.81 204.02 81.67 206.29 84.94 208.56 82.17 210.36 84.37 210.36 83.22"/><polygon class="cls-15" points="210.36 83.22 208.56 81.03 206.34 83.74 204.12 80.55 201.76 82.91 199.45 81.6 197.34 85.1 195.24 81.6 192.85 82.95 191.07 81.95 191.07 82.78 192.85 83.78 194.98 82.58 197.34 86.5 199.71 82.58 201.89 83.81 204.02 81.67 206.29 84.94 208.56 82.17 210.36 84.37 210.36 83.22"/><polygon class="cls-11" points="210.36 90.98 208.55 92.01 206.16 90.66 204.06 94.15 201.95 90.66 199.64 91.96 197.28 89.6 195.06 92.79 192.84 90.08 191.07 92.24 191.07 93.38 192.84 91.23 195.11 94 197.38 90.73 199.52 92.86 201.69 91.64 204.06 95.56 206.42 91.64 208.55 92.84 210.36 91.82 210.36 90.98"/><polygon class="cls-15" points="210.36 90.98 208.55 92.01 206.16 90.66 204.06 94.15 201.95 90.66 199.64 91.96 197.28 89.6 195.06 92.79 192.84 90.08 191.07 92.24 191.07 93.38 192.84 91.23 195.11 94 197.38 90.73 199.52 92.86 201.69 91.64 204.06 95.56 206.42 91.64 208.55 92.84 210.36 91.82 210.36 90.98"/><path class="cls-8" d="M199,98.58h11.05a.36.36,0,0,0,0-.72H199a.36.36,0,0,0,0,.72Z"/><path class="cls-8" d="M199,100.55h9.6a.36.36,0,0,0,0-.72H199a.36.36,0,0,0,0,.72Z"/><path class="cls-8" d="M199,102.53h9.6a.37.37,0,0,0,0-.73H199a.37.37,0,0,0,0,.73Z"/><path class="cls-8" d="M199,104.5h10.09a.36.36,0,0,0,0-.72H199a.36.36,0,0,0,0,.72Z"/><g class="cls-9"><path class="cls-10" d="M199,98.58h11.05a.36.36,0,0,0,0-.72H199a.36.36,0,0,0,0,.72Z"/><path class="cls-10" d="M199,100.55h9.6a.36.36,0,0,0,0-.72H199a.36.36,0,0,0,0,.72Z"/><path class="cls-10" d="M199,102.53h9.6a.37.37,0,0,0,0-.73H199a.37.37,0,0,0,0,.73Z"/><path class="cls-10" d="M199,104.5h10.09a.36.36,0,0,0,0-.72H199a.36.36,0,0,0,0,.72Z"/></g><rect class="cls-11" x="190.51" y="31.65" width="20.17" height="27.15"/><rect class="cls-14" x="190.51" y="31.65" width="20.17" height="27.15"/><rect class="cls-16" x="191.82" y="32.96" width="17.54" height="7.07"/><path class="cls-8" d="M199.12,42.15h10a.33.33,0,0,0,0-.66h-10a.33.33,0,0,0,0,.66Z"/><path class="cls-8" d="M199.12,44h8.73a.33.33,0,0,0,0-.66h-8.73a.33.33,0,0,0,0,.66Z"/><path class="cls-8" d="M199.12,45.74h8.73a.33.33,0,0,0,0-.66h-8.73a.33.33,0,0,0,0,.66Z"/><path class="cls-8" d="M199.12,47.54h9.17a.33.33,0,0,0,0-.66h-9.17a.33.33,0,0,0,0,.66Z"/><path class="cls-8" d="M199.12,49.33h7.41a.33.33,0,0,0,0-.66h-7.41a.33.33,0,0,0,0,.66Z"/><path class="cls-8" d="M199.12,51.12h10a.33.33,0,0,0,0-.66h-10a.33.33,0,0,0,0,.66Z"/><path class="cls-8" d="M199.12,52.92h8.73a.33.33,0,0,0,0-.66h-8.73a.33.33,0,0,0,0,.66Z"/><path class="cls-8" d="M199.12,54.71h8.73a.33.33,0,0,0,0-.66h-8.73a.33.33,0,0,0,0,.66Z"/><path class="cls-8" d="M199.12,56.5h9.17a.33.33,0,0,0,0-.65h-9.17a.33.33,0,0,0,0,.65Z"/><g class="cls-9"><path class="cls-10" d="M199.12,42.15h10a.33.33,0,0,0,0-.66h-10a.33.33,0,0,0,0,.66Z"/></g><g class="cls-9"><path class="cls-10" d="M199.12,44h8.73a.33.33,0,0,0,0-.66h-8.73a.33.33,0,0,0,0,.66Z"/></g><g class="cls-9"><path class="cls-10" d="M199.12,45.74h8.73a.33.33,0,0,0,0-.66h-8.73a.33.33,0,0,0,0,.66Z"/></g><g class="cls-9"><path class="cls-10" d="M199.12,47.54h9.17a.33.33,0,0,0,0-.66h-9.17a.33.33,0,0,0,0,.66Z"/></g><g class="cls-9"><path class="cls-10" d="M199.12,49.33h7.41a.33.33,0,0,0,0-.66h-7.41a.33.33,0,0,0,0,.66Z"/></g><g class="cls-9"><path class="cls-10" d="M199.12,51.12h10a.33.33,0,0,0,0-.66h-10a.33.33,0,0,0,0,.66Z"/></g><g class="cls-9"><path class="cls-10" d="M199.12,52.92h8.73a.33.33,0,0,0,0-.66h-8.73a.33.33,0,0,0,0,.66Z"/></g><g class="cls-9"><path class="cls-10" d="M199.12,54.71h8.73a.33.33,0,0,0,0-.66h-8.73a.33.33,0,0,0,0,.66Z"/></g><g class="cls-9"><path class="cls-10" d="M199.12,56.5h9.17a.33.33,0,0,0,0-.65h-9.17a.33.33,0,0,0,0,.65Z"/></g><rect class="cls-11" x="191.82" y="41.82" width="4.94" height="4.94"/><rect class="cls-18" x="191.82" y="41.82" width="4.94" height="4.94"/><rect class="cls-11" x="195.91" y="36.71" width="1.34" height="2.68"/><rect class="cls-11" x="198.59" y="35.37" width="1.34" height="4.01"/><rect class="cls-11" x="201.26" y="36.04" width="1.34" height="3.35"/><rect class="cls-11" x="203.94" y="34.04" width="1.34" height="5.35"/><rect class="cls-11" x="180.63" y="54.2" width="20.17" height="27.15"/><rect class="cls-20" x="180.63" y="54.2" width="20.17" height="27.15"/><path class="cls-8" d="M189.24,57.11h10a.33.33,0,0,0,0-.66h-10a.33.33,0,0,0,0,.66Z"/><path class="cls-8" d="M189.24,58.9H198a.33.33,0,0,0,0-.66h-8.73a.33.33,0,0,0,0,.66Z"/><path class="cls-8" d="M189.24,60.7H198a.33.33,0,0,0,0-.66h-8.73a.33.33,0,0,0,0,.66Z"/><path class="cls-8" d="M189.24,62.49h9.17a.33.33,0,0,0,0-.66h-9.17a.33.33,0,0,0,0,.66Z"/><path class="cls-8" d="M189.24,64.29h7.41a.33.33,0,0,0,0-.66h-7.41a.33.33,0,0,0,0,.66Z"/><path class="cls-8" d="M189.24,66.08h10a.33.33,0,0,0,0-.66h-10a.33.33,0,0,0,0,.66Z"/><path class="cls-8" d="M189.24,67.87H198a.33.33,0,0,0,0-.66h-8.73a.33.33,0,0,0,0,.66Z"/><path class="cls-8" d="M189.24,69.67H198a.33.33,0,0,0,0-.66h-8.73a.33.33,0,0,0,0,.66Z"/><path class="cls-8" d="M189.24,73.26h7.41a.33.33,0,0,0,0-.66h-7.41a.33.33,0,0,0,0,.66Z"/><path class="cls-8" d="M189.24,75.05h10a.33.33,0,0,0,0-.66h-10a.33.33,0,0,0,0,.66Z"/><path class="cls-8" d="M189.24,76.84H198a.33.33,0,0,0,0-.66h-8.73a.33.33,0,0,0,0,.66Z"/><path class="cls-8" d="M189.24,78.64H198a.33.33,0,0,0,0-.66h-8.73a.33.33,0,0,0,0,.66Z"/><path class="cls-8" d="M189.24,71.46h9.17a.33.33,0,0,0,0-.66h-9.17a.33.33,0,0,0,0,.66Z"/><g class="cls-9"><path class="cls-10" d="M189.24,57.11h10a.33.33,0,0,0,0-.66h-10a.33.33,0,0,0,0,.66Z"/><path class="cls-10" d="M189.24,58.9H198a.33.33,0,0,0,0-.66h-8.73a.33.33,0,0,0,0,.66Z"/><path class="cls-10" d="M189.24,60.7H198a.33.33,0,0,0,0-.66h-8.73a.33.33,0,0,0,0,.66Z"/><path class="cls-10" d="M189.24,62.49h9.17a.33.33,0,0,0,0-.66h-9.17a.33.33,0,0,0,0,.66Z"/><path class="cls-10" d="M189.24,64.29h7.41a.33.33,0,0,0,0-.66h-7.41a.33.33,0,0,0,0,.66Z"/><path class="cls-10" d="M189.24,66.08h10a.33.33,0,0,0,0-.66h-10a.33.33,0,0,0,0,.66Z"/><path class="cls-10" d="M189.24,67.87H198a.33.33,0,0,0,0-.66h-8.73a.33.33,0,0,0,0,.66Z"/><path class="cls-10" d="M189.24,69.67H198a.33.33,0,0,0,0-.66h-8.73a.33.33,0,0,0,0,.66Z"/><path class="cls-10" d="M189.24,73.26h7.41a.33.33,0,0,0,0-.66h-7.41a.33.33,0,0,0,0,.66Z"/><path class="cls-10" d="M189.24,75.05h10a.33.33,0,0,0,0-.66h-10a.33.33,0,0,0,0,.66Z"/><path class="cls-10" d="M189.24,76.84H198a.33.33,0,0,0,0-.66h-8.73a.33.33,0,0,0,0,.66Z"/><path class="cls-10" d="M189.24,78.64H198a.33.33,0,0,0,0-.66h-8.73a.33.33,0,0,0,0,.66Z"/><path class="cls-10" d="M189.24,71.46h9.17a.33.33,0,0,0,0-.66h-9.17a.33.33,0,0,0,0,.66Z"/></g><path class="cls-11" d="M183.72,66.2l-.79-.8a3,3,0,0,0-.89,2.14h1.12A1.91,1.91,0,0,1,183.72,66.2Z"/><path class="cls-11" d="M185.07,69.45a1.92,1.92,0,0,1-1.91-1.91H182a3,3,0,0,0,3,3Z"/><path class="cls-18" d="M185.07,69.45a1.92,1.92,0,0,1-1.91-1.91H182a3,3,0,0,0,3,3Z"/><path class="cls-11" d="M183.72,66.2a1.89,1.89,0,0,1,1.35-.56V64.51a3,3,0,0,0-2.14.89Z"/><path class="cls-21" d="M183.72,66.2a1.89,1.89,0,0,1,1.35-.56V64.51a3,3,0,0,0-2.14.89Z"/><path class="cls-11" d="M187,67.54a1.91,1.91,0,0,1-1.9,1.91v1.12a3,3,0,1,0,0-6.06v1.13A1.9,1.9,0,0,1,187,67.54Z"/><path class="cls-19" d="M186.41,68.89l.8.8a3,3,0,0,0,.89-2.15H187A1.89,1.89,0,0,1,186.41,68.89Z"/><path class="cls-11" d="M183.72,60.48l-.79.79a3,3,0,0,0,2.14.89V61A1.93,1.93,0,0,1,183.72,60.48Z"/><path class="cls-11" d="M187,59.13a1.91,1.91,0,0,1-1.9,1.91v1.12a3,3,0,0,0,3-3Z"/><path class="cls-18" d="M187,59.13a1.91,1.91,0,0,1-1.9,1.91v1.12a3,3,0,0,0,3-3Z"/><path class="cls-11" d="M183.72,60.48a1.93,1.93,0,0,1-.56-1.35H182a3,3,0,0,0,.89,2.14Z"/><path class="cls-21" d="M183.72,60.48a1.93,1.93,0,0,1-.56-1.35H182a3,3,0,0,0,.89,2.14Z"/><path class="cls-11" d="M185.07,57.23a1.9,1.9,0,0,1,1.9,1.9h1.13a3,3,0,1,0-6.06,0h1.12A1.91,1.91,0,0,1,185.07,57.23Z"/><path class="cls-19" d="M186.41,57.79l.8-.8a3,3,0,0,0-2.14-.89v1.13A1.87,1.87,0,0,1,186.41,57.79Z"/><path class="cls-11" d="M186.41,74.61l.8-.8A3,3,0,0,1,188.1,76H187A1.87,1.87,0,0,0,186.41,74.61Z"/><path class="cls-11" d="M185.07,77.86A1.9,1.9,0,0,0,187,76h1.13a3,3,0,0,1-3,3Z"/><path class="cls-18" d="M185.07,77.86A1.9,1.9,0,0,0,187,76h1.13a3,3,0,0,1-3,3Z"/><path class="cls-11" d="M186.41,74.61a1.87,1.87,0,0,0-1.34-.56V72.93a3,3,0,0,1,2.14.88Z"/><path class="cls-21" d="M186.41,74.61a1.87,1.87,0,0,0-1.34-.56V72.93a3,3,0,0,1,2.14.88Z"/><path class="cls-11" d="M183.16,76a1.91,1.91,0,0,0,1.91,1.91V79a3,3,0,1,1,0-6v1.12A1.91,1.91,0,0,0,183.16,76Z"/><path class="cls-19" d="M183.72,77.3l-.79.8A3,3,0,0,1,182,76h1.12A1.91,1.91,0,0,0,183.72,77.3Z"/><path class="cls-8" d="M128.1,108.26h11.63a1.47,1.47,0,0,1,1.47,1.47v.37a1.47,1.47,0,0,1-1.47,1.47H128.1a0,0,0,0,1,0,0v-3.31A0,0,0,0,1,128.1,108.26Z"/><rect x="103.82" y="108.26" width="27.53" height="3.31" rx="1.47"/><rect class="cls-15" x="103.82" y="108.26" width="27.53" height="3.31" rx="1.47"/><polygon class="cls-8" points="124.63 108.26 130.99 108.26 126.92 93.03 124.63 93.03 124.63 108.26"/><polygon points="130.06 108.26 117.07 108.26 115.78 93.03 125.99 93.03 130.06 108.26"/><polygon class="cls-18" points="130.06 108.26 117.07 108.26 115.78 93.03 125.99 93.03 130.06 108.26"/><path class="cls-8" d="M162.79,49.27h-5.9l-4.58,52.26h5.91a2.48,2.48,0,0,0,2.43-2.24l4.18-47.78A2,2,0,0,0,162.79,49.27Z"/><path class="cls-8" d="M156.86,101.53H85.36a2,2,0,0,1-2-2.24L87.5,51.51a2.48,2.48,0,0,1,2.43-2.24h71.5a2,2,0,0,1,2,2.24l-4.18,47.78A2.49,2.49,0,0,1,156.86,101.53Z"/><path class="cls-16" d="M156.86,101.53H85.36a2,2,0,0,1-2-2.24L87.5,51.51a2.48,2.48,0,0,1,2.43-2.24h71.5a2,2,0,0,1,2,2.24l-4.18,47.78A2.49,2.49,0,0,1,156.86,101.53Z"/><path class="cls-22" d="M155,95.43H88.33a1.75,1.75,0,0,1-1.77-1.94L90,53.78a2.15,2.15,0,0,1,2.11-1.94h66.61a1.75,1.75,0,0,1,1.77,1.94l-3.47,39.71A2.16,2.16,0,0,1,155,95.43Z"/><polygon class="cls-11" points="137.51 65.86 135.18 65.86 135.59 61.2 137.92 61.2 137.51 65.86"/><polygon class="cls-19" points="137.51 65.86 135.18 65.86 135.59 61.2 137.92 61.2 137.51 65.86"/><polygon class="cls-11" points="142.17 65.86 139.84 65.86 140.45 58.87 142.78 58.87 142.17 65.86"/><polygon class="cls-11" points="146.83 65.86 144.5 65.86 145.01 60.04 147.34 60.04 146.83 65.86"/><polygon class="cls-11" points="151.49 65.86 149.16 65.86 149.98 56.54 152.31 56.54 151.49 65.86"/><polygon class="cls-23" points="151.49 65.86 149.16 65.86 149.98 56.54 152.31 56.54 151.49 65.86"/><path class="cls-11" d="M153.82,65.43h-20.5c.26-3,.52-5.93.77-8.89,0-.55-.81-.55-.86,0l-.81,9.32a.43.43,0,0,0,.43.43h21A.43.43,0,0,0,153.82,65.43Z"/><path class="cls-15" d="M153.82,65.43h-20.5c.26-3,.52-5.93.77-8.89,0-.55-.81-.55-.86,0l-.81,9.32a.43.43,0,0,0,.43.43h21A.43.43,0,0,0,153.82,65.43Z"/><path class="cls-11" d="M99.07,63.34l-1.52,1.4a4.83,4.83,0,0,0,3.62,1.55l.17-2A3,3,0,0,1,99.07,63.34Z"/><path class="cls-21" d="M99.07,63.34l-1.52,1.4a4.83,4.83,0,0,0,3.62,1.55l.17-2A3,3,0,0,1,99.07,63.34Z"/><path class="cls-11" d="M105,61a3.72,3.72,0,0,1-3.63,3.34l-.17,2A5.92,5.92,0,0,0,107,61Z"/><path class="cls-24" d="M105,61a3.72,3.72,0,0,1-3.63,3.34l-.17,2A5.92,5.92,0,0,0,107,61Z"/><path class="cls-11" d="M99.07,63.34A3.05,3.05,0,0,1,98.29,61h-2a4.88,4.88,0,0,0,1.23,3.76Z"/><path class="cls-11" d="M101.93,57.64A3,3,0,0,1,105,61h2a4.8,4.8,0,0,0-4.85-5.32A5.92,5.92,0,0,0,96.32,61h2A3.72,3.72,0,0,1,101.93,57.64Z"/><path class="cls-12" d="M101.93,57.64A3,3,0,0,1,105,61h2a4.8,4.8,0,0,0-4.85-5.32A5.92,5.92,0,0,0,96.32,61h2A3.72,3.72,0,0,1,101.93,57.64Z"/><path class="cls-14" d="M104.2,58.62l1.52-1.4a4.85,4.85,0,0,0-3.62-1.56l-.17,2A3,3,0,0,1,104.2,58.62Z"/><path class="cls-11" d="M113.87,63.34l-1.52,1.4A4.83,4.83,0,0,0,116,66.29l.17-2A3,3,0,0,1,113.87,63.34Z"/><path class="cls-21" d="M113.87,63.34l-1.52,1.4A4.83,4.83,0,0,0,116,66.29l.17-2A3,3,0,0,1,113.87,63.34Z"/><path class="cls-11" d="M119.77,61a3.72,3.72,0,0,1-3.63,3.34l-.17,2A5.92,5.92,0,0,0,121.75,61Z"/><path class="cls-24" d="M119.77,61a3.72,3.72,0,0,1-3.63,3.34l-.17,2A5.92,5.92,0,0,0,121.75,61Z"/><path class="cls-11" d="M113.87,63.34a3.05,3.05,0,0,1-.78-2.36h-2a4.88,4.88,0,0,0,1.23,3.76Z"/><path class="cls-11" d="M116.73,57.64a3,3,0,0,1,3,3.34h2a4.8,4.8,0,0,0-4.85-5.32A5.92,5.92,0,0,0,111.12,61h2A3.72,3.72,0,0,1,116.73,57.64Z"/><path class="cls-12" d="M116.73,57.64a3,3,0,0,1,3,3.34h2a4.8,4.8,0,0,0-4.85-5.32A5.92,5.92,0,0,0,111.12,61h2A3.72,3.72,0,0,1,116.73,57.64Z"/><path class="cls-14" d="M119,58.62l1.52-1.4a4.85,4.85,0,0,0-3.62-1.56l-.17,2A3,3,0,0,1,119,58.62Z"/><path class="cls-11" d="M136.1,83.15h-2.78l.24-2.78h2.78Zm-2.12-.6h1.57l.14-1.58h-1.58Z"/><path class="cls-11" d="M135.73,87.39H133l.24-2.79H136Zm-2.12-.61h1.57l.14-1.57h-1.58Z"/><path class="cls-11" d="M135.36,91.62h-2.78l.24-2.78h2.78Zm-2.12-.6h1.57l.13-1.58h-1.57Z"/><path class="cls-11" d="M138,82.5a.62.62,0,0,1-.62-.68.76.76,0,0,1,.74-.68h9.31a.62.62,0,0,1,.62.68.76.76,0,0,1-.74.68Z"/><path class="cls-16" d="M138,82.5a.62.62,0,0,1-.62-.68.76.76,0,0,1,.74-.68h9.31a.62.62,0,0,1,.62.68.76.76,0,0,1-.74.68Z"/><path class="cls-11" d="M137.3,90.91a.6.6,0,0,1-.62-.68.75.75,0,0,1,.73-.68h7.8a.61.61,0,0,1,.62.68.75.75,0,0,1-.74.68Z"/><path class="cls-25" d="M137.3,90.91a.6.6,0,0,1-.62-.68.75.75,0,0,1,.73-.68h7.8a.61.61,0,0,1,.62.68.75.75,0,0,1-.74.68Z"/><path class="cls-11" d="M137.67,86.67a.6.6,0,0,1-.62-.67.75.75,0,0,1,.73-.68H145a.61.61,0,0,1,.62.68.75.75,0,0,1-.74.67Z"/><path class="cls-12" d="M137.67,86.67a.6.6,0,0,1-.62-.67.75.75,0,0,1,.73-.68H145a.61.61,0,0,1,.62.68.75.75,0,0,1-.74.67Z"/><path class="cls-11" d="M128.64,87.18l-2.11-2.87a.43.43,0,0,0-.68-.09l-2.23,2.46-1.76-2.89a.44.44,0,0,0-.68-.09c-.77.71-1.52,1.44-2.31,2.13-.24-.13-.46-.27-.69-.41l-1.28-.75a.44.44,0,0,0-.59.15l-2.26,3.27-1.68-3.27a.43.43,0,0,0-.59-.15l-1.08.58a10.31,10.31,0,0,0-1.16.65,7,7,0,0,0-.94-.56l-1.12-.67a.43.43,0,0,0-.44.75c.62.37,1.73,1.4,2.47,1.4a5.78,5.78,0,0,0,2.31-1.16l1.8,3.49a.45.45,0,0,0,.76,0l2.43-3.53,1.89,1.12a.44.44,0,0,0,.53-.06l2.16-2,1.78,2.93a.44.44,0,0,0,.68.09l2.27-2.5,1.76,2.41C128.21,88.07,129,87.63,128.64,87.18Z"/><path class="cls-11" d="M127.93,90.75H107.19c.26-3,.53-6,.79-9,0-.56-.82-.56-.87,0l-.83,9.43a.44.44,0,0,0,.44.43h21.21A.44.44,0,0,0,127.93,90.75Z"/><path class="cls-15" d="M127.93,90.75H107.19c.26-3,.53-6,.79-9,0-.56-.82-.56-.87,0l-.83,9.43a.44.44,0,0,0,.44.43h21.21A.44.44,0,0,0,127.93,90.75Z"/><polygon class="cls-11" points="150.51 77.97 113.5 77.97 114.32 68.53 151.34 68.53 150.51 77.97"/><polygon class="cls-13" points="150.51 77.97 113.5 77.97 114.32 68.53 151.34 68.53 150.51 77.97"/><path class="cls-8" d="M151.17,78.69H112.72l1-10.88h38.45Zm-36.89-1.44h35.57l.7-8H115Z"/><path class="cls-11" d="M121.86,74.52l-.07.74h-3.12l.35-4h3L122,72h-2.11l-.08.88h1.87l-.06.72h-1.88l-.08.94Z"/><path class="cls-11" d="M125,75.26l-.85-1.39-1.08,1.39H122l1.67-2.05-1.24-2h1.06l.81,1.31,1-1.31h1l-1.57,2,1.32,2.08Z"/><path class="cls-11" d="M127.55,72h-1.29l.07-.76h3.51l-.06.76h-1.29l-.29,3.27h-.93Z"/><path class="cls-11" d="M132.56,75.26l-.68-1.12H131l-.1,1.12H130l.35-4h1.75a2.11,2.11,0,0,1,.91.18,1.21,1.21,0,0,1,.56.51,1.25,1.25,0,0,1,.15.78,1.52,1.52,0,0,1-.28.77,1.66,1.66,0,0,1-.66.5l.79,1.29Zm0-3.08A.85.85,0,0,0,132,72h-.76l-.12,1.41h.76a1,1,0,0,0,.65-.19.68.68,0,0,0,.27-.51A.6.6,0,0,0,132.59,72.18Z"/><path class="cls-11" d="M137,74.4h-1.87l-.43.86h-1l2.15-4h.92l1.45,4h-1Zm-.23-.71-.5-1.54-.78,1.54Z"/><path class="cls-11" d="M139.41,75.07a1.74,1.74,0,0,1-.72-.75,1.89,1.89,0,0,1-.19-1.07,2.09,2.09,0,0,1,.38-1.07,2.25,2.25,0,0,1,.84-.75,2.46,2.46,0,0,1,1.15-.26,2.27,2.27,0,0,1,.93.18,1.64,1.64,0,0,1,.66.53l-.64.55a1.19,1.19,0,0,0-1-.47,1.42,1.42,0,0,0-.68.16,1.47,1.47,0,0,0-.5.46,1.52,1.52,0,0,0-.22.67,1.24,1.24,0,0,0,.11.67,1.07,1.07,0,0,0,.41.46,1.41,1.41,0,0,0,1.71-.32l.55.55a2,2,0,0,1-.76.54,2.49,2.49,0,0,1-1,.18A2.25,2.25,0,0,1,139.41,75.07Z"/><path class="cls-11" d="M143.87,72h-1.28l.06-.76h3.51l-.06.76h-1.29l-.29,3.27h-.93Z"/><rect class="cls-11" x="76.52" y="114.89" width="100.37" height="56.12"/><rect class="cls-11" x="69.11" y="114.89" width="9.36" height="56.12" transform="translate(147.58 285.9) rotate(180)"/><rect class="cls-18" x="69.11" y="114.89" width="9.36" height="56.12" transform="translate(147.58 285.9) rotate(180)"/><rect class="cls-11" x="67.14" y="114.89" width="102.78" height="4.97"/><rect class="cls-14" x="67.14" y="114.89" width="102.78" height="4.97"/><rect class="cls-11" x="65.18" y="114.89" width="3.93" height="56.12"/><rect class="cls-15" x="65.18" y="114.89" width="3.93" height="56.12"/><rect class="cls-11" x="172.66" y="114.89" width="9.36" height="56.12" transform="translate(354.69 285.9) rotate(180)"/><rect class="cls-18" x="172.66" y="114.89" width="9.36" height="56.12" transform="translate(354.69 285.9) rotate(180)"/><rect class="cls-11" x="175.89" y="111.65" width="8.49" height="4.31" transform="translate(360.27 227.62) rotate(180)"/><rect class="cls-18" x="175.89" y="111.65" width="8.49" height="4.31" transform="translate(360.27 227.62) rotate(180)"/><rect class="cls-11" x="123.65" y="122.54" width="42.4" height="48.47"/><rect class="cls-15" x="123.65" y="122.54" width="42.4" height="48.47"/><rect class="cls-11" x="166.05" y="122.54" width="2.68" height="48.47"/><rect class="cls-12" x="166.05" y="122.54" width="2.68" height="48.47"/><rect class="cls-11" x="126.33" y="138.46" width="37.05" height="11.21"/><rect class="cls-11" x="126.33" y="125.18" width="37.05" height="11.21"/><rect class="cls-11" x="126.33" y="151.74" width="37.05" height="11.21"/><g class="cls-26"><rect class="cls-10" x="126.33" y="138.46" width="37.05" height="11.21"/><rect class="cls-10" x="126.33" y="125.18" width="37.05" height="11.21"/><rect class="cls-10" x="126.33" y="151.74" width="37.05" height="11.21"/></g><rect class="cls-11" x="168.73" y="114.89" width="3.93" height="56.12"/><rect class="cls-27" x="76.52" y="114.89" width="100.37" height="56.12"/><rect class="cls-15" x="168.73" y="114.89" width="3.93" height="56.12"/><rect class="cls-11" x="61.95" y="111.65" width="113.94" height="4.31"/><rect class="cls-14" x="61.95" y="111.65" width="113.94" height="4.31"/><path class="cls-11" d="M145,129.57h-1.29a1.22,1.22,0,1,0,0,2.43H145a1.22,1.22,0,1,0,0-2.43Z"/><path class="cls-11" d="M145,142.85h-1.29a1.22,1.22,0,0,0,0,2.44H145a1.22,1.22,0,0,0,0-2.44Z"/><path class="cls-11" d="M145,156.13h-1.29a1.22,1.22,0,0,0,0,2.44H145a1.22,1.22,0,0,0,0-2.44Z"/><path class="cls-28" d="M144.89,130.79a1.22,1.22,0,1,1-1.22-1.22A1.21,1.21,0,0,1,144.89,130.79Z"/><path class="cls-28" d="M144.89,144.07a1.22,1.22,0,1,1-1.22-1.22A1.22,1.22,0,0,1,144.89,144.07Z"/><path class="cls-28" d="M144.89,157.35a1.22,1.22,0,1,1-1.22-1.22A1.22,1.22,0,0,1,144.89,157.35Z"/><path class="cls-29" d="M102.18,62.56c-.69,1,.84,4.12.84,4.12l-6.92.84L97.45,60S103,61.39,102.18,62.56Z"/><path class="cls-19" d="M102.07,64a2,2,0,0,1,.11-1.41c.51-.73-1.44-1.55-3-2.07A9,9,0,0,0,102.07,64Z"/><polygon class="cls-29" points="118.87 165.73 119.61 172.78 116.36 173.39 114.41 166.59 118.87 165.73"/><path class="cls-8" d="M119.54,171.58l-3.82.76a.32.32,0,0,0-.26.3l-.06,3.25a.52.52,0,0,0,.5.54H116c1.38-.3,2.59-.62,4.3-1,2-.4,1.56-.06,4-.5,1.44-.27,1.37-1.95.75-1.91-2.86.21-3.31-.57-4.59-1.35A1.17,1.17,0,0,0,119.54,171.58Z"/><polygon class="cls-19" points="115.7 171.08 119.38 170.6 118.87 165.73 114.41 166.59 115.7 171.08"/><polygon class="cls-29" points="90.75 164.3 88.54 173.04 85.42 172.6 86.25 164.05 90.75 164.3"/><path class="cls-8" d="M89,171.94l-3.88-.27a.32.32,0,0,0-.33.22L83.82,175a.52.52,0,0,0,.34.65l.11,0c1.41.07,2.66.08,4.4.21,2.06.14,1.52.35,3.94.56,1.46.12,1.84-1.52,1.23-1.64-2.81-.56-3-1.43-4.06-2.52A1.25,1.25,0,0,0,89,171.94Z"/><path class="cls-19" d="M85.61,170.62l3.41.52,1.63-6.44-4.42-.45Z"/><path class="cls-8" d="M94.13,97.42s-1.08,3.12-1.23,10.72c-.1,4.55-.54,11.74-.88,16.79-.1,1.48-.19,2.78-.27,3.77a11.86,11.86,0,0,1-.87,3.66c-.33.81-.75,1.92-1.18,3.3a53.63,53.63,0,0,0-1.87,8.6c-1.13,8.52-2.44,25-2.44,25l4.22.54L100,131.37l11.06-34Z"/><path class="cls-19" d="M105.14,115.75l-.45-3.35-3.62-3.05-1.21-.6A40.73,40.73,0,0,1,102,125.17Z"/><path class="cls-8" d="M114.35,97.57,119.42,169l-4.29.73S109.39,150,108.41,139a29,29,0,0,1-.12-3.49,13.57,13.57,0,0,0-.58-4.39l-.61-2-3.38-11.45a19.44,19.44,0,0,0-3.35-6.62c-1.76-2.22-3.94-6.52-3-13.67l15.89-1.1Z"/><path class="cls-29" d="M98.47,93.06a19.39,19.39,0,0,1,3.29-.42,15.89,15.89,0,0,1,2.64.86,1.14,1.14,0,0,1,.42,1.92s-1.35,1.74-2,1.88c-1.35.28-5.23-1.79-5.23-1.79Z"/><polygon class="cls-8" points="98.35 91.88 96.98 96.3 98.29 96.41 99.5 92.55 98.35 91.88"/><polygon class="cls-12" points="98.35 91.88 96.98 96.3 98.29 96.41 99.5 92.55 98.35 91.88"/><path class="cls-11" d="M90.24,70.84a1.43,1.43,0,0,0-2.43.28c-1.54,3.29-5.42,12-5.43,16.25,0,5.28,15.49,8.4,15.49,8.4l.94-3L88.13,86.18l3.07-7.24S92,73.21,90.24,70.84Z"/><path class="cls-24" d="M90.24,70.84a1.43,1.43,0,0,0-2.43.28c-1.54,3.29-5.42,12-5.43,16.25,0,5.28,15.49,8.4,15.49,8.4l.94-3L88.13,86.18l3.07-7.24S92,73.21,90.24,70.84Z"/><g class="cls-9"><path d="M90.55,71.36l-1.67.23-1,.69L89.06,84l2.14-5S91.87,74,90.55,71.36Z"/><path d="M93.78,89.65l-4.43-2.73L90,93.5c.92.35,1.85.66,2.73.93Z"/></g><path class="cls-11" d="M114.12,97.54S106.48,100,94,98L88,72.73a4.39,4.39,0,0,1,2.2-4.8c2.57-1.42,7.67-2.76,17.72-2.2A5.59,5.59,0,0,1,113,70Z"/><path class="cls-8" d="M94.05,66.79,94.81,65s3-1.52,8.12-.8l1.22,1.4A58.06,58.06,0,0,0,94.05,66.79Z"/><path class="cls-8" d="M105.8,53.67c.07.28,0,.55-.21.59s-.42-.16-.48-.44,0-.55.22-.59S105.73,53.38,105.8,53.67Z"/><path class="cls-30" d="M105.54,54.53l2,1.9a2.07,2.07,0,0,1-1.77.56Z"/><path class="cls-29" d="M94.42,54.94c.74,3.83,1,5.46,3.23,7.21,3.3,1.65,8,.92,8.47-3,.39-3.56-.89-9.21-5-10.31a5.43,5.43,0,0,0-6.67,3.7A5.16,5.16,0,0,0,94.42,54.94Z"/><path class="cls-8" d="M104.37,52.77a.17.17,0,0,0,.13-.07,1.17,1.17,0,0,1,1-.55.16.16,0,0,0,.16-.15.16.16,0,0,0-.16-.16,1.51,1.51,0,0,0-1.22.69.16.16,0,0,0,0,.21h0A.14.14,0,0,0,104.37,52.77Z"/><path class="cls-23" d="M113.86,85.08l-.51-9.26L110,71.44l-1.81-1.68-1.4,1S107,75.84,113.86,85.08Z"/><path class="cls-11" d="M114.94,71.92c1.83,3.37,2.54,5.36,3.17,6.19a.36.36,0,0,0,.36.15l10.71-1.55a.38.38,0,0,1,.42.25l.86,2.66a.38.38,0,0,1-.24.48l-10,3.4a5.22,5.22,0,0,1-5.35-.94,28.33,28.33,0,0,1-6.83-9c-.77-1.52-2.56-4.34.38-6.82C110.82,64.71,113.72,69.68,114.94,71.92Z"/><path class="cls-27" d="M114.94,71.92c1.83,3.37,2.54,5.36,3.17,6.19a.36.36,0,0,0,.36.15l10.71-1.55a.38.38,0,0,1,.42.25l.86,2.66a.38.38,0,0,1-.24.48l-10,3.4a5.22,5.22,0,0,1-5.35-.94,28.33,28.33,0,0,1-6.83-9c-.77-1.52-2.56-4.34.38-6.82C110.82,64.71,113.72,69.68,114.94,71.92Z"/><path class="cls-29" d="M129.49,77l2.21-2.6a2,2,0,0,1,.91-.59l5.2-1.51a.38.38,0,0,1,.45.2h0a.38.38,0,0,1-.2.52l-2.15.88a.37.37,0,0,0-.23.38l.1,1.3a1.88,1.88,0,0,1-1.1,1.88l-1.56.71-.18.07-2.68.9a.38.38,0,0,1-.5-.27l-.35-1.54A.36.36,0,0,1,129.49,77Z"/><path class="cls-8" d="M128.85,76.69,130.17,80a.37.37,0,0,0,.52.2l.44-.21a.38.38,0,0,0,.19-.48l-1.26-3.21a.38.38,0,0,0-.41-.23l-.5.07A.38.38,0,0,0,128.85,76.69Z"/><polygon class="cls-11" points="114.29 168.7 114.95 170.47 120.02 169.68 119.87 167.81 114.29 168.7"/><polygon class="cls-19" points="114.29 168.7 114.95 170.47 120.02 169.68 119.87 167.81 114.29 168.7"/><polygon class="cls-11" points="84.94 167.99 84.86 169.84 89.94 170.52 90.33 168.68 84.94 167.99"/><polygon class="cls-19" points="84.94 167.99 84.86 169.84 89.94 170.52 90.33 168.68 84.94 167.99"/><path class="cls-8" d="M97,62.26s.57-.8,2.28.13c0,0,2.42-2.72,2.5-5.26,0,0,1.79-.33,1.64-1.49s-1-2.67-.82-3.72,1.92-3.8.44-5-1.65.24-2.49.39-5.9.34-6.55,3.93a4.92,4.92,0,0,0-.34,6.08C95.91,60.71,97,62.26,97,62.26Z"/><path class="cls-11" d="M101.89,54.74l4.43-2.46s1.11,2.9.58,3-1.24-2.13-1.24-2.13l-3.15,1.5Z"/><path class="cls-16" d="M105.77,53.27l.34-.2s.91,2,.66,2.23S105.77,53.27,105.77,53.27Z"/><path class="cls-29" d="M102.49,54.83a3,3,0,0,1,1.29,1.93c.19,1-.78,1.46-1.73,1.09s-2-1.27-1.76-2.28A1.39,1.39,0,0,1,102.49,54.83Z"/></g></g></svg>