<?xml version="1.0" encoding="UTF-8" standalone="no"?><svg xmlns="http://www.w3.org/2000/svg" viewBox="0 0 81.46 81.46"><defs><style>.cls-1{fill:#fff;stroke:#007cff;stroke-miterlimit:10;stroke-width:0.5px;}.cls-2{fill:#1f9dda;}.cls-3{fill:#0a7ecc;}</style></defs><g id="Layer_2" data-name="Layer 2"><g id="Layer_1-2" data-name="Layer 1"><circle class="cls-1" cx="40.73" cy="40.73" r="40.48"/><path class="cls-2" d="M41.85,43.39a5.67,5.67,0,0,1-1-1.68c-.41-.15-.46-.65-.8-.87-1.12-1.66-2.22-3.34-3.45-4.93a24.52,24.52,0,0,0-1.47-2,5.34,5.34,0,0,0-4.51-2.58c-1.26-.06-2.53-.06-3.8,0a5.81,5.81,0,0,0-5.5,4.83,19.22,19.22,0,0,0-.09,3.79V46h0c0,.79-.05,1.59,0,2.38s.61,1.74,1.37,1.71c1.09,0,1.08.53,1,1.29a4.48,4.48,0,0,0,.05.73c-.1,2.54-.08,5.07,0,7.6a6.4,6.4,0,0,0,0,1.8,1.77,1.77,0,0,0,3.53-.07c0-.79,0-1.59,0-2.38v-7.6c0-.82,0-1.64,0-2.46a1.15,1.15,0,0,1,1.21-1.17A1.11,1.11,0,0,1,29.44,49l.06,1.31q0,4.05,0,8.09c0,1-.06,2,0,3a1.74,1.74,0,0,0,1.78,1.78A1.77,1.77,0,0,0,33,61.37c0-1.2,0-2.41,0-3.61,0-2.7,0-5.4,0-8.1.09-2.15.08-4.3,0-6.45q0-1.89,0-3.78c0-.4,0-.78.5-.92s.69.18.92.5l2.2,3.06L39,45.59c1,1.54,2.55,1.45,3.45-.21A2.92,2.92,0,0,0,41.85,43.39Z"/><path class="cls-2" d="M25.08,26.36a3.46,3.46,0,0,0,2.33,1.21A4.65,4.65,0,0,0,32.88,22a3.58,3.58,0,0,0-1.06-2.18,2,2,0,0,0-.19.12,1.93,1.93,0,0,0-.36.28,1.93,1.93,0,0,1,.36-.28,2,2,0,0,1,.19-.12c-.6-.48-1.08-1.14-1.91-1.3a4.66,4.66,0,0,0-6.1,5.8A3.49,3.49,0,0,0,25.08,26.36Z"/><path class="cls-3" d="M60.22,36.91a5.73,5.73,0,0,0-5.34-5.61,38.89,38.89,0,0,0-4,0,5.28,5.28,0,0,0-4.25,2.19c-2,2.71-3.85,5.48-5.77,8.23a5.67,5.67,0,0,0,1,1.68,2.92,2.92,0,0,1,.64,2,2.43,2.43,0,0,0,.26-.3L47,39c.22-.32.45-.67.92-.52s.52.56.52,1,0,.82,0,1.23V60.57c0,.27,0,.54,0,.82a1.78,1.78,0,0,0,1.71,1.84A1.71,1.71,0,0,0,52,61.53a7.15,7.15,0,0,0,0-2c.08-2.32.09-4.63,0-6.94,0-1.34.12-2.68.1-4a.56.56,0,0,1,.26-.52,1.25,1.25,0,0,1,2.05.91c.08.76,0,1.53.06,2.3v5c0,1.74,0,3.47,0,5.2a1.75,1.75,0,1,0,3.5,0c0-2.06,0-4.13,0-6.19q.11-2.4,0-4.8c0-.36.29-.29.54-.3a1.74,1.74,0,0,0,1.88-1.85c0-1.87,0-3.75,0-5.62S60.37,38.84,60.22,36.91Z"/><path class="cls-3" d="M50.09,26.49a4,4,0,0,0,2.28,1.11,4.67,4.67,0,0,0,5.45-5.39,4,4,0,0,0-1.27-2.51,3.31,3.31,0,0,0-1.82-1.17,4.68,4.68,0,0,0-6,5.85A3.81,3.81,0,0,0,50.09,26.49Z"/></g></g></svg>