<?xml version="1.0" encoding="UTF-8" standalone="no"?><svg xmlns="http://www.w3.org/2000/svg" viewBox="0 0 80 16.52"><defs><style>.cls-1{fill:#0d65ab;}.cls-2{fill:#0664ae;}.cls-3{fill:#0463b0;}</style></defs><g id="Layer_2" data-name="Layer 2"><g id="Layer_1-2" data-name="Layer 1"><path class="cls-1" d="M79.93,13.69c-1.05,2.82-1.05,2.82-4.19,2.82H57.58Q59.85,8.65,62.09.8C62.3.06,62.77,0,63.38,0c2.23,0,4.47.05,6.7,0,1.14,0,1.2.34.9,1.32-1,3.35-2,6.74-3,10.1-.3,1-.1,1.21.9,1.2,3.7,0,7.41,0,11.11,0Z"/><path class="cls-2" d="M25.92,13.74c-.45.3-.43.82-.6,1.25s-.35.69-.78.7c-2.14,0-4.29.05-6.43.11-.86,0-.8-.39-.63-1,.38-1.31.73-2.63,1.12-3.94.34-1.13-.28-1.67-1.24-1.7-2.23-.08-4.46-.06-6.69,0A1.9,1.9,0,0,0,8.84,11c-.18,1.32-.9,2.49-1,3.83a.87.87,0,0,1-1,.85c-2,0-4,0-6,0-.82,0-1.11-.43-.8-1.22C1.43,11.2,1.87,7.65,3.3,4.41c.37-.83.32-1.75.71-2.59A1.74,1.74,0,0,1,5.94.58c1.32.1,2.65,0,4,0,1.86,0,2.13.47,1.43,2.19-.3.73-.92,1.49-.28,2.35,0,.11,0,.22,0,.32-.11.9.51.84,1.1.84,2.17,0,4.35,0,6.53,0,1.15,0,1.57-.5,1.77-1.55a26.7,26.7,0,0,1,.88-3.11A1.42,1.42,0,0,1,23,.59c1.37.06,2.75,0,4.12,0C29.18.6,29.44,1,28.81,3A20.55,20.55,0,0,0,28,5.59c-.37,2.18-1.81,4.08-1.56,6.4-.75.42-.52,1.12-.52,1.76Z"/><path class="cls-3" d="M42.68,3.73a1,1,0,0,0-.89.69h0a.38.38,0,0,0-.46.24h0c-1.12.53-2.29,1-2.46,2.47-.14,1.28-1.09,2.29-.56,3.88A3.72,3.72,0,0,0,41,13.59a6.57,6.57,0,0,0,5.84-.72,6.78,6.78,0,0,1,4.67-1.16c.48,0,1,0,1.43,0s1.33-.31,1.56.25-.6.94-1,1.33c-1.68,1.57-3.83,1.94-6,2.37a24.08,24.08,0,0,1-9.71.29c-2.12-.43-4.37-.67-5.86-2.61-2.06-2.68-1.3-6.6,1.29-8.79,3.54-3,7.7-4,12.09-4.51A4.88,4.88,0,0,1,47.4.21,1.42,1.42,0,0,0,49,0l.81,0c0,.4.31.49.67.57a11.18,11.18,0,0,0,3.36.25l.69,0,.12,0c0,.1,0,.2,0,.29-.39.77.24.52.57.58h0c.18,1.11,1,1.33,1.94,1.47.24,1.18,0,1.75-1.44,1.89a43.52,43.52,0,0,1-5.37-.21c0-.57-.44-.58-.85-.56h0C48.1,2.63,46.17,2.81,44.32,3,43.8,3.08,42.91,2.8,42.68,3.73Z"/></g></g></svg>