<?xml version="1.0" encoding="UTF-8" standalone="no"?><svg xmlns="http://www.w3.org/2000/svg" viewBox="0 0 200 43.7"><defs><style>.cls-1{fill:#f79524;}.cls-2{fill:#a3cc3a;}.cls-3{fill:#f79523;}.cls-4{fill:#f79625;}.cls-5{fill:#f79624;}.cls-6{fill:#3fc5f1;}.cls-7{fill:#fdfbf6;}</style></defs><g id="Layer_2" data-name="Layer 2"><g id="Layer_1-2" data-name="Layer 1"><path class="cls-1" d="M117.16,20.89c0,2.51,0,4.87,0,7.22,0,.84-.25,1-1,1-2.94,0-2.94,0-2.94-3,0-6.1,0-12.2,0-18.3,0-.87.17-1.33,1.12-1.16a2.08,2.08,0,0,0,.35,0c2,0,2,0,2.58,1.77,3.89-3,8.24-2.79,11.13.45,2.73,3.08,2.66,8.68-.15,11.61A8.17,8.17,0,0,1,117.16,20.89Zm9.3-6.38a4.51,4.51,0,0,0-9,.14,4.51,4.51,0,1,0,9-.14Z"/><path class="cls-1" d="M169.64,8.64c0-2.68,0-5.15,0-7.62,0-.74.19-1,1-1,3,0,3-.06,3,2.91,0,6.14,0,12.29,0,18.43,0,.9-.21,1.3-1.14,1.14a.41.41,0,0,0-.11,0,8.46,8.46,0,0,1-2.08-.05c-.88-.23-.12-1.29-.77-1.85-1.69,2.13-4,2.47-6.53,2.09A7.18,7.18,0,0,1,158.23,20c-2.64-3.28-2.36-8.88.55-11.7A8,8,0,0,1,169.64,8.64Zm-.26,6A4.51,4.51,0,0,0,165,10a4.44,4.44,0,0,0-4.64,4.53,4.53,4.53,0,1,0,9,.15Z"/><path class="cls-2" d="M156.56,43.63c-2.78,0-5.56,0-8.34,0-.7,0-.93-.17-.94-.9-.05-2.88-.07-2.88,2.77-2.88,3.63,0,7.26,0,10.89,0,.94,0,1.19-.27,1.17-1.17-.07-4.18-.06-8.36-.15-12.54,0-1,.13-1.29,1.21-1.27,5.55.09,11.1.09,16.64.08.78,0,1,.25,1,1,0,2.79,0,2.79-2.73,2.79-3.63,0-7.26,0-10.89,0-1,0-1.31.17-1.3,1.24.08,4.17,0,8.35.06,12.52,0,1-.3,1.23-1.24,1.21-2.7-.06-5.41,0-8.11,0Z"/><path class="cls-1" d="M60.48,8.76c.28-2,.28-2,2.28-2,1.66,0,1.66,0,1.66,1.64,0,4.36,0,8.73,0,13.09,0,.78-.16,1.17-1,1a5.3,5.3,0,0,0-.69,0c-2,0-2,0-2.21-2-2.13,2.58-4.86,3-7.83,2.19-3.4-.89-5.36-3.82-5.44-8-.1-5.48,4.14-9.15,9.54-8.21A5.58,5.58,0,0,1,60.48,8.76Zm-9.31,5.79a4.67,4.67,0,1,0,9.33,0,4.67,4.67,0,1,0-9.33,0Z"/><path class="cls-3" d="M196,8.48c.48-1.75.48-1.75,2.4-1.75,1.6,0,1.6,0,1.6,1.57,0,4.4,0,8.8,0,13.19,0,.82-.22,1.14-1,1a2,2,0,0,0-.35,0,6.12,6.12,0,0,1-2.06-.07c-.66-.26-.09-1.22-.61-1.82a6.71,6.71,0,0,1-6.41,2.31,7.2,7.2,0,0,1-4.66-2.31c-2.75-3.05-2.74-8.86,0-11.85S192.31,5.6,196,8.48Zm0,6.18a4.64,4.64,0,0,0-4.68-4.84,4.47,4.47,0,0,0-4.57,4.66c0,2.9,1.79,4.91,4.51,5A4.62,4.62,0,0,0,196,14.66Z"/><path class="cls-1" d="M8.39,19.12l-.54-.07C5.53,19,5.41,19,5,21.18c-.23,1.38-.85,1.6-2.06,1.53-1.9-.1-1.9,0-1.44-1.86a5.09,5.09,0,0,1,.18-.67c.4-.93.08-1.27-.88-1.13-.58.08-.89-.13-.81-.76a.89.89,0,0,0,0-.23c0-2,0-2,1.93-2,.61,0,.87-.19,1-.79.29-1.32.65-2.62,1-3.94-.25-.28-.58-.18-.85-.14-1,.15-1.4-.23-1.34-1.31.09-1.74,0-1.8,1.81-1.73C4.46,8.14,5,7.9,5,7a2.54,2.54,0,0,1,.13-.45c.64-2.64.7-2.67,3.43-2.38.59.06.62.34.52.75-.18.75-.35,1.5-.59,2.23s0,1,.8,1c1.88,0,1.88,0,2.33-1.79C12.18,4,12.18,4.07,14.46,4c1,0,1.38.18.95,1.22-.19.45-.16,1-.32,1.46-.35,1-.3,1.58,1,1.38.47-.07.61.22.58.64,0,.15,0,.31,0,.46,0,1.9,0,1.93-1.83,1.93-.6,0-.9.15-1,.75-.25,1.13-.54,2.25-.88,3.36-.21.67,0,.79.64.79.43,0,1.13-.28,1.24.25a4.3,4.3,0,0,1-.08,2.61c-.19.41-.94.21-1.41.15-1-.12-1.33.25-1.54,1.2-.58,2.58-.63,2.53-3.27,2.47-.83,0-.87-.32-.69-1C8,20.88,8.19,20,8.39,19.12ZM10.67,11c-3.22-.37-3.22-.37-4,2.6l-.07.22C6,16.46,6,16.47,8.75,16.22c.4,0,.67-.13.76-.54C9.9,14.12,10.28,12.56,10.67,11Z"/><path class="cls-4" d="M142.61,8.7A7.42,7.42,0,0,1,147,6.49a6.53,6.53,0,0,1,7.29,6c.42,3.11.13,6.25.21,9.37,0,.42-.12.67-.58.64a.88.88,0,0,0-.23,0c-3.22.14-3.22.14-3.23-3.1,0-1.78.06-3.55,0-5.33-.11-2.46-1.56-4.06-3.57-4.05a4.1,4.1,0,0,0-4.16,4.19c-.07,2.43-.05,4.87,0,7.3,0,.71-.13,1-.94,1-3,0-3,.05-3-2.9,0-3.94,0-7.88,0-11.82,0-.94.29-1.24,1.17-1.11a3.53,3.53,0,0,0,.46,0C142.22,6.69,142.22,6.69,142.61,8.7Z"/><path class="cls-3" d="M107.12,20.57A8.63,8.63,0,0,1,103,22.7a6.32,6.32,0,0,1-7.53-6c-.26-3.11-.08-6.26-.11-9.39,0-.45.17-.64.61-.59h.24c3.1-.12,3.1-.12,3.1,3,0,1.85,0,3.7,0,5.55a3.68,3.68,0,0,0,3.57,3.93,3.92,3.92,0,0,0,4.11-3.7c.12-2.59.1-5.18.06-7.76,0-.83.26-1,1.06-1,2.84,0,2.84,0,2.84,2.79,0,4,0,8,0,11.94,0,.89-.26,1.2-1.1,1.06a2.46,2.46,0,0,0-.47,0C107.59,22.5,107.59,22.5,107.12,20.57Z"/><path class="cls-5" d="M26.31,23.11a9.61,9.61,0,0,1-6.55-2.17c-.57-.46-.65-.85-.17-1.43s.72-1.43,1.3-1.72,1.14.63,1.78.89a11,11,0,0,0,3.9,1,3.5,3.5,0,0,0,1.86-.54,1.55,1.55,0,0,0,.84-1.53,1.29,1.29,0,0,0-1.12-1.17c-.9-.19-1.82-.3-2.73-.41A9.59,9.59,0,0,1,21.9,15a4.3,4.3,0,0,1-.34-7.39c2.68-1.85,7.6-1.72,10.2.21.6.45.64.78.1,1.25a2.22,2.22,0,0,0-.37.44c-.68,1.13-1.35,1.52-2.68.62a4.75,4.75,0,0,0-4.25-.27,1.36,1.36,0,0,0-1.07,1.23,1.42,1.42,0,0,0,1,1.4,12.37,12.37,0,0,0,3.07.49,14.78,14.78,0,0,1,2.38.49,4.36,4.36,0,0,1,3.22,4A4.65,4.65,0,0,1,30.84,22,8.36,8.36,0,0,1,26.31,23.11Z"/><path class="cls-3" d="M84.16,14.36c0-1.12,0-2.24,0-3.36,0-.67-.16-.95-.9-1-2,0-2-.08-2.07-2.06,0-1,.19-1.46,1.25-1.26.22,0,.47,0,.69,0,.82.12,1.15-.21,1-1a1.77,1.77,0,0,1,0-.23c0-2.89,0-2.87,2.87-3.14.71-.07,1.08,0,1,.87s0,1.86,0,2.78c0,.55.16.77.73.74,1,0,1.93,0,2.89,0,.54,0,.72.15.76.71.15,2.62.17,2.62-2.45,2.62-2,0-2,0-2,2,0,1.58,0,3.17,0,4.75,0,2,1.26,2.89,3.16,2.23.66-.23.92-.13,1,.53a2.85,2.85,0,0,0,.18.54c.69,2.11.71,2.17-1.43,2.54-3.28.57-6.56-.7-6.76-5.11-.05-1,0-2.08,0-3.13Z"/><path class="cls-3" d="M37.54,14.41c0-1.11,0-2.24,0-3.35,0-.73-.17-1-1-1-2,0-1.93,0-2-2,0-1,.2-1.41,1.3-1.34,1.66.1,1.66,0,1.66-1.62,0-2.3,0-2.3,2.23-2.63,1.64-.25,1.64-.25,1.64,1.39,0,2.88,0,2.88,2.86,2.89,1.5,0,1.5,0,1.5,1.55,0,1.77,0,1.77-1.77,1.77-.58,0-1.16,0-1.74,0s-.92.14-.91.84c0,2,0,3.94,0,5.9s1.18,2.78,3.07,2.22c.74-.23,1.07-.09,1.19.65a5.6,5.6,0,0,0,.21.66c.63,1.86.63,1.85-1.37,2.25-3.84.76-7-1.23-6.91-5.38,0-.92,0-1.85,0-2.78Z"/><path class="cls-4" d="M70.72,8.44a6.1,6.1,0,0,1,8-1.15c.52.35.7.67.32,1.21-.08.13-.13.28-.21.41-.36.68-.57,1.58-1.13,2s-1.25-.44-2-.6A3.81,3.81,0,0,0,70.84,14c-.1,2.5-.07,5,0,7.52,0,.79-.17,1.05-1,1.05-2.91,0-2.91,0-2.91-2.84,0-4,0-7.95,0-11.93,0-.79.18-1.15,1-1a4,4,0,0,0,1,0C70.11,6.54,70.89,6.84,70.72,8.44Z"/><path class="cls-4" d="M136.42,14.61c0,2.31,0,4.63,0,6.94,0,.77-.22,1-1,1-3,0-3,0-3-2.89,0-4,0-7.94,0-11.92,0-.81.22-1,1-1,2.91,0,2.91,0,2.91,2.85Z"/><path class="cls-6" d="M180.72,6.75c0,4.91,0,9.82,0,14.73,0,.8-.21,1-1,1-2.93,0-2.93,0-2.93-2.95,0-3.9,0-7.8,0-11.71,0-.39-.2-.85.23-1.18Z"/><path class="cls-4" d="M134.43,0a2.16,2.16,0,0,1,2.26,2.25,2.28,2.28,0,0,1-2.2,2.34,2.35,2.35,0,0,1-2.36-2.34A2.23,2.23,0,0,1,134.43,0Z"/><path class="cls-2" d="M181,2.34a2,2,0,0,1-2.4,2.14,2,2,0,0,1-2.08-2.32,2.24,2.24,0,1,1,4.48.18Z"/><path class="cls-7" d="M180.72,6.75,177,6.68A6.35,6.35,0,0,1,180.72,6.75Z"/></g></g></svg>