<?xml version="1.0" encoding="UTF-8" standalone="no"?><svg xmlns="http://www.w3.org/2000/svg" viewBox="0 0 190.4 30"><defs><style>.cls-1{fill:#1063fd;}.cls-2{fill:#080808;}.cls-3{fill:#0058fd;}.cls-4{fill:#090909;}.cls-5{fill:#070707;}.cls-6{fill:#040404;}.cls-7{fill:#060606;}.cls-8{fill:#020202;}</style></defs><g id="Layer_2" data-name="Layer 2"><g id="Layer_1-2" data-name="Layer 1"><path class="cls-1" d="M29,19.54c.18.86-.59,1-1.05,1.31-4,2.74-8,5.45-12,8.19-.39.27-.95.38-1.07,1h-.67C9.68,26.46,4.82,23.4,0,20.23,0,13.86.06,7.48,0,1.1,0,.14.23,0,1.14,0c9.19,0,18.39,0,27.58,0,0,5.92,0,11.84,0,17.76C28.73,18.37,28.53,19,29,19.54Zm-3.68-7.49c0-2.35-.08-4.71-.06-7.06,0-.83-.19-1.2-1.12-1.2q-9.61.06-19.22,0c-1.09,0-1.14.52-1.13,1.35,0,1.11.93,1,1.55,1.19,6.58,2,13.18,4,19.78,6.06ZM3.81,13.77a14.94,14.94,0,0,1,0,2.25c-.27,1.62.46,2.53,1.79,3.36,2.72,1.69,5.33,3.53,8,5.37a1.4,1.4,0,0,0,1.92.05c2.93-2.07,5.91-4.07,8.91-6.05a1.76,1.76,0,0,0,.88-1.81c-.06-.88-.77-.86-1.32-1L7.82,11c-1.27-.38-2.9-1.51-3.75-.87S3.92,12.68,3.81,13.77Z"/><path class="cls-2" d="M190.4,16.86c-.58,0-.53.47-.7.79-1.68,3.23-5.17,3.58-7.76.41,0,2.05-.08,3.8,0,5.53.09,1.47-.88,1.06-1.65,1.12s-1.44.06-1.42-1.17c.08-4.71,0-9.42,0-14.13,0-.7-.52-1.83,1-1.71,1.06.08,2.45-.39,1.94,1.68,3.21-3.11,6.25-2.54,8,1.35.1.21.21.38.47.41Zm-8.46-3c0,.45,0,.9,0,1.35,0,1.77.68,2.51,2.32,2.63a2.5,2.5,0,0,0,2.85-2.22,10.28,10.28,0,0,0-.06-3.83,2.5,2.5,0,0,0-2.94-1.9c-1.35.24-2.28.91-2.18,2.46C182,12.84,181.94,13.34,181.94,13.84Z"/><path class="cls-3" d="M29,19.54c-.47-.53-.27-1.17-.27-1.76,0-5.92,0-11.84,0-17.76h.34Z"/><path class="cls-4" d="M45.82,7.52c-1,3.89-1.92,7.55-2.71,11.25-.25,1.12-.75,1.37-1.7,1.22s-2.12.58-2.49-1.09c-1.07-4.81-2.24-9.59-3.36-14.38-.1-.4-.32-1.06.42-.95.94.16,2.36-.84,2.73,1q.95,4.6,1.87,9.2a5.92,5.92,0,0,0,.79,2.19c.9-3.71,1.86-7.4,2.67-11.13.23-1.08.68-1.4,1.67-1.25S47.79,3,48.14,4.73c.75,3.76,1.75,7.47,2.73,11.49a20.35,20.35,0,0,0,1.1-4.4c.57-2.4,1.09-4.8,1.54-7.22.35-1.88,1.77-1,2.65-1,1.07.08.27,1,.17,1.45-1,4.52-2.26,9-3.22,13.54-.36,1.7-1.4,1.31-2.46,1.4s-1.55-.21-1.79-1.36c-.68-3.28-1.54-6.53-2.33-9.79A2,2,0,0,0,45.82,7.52Z"/><path class="cls-5" d="M160.44,20c-1.14.31-1.53-.27-1.83-1.3-.82-2.82-.88-2.8-3.77-2.8h-.16c-2.91,0-2.91,0-3.76,2.75A2.46,2.46,0,0,1,147.75,20c-.53-.28-.24-.69-.13-1,1.64-4.87,3.31-9.73,4.94-14.61.22-.66.6-.8,1.24-.83,2.92-.15,2.91-.17,3.83,2.6,1.35,4.08,2.66,8.18,4.13,12.23C162.31,19.87,161.92,20.26,160.44,20Zm-5.7-13.85c-.47,1.43-.79,2.37-1.09,3.32-1.28,4.06-1.27,4.06,3.27,3.61Z"/><path class="cls-2" d="M77.17,20.25A7,7,0,0,1,72,18.55c-.36-.32-1.58-.67-.55-1.44.64-.49,1-2.21,2.4-.8a4.89,4.89,0,0,0,4.07,1.21,2.28,2.28,0,0,0,2.31-2c.12-1.32-.76-2-2-2.28a36.09,36.09,0,0,1-3.61-.75A4.12,4.12,0,0,1,71.48,8a4.23,4.23,0,0,1,3.25-4.35,7.83,7.83,0,0,1,7.48,1.16c.29.22,1.35.59.48,1.16-.68.45-.92,2.15-2.3,1.06a4.87,4.87,0,0,0-3.61-1c-1.06.1-2,.39-2.21,1.64s.62,1.94,1.8,2.2c.87.19,1.75.35,2.62.57,3.2.79,4.49,2.31,4.31,5s-2.18,4.52-5.16,4.8C77.75,20.28,77.36,20.25,77.17,20.25Z"/><path class="cls-6" d="M167.57,9.56c2.83-3.23,6.66-2.58,8,.93a11,11,0,0,1,.21,6.11c-.67,3.36-5,5.45-8.17,1.61,0,1.94-.06,3.71,0,5.47.06,1.19-.66,1.09-1.38,1s-1.64.48-1.63-1q.07-7.56,0-15.12c0-1.15.71-.89,1.34-.9C166.91,7.7,168.15,7.38,167.57,9.56Zm5.27,4.36c0-.44,0-.89,0-1.34a2.7,2.7,0,0,0-4-2.42,2.35,2.35,0,0,0-1.22,2.69c.14,1.58-.71,3.43,1.09,4.6a2.75,2.75,0,0,0,1.27.36C172,18,172.84,16.8,172.84,13.92Z"/><path class="cls-2" d="M141.7,14.57c-1.07,0-2.13,0-3.2,0s-1.13.36-.89,1.22a3.14,3.14,0,0,0,5.18,1.32c1.06-.91,1.41-.42,2.05.32.93,1.08-.18,1.39-.69,1.75a6,6,0,0,1-9.69-4.29c-.61-5.06,2.73-8.36,7.31-7.24A6,6,0,0,1,145.88,14c-.1.59-.42.56-.81.56ZM140,12.81a3.92,3.92,0,0,0,.84,0c.6-.13,1.53.43,1.75-.38A2.17,2.17,0,0,0,141.45,10a2.39,2.39,0,0,0-3.07.36,2.12,2.12,0,0,0-.82,2.07c.27.78,1.15.24,1.75.37A2.91,2.91,0,0,0,140,12.81Z"/><path class="cls-2" d="M92.83,14.57a24.62,24.62,0,0,1-2.85,0c-1.54-.17-1.42.7-1.1,1.63.63,1.87,3.31,2.42,5.09.86,1-.92,1.34-.25,1.94.33.92.89,0,1.27-.46,1.66a6.07,6.07,0,0,1-9.79-3.59C84.57,10.25,88.21,6.38,93,7.67A5.93,5.93,0,0,1,97,14c-.11.69-.48.62-.92.62Zm-1.66-1.76h2c.34,0,.71,0,.6-.51-.21-1-.35-2-1.46-2.45a2.5,2.5,0,0,0-2.91.6,2.07,2.07,0,0,0-.65,2c.23.8,1,.25,1.59.38A3.28,3.28,0,0,0,91.17,12.81Z"/><path class="cls-2" d="M65.08,14.57a27.46,27.46,0,0,1-2.87,0c-1.52-.16-1.38.66-1,1.61a3.12,3.12,0,0,0,5,1c1.11-1,1.58-.49,2.2.34.8,1.08-.31,1.36-.84,1.72a6,6,0,0,1-9.61-4.45c-.52-5.17,3-8.42,7.62-7A5.93,5.93,0,0,1,69.26,14c-.11.57-.4.57-.8.57Zm-1.66-1.76a3.92,3.92,0,0,0,.84,0c.6-.12,1.56.41,1.75-.37A2.27,2.27,0,0,0,64.89,10a2.56,2.56,0,0,0-3.31.62,2.18,2.18,0,0,0-.6,1.85c.23.74,1.06.22,1.6.34A3.92,3.92,0,0,0,63.42,12.81Z"/><path class="cls-7" d="M119.55,18c-1.91,2.25-3.31,2.75-5.17,2.13s-2.51-2.31-2.57-4.12c-.09-2.41,0-4.83-.07-7.24,0-1.24.73-1.05,1.43-1s1.67-.46,1.62,1c-.07,2-.05,4,0,6.06,0,2.26.67,3.07,2.22,3.06,1.72,0,2.38-.86,2.39-3.09,0-1.79,0-3.59,0-5.38,0-1.09,0-1.73,1.46-1.69,1.28,0,1.58.37,1.54,1.61-.09,3,0,6.06,0,9.09,0,.74.42,1.77-1.08,1.67C120.18,19.94,119,20.24,119.55,18Z"/><path class="cls-5" d="M102,14c0,.45,0,.9,0,1.34a2.53,2.53,0,0,0,4.55,1.57c.9-1.44,1.8-.5,2.45,0,.89.68-.09,1.29-.48,1.75-1.44,1.68-3.38,1.85-5.39,1.49a4.82,4.82,0,0,1-3.9-3.53,9.19,9.19,0,0,1,0-5.47,4.91,4.91,0,0,1,4-3.6A5.34,5.34,0,0,1,108.52,9c.4.43,1.23,1.1.44,1.6-.62.39-1.52,1.68-2.47.16a2.32,2.32,0,0,0-2.7-.86,2.27,2.27,0,0,0-1.66,1.92,11.92,11.92,0,0,0-.19,2.17Z"/><path class="cls-8" d="M129,10.15A4.25,4.25,0,0,1,130.87,8c.68-.32,1.62-.65,2-.13a3.76,3.76,0,0,1,.15,2.26c-.05.56-.62.3-1,.33-2.78.23-3.08.56-3.08,3.39,0,1.68-.09,3.37,0,5s-.94,1-1.65,1.05-1.49.17-1.44-1.11c.1-3.24.09-6.49,0-9.73,0-1.19.3-1.51,1.47-1.46s1.93,0,1.61,1.46A5.1,5.1,0,0,0,129,10.15Z"/><path class="cls-3" d="M25.12,12.39l.2-.34Z"/></g></g></svg>