<?xml version="1.0" encoding="UTF-8" standalone="no"?><svg xmlns="http://www.w3.org/2000/svg" viewBox="0 0 31.79 29"><defs><style>.cls-1{fill:#4385f4;}.cls-2{fill:#fbbb04;}.cls-3{fill:#34a753;}.cls-4{fill:#a9dbb5;}.cls-5{fill:#afdcba;}.cls-6{fill:#b1cdfa;}</style></defs><g id="Layer_2" data-name="Layer 2"><g id="Layer_1-2" data-name="Layer 1"><path class="cls-1" d="M26.74,29a5.14,5.14,0,0,1-4.81-2.63C20,23,18.08,19.7,16.16,16.37c-.08-.14-.17-.28-.26-.42s-.08-.17-.12-.24c-1-1.8-2.09-3.58-3.1-5.39a19.92,19.92,0,0,1-1.85-3.47,4.12,4.12,0,0,1-.17-2.28c.08-.37.15-.74.23-1.11s.3-.58.46-.86A5.29,5.29,0,0,1,16.69.07a5.14,5.14,0,0,1,3.78,2.56l7.22,12.51,3.4,5.91a5.1,5.1,0,0,1,.67,3.17,5.27,5.27,0,0,1-5,4.75Z"/><path class="cls-2" d="M10.89,3.46c-.08.37-.15.74-.23,1.11a4.12,4.12,0,0,0,.17,2.28,19.92,19.92,0,0,0,1.85,3.47c1,1.81,2.07,3.59,3.1,5.39,0,.07.08.16.12.24l-2.34,4Q12,22.71,10.43,25.42c0,.07-.06.18-.18.18a5.22,5.22,0,0,0,.22-3.1,5.26,5.26,0,0,0-6-4.05,4.86,4.86,0,0,0-2.63,1.2c-.22.18-.42.38-.63.57-.09-.07,0-.11,0-.16L10.72,3.7C10.77,3.62,10.79,3.51,10.89,3.46Z"/><path class="cls-3" d="M1.25,20.22c.21-.19.41-.39.63-.57a4.86,4.86,0,0,1,2.63-1.2,5.26,5.26,0,0,1,6,4.05,5.22,5.22,0,0,1-.22,3.1A5.38,5.38,0,0,1,6.11,29a2.2,2.2,0,0,1-.44,0H5.6a5.2,5.2,0,0,1-2.11-.3,5.44,5.44,0,0,1-3-2.79A5.2,5.2,0,0,1,0,23.4v-.07A5.54,5.54,0,0,1,1.25,20.22Z"/><path class="cls-4" d="M0,23.33v.07S0,23.35,0,23.33Z"/><path class="cls-5" d="M5.6,29h.07S5.62,29,5.6,29Z"/><path class="cls-6" d="M26.74,29h.07S26.77,29,26.74,29Z"/></g></g></svg>