<?xml version="1.0" encoding="UTF-8" standalone="no"?><svg xmlns="http://www.w3.org/2000/svg" viewBox="0 0 29.92 29.92"><defs><style>.cls-1{fill:#e22e37;}.cls-2{fill:#fefcfc;}.cls-3{fill:#fefbfb;}.cls-4{fill:#e01b29;}.cls-5{fill:#e01d2b;}.cls-6{fill:#e01f2b;}.cls-7{fill:#e23039;}</style></defs><g id="Layer_2" data-name="Layer 2"><g id="Layer_1-2" data-name="Layer 1"><path class="cls-1" d="M29.92,27.38v.14c-.1,0-.07.05-.08.1a3.22,3.22,0,0,1-2.32,2.3h-.19c-8.16-.08-16.57-.08-24.74,0H2.41c0-.1-.06-.07-.11-.08A3.25,3.25,0,0,1,0,27.52v-.14H0l0,0v-.09C.09,19.11.09,10.81,0,2.69v-.1l0,0H0V2.41A3.23,3.23,0,0,1,2.3.09c.05,0,.13,0,.11-.09h.18c8.17.09,16.58.09,24.74,0h.19a3.22,3.22,0,0,1,2.31,2.3c0,.05,0,.13.09.11v.14c-.06,0-.05.09,0,.09v.09c-.08,8.11-.08,16.36,0,24.46v.14l0,0ZM16.57,17.92c-.34-8,1.93-6.09-6.19-6.3-.57,2.22,0,5.28-.2,7.76,0,.17.05.21.21.21.92,0,1.85,0,2.78,0,.46-.15.09-1.09.22-1.52l0-.06c1,0,2.1,0,3.13,0Zm8-4.49a.14.14,0,0,1,.06-.19c.43.12,1.44-.32,1.51.25v4.28c.1.5,1,.1,1.39.23.15,0,.21,0,.21-.2-.19-2,.34-4.47-.19-6.18-3,.21-6.64-.39-9.38.22,0,2,0,4,0,5.95,0,.18.06.21.23.21.51-.14,3.23.32,3-.31,0-1.42,0-2.83,0-4.24.09-.5,1-.1,1.37-.23.58.44.05,3.58.23,4.57,0,.44,1.24.13,1.6.18A29.92,29.92,0,0,0,24.54,13.43ZM2.22,14.8c.13,3.58-.92,3.25,2.93,3.2.64-.28.08-3.64.26-4.55.08-.49.94-.1,1.32-.23.23,0,.27.07.27.28,0,1.42,0,2.83,0,4.24,0,.54,1,.12,1.36.26.19,0,.25,0,.25-.24,0-2,0-3.94,0-5.9,0-.18,0-.24-.23-.24-2,0-3.95,0-5.93,0C1.9,11.88,2.37,14.1,2.22,14.8Z"/><path class="cls-2" d="M24.53,18c-.36,0-1.62.26-1.6-.18,0-1.45,0-2.89,0-4.33-.07-.51-1-.11-1.36-.24-.59.41-.06,3.5-.23,4.47,0,.34,0,.31-.31.31-.67-.15-2.62.3-2.89-.21,0-2,0-4,0-5.95,0-.16,0-.22.21-.22,3,.2,6.6-.36,9.36.2,0,2,0,4,0,6-.12.45-1,.08-1.37.2-.18,0-.24,0-.23-.23V13.49c-.06-.57-1.08-.13-1.51-.25C24.41,14.69,24.6,16.43,24.53,18Z"/><path class="cls-2" d="M13.39,18.07c-.13.43.24,1.37-.22,1.52-.93,0-1.86,0-2.78,0-.16,0-.21,0-.21-.21V11.84c0-.16,0-.22.2-.22,8.13.2,5.84-1.64,6.19,6.3a0,0,0,0,0,0,0C15.55,18.1,14.34,17.88,13.39,18.07ZM15,14.81c0-1.57.37-1.69-1.4-1.59-.49.51,0,2.18-.19,3,.16.42,1,.06,1.41.18C15.22,16.2,14.85,15.27,15,14.81Z"/><path class="cls-3" d="M2.22,14.8c.15-.72-.32-2.9.22-3.18,2,0,4,0,5.93,0,.19,0,.23.06.23.24,0,2,0,3.93,0,5.9,0,.2-.06.25-.25.24C8,17.87,7,18.28,7,17.74c0-1.41,0-2.82,0-4.24,0-.21,0-.3-.27-.28-.38.13-1.24-.26-1.32.23-.17.89.38,4.3-.26,4.55C1.3,18.05,2.35,18.38,2.22,14.8Z"/><path class="cls-4" d="M24.53,18V13.43A29.92,29.92,0,0,1,24.53,18Z"/><path class="cls-4" d="M24.54,13.3c0-.05,0-.07.06-.06Z"/><path class="cls-5" d="M16.57,18a0,0,0,0,1,0,0Z"/><path class="cls-6" d="M13.39,18.07s0-.06,0-.06Z"/><path class="cls-7" d="M15,14.81c-.11.46.26,1.39-.18,1.59-.4-.11-1.25.24-1.41-.18.15-.82-.3-2.49.19-3C15.33,13.12,14.94,13.24,15,14.81Z"/></g></g></svg>