<?xml version="1.0" encoding="UTF-8" standalone="no"?><svg xmlns="http://www.w3.org/2000/svg" viewBox="0 0 29.06 29"><defs><style>.cls-1{fill:#fc6635;}.cls-2{fill:#fdf8f4;}</style></defs><g id="Layer_2" data-name="Layer 2"><g id="Layer_1-2" data-name="Layer 1"><path class="cls-1" d="M14.58,29C10,29,5.37,29,.76,29,.13,29,0,28.78,0,28.21Q0,15,0,1.76C0,0,0,0,1.76,0Q15.05,0,28.34,0c.59,0,.72.16.72.72q0,13.79,0,27.57c0,.59-.18.71-.73.7-4.59,0-9.17,0-13.75,0ZM16.16,17.9l.08.19A14.87,14.87,0,0,1,15,19.59a5,5,0,0,0-1.64,4.54c.13,1-.06.86.9.87,1.43,0,1.47,0,1.42-1.44a2.73,2.73,0,0,1,.74-2c1-1.16,2-2.38,2.93-3.58.58-.72,1.15-1.44,1.74-2.19a2.59,2.59,0,0,0-1.24-.12c-1.19,0-2.39,0-3.58,0-.48,0-.59-.19-.58-.62,0-.83,0-1.65,0-2.48,0-1.42,0-1.41-1.45-1.43-.45,0-1.16.2-1.28-.1s.42-.77.73-1.11C15,8.45,16.13,7,15.74,4.82c-.1-.59-.18-.81-.81-.8-1.53.05-1.57,0-1.52,1.53a2.42,2.42,0,0,1-.64,1.82c-1.06,1.24-2.08,2.51-3.09,3.78a21,21,0,0,0-1.74,2.26c1.71,0,3.29,0,4.88,0,.45,0,.6.13.58.59,0,1.1,0,2.21,0,3.32,0,.44.1.62.57.6C14.69,17.87,15.43,17.9,16.16,17.9Z"/><path class="cls-2" d="M16.16,17.9c-.73,0-1.47,0-2.2,0-.47,0-.58-.16-.57-.6,0-1.11,0-2.22,0-3.32,0-.46-.13-.6-.58-.59-1.59,0-3.17,0-4.88,0a21,21,0,0,1,1.74-2.26c1-1.27,2-2.54,3.09-3.78a2.42,2.42,0,0,0,.64-1.82C13.36,4,13.4,4.07,14.93,4c.63,0,.71.21.81.8.39,2.15-.71,3.63-2,5.06-.31.34-.9.71-.73,1.11s.83.1,1.28.1c1.45,0,1.45,0,1.45,1.43,0,.83,0,1.65,0,2.48,0,.43.1.62.58.62,1.19,0,2.39,0,3.58,0a2.59,2.59,0,0,1,1.24.12c-.59.75-1.16,1.47-1.74,2.19-1,1.2-1.92,2.42-2.93,3.58a2.73,2.73,0,0,0-.74,2C15.74,25,15.7,25,14.27,25c-1,0-.77.11-.9-.87A5,5,0,0,1,15,19.59a14.87,14.87,0,0,0,1.23-1.5Z"/></g></g></svg>