<?xml version="1.0" encoding="UTF-8" standalone="no"?><svg xmlns="http://www.w3.org/2000/svg" xmlns:xlink="http://www.w3.org/1999/xlink" viewBox="0 0 31.18 29"><defs><style>.cls-1{fill:#185c37;}.cls-2{fill:#21a366;}.cls-3{fill:#107c41;}.cls-4,.cls-5{isolation:isolate;}.cls-4{opacity:0.1;}.cls-5{opacity:0.2;}.cls-6{fill:url(#linear-gradient);}.cls-7{fill:#33c481;}</style><linearGradient id="linear-gradient" x1="-7088.72" y1="-7689.21" x2="-7047.15" y2="-7617.21" gradientTransform="translate(1777.72 1930.8) scale(0.25)" gradientUnits="userSpaceOnUse"><stop offset="0" stop-color="#18884f"/><stop offset="0.5" stop-color="#117e43"/><stop offset="1" stop-color="#0b6631"/></linearGradient></defs><g id="Layer_2" data-name="Layer 2"><g id="Layer_1-2" data-name="Layer 1"><path class="cls-1" d="M19.58,13.77,7.25,11.6V27.67A1.32,1.32,0,0,0,8.58,29H29.85a1.33,1.33,0,0,0,1.33-1.33V21.75Z"/><path class="cls-2" d="M19.58,0h-11A1.32,1.32,0,0,0,7.25,1.33V7.25L19.58,14.5l6.52,2.17,5.08-2.17V7.25Z"/><path class="cls-3" d="M7.25,7.25H19.58V14.5H7.25Z"/><path class="cls-4" d="M16.07,5.8H7.25V23.92h8.82A1.33,1.33,0,0,0,17.4,22.6V7.13A1.34,1.34,0,0,0,16.07,5.8Z"/><path class="cls-5" d="M15.35,6.52H7.25V24.65h8.1a1.34,1.34,0,0,0,1.33-1.33V7.85a1.35,1.35,0,0,0-1.33-1.33Z"/><path class="cls-5" d="M15.35,6.52H7.25V23.2h8.1a1.34,1.34,0,0,0,1.33-1.33v-14a1.35,1.35,0,0,0-1.33-1.33Z"/><path class="cls-5" d="M14.62,6.52H7.25V23.2h7.37A1.34,1.34,0,0,0,16,21.87v-14a1.34,1.34,0,0,0-1.33-1.33Z"/><path class="cls-6" d="M1.33,6.52H14.62A1.33,1.33,0,0,1,16,7.85v13.3a1.32,1.32,0,0,1-1.33,1.32H1.33A1.32,1.32,0,0,1,0,21.15V7.85A1.33,1.33,0,0,1,1.33,6.52Z"/><path class="cls-7" d="M29.85,0H19.58V7.25h11.6V1.33A1.33,1.33,0,0,0,29.85,0Z"/><path class="cls-3" d="M19.58,14.5h11.6v7.25H19.58Z"/></g></g></svg>