<?xml version="1.0" encoding="UTF-8" standalone="no"?><svg xmlns="http://www.w3.org/2000/svg" viewBox="0 0 30.61 29.97"><defs><style>.cls-1{fill:#181616;}</style></defs><g id="Layer_2" data-name="Layer 2"><g id="Layer_1-2" data-name="Layer 1"><path class="cls-1" d="M18.14,22.16A7.11,7.11,0,0,0,23.77,10.7a.45.45,0,0,1-.1-.48,5.55,5.55,0,0,0-.16-3.6c-1.19-.74-3,.64-4.1,1.24-2.54-.16-5.15-.75-7.73.08a.55.55,0,0,1-.47-.09C7.66,5.66,6.11,5.58,7,10.3,3.54,15.22,6,22,12.48,22.17c-.75.57-.66,1.58-1.16,2.14A3.23,3.23,0,0,1,7,23c-.37-1.47-4.39-2.36-2.59-.76,2.73,2.19,1.81,5.06,6.76,4.16.23-.05.27,0,.27.23-.17,1.09.65,3.9-1.27,3.26C-4.33,25.13-3,3.34,12,.42c18.54-4.1,26.5,23.26,8.34,29.48C17.71,30.68,20.42,23.56,18.14,22.16Z"/></g></g></svg>