<?xml version="1.0" encoding="UTF-8" standalone="no"?><svg xmlns="http://www.w3.org/2000/svg" viewBox="0 0 26.3 29.96"><defs><style>.cls-1{fill:#e5a127;}.cls-2{fill:#f1be26;}.cls-3{fill:#eaebeb;}.cls-4{fill:#f1be28;}.cls-5{fill:#fffffe;}.cls-6{fill:#fff;}</style></defs><g id="Layer_2" data-name="Layer 2"><g id="Layer_1-2" data-name="Layer 1"><path class="cls-1" d="M13.15.06H26c.28,0,.3-.07.28.29C25.92,4.9,25.51,9.44,25.11,14Q24.54,20.37,24,26.74c-1.87,1.22-4.66,1.39-6.85,2.19a30.91,30.91,0,0,1-4.25,1c-3.42-1.09-7.36-1.73-10.52-3.1-.4-4.34-.78-8.69-1.17-13C.79,9.31.32,4.79,0,.26,4-.31,8.87.26,13.15.06ZM13.1,20.75c-3.69-1.06-3.67.06-3.86-3.36,0-.17,0-.17-.2-.17-4.5,0-3.09-.71-2.71,5,1.92,1.08,4.62,1.39,6.82,2.07.09,1.07-.21,2.44.15,3.36,2.79-.88,6-1.35,8.54-2.54.36-3.59.69-7.19,1-10.77s.69-7.33.95-11c0-.35.36-1.23-.2-1.16H13.32c-.39,0-.08.95-.17,1.26-8.61.15-5.61-1.53-6.87,7.13-.47,7.16-2,4.53,6.87,5C13.14,17.33,13.18,19,13.1,20.75Z"/><path class="cls-2" d="M13.15,3.46c.08-.35-.21-1.18.17-1.26h10.3c.57-.09.16.83.2,1.16-.26,3.67-.65,7.34-.95,11-.51,3.58-.39,7.57-1.21,11-2.77.84-5.57,1.59-8.36,2.34-.36-.92-.05-2.29-.15-3.36.09-.08.23-.06.34-.11a.07.07,0,0,0,.08,0l.09,0s.06,0,.09,0a1.78,1.78,0,0,0,.38-.1.06.06,0,0,0,.08,0c.06,0,.13,0,.17,0a2.48,2.48,0,0,0,.39-.1.07.07,0,0,0,.08,0,.83.83,0,0,0,.27-.07h0c.09,0,.17-.06.26-.06a.07.07,0,0,0,.08,0,8.84,8.84,0,0,0,1.07-.3l.08,0a.06.06,0,0,0,.09,0,.73.73,0,0,0,.21-.06.11.11,0,0,0,.12-.05.3.3,0,0,0,.18,0,.06.06,0,0,0,.09,0,.11.11,0,0,0,.09,0s.08,0,.12,0a.08.08,0,0,0,.09,0c.68-.31,2-.24,2.29-.93.33-3.15.57-6.31.89-9.46.36-.93-6.65-.21-7.66-.44V7.06c1.07,0,2.13.06,3.2.09a1.22,1.22,0,0,0,.47,0c.15.09.3,0,.3.24.06.45.08.91.17,1.34a.32.32,0,0,0,0,.17,3.94,3.94,0,0,0,.07.69c.07.33-.15,1.06.38,1s3.5.34,3.06-.29a.2.2,0,0,0,0-.17,1.45,1.45,0,0,0-.05-.47,1.23,1.23,0,0,0,0-.47,1.24,1.24,0,0,0,0-.43c0-.64-.08-1.29-.17-1.92a1.73,1.73,0,0,0,0-.51,1.23,1.23,0,0,0,0-.47,5.33,5.33,0,0,0-.09-1,1.23,1.23,0,0,0,0-.47c-.06-.27.08-.82-.18-.93-2.31,0-4.63,0-6.94,0Z"/><path class="cls-3" d="M14,7.06c-.28,0-.57,0-.85,0-.46,0-3.15-.14-3.13.25-.18,1.56-.31,3.13-.46,4.69,0,.56,2.9.08,3.5.25,0,4.67-.52,2.95,3.94,3.26.81.2-3.45,0-3.85.11-8.85-.51-7.34,2.13-6.87-5C7.55,2,4.53,3.6,13.15,3.46V6.77C13.09,7.24,13.84,6.79,14,7.06Z"/><path class="cls-3" d="M13.23,24.26l-.08,0c-2.2-.68-4.9-1-6.82-2.07-.39-5.74-1.79-5,2.71-5,.58.14.05,2.36.58,2.64,1.31.24,2.63,1,4,.82-.11.22-.59.06-.52.41C13.17,22.11,12.83,23.32,13.23,24.26Z"/><path class="cls-4" d="M13.58,20.68c-.17,0-.31.1-.48.07.08-1.71,0-3.42.05-5.13,1.32,0,2.66,0,4,0v.17a.06.06,0,0,0,0,.09A14.39,14.39,0,0,0,17,17.47a7.3,7.3,0,0,0-.08.94,1.78,1.78,0,0,0,0,.47c-.06.12,0,.26,0,.39a.06.06,0,0,0,0,.08C16.82,20.28,14.33,20.3,13.58,20.68Z"/><path class="cls-5" d="M16.9,18.41V18.2c.17-.11,0-.3,0-.47s0-.33.05-.51,0-.33,0-.51,0-.32.11-.47a.1.1,0,0,0,0-.13V16s0-.08,0-.12.08,0,0-.09V15.6c-4.7-.68-4.09,1.64-4.09-3.35,1,.16,8.19-.47,7.75.42-.32,3.15-.56,6.31-.89,9.46-.33.69-1.61.62-2.29.93-.06-.06-.08,0-.09,0l-.08,0s0,0,0,0a.11.11,0,0,1-.09,0c0-.06-.07,0-.09,0s-.25,0-.3.09a.73.73,0,0,1-.21.06c-.05-.06-.07,0-.09,0l-.08,0c0-.06-.07,0-.09,0l-.08,0a1,1,0,0,0-.68.19.55.55,0,0,1-.22.06c-.05-.06-.07,0-.08,0h-.09s0,0,0,0a.2.2,0,0,1-.13,0s0,0,0,0a.83.83,0,0,1-.27.07c0-.06-.07,0-.08,0a2.48,2.48,0,0,1-.39.1c-.05-.06-.07,0-.08,0h-.09c-.05-.06-.07,0-.08,0l-.08,0a.14.14,0,0,0-.22.06l-.09,0c0-.06-.07,0-.08,0l-.09,0c0-.06-.07,0-.08,0a1.1,1.1,0,0,1-.26.06c-.4-.94-.06-2.15-.17-3.17-.07-.35.41-.19.52-.41h.08a.67.67,0,0,0,.56-.15l.12,0c.1.07.16,0,.22-.06.68-.36,2.16-.15,2.24-1.08.06,0,.07,0,0-.08l0-.21c.11,0,.09-.11,0-.18a.92.92,0,0,1,0-.29C17,18.54,17,18.48,16.9,18.41Z"/><path class="cls-6" d="M14,7.06c-.16-.27-.91.18-.85-.29V3.48c2,0,4,0,6,0,.17.16.49,0,.71.07s.16.16.31.25-.14.3,0,.43-.16.36,0,.51-.14.42.05.51c-.06.31,0,.35,0,.6s-.1.24,0,.34-.15.33,0,.47-.12.36.05.47v.13c-.06.1-.09.34,0,.38v.09c-.06.1-.09.34,0,.38s-.14.33,0,.47-.15.29,0,.39-.14.36.05.51-.15.33,0,.47a.47.47,0,0,1,0,.17c-.06.06-.08.12,0,.17a1.06,1.06,0,0,1,0,.25c-1,0-2.09-.07-3.08,0a.32.32,0,0,1-.25,0c0-.08,0-.23-.08-.25s.14-.3,0-.43a.71.71,0,0,1,0-.25c.06-.09.08-.16,0-.22s.15-.33,0-.47.16-.36-.05-.51V8.34c.12-.2,0-.45,0-.67s-.09-.67-.42-.48a.5.5,0,0,1-.21,0c-.18-.17-.45.06-.69,0s-.61,0-.89,0a1.2,1.2,0,0,0-.82,0A.74.74,0,0,1,14,7.06Z"/><path class="cls-1" d="M13.15,12.23c-.57-.1-3.69.29-3.59-.22.15-1.57.28-3.14.46-4.7,0-.4,2.66-.23,3.13-.25Z"/><path class="cls-3" d="M17.75,10.6c1-.11,2.06,0,3.08,0A14.34,14.34,0,0,1,17.75,10.6Z"/><path class="cls-3" d="M16.82,7.19c.33-.19.46.21.42.48s.13.47,0,.67C17.06,8,17.35,7.27,16.82,7.19Z"/><path class="cls-3" d="M20.22,3.82c-.15-.09-.06-.3-.31-.25s-.54.09-.71-.07C19.55,3.54,20.34,3.26,20.22,3.82Z"/><path class="cls-3" d="M14.21,7.06a1.2,1.2,0,0,1,.82,0A4.47,4.47,0,0,1,14.21,7.06Z"/><path class="cls-3" d="M15.71,23.6a1,1,0,0,1,.68-.19A2.76,2.76,0,0,1,15.71,23.6Z"/><path class="cls-3" d="M15.37,7.1c.16,0,.43-.09.55,0A2.54,2.54,0,0,1,15.37,7.1Z"/><path class="cls-3" d="M20.56,7.66c-.12,0-.09-.28,0-.38A.7.7,0,0,1,20.56,7.66Z"/><path class="cls-3" d="M20.6,8.13c-.12,0-.09-.28,0-.38A.7.7,0,0,1,20.6,8.13Z"/><path class="cls-3" d="M20.35,5.27c-.12,0-.1-.28,0-.38A.81.81,0,0,1,20.35,5.27Z"/><path class="cls-3" d="M20.3,4.76c-.13-.1-.08-.22,0-.34A.57.57,0,0,1,20.3,4.76Z"/><path class="cls-3" d="M20.65,8.6c-.14-.1-.09-.22,0-.34A.67.67,0,0,1,20.65,8.6Z"/><path class="cls-3" d="M17.25,8.43c.14.1.08.22,0,.34A.67.67,0,0,1,17.25,8.43Z"/><path class="cls-3" d="M20.47,6.68c-.13-.1-.08-.22,0-.34A.57.57,0,0,1,20.47,6.68Z"/><path class="cls-3" d="M20.43,6.21c-.13-.1-.08-.22,0-.34A.57.57,0,0,1,20.43,6.21Z"/><path class="cls-3" d="M20.26,4.25c-.13-.1-.08-.22,0-.34A.65.65,0,0,1,20.26,4.25Z"/><path class="cls-3" d="M20.52,7.15c-.1-.09-.1-.14,0-.3A.52.52,0,0,1,20.52,7.15Z"/><path class="cls-3" d="M20.73,9.5c-.12-.09-.09-.19,0-.3A.51.51,0,0,1,20.73,9.5Z"/><path class="cls-3" d="M20.39,5.7c-.09-.09-.1-.15,0-.3A.52.52,0,0,1,20.39,5.7Z"/><path class="cls-3" d="M20.77,10c-.12-.09-.09-.2,0-.3A.44.44,0,0,1,20.77,10Z"/><path class="cls-3" d="M17.39,9.88c.11.09.08.19,0,.3A.45.45,0,0,1,17.39,9.88Z"/><path class="cls-3" d="M17.42,10.31c.12,0,.07.17.08.25C17.35,10.52,17.43,10.4,17.42,10.31Z"/><path class="cls-3" d="M16.35,7.15c.09-.05.18-.09.26,0A.39.39,0,0,1,16.35,7.15Z"/><path class="cls-3" d="M17.3,8.94c.12.09.09.19,0,.3A.62.62,0,0,1,17.3,8.94Z"/><path class="cls-3" d="M20.68,9c-.11-.06-.08-.14,0-.22A.28.28,0,0,1,20.68,9Z"/><path class="cls-3" d="M17.34,9.41c.11.06.09.13,0,.22A.29.29,0,0,1,17.34,9.41Z"/><path class="cls-3" d="M13.83,24.11a.14.14,0,0,1,.22-.06A.35.35,0,0,1,13.83,24.11Z"/><path class="cls-3" d="M20.81,10.31c-.1-.05-.08-.11,0-.17A.2.2,0,0,1,20.81,10.31Z"/><path class="cls-3" d="M17.54,23.09c0-.05,0-.09.09,0A.08.08,0,0,1,17.54,23.09Z"/><path class="cls-3" d="M17.24,23.17c0-.05,0-.08.09,0A.06.06,0,0,1,17.24,23.17Z"/><path class="cls-3" d="M16.94,23.26c0-.07.06-.07.12-.05A.11.11,0,0,1,16.94,23.26Z"/><path class="cls-3" d="M16.64,23.34c0-.05,0-.08.09,0A.06.06,0,0,1,16.64,23.34Z"/><path class="cls-3" d="M16.47,23.39c0-.05,0-.09.09,0S16.51,23.4,16.47,23.39Z"/><path class="cls-3" d="M15.41,23.69c0-.06,0-.09.08,0A.07.07,0,0,1,15.41,23.69Z"/><path class="cls-3" d="M14.77,23.86c0-.06,0-.09.08,0A.07.07,0,0,1,14.77,23.86Z"/><path class="cls-3" d="M14.3,24c0-.06,0-.09.08,0A.07.07,0,0,1,14.3,24Z"/><path class="cls-3" d="M14.13,24c0-.06,0-.09.08,0A.06.06,0,0,1,14.13,24Z"/><path class="cls-3" d="M13.66,24.15s0-.08.08,0A.05.05,0,0,1,13.66,24.15Z"/><path class="cls-3" d="M13.49,24.2c0-.06,0-.09.08,0A.07.07,0,0,1,13.49,24.2Z"/><path class="cls-3" d="M17.42,23.12s0-.05,0,0Z"/><path class="cls-3" d="M15.28,23.71s0,0,0,0Z"/><path class="cls-3" d="M15.12,23.76s0-.05,0,0Z"/><path class="cls-3" d="M17.11,16.11a.1.1,0,0,1,0,.13c-.09.15.05.34-.11.47A3,3,0,0,1,17.11,16.11Z"/><path class="cls-3" d="M14.22,20.52a.67.67,0,0,1-.56.15A2,2,0,0,1,14.22,20.52Z"/><path class="cls-3" d="M17,16.83c0,.14.1.27,0,.39A1.29,1.29,0,0,1,17,16.83Z"/><path class="cls-3" d="M17,17.47c.08.14.07.18,0,.26A.39.39,0,0,1,17,17.47Z"/><path class="cls-3" d="M16.94,17.9c.07.16.07.21,0,.3A.62.62,0,0,1,16.94,17.9Z"/><path class="cls-3" d="M14.56,20.43c-.06.08-.12.13-.22.06A.4.4,0,0,1,14.56,20.43Z"/><path class="cls-3" d="M16.9,18.41c.06.07.08.13,0,.18A.19.19,0,0,1,16.9,18.41Z"/><path class="cls-3" d="M16.85,18.88c.07.07.09.13,0,.18A.22.22,0,0,1,16.85,18.88Z"/><path class="cls-3" d="M17.16,15.77c.06,0,0,.07,0,.09A.06.06,0,0,1,17.16,15.77Z"/><path class="cls-3" d="M16.81,19.27c.06,0,.05.06,0,.08A.06.06,0,0,1,16.81,19.27Z"/><path class="cls-3" d="M17.13,15.94s0,0,0,0Z"/></g></g></svg>