<?xml version="1.0" encoding="UTF-8" standalone="no"?><svg xmlns="http://www.w3.org/2000/svg" viewBox="0 0 80 63.35"><defs><style>.cls-1{fill:#3e98b0;}.cls-2{fill:#cd5b64;}.cls-3{fill:#3a2057;}.cls-4{fill:#50639a;}.cls-5{fill:#2f5086;}.cls-6{fill:#7772a7;}.cls-7{fill:#995a8f;}.cls-8{fill:#254171;}.cls-9{fill:#ab3d7b;}.cls-10{fill:#538fc7;}.cls-11{fill:#ea8741;}.cls-12{fill:#16a296;}.cls-13{fill:#f9c33c;}.cls-14{fill:#59b871;}.cls-15{fill:#415b88;}</style></defs><g id="Layer_2" data-name="Layer 2"><g id="Layer_1-2" data-name="Layer 1"><path class="cls-1" d="M47.43,0c.14.4.57.38.86.58a2.14,2.14,0,0,1,.56,3.14A2.13,2.13,0,0,1,45.67,4a2.14,2.14,0,0,1,0-3.19c.31-.29.66-.53,1-.8Z"/><path class="cls-2" d="M46.47,63.35c-.11-.35-.48-.41-.71-.62a2.16,2.16,0,1,1,3.06-3,2.14,2.14,0,0,1-.5,3.16c-.22.16-.55.16-.65.48Z"/><path class="cls-3" d="M7.9,30.16c-.78,2.1-1.5,3.84-2.07,5.62-.34,1.09-1.13.61-1.77.72a.91.91,0,0,1-1.18-.68c-.94-3-1.92-6-2.88-9a1.34,1.34,0,0,1,.27-.1c2.19-.14,2.19-.14,2.85,1.95.41,1.29.83,2.58,1.27,4a7.67,7.67,0,0,0,1.08-2.38A14.1,14.1,0,0,0,6.29,28a1.56,1.56,0,0,1,2-1.35,1.08,1.08,0,0,1,1.1.81c.59,1.72,1.24,3.42,2,5.43.69-2.06,1.26-3.79,1.85-5.51.19-.56,2.17-1,2.57-.62.18.18,0,.36,0,.54-1,2.84-2,5.67-2.87,8.52-.27.85-.88.67-1.44.66s-1.16.21-1.44-.66C9.39,34,8.68,32.26,7.9,30.16Z"/><path class="cls-3" d="M25,35.55c0,1.68-.08,3.32,0,5,.08,1.17-.63.92-1.28.94s-1.26.12-1.24-1c.08-4.21,0-8.42,0-12.64,0-.48-.28-1.27.71-1.1.7.12,1.95-.66,1.73,1.26a4,4,0,0,1,3.68-1.46A4.44,4.44,0,0,1,31.51,28a5.5,5.5,0,0,1,.1,7.07C29.93,37,27.57,37.2,25,35.55Zm5.29-4a2.7,2.7,0,0,0-5.4,0,2.73,2.73,0,0,0,2.73,2.75A2.68,2.68,0,0,0,30.31,31.53Z"/><path class="cls-3" d="M41.86,31.5a5,5,0,0,1,5.19-5,5.12,5.12,0,0,1,5.17,5.19,5.22,5.22,0,0,1-5.22,5A5.15,5.15,0,0,1,41.86,31.5Zm5.29-2.61a2.72,2.72,0,0,0-.06,5.43,2.72,2.72,0,0,0,.06-5.43Z"/><path class="cls-4" d="M76.61,35.2a3.45,3.45,0,0,1-3.54-3.45,3.54,3.54,0,0,1,3.41-3.5A3.49,3.49,0,0,1,80,31.74,3.41,3.41,0,0,1,76.61,35.2Z"/><path class="cls-3" d="M37.32,27.66a3.34,3.34,0,0,1,3.26-1.08c.63.12,1.09.31.64,1.09a5.84,5.84,0,0,0-.35,1c-.14.41-.3.58-.84.47-2-.38-2.83.31-2.91,2.38a34.87,34.87,0,0,0,0,4c.09,1.09-.52,1-1.24,1s-1.31.15-1.27-1c.09-2.52,0-5.05.06-7.57,0-.42-.5-1.17.52-1.28C36.59,26.54,37,26.68,37.32,27.66Z"/><path class="cls-5" d="M75.56,21a3.23,3.23,0,0,1,3.17,3.24,3.3,3.3,0,0,1-3.41,3.15A3.2,3.2,0,0,1,75.56,21Z"/><path class="cls-6" d="M75.57,36.13a3.21,3.21,0,1,1-3.24,3.19A3.27,3.27,0,0,1,75.57,36.13Z"/><path class="cls-7" d="M75.48,46.46a2.94,2.94,0,0,1-2.8,2.88,3,3,0,0,1-3-3,2.9,2.9,0,1,1,5.79.09Z"/><path class="cls-8" d="M72.63,14.17A2.87,2.87,0,0,1,75.47,17a3,3,0,0,1-3,3,3.07,3.07,0,0,1-2.82-2.91A3,3,0,0,1,72.63,14.17Z"/><path class="cls-3" d="M20.24,31.58c0,1.33-.07,2.66,0,4,.07,1-.49,1-1.17,1s-1.4.35-1.37-.88c.07-2.68.07-5.38,0-8.06,0-1.23.78-.8,1.36-.86s1.26-.14,1.18.91C20.17,28.93,20.24,30.26,20.24,31.58Z"/><path class="cls-9" d="M67.89,55.11a2.71,2.71,0,0,1-2.6-2.62,2.62,2.62,0,1,1,5.24,0A2.73,2.73,0,0,1,67.89,55.11Z"/><path class="cls-5" d="M67.91,8.42A2.6,2.6,0,0,1,70.54,11,2.66,2.66,0,0,1,68,13.61,2.69,2.69,0,0,1,65.31,11,2.62,2.62,0,0,1,67.91,8.42Z"/><path class="cls-4" d="M68.21,34.21a2.52,2.52,0,0,1-2.41-2.5,2.57,2.57,0,0,1,2.6-2.46,2.48,2.48,0,1,1-.19,5Z"/><path class="cls-4" d="M59.4,6.28a2.45,2.45,0,1,1,2.38,2.51A2.47,2.47,0,0,1,59.4,6.28Z"/><path class="cls-9" d="M61.84,59.55a2.32,2.32,0,0,1-2.41-2.41,2.37,2.37,0,0,1,2.37-2.47,2.49,2.49,0,0,1,2.51,2.5A2.39,2.39,0,0,1,61.84,59.55Z"/><path class="cls-10" d="M54.78,1.13a2.28,2.28,0,0,1,2.29,2.29,2.42,2.42,0,0,1-2.3,2.33,2.31,2.31,0,0,1-2.31-2.4A2.2,2.2,0,0,1,54.78,1.13Z"/><path class="cls-2" d="M57.07,60.14a2.38,2.38,0,0,1-2.36,2.24,2.32,2.32,0,0,1-2.26-2.33,2.28,2.28,0,0,1,2.41-2.28A2.3,2.3,0,0,1,57.07,60.14Z"/><path class="cls-5" d="M67.53,28.42a2.09,2.09,0,0,1-2.09-2.16,2.23,2.23,0,0,1,2.13-2.17,2.2,2.2,0,0,1,2.16,2.26A2.14,2.14,0,0,1,67.53,28.42Z"/><path class="cls-6" d="M65.44,37.22A2.18,2.18,0,0,1,67.63,35a2.28,2.28,0,0,1,2.12,2.21,2.18,2.18,0,0,1-2.17,2.11A2.08,2.08,0,0,1,65.44,37.22Z"/><path class="cls-11" d="M39.5,58a2,2,0,0,1,2.08,2,2,2,0,0,1-4.09.07A2,2,0,0,1,39.5,58Z"/><path class="cls-12" d="M39.49,1.41a2,2,0,0,1,.09,4,2,2,0,0,1-2.07-2A2,2,0,0,1,39.49,1.41Z"/><path class="cls-7" d="M65.42,40.26a2,2,0,0,1,2,1.92,2,2,0,0,1-1.95,2.13,2.06,2.06,0,0,1-2.07-1.92A2.08,2.08,0,0,1,65.42,40.26Z"/><path class="cls-8" d="M65.39,23.16a2,2,0,0,1-2-2,2,2,0,1,1,4,.13A1.94,1.94,0,0,1,65.39,23.16Z"/><path class="cls-11" d="M32.45,55.22a2,2,0,0,1,1.93,1.9,2,2,0,0,1-2,1.86,1.88,1.88,0,0,1,0-3.76Z"/><path class="cls-5" d="M62.11,18.71A1.89,1.89,0,0,1,62,14.93a1.89,1.89,0,1,1,.11,3.78Z"/><path class="cls-12" d="M34.38,6.33a1.9,1.9,0,0,1-3.8,0,1.9,1.9,0,0,1,3.8,0Z"/><path class="cls-9" d="M64,46.63a2,2,0,0,1-1.93,1.92,2,2,0,0,1-1.87-1.82A1.88,1.88,0,0,1,62,44.79,1.91,1.91,0,0,1,64,46.63Z"/><path class="cls-13" d="M26.43,54.18a1.78,1.78,0,0,1-1.81-1.68,1.77,1.77,0,1,1,3.53-.08A1.69,1.69,0,0,1,26.43,54.18Z"/><path class="cls-9" d="M56,50a1.75,1.75,0,1,1,1.72,1.79A1.79,1.79,0,0,1,56,50Z"/><path class="cls-14" d="M28.12,11.08a1.75,1.75,0,0,1-3.49,0,1.75,1.75,0,1,1,3.49,0Z"/><path class="cls-4" d="M59.48,13.47A1.79,1.79,0,0,1,57.7,15.2a1.72,1.72,0,1,1,1.78-1.73Z"/><path class="cls-4" d="M61.85,30.07a1.7,1.7,0,0,1,1.72,1.64,1.75,1.75,0,0,1-1.74,1.74,1.72,1.72,0,0,1-1.64-1.72A1.64,1.64,0,0,1,61.85,30.07Z"/><path class="cls-13" d="M21.78,47.93a1.6,1.6,0,0,1-1.7-1.52,1.63,1.63,0,0,1,1.6-1.62,1.51,1.51,0,0,1,1.64,1.51A1.53,1.53,0,0,1,21.78,47.93Z"/><path class="cls-14" d="M20.09,17a1.6,1.6,0,0,1,1.57-1.46,1.57,1.57,0,0,1,1.6,1.6,1.56,1.56,0,0,1-1.55,1.54A1.63,1.63,0,0,1,20.09,17Z"/><path class="cls-5" d="M62.89,28.27a1.41,1.41,0,0,1-1.52,1.23,1.59,1.59,0,0,1-1.61-1.59,1.62,1.62,0,0,1,1.62-1.58C62.27,26.36,62.92,27.07,62.89,28.27Z"/><path class="cls-10" d="M52.73,9.76a1.55,1.55,0,0,1,1.45,1.55,1.57,1.57,0,1,1-1.45-1.55Z"/><path class="cls-2" d="M54.18,52.11A1.57,1.57,0,1,1,51.05,52a1.43,1.43,0,0,1,1.54-1.48A1.51,1.51,0,0,1,54.18,52.11Z"/><path class="cls-6" d="M62.89,35.49a1.51,1.51,0,0,1-1.54,1.62,1.59,1.59,0,0,1-1.6-1.59A1.63,1.63,0,0,1,61.4,34,1.48,1.48,0,0,1,62.89,35.49Z"/><path class="cls-3" d="M18.9,22.28a1.36,1.36,0,0,1,1.41,1.42,1.41,1.41,0,0,1-1.38,1.51,1.44,1.44,0,0,1-1.51-1.5A1.41,1.41,0,0,1,18.9,22.28Z"/><path class="cls-8" d="M61.3,24.44a1.33,1.33,0,0,1-1.43,1.37,1.42,1.42,0,0,1,0-2.84A1.37,1.37,0,0,1,61.3,24.44Z"/><path class="cls-1" d="M47.09,12.08a1.34,1.34,0,0,1-1.36-1.48,1.3,1.3,0,0,1,1.45-1.39,1.35,1.35,0,0,1,1.39,1.48A1.37,1.37,0,0,1,47.09,12.08Z"/><path class="cls-2" d="M47.11,54.24a1.36,1.36,0,0,1-1.38-1.49,1.42,1.42,0,0,1,2.84.06A1.35,1.35,0,0,1,47.11,54.24Z"/><path class="cls-7" d="M59.82,40.5C59,40.39,58.42,40,58.47,39a1.3,1.3,0,0,1,1.37-1.37,1.34,1.34,0,0,1,1.46,1.42A1.37,1.37,0,0,1,59.82,40.5Z"/><path class="cls-11" d="M43,52.09c-.18.81-.63,1.36-1.47,1.28a1.3,1.3,0,0,1,.2-2.59A1.33,1.33,0,0,1,43,52.09Z"/><path class="cls-5" d="M58.81,21.41a1.27,1.27,0,0,1-2.54,0,1.21,1.21,0,0,1,1.26-1.32A1.25,1.25,0,0,1,58.81,21.41Z"/><path class="cls-12" d="M41.66,12.66a1.24,1.24,0,0,1-1.26-1.32,1.16,1.16,0,0,1,1.31-1.23A1.19,1.19,0,0,1,43,11.41,1.22,1.22,0,0,1,41.66,12.66Z"/><path class="cls-9" d="M58.8,42.13a1.16,1.16,0,0,1-1.26,1.24,1.28,1.28,0,0,1,0-2.56A1.21,1.21,0,0,1,58.8,42.13Z"/><path class="cls-11" d="M37.77,49.87c-.07.75-.43,1.21-1.13,1.24A1.06,1.06,0,0,1,35.45,50a1.07,1.07,0,0,1,1.1-1.19A1.18,1.18,0,0,1,37.77,49.87Z"/><path class="cls-12" d="M37.77,13.53c-.14.65-.5,1.13-1.21,1.11a1.07,1.07,0,0,1-1.11-1.17,1.1,1.1,0,0,1,1.17-1.13C37.31,12.36,37.68,12.83,37.77,13.53Z"/><path class="cls-4" d="M55.64,19a1.12,1.12,0,0,1-1.14,1.15,1,1,0,0,1-1.13-1.13,1.05,1.05,0,0,1,1.11-1.16A1.15,1.15,0,0,1,55.64,19Z"/><path class="cls-13" d="M32.24,45.58a1,1,0,0,1,1,1.07,1,1,0,0,1-1,1,1,1,0,0,1-1.09-1A1,1,0,0,1,32.24,45.58Z"/><path class="cls-9" d="M55.64,44.43c-.09.68-.43,1.12-1.15,1.12a1.12,1.12,0,1,1,0-2.24A1.09,1.09,0,0,1,55.64,44.43Z"/><path class="cls-2" d="M52,46a1,1,0,0,1-1.14,1,1,1,0,0,1-1-1.12,1,1,0,0,1,1.12-1A1.06,1.06,0,0,1,52,46Z"/><path class="cls-4" d="M57,32.79c-.68,0-1.08-.3-1.12-1a1,1,0,0,1,1-1.13A1,1,0,0,1,58,31.74,1,1,0,0,1,57,32.79Z"/><path class="cls-10" d="M52,17.64c-.11.64-.48,1.06-1.12,1a1,1,0,0,1-1-1.12,1,1,0,0,1,1.11-1C51.65,16.56,52,17,52,17.64Z"/><path class="cls-2" d="M47.11,47.38c-.58-.11-1-.44-1-1a1,1,0,0,1,1.1-1,.92.92,0,0,1,.89,1.06A1,1,0,0,1,47.11,47.38Z"/><path class="cls-15" d="M56.58,30.25c-.58-.08-1-.33-1-1a1,1,0,1,1,1.95-.07C57.55,29.82,57.17,30.13,56.58,30.25Z"/><path class="cls-13" d="M28.88,41.33a.85.85,0,0,1,.86,1,.8.8,0,0,1-.94.85.79.79,0,0,1-.8-.87A.86.86,0,0,1,28.88,41.33Z"/><path class="cls-1" d="M48.15,17.11a1,1,0,0,1-1,1,1,1,0,1,1,0-1.95C47.78,16.12,48.06,16.52,48.15,17.11Z"/><path class="cls-6" d="M56.55,33.24c.56.11,1,.39,1,1a.88.88,0,0,1-1,1,.86.86,0,0,1-1-1C55.58,33.61,56,33.34,56.55,33.24Z"/><path class="cls-11" d="M42.4,45.89a.93.93,0,0,1,.93-1,.85.85,0,0,1,.93.88.87.87,0,0,1-1,1C42.72,46.78,42.5,46.35,42.4,45.89Z"/><path class="cls-14" d="M33.21,16.91c-.13.59-.43,1-1.07.92a.9.9,0,0,1-.86-1.08.86.86,0,0,1,1-.85C32.89,15.92,33.16,16.33,33.21,16.91Z"/><path class="cls-7" d="M55.55,35.64a.86.86,0,0,1,.92.89.84.84,0,0,1-.85.94.86.86,0,0,1-1-.95A.84.84,0,0,1,55.55,35.64Z"/><path class="cls-8" d="M56.46,26.93a.89.89,0,0,1-1,.87.91.91,0,0,1,.1-1.81C56.18,26,56.4,26.4,56.46,26.93Z"/><path class="cls-11" d="M40.68,44.37c0,.53-.31.86-.81.88a.86.86,0,0,1-.1-1.72A.84.84,0,0,1,40.68,44.37Z"/><path class="cls-14" d="M28.85,22.11a.86.86,0,0,1-.8-.9.77.77,0,0,1,.86-.79.76.76,0,0,1,.78.86A.84.84,0,0,1,28.85,22.11Z"/><path class="cls-12" d="M39.81,18.21c.53.07.84.34.84.86a.8.8,0,0,1-.82.86.82.82,0,0,1-.89-.92C39,18.46,39.35,18.27,39.81,18.21Z"/><path class="cls-9" d="M54,37.7c.49.07.83.32.85.83a.8.8,0,0,1-.79.88.79.79,0,0,1-.89-.88C53.21,38,53.56,37.78,54,37.7Z"/><path class="cls-13" d="M36.75,41.25a.78.78,0,0,1,.82.74c.06.55-.29.81-.79.85a.72.72,0,0,1-.81-.71C35.92,41.6,36.29,41.36,36.75,41.25Z"/><path class="cls-13" d="M34.63,39.81a.81.81,0,0,1-.87-.74.72.72,0,0,1,.68-.82c.47-.06.72.27.78.71S34.93,39.64,34.63,39.81Z"/><path class="cls-5" d="M54,25.75a.85.85,0,0,1-.77-.89.74.74,0,0,1,.83-.8.78.78,0,0,1,.85.91A.85.85,0,0,1,54,25.75Z"/><path class="cls-12" d="M44.06,17.61c.11.63-.49.82-.87.87s-.83-.35-.83-.91.24-.74.73-.73S44.07,16.87,44.06,17.61Z"/><path class="cls-9" d="M52.05,40.93c-.53-.09-.8-.34-.8-.82a.72.72,0,0,1,.72-.8.74.74,0,0,1,.79.85C52.74,40.66,52.38,40.81,52.05,40.93Z"/><path class="cls-14" d="M36.8,22.18c-.49-.05-.79-.32-.8-.75a.73.73,0,0,1,.84-.78.69.69,0,0,1,.69.79A.72.72,0,0,1,36.8,22.18Z"/><path class="cls-14" d="M34.41,23.73a.68.68,0,0,1,.7.69.59.59,0,0,1-.61.71.65.65,0,0,1-.72-.65A.76.76,0,0,1,34.41,23.73Z"/><path class="cls-2" d="M49.59,41.79a.69.69,0,0,1-.66-.71.67.67,0,0,1,.76-.71.65.65,0,0,1,.66.69C50.34,41.53,50,41.74,49.59,41.79Z"/><path class="cls-4" d="M52,22.61a.7.7,0,0,1,.76.74.75.75,0,1,1-.76-.74Z"/><path class="cls-10" d="M49.67,23.11a.71.71,0,0,1-.71-.68.63.63,0,0,1,.73-.73.62.62,0,0,1,.64.71A.66.66,0,0,1,49.67,23.11Z"/><path class="cls-2" d="M47.78,41.36a.62.62,0,0,1-.56.65.58.58,0,0,1-.71-.59.6.6,0,0,1,.66-.66C47.54,40.76,47.7,41,47.78,41.36Z"/><path class="cls-1" d="M47.79,22c-.06.41-.24.64-.61.66a.61.61,0,0,1-.68-.64.6.6,0,0,1,.59-.61C47.53,21.42,47.69,21.74,47.79,22Z"/><path class="cls-1" d="M45.22,22.45c-.09.34-.28.59-.65.54a.57.57,0,0,1,.07-1.13A.56.56,0,0,1,45.22,22.45Z"/><path class="cls-11" d="M45.2,41.08c-.06.31-.24.54-.56.51a.52.52,0,0,1-.53-.64.5.5,0,0,1,.6-.45A.56.56,0,0,1,45.2,41.08Z"/></g></g></svg>