<?xml version="1.0" encoding="UTF-8" standalone="no"?><svg xmlns="http://www.w3.org/2000/svg" viewBox="0 0 60.17 60"><defs><style>.cls-1{fill:#1162fb;}.cls-2{fill:#cfdffe;}</style></defs><g id="Layer_2" data-name="Layer 2"><g id="Layer_1-2" data-name="Layer 1"><path class="cls-1" d="M29.89,60A30,30,0,1,1,60.17,30.18,30.06,30.06,0,0,1,29.89,60ZM48.54,22.45c.05,1.33.88,2.33,1.49,3.41a.76.76,0,0,0,1.24.09c.2-.21.61-.84.1-.88-1.76-.14-1.43-2.2-2.7-2.73.06-.56,0-1.23.92-1a6.78,6.78,0,0,1,3.45,2c.63.68,1.14,1,2,.58.56-.32.9-.86.39-1.44-.66-.73-1.2-2.6-2.06-1.92-1.54,1.22-2.53.14-3.72-.14-.65-.15-1.41-.68-1.8.08A1.38,1.38,0,0,0,48.54,22.45ZM17.88,36.84c-.54-1.6-2-2.57-2.55-4-.9-2.2,1.31-2.53,2.46-3.68a15.39,15.39,0,0,1,.91,2.08c.69,2.72,4,5.49-.12,8.16-.13.08-.11.56,0,.79a.72.72,0,0,0,1,.3,4.73,4.73,0,0,0,2.26-2.2c1.49-2.55,2.29-5.39,3.37-8.11.22-.57.86-1.33-.19-1.69-.88-.3-1.17.51-1.41,1.13-.55,1.39-1.05,2.8-1.59,4.28-1.85-1.61-.85-4.75-3.57-5.5s-3.85,1.6-5.6,3.25c-.08-.8-.13-1.27-.16-1.74,0-.68,0-1.56-1-1.45s-.69,1-.71,1.66a19.69,19.69,0,0,0,0,3.52c.16,1.12-.89,3.06.78,3.19s.4-2,1.06-2.87a2.15,2.15,0,0,1,.47-.32c1,.36,1.28,1.4,1.85,2.14S16.43,37.37,17.88,36.84ZM30,29.72c1.46.61,3.47-.87,3.79,1C34,31.94,32,31.54,31,32.14c-1.17.76-1.94,1.66-1.62,3.1s1.41,1.93,2.84,1.89c4-.1,4-.08,3.9-4.09a9.77,9.77,0,0,0-.09-2C35.47,28.13,32.57,27.41,30,29.72ZM45,30.92c-.67-.78.3-2.44-1.1-2.38s-.76,1.52-.87,2.39a7.33,7.33,0,0,0,0,2c.23,1.35-.84,3.59.74,3.87,1.9.34.15-2.36,1.5-3.13,1.11.13,1.31,1.25,1.91,1.94s1.21,1.86,2.84,1.06a33.51,33.51,0,0,1-2.79-4c-1-2,2.08-2.27,1.94-4.14C47,28,46.61,30.4,45,30.92ZM6.23,37.11c1.58.08,2.92-.15,3.4-1.75s-.46-2.55-1.77-3.25c-.66-.34-1.66-.54-1.48-1.51s1.15-.74,1.91-.72c.38,0,.82,0,.9-.51s-.36-.86-.85-.94c-1.53-.27-3-.13-3.71,1.48s.06,2.58,1.55,3.25c.81.36,2.09.53,1.68,1.91-.23.8-1,.76-1.72.73s-1.77-.82-1.71.57C4.48,37.4,5.65,37,6.23,37.11Zm31.54-4.55a12.61,12.61,0,0,0,0,2c.14.84-.59,2.29.87,2.33s.86-1.42,1-2.26c.23-1.82-.59-4.06,2.12-4.8.41-.11.47-.62.29-1a1.07,1.07,0,0,0-.66-.47c-2.38-.45-3.64.7-3.6,3.28Zm-9.66-1.73c0-1.56,0-3.12,0-4.68,0-.56.07-1.29-.72-1.35s-.92.59-.93,1.19c0,3.31,0,6.63,0,9.94,0,.51.18,1,.77,1,.86.07.86-.61.87-1.19C28.12,34.14,28.11,32.48,28.11,30.83Z"/><path class="cls-2" d="M17.88,36.84c-1.45.53-2-.23-2.67-1s-.83-1.78-1.85-2.14a2.15,2.15,0,0,0-.47.32c-.66.89.5,3-1.06,2.87s-.62-2.07-.78-3.19a19.69,19.69,0,0,1,0-3.52c0-.63-.24-1.56.71-1.66s.91.77,1,1.45c0,.47.08.94.16,1.74,1.75-1.65,2.9-4,5.6-3.25s1.72,3.89,3.57,5.5c.54-1.48,1-2.89,1.59-4.28.24-.62.53-1.43,1.41-1.13,1.05.36.41,1.12.19,1.69-1.08,2.72-1.88,5.56-3.37,8.11a4.73,4.73,0,0,1-2.26,2.2.72.72,0,0,1-1-.3c-.1-.23-.12-.71,0-.79,4.13-2.67.81-5.44.12-8.16a15.39,15.39,0,0,0-.91-2.08c-1.15,1.15-3.36,1.48-2.46,3.68C15.9,34.27,17.34,35.24,17.88,36.84Z"/><path class="cls-2" d="M30,29.72c2.55-2.31,5.45-1.59,6.05,1.29a9.77,9.77,0,0,1,.09,2c.05,4,.05,4-3.9,4.09-1.43,0-2.51-.41-2.84-1.89s.45-2.34,1.62-3.1c.93-.6,3-.2,2.77-1.47C33.49,28.85,31.48,30.33,30,29.72Zm2.7,6.08a1.93,1.93,0,0,0,1.66-1.95c0-1-.74-1-1.41-.87-1,.15-1.92.53-1.8,1.79C31.26,35.56,31.86,35.85,32.72,35.8Z"/><path class="cls-2" d="M45,30.92C46.61,30.4,47,28,49.13,28.57c.14,1.87-3,2.14-1.94,4.14a33.51,33.51,0,0,0,2.79,4c-1.63.8-2.16-.26-2.84-1.06s-.8-1.81-1.91-1.94c-1.35.77.4,3.47-1.5,3.13-1.58-.28-.51-2.52-.74-3.87a7.33,7.33,0,0,1,0-2c.11-.87-.47-2.33.87-2.39S44.28,30.14,45,30.92Z"/><path class="cls-2" d="M6.23,37.11c-.58-.11-1.75.29-1.8-.74-.06-1.39,1.06-.61,1.71-.57s1.49.07,1.72-.73c.41-1.38-.87-1.55-1.68-1.91C4.69,32.49,4,31.4,4.63,29.91s2.18-1.75,3.71-1.48c.49.08.94.32.85.94s-.52.53-.9.51c-.76,0-1.72-.34-1.91.72s.82,1.17,1.48,1.51c1.31.7,2.26,1.64,1.77,3.25S7.81,37.19,6.23,37.11Z"/><path class="cls-2" d="M37.77,32.56v-.87c0-2.58,1.22-3.73,3.6-3.28a1.07,1.07,0,0,1,.66.47c.18.37.12.88-.29,1-2.71.74-1.89,3-2.12,4.8-.1.84.55,2.31-1,2.26s-.73-1.49-.87-2.33A12.61,12.61,0,0,1,37.77,32.56Z"/><path class="cls-2" d="M28.11,30.83c0,1.65,0,3.31,0,5,0,.58,0,1.26-.87,1.19-.59,0-.77-.54-.77-1,0-3.31,0-6.63,0-9.94,0-.6.16-1.25.93-1.19s.71.79.72,1.35C28.13,27.71,28.11,29.27,28.11,30.83Z"/><path class="cls-2" d="M48.53,22.45a1.39,1.39,0,0,1-.73-1.95c.39-.76,1.15-.23,1.8-.08,1.19.28,2.18,1.36,3.72.14.86-.68,1.4,1.19,2.06,1.92.51.58.17,1.12-.39,1.44-.81.44-1.32.1-2-.58a6.78,6.78,0,0,0-3.45-2c-1-.22-.86.45-.92,1Z"/><path class="cls-2" d="M48.67,22.34c1.27.53.94,2.59,2.7,2.73.51,0,.1.67-.1.88A.76.76,0,0,1,50,25.86c-.61-1.08-1.44-2.08-1.5-3.41Z"/><path class="cls-1" d="M32.72,35.8c-.86.05-1.46-.24-1.55-1C31.05,33.51,32,33.13,33,33c.67-.1,1.46-.14,1.41.87A1.93,1.93,0,0,1,32.72,35.8Z"/></g></g></svg>