<?xml version="1.0" encoding="UTF-8" standalone="no"?><svg xmlns="http://www.w3.org/2000/svg" viewBox="0 0 320 234.52"><defs><style>.cls-1{fill:#046bde;}.cls-2{fill:#bbe1f2;}.cls-3{fill:#049cf6;}.cls-4{fill:#1d33b6;}.cls-5{fill:#1c3159;}.cls-6{fill:#2133b2;}.cls-7{fill:#f8a484;}.cls-8{fill:#18315b;}.cls-9{fill:#e0e2e5;}.cls-10{fill:#1e53c5;}.cls-11{fill:#ec7b5e;}.cls-12{fill:#274dbf;}.cls-13{fill:#030d2b;}.cls-14{fill:#fdfdfe;}.cls-15{fill:#026bde;}.cls-16{fill:#1e567d;}</style></defs><g id="Layer_2" data-name="Layer 2"><g id="Layer_1-2" data-name="Layer 1"><path class="cls-1" d="M27.77,202.29a6.46,6.46,0,0,0-4.93-3.44A20.44,20.44,0,0,1,15,195.64C11.23,193,9.09,189.3,10,184.88c1.71-7.94-1.07-14.49-5.22-20.81-1.44-2.19-3.07-4.26-4.82-6.69,8.82,1.9,15.67,6,20,13.8a68.45,68.45,0,0,0,4,7.06,11.24,11.24,0,0,0,5.62,4.47c1.05.34,1.53.14,1.5-1.09-.06-2.36,0-4.73,0-7.09v-1.75c.3-3.73.34-7.51,1-11.19a280.31,280.31,0,0,1,6.46-29.43,19.83,19.83,0,0,0-1.35-13.82c-1.83-4-4.89-6.89-7.89-9.89-.4-.4-1.31-.82-.81-1.45s1.25-.11,1.8.36c5.36,4.64,9.48,10,10.25,17.86,1.86-5.15,3.6-9.82,5.2-14.53.57-1.69,1.83-3.16,1.72-5.08a1.46,1.46,0,0,0,.74-1.2A18.38,18.38,0,0,0,50,99.59a16.59,16.59,0,0,1,4.74-5.4,81.14,81.14,0,0,1,9.87-5.86c.08.4.18.8.23,1.21.76,5.41,1.46,10.83,2.29,16.22a56.29,56.29,0,0,1-.07,19c-.73,3.87-1.76,7.69-1.64,11.71.18,6,1.42,11.82,2.31,17.7.71,4.73,1.65,9.41,1.52,14.23-.11,4.31.23,8.65-.49,12.91-.5,2.92-.19,5.83-.42,8.74-.51,6.49-1.1,13-1.66,19.46A81,81,0,0,1,55,207.79c-1.9-.39-2.45.09-2.07,1.9,0,4,.06,8.06,0,12.09,0,1.39.47,1.75,1.82,1.74,7.16-.06,14.32,0,21.48,0a2,2,0,0,0,1.4-.27l.56-.2a17,17,0,0,0,6.5.4h.42l24.68,0c5.76,0,11.52,0,17.29.09,1,0,1.49-.28,1.61-1.36.2-1.93.57-3.84.87-5.76a4.09,4.09,0,0,0,.44-2.52l.23-1.3.94-5.43.79-.08c3.78,0,7.56.35,11.33-.18l.82,0a5,5,0,0,1,.31.77c.28,1.1.77,1.92,2.08,2a2,2,0,0,0,2.32-1.62c.2-.75.8-.89,1.47-.88l3.35,0c0,2.92,0,5.85,0,8.77-.05,0-.13.08-.12.11a1.39,1.39,0,0,0,.12.28l0,.82c-.77,0-1.53,0-2.29,0-2,.18-4-.48-5.9.41l-1.72.85c-1.19.11-2.49.18-2.81,1.62-.26,1.14-.38,2.39,1.1,3,.64.61,1.45.37,2.19.37q17.13,0,34.26,0a.74.74,0,0,0,.83-.3l.07-.09a20.81,20.81,0,0,0,1-2.2,2.33,2.33,0,0,0-.37-2.67,2.06,2.06,0,0,0-2.78-.15c-2.3-.74-4.67-.37-7-.44-.83,0-1.69.1-2.12-.87,0-.38,0-.75,0-1.13s.21-.59.32-.88c2.26-1.17,2.2-3-.15-4.65l-.14-2.82c7.89-.31,15.79-.16,23.69-.08l.88,4.61c.15,3.69,1.21,7.24,1.7,10.88.12.88.73.89,1.38.88l17.77-.1h20.59l1.24,0,3.4.05c2.51,0,5,.48,7.52-.32a10.59,10.59,0,0,0,4.58.3l20.41,0,.58.21a47.65,47.65,0,0,0,11.26-.06l.12-.06,2.89-.06c4.14,0,8.29,0,12.43.1,3,.06,4.6,1.33,5.38,4.12-.42,1.63-1.74,1.27-2.86,1.27q-94.44,0-188.87,0l-92.24,0c.18-3.44,2-5.31,5.59-5.36,4.67-.08,9.33,0,14,0a3,3,0,0,0,2-.32c-3.51-1.91-7.06-3.51-9.68-6.45-.08-.76-.18-1.51-.26-2.27-.31-3.27-.4-6.54,1.09-9.58.42-.84.67-2.43,1.88-2,.85.29.28,1.76.18,2.68-.17,1.64-.73,3.26-.4,4.94.12.59.27,1.35.93,1.5s1.07-.54,1.35-1.08c1.36-2.57,2.79-5.11,3.32-8a1.55,1.55,0,0,0,.09-1.88l.12-1.48c3,1.4,3.49,4.28,3.9,7.06a30.77,30.77,0,0,0,6.74,15c.33.4.75,1.3,1.42.72s-.15-1-.48-1.38c-3.4-4.41-6-9.14-6.52-14.83A10.19,10.19,0,0,0,43.48,201c-1.61-2.2-3.52-4.22-3.57-7.19l-.08-1c.07-1.39,1.6-1.9,1.87-3.34.31-1.67,0-2.14-1.62-2a29.52,29.52,0,0,1-7.26-.47c-2.05-.34-2.45,0-2,2a3.21,3.21,0,0,0,.8,1.89c-.13.67-.48.64-1.07.49-6.5-1.61-11.4-5-13.52-11.7-.16-.5-.2-1.37-.87-1.19-.85.22-.4,1-.2,1.55,2,5.42,5.19,9.61,11.07,11.3a12.78,12.78,0,0,1,4.58,1.95A60.14,60.14,0,0,1,27.77,202.29ZM42.92,180c-1.05,4.57-1,4.51,3.1,5.26,1.56.29,1.63-.39,1.37-1.54a58.06,58.06,0,0,1,.14-6.05c.68-5.68.12-11.38.34-17.06,0-.73-.27-1.29-1-1.39-.93-.12-.63.71-.71,1.18Q44.53,170.23,42.92,180Zm19.18-.47A31.24,31.24,0,0,0,60.74,170a23,23,0,0,0-7-11.1c-.36-.3-.72-.83-1.24-.35s.09.84.37,1.16a30.83,30.83,0,0,1,2.94,3.23,28.81,28.81,0,0,1,5,17.07c0,.7,0,1.4,0,2.09,0,.49.12,1.07.76,1s.45-.61.47-1C62.12,181.23,62.1,180.4,62.1,179.56ZM55,130.09c-.07-.41.06-1-.53-1s-.64.61-.81,1.07c-1.78,5.09-3.17,10.3-4.53,15.51-.69,2.61-1.25,5.25-1.88,7.87-.09.39-.37.86.16,1.07s.76-.27,1-.6a3.15,3.15,0,0,0,.31-1c1.36-6.44,3.13-12.77,5.06-19C54.16,132.7,54.59,131.39,55,130.09Zm119.65,80.23a2.45,2.45,0,0,0,2.54,2.61,2.49,2.49,0,0,0,2.4-2.63,2.25,2.25,0,0,0-2.47-2.26A2.3,2.3,0,0,0,174.65,210.32Zm-37.86,4.42c1.57,0,2.54-.73,2.69-2.17.17-1.61-1-2.19-2.32-2.41a2.47,2.47,0,0,0-2.6,2.4A2.28,2.28,0,0,0,136.79,214.74Zm51.85,3.76a2.26,2.26,0,0,0,2.32-2.33,2.21,2.21,0,0,0-2.41-2.3c-1.47,0-2.09.71-2.18,2.16C186.28,217.66,187.13,218.27,188.64,218.5Z"/><path class="cls-2" d="M64.6,88.33a81.14,81.14,0,0,0-9.87,5.86A16.59,16.59,0,0,0,50,99.59c-1-3.1-1.7-6.39-3.15-9.28-2.45-4.85-1.13-9,1.54-13.08.65-1,1.28-2,1.86-3a28.83,28.83,0,0,0,3.34-7.63c.28-1.22.6-2.6-.72-3.42s-2.72-.24-3.83.7a12.44,12.44,0,0,0-3.31,5.25,38.23,38.23,0,0,0-2.15,10.24,35.16,35.16,0,0,1-3.37-18.8c.49-5.42.91-10.84-.67-16.18A92.1,92.1,0,0,1,47,32.62c9.07-11.3,20.42-18.77,35-20.46C100.41,10,115.71,16.23,128,29.81c5.89,6.52,9.28,14.45,11.53,22.89.62,2.32,1,4.75,2.53,6.75-.41,4-1.45,7.91-1.33,12,.15,5,2.24,7.64,7,9.15a37.43,37.43,0,0,0,6.56,1,2.55,2.55,0,0,1-1.31.9c-.93-.56-1.35-.29-1.29.78-2.09,1.31-4.6,1.9-6.38,3.74a29.69,29.69,0,0,0-10.33,6.46,3.5,3.5,0,0,0-.78,1.21,91.53,91.53,0,0,0-5.94,22.48c-1.18,1.57-.79,3.63-1.68,5.29-4.55-7.17-8.63-14.62-12.71-22.06a15.13,15.13,0,0,0-4.6-5.27,56,56,0,0,0-11.16-6.38A3.59,3.59,0,0,0,96,87.48a.13.13,0,0,0-.2,0l-.62-.38-.36-.21-.75-.54-7-3.93c0-1,.38-2-.33-2.94.47-1,1.44-1.46,2.23-2.11,2.28-1.86,3.89-4.06,4.08-7.14a18.67,18.67,0,0,1,.57-2.83c2.64-.14,4.06-1.35,4.92-4.24.94-3.15.46-4.89-1.83-6.61a24.93,24.93,0,0,0,1.74-3.31c.69-2,1-4-1-5.53A12.41,12.41,0,0,1,94.55,44c-1.6-2.62-3.49-5.09-7.22-4.25-.54.12-.81-.3-1.2-.58-2.54-1.84-4.48-4.4-7.31-5.88-4.07-2.13-8.12-1-10.32,3-.8,1.46-1.33,3.06-2,4.59a5.81,5.81,0,0,1-1.73,2.56,5,5,0,0,0-.74,7.44A8.9,8.9,0,0,1,66.2,57c-2-.4-3.19.35-3.56,2.31-.72,3.71,1.85,7.83,5,8,.15.53.34,1,.44,1.59.58,3.33,1.75,6.25,5,7.92a4.15,4.15,0,0,1,2,2.8c0,1-.09,1.91-.13,2.86l-5.81,3.37-3.32,1.86Z"/><path class="cls-1" d="M248.12,82.86c2.12,1.55,4.44,2.85,6.57,4.38,5.1,3.67,10.74,3.68,16.55,2.94a70.73,70.73,0,0,0,16.49-4.28c.95-.36,1.66-.41,2.25.49a98,98,0,0,0,6,12.84c.56,1.26.28,2-1.07,2.69A116.13,116.13,0,0,1,281,108a49.34,49.34,0,0,1-6.3,1.23c-1.71.13-2.17.59-2.1,2.32.34,8.59,1,17.18.84,25.78-.58.37-.88-.1-1.21-.43-1.89-1.92-3.79-3.83-5.63-5.8-.73-.78-1.09-.91-1.91,0-1.69,1.92-3.6,3.66-5.42,5.48-.9.9-1.68,1.2-2.66,0-1.12-1.4-2.54-2.54-3.64-4-1.8-2.38-3.14-2.41-4.93-.09-1.21,1.56-2.71,2.79-4,4.22-1,1.11-1.63.78-2.49-.12-1.77-1.88-3.66-3.64-5.44-5.51-.69-.73-1.15-.72-1.84,0-1.78,1.87-3.7,3.6-5.43,5.51-1.09,1.22-1.79,1.08-2.81,0-1.67-1.85-3.48-3.57-5.25-5.33-.62-.62-1.29-.84-2-.08q-2.81,3.06-5.59,6.14c-1.91-1.52-.56-3.15.07-4.53.93-2.05,2.35-3.88,3.39-5.89.51-1,2-2.54,1.29-2.9-1.45-.73-1.25,1.44-2,2.18a11.2,11.2,0,0,0-1.63,2.39c-.89,1.46-2.1,2.76-2.36,4.55-1.68,1.76-2.64,4-4,6s-2.42,3.88-3.76,6l-.68-1.71c-.81-3.64-1.48-7.31-2.47-10.89-.69-2.5-.82-5.17-2.1-7.5a5.35,5.35,0,0,1,1.09-4.06c4.3-6.65,8.67-13.25,12.71-20A27,27,0,0,1,222,91.81c.88-.56,1.73-1.15,2.59-1.72l11.07-6.36C241.19,88.86,243.61,88.69,248.12,82.86Zm-13.36,18.25a33.37,33.37,0,0,0,5.94-1.81,24.3,24.3,0,0,0,11.11-8.45c.49-.64,1.22-1.66.43-2.2s-1.15.65-1.55,1.24a21.4,21.4,0,0,1-5.89,5.84,31,31,0,0,1-9.94,4.16c-.38.09-1.12,0-.93.8C234,101.07,234.38,101.18,234.76,101.11Z"/><path class="cls-3" d="M128.21,117.14a92,92,0,0,1,5.95-22.48,3.5,3.5,0,0,1,.78-1.21A29.69,29.69,0,0,1,145.27,87a16.1,16.1,0,0,0,4.95,5.81c5.45,4,11.4,5.82,17.94,3,4.32-1.87,7.08-5.46,9.22-9.53a71.51,71.51,0,0,1,9,5.44A7.17,7.17,0,0,1,189,94.58c.71,2.1,1.45,4.18,2.13,6.28,3,9.26,5.42,18.61,4.76,28.48-.07.47-.16.95-.21,1.43-.54,5.15-2.79,7.73-7.79,8.89-.3-.21-.58-.29-.76.15l-.69.22c-1.25-.16-.86.83-.93,1.41-.54,4.31.35,8.61.25,12.92l-9.35.24-.83-.25c-.14-.2-.28-.22-.44,0h-1.2c-.23-.95-1.12-.71-1.72-.89a43.36,43.36,0,0,1-7-2.65c-3-1.51-5.61-3.59-8.44-5.33-.48-.29-.89-1-1.67-.18a44.77,44.77,0,0,0,5.76,4.37c3,2,6.46,3.14,9.65,4.79-3.76,0-7.52.21-11.27-.11-.09-.62-.55-.89-1-1.21-2-1.31-3.88-2.68-5.83-4-2.49-1.71-4.36-4.09-6.55-6.12-.4-.36-.88-1-1.39-.46s.26,1,.6,1.3a65.58,65.58,0,0,0,7.39,6.73c1.72,1.25,3.79,2.08,5.1,3.88l-20,0a77.85,77.85,0,0,0,.33-10.47,13.29,13.29,0,0,1,0-1.67c.25-1.83-.36-2.5-2.35-2.56a26,26,0,0,1-5.87-1.32,2.88,2.88,0,0,1-2.29-3.24c.1-3.14,0-6.28,0-9.42l2-.47a16.24,16.24,0,0,1,9.75.48c-.48,1.39-1.89,2-2.65,3.14-.61.91-2.27,2-1.52,2.69s1.41-1.24,2.26-1.85c1.64-1.16,2.46-3.5,5-3.4,1.9,0,3.78,1,5.7.1,2.9,0,5.81.36,8.68.31,5.63-.1,11.31-.22,16.79-1.86-.33.73.09,1.29.38,1.91.93,2,1.84,4.08,2.75,6.13-1,1-2.34,1.1-3.58,1.48l-7.1,2.16c2.36.79,4-.16,5.68-.54,4.22-.94,8.16-2.39,10.58-6.33.54-.88,1.61-1.6,1-2.89a4,4,0,0,1,2.37-2.54c1.61.58,3.28,1.06,4.32,2.59.25.36.51,1,1.06.49s0-.86-.34-1.24a10.13,10.13,0,0,0-4.82-3c-.32-1.06-.7-2.11-.95-3.18-.79-3.45-1.45-3.77-4.66-2.29a10.4,10.4,0,0,0-3.4,2.69c-1,1.13-1.86,2.39-2.79,3.59a8.85,8.85,0,0,0-2.07.1c-7.18,2.16-14.56,1.47-21.88,1.55a7.09,7.09,0,0,1-1.6-.36c.67-1.37-.15-2.37-.86-3.37C143.58,116.33,135.74,112.91,128.21,117.14Zm32.1-10c2.85-1,5.91-1.66,8.65-3.25a23.35,23.35,0,0,0,8.17-7.6c.22-.34.74-.87,0-1.21-.48-.23-.69.27-.93.61a24.59,24.59,0,0,1-15.92,10.16c-.54.11-1.27,0-1.27.76S159.75,107.05,160.31,107.18Z"/><path class="cls-3" d="M47.47,105.61c.11,1.92-1.15,3.39-1.72,5.08-1.6,4.71-3.34,9.38-5.2,14.53-.77-7.85-4.89-13.22-10.25-17.86-.55-.47-1.26-1-1.8-.36s.41,1,.81,1.45c3,3,6.06,5.89,7.89,9.89a19.83,19.83,0,0,1,1.35,13.82,280.31,280.31,0,0,0-6.46,29.43c-.61,3.68-.65,7.46-1,11.19-7.87-5.05-11.13-12-9.24-21.36,1.29-6.39,2.71-12.75,4.32-19.07,1.69-4.9.85-9.45-1.9-13.74a57,57,0,0,0-6.47-8.19C9.7,101.72,6.46,91.33,7.12,79.58a27.27,27.27,0,0,1,.81-6.17c2.67,4.35,5,8.62,8.14,12.38a15.41,15.41,0,0,0,3.38,4.11c3,3.37,6.23,6.5,10.32,8.58a17.84,17.84,0,0,0,7.72,2.81C41.16,101.94,44.66,103,47.47,105.61Z"/><path class="cls-4" d="M20,228.93l92.24,0q94.44,0,188.87,0c1.12,0,2.44.36,2.86-1.27.47,3.58-.3,5.21-3,6.34l-.68-.06c-.61-.69-1.43-.41-2.16-.41q-136,0-271.9,0c-.74,0-1.56-.28-2.17.41l-.4.34C20.9,233.26,19.93,231.82,20,228.93Z"/><path class="cls-3" d="M287.69,139.88c3.76-.72,6.7-2.93,9.51-5.33a54.12,54.12,0,0,0,8.19-8.91c.43-.58.67-1.39,1.65-1.67.59,3-.14,5.84-.28,8.72-.6,1.76-1.17,3.53-1.8,5.28-1.83,5.08-5.61,8.66-9.46,12.18-3.29,3.1-6.23,6.39-5.71,11.4.08.68.27,1.35.41,2s.09,1.1.18,1.65a84,84,0,0,1,1.18,15.27c-.63,4.42-3.35,7.31-7,9.52-1.27.67-2.53,1.37-3.83,2-2.15,1-4.52,1.58-6.48,3a.47.47,0,0,1-.31,0q0-7.11-.07-14.21a2.22,2.22,0,0,1,.6-1.71c5.17-5.09,6.54-11.75,6.79-18.5.23-6,2.79-10.29,7.31-13.77.62-.48,1.4-.85,1.49-1.85-4.43,1.22-9.56,8.63-9.56,12.94a38.22,38.22,0,0,1-2.46,13.85,13.83,13.83,0,0,1-4.17,6.17V175.3q0-13.28,0-26.54a24.33,24.33,0,0,0-.27-2.68,1,1,0,0,0,.83-.52,11.83,11.83,0,0,1,9.63-5A9.56,9.56,0,0,0,287.69,139.88Z"/><path class="cls-5" d="M154.25,81.57a37.43,37.43,0,0,1-6.56-1c-4.72-1.51-6.81-4.2-7-9.15-.12-4,.92-8,1.33-12,.94-4.92,1.87-9.82,4.12-14.37s5-8.35,10-9.68c4.35-1.14,8.81-1.63,13.29-.21A11.06,11.06,0,0,1,176,40.91c3.41,6.38,5.3,13.07,4.69,20.43-.38,4.56-.06,9.2-1.07,13.7-.61,2.74-1.75,5.19-5,5.67a13.49,13.49,0,0,0-6.68,0c-.73-.9-.26-1.9-.24-2.86,5.47-.89,8.17-4.46,9.23-9.59.24-1.14.44-2.29.65-3.44A11.68,11.68,0,0,0,179.43,60a4.64,4.64,0,0,0-.88-3.54,1.49,1.49,0,0,0-1.62-.7c-.63.18-.47.76-.55,1.22a6.92,6.92,0,0,1-1.3,3.46c-1.47-1.84-.51-4-.74-6-.13-1.15.48-2.61-1.57-2.65-.57,0-.57-.68-.71-1.14-.32-1-.25-2.19-1.13-3.26-.13,1.23-.27,2.26-.32,3.29a1.11,1.11,0,0,1-1.09,1.22c-3.45.58-5.37-.57-6.39-3.87-.13-.42,0-1-.76-1.4-.49,2.41-.17,5.11-4,5.35-4.28.26-3.49-3-4.28-5.57-.31.73-.48,1-.58,1.36-.66,2.3-1.25,4.63-4.38,4.66-.84,0-.74.86-.84,1.46a35.21,35.21,0,0,0,.4,12.24c-.13.23-.39.49-.36.69a50.7,50.7,0,0,0,1.75,8.29c.51,1.4,1.22,2.81,2.8,3.11,1.94.37,2.41,1.47,2.14,3.2Z"/><path class="cls-6" d="M274.26,195c2-1.44,4.33-2,6.48-3,1.3-.62,2.56-1.32,3.83-2a70.25,70.25,0,0,1,2.06,23.82c2.92-7.32,5.66-14.65,8.38-22a2.88,2.88,0,0,0,.09-1.43,25.85,25.85,0,0,0-3.54-9.92,84,84,0,0,0-1.18-15.27c-.09-.55-.12-1.1-.18-1.65,1.95,1,2.9,2.9,3.73,4.78a29.8,29.8,0,0,1,2.5,10.39,18,18,0,0,0,0,7.87c.88-.62,1.65-2.49,2-4.67a53.26,53.26,0,0,1,10.05-23.81,18.75,18.75,0,0,1,4.78-4.62,6.9,6.9,0,0,1,2.9-1.13,3.15,3.15,0,0,1,3.79,3.7,12.89,12.89,0,0,1-2.29,5.55,58.81,58.81,0,0,1-8.36,10.13A43.28,43.28,0,0,0,298,191.9c1-1,1.73-1.72,2.49-2.43s1.56-1.39,2.36-2.07a28.17,28.17,0,0,1,7.78-4.81,7.75,7.75,0,0,1,5.35-.33c2.73.88,3.18,2.65,1.12,4.71a18.48,18.48,0,0,1-4.89,3.14,95.74,95.74,0,0,1-9.5,3.77c-.39.15-.77.34-1.16.49a12.2,12.2,0,0,0-7.92,8.33c-2.16,7-5,13.85-7.56,20.76l-2.89.06a10.43,10.43,0,0,0,.8-6.26C282.41,209.1,278.41,202,274.26,195Z"/><path class="cls-6" d="M39.53,44.37c1.58,5.34,1.16,10.76.67,16.18a35.16,35.16,0,0,0,3.37,18.8,38.23,38.23,0,0,1,2.15-10.24A12.44,12.44,0,0,1,49,63.86c1.11-.94,2.43-1.56,3.83-.7s1,2.2.72,3.42a28.83,28.83,0,0,1-3.34,7.63c-.58,1-1.21,2-1.86,3-2.67,4.11-4,8.23-1.54,13.08C48.29,93.2,49,96.49,50,99.59a18.38,18.38,0,0,1-1.78,4.82,54.73,54.73,0,0,0-17.86-9.5,82.48,82.48,0,0,1-10.5-5.79,21.05,21.05,0,0,1-3.31-3.8,4.06,4.06,0,0,1,4.14-4.74,14.86,14.86,0,0,1,7.54,1.73c.67.34,1.37.62,2.06.93a58.27,58.27,0,0,1,17,16.73A2.47,2.47,0,0,0,47,98C45.65,93.78,44,89.63,43,85.32c-1.05-4.54-3.83-7.2-7.76-9.09a23.53,23.53,0,0,0-4.4-1.84C28,73.07,25.13,72,22.7,70.09c-1.21-1-3-1.92-2.15-3.83s2.8-1.75,4.57-1.44c2.39.43,4.32,1.84,6.31,3.1a65.07,65.07,0,0,1,8,7.74,138,138,0,0,1-5.84-14.55l-.09-.84a.88.88,0,0,0-.23-.92c-.63-4-1.46-8.05-.62-12.16a13.45,13.45,0,0,1,.51-2,4,4,0,0,1,3.15-3C38.07,41.93,38.75,43.22,39.53,44.37Z"/><path class="cls-2" d="M235.7,79.92a37.47,37.47,0,0,1-14.38,1.7c-6.22-.36-12.32-1.31-17.57-5-4.15-2.89-7.29-7.27-5.65-12.55.77-2.51,2.64-4,4.72-5.3a16.15,16.15,0,0,1,7.71-2.21c4-.2,8-1,12-.92a13.15,13.15,0,0,1,3.9.51l.06.09-.76.67c-2.11,1-2.77,2.35-2.42,4.92.43,3.15,2.09,5.24,4.56,5.74a2.63,2.63,0,0,1,1.26,1.79,15.45,15.45,0,0,0,3.13,5.52c1.11,1.2,2.37,2.26,3.57,3.38Z"/><path class="cls-7" d="M296,99.23a98,98,0,0,1-6-12.84c1.72-1.16,3.75-1.33,5.7-1.76,1.2,1.3,2.91,1.81,4.31,2.81.27.19.58.53.89.16s0-.72-.32-1a11.38,11.38,0,0,0-4.51-2.46c-1.67-6.76-2.7-13.63-3.73-20.5-.48-3.23-.9-6.47-1.34-9.71a2.23,2.23,0,0,0-1.2-1.8c-3.38-2-4.73-5.68-6.75-8.78-.18-.28-.36-.65,0-.94a.87.87,0,0,1,1,0,8,8,0,0,1,.83.61c.67.5,1.23,1.83,2.12,1.13.71-.56-.12-1.68-.43-2.48a35.65,35.65,0,0,1-1.79-5.77c-.13-.64-.65-1.49.24-1.86s1.2.7,1.6,1.26a13.79,13.79,0,0,1,1,2c.21-1.83-.59-3.06-.64-4.4,0-.47-.11-1.09.46-1.26s.88.36,1.07.78c.5,1.09.93,2.22,1.44,3.44.76-1-.23-1.71-.09-2.5.1-.55-.32-1.37.6-1.54.68-.12,1,.48,1.16,1,.48,1.29.9,2.61,1.48,4.28.05-.83.07-1.32.12-1.81s-.19-1.48.65-1.51.82.86,1,1.45c1,4.4,2.31,8.78,1.75,13.37-.45,3.67,1.25,6.79,2.37,10,2.82,8.23,5.66,16.44,7.73,24.91.7,2.83.52,5.37-1.38,7.65C302.58,94.42,299.77,97.4,296,99.23Z"/><path class="cls-2" d="M195.84,129.33c.66-9.86-1.78-19.21-4.76-28.47-.68-2.1-1.42-4.18-2.13-6.28,2.19,1.12,4.25-.18,6.26-.58a207,207,0,0,1,26.11-3.61c1.1-.08,2.16-.6,3.29-.3-.86.57-1.71,1.16-2.59,1.72a27,27,0,0,0-9.25,9.08c-4,6.8-8.41,13.4-12.71,20A5.35,5.35,0,0,0,199,125c-.39.38-.87.7-.91,1.33Z"/><path class="cls-2" d="M287.69,139.88a9.56,9.56,0,0,1-3.65.7,11.83,11.83,0,0,0-9.63,5,1,1,0,0,1-.83.52l-.07-.06c0-2.63-.05-5.26-.07-7.88l0-.83c.13-8.6-.5-17.19-.84-25.78-.07-1.73.39-2.19,2.1-2.32A49.34,49.34,0,0,0,281,108C287.7,117.67,288.94,128.51,287.69,139.88Z"/><path class="cls-2" d="M26.22,132.35c-1.61,6.32-3,12.68-4.32,19.07-1.89,9.36,1.37,16.31,9.24,21.36v1.75c-4.64-.14-7.93-2.76-10.73-6.05a43,43,0,0,1-9.56-20.94c-.82-4.85-.48-9.74,3-13.79a8.49,8.49,0,0,1,10.52-2.35C25,131.69,25.6,132,26.22,132.35Z"/><path class="cls-7" d="M235.85,78.29c-1.2-1.12-2.46-2.18-3.57-3.38a15.45,15.45,0,0,1-3.13-5.52,2.61,2.61,0,0,0-1.27-1.79c.36-.29.88-.48.54-1.13-.74-1.45-.56-3.1-.89-4.65-.21-1-.7-2.34.86-3,.47-.21.24-.88.29-1.35,1.74,0,2.12,1,2.1,2.55a4.4,4.4,0,0,0,6.11,4.3c1.6-.55,2.17-2,3.05-3.21.92,1.1.33,2.39.43,3.58.16,2,.9,2.35,3,1.17-2.18.17-2.3-1-2.16-2.48a21,21,0,0,1,.13-3.09c.5-2-.73-.76-1.3-.79-.15-1.26.7-1.35,1.59-1.3,1.29.09,1.2,1,1.27,2a4.69,4.69,0,0,0,4.58,4.54c2.16,0,4.57-2.07,4.5-4.41-.06-2.11,1.08-2.61,2.64-3l.87.54a4.9,4.9,0,0,1,.58,3.54c-.37,2.11-1,4.13-1.44,6.22A21.64,21.64,0,0,1,248,77.86l-.47.42h0c-3,.44-5.95,1.4-9,.38A5.74,5.74,0,0,0,235.85,78.29Zm5.77-5.08a5.6,5.6,0,0,0,4.75-3.55c.25-.73.12-1.06-.66-1.06h-8.15c-.75,0-1,.35-.74,1.07A5.8,5.8,0,0,0,241.62,73.21Zm1.45,1.6c-1.12.17-2.23-.16-3.86-.09C240.88,76,242,76,243.07,74.81Z"/><path class="cls-2" d="M275.13,82.89c.4,2.81-2.77,6.2-6.49,5.73A23.84,23.84,0,0,1,258,84.81a7.11,7.11,0,0,1-3.12-8.12A6.62,6.62,0,0,1,262.28,72a16.63,16.63,0,0,1,11.51,6.35A6.44,6.44,0,0,1,275.13,82.89Z"/><path class="cls-2" d="M147.08,25.55c.1,2.69-.56,5.18-3.18,6.27a6.52,6.52,0,0,1-7-1.06,27.21,27.21,0,0,1-6.73-7.57c-1.5-2.69-1.44-5.46.29-7.59,2.39-2.93,4.8-3.73,8-2.46C142.09,14.55,147.64,21.13,147.08,25.55Z"/><path class="cls-3" d="M174.25,11.69c-1.43,1.62-2.88,3.21-4.27,4.87-.59.7-1,.74-1.66.09-5.51-5.32-11-10.62-16.5-15.86.11-.65.52-.55.83-.55C160.73.16,168.82.13,176.91,0c1.56,0,2.1.2,1.55,1.92-.82,2.51-1.34,5.11-2,7.67A1.76,1.76,0,0,0,175,7.69c-5.24-1.6-10.47-3.27-15.69-4.92-.49-.16-1-.42-1.59.1a8.91,8.91,0,0,0,.78.46c5.19,2.2,10.35,4.45,15.57,6.55C175.59,10.5,175.05,11,174.25,11.69Z"/><path class="cls-5" d="M226.51,56.27l-.06-.09A23.72,23.72,0,0,1,227.79,47c2.36-5.86,7.88-9.17,14.9-8.9,6.5.25,11.26,3.75,13.15,9.68-.42,1,.34,1.79.3,2.67-.1,1.93,1.28,4.19-1.13,5.65a.23.23,0,0,1-.28.12c-.06-1,0-2.29-1.15-2.71-2.28-.81-1.92-2.09-1-3.73,1.19-2.14.83-2.91-1.57-3.47a10.85,10.85,0,0,0-2.48-.29c-5.09,0-10.17,0-15.26.06-3.37.06-3.75.55-2.79,3.71a4.66,4.66,0,0,1-.47,4c-.42.71-.73,1.49-1.09,2.24Z"/><path class="cls-7" d="M228.91,56c.36-.75.67-1.53,1.09-2.24a4.66,4.66,0,0,0,.47-4c-1-3.16-.58-3.65,2.79-3.71,5.09-.09,10.17-.07,15.26-.06a10.85,10.85,0,0,1,2.48.29c2.4.56,2.76,1.33,1.57,3.47-.91,1.64-1.27,2.92,1,3.73,1.16.42,1.09,1.66,1.15,2.71l-.53.35c-1.43-.07-3.23,2-4.2-.71.5,0,.94-.07.92-.79a1,1,0,0,0-.89-1,11.28,11.28,0,0,0-3.48-.32c-1.35.13-1.73.66-1,1.84-2.77,2.74-5.85,2.74-8.3,0,.18-.66.89-1.46-.43-1.75a7.22,7.22,0,0,0-4.27.32c-.89.35-1.32,1.17.07,1.68C231.47,58.2,230.18,57,228.91,56Z"/><path class="cls-7" d="M39.83,192.83l.08,1a30.18,30.18,0,0,0,.28,5.7L40.07,201,40,202.9c-.53,2.91-2,5.45-3.32,8-.28.54-.62,1.24-1.35,1.08s-.81-.91-.93-1.5c-.33-1.68.23-3.3.4-4.94.1-.92.67-2.39-.18-2.68-1.21-.4-1.46,1.19-1.88,2-1.49,3-1.4,6.31-1.09,9.58.08.76.18,1.51.26,2.27-.57.79-.36,1.9-1.09,2.63-.29.3-.57.66-1,.55a.84.84,0,0,1-.65-.94c.27-3.42-1.49-6.44-1.91-9.74-.3-2.42.73-4.63.57-7a60.14,60.14,0,0,0,3.8-8.94c.51-.65.15-1.42.3-2.12,2.19.13,4.38.32,6.58.35C39.41,191.59,39.48,192.3,39.83,192.83Z"/><path class="cls-7" d="M177.38,86.25c-2.14,4.07-4.9,7.66-9.22,9.53-6.54,2.84-12.49,1-17.94-3A16.1,16.1,0,0,1,145.27,87c1.78-1.84,4.29-2.43,6.38-3.74L153,85.8c2,3.84,6.36,6.38,10,5.77,4.32-.73,7-3.74,7.59-8.65C173,83.66,175.13,85.09,177.38,86.25Z"/><path class="cls-2" d="M295.5,150.15c3.85-3.52,7.63-7.1,9.46-12.18.63-1.75,1.2-3.52,1.8-5.28,3.29.17,5.64,3.95,5.16,7.3a17.38,17.38,0,0,1-5,10.5c-3.14,3-6.82,3.13-10.13.29A2.49,2.49,0,0,0,295.5,150.15Z"/><path class="cls-2" d="M30.79,74.39a23.53,23.53,0,0,1,4.4,1.84c3.93,1.89,6.71,4.55,7.76,9.09C44,89.63,45.65,93.78,47,98a2.47,2.47,0,0,1,.25,2,58.27,58.27,0,0,0-17-16.73C30,80.26,30.78,77.35,30.79,74.39Z"/><path class="cls-7" d="M154.25,81.57l.8-.14c.89-.46.19-1.35.53-2,1.45-.73,3-.34,4.5-.32a10.55,10.55,0,0,0,7.47-2.51l.19,1.23c0,1-.49,2,.24,2.86a1.09,1.09,0,0,1,.34.17c.11.91,1.48.92,1.39,2-.83,2.9-1.61,5.83-4.89,7-5.2,1.94-11-1.69-11.88-7.45A2.55,2.55,0,0,0,154.25,81.57Z"/><path class="cls-8" d="M23.61,234.3,24,234c.83,0,1.67,0,2.51,0H181.89l118.35,0,.68.06c-.77.68-1.72.47-2.6.47H25.89C25.13,234.49,24.37,234.37,23.61,234.3Z"/><path class="cls-7" d="M248.12,82.86c-4.51,5.83-6.93,6-12.44.87.07-1.14.15-2.27.23-3.41a19.59,19.59,0,0,0,6,.44c2.12-.22,4.28-.48,5.64-2.49h.43Z"/><path class="cls-9" d="M250,55.82c1,2.74,2.77.64,4.2.71.14.25.29.5.43.76-1.56.4-2.7.9-2.64,3,.07,2.34-2.34,4.41-4.5,4.41a4.69,4.69,0,0,1-4.58-4.54c-.07-.94,0-1.9-1.27-2-.89,0-1.74,0-1.59,1.3,0,.54-.07,1.08-.11,1.61-.88,1.2-1.45,2.66-3.05,3.21a4.4,4.4,0,0,1-6.11-4.3c0-1.59-.36-2.55-2.1-2.55l-2.93-.51.76-.67,2.4-.3c1.27,1,2.56,2.23,3.72-.12a8.33,8.33,0,0,1,4.64-.25c2.45,2.72,5.53,2.72,8.3,0A8.24,8.24,0,0,1,250,55.82Zm-14.8.65a3.41,3.41,0,0,0-3.6,3.67,3.54,3.54,0,0,0,3.82,3.5,3.59,3.59,0,0,0-.22-7.17Zm12.33,0a3.61,3.61,0,0,0-3.74,3.38,3.76,3.76,0,0,0,3.63,3.79,3.59,3.59,0,1,0,.11-7.17Z"/><path class="cls-10" d="M58.64,11.48A4.6,4.6,0,1,1,53.9,7,4.6,4.6,0,0,1,58.64,11.48Zm-1.42.15a3.19,3.19,0,1,0-6.37-.12,3.19,3.19,0,0,0,6.37.12Z"/><path class="cls-3" d="M40,29.21a4.64,4.64,0,0,1-4.54,4.71,4.78,4.78,0,0,1-4.71-4.6,4.66,4.66,0,0,1,4.59-4.66A4.54,4.54,0,0,1,40,29.21Zm-1.39.06a3.36,3.36,0,0,0-3.19-3.22,3.27,3.27,0,0,0-3.19,3.21,3.19,3.19,0,0,0,3.18,3.18A3.26,3.26,0,0,0,38.61,29.27Z"/><path class="cls-10" d="M219.92,23.46A4.59,4.59,0,0,1,215.21,28a4.7,4.7,0,0,1-4.53-4.75,4.63,4.63,0,0,1,4.74-4.51A4.56,4.56,0,0,1,219.92,23.46Zm-4.53,3.05a3.25,3.25,0,0,0,3.15-3.23,3.22,3.22,0,0,0-6.44.14A3.27,3.27,0,0,0,215.39,26.51Z"/><path class="cls-3" d="M255.78,20.06a4.59,4.59,0,1,1,4.65-4.6A4.56,4.56,0,0,1,255.78,20.06ZM259,15.37a3.33,3.33,0,0,0-3.28-3.13,3.41,3.41,0,0,0-3.12,3.32,3.39,3.39,0,0,0,3.31,3.13A3.3,3.3,0,0,0,259,15.37Z"/><path class="cls-11" d="M254.64,67.59c.43-2.09,1.07-4.11,1.44-6.22a4.9,4.9,0,0,0-.58-3.54c2.69-1.42,4.39-.46,4.54,2.56C260.25,64.49,258.06,67.41,254.64,67.59Z"/><path class="cls-2" d="M33.62,61.11a138,138,0,0,0,5.84,14.55,65.07,65.07,0,0,0-8-7.74c1.25-1.22.75-3,1.3-4.38A7.26,7.26,0,0,1,33.62,61.11Z"/><path class="cls-1" d="M174.25,11.69c.8-.7,1.34-1.19-.2-1.81-5.22-2.1-10.38-4.35-15.57-6.55a8.91,8.91,0,0,1-.78-.46c.62-.52,1.1-.26,1.59-.1,5.22,1.65,10.45,3.32,15.69,4.92a1.76,1.76,0,0,1,1.49,1.9C176.53,12.19,176.53,12.19,174.25,11.69Z"/><path class="cls-9" d="M152.94,82.47c.86,5.76,6.68,9.39,11.88,7.45,3.28-1.22,4.06-4.15,4.89-7l.85,0c-.62,4.91-3.27,7.92-7.59,8.65-3.63.61-8-1.93-10-5.77l-1.33-2.55C151.59,82.18,152,81.91,152.94,82.47Z"/><path class="cls-11" d="M247.51,78.27c-1.36,2-3.52,2.27-5.64,2.49a19.59,19.59,0,0,1-6-.44l-.21-.4.15-1.63a5.74,5.74,0,0,1,2.66.36C241.56,79.67,244.52,78.71,247.51,78.27Z"/><path class="cls-12" d="M236.24,15.94c0-1.13,0-2.25.06-3.38,0-.58-.15-1.42.76-1.37s.65.88.68,1.46c0,.95.08,1.9.12,2.85l0,0c-.53.32-1.25-.11-1.72.44Z"/><path class="cls-2" d="M262.13,34.75c1.52.19,3.15-.59,4.57.5-1,0-2-.08-3.06-.14-.79,0-1.17.26-1,1.09-.37,1.43.48,3-.53,4.37,0-1,0-2.09.05-3.13s-.28-1.32-1.22-1l-.6-.13c.23-.72.11-1.19-.79-1.18s-1.91,0-2.86,0c1.36-.73,2.81-.21,4.22-.32C261.31,35.08,261.72,35.19,262.13,34.75Z"/><path class="cls-12" d="M38.63,11.89c0,1.24,0,2.48,0,3.71,0,.52-.09,1-.71,1a.77.77,0,0,1-.74-1c.28-1.3-1.1-3.32,1.5-3.68Z"/><path class="cls-12" d="M38.64,10.87c-1.56.54-1.64-.51-1.49-1.52s-.72-2.71.81-2.72c1.24,0,.46,1.7.64,2.63a8.27,8.27,0,0,1,0,1.65Z"/><path class="cls-12" d="M237.86,16.74c0,1.24-.07,2.48-.14,3.71,0,.43-.16.86-.69.86s-.71-.42-.72-.85c-.05-1.24-.06-2.48-.08-3.72l0,0h1.73Z"/><path class="cls-10" d="M21.85,37.34c0,1,0,1.92,0,2.87,0,.5-.07,1.07-.65,1.11-.75,0-.78-.63-.79-1.18,0-1,0-1.91,0-2.87C20.92,36.72,21.39,36.87,21.85,37.34Z"/><path class="cls-10" d="M20.55,35.51c-.05-1.15-.12-2.31-.14-3.47,0-.43.21-.83.72-.8s.68.38.69.84l0,3.08A1.1,1.1,0,0,1,20.55,35.51Z"/><path class="cls-6" d="M237.86,15.5c1.16,0,2.32,0,3.48,0,.46,0,.8.22.82.72s-.38.69-.82.68c-1.16,0-2.32-.1-3.48-.15l0,0V15.48Z"/><path class="cls-11" d="M296.05,84.13a11.38,11.38,0,0,1,4.51,2.46c.34.29.68.57.32,1s-.62,0-.89-.16c-1.4-1-3.11-1.51-4.31-2.81C295.8,84.46,295.92,84.29,296.05,84.13Z"/><path class="cls-13" d="M255,56.06c2.41-1.46,1-3.72,1.13-5.65,0-.88-.72-1.71-.3-2.67A19.66,19.66,0,0,1,257,54.45C257.05,55.92,256.43,56.46,255,56.06Z"/><path class="cls-10" d="M22.35,35.61l.81-.11,2.53,0c.73.57.86,1.26-.17,1.37s-2.41.52-3.47-.4Z"/><path class="cls-6" d="M236.23,16.74c-1.11.05-2.21.12-3.32.15-.5,0-1,0-1-.74,0-.51.45-.69.9-.66,1.14.08,2.37-.37,3.42.45l-.05,0c0,.28,0,.56,0,.84Z"/><path class="cls-1" d="M262.13,34.75c-.41.44-.82.33-1.22,0,0-1.11,0-2.22,0-3.33,0-.35.14-.72.54-.77.55-.07.72.35.73.78C262.18,32.54,262.15,33.64,262.13,34.75Z"/><path class="cls-10" d="M260.94,36.43c.94-.31,1.26.09,1.22,1s0,2.09-.05,3.13c-.78.31-1.24.09-1.32-.78a6.44,6.44,0,0,0,0-2.55Z"/><path class="cls-6" d="M38.63,11.89l0,0c.07-.36.41-.72,0-1.07l0,0,3.46-.05c.55,0,1,.18.9.81s-.49.61-.91.59C40.9,12.21,39.71,12.54,38.63,11.89Z"/><path class="cls-10" d="M262.64,36.2c-.17-.83.21-1.13,1-1.09,1,.06,2,.1,3.06.14.14.81-.23,1.17-1,1.13A10.09,10.09,0,0,1,262.64,36.2Z"/><path class="cls-10" d="M256.69,35.07c.95,0,1.91,0,2.86,0s1,.46.79,1.18c-1,0-2,.12-3,.07S256.06,35.91,256.69,35.07Z"/><path class="cls-2" d="M181.85,14.63c-.23-.11-.43-.17-.61-.27-.79-.49-1.86-.64-2.19-1.71,0-.09.24-.4.34-.39a4.89,4.89,0,0,1,2.87,1.45c.21.2.33.48.11.72S182,14.57,181.85,14.63Z"/><path class="cls-2" d="M206.09,50.42a3.67,3.67,0,0,1,1,4.1c-.06.29-.58.3-.68.11C205.75,53.42,206.17,52.18,206.09,50.42Z"/><path class="cls-2" d="M22.35,35.61l-.3.88c-.07.28-.14.57-.2.85-.46-.47-.93-.62-1.44-.07-1.31-.16-2.68.35-4-.31.87,0,1.73-.08,2.6-.1s1.22-.42.77-1.27l.73-.08a1.1,1.1,0,0,0,1.3-.35Z"/><path class="cls-10" d="M19.82,35.59c.45.85.17,1.25-.77,1.27s-1.73.06-2.6.1c-.75-.82-.61-1.34.53-1.39C17.92,35.52,18.87,35.58,19.82,35.59Z"/><path class="cls-2" d="M206.5,47.68c-.07.52,0,1.25-.52,1-1.26-.52-.55-2-1.1-2.91-.14-.24,0-.9.36-.78C206.61,45.47,205.94,46.93,206.5,47.68Z"/><path class="cls-8" d="M34.75,12.29c-.66-.27-1.86.41-1.9-.63-.05-1.29,1.24-.74,1.93-.72s1.77-.65,1.75.63S35.33,12,34.75,12.29Z"/><path class="cls-2" d="M199.74,31.85a7.5,7.5,0,0,1-1-.91c-.5-.79-1.35-1.4-1.32-2.46,0-.1.37-.31.46-.26a4,4,0,0,1,1.86,2.38A5.72,5.72,0,0,1,199.74,31.85Z"/><path class="cls-2" d="M191.57,22a7.14,7.14,0,0,1-2.17-2.36c-.15-.36.18-.82.51-.6a4.62,4.62,0,0,1,2.28,2.54C192.27,21.93,192,22.05,191.57,22Z"/><path class="cls-2" d="M16.54,85.32a21.05,21.05,0,0,0,3.31,3.8c-.34.15-.39.45-.4.78a15.41,15.41,0,0,1-3.38-4.11Z"/><path class="cls-2" d="M187.54,17.59c-.25.45-.65.48-.9.26-.73-.65-2-.77-2.13-2,0-.37.56-.41.83-.2C186.11,16.25,187.24,16.49,187.54,17.59Z"/><path class="cls-2" d="M196.41,25.93c0,.41-.13.8-.46.67-1.17-.46-1.53-1.7-2.27-2.58-.16-.19.19-.63.44-.49A7.8,7.8,0,0,1,196.41,25.93Z"/><path class="cls-2" d="M202.42,37.41a5,5,0,0,1-.7-.95c-.32-.87-1.18-1.57-.94-2.61.07-.32.52-.28.66-.07C202.1,34.75,203,35.67,202.42,37.41Z"/><path class="cls-2" d="M203.47,39.17a3.33,3.33,0,0,1,1.17,3.57A3.41,3.41,0,0,1,203.47,39.17Z"/><path class="cls-8" d="M296.45,186.61a18,18,0,0,1,0-7.87A41.39,41.39,0,0,1,296.45,186.61Z"/><path class="cls-13" d="M168.32,80.9a1.09,1.09,0,0,0-.34-.17,13.49,13.49,0,0,1,6.68,0Z"/><path class="cls-2" d="M25.69,35.52l-2.53,0A2.3,2.3,0,0,1,25.69,35.52Z"/><path class="cls-2" d="M260.8,37.24a6.44,6.44,0,0,1,0,2.55A2.48,2.48,0,0,1,260.8,37.24Z"/><path class="cls-2" d="M33.3,59.35a.88.88,0,0,1,.23.92A.8.8,0,0,1,33.3,59.35Z"/><path class="cls-11" d="M247.94,78.28h-.44l.47-.42Z"/><path class="cls-8" d="M159.24,154.32c3.75.32,7.51.14,11.27.11l3.38-.11h1.2l.44,0,.83.25c.3,1,1.12.66,1.76.67,2.63,0,5.26,0,7.89,0H204.4a6.75,6.75,0,0,0,2.69,1.24.25.25,0,0,1,.18.3c-1.21.57-.76,1.69-.76,2.59q0,22,0,43.93c0,.76.08,1.53.12,2.29l-.14-.1.14.1c-4.19.5-8.4.21-12.61.29-.6,0-1.26-.16-1.75.4l-.37.52a.36.36,0,0,1-.1.33c-7.9-.08-15.8-.23-23.69.08-.6-.69-1.41-.47-2.14-.47q-6.12,0-12.24,0l-9.64.2-.82,0c-3.78-.12-7.56-.48-11.33.18l-.79.08a.23.23,0,0,1,0-.3c-.41-.86-1.19-.53-1.83-.54-3.11,0-6.23,0-9.34,0-1,0-2.07-.39-3,.36l-2-.79a7.65,7.65,0,0,1-.65-3.44c0-8.56,0-17.11,0-25.67,0-6.74.07-13.49.11-20.23l.34-.47.55-.58c.39-.22.66-.67,1.18-.63.24.11.49.33.73.33q9.5,0,19,0c.52,0,1-.05,1.17-.63a.18.18,0,0,1,.11-.25l20,0Zm8.75,27a7.51,7.51,0,0,0-7-7.22c-3.83-.13-7.77,3.36-7.57,7.07a7.62,7.62,0,0,0,7.46,7.5C164.47,188.84,167.94,185.1,168,181.34Z"/><path class="cls-2" d="M191.79,207.17a.36.36,0,0,0,.1-.33l12.92-.11a2.06,2.06,0,0,0,1.81-1.1l-.14-.1.14.1c1.13-.92,1-2.21,1-3.45q0-21.47,0-42.92a4.64,4.64,0,0,0-.36-2.44.25.25,0,0,0-.18-.3,2.66,2.66,0,0,0-2.75-1.8L186,154.64l-.32-.28c.1-4.31-.79-8.61-.25-12.92.07-.58-.32-1.57.93-1.41.81,2.73,3.19,4.19,4.92,6.19,3.09,3.56,6.78,2.61,9.76-.93,1-.36,1.57-1.37,2.47-1.9l.68,1.71c1.34-2.17,2.51-4.14,3.76-6s2.27-4.24,4-6c0,1.55,0,3.11,0,4.66l0,.43-.15,7.6a.15.15,0,0,0-.06.25,13,13,0,0,0-.19,1.65c-.29,20.13-.68,40.25-.54,60.39a1.79,1.79,0,0,0-1.75-.32c-5.4,1.87-11,2.87-16.59,4.07Z"/><path class="cls-8" d="M77.6,223.22a2,2,0,0,1-1.4.27c-7.16,0-14.32,0-21.48,0-1.35,0-1.84-.35-1.82-1.74.06-4,0-8.06,0-12.09,7.46,2.65,15.27,3.7,23,4.95,1.4.22,1.71.66,1.67,1.92C77.53,218.78,77.59,221,77.6,223.22Z"/><path class="cls-14" d="M84.66,223.42a17,17,0,0,1-6.5-.4,93.5,93.5,0,0,1,.11-10.59c.08-1.38,0-2.15-1.81-2.07a40.46,40.46,0,0,1-5.57-.45l.93-7.35c4.39-.69,8.8-1.28,13.16-2.15,1.86-.37,2.91-.29,2.83,1.9l0,1.5-.14.88-.57,5.62c-2.75.24-2.73.24-2.66,3.09C84.56,216.74,84.6,220.08,84.66,223.42Z"/><path class="cls-8" d="M168.08,216.73c.43,1,1.29.84,2.12.87,2.34.07,4.71-.3,7,.44,1.31,1.42,2.43,2.92,2.13,5l-.06.09-.84.3q-17.13,0-34.26,0c-.74,0-1.55.24-2.19-.37a5.46,5.46,0,0,1,1.71-4.59l1.72-.85h8.29q6.16,0,12.32,0C166.81,217.61,167.79,217.93,168.08,216.73Z"/><path class="cls-8" d="M109.76,215.55v7.92l-24.67,0c0-2,.13-3.91,0-5.85s.68-2.12,2.34-1.94a97.76,97.76,0,0,0,15.59.07C105.24,215.58,107.5,214.55,109.76,215.55Z"/><path class="cls-8" d="M213.52,223.44l.58-10c6.3,1.11,12.61,2.24,18.92,3.31,1.07.18,1,.83,1.11,1.63.21,1.7-1.06,3.38,0,5.07Z"/><path class="cls-13" d="M109.76,215.55c-2.26-1-4.52,0-6.75.16a97.76,97.76,0,0,1-15.59-.07c-1.66-.18-2.48,0-2.34,1.94s0,3.9,0,5.85h-.43c-.06-3.34-.1-6.68-.17-10-.07-2.85-.09-2.85,2.66-3.09l.9-.12.42,0,4.13-.25a141.12,141.12,0,0,0,17.24-2.46C109.81,210.15,109.79,212.85,109.76,215.55Z"/><path class="cls-13" d="M168.08,216.73c-.29,1.2-1.27.88-2.05.88q-6.17,0-12.32,0c0-.15-.07-.3-.1-.44s0-.55,0-.82a.44.44,0,0,0,0-.39c0-2.92,0-5.85,0-8.77,0-.15.07-.3.11-.45q6.12,0,12.24,0c.73,0,1.54-.22,2.14.47,0,.94.09,1.88.14,2.82l-.15,1.63v5Z"/><path class="cls-10" d="M64.6,88.33l1.22-.64c.8,6.73,1.74,13.45,2.74,20.14a58.26,58.26,0,0,1-.48,17.74c-.53,3.41-1.43,6.75-1.42,10.27,0,8,2.15,15.75,3.22,23.63a71.23,71.23,0,0,1,.87,12c-.23,6.42-1.11,12.82-1.49,19.24-.32,5.46-.72,10.91-1.26,16.36a3.88,3.88,0,0,0,.38,2.63l-1.71-.15c.56-6.49,1.15-13,1.66-19.46.23-2.91-.08-5.82.42-8.74.72-4.26.38-8.6.49-12.91.13-4.82-.81-9.5-1.52-14.23-.89-5.88-2.13-11.72-2.31-17.7-.12-4,.91-7.84,1.64-11.71a56.29,56.29,0,0,0,.07-19c-.83-5.39-1.53-10.81-2.29-16.22C64.78,89.13,64.68,88.73,64.6,88.33Z"/><path class="cls-13" d="M234.11,223.44c-1-1.69.23-3.37,0-5.07-.1-.8,0-1.45-1.11-1.63-6.31-1.07-12.62-2.2-18.92-3.31.08-1.5.17-3,.26-4.52a122.2,122.2,0,0,0,25,3.39L238.66,223c-.74-1.37-.26-2.84-.34-4.26,0-.95-.15-1.59-1.34-1.57s-1.18.66-1.2,1.49c0,1.58.19,3.19-.43,4.72Z"/><path class="cls-8" d="M271.13,223.16a.24.24,0,0,1,.13.27l-20.41,0c0-.13,0-.26,0-.39a9.62,9.62,0,0,0-.23-2.67c-.46-1.56.42-2.09,1.78-1.88,4.61.74,9.25.22,13.88.35a10.5,10.5,0,0,0,4.11-.29C271,220.09,269.81,221.82,271.13,223.16Z"/><path class="cls-13" d="M66.67,209.54l1.71.15a6.64,6.64,0,0,0,2.51.22,40.46,40.46,0,0,0,5.57.45c1.76-.08,1.89.69,1.81,2.07A93.5,93.5,0,0,0,78.16,223l-.56.2c0-2.22-.07-4.44,0-6.66,0-1.26-.27-1.7-1.67-1.92-7.76-1.25-15.57-2.3-23-4.95-.38-1.81.17-2.29,2.07-1.9A81,81,0,0,0,66.67,209.54Z"/><path class="cls-3" d="M42.92,180q1.62-9.79,3.26-19.6c.08-.47-.22-1.3.71-1.18.71.1,1,.66,1,1.39-.22,5.68.34,11.38-.34,17.06a58.06,58.06,0,0,0-.14,6.05C45.82,182.61,44.82,180.78,42.92,180Z"/><path class="cls-2" d="M30.35,94.91a54.73,54.73,0,0,1,17.86,9.5,1.46,1.46,0,0,1-.74,1.2c-2.81-2.62-6.31-3.67-10-4.32a17.84,17.84,0,0,1-7.72-2.81C30.79,97.43,30,96.08,30.35,94.91Z"/><path class="cls-2" d="M130.2,212.62a2,2,0,0,0-1.54-1.39,113.07,113.07,0,0,1-14.6-3.92,10.3,10.3,0,0,0-2.68-.24c1.08-.72,2.54-.29,3.59-1.14l2,.79,14.16.17a.23.23,0,0,0,0,.3C130.83,209,130.51,210.81,130.2,212.62Z"/><path class="cls-3" d="M39.83,192.83c-.35-.53-.42-1.24-1.38-1.25-2.2,0-4.39-.22-6.58-.35l-.29-.28a3.21,3.21,0,0,1-.8-1.89c-.41-2,0-2.38,2-2a29.52,29.52,0,0,0,7.26.47c1.65-.14,1.93.33,1.62,2C41.43,190.93,39.9,191.44,39.83,192.83Z"/><path class="cls-4" d="M40.19,199.54a30.18,30.18,0,0,1-.28-5.7c.05,3,2,5,3.57,7.19a10.19,10.19,0,0,1,1.77,5.08c.52,5.69,3.12,10.42,6.52,14.83.33.42,1,.92.48,1.38s-1.09-.32-1.42-.72a30.77,30.77,0,0,1-6.74-15C43.68,203.82,43.22,200.94,40.19,199.54Z"/><path class="cls-10" d="M62.1,179.56c0,.84,0,1.67,0,2.51,0,.39.1,1-.47,1s-.74-.53-.76-1c0-.69,0-1.39,0-2.09a28.81,28.81,0,0,0-5-17.07,30.83,30.83,0,0,0-2.94-3.23c-.28-.32-1-.62-.37-1.16s.88.05,1.24.35a23,23,0,0,1,7,11.1A31.24,31.24,0,0,1,62.1,179.56Z"/><path class="cls-10" d="M55,130.09c-.41,1.3-.84,2.61-1.24,3.93-1.93,6.28-3.7,12.61-5.06,19a3.15,3.15,0,0,1-.31,1c-.22.33-.51.78-1,.6s-.25-.68-.16-1.07c.63-2.62,1.19-5.26,1.88-7.87,1.36-5.21,2.75-10.42,4.53-15.51.17-.46.22-1.06.81-1.07S54.93,129.68,55,130.09Z"/><path class="cls-4" d="M31.58,191l.29.28c-.15.7.21,1.47-.3,2.12A12.78,12.78,0,0,0,27,191.4c-5.88-1.69-9.07-5.88-11.07-11.3-.2-.55-.65-1.33.2-1.55.67-.18.71.69.87,1.19,2.12,6.67,7,10.09,13.52,11.7C31.1,191.59,31.45,191.62,31.58,191Z"/><path class="cls-10" d="M174.65,210.32a2.3,2.3,0,0,1,2.47-2.28,2.25,2.25,0,0,1,2.47,2.26,2.49,2.49,0,0,1-2.4,2.63A2.45,2.45,0,0,1,174.65,210.32Z"/><path class="cls-12" d="M136.79,214.74a2.28,2.28,0,0,1-2.23-2.18,2.47,2.47,0,0,1,2.6-2.4c1.28.22,2.49.8,2.32,2.41C139.33,214,138.36,214.71,136.79,214.74Z"/><path class="cls-14" d="M42.92,180c1.9.75,2.9,2.58,4.47,3.72.26,1.15.19,1.83-1.37,1.54C41.88,184.54,41.87,184.6,42.92,180Z"/><path class="cls-12" d="M188.64,218.5c-1.51-.23-2.36-.84-2.27-2.47.09-1.45.71-2.2,2.18-2.16a2.21,2.21,0,0,1,2.41,2.3A2.26,2.26,0,0,1,188.64,218.5Z"/><path class="cls-5" d="M246.27,223.15l-.39-4.69c2.28-.73,2.52-.59,3,1.68a6.83,6.83,0,0,1,.29,1.59c0,1.31.69,1.47,1.7,1.33,0,.13,0,.26,0,.39A10.59,10.59,0,0,1,246.27,223.15Z"/><path class="cls-8" d="M238.66,223l.09.43-3.4-.05c.62-1.53.4-3.14.43-4.72,0-.83.08-1.48,1.2-1.49s1.29.62,1.34,1.57C238.4,220.2,237.92,221.67,238.66,223Z"/><path class="cls-12" d="M153.72,206.76c0,.15-.08.3-.11.45l-3.35,0c-.67,0-1.27.13-1.47.88a2,2,0,0,1-2.32,1.62c-1.31,0-1.8-.86-2.08-2a5,5,0,0,0-.31-.77Z"/><path class="cls-12" d="M179.34,223.06c.3-2.1-.82-3.6-2.13-5a2.06,2.06,0,0,1,2.78.15,2.33,2.33,0,0,1,.37,2.67A20.81,20.81,0,0,1,179.34,223.06Z"/><path class="cls-10" d="M168.08,214.63c0-.79,0-1.57,0-2.36a.34.34,0,0,0,0-.57l.15-1.63c2.35,1.67,2.41,3.48.15,4.65A1.58,1.58,0,0,1,168.08,214.63Z"/><path class="cls-12" d="M143.7,218.49a5.46,5.46,0,0,0-1.71,4.59c-1.48-.58-1.36-1.83-1.1-3C141.21,218.67,142.51,218.6,143.7,218.49Z"/><path class="cls-12" d="M131.93,207.11c3.77-.66,7.55-.3,11.33-.18C139.49,207.46,135.71,207.12,131.93,207.11Z"/><path class="cls-6" d="M271.84,223.64l11.26-.06A47.65,47.65,0,0,1,271.84,223.64Z"/><path class="cls-12" d="M153.61,217.19c0,.14.06.29.1.44h-8.29c1.91-.89,3.93-.23,5.9-.41C152.08,217.16,152.84,217.2,153.61,217.19Z"/><path class="cls-2" d="M129.53,216.44a3,3,0,0,1,.44-2.52A4.09,4.09,0,0,1,129.53,216.44Z"/><path class="cls-4" d="M40,202.9l.09-1.88A1.55,1.55,0,0,1,40,202.9Z"/><path class="cls-8" d="M168.08,214.63a1.58,1.58,0,0,0,.31.09c-.11.29-.21.58-.32.88C168.07,215.28,168.07,215,168.08,214.63Z"/><path class="cls-12" d="M178.44,223.45l.84-.3A.75.75,0,0,1,178.44,223.45Z"/><path class="cls-12" d="M153.65,216a.44.44,0,0,1,0,.39,1.39,1.39,0,0,1-.12-.28S153.6,216,153.65,216Z"/><path class="cls-15" d="M115,205.93c-1,.85-2.51.42-3.59,1.14l-1.54.38a141.12,141.12,0,0,1-17.24,2.46c-1.07-.55-.83-1.5-.69-2.38a58.68,58.68,0,0,0,.76-7c.57-11.67-.91-23.32-.43-35a44.24,44.24,0,0,1,1.57-9.81,31.55,31.55,0,0,0,1.41-8.56c0-2.06,0-4.12,0-6.18a128.53,128.53,0,0,0-.55-14.16c-.27-2.36-.08-4.74-.45-7.06-.76-4.87-.3-9.71.3-14.52.58-4.66,1.49-9.28,2.37-13.9.17-.91-.15-2.18,1.18-2.63a56,56,0,0,1,11.16,6.38,15.13,15.13,0,0,1,4.6,5.27c4.08,7.44,8.16,14.89,12.71,22.06-.37,1.26.9,2.1.83,3.28,0,3.14.09,6.28,0,9.42a2.88,2.88,0,0,0,2.29,3.24,26,26,0,0,0,5.87,1.32c2,.06,2.6.73,2.35,2.56a13.29,13.29,0,0,0,0,1.67c-.8.77-1.58,1.56-2.4,2.31-2.91,2.65-5,2.8-8.2.53a25.7,25.7,0,0,1-5.74-5.71c-2.3-3-4.48-6.17-6.7-9.27-2-4.28-5-8-7.57-11.88-.27-.4-.77-.82-1.23-.47-.63.49-.06,1.08.25,1.43a84,84,0,0,1,5,7.18c2,2.9,3.63,5.82,3.27,9.7a125.47,125.47,0,0,0-.06,12.72c0,.64-.35,1.44.51,1.86l.39,3.22-.55.58-.34.47c0,6.74-.1,13.49-.11,20.23,0,8.56,0,17.11,0,25.67A7.65,7.65,0,0,0,115,205.93Zm-8.1-62.67c0-2,0-3.58,0-5.11,0-.68-.3-1.32-1.11-1.15s-.59.9-.47,1.39a14.28,14.28,0,0,1,.36,2.67c.43,6.16-1.36,11.8-4.11,17.17-1.14,2.24-1.24,4.64-1.71,7-.1.5.08,1.11.64,1.14.73,0,.52-.65.57-1.1a21.53,21.53,0,0,1,1.63-6.19C104.86,153.84,107.61,148.74,106.87,143.26Z"/><path class="cls-5" d="M93.63,67.35a18.67,18.67,0,0,0-.57,2.83c-.19,3.08-1.8,5.28-4.08,7.14-.79.65-1.76,1.11-2.23,2.11a18.71,18.71,0,0,1-2.26,2.11c-3.35,2.27-5.82,1.73-9.41-1.94a4.15,4.15,0,0,0-2-2.8c-3.28-1.67-4.45-4.59-5-7.92-.1-.54-.29-1.06-.44-1.59Q66.91,62.15,66.2,57a8.9,8.9,0,0,0-2.15-6.14,5,5,0,0,1,.74-7.44,5.81,5.81,0,0,0,1.73-2.56c.65-1.53,1.18-3.13,2-4.59,2.2-4,6.25-5.16,10.32-3,2.83,1.48,4.77,4,7.31,5.88.39.28.66.7,1.2.58,3.73-.84,5.62,1.63,7.22,4.25a12.41,12.41,0,0,0,2.92,3.71c2,1.49,1.68,3.56,1,5.53a24.93,24.93,0,0,1-1.74,3.31c-.78.33-1.49.7-1.48,1.73C95.28,61.37,94.22,64.32,93.63,67.35Zm-17.28.54-.91.45c-2.3,1.16-2.4,2.6-.35,4.17,3.14,2.39,6.39,2.89,9.84.71,1-.65,2.35-1,2.34-2.6s-1.12-2.1-2.18-2.74c-.87-1.18-2.59.32-3.4-1.08,2.79-.93,5.59-1.9,8.34.06.85.6.88-.25,1.14-.59,1.82-2.39,2.19-5.2,2.41-8.07.15-2,.65-4-1.49-5.44-.36-.24-.43-1-.56-1.52a7.73,7.73,0,0,0-10.65-5.33,16.51,16.51,0,0,1-7.67,1.45,3.69,3.69,0,0,0-3.95,4.08,5,5,0,0,1-.45,2.62c-2.24,4.43-.42,8.51,1.15,12.6.16.43.33.9,1,.4,2.85-2,5.78-1.23,8.69-.11C78.8,68.06,77.23,66.75,76.35,67.89Z"/><path class="cls-1" d="M70.89,209.91a6.64,6.64,0,0,1-2.51-.22,3.88,3.88,0,0,1-.38-2.63c.54-5.45.94-10.9,1.26-16.36.38-6.42,1.26-12.82,1.49-19.24a71.23,71.23,0,0,0-.87-12c-1.07-7.88-3.21-15.6-3.22-23.63,0-3.52.89-6.86,1.42-10.27a58.26,58.26,0,0,0,.48-17.74c-1-6.69-1.94-13.41-2.74-20.14l3.32-1.86a31.34,31.34,0,0,0,1,5.84,21.52,21.52,0,0,0,.74,5.11l.51,4.08a2.89,2.89,0,0,0,.32,2.15v0l.21,2.86.66,8c0,.69,0,1.38,0,2.06l-.81,8.81a5.76,5.76,0,0,0-.38,2.93,11.58,11.58,0,0,0-.3,3.37,32.42,32.42,0,0,0-.09,6.68,37.07,37.07,0,0,0,.38,8.35,6.56,6.56,0,0,0,.31,3,48.19,48.19,0,0,0,1,7.47,23.41,23.41,0,0,0,.7,5.53l.15,1.59.08,2.06.12,1.64a5.12,5.12,0,0,0,.06,2.69c-.06,2-.11,4.11-.17,6.17l-.11,4.59a40.37,40.37,0,0,0-.5,8.36,14.53,14.53,0,0,0-.36,4.6,37.51,37.51,0,0,0-.52,6.26,4.76,4.76,0,0,0-.26,2.53Z"/><path class="cls-1" d="M88.47,210.16l-.42,0c-.2-1.83.36-3.7-.33-5.5,0-.29.09-.58.14-.88a21.52,21.52,0,0,0,.7-10l.08-.86a.82.82,0,0,0,.66-.92V176.75c0-.46-.12-.82-.62-.95l-.27-1.25a2.69,2.69,0,0,0,.38-2.76c-.91-3.91-.15-7.79.29-11.61.7-6,1.43-12.09,1.84-18.16.32-4.72.07-9.48,0-14.22,0-.64.33-1.45-.6-1.81l-.26-.85h.2a60.53,60.53,0,0,0,0-12.48l-.13-.89.19,0a11,11,0,0,0,.74-7.13c.06-.29.11-.59.16-.89a21.66,21.66,0,0,0,1.49-9.59l.15-.86c1.19-2,.88-4.45,1.94-6.49l.36.21.62.38a.13.13,0,0,1,.2,0c-.4,6-2,11.71-2.79,17.62a67.66,67.66,0,0,0-.39,16c.77,7,.75,14.1,1.46,21.13a23,23,0,0,1-.16,5.61c-.76,5.2-2.22,10.26-3,15.44a36.52,36.52,0,0,0-.44,7.88c.31,4.7.43,9.42.82,14.11s0,9.28-.08,13.91c0,2.42-.24,4.85-.45,7.26C90.78,208.09,90.48,209.71,88.47,210.16Z"/><path class="cls-7" d="M127.37,125.71c.07-1.18-1.2-2-.83-3.28.89-1.66.5-3.72,1.68-5.29,7.52-4.23,15.36-.81,19.23,4.66.71,1,1.53,2,.86,3.36-.49.3-.45.77-.42,1.24-1.92.93-3.8-.1-5.7-.1a8.6,8.6,0,0,0-3.05-.58,16.24,16.24,0,0,0-9.75-.48Z"/><path class="cls-10" d="M88.47,210.16c2-.45,2.31-2.07,2.46-3.71.21-2.41.42-4.84.45-7.26.05-4.63.47-9.25.08-13.91s-.51-9.41-.82-14.11a36.52,36.52,0,0,1,.44-7.88c.81-5.18,2.27-10.24,3-15.44a23,23,0,0,0,.16-5.61c-.71-7-.69-14.1-1.46-21.13a67.66,67.66,0,0,1,.39-16C94,99.19,95.59,93.44,96,87.48a3.59,3.59,0,0,1,2.08,1.24c-1.33.45-1,1.72-1.18,2.63-.88,4.62-1.79,9.24-2.37,13.9-.6,4.81-1.06,9.65-.3,14.52.37,2.32.18,4.7.45,7.06A128.53,128.53,0,0,1,95.22,141c0,2.06,0,4.12,0,6.18a31.55,31.55,0,0,1-1.41,8.56,44.24,44.24,0,0,0-1.57,9.81c-.48,11.66,1,23.31.43,35a58.68,58.68,0,0,1-.76,7c-.14.88-.38,1.83.69,2.38Z"/><path class="cls-14" d="M70.09,91.67a31.34,31.34,0,0,1-1-5.84Q72,84.14,75,82.46c2.79,4.72,6.9,5.42,10.08,2.28.74-.73,1.37-1.58,2-2.37l7,3.93c-.83,1.4-.77,3-1,4.52A11.6,11.6,0,0,0,88.62,90a56.12,56.12,0,0,0-10,1.38C75.8,91.92,73,92.64,70.09,91.67Z"/><path class="cls-7" d="M87.08,82.37c-.68.79-1.31,1.64-2,2.37-3.18,3.14-7.29,2.44-10.08-2.28,0-.95.09-1.91.13-2.86,3.59,3.67,6.06,4.21,9.41,1.94a18.71,18.71,0,0,0,2.26-2.11C87.46,80.34,87.11,81.37,87.08,82.37Z"/><path class="cls-11" d="M93.63,67.35c.59-3,1.65-6,1.61-9.12,0-1,.7-1.4,1.48-1.73C99,58.22,99.49,60,98.55,63.11,97.69,66,96.27,67.21,93.63,67.35Z"/><path class="cls-11" d="M66.2,57q.7,5.14,1.4,10.29c-3.11-.15-5.68-4.27-5-8C63,57.35,64.18,56.6,66.2,57Z"/><path class="cls-10" d="M93.06,90.82c.23-1.53.17-3.12,1-4.52l.75.54c-1.06,2-.75,4.49-1.94,6.49l-.15-.44A3,3,0,0,0,93.06,90.82Z"/><path class="cls-10" d="M95.79,87.43l-.62-.38Z"/><path class="cls-12" d="M212,138.14l0-.43c.45,0,.94.07,1.21-.46q2.79-3.08,5.59-6.14c.69-.76,1.36-.54,2,.08,1.77,1.76,3.58,3.48,5.25,5.33,1,1.13,1.72,1.27,2.81,0,1.73-1.91,3.65-3.64,5.43-5.51.69-.73,1.15-.74,1.84,0,1.78,1.87,3.67,3.63,5.44,5.51.86.9,1.46,1.23,2.49.12,1.3-1.43,2.8-2.66,4-4.22,1.79-2.32,3.13-2.29,4.93.09,1.1,1.47,2.52,2.61,3.64,4,1,1.22,1.76.92,2.66,0,1.82-1.82,3.73-3.56,5.42-5.48.82-.93,1.18-.8,1.91,0,1.84,2,3.74,3.88,5.63,5.8.33.33.63.8,1.21.43l0,.83c-.88,2.6-.17,5.29-.4,7.93-2.23,2.29-4.47,4.57-6.67,6.89-.76.81-1.27.47-1.88-.16-1.71-1.74-3.52-3.38-5.14-5.2-1.09-1.23-1.8-1.06-2.81.06-1.54,1.71-3.27,3.23-4.83,4.92-.9,1-1.54,1.1-2.51,0-1.69-1.84-3.52-3.56-5.29-5.34-.63-.63-1.22-1.17-2.08-.25-1.75,1.86-3.63,3.59-5.26,5.54-1.22,1.45-2.11,1.07-2.95-.17-1.32-1.92-3.18-3.31-4.69-5-.88-1-1.63-1.07-2.58-.05-1.62,1.72-3.47,3.25-5,5.08-1.12,1.36-1.76,1.22-2.9.08-2.2-2.21-4.2-4.65-6.75-6.49a.15.15,0,0,1,.06-.25A12.56,12.56,0,0,0,212,138.14Z"/><path class="cls-11" d="M203.54,143.39c-.9.53-1.44,1.54-2.47,1.9a55.27,55.27,0,0,0-1-6.53c-.72-4.14-1.36-8.29-2-12.43,0-.63.52-1,.91-1.33,1.28,2.33,1.41,5,2.1,7.5C202.06,136.08,202.73,139.75,203.54,143.39Z"/><path class="cls-10" d="M234.76,101.11c-.38.07-.74,0-.83-.42-.19-.78.55-.71.93-.8a31,31,0,0,0,9.94-4.16,21.4,21.4,0,0,0,5.89-5.84c.4-.59.76-1.78,1.55-1.24s.06,1.56-.43,2.2A24.3,24.3,0,0,1,240.7,99.3,33.37,33.37,0,0,1,234.76,101.11Z"/><path class="cls-10" d="M213.18,137.25c-.27.53-.76.43-1.21.46,0-1.55,0-3.11,0-4.66.26-1.79,1.47-3.09,2.36-4.55a11.2,11.2,0,0,1,1.63-2.39c.76-.74.56-2.91,2-2.18.72.36-.78,1.92-1.29,2.9-1,2-2.46,3.84-3.39,5.89C212.62,134.1,211.27,135.73,213.18,137.25Z"/><path class="cls-2" d="M115.34,155.54l-.39-3.22a13,13,0,0,0,.15-1.64q-.12-9.45-.28-18.9c2.22,3.1,4.4,6.23,6.7,9.27a25.7,25.7,0,0,0,5.74,5.71c3.24,2.27,5.29,2.12,8.2-.53.82-.75,1.6-1.54,2.4-2.31a77.85,77.85,0,0,1-.33,10.47.18.18,0,0,0-.11.25c-5.6,0-11.2,0-16.79,0a11,11,0,0,0-4.11.29C116,154.87,115.73,155.32,115.34,155.54Z"/><path class="cls-7" d="M198.06,126.33c.68,4.14,1.32,8.29,2,12.43a55.27,55.27,0,0,1,1,6.53c-3,3.54-6.67,4.49-9.76.93-1.73-2-4.11-3.46-4.92-6.19l.68-.22.77-.15c5-1.16,7.25-3.74,7.79-8.89.05-.48.14-1,.21-1.43Z"/><path class="cls-7" d="M176.49,132.89c-.91-2-1.82-4.1-2.75-6.13-.29-.62-.71-1.18-.38-1.91.48-.16.52-.55.5-1,.93-1.2,1.8-2.46,2.79-3.59a10.4,10.4,0,0,1,3.4-2.69c3.21-1.48,3.87-1.16,4.66,2.29.25,1.07.63,2.12.95,3.18l-.22,1.16a4,4,0,0,0-2.37,2.54c-.92.78-1.3,2-2,2.86C179.83,131.13,178.72,132.79,176.49,132.89Z"/><path class="cls-1" d="M173.86,123.88c0,.42,0,.81-.5,1-5.48,1.64-11.16,1.76-16.79,1.86-2.87.05-5.78-.29-8.68-.31,0-.47-.07-.94.42-1.24a6.61,6.61,0,0,0,1.6.37c7.32-.08,14.7.61,21.88-1.55A8.85,8.85,0,0,1,173.86,123.88Z"/><path class="cls-15" d="M160.31,107.18c-.56-.13-1.28.18-1.29-.53s.73-.65,1.27-.76a24.59,24.59,0,0,0,15.92-10.16c.24-.34.45-.84.93-.61.73.34.21.87,0,1.21a23.35,23.35,0,0,1-8.17,7.6C166.22,105.52,163.16,106.21,160.31,107.18Z"/><path class="cls-1" d="M173.89,154.32l-3.38.11c-3.19-1.65-6.61-2.81-9.65-4.79a44.77,44.77,0,0,1-5.76-4.37c.78-.8,1.19-.11,1.67.18,2.83,1.74,5.44,3.82,8.44,5.33a43.36,43.36,0,0,0,7,2.65C172.77,153.61,173.66,153.37,173.89,154.32Z"/><path class="cls-1" d="M159.24,154.32l-1.71.11c-1.31-1.8-3.38-2.63-5.1-3.88a65.58,65.58,0,0,1-7.39-6.73c-.34-.34-1.16-.71-.6-1.3s1,.1,1.39.46c2.19,2,4.06,4.41,6.55,6.12,2,1.33,3.87,2.7,5.83,4C158.69,153.43,159.15,153.7,159.24,154.32Z"/><path class="cls-1" d="M176.49,132.89c2.23-.1,3.34-1.76,4.55-3.26.73-.91,1.11-2.08,2-2.86.61,1.29-.46,2-1,2.89-2.42,3.94-6.36,5.39-10.58,6.33-1.69.38-3.32,1.33-5.68.54l7.1-2.16C174.15,134,175.52,133.92,176.49,132.89Z"/><path class="cls-1" d="M139.14,125.72a8.6,8.6,0,0,1,3.05.58c-2.5-.1-3.32,2.24-5,3.4-.85.61-1.47,2.54-2.26,1.85s.91-1.78,1.52-2.69C137.25,127.72,138.66,127.11,139.14,125.72Z"/><path class="cls-5" d="M185.71,154.36c.11.09.22.18.32.28s0,.42,0,.63c-2.63,0-5.26,0-7.89,0-.64,0-1.46.31-1.76-.67Z"/><path class="cls-1" d="M185.44,124.23l.22-1.16a10.13,10.13,0,0,1,4.82,3c.29.38.77.82.34,1.24s-.81-.13-1.06-.49C188.72,125.29,187.05,124.81,185.44,124.23Z"/><path class="cls-2" d="M187.84,139.66l-.77.15C187.26,139.37,187.54,139.45,187.84,139.66Z"/><path class="cls-1" d="M175.53,154.35l-.44,0C175.25,154.13,175.39,154.15,175.53,154.35Z"/><path class="cls-14" d="M30.35,94.91c-.35,1.17.44,2.52-.58,3.57-4.09-2.08-7.31-5.21-10.32-8.58,0-.33.06-.63.4-.78A82.48,82.48,0,0,0,30.35,94.91Z"/><path class="cls-6" d="M300.24,234l-118.35,0H26.52c-.84,0-1.68,0-2.51,0,.61-.69,1.43-.41,2.17-.41q135.95,0,271.9,0C298.81,233.55,299.63,233.27,300.24,234Z"/><path class="cls-15" d="M211.74,146c2.55,1.84,4.55,4.28,6.75,6.49,1.14,1.14,1.78,1.28,2.9-.08,1.49-1.83,3.34-3.36,5-5.08,1-1,1.7-.94,2.58.05,1.51,1.72,3.37,3.11,4.69,5,.84,1.24,1.73,1.62,2.95.17,1.63-1.95,3.51-3.68,5.26-5.54.86-.92,1.45-.38,2.08.25,1.77,1.78,3.6,3.5,5.29,5.34,1,1.06,1.61.93,2.51,0,1.56-1.69,3.29-3.21,4.83-4.92,1-1.12,1.72-1.29,2.81-.06,1.62,1.82,3.43,3.46,5.14,5.2.61.63,1.12,1,1.88.16,2.2-2.32,4.44-4.6,6.67-6.89l.47,0,.07.06a24.33,24.33,0,0,1,.27,2.68q0,13.26,0,26.54V178a13.83,13.83,0,0,0,4.17-6.17A38.22,38.22,0,0,0,280.51,158c0-4.31,5.13-11.72,9.56-12.94-.09,1-.87,1.37-1.49,1.85-4.52,3.48-7.08,7.75-7.31,13.77-.25,6.75-1.62,13.41-6.79,18.5a2.22,2.22,0,0,0-.6,1.71q0,7.11.07,14.21c0,3.46-.16,6.93,0,10.38.09,2-.47,3-2.45,3.11a4.27,4.27,0,0,0-1,.35,120.51,120.51,0,0,1-25.08,3.38h-6.14a122.2,122.2,0,0,1-25-3.39c-1-.71-2.36-.11-3.35-.88-.14-20.14.25-40.26.54-60.39A13,13,0,0,1,211.74,146Zm47,42.23c.46.06,1.06.27,1.2-.4s-.47-.68-.95-.74c-1-.13-1.91-.32-2.88-.41-7.2-.64-13.61-3.47-19.67-7.23A55.3,55.3,0,0,1,225.13,170c-.44-.48-1-1.31-1.68-.58s.22,1.09.61,1.55c.13.15.29.29.44.44C234,180.83,244.94,187.43,258.72,188.22Zm-4.62-6.15c1.3,0,1.69-.18,1.67-.6,0-.68-.62-.6-1.07-.72a8.18,8.18,0,0,0-.8-.25c-6.71-.84-12-4.56-17.34-8.33-.43-.31-.8-1.29-1.45-.55-.5.58.15,1.06.65,1.49a44.25,44.25,0,0,0,8.68,5.64A35.52,35.52,0,0,0,254.1,182.07Z"/><path class="cls-7" d="M148.72,66.14a35.21,35.21,0,0,1-.4-12.24c.1-.6,0-1.45.84-1.46,3.13,0,3.72-2.36,4.38-4.66.1-.33.27-.63.58-1.36.79,2.57,0,5.83,4.28,5.57,3.8-.24,3.48-2.94,4-5.35.72.43.63,1,.76,1.4,1,3.3,2.94,4.45,6.39,3.87a1.11,1.11,0,0,0,1.09-1.22c0-1,.19-2.06.32-3.29.88,1.07.81,2.23,1.13,3.26.14.46.14,1.12.71,1.14,2,0,1.44,1.5,1.57,2.65.23,2-.73,4.16.74,6,.56,1.5-1,3,.1,4.52-.39.42-.87.8-.81,1.47-1.89,3.51-3.5,7.22-6.86,9.69-4,1.76-7.94,1.45-11.91,0C151.67,73.93,150,70.17,148.72,66.14Zm12.45,1.3c-1,0-2.08,0-3.13,0-1.42-.07-1.47.54-1,1.65A4.06,4.06,0,0,0,161,71.65a4,4,0,0,0,4.21-2.4c.53-1.11.48-1.89-1.08-1.81C163.12,67.49,162.15,67.45,161.17,67.44Zm9.46-13c-1.5-1.7-3.52-1.65-5.48-1.76a.68.68,0,0,0-.79.75c0,.5.43.66.89.65A46.44,46.44,0,0,1,170.63,54.4Zm-7.78,10c-1.94-.09-2.16-1.22-2-2.69a9.92,9.92,0,0,1,.27-2.48c.15-.41.37-1.11-.28-1.22s-.78.64-.8,1.17c0,1.19,0,2.37,0,3.55C160.07,64.89,160.41,65.13,162.85,64.4Zm-11-10,5.36-.37c.44,0,.82-.14.84-.69s-.23-.58-.6-.7C156.06,52.21,152.76,53.22,151.8,54.39Zm16.65,3.34c-.19-.43-.1-1.25-.92-1.26s-1,.78-1,1.48.17,1.39.89,1.41C168.27,59.37,168.36,58.55,168.45,57.73ZM156.06,58c-.05-.65-.09-1.46-1-1.48s-.9.72-.92,1.34.09,1.51.95,1.54S156,58.63,156.06,58Zm6.67,15.2a12.28,12.28,0,0,1-3.54-.32C160.49,74.53,161.6,74.27,162.73,73.15Z"/><path class="cls-13" d="M167.51,76.13c3.36-2.47,5-6.18,6.86-9.69,1.2,1,1.83.56,2.07-.84l1.18-.76c-.21,1.15-.41,2.3-.65,3.44-1.06,5.13-3.76,8.7-9.23,9.59-.06-.41-.13-.82-.19-1.23Z"/><path class="cls-11" d="M177.62,64.84l-1.17.75L175.18,65c-1.12-1.48.46-3-.1-4.52a6.92,6.92,0,0,0,1.3-3.46c.08-.46-.08-1,.55-1.22a1.49,1.49,0,0,1,1.62.7,4.64,4.64,0,0,1,.88,3.54A11.68,11.68,0,0,1,177.62,64.84Z"/><path class="cls-13" d="M148.72,66.14c1.28,4,2.95,7.79,6.88,10,0,1.11,0,2.22,0,3.34-.34.61.36,1.5-.53,2,.27-1.73-.2-2.83-2.14-3.2-1.58-.3-2.29-1.71-2.8-3.11a50.7,50.7,0,0,1-1.75-8.29C148.33,66.63,148.59,66.37,148.72,66.14Z"/><path class="cls-11" d="M225.75,56.94l2.93.51c-.05.47.18,1.14-.29,1.35-1.56.68-1.07,2-.86,3,.33,1.55.15,3.2.89,4.65.34.65-.18.84-.54,1.13-2.46-.5-4.12-2.59-4.55-5.74C223,59.29,223.64,58,225.75,56.94Z"/><path class="cls-6" d="M273.51,146l-.47,0c.23-2.64-.48-5.33.4-7.93C273.46,140.76,273.49,143.39,273.51,146Z"/><path class="cls-14" d="M241.62,73.21a5.8,5.8,0,0,1-4.8-3.53c-.22-.72,0-1.07.74-1.07h8.15c.78,0,.91.33.66,1.06A5.6,5.6,0,0,1,241.62,73.21Z"/><path class="cls-11" d="M239.94,61.09c0-.53.08-1.07.11-1.61.57,0,1.8-1.2,1.3.79a21,21,0,0,0-.13,3.09c-.14,1.45,0,2.65,2.16,2.48-2.11,1.18-2.85.78-3-1.17C240.27,63.48,240.86,62.19,239.94,61.09Z"/><path class="cls-11" d="M243.07,74.81C242,76,240.88,76,239.21,74.72,240.84,74.65,242,75,243.07,74.81Z"/><path class="cls-5" d="M250,55.82a8.24,8.24,0,0,0-4.43-.24c-.75-1.18-.37-1.71,1-1.84a11.28,11.28,0,0,1,3.48.32,1,1,0,0,1,.89,1C250.94,55.75,250.5,55.79,250,55.82Z"/><path class="cls-5" d="M237.27,55.6a8.33,8.33,0,0,0-4.64.25c-1.38-.51-.95-1.33-.06-1.68a7.22,7.22,0,0,1,4.27-.32C238.16,54.14,237.45,54.94,237.27,55.6Z"/><path class="cls-11" d="M155.58,79.47c0-1.12,0-2.23,0-3.34,4,1.45,7.94,1.76,11.91,0l0,.51a10.55,10.55,0,0,1-7.47,2.51C158.58,79.13,157,78.74,155.58,79.47Z"/><path class="cls-7" d="M235.2,56.47a3.59,3.59,0,0,1,.22,7.17,3.54,3.54,0,0,1-3.82-3.5A3.41,3.41,0,0,1,235.2,56.47Zm1.22,3.44c0-.7-.15-1.51-1-1.56s-.93.7-1,1.33,0,1.53.83,1.65S236.27,60.58,236.42,59.91Z"/><path class="cls-7" d="M247.53,56.47a3.59,3.59,0,1,1-.11,7.17,3.76,3.76,0,0,1-3.63-3.79A3.61,3.61,0,0,1,247.53,56.47Zm-.16,1.82c-.92.35-.89,1.13-.83,1.88,0,.58.24,1.22.91,1.15,1-.1,1-1,1-1.74S248.15,58.38,247.37,58.29Z"/><path class="cls-14" d="M57.22,11.63a3.19,3.19,0,0,1-6.37-.12,3.19,3.19,0,1,1,6.37.12Z"/><path class="cls-14" d="M38.61,29.27a3.26,3.26,0,0,1-3.2,3.17,3.19,3.19,0,0,1-3.18-3.18,3.27,3.27,0,0,1,3.19-3.21A3.36,3.36,0,0,1,38.61,29.27Z"/><path class="cls-14" d="M215.39,26.51a3.27,3.27,0,0,1-3.29-3.09,3.22,3.22,0,0,1,6.44-.14A3.25,3.25,0,0,1,215.39,26.51Z"/><path class="cls-14" d="M259,15.37a3.3,3.3,0,0,1-3.09,3.32,3.39,3.39,0,0,1-3.31-3.13,3.41,3.41,0,0,1,3.12-3.32A3.33,3.33,0,0,1,259,15.37Z"/><path class="cls-14" d="M236.18,16.76c0-.28,0-.56,0-.84.47-.55,1.19-.12,1.72-.44v1.28Z"/><path class="cls-16" d="M168,181.34c-.05,3.76-3.52,7.5-7.1,7.35a7.62,7.62,0,0,1-7.46-7.5c-.2-3.71,3.74-7.2,7.57-7.07A7.51,7.51,0,0,1,168,181.34Z"/><path class="cls-5" d="M207.27,156.82a4.64,4.64,0,0,1,.36,2.44q0,21.47,0,42.92c0,1.24.13,2.53-1,3.45,0-.76-.12-1.53-.12-2.29q0-22,0-43.93C206.51,158.51,206.06,157.39,207.27,156.82Z"/><path class="cls-13" d="M186,155.27c0-.21,0-.42,0-.63l18.31.08.06.56Z"/><path class="cls-13" d="M116.52,154.91a11,11,0,0,1,4.11-.29c5.59,0,11.19,0,16.79,0-.19.58-.65.63-1.17.63q-9.51,0-19,0C117,155.24,116.76,155,116.52,154.91Z"/><path class="cls-5" d="M206.62,205.63a2.06,2.06,0,0,1-1.81,1.1c-.55-.63-1.29-.37-1.95-.38-3.53,0-7.07,0-10.6,0,.49-.56,1.15-.39,1.75-.4C198.22,205.84,202.43,206.13,206.62,205.63Z"/><path class="cls-13" d="M131.1,206.89l-14.16-.17c.92-.75,2-.34,3-.36,3.11-.06,6.23,0,9.34,0C129.91,206.36,130.69,206,131.1,206.89Z"/><path class="cls-13" d="M192.26,206.32c3.53,0,7.07,0,10.6,0,.66,0,1.4-.25,1.95.38l-12.92.11Z"/><path class="cls-5" d="M204.4,155.28l-.06-.56a2.66,2.66,0,0,1,2.75,1.8A6.75,6.75,0,0,1,204.4,155.28Z"/><path class="cls-10" d="M114.45,156.59l.34-.47Z"/><path class="cls-6" d="M212,138.14a12.56,12.56,0,0,1-.15,7.6Z"/><path class="cls-13" d="M245.46,212.29a120.51,120.51,0,0,0,25.08-3.38q.3,7.13.59,14.25c-1.32-1.34-.13-3.07-.76-4.59a10.5,10.5,0,0,1-4.11.29c-4.63-.13-9.27.39-13.88-.35-1.36-.21-2.24.32-1.78,1.88a9.62,9.62,0,0,1,.23,2.67c-1,.14-1.75,0-1.7-1.33a6.83,6.83,0,0,0-.29-1.59c-.44-2.27-.68-2.41-3-1.68Z"/><path class="cls-9" d="M71.82,202.56a4.76,4.76,0,0,1,.26-2.53c1.71-.2,3.44-.33,5.14-.64,3.6-.66,7.15-1.74,10.88-1.41a16.12,16.12,0,0,1-.29,4.33c.08-2.19-1-2.27-2.83-1.9C80.62,201.28,76.21,201.87,71.82,202.56Z"/><path class="cls-10" d="M87.81,202.31A16.12,16.12,0,0,0,88.1,198c.16-1.39.31-2.79.46-4.19a21.52,21.52,0,0,1-.7,10C87.84,203.31,87.82,202.81,87.81,202.31Z"/><path class="cls-10" d="M87.72,204.69c.69,1.8.13,3.67.33,5.5l-.9.12Z"/><path class="cls-8" d="M168.09,211.7a.34.34,0,0,1,0,.57Z"/><path class="cls-10" d="M106.87,143.26c.74,5.48-2,10.58-4.21,15.81a21.53,21.53,0,0,0-1.63,6.19c0,.45.16,1.15-.57,1.1-.56,0-.74-.64-.64-1.14.47-2.35.57-4.75,1.71-7,2.75-5.37,4.54-11,4.11-17.17a14.28,14.28,0,0,0-.36-2.67c-.12-.49-.29-1.24.47-1.39s1.09.47,1.11,1.15C106.89,139.68,106.87,141.22,106.87,143.26Z"/><path class="cls-10" d="M114.82,131.78q.15,9.45.28,18.9a13,13,0,0,1-.15,1.64c-.86-.42-.51-1.22-.51-1.86a125.47,125.47,0,0,1,.06-12.72c.36-3.88-1.23-6.8-3.27-9.7a84,84,0,0,0-5-7.18c-.31-.35-.88-.94-.25-1.43.46-.35,1,.07,1.23.47C109.83,123.82,112.79,127.5,114.82,131.78Z"/><path class="cls-7" d="M79.69,67c-2.91-1.12-5.84-1.92-8.69.11-.71.5-.88,0-1-.4-1.57-4.09-3.39-8.17-1.15-12.6a5,5,0,0,0,.45-2.62,3.69,3.69,0,0,1,3.95-4.08,16.51,16.51,0,0,0,7.67-1.45,7.73,7.73,0,0,1,10.65,5.33c.13.53.2,1.28.56,1.52,2.14,1.41,1.64,3.43,1.49,5.44-.22,2.87-.59,5.68-2.41,8.07-.26.34-.29,1.19-1.14.59-2.75-2-5.55-1-8.34-.06ZM71.23,54.33h0c-.76.35-.68,1-.44,1.57s.86.28,1.3.18A25.2,25.2,0,0,1,76,55.73c.66,0,1.53.51,2-.48l.09-.83C75.78,52.77,73.5,53.61,71.23,54.33Zm12.21.09.14.87c2,.86,4.09.2,6.08.7,1.54-.27,1.1-.92.33-1.65C87.79,53.5,85.6,52.83,83.44,54.42ZM80.5,58.88l-.63,0a20.42,20.42,0,0,0-.59,5.28c.15,2.05,1,2.47,3.37,1.27-2.35.19-2.22-1.14-2.16-2.49S80.5,60.22,80.5,58.88Zm7.16.44c-.15-.44-.19-1.22-1-1.19s-.94.87-.93,1.56.14,1.4.93,1.35S87.63,60.2,87.66,59.32ZM74.73,61.08c.83-.31.88-1,.84-1.69s-.21-1.35-1-1.24-.86.94-.82,1.63S74,61,74.73,61.08Z"/><path class="cls-7" d="M85.09,67.88c1.06.64,2.18,1.22,2.18,2.74s-1.33,1.95-2.34,2.6c-3.45,2.18-6.7,1.68-9.84-.71-2-1.57-2-3,.35-4.17l.91-.45ZM80.93,69h0c-1.11,0-2.22,0-3.33,0-1.31,0-1.62.55-1.07,1.67a4.31,4.31,0,0,0,4,2.51,4.19,4.19,0,0,0,3.93-2.26c.68-1.23.87-2.1-1-1.94C82.6,69,81.76,69,80.93,69Z"/><path class="cls-13" d="M85.09,67.88H76.35c.88-1.14,2.45.17,3.34-.94l2-.15C82.5,68.2,84.22,66.7,85.09,67.88Z"/><path class="cls-14" d="M92.72,92.89l.15.44-.15.86-1.37,7.1a16.21,16.21,0,0,0-7-.21c-4.25.49-8.35,2-12.7,2v0c0-.74.29-1.5-.32-2.15l-.51-4.08c-.21-1.86.68-2.43,2.43-2.21a8,8,0,0,0,2.48-.15C81.35,93.3,86.91,91.68,92.72,92.89Z"/><path class="cls-14" d="M71.34,146.06a37.07,37.07,0,0,1-.38-8.35,35.26,35.26,0,0,0,7-.68c3.37-.68,6.72-1.62,10.24-1.47,1.59.07,2.06.54,2,2.06-.09,1.73,0,3.47.08,5.2,0,.39-.08.78-.11,1.18a50,50,0,0,0-6,.2C79.9,144.92,75.72,146.18,71.34,146.06Z"/><path class="cls-14" d="M90.11,125.14c.09.28.18.57.26.85s-.06.76-.1,1.13c0,1.39-.16,2.78-.1,4.16s-.29,1.82-1.72,1.87a42.44,42.44,0,0,0-9.83,1.31,21.8,21.8,0,0,1-4.07.7c-3.16.23-3.16.18-3.26-2.94a7,7,0,0,0-.24-1.19,11.58,11.58,0,0,1,.3-3.37,2.06,2.06,0,0,1,1.55-.86c3.42,0,6.7-.92,10-1.5C85.27,124.89,87.7,124.19,90.11,125.14Z"/><path class="cls-14" d="M91.23,103.78l-.16.89-.74,7.13-.19,0a46.51,46.51,0,0,0-6,.22c-3.85.71-7.74,1.26-11.61,1.88l-.66-8c6.34-1.25,12.62-3,19.19-2.54Z"/><path class="cls-14" d="M71.73,124.73l.81-8.8a30.24,30.24,0,0,0,8.25-1c3-.63,6.12-1.26,9.22-.27,0,2.5,0,5,0,7.52-.65.54-1.43.38-2.18.42a40.37,40.37,0,0,0-4.52.23C79.44,123.51,75.66,124.61,71.73,124.73Z"/><path class="cls-14" d="M72.63,156.54a48.19,48.19,0,0,1-1-7.47c.82-.94,2-.48,3-.63,5.1-.82,10.11-2.46,15.37-1.94a46.24,46.24,0,0,1-.75,7.13.8.8,0,0,0-.15,1.06.23.23,0,0,1,0,.25c-3.91-.43-7.66.46-11.44,1.31C76,156.61,74.34,157.14,72.63,156.54Z"/><path class="cls-14" d="M88.56,193.79c-.15,1.4-.3,2.8-.46,4.19-3.73-.33-7.28.75-10.88,1.41-1.7.31-3.43.44-5.14.64a37.51,37.51,0,0,1,.52-6.26c.4-1.12.57-2.4,2.2-2.46,3.11-.12,6.07-1.13,9.12-1.56,1.49-.21,3.42-1.12,4.66.81l.06,2.37Z"/><path class="cls-14" d="M73,189.17a40.37,40.37,0,0,1,.5-8.36c1.57-.23,3.13-.48,4.71-.69,2.94-.39,5.78-1.45,8.8-1.42,1,0,1.54.3,1.51,1.42-.06,1.88,0,3.76,0,5.64,0,.82-.22,1.33-1.17,1.33C82.42,187.06,77.79,188.8,73,189.17Z"/><path class="cls-14" d="M73.68,167.36l-.12-1.64a1.74,1.74,0,0,0-.08-2.06l-.15-1.59c-.22-2.09.26-3.54,2.84-3.09.18,0,.39-.13.59-.15,3.28-.41,6.43-1.53,9.79-1.51,1.44,0,2,.47,2,1.84q-.28,3.08-.55,6.17c-2.72.7-5.57.44-8.3,1.2C77.79,167.07,75.8,167.81,73.68,167.36Z"/><path class="cls-14" d="M88.41,174.55l.27,1.24c-.06.15-.12.3-.17.44A51.35,51.35,0,0,0,76.41,178c-1.92.48-2.67.06-2.84-1.79.06-2.06.11-4.12.17-6.18,4.24-1.36,8.71-1.32,13-2.14.59-.12.82.35.85.91s-.11,1.12.39,1.54C88.58,171.71,87.46,173.23,88.41,174.55Z"/><path class="cls-9" d="M73.57,176.22c.17,1.85.92,2.27,2.84,1.79a51.35,51.35,0,0,1,12.1-1.78,61.87,61.87,0,0,1,.07,14.33c-1.24-1.93-3.17-1-4.66-.81-3,.43-6,1.44-9.12,1.56-1.63.06-1.8,1.34-2.2,2.46a14.53,14.53,0,0,1,.36-4.6c4.83-.37,9.46-2.11,14.34-2.08,1,0,1.18-.51,1.17-1.33,0-1.88,0-3.76,0-5.64,0-1.12-.48-1.41-1.51-1.42-3,0-5.86,1-8.8,1.42-1.58.21-3.14.46-4.71.69C73.49,179.28,73.53,177.75,73.57,176.22Z"/><path class="cls-9" d="M92.72,92.89c-5.81-1.21-11.37.41-17,1.53a8,8,0,0,1-2.48.15c-1.75-.22-2.64.35-2.43,2.21a21.52,21.52,0,0,1-.74-5.11c2.89,1,5.71.25,8.54-.3a56.12,56.12,0,0,1,10-1.38,11.6,11.6,0,0,1,4.44.83A3,3,0,0,1,92.72,92.89Z"/><path class="cls-9" d="M71.05,131a7,7,0,0,1,.24,1.19c.1,3.12.1,3.17,3.26,2.94a21.8,21.8,0,0,0,4.07-.7,42.44,42.44,0,0,1,9.83-1.31c1.43-.05,1.77-.58,1.72-1.87s.06-2.77.1-4.16a80.74,80.74,0,0,1,0,15.7c0-1.73-.17-3.47-.08-5.2.09-1.52-.38-2-2-2.06-3.52-.15-6.87.79-10.24,1.47a35.26,35.26,0,0,1-7,.68A32.42,32.42,0,0,1,71.05,131Z"/><path class="cls-9" d="M91.05,103.35c-6.57-.42-12.85,1.29-19.19,2.54L71.65,103c4.35.06,8.45-1.46,12.7-2a16.21,16.21,0,0,1,7,.21A3.19,3.19,0,0,1,91.05,103.35Z"/><path class="cls-9" d="M90,146.5c-5.26-.52-10.27,1.12-15.37,1.94-1,.15-2.14-.31-3,.63a6.56,6.56,0,0,1-.31-3c4.38.12,8.56-1.14,12.81-1.86a50,50,0,0,1,6-.2C90.09,144.83,90,145.66,90,146.5Z"/><path class="cls-9" d="M71.73,124.73c3.93-.12,7.71-1.22,11.56-1.87a40.37,40.37,0,0,1,4.52-.23c.75,0,1.53.12,2.18-.42.11,1,.21,2,.32,2.92h-.2c-2.41-1-4.84-.25-7.18.16-3.33.58-6.61,1.5-10,1.5a2.06,2.06,0,0,0-1.55.86A5.76,5.76,0,0,1,71.73,124.73Z"/><path class="cls-9" d="M90,114.69c-3.1-1-6.17-.36-9.22.27a30.24,30.24,0,0,1-8.25,1l0-2.07c3.87-.62,7.76-1.17,11.61-1.88a46.51,46.51,0,0,1,6-.22c0,.29.09.59.13.89C90.18,113.33,90.1,114,90,114.69Z"/><path class="cls-9" d="M88.59,159.16c0-1.37-.6-1.84-2-1.84-3.36,0-6.51,1.1-9.79,1.51-.2,0-.41.18-.59.15-2.58-.45-3.06,1-2.84,3.09a23.41,23.41,0,0,1-.7-5.53c1.71.6,3.39.07,5-.29,3.78-.85,7.53-1.74,11.44-1.31A19.31,19.31,0,0,1,88.59,159.16Z"/><path class="cls-9" d="M88,170.35c-.5-.42-.36-1-.39-1.54s-.26-1-.85-.91c-4.33.82-8.8.78-13,2.14a5.08,5.08,0,0,1-.06-2.68c2.12.45,4.11-.29,6.06-.83,2.73-.76,5.58-.5,8.3-1.2Z"/><path class="cls-9" d="M73.48,163.66a1.74,1.74,0,0,1,.08,2.06Z"/><path class="cls-9" d="M71.34,100.86c.61.65.37,1.41.32,2.15A2.89,2.89,0,0,1,71.34,100.86Z"/><path class="cls-10" d="M88,170.35l0-5q.27-3.09.55-6.17a19.31,19.31,0,0,0,.49-4.22.23.23,0,0,0,0-.25l.15-1.06A46.24,46.24,0,0,0,90,146.5c.06-.84.11-1.67.16-2.5,0-.4.07-.79.11-1.18a80.74,80.74,0,0,0,0-15.7c0-.37.07-.75.1-1.13.93.36.59,1.17.6,1.81,0,4.74.27,9.5,0,14.22-.41,6.07-1.14,12.12-1.84,18.16-.44,3.82-1.2,7.7-.29,11.61a2.69,2.69,0,0,1-.38,2.76C87.46,173.23,88.58,171.71,88,170.35Z"/><path class="cls-10" d="M88.58,190.56a61.87,61.87,0,0,0-.07-14.33l.17-.44c.5.14.62.5.62,1V192a.82.82,0,0,1-.66.92Z"/><path class="cls-10" d="M91.05,103.35a3.19,3.19,0,0,0,.3-2.06c.46-2.37.91-4.73,1.37-7.1a21.66,21.66,0,0,1-1.49,9.59Z"/><path class="cls-10" d="M90,114.69c.09-.68.17-1.36.26-2a60.53,60.53,0,0,1,0,12.48c-.11-1-.21-1.95-.32-2.92C90,119.7,90,117.19,90,114.69Z"/><path class="cls-10" d="M90.33,111.8l.74-7.13A11,11,0,0,1,90.33,111.8Z"/><path class="cls-10" d="M258.72,188.22c-13.78-.79-24.7-7.39-34.22-16.83-.15-.15-.31-.29-.44-.44-.39-.46-1.18-1-.61-1.55s1.24.1,1.68.58a55.3,55.3,0,0,0,11.29,9.46c6.06,3.76,12.47,6.59,19.67,7.23,1,.09,1.92.28,2.88.41.48.06,1.1,0,.95.74S259.18,188.28,258.72,188.22Z"/><path class="cls-10" d="M254.1,182.07a35.52,35.52,0,0,1-9.66-3.32,44.25,44.25,0,0,1-8.68-5.64c-.5-.43-1.15-.91-.65-1.49.65-.74,1,.24,1.45.55,5.31,3.77,10.63,7.49,17.34,8.33a8.18,8.18,0,0,1,.8.25c.45.12,1,0,1.07.72C255.79,181.89,255.4,182.05,254.1,182.07Z"/><path class="cls-14" d="M161.17,67.44c1,0,2,0,2.92,0,1.56-.08,1.61.7,1.08,1.81a4,4,0,0,1-4.21,2.4,4.06,4.06,0,0,1-3.91-2.57c-.48-1.11-.43-1.72,1-1.65C159.09,67.48,160.13,67.44,161.17,67.44Z"/><path class="cls-5" d="M170.63,54.4a46.44,46.44,0,0,0-5.38-.36c-.46,0-.85-.15-.89-.65a.68.68,0,0,1,.79-.75C167.11,52.75,169.13,52.7,170.63,54.4Z"/><path class="cls-11" d="M162.85,64.4c-2.44.73-2.78.49-2.81-1.67,0-1.18,0-2.36,0-3.55,0-.53,0-1.29.8-1.17s.43.81.28,1.22a9.92,9.92,0,0,0-.27,2.48C160.69,63.18,160.91,64.31,162.85,64.4Z"/><path class="cls-5" d="M151.8,54.39c1-1.17,4.26-2.18,5.6-1.76.37.12.62.28.6.7s-.4.66-.84.69Z"/><path class="cls-5" d="M168.45,57.73c-.09.82-.18,1.64-1,1.63-.72,0-.89-.78-.89-1.41s.1-1.49,1-1.48S168.26,57.3,168.45,57.73Z"/><path class="cls-5" d="M156.06,58c-.07.68-.23,1.42-1,1.4s-1-.83-.95-1.54.13-1.37.92-1.34S156,57.3,156.06,58Z"/><path class="cls-11" d="M162.73,73.15c-1.13,1.12-2.24,1.38-3.54-.32A12.28,12.28,0,0,0,162.73,73.15Z"/><path class="cls-9" d="M175.18,65l1.27.62c-.25,1.41-.88,1.82-2.08.85C174.31,65.77,174.79,65.39,175.18,65Z"/><path class="cls-5" d="M236.42,59.91c-.15.67-.17,1.55-1.11,1.42s-.87-.95-.83-1.65.21-1.38,1-1.33S236.37,59.21,236.42,59.91Z"/><path class="cls-5" d="M247.37,58.29c.78.09,1,.63,1,1.29s0,1.64-1,1.74c-.67.07-.87-.57-.91-1.15C246.48,59.42,246.45,58.64,247.37,58.29Z"/><path class="cls-11" d="M80.5,58.88c0,1.34,0,2.69,0,4s-.19,2.68,2.16,2.49c-2.39,1.2-3.22.78-3.37-1.27a20.42,20.42,0,0,1,.59-5.28Z"/><path class="cls-8" d="M90,54.34c.77.73,1.21,1.38-.32,1.65-.18-.9-.92-.7-1.5-.71-1.53,0-3.06,0-4.59,0l-.14-.87C85.61,53.74,87.8,54.43,90,54.34Z"/><path class="cls-8" d="M78,54.42l-.09.83c-1.88,0-3.77-.11-5.63.08-1,.11-1-.4-1.09-1h0C73.49,54.56,75.77,53.65,78,54.42Z"/><path class="cls-5" d="M87.66,59.32c0,.88-.13,1.68-1,1.72s-.93-.71-.93-1.35,0-1.52.93-1.56S87.51,58.88,87.66,59.32Z"/><path class="cls-5" d="M71.21,54.32c.1.61.07,1.12,1.09,1,1.86-.19,3.75-.07,5.63-.08-.45,1-1.32.43-2,.48a25.2,25.2,0,0,0-3.88.34c-.44.1-1,.39-1.3-.18S70.45,54.67,71.21,54.32Z"/><path class="cls-5" d="M74.73,61.08c-.78-.07-1-.65-1-1.3s0-1.5.82-1.63,1,.59,1,1.24S75.56,60.77,74.73,61.08Z"/><path class="cls-5" d="M78,54.42c-2.25-.77-4.53.14-6.79-.09C73.5,53.61,75.78,52.77,78,54.42Z"/><path class="cls-5" d="M90,54.34c-2.19.09-4.38-.6-6.55.08C85.6,52.83,87.79,53.5,90,54.34Z"/><path class="cls-13" d="M83.58,55.29c1.53,0,3.06,0,4.59,0,.58,0,1.32-.19,1.5.71C87.67,55.49,85.53,56.15,83.58,55.29Z"/><path class="cls-14" d="M80.93,69c.83,0,1.67.06,2.49,0,1.91-.16,1.72.71,1,1.94a4.19,4.19,0,0,1-3.93,2.26,4.31,4.31,0,0,1-4-2.51C76,69.54,76.29,69,77.6,69c1.11,0,2.22,0,3.33,0Z"/><path class="cls-9" d="M89.23,153.63l-.15,1.06A.8.8,0,0,1,89.23,153.63Z"/></g></g></svg>