<?xml version="1.0" encoding="UTF-8" standalone="no"?><svg xmlns="http://www.w3.org/2000/svg" viewBox="0 0 54.25 60"><defs><style>.cls-1{fill:#f4be36;}.cls-2{fill:#fbcb51;}.cls-3{fill:#f5c13d;}.cls-4{fill:#fbc94b;}.cls-5{fill:#f8c441;}.cls-6{fill:#f6c03b;}.cls-7{fill:#f7c340;}.cls-8{fill:#fac848;}.cls-9{fill:#f8c545;}.cls-10{fill:#1d98da;}.cls-11{fill:#2e7acc;}.cls-12{fill:#ecb631;}.cls-13{fill:#127ec8;}.cls-14{fill:#0d5da7;}.cls-15{fill:#44d5f7;}</style></defs><g id="Layer_2" data-name="Layer 2"><g id="Layer_1-2" data-name="Layer 1"><path class="cls-1" d="M47.46,48.27c-1.06,4.49-4.47,6.67-9,5.74l-2.3-.45c-.69-.15-1,0-1,.83,0,1.28.29,2.59-.25,3.83a18.61,18.61,0,0,0-3.07,1.07.69.69,0,0,0-.56.64c-1.4,0-2.8.06-4.19.07H13c-3.36,0-4.19-.84-4.19-4.23,0-.34,0-.68,0-1a62.43,62.43,0,0,0,12-.82,52.88,52.88,0,0,0,17.6-6.22c.3-.17.61-.32.65-.72l6.55-.08C46.27,47.3,46.67,48,47.46,48.27Z"/><path class="cls-2" d="M1.58,16.27A20.65,20.65,0,0,1,10.16,5.44a25.12,25.12,0,0,1,10.3-3.68c.18,2.11,0,4.22.07,6.33,0,2.93,0,5.86.07,8.79l-.14.21a2.34,2.34,0,0,0-1,.26A20.15,20.15,0,0,1,11.57,19a18.3,18.3,0,0,1-9.4-2.64A1.88,1.88,0,0,0,1.58,16.27Z"/><path class="cls-3" d="M49.15,24.84c1.58,2.61,3.19,5.2,4.71,7.84a2.51,2.51,0,0,1-1.28,3.71c-1.11.5-2.24,1-3.38,1.4A1.17,1.17,0,0,0,48.29,39c0,1.19-.18,2.37-.27,3.55A3.93,3.93,0,0,0,45.78,44c-3.53,0-7.06-.07-10.59,0-2.62.07-4.81-.61-6.4-2.8l.05-.21a3.39,3.39,0,0,0,1.75-.48c1-.53,2.06-1.06,3.07-1.63A44.4,44.4,0,0,0,47.33,27C47.9,26.26,48.25,25.31,49.15,24.84Z"/><path class="cls-4" d="M1.58,16.27a1.88,1.88,0,0,1,.59.13A18.3,18.3,0,0,0,11.57,19a20.15,20.15,0,0,0,7.92-1.69,2.34,2.34,0,0,1,1-.26l.09,5.33-1,.5a9.15,9.15,0,0,0-4.86,6.45A27.54,27.54,0,0,1,5.83,29c-1.94-.36-3.76-1.1-5.65-1.63A22.18,22.18,0,0,1,1.58,16.27Z"/><path class="cls-5" d="M49.15,24.84c-.9.47-1.25,1.42-1.82,2.16A44.4,44.4,0,0,1,33.66,38.92c-1,.57-2,1.1-3.07,1.63a3.39,3.39,0,0,1-1.75.48l-1.28-2.29c.45-.66,1.23-.9,1.8-1.42a9.62,9.62,0,0,0,2.94-6.11c2-.72,3.44-2.28,5-3.67a36.62,36.62,0,0,0,8.64-11.86c.12-.28.2-.59.57-.65a22,22,0,0,1,1.73,6.65A7.34,7.34,0,0,0,49.15,24.84Z"/><path class="cls-6" d="M39.05,47c0,.4-.35.55-.65.72a52.88,52.88,0,0,1-17.6,6.22,62.43,62.43,0,0,1-12,.82,32,32,0,0,0-.65-7.17,55.14,55.14,0,0,0,12.7-.83,28.77,28.77,0,0,0,7-2.08,9.06,9.06,0,0,0,5.44,2.25C35.24,47,37.14,47,39.05,47Z"/><path class="cls-7" d="M27.89,44.67a28.77,28.77,0,0,1-7,2.08,55.14,55.14,0,0,1-12.7.83,28.16,28.16,0,0,0-4.12-8.37.73.73,0,0,1,.66-.2c1.23.24,2.48.3,3.72.44a36.47,36.47,0,0,0,8.09-.12,4.51,4.51,0,0,0,2.7-.76,10.51,10.51,0,0,0,5.52,1L26,41.86A8.68,8.68,0,0,0,27.89,44.67Z"/><path class="cls-8" d="M35.77,3.62a16.67,16.67,0,0,1,7.14,5.29c-.62.19-.6.79-.76,1.25a31,31,0,0,1-7.69,12.47c-1.17,1.15-2.43,2.17-3.61,3.29a10.76,10.76,0,0,0-4.49-3.51L26.42,20a1.85,1.85,0,0,0,1.25-.63A25.12,25.12,0,0,0,36,6.13C36.22,5.25,36.59,4.39,35.77,3.62Z"/><path class="cls-9" d="M19.22,38.57a4.51,4.51,0,0,1-2.7.76,36.47,36.47,0,0,1-8.09.12c-1.24-.14-2.49-.2-3.72-.44a.73.73,0,0,0-.66.2A25.55,25.55,0,0,1,.18,27.32c1.89.53,3.71,1.27,5.65,1.63a27.54,27.54,0,0,0,8.87.42c0,.41,0,.82,0,1.22A8.91,8.91,0,0,0,19.22,38.57Z"/><path class="cls-4" d="M35.77,3.62c.82.77.45,1.63.24,2.51a25.12,25.12,0,0,1-8.34,13.2,1.85,1.85,0,0,1-1.25.63l-.08-4.1c0-.64,0-1.28,0-1.93q0-6.21,0-12.42A23.37,23.37,0,0,1,35.77,3.62Z"/><path class="cls-9" d="M30.85,25.92c1.18-1.12,2.44-2.14,3.61-3.29a31,31,0,0,0,7.69-12.47c.16-.46.14-1.06.76-1.25A21.43,21.43,0,0,1,46.46,15c-.37.06-.45.37-.57.65a36.62,36.62,0,0,1-8.64,11.86c-1.51,1.39-2.93,2.95-5,3.67A10.59,10.59,0,0,0,30.85,25.92Z"/><path class="cls-10" d="M26.42,1.51q0,6.21,0,12.42c0,.65,0,1.29,0,1.93l-5.74,1c0-2.93,0-5.86-.07-8.79,0-2.11.11-4.22-.07-6.33.3-1.5.6-1.75,2.11-1.76.68,0,1.36,0,2,0A1.56,1.56,0,0,1,26.42,1.51Z"/><path class="cls-11" d="M45.78,44A3.93,3.93,0,0,1,48,42.5c2.49.19,3.87,2,3.11,4a3,3,0,0,1-3.67,1.77c-.79-.23-1.19-1-1.86-1.36A4.77,4.77,0,0,1,45.78,44Z"/><path class="cls-12" d="M31.27,59.93a.69.69,0,0,1,.56-.64,18.61,18.61,0,0,1,3.07-1.07C34.16,59.68,33.18,60.14,31.27,59.93Z"/><path class="cls-13" d="M45.78,44a4.77,4.77,0,0,0-.18,2.89L39.05,47c-1.91,0-3.81,0-5.72-.07a9.06,9.06,0,0,1-5.44-2.25A8.68,8.68,0,0,1,26,41.86a14.54,14.54,0,0,1,2.84-.62c1.59,2.19,3.78,2.87,6.4,2.8C38.72,44,42.25,44,45.78,44Z"/><path class="cls-13" d="M20.6,16.88l5.74-1,.08,4.1-.06,2.45a10.72,10.72,0,0,0-5.81,0l-.09-5.33Z"/><path class="cls-10" d="M28.79,41.24a14.54,14.54,0,0,0-2.84.62l-1.21-2.29,2.82-.83L28.84,41Z"/><path class="cls-14" d="M27.56,38.74l-2.82.83a10.51,10.51,0,0,1-5.52-1,8.91,8.91,0,0,1-4.54-8c0-.4,0-.81,0-1.22a9.15,9.15,0,0,1,4.86-6.45l1-.5a10.72,10.72,0,0,1,5.81,0,10.76,10.76,0,0,1,4.49,3.51,10.59,10.59,0,0,1,1.45,5.29,9.62,9.62,0,0,1-2.94,6.11C28.79,37.84,28,38.08,27.56,38.74Zm-4.1-3.58a4.36,4.36,0,1,0,0-8.71,4.36,4.36,0,1,0,0,8.71Z"/><path class="cls-15" d="M23.46,35.16a4.36,4.36,0,1,1,0-8.71,4.36,4.36,0,1,1,0,8.71Z"/></g></g></svg>