<?xml version="1.0" encoding="UTF-8" standalone="no"?><svg xmlns="http://www.w3.org/2000/svg" viewBox="0 0 29 29"><defs><style>.cls-1{fill:#fedf1b;}.cls-2{fill:#010101;}.cls-3{fill:#fddf1c;}.cls-4{fill:#fcde1c;}.cls-5{fill:#f9dd1e;}.cls-6{fill:#030202;}.cls-7{fill:#050403;}.cls-8{fill:#060505;}.cls-9{fill:#060504;}.cls-10{fill:#050404;}.cls-11{fill:#040303;}</style></defs><g id="Layer_2" data-name="Layer 2"><g id="Layer_1-2" data-name="Layer 1"><path class="cls-1" d="M0,14.5V.08C0,0,0,0,.08,0H28.92C29,0,29,0,29,.08V28.92c0,.06,0,.08-.08.08H.08C0,29,0,29,0,28.92Zm15.38,7.23a6.55,6.55,0,0,0,.86-.06,5.5,5.5,0,0,0,1.58-.41,4.88,4.88,0,0,0,3-3.39,2.46,2.46,0,0,0,.08-1,.66.66,0,0,0-.49-.59s0,0,0-.06c-.06-.18-.11-.37-.18-.55a.1.1,0,0,1,0-.12,1.15,1.15,0,0,0,.17-.5,1.06,1.06,0,0,0-.53-1,3.55,3.55,0,0,0-1.05-.42c-.08,0-.1-.05-.1-.12,0-.4,0-.8-.05-1.2A2.44,2.44,0,0,0,18,10.83s0-.05,0-.08.18-.19.27-.3a3.18,3.18,0,0,0,.8-1.68,1.16,1.16,0,0,0-.42-1.09,1.85,1.85,0,0,0-1.06-.36,4.08,4.08,0,0,0-1.29.16,7.63,7.63,0,0,0-1.13.41.08.08,0,0,1-.11,0l-.64-.62a1.29,1.29,0,0,0-.94-.39,2.74,2.74,0,0,0-1.05.22,7.8,7.8,0,0,0-2.1,1.36,13.54,13.54,0,0,0-1.7,1.77,10.6,10.6,0,0,0-1.34,2.11A3.56,3.56,0,0,0,6.91,14a1.26,1.26,0,0,0,.43.88c.14.11.28.24.43.35s.05.08,0,.14a2.15,2.15,0,0,0,0,1.5,2.31,2.31,0,0,0,2.05,1.53.1.1,0,0,1,.1.07A5.23,5.23,0,0,0,12,20.82,6.33,6.33,0,0,0,15.38,21.73Z"/><path class="cls-2" d="M15.38,21.73A6.33,6.33,0,0,1,12,20.82,5.23,5.23,0,0,1,10,18.49a.1.1,0,0,0-.1-.07,2.31,2.31,0,0,1-2-1.53,2.15,2.15,0,0,1,0-1.5c0-.06,0-.1,0-.14s-.29-.24-.43-.35A1.26,1.26,0,0,1,6.91,14a3.56,3.56,0,0,1,.38-1.7,10.6,10.6,0,0,1,1.34-2.11,13.54,13.54,0,0,1,1.7-1.77,7.8,7.8,0,0,1,2.1-1.36,2.74,2.74,0,0,1,1.05-.22,1.29,1.29,0,0,1,.94.39l.64.62a.08.08,0,0,0,.11,0,7.63,7.63,0,0,1,1.13-.41,4.08,4.08,0,0,1,1.29-.16,1.85,1.85,0,0,1,1.06.36,1.16,1.16,0,0,1,.42,1.09,3.18,3.18,0,0,1-.8,1.68q-.14.17-.27.3s0,.05,0,.08a2.44,2.44,0,0,1,.62,1.42c.05.4,0,.8.05,1.2,0,.07,0,.1.1.12a3.55,3.55,0,0,1,1.05.42,1.06,1.06,0,0,1,.53,1,1.15,1.15,0,0,1-.17.5.1.1,0,0,0,0,.12c.07.18.12.37.18.55,0,0,0,.05,0,.06a.66.66,0,0,1,.49.59,2.46,2.46,0,0,1-.08,1,4.88,4.88,0,0,1-3,3.39,5.5,5.5,0,0,1-1.58.41A6.55,6.55,0,0,1,15.38,21.73Zm4.29-4.54s0,.06,0,.08a2.77,2.77,0,0,1-.93.73,4.88,4.88,0,0,1-2.81.52,2.11,2.11,0,0,1-1-.35,1,1,0,0,1-.22-1.33.66.66,0,0,1,.63-.28c.23,0,.45.06.68.07a6.72,6.72,0,0,0,1.41-.12,5.11,5.11,0,0,0,1.76-.68,1.62,1.62,0,0,0,.63-.64.54.54,0,0,0-.09-.64,1,1,0,0,0-.34-.23,5.08,5.08,0,0,0-.86-.28c-.25-.08-.3-.16-.32-.42,0-.43,0-.87-.07-1.3a1.48,1.48,0,0,0-.18-.61.58.58,0,0,0-.67-.28,1.05,1.05,0,0,0-.44.27,1.55,1.55,0,0,1-1,.37c-.27,0-.53-.05-.8-.07a2.46,2.46,0,0,0-.47,0,1.6,1.6,0,0,0-1.25,1.51,1.94,1.94,0,0,0,.43,1.27c.15.18.31.36.46.55a.2.2,0,0,1,0,.31A2.72,2.72,0,0,0,13.47,18a2.47,2.47,0,0,0,1.47,1.91,3.61,3.61,0,0,0,2.31.27,4.05,4.05,0,0,0,2.08-1,3.23,3.23,0,0,0,1-1.58,1.79,1.79,0,0,0,.08-.57.31.31,0,0,0-.32-.33c-.07,0-.09,0-.1-.09a2.91,2.91,0,0,0-.18-.64c0-.05,0-.08-.1,0a4.78,4.78,0,0,1-1.42.73A5.61,5.61,0,0,1,17,17a6.63,6.63,0,0,1-1.09,0c-.24,0-.47-.07-.71-.06a.32.32,0,0,0-.28.18c0,.09,0,.09.05.13a4.63,4.63,0,0,0,1.11.21,6.14,6.14,0,0,0,1.05,0s.08,0,.1,0,0,.06-.07.07a2.58,2.58,0,0,1-.67.14,3.66,3.66,0,0,1-1.32-.1l-.32-.08a.6.6,0,0,0,.24.39,1,1,0,0,0,.38.19,4.06,4.06,0,0,0,2,0,6.47,6.47,0,0,0,2.11-.9S19.64,17.18,19.67,17.19ZM7.43,13.76a.89.89,0,0,0,.23.74l.36.33s.05,0,.07,0a1.91,1.91,0,0,1,1.12-.72.13.13,0,0,0,.1-.09,8.8,8.8,0,0,1,.48-1.09A9.47,9.47,0,0,1,12,10a16.42,16.42,0,0,1,2.51-1.8c.06,0,.07-.05,0-.1L14,7.59a.6.6,0,0,0-.49-.19,2.36,2.36,0,0,0-.9.2A7.54,7.54,0,0,0,10.54,9a10.47,10.47,0,0,0-1.49,1.56,9.51,9.51,0,0,0-1.36,2.24A3.21,3.21,0,0,0,7.43,13.76Zm3.63,2.69a2.78,2.78,0,0,0-.16-.95A1.32,1.32,0,0,0,8.69,15a1.53,1.53,0,0,0-.4,1.62,1.83,1.83,0,0,0,1.57,1.26,1,1,0,0,0,1-.54A1.86,1.86,0,0,0,11.06,16.45Zm1.12-5.37.06,0a5.64,5.64,0,0,1,3.18-1,5.25,5.25,0,0,1,1.18.12s.06,0,.08,0,0-.05-.06-.06a2.37,2.37,0,0,0-.5-.2,3.19,3.19,0,0,0-.75-.13s-.06,0-.07,0,0-.05,0-.07l.19-.19s0,0,0,0,0,0-.05,0l-.25,0a3.64,3.64,0,0,0-1.31.52s0,0,0,0,0,0,0-.07A2.15,2.15,0,0,1,14,9.61s.05,0,0-.08-.06,0-.09,0l0,0a6.54,6.54,0,0,0-1.42,1.09c-.11.12-.21.24-.32.35s0,0,0,.05Z"/><path class="cls-3" d="M19.67,17.19s0,0-.06,0a6.47,6.47,0,0,1-2.11.9,4.06,4.06,0,0,1-2,0,1,1,0,0,1-.38-.19.6.6,0,0,1-.24-.39l.32.08a3.66,3.66,0,0,0,1.32.1,2.58,2.58,0,0,0,.67-.14s.08,0,.07-.07-.06,0-.1,0a6.14,6.14,0,0,1-1.05,0A4.63,4.63,0,0,1,15,17.24c-.1,0-.1,0-.05-.13a.32.32,0,0,1,.28-.18c.24,0,.47.05.71.06A6.63,6.63,0,0,0,17,17a5.61,5.61,0,0,0,1.28-.27A4.78,4.78,0,0,0,19.71,16c.07,0,.08,0,.1,0a2.91,2.91,0,0,1,.18.64c0,.06,0,.08.1.09a.31.31,0,0,1,.32.33,1.79,1.79,0,0,1-.08.57,3.23,3.23,0,0,1-1,1.58,4.05,4.05,0,0,1-2.08,1,3.61,3.61,0,0,1-2.31-.27A2.47,2.47,0,0,1,13.47,18a2.72,2.72,0,0,1,.69-2.37.2.2,0,0,0,0-.31c-.15-.19-.31-.37-.46-.55a1.94,1.94,0,0,1-.43-1.27A1.6,1.6,0,0,1,14.53,12,2.46,2.46,0,0,1,15,12c.27,0,.53.06.8.07a1.55,1.55,0,0,0,1-.37,1.05,1.05,0,0,1,.44-.27.58.58,0,0,1,.67.28,1.48,1.48,0,0,1,.18.61c0,.43,0,.87.07,1.3,0,.26.07.34.32.42a5.08,5.08,0,0,1,.86.28,1,1,0,0,1,.34.23.54.54,0,0,1,.09.64,1.62,1.62,0,0,1-.63.64,5.11,5.11,0,0,1-1.76.68,6.72,6.72,0,0,1-1.41.12c-.23,0-.45,0-.68-.07a.66.66,0,0,0-.63.28,1,1,0,0,0,.22,1.33,2.11,2.11,0,0,0,1,.35A4.88,4.88,0,0,0,18.7,18a2.77,2.77,0,0,0,.93-.73S19.68,17.23,19.67,17.19Zm-2.1-3.32h.08c.09,0,.12,0,.13-.1a1.45,1.45,0,0,0-.14-.85.22.22,0,0,0-.27-.15.24.24,0,0,0-.17.26,1.76,1.76,0,0,0,.14.68C17.38,13.82,17.43,13.93,17.57,13.87Zm-1.7.38c.07,0,.1,0,.07-.1a.47.47,0,0,0-.17-.2,1,1,0,0,0-1.28,0,.49.49,0,0,0-.12.13s0,.06,0,.09a.08.08,0,0,0,.1,0,.76.76,0,0,0,.2-.06,1.31,1.31,0,0,1,1.08.06Zm-.42.08a.71.71,0,0,0-.49.2s-.07.08,0,.13.08,0,.12,0a1.3,1.3,0,0,1,.73-.07s.09,0,.11,0a.1.1,0,0,0-.05-.1A.58.58,0,0,0,15.45,14.33Zm1.41.25a.17.17,0,0,0-.16.08.15.15,0,0,0,0,.19A.31.31,0,0,0,17,15a.16.16,0,0,0,.12-.26A.36.36,0,0,0,16.86,14.58Zm1-.1c0-.16-.09-.26-.21-.25s-.17.12-.17.26.08.26.19.26S17.87,14.63,17.87,14.48Z"/><path class="cls-3" d="M7.43,13.76a3.21,3.21,0,0,1,.26-1,9.51,9.51,0,0,1,1.36-2.24A10.47,10.47,0,0,1,10.54,9,7.54,7.54,0,0,1,12.61,7.6a2.36,2.36,0,0,1,.9-.2.6.6,0,0,1,.49.19l.53.54c.05,0,0,.07,0,.1A16.42,16.42,0,0,0,12,10a9.47,9.47,0,0,0-2.21,2.89A8.8,8.8,0,0,0,9.31,14a.13.13,0,0,1-.1.09,1.91,1.91,0,0,0-1.12.72s0,0-.07,0l-.36-.33A.89.89,0,0,1,7.43,13.76Z"/><path class="cls-4" d="M11.06,16.45a1.86,1.86,0,0,1-.2.88,1,1,0,0,1-1,.54,1.83,1.83,0,0,1-1.57-1.26A1.53,1.53,0,0,1,8.69,15a1.32,1.32,0,0,1,2.21.51A2.78,2.78,0,0,1,11.06,16.45ZM8.84,16a.17.17,0,0,0,0,.07s0,.1.07.11A.13.13,0,0,0,9,16.11a.32.32,0,0,0,0-.09.72.72,0,0,1,.09-.2.42.42,0,0,1,.78.28,3.54,3.54,0,0,0-.11.44A.56.56,0,0,0,10,17a.37.37,0,0,0,.52,0s0-.06,0-.1a.06.06,0,0,0-.09,0h-.11a.21.21,0,0,1-.23-.23.81.81,0,0,1,.07-.22,1.81,1.81,0,0,0,.14-.45.72.72,0,0,0-.89-.76A.88.88,0,0,0,8.84,16Z"/><path class="cls-5" d="M12.18,11.08l0,0s0,0,0-.05.21-.23.32-.35a6.54,6.54,0,0,1,1.42-1.09l0,0s.06-.05.09,0,0,.06,0,.08a2.15,2.15,0,0,0-.13.32s0,.05,0,.07,0,0,0,0a3.64,3.64,0,0,1,1.31-.52l.25,0s.05,0,.05,0,0,0,0,0l-.19.19s-.06,0,0,.07,0,0,.07,0a3.19,3.19,0,0,1,.75.13,2.37,2.37,0,0,1,.5.2s.08,0,.06.06-.05,0-.08,0a5.25,5.25,0,0,0-1.18-.12,5.64,5.64,0,0,0-3.18,1Z"/><path class="cls-6" d="M17.57,13.87c-.14.06-.19,0-.23-.16A1.76,1.76,0,0,1,17.2,13a.24.24,0,0,1,.17-.26.22.22,0,0,1,.27.15,1.45,1.45,0,0,1,.14.85c0,.09,0,.13-.13.1Z"/><path class="cls-7" d="M15.87,14.25l-.14-.06a1.31,1.31,0,0,0-1.08-.06.76.76,0,0,1-.2.06.08.08,0,0,1-.1,0s0-.06,0-.09a.49.49,0,0,1,.12-.13,1,1,0,0,1,1.28,0,.47.47,0,0,1,.17.2C16,14.22,15.94,14.26,15.87,14.25Z"/><path class="cls-8" d="M15.45,14.33a.58.58,0,0,1,.38.13.1.1,0,0,1,.05.1s-.07,0-.11,0a1.3,1.3,0,0,0-.73.07s-.09.05-.12,0,0-.1,0-.13A.71.71,0,0,1,15.45,14.33Z"/><path class="cls-9" d="M16.86,14.58a.36.36,0,0,1,.29.15A.16.16,0,0,1,17,15a.31.31,0,0,1-.31-.14.15.15,0,0,1,0-.19A.17.17,0,0,1,16.86,14.58Z"/><path class="cls-10" d="M17.87,14.48c0,.15-.08.27-.19.27s-.19-.11-.19-.26.07-.25.17-.26S17.87,14.32,17.87,14.48Z"/><path class="cls-11" d="M8.84,16a.88.88,0,0,1,.59-.82.72.72,0,0,1,.89.76,1.81,1.81,0,0,1-.14.45.81.81,0,0,0-.07.22.21.21,0,0,0,.23.23h.11a.06.06,0,0,1,.09,0s0,.07,0,.1A.37.37,0,0,1,10,17a.56.56,0,0,1-.18-.46,3.54,3.54,0,0,1,.11-.44.42.42,0,0,0-.78-.28.72.72,0,0,0-.09.2.32.32,0,0,1,0,.09.13.13,0,0,1-.12.08c-.06,0-.06-.07-.07-.11A.17.17,0,0,1,8.84,16Z"/></g></g></svg>