<?xml version="1.0" encoding="UTF-8" standalone="no"?><svg xmlns="http://www.w3.org/2000/svg" viewBox="0 0 29.01 29"><defs><style>.cls-1{fill:#89b3f7;}.cls-2{fill:#4284f3;}.cls-3{fill:#246fda;}</style></defs><g id="Layer_2" data-name="Layer 2"><g id="Layer_1-2" data-name="Layer 1"><path class="cls-1" d="M11.55,1.47A3.7,3.7,0,0,1,14.83,0a3.6,3.6,0,0,1,2.31,1.12L21,5l7,7a3.62,3.62,0,0,1,0,5.17l-4,3.94L17.8,27.13c-.07.07-.12.16-.24.18s.05-.15.08-.22a3.56,3.56,0,0,0,0-3.37,4.51,4.51,0,0,0-1.21-1.36,2.11,2.11,0,0,0-.19-.23l-1.57-1.59a.58.58,0,0,1-.17-.21l5.6-5.65c.14-.14.13-.21,0-.35q-2.71-2.7-5.42-5.42c-.06-.06-.11-.14-.2-.14a.57.57,0,0,0-.19-.24L11.94,6.19a3.63,3.63,0,0,1-.58-4.37c0-.08.1-.14.08-.24h0l.05-.06h0Z"/><path class="cls-2" d="M14.5,20.33a.58.58,0,0,0,.17.21l1.57,1.59a2.11,2.11,0,0,1,.19.23.28.28,0,0,1-.12,0,3.56,3.56,0,0,0-2-.49,3.4,3.4,0,0,0-2.2.9,3.6,3.6,0,0,0-.82,4.3c0,.07.12.14,0,.23L10,26,1.18,17.16a3.61,3.61,0,0,1,0-5.33L11.25,1.75l.19-.17c0,.1,0,.16-.08.24a3.63,3.63,0,0,0,.58,4.37l2.34,2.34a.57.57,0,0,1,.19.24c-.07.07-.12.14-.19.2Q11.63,11.64,9,14.28c-.16.17-.18.25,0,.43,1.68,1.7,3.35,3.41,5,5.11A4.26,4.26,0,0,0,14.5,20.33Z"/><path class="cls-3" d="M11.28,27.26c.09-.09,0-.16,0-.23a3.6,3.6,0,0,1,.82-4.3,3.4,3.4,0,0,1,2.2-.9,3.56,3.56,0,0,1,2,.49.28.28,0,0,0,.12,0,4.51,4.51,0,0,1,1.21,1.36,3.56,3.56,0,0,1,0,3.37c0,.07-.13.12-.08.22a4.26,4.26,0,0,1-1.74,1.43,3.61,3.61,0,0,1-4-.87Z"/><path class="cls-2" d="M11.55,1.47l-.06.07Z"/><path class="cls-2" d="M11.49,1.53l-.05.06S11.46,1.54,11.49,1.53Z"/></g></g></svg>