<?xml version="1.0" encoding="UTF-8" standalone="no"?><svg xmlns="http://www.w3.org/2000/svg" viewBox="0 0 27.16 29"><defs><style>.cls-1{fill:#4c76cd;}.cls-2{fill:#4daace;}.cls-3{fill:#4caacd;}.cls-4{fill:#4ca9cd;}</style></defs><g id="Layer_2" data-name="Layer 2"><g id="Layer_1-2" data-name="Layer 1"><path class="cls-1" d="M12.58,28.91l-.72-.44c-.76-.47-1.51-.95-2.29-1.39A3.41,3.41,0,0,1,8.2,25.61C7.08,23.45,6,21.28,4.83,19.12c-.45-.86-.9-1.72-1.41-2.58V24.1l-.87-.47L.19,22.37A.3.3,0,0,1,0,22.06V7.77c0-.22.05-.23.24-.14,1,.53,2,1.06,3.07,1.58a1,1,0,0,1,.46.48Q6.19,14.85,8.62,20a1.64,1.64,0,0,0,.12.22.5.5,0,0,0,0-.29c0-2.54,0-5.08,0-7.62,0-.28,0-.28.25-.16l3.42,1.72a.3.3,0,0,1,.19.31V28.69A.27.27,0,0,1,12.58,28.91Z"/><path class="cls-2" d="M14.63,29v-.82c0-1.79,0-3.59,0-5.38,0-.13,0-.23.15-.3l5.44-2.71a.35.35,0,0,1,.12-.05V20c0,2,0,4,0,6a.32.32,0,0,1-.21.34l-5.26,2.62Z"/><path class="cls-3" d="M20.32,11.18v.19c0,2,0,3.93,0,5.9a.33.33,0,0,1-.22.34l-5.25,2.61c-.19.1-.25.09-.25-.14q0-3,0-5.91a.28.28,0,0,1,.17-.29l5.35-2.66A.26.26,0,0,1,20.32,11.18Z"/><path class="cls-2" d="M27.16,19.57c0,1,0,2,0,3a.28.28,0,0,1-.19.3Q24.74,24,22.51,25.08c-.19.09-.22.05-.22-.14V19a.29.29,0,0,1,.19-.3q2.22-1.11,4.43-2.23c.19-.1.26-.1.25.14C27.15,17.56,27.16,18.56,27.16,19.57Z"/><path class="cls-2" d="M27.15,7.79c0,.06,0,.13,0,.21v5.83a.32.32,0,0,1-.21.34L22.57,16.4c-.28.14-.28.13-.28-.16V10.38c0-.12,0-.23.15-.3L27,7.8S27.09,7.76,27.15,7.79Z"/><path class="cls-4" d="M18.83,9.55c-.07.1-.18.12-.26.17l-4.82,2.42a.3.3,0,0,1-.33,0L8.7,9.78,8.59,9.7l1.23-.65c1.24-.65,2.48-1.29,3.72-2a.43.43,0,0,1,.44,0l4.68,2.37Z"/><path class="cls-4" d="M1.4,6.07C3,5.26,4.6,4.48,6.18,3.66a1,1,0,0,1,1,0c1.43.75,2.87,1.46,4.35,2.2l-1.35.72L6.52,8.51a.29.29,0,0,1-.3,0L1.45,6.13Z"/><path class="cls-4" d="M16,5.85,17.65,5l2.74-1.45a.29.29,0,0,1,.3,0l5,2.51.08.06L25,6.51,21.3,8.35a.36.36,0,0,1-.35,0L16.12,5.93Z"/><path class="cls-4" d="M18.33,2.34,16.21,3.47,14,4.66a.3.3,0,0,1-.32,0L9.05,2.36,9,2.31c0-.09.14-.1.21-.13L13.41.07c.1,0,.19-.11.32,0Z"/></g></g></svg>