<?xml version="1.0" encoding="UTF-8" standalone="no"?><svg xmlns="http://www.w3.org/2000/svg" viewBox="0 0 29.92 29.92"><defs><style>.cls-1{fill:#ee4f33;}</style></defs><g id="Layer_2" data-name="Layer 2"><g id="Layer_1-2" data-name="Layer 1"><path class="cls-1" d="M0,15.63V14.22c2.83-3.09,6.26-6.3,9.31-9.43.17-.16.26-.17.43,0,.9,1.19,2.64,2.11,3.1,3.46-.48,2,.87,2,1.32,3.1q0,3.74,0,7.46a.6.6,0,0,1-.34.61,2.23,2.23,0,0,0-1,2.54,2.3,2.3,0,0,0,4.36.09,2.24,2.24,0,0,0-.88-2.58A.56.56,0,0,1,16,18.9c0-2.55-.08-5.14,0-7.67.67.72,3.07,2.51,3,3.35a2.27,2.27,0,0,0,2.87,2.71c2.7-.77,1.65-5-1.08-4.41-1.21-.16-2.41-2.27-3.48-3.05a.38.38,0,0,1-.13-.4,2.26,2.26,0,0,0-2.72-2.76.38.38,0,0,1-.41-.11c-4.14-4.34-4-2.37.12-6.56h1.41c4.69,4.45,9.86,9.64,14.29,14.3v1.33c-4.42,4.74-9.56,9.87-14.29,14.29H14.3C9.64,25.48,4.43,20.3,0,15.63Z"/></g></g></svg>