<?xml version="1.0" encoding="UTF-8" standalone="no"?><svg xmlns="http://www.w3.org/2000/svg" viewBox="0 0 26.98 29.72"><defs><style>.cls-1{fill:#e35027;}.cls-2{fill:#f0672c;}.cls-3{fill:#ececed;}.cls-4{fill:#ef682e;}.cls-5{fill:#fefdfc;}.cls-6{fill:#fefefd;}.cls-7{fill:#e34f28;}.cls-8{fill:#dc7d62;}</style></defs><g id="Layer_2" data-name="Layer 2"><g id="Layer_1-2" data-name="Layer 1"><path class="cls-1" d="M26.05,10.78c-.44,4.49-.83,9-1.23,13.48-.22,2.63.21,2.78-2.59,3.39-6.73,1.53-7.34,3.32-14.29.84-5.43-1.86-5.56.24-5.88-5.34Q1.28,14.59.51,6L0,.46C0,0,.38,0,.74,0H26.27c.37,0,.75,0,.7.48C26.76,3.92,26.32,7.34,26.05,10.78ZM13.32,20.7c-2.46-.66-3.86-.05-3.79-3.06,0-.38-.13-.48-.51-.48-4.49-.21-2.54.13-2.54,4.71.41,1.3,5.29,1.67,6.72,2.37h.13c.57,4.89-1.16,3.47,6.36,1.79,4.21-.66,2.58-2.17,3.17-5.51.51-5,.91-10,1.4-15-.09-1,.52-2.38.12-3.27C21,2,17.52,2.23,14.1,2.15c-1.2.1-.39,2.46-.62,3.32-2.66,0-5.32,0-8,0-.94,0-.22,1.45-.32,2,.39,1.39.11,8,1.18,8.14s7.06-.61,7.12.49C13.35,17.64,13.76,19.38,13.32,20.7Z"/><path class="cls-2" d="M13.48,5.47c.22-.89-.58-3.19.62-3.32,3.42.08,6.89-.15,10.28.08.4.89-.21,2.23-.12,3.27-.49,5-.89,10-1.4,15-.6,3.35,1.06,4.83-3.17,5.51-7.51,1.68-5.79,3.1-6.36-1.79.1,0,.22,0,.31-.07,2.19-.42,4.3-1.15,6.46-1.68a.44.44,0,0,0,.38-.44c.24-3,.54-6.07.78-9.1.23-.5.07-.82-.5-.76-2.41,0-4.82,0-7.23,0,0-1.08-.08-2.2.05-3.26,2.64-.21,5.5.18,8-.16.07-.59.79-3.29-.09-3.26C18.84,5.55,16.16,5.47,13.48,5.47Z"/><path class="cls-3" d="M13.48,5.47c2.77.15,5.76-.19,8.41.15-1.12.24-8.83-.59-8.41.56.18.81-.53,2.6.75,2.56h7.38c-2.54.34-5.39-.05-8,.16,0,0,0,0,0,0a.09.09,0,0,0-.11,0c-.73.16-5-.51-4.69.39.26.69-.19,3,.71,3,1.2.26,12.94-.73,11.85.56-.44-1-5.81-.2-7.21-.46-1.18,0-.39,2.35-.61,3.17-2.52,0-5,0-7.55,0C5.55,12.34,5.35,9.16,5,6,4.56,4.94,12.39,5.73,13.48,5.47Z"/><path class="cls-3" d="M13.64,24.17c-.09.07-.21,0-.31.07h-.11a0,0,0,0,0,0,0c-1.44-.68-6.3-1.07-6.71-2.36C6.48,17.28,4.53,17,9,17.16c.38,0,.48.1.51.48.19.72-.16,1.94.68,2.29a33.72,33.72,0,0,0,3.43.86,13.19,13.19,0,0,0-.16,3.15C13.48,24.06,13.51,24.15,13.64,24.17Z"/><path class="cls-4" d="M13.64,20.79l-.32-.09c.44-1.32,0-3.06.16-4.52a.45.45,0,0,0-.49-.49c-2.3-.18-4.9.34-7.06-.2,3.74,0,7.46,0,11.2,0,.43,0,.53.09.48.53C17.22,20.41,17.87,19.68,13.64,20.79Z"/><path class="cls-2" d="M13.19,24.23a0,0,0,0,1,0,0h0Z"/><path class="cls-5" d="M13.64,20.79c4.23-1.11,3.58-.38,4-4.73.22-1.12-3.34-.25-4.13-.58.22-.82-.56-3.15.61-3.17h6.63c1.18.19.14,2.61.3,3.51-.37,1.52,0,5.85-.92,6.67-2.16.53-4.27,1.26-6.46,1.68-.13,0-.16-.11-.16-.23A13.19,13.19,0,0,1,13.64,20.79Z"/><path class="cls-6" d="M21.61,8.74H14.23c-1.29,0-.57-1.75-.75-2.56-.41-1.15,7.28-.31,8.41-.56A11.24,11.24,0,0,1,21.61,8.74Z"/><path class="cls-7" d="M13.53,12.16C8.82,12,9,13.52,8.74,9.26c-.35-.89,4-.23,4.69-.39.05.05.11,0,.15,0C13.45,10,13.57,11.08,13.53,12.16Z"/><path class="cls-3" d="M21.61,8.74l0-.05S21.64,8.73,21.61,8.74Z"/><path class="cls-3" d="M21.26,13l0-.07Z"/><path class="cls-8" d="M13.54,8.88a.11.11,0,0,1-.11,0A.09.09,0,0,1,13.54,8.88Z"/><path class="cls-8" d="M11.34,8.85h0Z"/><path class="cls-8" d="M13.34,8.85h0Z"/></g></g></svg>