<?xml version="1.0" encoding="UTF-8" standalone="no"?><svg xmlns="http://www.w3.org/2000/svg" viewBox="0 0 29 29"><defs><style>.cls-1{fill:#2861a1;}.cls-2{fill:#2861a0;}</style></defs><g id="Layer_2" data-name="Layer 2"><g id="Layer_1-2" data-name="Layer 1"><path class="cls-1" d="M18.32,18.42a.61.61,0,0,1,.65,0c.17.12.37,0,.56,0,.7.1,1.38.33,2.07.45a12.4,12.4,0,0,1,2.25.67c.78.29,1.56.58,2.32.92a3.67,3.67,0,0,1,1,.51c.15.12.18.21.09.36A14.91,14.91,0,0,1,25.43,24a17.23,17.23,0,0,1-1.66,1.65,13.44,13.44,0,0,1-4.13,2.39,10.49,10.49,0,0,1-2.21.61c-.34.05-.69.16-1,.22-.06,0-.12,0-.08.12h-.87l-.29-.08-2.9-.21a.73.73,0,0,0-.36-.07.43.43,0,0,0-.41,0,10.6,10.6,0,0,1-2.41-.71,14.83,14.83,0,0,1-3.51-2,.34.34,0,0,1-.11-.53A14.92,14.92,0,0,1,10.57,20a13,13,0,0,1,2.56-1.12,9.77,9.77,0,0,1,2.77-.48h.26a11.34,11.34,0,0,0,1.75-.07A.73.73,0,0,1,18.32,18.42Z"/><path class="cls-1" d="M16.39,1.18a7.13,7.13,0,0,1,.54-.81.24.24,0,0,1,.3-.12c.71.22,1.46.33,2.16.6A16.29,16.29,0,0,1,23.2,2.9a14.3,14.3,0,0,1,4.06,4.66,13.87,13.87,0,0,1,1.61,4.78c0,.08,0,.21.13.2v.37c-.1,0-.05.09,0,.14v2.61l-.08.15a3.35,3.35,0,0,0-.25,1.36s.06.1.09.15A15.85,15.85,0,0,1,27.93,20L26.5,18.8a53.68,53.68,0,0,1-7.92-8.17,15.76,15.76,0,0,1-2.64-5c-.1-.34,0-.7-.16-1l0-.15h0V3.13a1.81,1.81,0,0,1,.15-.76c.06,0,.06-.07,0-.11L16,2.11A1,1,0,0,0,16.39,1.18Z"/><path class="cls-2" d="M16.24,0c0,.25.24.17.41.26-1,.53-2,1.06-2.92,1.63A29.19,29.19,0,0,0,7,7.26a18.13,18.13,0,0,0-2.93,4.31,16.58,16.58,0,0,0-1.4,4.57,17.26,17.26,0,0,0-.14,2.68,17.79,17.79,0,0,0,.35,3.42,1.8,1.8,0,0,1,0,.22.27.27,0,0,1-.16.26c-.16.06-.19-.07-.24-.15A14.12,14.12,0,0,1,.66,18.73a9.29,9.29,0,0,1-.44-2.08l-.07-.92a2.91,2.91,0,0,0,.06-1l-.14.45V13.78l.12.36c-.06-.29.21-.66-.19-.87V13c.22,0,.22-.17.22-.34S.15,12.5.16,12.4a21.49,21.49,0,0,1,.56-2.34A14.6,14.6,0,0,1,5.27,3.34,13.79,13.79,0,0,1,7.76,1.69,14.7,14.7,0,0,1,12.63.13c.08,0,.21,0,.2-.13H13c-.07.07,0,.11,0,.12s.13,0,.1-.12h.15V0l.07,0h.44a.57.57,0,0,0,.36.06h1.15A.25.25,0,0,0,15.52,0H16V.09s.07,0,.1,0,0-.06,0-.07Z"/></g></g></svg>