<?xml version="1.0" encoding="UTF-8" standalone="no"?><svg xmlns="http://www.w3.org/2000/svg" viewBox="0 0 200 178.73"><defs><style>.cls-1{fill:#d2d0f2;}.cls-2{fill:#fdfefe;}.cls-3{fill:#fb5975;}.cls-4{fill:#17b0fc;}.cls-5{fill:#0a0460;}.cls-6{fill:#b1adfa;}.cls-7{fill:#1b1858;}.cls-8{fill:#0d075d;}.cls-9{fill:#4f3be8;}.cls-10{fill:#f8c2cd;}.cls-11{fill:#1d1d23;}.cls-12{fill:#e1e1fd;}.cls-13{fill:#fee3e7;}.cls-14{fill:#15aefb;}.cls-15{fill:#e0e0fc;}</style></defs><g id="Layer_2" data-name="Layer 2"><g id="Layer_1-2" data-name="Layer 1"><path class="cls-1" d="M177.59,30V40.3a2.76,2.76,0,0,0,.29,1.67c-2.53,0-5.07,0-7.6.08-1.57,0-1.93.37-1.93,2,0,2.92,0,5.83,0,8.75v2.61a3.5,3.5,0,0,0,1.31-1.24c.43-.5.82-1,1.62-1,2.1.06,4.21,0,6.31.07q0,20.83,0,41.68c0,1.88-.21,2.1-2,2.1H151.7c.42-2.1.83-4.2,1.28-6.29q2.61-12.16,5.22-24.32c.45-2.09-.14-3-2.31-3.44-.09-.13.12-.39-.19-.42a.19.19,0,0,0-.2-.08c0-.35-.15-.63-.55-.67a1.8,1.8,0,0,0-1.36-.33H105.41c-1.78,0-2.36.55-2.72,2.31l-5,24.75C96.07,86,94.32,83.69,93,81.13a6.79,6.79,0,0,0-6.76-4c-.92,0-1.83-.63-2.75,0a3.41,3.41,0,0,0-1.38-.59c-1-.08-1.35-.67-1.18-1.62l.58-3.8c3-.57,4.54-2.59,5.15-5.46,1.76-1.46,1.78-3.39,0-4.27l-.1-.5,0-.32a7.61,7.61,0,0,0,.25-3.7,3,3,0,0,0,0-1.86,4.47,4.47,0,0,0-3.93-3.44,24.79,24.79,0,0,0-6.14-.32,4.28,4.28,0,0,0-4.3,4.44c-.06,1.19-.11,2.39-.17,3.58a5.65,5.65,0,0,0-1.25.25,2.63,2.63,0,0,0-1.71,3,2.24,2.24,0,0,0,1.89,2.22c1.55.11,1.43,1,1.24,1.94-.46,2.34-.11,4.75-.75,7.09-.32,1.19.27,2.71-1.69,2.87,0,0-.07.16-.11.25-2.39-.12-4.72.55-7.09.62A4.23,4.23,0,0,0,59,79.88,10.44,10.44,0,0,1,58.26,81c-.62,0-1.24-.08-1.87-.08L42,80.82c0-13.62,0-27.23,0-40.85,0-3.35.21-6.69.31-10h56c0,3.79.05,7.57.07,11.36,0,2.66.68,3.35,3.3,3.35H144.6c2.36,0,3.09-.74,3.1-3.08,0-3.88.07-7.76.1-11.65Z"/><path class="cls-2" d="M155.89,62.93c2.17.49,2.76,1.35,2.31,3.44Q155.61,78.54,153,90.69c-.45,2.09-.86,4.19-1.28,6.29-.94,4.4-1.41,4-5.27,4h-7.17c-1.67,0-1.71,0-1.19,1.57.74,2.17,1.55,4.31,2.22,6.49a1.44,1.44,0,0,0,1.66,1.16c2.54,0,5.07,0,7.6,0,1.24,0,1.56.54,1,1.63l-.85,0c-.46-.37-1-.22-1.53-.22q-22.93,0-45.87,0a2.32,2.32,0,0,0-1.53.21l-.29.09-.56-.13c-.2-1,.25-1.42,1.18-1.49.52,0,1.05-.12,1.57-.12H118c2.39,0,4.78,0,7.18,0,.74,0,1.16,0,.92-1-.66-2.73-1.2-5.49-1.79-8.24l-1.61-8h-.18c-.26,2.3-.53,4.61-.8,6.91,0,0-.1,0-.1.07a1.72,1.72,0,0,0,.07.21l0,.87-6.35,0c-4.69,0-9.39-.05-14.08,0a3.18,3.18,0,0,1-3.15-1.52,12.81,12.81,0,0,1,.1-1.86c2.14-10.68,4.33-21.35,6.44-32a3.11,3.11,0,0,1,2.41-2.82c.34,0,.67.07,1,.07H153.7a7.94,7.94,0,0,0,1-.11ZM130.34,80a3.19,3.19,0,0,0,3.48-3.33,3.38,3.38,0,0,0-3.61-3.44A3.5,3.5,0,0,0,127,76.52,3.3,3.3,0,0,0,130.34,80Z"/><path class="cls-3" d="M147.8,29.91c0,3.89-.07,7.77-.1,11.65,0,2.34-.74,3.08-3.1,3.08H101.72c-2.62,0-3.29-.69-3.3-3.35,0-3.79,0-7.57-.07-11.36.13-3.07.11-6.14,0-9.21l.06-14.23c0-2.54.79-3.3,3.38-3.3h42.56c2.61,0,3.34.73,3.36,3.3q0,7.13.08,14.23Q147.62,25.33,147.8,29.91Zm-41.88,0c-.27.1-.26.22,0,.36a1.85,1.85,0,0,0,.54.16q17.25,0,34.48,0c.27,0,.61,0,.6-.58H140q-9.92,0-19.82,0C115.4,29.86,110.66,29.89,105.92,29.91ZM141.52,18v-.3H105.83V18Zm-22.28-6v.29h11.65V12Zm-5.4,12.58v.3h17v-.3Zm17,11.8v-.26H119.36v.26Zm-25.41-.3v.29H115.9v-.29Zm8.34-25.93c.22,1.15,1.27,1.34,1.28,2s-1.15.91-1.18,2.12c.93-.77,2-1.29,2-2.15S114.86,10.81,113.78,10.15Zm-1.9-.2-.5-.2a37.19,37.19,0,0,0-1.92,4.62l.51.2Zm-4,4c-1.87-1.14-1.21-2.3-.1-3.53-1,.47-2.06,1-2,1.78S106.79,13.59,107.89,13.9Zm2.14,11v-.4a29.44,29.44,0,0,0-4.6,0v.42Z"/><path class="cls-4" d="M0,48.44C0,44.23,0,40,0,35.79c0-2.11.63-2.72,2.76-2.72h25.3c2,0,2.71.72,2.71,2.66q0,12.72,0,25.45c0,2-.74,2.65-2.72,2.65q-12.66,0-25.31,0C.59,63.83,0,63.22,0,61.1Zm11.11,2.88c-.09-.14-.2-.35-.34-.53-.65-.82-2-1.38-2-2.33s1.35-1.51,2-2.33c.3-.37.46-.75.06-1.15s-.84-.33-1.24.07L7,47.69a.92.92,0,0,0-.09,1.4c.93,1,1.88,1.92,2.84,2.85a.81.81,0,0,0,.94.15A.84.84,0,0,0,11.11,51.32Zm12.11-3a2.67,2.67,0,0,0-.32-.5c-.91-.92-1.82-1.83-2.74-2.74-.39-.39-.84-.57-1.24-.09s-.18.88.19,1.27C19.8,47,21,47.67,21,48.46s-1.23,1.44-1.9,2.18c-.34.39-.61.83-.18,1.26s1,.24,1.37-.18l2.53-2.55A1.08,1.08,0,0,0,23.22,48.31Zm-7.32-3.6a.7.7,0,0,0-.73.47c-.76,2-1.52,4-2.24,6a.65.65,0,0,0,.45.91.79.79,0,0,0,1-.53q1.08-2.87,2.13-5.74A.77.77,0,0,0,15.9,44.71Zm12.76-11.1,0-.14H2.11v.14Z"/><path class="cls-5" d="M40,112c.75-.48.17-1,0-1.5q-3.54-12.33-7.12-24.64a4.08,4.08,0,0,1-.35-2.1,3.86,3.86,0,0,0,1.35-2.34h0c1.1.25,2.51-.55,3.27.93A4.16,4.16,0,0,0,37,85c2.52,8.68,5.06,17.36,7.56,26.05a1,1,0,0,0,1.2.88c1.53-.06,3.06,0,4.6,0l12.77,0L74,112c.41.35.91.22,1.37.23h97.12c.5,0,1.23-.25,1.46.27a4,4,0,0,1,.06,2.81c-.21.67-1,.37-1.54.37-8,0-16-.06-24,.06-1.8,0-3.69-.26-5.46.45l-1,0-.06-.25c-.49-.46-1.09-.27-1.65-.27H100.84c-6.33,0-12.66,0-19,0-1,0-1.87.74-2.76.38a7.22,7.22,0,0,0-2.82-.34c-6.19,0-12.37,0-18.56,0a5.18,5.18,0,0,0-2.89.65c-.35-.1-.43.24-.62.4a.87.87,0,0,0-.83-.49c-2.14,0-4.28,0-6.41,0-.69,0-.93.11-.68.88.54,1.71,1,3.45,1.47,5.18-.46.07-.48.32-.35.72.44,1.41.85,2.83,1.25,4.24a.58.58,0,0,0,.62.47v0a13.1,13.1,0,0,1,.37,2.79c0,.41.32.39.61.39l.09.31c-.1.06-.28.11-.29.18,0,.28.22.32.41.39.25,1.81,1.33,2.24,3,2.09,2-.17,4-.06,6-.07h1l4.35,0a21.89,21.89,0,0,0,4.85.22c.89,0,1.17.29,1.12,1.15-.07,1.29,0,2.58-.06,3.86H62.89a.72.72,0,0,0-.77.52l-.9.09a.19.19,0,0,1-.19-.15V139c-.44-.44-1-.27-1.5-.27-2.74,0-5.48-.19-8.19.05-1.94.17-2.64-1.25-3.78-2.14-.8-.63.35-1,.21-1.62-.07-.28-.12-.55-.21-.83-1.53-5-3-10-4.45-15-.23-.85,0-2.13-1.2-2.62-.47-.48-1.08-.28-1.63-.28-6.21,0-12.42,0-18.63,0-.45,0-1,.3-1.37-.29.82-.5.48-1.32.43-2-.11-1.35.3-1.82,1.73-1.79,5.31.08,10.62,0,15.93,0C38.91,112.23,39.51,112.41,40,112Zm-18.65,3.79v.14h20v-.14Z"/><path class="cls-2" d="M98.36,20.72c.1,3.07.12,6.14,0,9.21h-56c-.61-1.18-.19-2.44-.27-3.66s0-2.2,0-3.3c0-1.89.42-2.26,2.3-2.26ZM49.22,25.51A1.4,1.4,0,1,0,52,25.6a1.36,1.36,0,0,0-1.5-1.39A1.22,1.22,0,0,0,49.22,25.51Zm5.45.11c0,.84.44,1.38,1.3,1.39a1.4,1.4,0,1,0,0-2.8C55.06,24.25,54.7,24.81,54.67,25.62Zm8.1-.17a1.2,1.2,0,0,0-1.26-1.24A1.32,1.32,0,0,0,60,25.62,1.27,1.27,0,0,0,61.4,27C62.19,27,62.76,26.56,62.77,25.45Z"/><path class="cls-6" d="M50.33,111.9c-1.54,0-3.07,0-4.6,0a1,1,0,0,1-1.2-.88c-2.5-8.69-5-17.37-7.56-26a4.16,4.16,0,0,1,.23-2.67c.38-.61,1.15-.88,1.39-1.61,1.15-.29,2.27.39,3.42.09l14.38.05c.63,0,1.25,0,1.87.08-.12.31-.22.63-.37.93-3.61,7-6.76,14.27-10,21.5C46.12,107.48,46.7,109.44,50.33,111.9Z"/><path class="cls-2" d="M160.77,177.76c1.49.36,2.94-.19,4.42-.19q12.59,0,25.17,0a4.77,4.77,0,0,1,2,.26c.23.1.45.22.41.5s-.29.36-.54.37H1c-.36,0-.89.12-.93-.41s.52-.69.93-.69a49.65,49.65,0,0,1,5.32,0,32.59,32.59,0,0,0,7.71,0c2.12-.3,4.21.46,6.29.19,4.21-.53,8.4.32,12.6-.06l.77,0c.67,0,1.34.13,2,.13,8.18,0,16.36,0,24.54,0a17.47,17.47,0,0,1,2.84-.24c2.34.42,4.69.11,7,.21.47,0,1,.12,1.3-.39.77.46,1.18.42.86-.62-.15-.48-.34-1-.52-1.42l.11.08,0-.13,12.47.09h1.73l.87.15a31.55,31.55,0,0,0,8.35,0l21.3.1c.31.21.87.14.85.76-.05,1.56,1,1.46,2,1.29a12.76,12.76,0,0,1,1.94-.2l.76.21c1.8.13,3.6,0,5.39,0,10.24.08,20.47,0,30.7,0,.67,0,1.34-.09,2-.14Z"/><path class="cls-2" d="M147.8,29.91q-.18-4.59,0-9.19h27.71c1.86,0,2.08.22,2.08,2.05,0,2.39,0,4.78,0,7.18Z"/><path class="cls-4" d="M177.58,53.21c-2.1,0-4.21,0-6.31-.07-.8,0-1.19.5-1.62,1a3.5,3.5,0,0,1-1.31,1.24V52.77c0-2.92,0-5.83,0-8.75,0-1.6.36-2,1.93-2,2.53,0,5.07-.06,7.6-.08H186l2,.1a1.8,1.8,0,0,1,.85,1.69c0,2.49,0,5,0,7.46,0,1.32-.62,1.91-1.92,1.92C183.79,53.15,180.69,53.19,177.58,53.21Zm6.34-5.67a1,1,0,0,0-.89-1.1c-.64-.08-1,.38-1.05.94a.88.88,0,0,0,.82,1A.91.91,0,0,0,183.92,47.54ZM176,47.45c0-.58-.3-1-.92-1a.9.9,0,0,0-1,1,.85.85,0,0,0,.82,1A.94.94,0,0,0,176,47.45Zm3.93-.08a.9.9,0,0,0-1-.94.83.83,0,0,0-.88.93.87.87,0,0,0,.94,1C179.58,48.35,179.9,48,179.94,47.37Z"/><path class="cls-7" d="M160.77,177.76l-.51,0a3.38,3.38,0,0,1-.24-.51q-8.19-29.85-16.37-59.7c-.12-.44-.06-1-.6-1.23l-.05-.07c1.77-.71,3.66-.42,5.46-.45,8-.12,16,0,24-.06.53,0,1.33.3,1.54-.37a4,4,0,0,0-.06-2.81c-.23-.52-1-.27-1.46-.27h-72a2.09,2.09,0,0,0,0-.25l.29-.09c.57,0,1.15.06,1.72.06h42.91c1.43,0,2.87,0,4.3,0l.85,0c7.43,0,14.86.06,22.29,0,1.23,0,1.72.21,1.67,1.59-.12,2.79,0,2.79-2.75,2.79-8.68,0-17.36,0-26,0-1.15,0-1.43.19-1.1,1.4q8.15,29.45,16.2,58.93C160.91,177,161.16,177.38,160.77,177.76Z"/><path class="cls-2" d="M24.61,5.75H38.14c.83,0,1.81,0,1.78,1.11s-.83,1.21-1.76,1.2q-13.38,0-26.76,0a4.33,4.33,0,0,1-.72,0c-.72-.12-1.35-.5-1.32-1.25s.65-1.06,1.45-1C15.41,5.76,20,5.75,24.61,5.75Z"/><path class="cls-2" d="M16.66,78.75c-.52,2.62-1.1,5.66-1.73,8.68-.15.72-.55.42-.92.11-1.67-1.38-1.68-1.38-3,.32a10.22,10.22,0,0,0-1.05,1.35c-.61,1.07-1.09,1.26-2.11.29-1.56-1.48-1.66-1.38-.32-3a4.74,4.74,0,0,0,.39-.6c.42-.68,1.52-1,1.44-1.85s-1.18-.8-1.8-1.2-.13-.72.25-.92C9.89,80.78,12,79.7,14.13,78.6c.55-.28,1.09-.57,1.64-.87S16.76,77.55,16.66,78.75Z"/><path class="cls-7" d="M33.73,177.71l-.77,0A66.11,66.11,0,0,1,35.42,170Q41,153.18,46.74,136.41a4.25,4.25,0,0,0,.07-2.77Q44.4,125.53,42,117.39a7.53,7.53,0,0,1-.14-.85c1.21.49,1,1.77,1.2,2.62,1.41,5,2.92,10,4.45,15,.09.28.14.55.21.83.14.57-1,1-.21,1.62,1.14.89,1.84,2.31,3.78,2.14,2.71-.24,5.45-.07,8.19-.05.5,0,1.06-.17,1.5.27-3.15,0-6.3,0-9.45,0-.51,0-1.07-.18-1.48.3-1.41-.14-1.91-1.27-2.49-2.44-.16.38-.27.64-.36.91q-2.33,6.85-4.62,13.72Q38.18,164.59,33.73,177.71Z"/><path class="cls-2" d="M193.85,68.49c-1.58,0-3.15,0-4.73,0-.68,0-1.4-.07-1.45-1A1.16,1.16,0,0,1,189,66.25c3.3-.06,6.59-.06,9.89,0A1.06,1.06,0,0,1,200,67.41a1.14,1.14,0,0,1-1.28,1.08C197.1,68.5,195.47,68.49,193.85,68.49Z"/><path class="cls-1" d="M73.11,4.55c0,2.46-1.77,4.08-4.46,4.08a3.84,3.84,0,0,1-3.89-4c0-2.66,1.7-4.59,4-4.59A4.37,4.37,0,0,1,73.11,4.55ZM69,1.15a3.09,3.09,0,0,0-3.4,3,3.31,3.31,0,1,0,6.61.36A3.14,3.14,0,0,0,69,1.15Z"/><path class="cls-1" d="M9.79,108.14a3,3,0,0,1-3.17,3.24A3.18,3.18,0,0,1,3.18,108a3.73,3.73,0,0,1,3.39-3.26A3.16,3.16,0,0,1,9.79,108.14Zm-5.47.07a2.11,2.11,0,0,0,2.16,2.3,2.37,2.37,0,0,0,2.43-2.3,2.21,2.21,0,0,0-2.35-2.3C5,105.92,4.32,106.6,4.32,108.21Z"/><path class="cls-1" d="M195.28,95.55A2.27,2.27,0,0,1,192.85,93c0-1.47,1-2.38,2.6-2.38a2.45,2.45,0,0,1-.17,4.9Zm1.62-2.66c-.1-.89-.53-1.47-1.48-1.34s-1.74.49-1.68,1.58a1.51,1.51,0,0,0,1.7,1.54C196.57,94.64,196.77,93.79,196.9,92.89Z"/><path class="cls-4" d="M169.72.18c1.26-.2,1.79.27,1.79,1.63s-.47,1.75-1.75,1.77-1.71-.55-1.71-1.8S168.43,0,169.72.18Z"/><path class="cls-8" d="M40,112c-.5.43-1.1.25-1.65.25-5.31,0-10.62.06-15.93,0-1.43,0-1.84.44-1.73,1.79.05.63.39,1.45-.43,2a12.36,12.36,0,0,1,.05-3.49l.12-.46C27,111.85,33.49,111.9,40,112Z"/><path class="cls-8" d="M38.59,80.73c-.24.73-1,1-1.39,1.61-.76-1.48-2.17-.68-3.27-.93C35.34,80.25,37,81,38.59,80.73Z"/><path class="cls-8" d="M33.93,81.4a3.86,3.86,0,0,1-1.35,2.34A2.72,2.72,0,0,1,33.93,81.4Z"/><path class="cls-1" d="M188,42.08l-2-.1A1.64,1.64,0,0,1,188,42.08Z"/><path class="cls-5" d="M20.44,112l-.12.46C20.19,112.27,20.09,112.08,20.44,112Z"/><path class="cls-9" d="M50.33,111.9c-3.63-2.46-4.21-4.42-2.39-8.52,3.19-7.23,6.34-14.47,10-21.5.15-.3.25-.62.37-.93A10.44,10.44,0,0,0,59,79.88a4.23,4.23,0,0,1,3.88-2.45c2.37-.07,4.7-.74,7.09-.62a5.64,5.64,0,0,0,3.15,3.53,11.4,11.4,0,0,0,8.13.35,3,3,0,0,0,2.13-2.15,1.64,1.64,0,0,0,.12-1.09l0-.36c.92-.6,1.83.07,2.75,0a6.79,6.79,0,0,1,6.76,4c1.36,2.56,3.11,4.91,4.69,7.36-.49,2.43-1,4.87-1.47,7.3-.46,2.16-.05,2.95,2,3.74a3.18,3.18,0,0,0,3.15,1.52c4.69-.06,9.39,0,14.08,0a4.93,4.93,0,0,1-1.79.85c-3.76,1.43-7.54,2.83-11.29,4.27-3.22,1.24-5.77.51-7.81-2.29l-5.25-7.18-1-1.66c.68-2.94,1.36-5.88,2.06-8.93a.82.82,0,0,0-.65.7c-.61,2.4-1.23,4.8-1.82,7.21-.11.44-.34.92.08,1.35L87.76,97h0l-.14.3c-.62,2.52-1.23,5-1.85,7.58-2.08.38-4.24.37-6.26,1.08a9.11,9.11,0,0,1-5,0c0-.33,0-.67,0-1,0-2.58,0-2.58-2.66-2.64-3.16-.06-6.32-.13-9.48-.15-1,0-1.33-.25-.83-1.25.82-1.67,1.58-3.37,2.36-5.07.87-1.92,1.73-3.86,2.73-6.08a1.76,1.76,0,0,0-1.06,1.17c-1.23,2.65-2.5,5.28-3.65,8-.82,1.92-1.61,3.79-3.88,4.41-.15,0-.26.22-.52.45.95.12,1.49-.43,2.11-.69a4,4,0,0,1,1.79-.43c3.11.1,6.22.16,9.33.27,1,0,2.21-.36,2.94.24s.07,1.92.39,2.88Q74,109,74,111.91l0,.1-10.9-.08Z"/><path class="cls-10" d="M83.45,77.09l0,.36c-.4.32-.33.7-.12,1.09a3,3,0,0,1-2.13,2.15,11.4,11.4,0,0,1-8.13-.35,5.64,5.64,0,0,1-3.15-3.53c0-.09.07-.25.11-.25,2-.16,1.37-1.68,1.69-2.87.64-2.34.29-4.75.75-7.09.19-.94.31-1.83-1.24-1.94a2.24,2.24,0,0,1-1.89-2.22,2.63,2.63,0,0,1,1.71-3,5.65,5.65,0,0,1,1.25-.25,5.26,5.26,0,0,1,2.43,1.68c.25-1.56.48-2.91.66-4.27.08-.55.26-.7.83-.57,1.15.25,2.33.41,3.49.61a21,21,0,0,0,7.12.15,7.61,7.61,0,0,1-.25,3.7,1.87,1.87,0,0,0-1-.49c-.57-.08-1.34-.25-1.46.39s.75.59,1.23.73a1.25,1.25,0,0,0,1.17-.31c0,.16.07.33.1.5.25,1.43-.58,2.84,0,4.27-.61,2.87-2.11,4.89-5.15,5.46l-5.23-.42c1.73,1.47,2.86,3.19,4.65,4.22-.17,1,.19,1.54,1.18,1.62A3.41,3.41,0,0,1,83.45,77.09ZM80.36,65.9a2.9,2.9,0,0,0-.43,0c-.31,0-.73-.14-.89.23s.28.64.54.89a.86.86,0,0,0,.49.27c.78,0,1.6.31,2.31-.25a.46.46,0,0,0,.11-.64C82,65.78,81.2,66,80.36,65.9Zm-.6-6.41c-.54.08-1.37-.15-1.43.57s.77.67,1.3.67,1.46.1,1.49-.64S80.28,59.59,79.76,59.49Z"/><path class="cls-8" d="M98.16,99.53c-2-.79-2.44-1.58-2-3.74.51-2.43,1-4.87,1.47-7.3l5-24.75c.36-1.76.94-2.3,2.72-2.31h48.18a1.8,1.8,0,0,1,1.36.33l-.1.12H114.7c-2.44,0-4.86.48-7.31.29-.17,0-.41,0-.29.3v.35a3.11,3.11,0,0,0-2.41,2.82c-2.11,10.69-4.3,21.36-6.44,32A12.81,12.81,0,0,0,98.16,99.53Z"/><path class="cls-8" d="M79.73,56.68c-1.16-.2-2.34-.36-3.49-.61-.57-.13-.75,0-.83.57-.18,1.36-.41,2.71-.66,4.27a5.26,5.26,0,0,0-2.43-1.68c.06-1.19.11-2.39.17-3.58a4.28,4.28,0,0,1,4.3-4.44,24.79,24.79,0,0,1,6.14.32A4.47,4.47,0,0,1,86.86,55c-.12,1.48-1,1.88-2.36,1.73a5.8,5.8,0,0,0-1.86,0C81.65,56.94,80.7,56.06,79.73,56.68Z"/><path class="cls-11" d="M107.11,62.81c0-.12,0-.23,0-.35h47.75l.65,0a.19.19,0,0,1,.2.08c-.29.29-.66.22-1,.25a7.94,7.94,0,0,1-1,.11H108.11C107.78,62.88,107.45,62.83,107.11,62.81Z"/><path class="cls-3" d="M80.89,74.88c-1.79-1-2.92-2.75-4.65-4.22l5.23.42C81.28,72.35,81.09,73.61,80.89,74.88Z"/><path class="cls-3" d="M86.62,65.62c-.54-1.43.29-2.84,0-4.27C88.4,62.23,88.38,64.16,86.62,65.62Z"/><path class="cls-7" d="M86.56,60.85a1.25,1.25,0,0,1-1.17.31c-.48-.14-1.37.06-1.23-.73s.89-.47,1.46-.39a1.87,1.87,0,0,1,1,.49Z"/><path class="cls-7" d="M79.73,56.68c1-.62,1.92.26,2.91,0a5.8,5.8,0,0,1,1.86,0c1.35.15,2.24-.25,2.36-1.73a3,3,0,0,1,0,1.86A21,21,0,0,1,79.73,56.68Z"/><path class="cls-8" d="M154.68,62.76c.36,0,.73,0,1-.25.31,0,.1.29.19.42Z"/><path class="cls-8" d="M155.5,62.43l-.65,0v-.58l.1-.12C155.35,61.8,155.47,62.08,155.5,62.43Z"/><path class="cls-12" d="M85.78,104.84c.62-2.53,1.23-5.06,1.85-7.58l.14-.3h0a2.21,2.21,0,0,0,1.49-.27l5.25,7.18c2,2.8,4.59,3.53,7.81,2.29,3.75-1.44,7.53-2.84,11.29-4.27a4.93,4.93,0,0,0,1.79-.85l6.35,0,2.58,0c.59,2.75,1.13,5.51,1.79,8.24.24,1-.18,1-.92,1-2.4,0-4.79,0-7.18,0H102.64c-.52,0-1,.07-1.57.12-.93.07-1.38.53-1.18,1.49l-9.24,0c0-.33,0-.67,0-1-.15-2.48-1-5.23-4.4-5.57C86,105.28,85.85,105.08,85.78,104.84Z"/><path class="cls-6" d="M130.34,80a3.3,3.3,0,0,1-3.37-3.5,3.5,3.5,0,0,1,3.24-3.27,3.38,3.38,0,0,1,3.61,3.44A3.19,3.19,0,0,1,130.34,80ZM133,76.86a2.59,2.59,0,0,0-2.5-2.62,2.31,2.31,0,0,0-2.41,2.3,2.35,2.35,0,0,0,2.24,2.62A2.67,2.67,0,0,0,133,76.86Z"/><path class="cls-12" d="M149.67,111.9c-1.43,0-2.87,0-4.3,0H102.46c-.57,0-1.15,0-1.72-.06a2.32,2.32,0,0,1,1.53-.21q22.94,0,45.87,0C148.66,111.68,149.21,111.53,149.67,111.9Z"/><path class="cls-7" d="M124.32,101l-2.58,0,0-.87,0-.28c.27-2.3.54-4.61.8-6.91h.18C123.25,95.62,123.78,98.3,124.32,101Z"/><path class="cls-8" d="M90.65,111.87l9.24,0,.56.13a2.09,2.09,0,0,1,0,.25H75.37c-.46,0-1,.12-1.37-.23l0-.1Z"/><path class="cls-12" d="M121.73,99.87l0,.28a1.72,1.72,0,0,1-.07-.21S121.7,99.89,121.73,99.87Z"/><path class="cls-13" d="M141.52,18H105.83v-.3h35.69Z"/><path class="cls-13" d="M105.92,29.91c4.74,0,9.48-.05,14.22-.06q9.9,0,19.82,0h1.54c0,.62-.33.58-.6.58q-17.24,0-34.48,0a1.85,1.85,0,0,1-.54-.16C105.89,30.15,105.91,30,105.92,29.91Z"/><path class="cls-13" d="M119.24,12h11.64v.29H119.24Z"/><path class="cls-13" d="M113.84,24.58h17v.3h-17Z"/><path class="cls-13" d="M130.85,36.38H119.36v-.26h11.49Z"/><path class="cls-13" d="M105.44,36.08H115.9v.29H105.45Z"/><path class="cls-13" d="M113.78,10.15c1.08.66,2.1,1.23,2.1,2s-1.07,1.38-2,2.15c0-1.21,1.19-1.4,1.18-2.12S114,11.3,113.78,10.15Z"/><path class="cls-13" d="M111.88,10,110,14.57l-.51-.2a37.19,37.19,0,0,1,1.92-4.62Z"/><path class="cls-13" d="M107.89,13.9c-1.1-.31-2.08-1-2.12-1.75s1-1.31,2-1.78C106.68,11.6,106,12.76,107.89,13.9Z"/><path class="cls-13" d="M110,24.94h-4.58v-.42a29.44,29.44,0,0,1,4.6,0Z"/><path class="cls-10" d="M105.92,29.91c0,.12,0,.24,0,.36C105.66,30.13,105.65,30,105.92,29.91Z"/><path class="cls-2" d="M11.11,51.32a.84.84,0,0,1-.46.77.81.81,0,0,1-.94-.15c-1-.93-1.91-1.88-2.84-2.85A.92.92,0,0,1,7,47.69l2.65-2.64c.4-.4.8-.51,1.24-.07s.24.78-.06,1.15c-.65.82-2,1.38-2,2.33s1.33,1.51,2,2.33C10.91,51,11,51.18,11.11,51.32Z"/><path class="cls-2" d="M23.22,48.31a1.08,1.08,0,0,1-.38.86l-2.53,2.55c-.41.42-.91.65-1.37.18s-.16-.87.18-1.26c.67-.74,2-1.34,1.9-2.18S19.8,47,19.11,46.25c-.37-.39-.56-.83-.19-1.27s.85-.3,1.24.09c.92.91,1.83,1.82,2.74,2.74A2.67,2.67,0,0,1,23.22,48.31Z"/><path class="cls-2" d="M15.9,44.71a.77.77,0,0,1,.64,1.11q-1,2.88-2.13,5.74a.79.79,0,0,1-1,.53.65.65,0,0,1-.45-.91c.72-2,1.48-4,2.24-6A.7.7,0,0,1,15.9,44.71Z"/><path class="cls-14" d="M28.66,33.61H2.11v-.14H28.7Z"/><path class="cls-14" d="M70.77,139c0-1.28,0-2.57.06-3.86,0-.86-.23-1.18-1.12-1.15a21.89,21.89,0,0,1-4.85-.22,21.69,21.69,0,0,1-4.9-2.18q-2-7.2-4-14.39c-.19-.67-.06-1,.71-1,8,.34,16-.69,23.93.61l2.85,2,.29.29,1,1.26a12.5,12.5,0,0,1,1.91,7.62c-.14,3.81-.08,7.63-.1,11.44-.06.52-.14,1-.16,1.56Q86.2,150,86,158.85H84.44L71,158.75a6.3,6.3,0,0,1-.17-1.13c0-5.23,0-10.47.06-15.71a4.6,4.6,0,0,0-.2-2.38Z"/><path class="cls-6" d="M50.34,131.21l-.09-.31a3.77,3.77,0,0,1,.12-2.5c1.31-3.88,2.56-7.78,3.84-11.67.19-.16.27-.5.62-.4.18.83.35,1.67.53,2.51-1.4,3.09.25,9.11,3.07,11.22a20.51,20.51,0,0,1,1.09,3.74c-2,0-4-.1-6,.07-1.72.15-2.8-.28-3-2.09Z"/><path class="cls-7" d="M122.17,177.78l-.76-.21c.13-.36.27-.71.39-1.08q9-26.78,18-53.56a44.82,44.82,0,0,0,2.09-6.67l.05,0,1,0,.05.07c-.18.53-.37,1.06-.55,1.6q-8.53,25.37-17.08,50.72A92.76,92.76,0,0,1,122.17,177.78Z"/><path class="cls-8" d="M59.52,133.8a20.51,20.51,0,0,0-1.09-3.74c-.3-1.24-.57-2.49-.92-3.72-.69-2.51-1.43-5-2.15-7.5-.18-.84-.35-1.68-.53-2.51a5.18,5.18,0,0,1,2.89-.65c6.19,0,12.37,0,18.56,0a7.22,7.22,0,0,1,2.82.34c.89.36,1.77-.4,2.76-.38,6.32.07,12.65,0,19,0h39.41c.56,0,1.16-.19,1.65.27q-20.46,0-40.92,0c-.56,0-1.16-.19-1.67.22v.1c-1.67,0-3.34,0-5,0q-6.45,0-12.88,0c-.29,0-1.12-.44-.82.56l0,0c-8-1.3-16-.27-23.93-.61-.77,0-.9.28-.71,1q2,7.18,4,14.39c.18.74.36,1.47.55,2.21Z"/><path class="cls-7" d="M71.43,177.45q-2.85-10.56-5.69-21.12-2.26-8.36-4.52-16.71l.9-.09,0,0c.08.37.14.75.24,1.12q3.15,11.52,6.32,23.05l3,11.08a28.9,28.9,0,0,0,1.06-3.89c.17-.64-.06-1.49.76-1.89-.25,1.31-.52,2.6-.75,3.91-.28,1.6-.16,1.74,1.44,1.74,5.06,0,10.12-.09,15.17.3.4,0,.88-.16,1.15.34l-4.52.13H84.91a.43.43,0,0,0-.58,0l-12.47-.09-.07,0,0,.07c.18.47.37.94.52,1.42C72.61,177.87,72.2,177.91,71.43,177.45Z"/><path class="cls-6" d="M47.76,122.31c-.48-1.73-.93-3.47-1.47-5.18-.25-.77,0-.89.68-.88,2.13,0,4.27,0,6.41,0-1,3.83-2.5,7.49-3.65,11.27-.07.25-.28.2-.46.21v0A41.3,41.3,0,0,0,47.76,122.31Z"/><path class="cls-7" d="M49.27,127.72c.18,0,.39,0,.46-.21,1.15-3.78,2.66-7.44,3.65-11.27a.87.87,0,0,1,.83.49c-1.28,3.89-2.53,7.79-3.84,11.67a3.77,3.77,0,0,0-.12,2.5c-.29,0-.66,0-.61-.39A13.1,13.1,0,0,0,49.27,127.72Z"/><path class="cls-7" d="M99.31,116.21c.51-.41,1.11-.22,1.67-.22q20.46,0,40.92,0l.06.25-.05,0H113.22C108.59,116.26,104,116.23,99.31,116.21Z"/><path class="cls-8" d="M61,139.47c-3.65-.05-7.3.24-10.94-.16.41-.48,1-.3,1.48-.3,3.15,0,6.3,0,9.45,0C61,139.15,61,139.31,61,139.47Z"/><ellipse class="cls-8" cx="31.38" cy="115.84" rx="14.17" ry="0.1"/><path class="cls-6" d="M60.51,133.8c-.19-.74-.37-1.47-.55-2.21a21.69,21.69,0,0,0,4.9,2.18Z"/><path class="cls-7" d="M70.77,139c0,.18,0,.35,0,.53l-8.57,0,0,0a.72.72,0,0,1,.77-.52Z"/><path class="cls-7" d="M47.76,122.31a41.3,41.3,0,0,1,1.52,5.43.58.58,0,0,1-.62-.47c-.4-1.41-.81-2.83-1.25-4.24C47.28,122.63,47.3,122.38,47.76,122.31Z"/><path class="cls-7" d="M50.34,131.21l.12.57c-.19-.07-.45-.11-.41-.39C50.06,131.32,50.24,131.27,50.34,131.21Z"/><path class="cls-6" d="M49.22,25.51a1.22,1.22,0,0,1,1.29-1.3A1.36,1.36,0,0,1,52,25.6a1.4,1.4,0,1,1-2.79-.09Z"/><path class="cls-6" d="M54.67,25.62c0-.81.39-1.37,1.26-1.41A1.4,1.4,0,1,1,56,27C55.11,27,54.71,26.46,54.67,25.62Z"/><path class="cls-6" d="M62.77,25.45c0,1.11-.58,1.51-1.37,1.54A1.27,1.27,0,0,1,60,25.62a1.32,1.32,0,0,1,1.47-1.41A1.2,1.2,0,0,1,62.77,25.45Z"/><path class="cls-11" d="M116.27,175.13c.21.14.49.24.31.59l-21.3-.1L91,175.51v-.23h23.11a2.92,2.92,0,0,0,1.67-.3Z"/><path class="cls-15" d="M91,175.51l4.32.11a31.55,31.55,0,0,1-8.35,0l3.59-.11Z"/><path class="cls-9" d="M90.52,175.5l-3.59.11-.87-.15,4.52-.13h0A.36.36,0,0,0,90.52,175.5Z"/><path class="cls-9" d="M84.33,175.45a.43.43,0,0,1,.58,0Z"/><polygon class="cls-9" points="71.77 175.41 71.79 175.34 71.86 175.36 71.88 175.49 71.77 175.41"/><path class="cls-12" d="M183.92,47.54a.91.91,0,0,1-1.12.83.88.88,0,0,1-.82-1c.07-.56.41-1,1.05-.94A1,1,0,0,1,183.92,47.54Z"/><path class="cls-12" d="M176,47.45a.94.94,0,0,1-1.08.9.85.85,0,0,1-.82-1,.9.9,0,0,1,1-1C175.71,46.42,176,46.87,176,47.45Z"/><path class="cls-12" d="M179.94,47.37c0,.64-.36,1-.91,1a.87.87,0,0,1-.94-1,.83.83,0,0,1,.88-.93A.9.9,0,0,1,179.94,47.37Z"/><path class="cls-12" d="M69,1.15a3.14,3.14,0,0,1,3.21,3.4,3.31,3.31,0,1,1-6.61-.36A3.09,3.09,0,0,1,69,1.15Z"/><path class="cls-12" d="M4.32,108.21c0-1.61.65-2.29,2.24-2.3a2.21,2.21,0,0,1,2.35,2.3,2.37,2.37,0,0,1-2.43,2.3A2.11,2.11,0,0,1,4.32,108.21Z"/><path class="cls-12" d="M196.9,92.89c-.13.9-.33,1.75-1.46,1.78a1.51,1.51,0,0,1-1.7-1.54c-.06-1.09.79-1.46,1.68-1.58S196.8,92,196.9,92.89Z"/><path class="cls-10" d="M90.65,111.87l-16.7,0Q74,109,74.08,106l.42-.07a9.11,9.11,0,0,0,5,0c2-.71,4.18-.7,6.26-1.08.07.24.19.44.47.46,3.43.34,4.25,3.09,4.4,5.57C90.67,111.2,90.65,111.54,90.65,111.87Z"/><path class="cls-5" d="M74.5,106l-.42.07c-.32-1,.38-2.24-.39-2.88s-1.94-.21-2.94-.24c-3.11-.11-6.22-.17-9.33-.27a4,4,0,0,0-1.79.43c-.62.26-1.16.81-2.11.69.26-.23.37-.41.52-.45,2.27-.62,3.06-2.49,3.88-4.41,1.15-2.68,2.42-5.31,3.65-8a1.76,1.76,0,0,1,1.06-1.17c-1,2.22-1.86,4.16-2.73,6.08-.78,1.7-1.54,3.4-2.36,5.07-.5,1-.17,1.24.83,1.25,3.16,0,6.32.09,9.48.15,2.67.06,2.67.06,2.66,2.64C74.51,105.29,74.5,105.63,74.5,106Z"/><path class="cls-5" d="M88,95.36c-.42-.43-.19-.91-.08-1.35.59-2.41,1.21-4.81,1.82-7.21a.82.82,0,0,1,.65-.7c-.7,3.05-1.38,6-2.06,8.93Z"/><path class="cls-1" d="M88,95.36l.33-.33c.33.55.65,1.11,1,1.66a2.21,2.21,0,0,1-1.49.27C87.82,96.43,87.89,95.89,88,95.36Z"/><path class="cls-1" d="M83.35,78.54c-.21-.39-.28-.77.12-1.09A1.64,1.64,0,0,1,83.35,78.54Z"/><path class="cls-1" d="M87.77,97l-.14.3Z"/><path class="cls-2" d="M80.36,65.9c.84,0,1.59-.12,2.13.5a.46.46,0,0,1-.11.64c-.71.56-1.53.29-2.31.25a.86.86,0,0,1-.49-.27c-.26-.25-.72-.44-.54-.89s.58-.2.89-.23A2.9,2.9,0,0,1,80.36,65.9Z"/><path class="cls-7" d="M79.76,59.49c.52.1,1.4-.16,1.36.6s-.92.64-1.49.64-1.37.14-1.3-.67S79.22,59.57,79.76,59.49Z"/><path class="cls-7" d="M154.85,61.88v.58H107.1c-.12-.3.12-.31.29-.3,2.45.19,4.87-.29,7.31-.29Z"/><path class="cls-2" d="M133,76.86a2.67,2.67,0,0,1-2.67,2.3A2.35,2.35,0,0,1,128,76.54a2.31,2.31,0,0,1,2.41-2.3A2.59,2.59,0,0,1,133,76.86Z"/><path class="cls-8" d="M92,139.52H86.54c0-3.81,0-7.63.11-11.44a12.5,12.5,0,0,0-1.91-7.62l.23-.2a8.69,8.69,0,0,1,2,5.5c.08,2.42.08,4.85.07,7.27,0,.67.26.94.92.93,1.1,0,2.2,0,3.29,0,.61,0,.84.22.82.84C92.05,136.37,92,137.94,92,139.52Zm-2.67-.8c2.19,0,2.19,0,2.19-2s0-2-2-2c-2.33,0-2.33,0-2.33,2S87.21,138.72,89.34,138.72Z"/><path class="cls-8" d="M70.77,159.12l.27-.37,13.4.09H86a1.09,1.09,0,0,1,.07.24C81,159.33,75.87,159.28,70.77,159.12Z"/><path class="cls-8" d="M83.43,118.9l-2.85-2,0,0c1.32.12,2.15,1,3.07,1.84Z"/><path class="cls-8" d="M84.74,120.45l-1-1.26.22-.25a3.78,3.78,0,0,1,1,1.31Z"/><path class="cls-8" d="M83.72,119.19l-.29-.29.24-.22.27.26Z"/><path class="cls-14" d="M55.36,118.84c.72,2.5,1.46,5,2.15,7.5.35,1.23.62,2.48.92,3.72C55.61,128,54,121.93,55.36,118.84Z"/><path class="cls-14" d="M83.94,118.94l-.27-.26c-.92-.79-1.75-1.72-3.07-1.84-.3-1,.53-.56.82-.56q6.43,0,12.88,0c1.66,0,3.33,0,5,0,3.53,1,6.32,2.91,7.81,6.39a8.4,8.4,0,0,1,.85,3.46c-.12,6.76-.27,13.51-.41,20.26l-.27,12.36-15.09-.07q0-8.6,0-17.2c0-.67-.08-1.33-.13-2,0-1.58,0-3.15.1-4.72,0-.62-.21-.85-.82-.84-1.09,0-2.19,0-3.29,0-.66,0-.92-.26-.92-.93,0-2.42,0-4.85-.07-7.27a8.69,8.69,0,0,0-2-5.5A3.78,3.78,0,0,0,83.94,118.94Z"/><path class="cls-8" d="M85.49,172.69c0,.55.27,1.21.69.53,1.54-2.49,3.16-1.5,4.87-.35a1.25,1.25,0,0,0,.4.13l.38.22h0l.54.28.57.31c.85.46.44-.31.55-.57a1.92,1.92,0,0,0,.24-1.15l0-.28.21-.94c0-.17,0-.34.08-.5.21-.55.46-1,1.18-1a21.3,21.3,0,0,0,2.35.6c2.22.32,4.41.44,6-1.62l.86.41.26.17c-.11.46-.62.54-.84.9-.32.53-1.36,1.06-.84,1.56.72.69.89-.57,1.38-.87s1.06-1.59,2.06-.38c-.85.3-1,1.24-1.69,1.68q-.47.27,0,.54h0c.06.44,0,.95.75.56.38-.2.72-.74,1.24-.22-.05.29-.4.63.1.83s.54-.2.78-.42c.72-.67,1.16-2,2.56-1.26a1.51,1.51,0,0,0,.9.5l.81.44a6.49,6.49,0,0,0,2,1.09,1.51,1.51,0,0,0,.89.5l0,.09a2.5,2.5,0,0,1-2,.51c-5.29,0-10.59,0-15.88,0-.55,0-1.16-.2-1.63.28H91l-.37.05h0c-.27-.5-.75-.31-1.15-.34-5.05-.39-10.11-.28-15.17-.3-1.6,0-1.72-.14-1.44-1.74.23-1.31.5-2.6.75-3.91h0l.88.1.09,0c.22.38.57.35.93.27l0,0c1.15.79,2.31,1.5,3.71.51l.56-.07c.23.24.42.19.58-.08l.06-.06.07,0c.4.09,1,0,1,.58-.1,1.69,1.35,1.59,2.28,2.1l0,0c0,.18.09.39.33.37s.25-.24.27-.43l.25-.3C85,172.09,85.44,172.12,85.49,172.69Z"/><path class="cls-14" d="M95.3,165.06c-.48,0-1-.09-1.43-.09-2.66,0-2.66,0-2.66-2.74,0-.72,0-1.44,0-2.15s.25-1,.89-1c5.09.1,10.17.15,15.26,0,.89,0,1.22.4,1.17,1.31a28,28,0,0,0,0,3.55c0,.84-.32,1.05-1.09,1-1.27,0-2.55.06-3.82.1A65.83,65.83,0,0,0,95.3,165.06Z"/><path class="cls-10" d="M95.3,165.06a65.83,65.83,0,0,1,8.31,0v3a2.81,2.81,0,0,0,0,.29c-1.59,2.06-3.78,1.94-6,1.62a21.3,21.3,0,0,1-2.35-.6Z"/><path class="cls-12" d="M104.81,171.83c.68-.44.84-1.38,1.69-1.68-1-1.21-1.44,0-2.06.38s-.66,1.56-1.38.87c-.52-.5.52-1,.84-1.56.22-.36.73-.44.84-.9a2.41,2.41,0,0,0,.71,0c1.54-.54,2,.41,2.2,1.62a2.35,2.35,0,0,0-1.89,1.45c-.27.55-.53.54-1,.37h0Z"/><path class="cls-12" d="M110.23,171.85c-1.4-.7-1.84.59-2.56,1.26-.24.22-.38.58-.78.42s-.15-.54-.1-.83c.41-.69,1.45-.93,1.4-1.95a4,4,0,0,1,.46-1c.45-.49,1-.7,1.25.18A4.46,4.46,0,0,1,110.23,171.85Z"/><path class="cls-7" d="M95.29,175.27c.47-.48,1.08-.28,1.63-.28,5.29,0,10.59,0,15.88,0a2.5,2.5,0,0,0,2-.51l.29,0,.64.49a2.92,2.92,0,0,1-1.67.3Z"/><path class="cls-8" d="M107.35,159.08c-5.09.17-10.17.12-15.26,0,0-.13.06-.26.1-.39l15.09.07C107.31,158.88,107.33,159,107.35,159.08Z"/><path class="cls-7" d="M108.19,170.75c0,1-1,1.26-1.4,1.95-.52-.52-.86,0-1.24.22-.7.39-.69-.12-.75-.56.43.17.69.18,1-.37a2.35,2.35,0,0,1,1.89-1.45Z"/><path class="cls-12" d="M103.61,167.21v-2c.77.18,1.55.35,2.31.54.29.07.56.2.46.57a.4.4,0,0,1-.56.28C104.85,166,104.31,166.88,103.61,167.21Z"/><path class="cls-12" d="M115.74,175l-.64-.49c.9-.72,1.07-.1,1.17.64Z"/><path class="cls-12" d="M111.94,172.79l-.81-.44c.38-.21.82-.41,1.16,0C112.47,172.51,112.16,172.7,111.94,172.79Z"/><path class="cls-12" d="M114.85,174.38a1.51,1.51,0,0,1-.89-.5C114.68,173.29,114.7,174,114.85,174.38Z"/><path class="cls-12" d="M103.62,168.36a2.81,2.81,0,0,1,0-.29c.5,0,.88.1.87.7Z"/><path class="cls-7" d="M90.59,175.33l.37-.05v.23h-.44A.36.36,0,0,1,90.59,175.33Z"/><path class="cls-14" d="M70.77,159.12c5.1.16,10.21.21,15.31,0,.92,0,1.2.47,1.15,1.36-.09,1.42.43,3.24-.26,4.16s-2.67.22-4.07.36l-.86.08a68.45,68.45,0,0,0-7.58,0c-1.19,0-2.39-.07-3.58-.07-.61,0-1-.11-1-.86,0-1.38,0-2.77,0-4.16C69.88,159.29,70.24,159.14,70.77,159.12Zm14.65.53v-.13h-14v.13Z"/><path class="cls-10" d="M74.46,165a68.45,68.45,0,0,1,7.58,0,9.43,9.43,0,0,1,.28,3.22c-.41.75-1.23,1-1.88,1.47l-.07,0-.06.06-.58.08-.56.07-3.71-.51,0,0a1.1,1.1,0,0,0-.93-.27l-.09,0-.47-.28C74.22,167.6,73.47,166.21,74.46,165Z"/><path class="cls-7" d="M80.44,169.74c.65-.46,1.47-.72,1.88-1.47l1.28.47c-.51.55-1,1-1.39,1.52-.24.3-.77.67-.34,1.07s.68-.21.95-.47.82-.79,1.22-1.2a.68.68,0,0,1,1.11.06c.34.42-.22.51-.37.75-.4.63-1.39.93-1.09,1.95-.93-.51-2.38-.41-2.28-2.1C81.44,169.75,80.84,169.83,80.44,169.74Z"/><path class="cls-7" d="M85.49,172.69c0-.57-.47-.6-.9-.6.71-.73,1.1-2.12,2.7-1.32Z"/><path class="cls-1" d="M93.52,173.25c-.11.26.3,1-.55.57A.55.55,0,0,1,93.52,173.25Z"/><path class="cls-7" d="M84.34,172.39c0,.19,0,.4-.27.43s-.29-.19-.33-.37Z"/><path class="cls-1" d="M92.4,173.51l-.54-.28C92.16,173.09,92.4,173.08,92.4,173.51Z"/><path class="cls-1" d="M91.83,173.22l-.38-.22Z"/><path class="cls-1" d="M94.09,170.38c0,.16,0,.33-.08.5A.41.41,0,0,1,94.09,170.38Z"/><path class="cls-1" d="M93.8,171.82l0,.28a1.6,1.6,0,0,1-.05-.21S93.77,171.84,93.8,171.82Z"/><path class="cls-7" d="M74,168.86l.47.28-.88-.1Z"/><path class="cls-5" d="M89.34,138.72c-2.13,0-2.13,0-2.12-2.05s0-2,2.33-2c2,0,2,0,2,2S91.53,138.72,89.34,138.72Z"/><path class="cls-7" d="M75.46,169.42l3.71.51C77.77,170.92,76.61,170.21,75.46,169.42Z"/><path class="cls-7" d="M74.55,169.17a1.1,1.1,0,0,1,.93.27C75.12,169.52,74.77,169.55,74.55,169.17Z"/><path class="cls-7" d="M79.73,169.86l.58-.08C80.15,170.05,80,170.1,79.73,169.86Z"/><path class="cls-7" d="M104.81,171.83v.54Q104.35,172.1,104.81,171.83Z"/><ellipse class="cls-4" cx="78.44" cy="159.58" rx="9.88" ry="0.09"/></g></g></svg>