<?xml version="1.0" encoding="UTF-8" standalone="no"?><svg xmlns="http://www.w3.org/2000/svg" viewBox="0 0 122.7 28"><defs><style>.cls-1{fill:#3c4852;}</style></defs><g id="Layer_2" data-name="Layer 2"><g id="Layer_1-2" data-name="Layer 1"><path class="cls-1" d="M41.72,25.22a2.48,2.48,0,0,1-1.8-.66C36.54,22,33.14,19.5,29.76,17c-1.5-1.13-1.58-2.39-.14-3.56C33,10.65,36.45,8,39.9,5.28a2.59,2.59,0,0,1,3.27-.06,2,2,0,0,1,.44,2.5,3.31,3.31,0,0,1-1.19,1.19c-2.36,1.86-4.73,3.72-7.13,5.53-.7.53-.68.81,0,1.31,2.58,1.86,5.12,3.79,7.68,5.68A2.21,2.21,0,0,1,43.9,24C43.62,24.93,42.8,25.23,41.72,25.22Z"/><path class="cls-1" d="M18.87,14.84l-7.44-5.9c-.31-.24-.62-.49-.91-.74a2.07,2.07,0,0,1-.69-2.78,2.45,2.45,0,0,1,2.91-.82,6.35,6.35,0,0,1,1.64,1.07q4.39,3.41,8.79,6.83c2.24,1.75,2.21,2.86-.11,4.55l-9.83,7.19a3.35,3.35,0,0,1-1.12.65,2.05,2.05,0,0,1-2.49-.95,2,2,0,0,1,.7-2.65c2.43-1.85,4.88-3.68,7.32-5.51Z"/><path class="cls-1" d="M80.75,22.74a7.62,7.62,0,0,1-5.1,2.73,7.14,7.14,0,0,1-7.58-4.83A13.14,13.14,0,0,1,67.79,12c1.79-6,8.7-6.37,11.91-3.63.3.26.58.85,1,.6s.16-.8.16-1.23c0-1.7,0-3.41,0-5.11S81.62,0,83.07,0s2.18.8,2.18,2.63c0,6.7,0,13.39,0,20.09,0,1.78-.67,2.66-2,2.76C81.81,25.59,81.12,24.91,80.75,22.74ZM72,16a6.8,6.8,0,0,0,1.1,4.32,3.92,3.92,0,0,0,6.3.15,7.89,7.89,0,0,0,0-8.51,3.83,3.83,0,0,0-6.67.48A6.59,6.59,0,0,0,72,16Z"/><path class="cls-1" d="M98.91,17.07c-1.54,0-3.07.05-4.6,0-.75,0-.85.24-.79.9a4.56,4.56,0,0,0,7,3.6,11.74,11.74,0,0,0,2.31-1.91,1.76,1.76,0,0,1,2.47-.37c.86.63.69,1.54.29,2.38a6.68,6.68,0,0,1-4.54,3.46,11.53,11.53,0,0,1-6.22,0c-4-1.12-6.4-4.75-6.17-9.37S90.83,8.13,94.5,7c5.17-1.55,10.23.46,11.5,5.55a6.49,6.49,0,0,1,.17,1.16c.14,2.43-.64,3.29-3.06,3.33C101.71,17.09,100.31,17.07,98.91,17.07Zm-1.38-2.62c1.09,0,2.18,0,3.27,0,.78,0,1-.2.83-1-.44-2.38-2-3.78-4.14-3.74a4.16,4.16,0,0,0-3.93,3.87c-.09.59,0,.87.69.83C95.34,14.4,96.43,14.45,97.53,14.45Z"/><path class="cls-1" d="M46.48,16.15c0-5.71,3.48-9.32,9-9.32,5.72,0,9.3,3.57,9.3,9.32s-3.57,9.33-9.29,9.33C50,25.48,46.48,21.82,46.48,16.15Zm8.92-5.88a3.93,3.93,0,0,0-3.6,2.53,8.29,8.29,0,0,0-.08,6.5A3.9,3.9,0,0,0,55.51,22a4,4,0,0,0,4-2.63,8.25,8.25,0,0,0,0-6.5A4.12,4.12,0,0,0,55.4,10.27Z"/><path class="cls-1" d="M114.59,9.23c2.19-2.59,4.28-3.09,6.76-1.68,1.19.67,1.63,1.68,1.18,2.7s-1.31,1.35-2.64,1c-3.2-.89-4.31-.24-4.92,3a45.3,45.3,0,0,0-.3,7.46,10.7,10.7,0,0,1-.12,2,2.07,2.07,0,0,1-2.24,1.78,2.1,2.1,0,0,1-2.21-1.82,2.29,2.29,0,0,1,0-.52c0-4.64,0-9.27,0-13.91,0-1.85,1.16-2.7,2.82-2.39C114.15,7.08,114.25,8.17,114.59,9.23Z"/><path class="cls-1" d="M0,26c.51-2.39,1.06-5,1.63-7.59Q3.43,10.2,5.26,2a4.34,4.34,0,0,1,.09-.52A1.76,1.76,0,0,1,7.47.15c1.17.26,1.35,1.1,1.12,2.12q-1.83,8.5-3.67,17c-.49,2.3-1,4.6-1.49,6.9a2,2,0,0,1-1.16,1.63C1,28.36,0,27.66,0,26Z"/></g></g></svg>